<svg xmlns="http://www.w3.org/2000/svg" xmlns:xlink="http://www.w3.org/1999/xlink" width="500" zoomAndPan="magnify" viewBox="0 0 375 374.999991" height="500" preserveAspectRatio="xMidYMid meet" version="1.0"><defs><clipPath id="4e6f14c3b6"><path d="M 13 19.066406 L 366 19.066406 L 366 341.566406 L 13 341.566406 Z M 13 19.066406 " clip-rule="nonzero"/></clipPath><clipPath id="78e20d4c30"><path d="M 13 19.066406 L 366 19.066406 L 366 341.566406 L 13 341.566406 Z M 13 19.066406 " clip-rule="nonzero"/></clipPath></defs><rect x="-37.5" width="450" fill="#ffffff" y="-37.499999" height="449.999989" fill-opacity="1"/><rect x="-37.5" width="450" fill="#ffffff" y="-37.499999" height="449.999989" fill-opacity="1"/><g clip-path="url(#4e6f14c3b6)"><path fill="#fab98c" d="M 354.425781 147.148438 C 344.1875 120.8125 328.527344 99.152344 309.136719 84.5 C 287.308594 68.003906 260.804688 60.816406 236.417969 64.789062 C 229.019531 65.996094 221.703125 68.179688 214.265625 70.554688 C 211.226562 55.96875 207.945312 41.367188 204.507812 27.101562 C 204.046875 25.183594 203.078125 21.1875 199.753906 19.816406 C 198.355469 19.230469 196.898438 19.28125 195.734375 19.316406 L 194.859375 19.34375 C 188.871094 19.535156 182.878906 19.730469 176.882812 19.921875 L 175.34375 19.964844 L 175.171875 21.507812 C 173.328125 38.734375 168.800781 55.480469 161.714844 71.324219 C 155 68.785156 148.855469 66.589844 142.589844 65.171875 C 119.578125 59.976562 94.007812 65.90625 72.4375 81.425781 C 54.042969 94.675781 38.445312 114.957031 27.328125 140.082031 C 17.1875 163.015625 12.542969 185.429688 13.515625 206.695312 C 14.621094 230.863281 23.464844 254.863281 39.078125 276.09375 C 53.878906 296.226562 73.640625 312.558594 96.226562 323.332031 C 119.578125 334.464844 146.476562 340.488281 175.820312 341.304688 C 177.265625 341.351562 178.722656 341.378906 180.1875 341.390625 C 181.046875 341.398438 181.90625 341.40625 182.765625 341.40625 C 200.992188 341.40625 220.097656 339.441406 239.828125 335.496094 C 287.964844 325.867188 322.730469 306.734375 343.171875 278.625 C 355.886719 261.132812 363.464844 239.136719 365.070312 214.992188 C 366.570312 192.386719 362.890625 168.921875 354.425781 147.148438 " fill-opacity="1" fill-rule="nonzero"/></g><path fill="#d1eca1" d="M 201.054688 27.941406 C 200.792969 26.863281 200.496094 25.800781 200.074219 24.933594 C 199.652344 24.066406 199.121094 23.398438 198.390625 23.101562 C 197.699219 22.808594 196.757812 22.84375 195.847656 22.871094 L 194.972656 22.902344 C 194.394531 22.921875 193.804688 22.9375 193.21875 22.957031 L 193.230469 23.269531 C 193.617188 23.269531 194.003906 23.460938 194.03125 23.84375 C 194.597656 33.84375 194.769531 43.855469 195.300781 53.859375 C 195.691406 61.207031 196.617188 68.535156 197.234375 75.875 C 201.617188 74.652344 206.003906 73.222656 210.324219 71.828125 L 210.871094 71.648438 C 207.808594 56.980469 204.515625 42.28125 201.054688 27.941406 Z M 192.332031 53.675781 C 192.84375 61.207031 193.34375 69.019531 194.605469 76.585938 C 191.019531 77.523438 187.445312 78.304688 183.929688 78.820312 C 183.242188 78.65625 182.550781 78.476562 181.863281 78.292969 C 180.976562 78.0625 180.09375 77.808594 179.214844 77.546875 C 178.960938 77.464844 178.695312 77.386719 178.441406 77.3125 C 177.984375 77.175781 177.539062 77.03125 177.082031 76.882812 C 180.597656 64.121094 183.269531 51 183.589844 37.746094 C 183.617188 36.695312 181.578125 36.84375 181.429688 37.796875 C 179.363281 50.617188 177.464844 63.382812 174.277344 75.960938 C 173.359375 75.648438 172.453125 75.328125 171.535156 74.992188 C 170.148438 74.496094 168.757812 73.984375 167.382812 73.464844 C 166.59375 73.171875 165.8125 72.875 165.035156 72.582031 C 172.019531 56.929688 176.554688 40.414062 178.53125 23.425781 C 183.433594 23.277344 188.324219 23.113281 193.21875 22.957031 L 193.230469 23.269531 C 192.835938 23.269531 192.445312 23.460938 192.410156 23.832031 C 191.464844 33.734375 191.648438 43.753906 192.332031 53.675781 " fill-opacity="1" fill-rule="nonzero"/><path fill="#fae98c" d="M 81.21875 298.222656 C 82.164062 299.007812 84.347656 297.988281 83.242188 296.871094 C 76.097656 289.71875 69.441406 282.171875 64.0625 273.570312 C 58.816406 265.1875 55.1875 256.214844 51.777344 246.960938 C 51.542969 246.34375 50.179688 246.542969 50.320312 247.253906 C 54.144531 266.460938 66.167969 285.808594 81.21875 298.222656 Z M 102.6875 166.335938 C 103.5625 164.515625 100.480469 164.25 99.664062 165.582031 C 94.5 173.960938 92.667969 184.382812 94.621094 194.039062 C 94.875 195.292969 97.035156 194.953125 96.988281 193.707031 C 96.585938 184.011719 98.519531 175.089844 102.6875 166.335938 Z M 106.277344 87.324219 C 107.539062 86.53125 106.148438 85.058594 105.003906 85.609375 C 71.015625 101.820312 45.179688 135.960938 34.117188 171.46875 C 30.773438 182.214844 28.757812 193.300781 27.996094 204.519531 C 27.949219 205.300781 29.566406 205.289062 29.644531 204.535156 C 33.550781 166.75 52.386719 130.589844 81.011719 105.652344 C 88.867188 98.804688 97.457031 92.855469 106.277344 87.324219 Z M 133.5 185.335938 C 134.835938 187.019531 137.542969 186.003906 137.4375 183.855469 C 136.144531 156.957031 134.835938 130.050781 133.535156 103.152344 C 133.453125 101.34375 131.339844 100.398438 129.941406 101.535156 C 109.054688 118.589844 89.746094 137.585938 72.355469 158.207031 C 71.003906 159.816406 72.433594 162.230469 74.492188 161.808594 C 84.5 159.753906 94.519531 157.6875 104.527344 155.628906 C 106.121094 155.308594 107.835938 154.992188 109.308594 155.664062 C 110.402344 156.167969 111.191406 157.15625 111.9375 158.101562 C 119.132812 167.171875 126.3125 176.253906 133.5 185.335938 Z M 142.640625 324.753906 C 143.855469 325.5 145.71875 323.921875 144.3125 322.902344 C 131.972656 313.980469 122.839844 303.121094 115.382812 289.894531 C 114.886719 289.027344 113.101562 289.484375 113.515625 290.550781 C 118.933594 304.496094 129.964844 316.992188 142.640625 324.753906 Z M 152.570312 197.300781 C 152.742188 195.695312 150.042969 195.753906 149.753906 197.164062 C 148.152344 204.96875 147.933594 213.066406 148.523438 220.996094 C 148.613281 222.289062 150.902344 221.890625 150.910156 220.652344 C 150.980469 212.804688 151.742188 205.085938 152.570312 197.300781 Z M 186.175781 91.089844 C 186.5 90.238281 184.9375 90.046875 184.519531 90.539062 C 179.074219 96.949219 175.273438 105.210938 171.75 112.808594 C 168.132812 120.597656 164.980469 128.621094 162.300781 136.785156 C 159.71875 144.65625 157.636719 152.71875 155.96875 160.832031 C 154.339844 168.753906 152.355469 177.675781 153.027344 185.796875 C 153.105469 186.820312 154.796875 186.613281 155.019531 185.773438 C 157.214844 177.691406 157.828125 169.046875 159.582031 160.839844 C 161.347656 152.546875 163.628906 144.398438 166.28125 136.355469 C 168.84375 128.605469 171.835938 121.003906 175.214844 113.574219 C 178.644531 106.023438 183.207031 98.8125 186.175781 91.089844 Z M 197.824219 325.382812 C 199.109375 319.339844 199.542969 313.117188 199.355469 306.957031 C 199.195312 301.308594 199.011719 294.160156 196.476562 289.015625 C 196.234375 288.53125 195.402344 288.667969 195.363281 289.214844 C 194.992188 294.710938 196.347656 300.542969 196.523438 306.082031 C 196.722656 312.480469 196.3125 318.816406 195.804688 325.1875 C 195.714844 326.332031 197.605469 326.414062 197.824219 325.382812 Z M 211.609375 210.738281 C 214.109375 210.738281 215.695312 208.058594 214.492188 205.863281 L 192.277344 165.226562 C 191.035156 162.945312 187.75 162.945312 186.5 165.226562 L 164.285156 205.863281 C 163.082031 208.058594 164.671875 210.738281 167.175781 210.738281 Z M 227.761719 182.882812 C 228.351562 169.078125 225.0625 154.964844 220.929688 141.882812 C 216.746094 128.632812 210.792969 116.042969 203.398438 104.292969 C 202.730469 103.238281 200.402344 103.949219 201.097656 105.167969 C 207.816406 117.058594 213.234375 129.660156 217.242188 142.71875 C 221.296875 155.933594 222.945312 169.421875 225.347656 182.976562 C 225.546875 184.074219 227.710938 184.027344 227.761719 182.882812 Z M 238.359375 98.09375 C 239.1875 99.203125 241.761719 98.535156 240.996094 97.019531 C 237.398438 89.890625 230.957031 84.230469 223.941406 80.582031 C 222.894531 80.039062 221.210938 81.269531 222.476562 82.136719 C 228.890625 86.527344 233.699219 91.910156 238.359375 98.09375 Z M 250.792969 279.082031 C 251.121094 277.78125 248.679688 277.566406 248.289062 278.65625 C 245.382812 286.816406 241.695312 294.746094 237.011719 302.046875 C 234.757812 305.554688 232.261719 308.933594 229.582031 312.117188 C 226.902344 315.289062 223.644531 318.082031 221.183594 321.410156 C 220.539062 322.285156 222.113281 322.664062 222.667969 322.34375 C 229.777344 318.183594 235.566406 310.273438 240.011719 303.519531 C 244.957031 295.996094 248.609375 287.828125 250.792969 279.082031 Z M 259.6875 227.160156 C 261.949219 214.453125 258.027344 200.1875 251.761719 189.148438 C 251.214844 188.1875 249.253906 188.71875 249.722656 189.878906 C 252.132812 195.808594 254.058594 201.882812 255.242188 208.171875 C 256.433594 214.515625 256.527344 220.882812 257.03125 227.292969 C 257.140625 228.617188 259.480469 228.304688 259.6875 227.160156 Z M 278.273438 292.882812 C 278.871094 291.503906 276.585938 291.105469 275.996094 292.207031 C 269.929688 303.484375 262.226562 313.675781 252.472656 322.015625 C 251.71875 322.664062 252.996094 323.464844 253.636719 322.996094 C 264.285156 315.203125 273 305.042969 278.273438 292.882812 Z M 287.453125 194.890625 C 287.972656 188.691406 286.578125 182.449219 284.578125 176.605469 C 282.757812 171.308594 280.433594 165.203125 276.449219 161.152344 C 275.839844 160.53125 274.390625 160.984375 274.730469 161.964844 C 276.6875 167.59375 279.832031 172.683594 281.5 178.488281 C 283.070312 183.929688 283.675781 189.503906 284.738281 195.03125 C 284.988281 196.292969 287.34375 196.15625 287.453125 194.890625 Z M 304.292969 161.808594 C 306.34375 162.230469 307.78125 159.816406 306.421875 158.207031 C 289.039062 137.585938 269.722656 118.589844 248.835938 101.535156 C 247.4375 100.398438 245.332031 101.34375 245.242188 103.152344 C 243.941406 130.050781 242.640625 156.957031 241.339844 183.855469 C 241.234375 186.003906 243.949219 187.019531 245.285156 185.335938 C 252.472656 176.253906 259.652344 167.171875 266.839844 158.101562 C 267.59375 157.15625 268.375 156.167969 269.476562 155.664062 C 270.945312 154.992188 272.664062 155.308594 274.25 155.628906 C 284.261719 157.6875 294.277344 159.753906 304.292969 161.808594 Z M 310.632812 238.714844 C 318.46875 220.546875 321.195312 200.203125 318.484375 180.605469 C 318.257812 178.941406 316.316406 178.144531 314.976562 179.148438 C 302.160156 188.714844 289.335938 198.269531 276.511719 207.832031 C 276.042969 208.183594 275.734375 208.707031 275.648438 209.289062 C 274.113281 219.890625 272.570312 230.496094 271.03125 241.105469 C 270.789062 242.753906 268.878906 243.546875 267.53125 242.558594 C 257.640625 235.308594 248.332031 227.257812 239.722656 218.507812 C 238.640625 217.410156 236.800781 217.746094 236.15625 219.140625 C 230.671875 230.984375 225.183594 242.832031 219.699219 254.679688 C 219.039062 256.101562 217.15625 256.410156 216.085938 255.265625 C 207.234375 245.789062 198.910156 235.8125 191.160156 225.417969 C 190.273438 224.222656 188.503906 224.230469 187.617188 225.417969 C 179.867188 235.820312 171.542969 245.789062 162.691406 255.265625 C 161.625 256.410156 159.738281 256.101562 159.085938 254.679688 C 153.59375 242.832031 148.113281 230.984375 142.621094 219.140625 C 141.976562 217.746094 140.136719 217.410156 139.054688 218.507812 C 130.453125 227.257812 121.140625 235.308594 111.246094 242.558594 C 109.90625 243.546875 107.988281 242.753906 107.746094 241.105469 C 106.207031 230.496094 104.664062 219.890625 103.128906 209.289062 C 103.042969 208.707031 102.738281 208.183594 102.265625 207.832031 C 89.441406 198.269531 76.628906 188.714844 63.808594 179.148438 C 62.460938 178.144531 60.527344 178.949219 60.292969 180.613281 C 57.582031 200.210938 60.308594 220.546875 68.148438 238.714844 C 75.363281 255.445312 86.894531 270.285156 101.253906 281.476562 C 102.070312 282.117188 103.230469 282.082031 104.015625 281.421875 C 111.726562 274.964844 119.425781 268.507812 127.125 262.050781 C 128.09375 261.242188 129.550781 261.410156 130.304688 262.429688 L 156.878906 298.007812 C 157.652344 299.046875 159.15625 299.203125 160.125 298.34375 C 169.972656 289.519531 179.199219 279.984375 187.695312 269.84375 C 188.582031 268.785156 190.195312 268.785156 191.074219 269.84375 C 199.585938 279.984375 208.804688 289.519531 218.664062 298.34375 C 219.628906 299.210938 221.125 299.054688 221.898438 298.015625 C 230.757812 286.15625 239.617188 274.296875 248.472656 262.429688 C 249.230469 261.410156 250.6875 261.242188 251.664062 262.050781 C 259.363281 268.507812 267.0625 274.964844 274.761719 281.421875 C 275.554688 282.082031 276.714844 282.117188 277.527344 281.476562 C 291.894531 270.285156 303.421875 255.445312 310.632812 238.714844 Z M 325.179688 141.765625 C 325.679688 142.636719 327.765625 142.359375 327.46875 141.1875 C 324.328125 128.820312 316.019531 117.476562 307.503906 108.242188 C 298.253906 98.210938 287.28125 90.167969 274.910156 84.421875 C 273.976562 83.988281 272.378906 85.160156 273.582031 85.792969 C 284.996094 91.824219 295.445312 99.84375 304.136719 109.398438 C 313.027344 119.171875 318.734375 130.398438 325.179688 141.765625 Z M 309.542969 289.441406 C 340.433594 261.808594 353.640625 214.460938 341.242188 174.867188 C 341 174.105469 339.34375 174.421875 339.523438 175.238281 C 348.605469 216.074219 336.882812 258.363281 307.683594 288.339844 C 306.609375 289.441406 308.660156 290.222656 309.542969 289.441406 Z M 351.113281 148.4375 C 359.394531 169.734375 362.996094 192.667969 361.527344 214.757812 C 359.964844 238.222656 352.625 259.582031 340.296875 276.535156 C 320.402344 303.898438 286.367188 322.5625 239.132812 332.011719 C 217.632812 336.308594 196.898438 338.226562 177.273438 337.785156 C 175.117188 335.046875 173.019531 332.253906 171.023438 329.375 C 165.832031 321.859375 161.449219 313.878906 157.367188 305.714844 C 157.003906 305.003906 155.554688 305.359375 155.875 306.199219 C 160.078125 317.109375 165.882812 327.945312 173.019531 337.652344 C 145.3125 336.546875 119.894531 330.679688 97.753906 320.125 C 76.011719 309.75 56.1875 293.367188 41.941406 273.984375 C 26.738281 253.320312 18.136719 229.996094 17.066406 206.53125 C 16.117188 185.820312 20.660156 163.945312 30.574219 141.527344 C 41.445312 116.972656 56.632812 97.191406 74.503906 84.316406 C 90.351562 72.917969 108.390625 66.886719 125.84375 66.886719 C 131.25 66.886719 136.605469 67.460938 141.8125 68.640625 C 146.839844 69.78125 151.839844 71.453125 157.167969 73.414062 C 149.953125 76.820312 143.90625 82.367188 139.332031 88.941406 C 138.605469 89.980469 140.6875 90.632812 141.328125 89.816406 C 146.449219 83.183594 152.863281 78.320312 160.21875 74.550781 C 160.21875 74.558594 160.230469 74.558594 160.230469 74.558594 C 160.816406 74.78125 161.414062 75.007812 162.011719 75.234375 L 162.941406 75.589844 C 166.371094 76.890625 169.867188 78.214844 173.375 79.402344 C 174.285156 79.714844 175.199219 80.019531 176.117188 80.308594 C 178.558594 81.09375 181.007812 81.789062 183.449219 82.359375 L 183.765625 82.4375 L 184.101562 82.386719 C 187.792969 81.867188 191.523438 81.058594 195.25 80.089844 C 196.003906 79.898438 196.757812 79.695312 197.507812 79.484375 C 202.183594 78.191406 206.84375 76.6875 211.417969 75.207031 L 213.476562 74.542969 C 221.429688 71.976562 229.210938 69.566406 236.988281 68.304688 C 260.417969 64.476562 285.9375 71.417969 306.992188 87.335938 C 325.859375 101.59375 341.121094 122.71875 351.113281 148.4375 " fill-opacity="1" fill-rule="nonzero"/><path fill="#e28eab" d="M 133.535156 103.152344 C 133.453125 101.34375 131.339844 100.398438 129.941406 101.535156 C 109.054688 118.589844 89.746094 137.585938 72.355469 158.207031 C 71.003906 159.816406 72.433594 162.230469 74.492188 161.808594 C 84.5 159.753906 94.519531 157.6875 104.527344 155.628906 C 106.121094 155.308594 107.835938 154.992188 109.308594 155.664062 C 110.402344 156.167969 111.191406 157.15625 111.9375 158.101562 C 119.132812 167.171875 126.3125 176.253906 133.5 185.335938 C 134.835938 187.019531 137.542969 186.003906 137.4375 183.855469 C 136.144531 156.957031 134.835938 130.050781 133.535156 103.152344 Z M 192.277344 165.226562 C 191.035156 162.945312 187.75 162.945312 186.5 165.226562 L 164.285156 205.863281 C 163.082031 208.058594 164.671875 210.738281 167.175781 210.738281 L 211.609375 210.738281 C 214.109375 210.738281 215.695312 208.058594 214.492188 205.863281 Z M 248.835938 101.535156 C 247.4375 100.398438 245.332031 101.34375 245.242188 103.152344 C 243.941406 130.050781 242.640625 156.957031 241.339844 183.855469 C 241.234375 186.003906 243.949219 187.019531 245.285156 185.335938 C 252.472656 176.253906 259.652344 167.171875 266.839844 158.101562 C 267.59375 157.15625 268.375 156.167969 269.476562 155.664062 C 270.945312 154.992188 272.664062 155.308594 274.25 155.628906 C 284.261719 157.6875 294.277344 159.753906 304.292969 161.808594 C 306.34375 162.230469 307.78125 159.816406 306.421875 158.207031 C 289.039062 137.585938 269.722656 118.589844 248.835938 101.535156 Z M 318.484375 180.605469 C 321.195312 200.203125 318.46875 220.546875 310.632812 238.714844 C 303.421875 255.445312 291.894531 270.285156 277.527344 281.476562 C 276.714844 282.117188 275.554688 282.082031 274.761719 281.421875 C 267.0625 274.964844 259.363281 268.507812 251.664062 262.050781 C 250.6875 261.242188 249.230469 261.410156 248.472656 262.429688 C 239.617188 274.296875 230.757812 286.15625 221.898438 298.015625 C 221.125 299.054688 219.628906 299.210938 218.664062 298.34375 C 208.804688 289.519531 199.585938 279.984375 191.074219 269.84375 C 190.195312 268.785156 188.582031 268.785156 187.695312 269.84375 C 179.199219 279.984375 169.972656 289.519531 160.125 298.34375 C 159.15625 299.203125 157.652344 299.046875 156.878906 298.007812 L 130.304688 262.429688 C 129.550781 261.410156 128.09375 261.242188 127.125 262.050781 C 119.425781 268.507812 111.726562 274.964844 104.015625 281.421875 C 103.230469 282.082031 102.070312 282.117188 101.253906 281.476562 C 86.894531 270.285156 75.363281 255.445312 68.148438 238.714844 C 60.308594 220.546875 57.582031 200.210938 60.292969 180.613281 C 60.527344 178.949219 62.460938 178.144531 63.808594 179.148438 C 76.628906 188.714844 89.441406 198.269531 102.265625 207.832031 C 102.738281 208.183594 103.042969 208.707031 103.128906 209.289062 C 104.664062 219.890625 106.207031 230.496094 107.746094 241.105469 C 107.988281 242.753906 109.90625 243.546875 111.246094 242.558594 C 121.140625 235.308594 130.453125 227.257812 139.054688 218.507812 C 140.136719 217.410156 141.976562 217.746094 142.621094 219.140625 C 148.113281 230.984375 153.59375 242.832031 159.085938 254.679688 C 159.738281 256.101562 161.625 256.410156 162.691406 255.265625 C 171.542969 245.789062 179.867188 235.820312 187.617188 225.417969 C 188.503906 224.230469 190.273438 224.222656 191.160156 225.417969 C 198.910156 235.8125 207.234375 245.789062 216.085938 255.265625 C 217.15625 256.410156 219.039062 256.101562 219.699219 254.679688 C 225.183594 242.832031 230.671875 230.984375 236.15625 219.140625 C 236.800781 217.746094 238.640625 217.410156 239.722656 218.507812 C 248.332031 227.257812 257.640625 235.308594 267.53125 242.558594 C 268.878906 243.546875 270.789062 242.753906 271.03125 241.105469 C 272.570312 230.496094 274.113281 219.890625 275.648438 209.289062 C 275.734375 208.707031 276.042969 208.183594 276.511719 207.832031 C 289.335938 198.269531 302.160156 188.714844 314.976562 179.148438 C 316.316406 178.144531 318.257812 178.941406 318.484375 180.605469 " fill-opacity="1" fill-rule="nonzero"/><g clip-path="url(#78e20d4c30)"><path fill="#fab98c" d="M 83.242188 296.871094 C 84.347656 297.988281 82.164062 299.007812 81.21875 298.222656 C 66.167969 285.808594 54.144531 266.460938 50.320312 247.253906 C 50.179688 246.542969 51.542969 246.34375 51.777344 246.960938 C 55.1875 256.214844 58.816406 265.1875 64.0625 273.570312 C 69.441406 282.171875 76.097656 289.71875 83.242188 296.871094 Z M 102.6875 166.335938 C 98.519531 175.089844 96.585938 184.011719 96.988281 193.707031 C 97.035156 194.953125 94.875 195.292969 94.621094 194.039062 C 92.667969 184.382812 94.5 173.960938 99.664062 165.582031 C 100.480469 164.25 103.5625 164.515625 102.6875 166.335938 Z M 106.277344 87.324219 C 97.457031 92.855469 88.867188 98.804688 81.011719 105.652344 C 52.386719 130.589844 33.550781 166.75 29.644531 204.535156 C 29.566406 205.289062 27.949219 205.300781 27.996094 204.519531 C 28.757812 193.300781 30.773438 182.214844 34.117188 171.46875 C 45.179688 135.960938 71.015625 101.820312 105.003906 85.609375 C 106.148438 85.058594 107.539062 86.53125 106.277344 87.324219 Z M 142.640625 324.753906 C 129.964844 316.992188 118.933594 304.496094 113.515625 290.550781 C 113.101562 289.484375 114.886719 289.027344 115.382812 289.894531 C 122.839844 303.121094 131.972656 313.980469 144.3125 322.902344 C 145.71875 323.921875 143.855469 325.5 142.640625 324.753906 Z M 152.570312 197.300781 C 151.742188 205.085938 150.980469 212.804688 150.910156 220.652344 C 150.902344 221.890625 148.613281 222.289062 148.523438 220.996094 C 147.933594 213.066406 148.152344 204.96875 149.753906 197.164062 C 150.042969 195.753906 152.742188 195.695312 152.570312 197.300781 Z M 186.175781 91.089844 C 183.207031 98.8125 178.644531 106.023438 175.214844 113.574219 C 171.835938 121.003906 168.84375 128.605469 166.28125 136.355469 C 163.628906 144.398438 161.347656 152.546875 159.582031 160.839844 C 157.828125 169.046875 157.214844 177.691406 155.019531 185.773438 C 154.796875 186.613281 153.105469 186.820312 153.027344 185.796875 C 152.355469 177.675781 154.339844 168.753906 155.96875 160.832031 C 157.636719 152.71875 159.71875 144.65625 162.300781 136.785156 C 164.980469 128.621094 168.132812 120.597656 171.75 112.808594 C 175.273438 105.210938 179.074219 96.949219 184.519531 90.539062 C 184.9375 90.046875 186.5 90.238281 186.175781 91.089844 Z M 199.355469 306.957031 C 199.542969 313.117188 199.109375 319.339844 197.824219 325.382812 C 197.605469 326.414062 195.714844 326.332031 195.804688 325.1875 C 196.3125 318.816406 196.722656 312.480469 196.523438 306.082031 C 196.347656 300.542969 194.992188 294.710938 195.363281 289.214844 C 195.402344 288.667969 196.234375 288.53125 196.476562 289.015625 C 199.011719 294.160156 199.195312 301.308594 199.355469 306.957031 Z M 225.347656 182.976562 C 222.945312 169.421875 221.296875 155.933594 217.242188 142.71875 C 213.234375 129.660156 207.816406 117.058594 201.097656 105.167969 C 200.402344 103.949219 202.730469 103.238281 203.398438 104.292969 C 210.792969 116.042969 216.746094 128.632812 220.929688 141.882812 C 225.0625 154.964844 228.351562 169.078125 227.761719 182.882812 C 227.710938 184.027344 225.546875 184.074219 225.347656 182.976562 Z M 223.941406 80.582031 C 230.957031 84.230469 237.398438 89.890625 240.996094 97.019531 C 241.761719 98.535156 239.1875 99.203125 238.359375 98.09375 C 233.699219 91.910156 228.890625 86.527344 222.476562 82.136719 C 221.210938 81.269531 222.894531 80.039062 223.941406 80.582031 Z M 250.792969 279.082031 C 248.609375 287.828125 244.957031 295.996094 240.011719 303.519531 C 235.566406 310.273438 229.777344 318.183594 222.667969 322.34375 C 222.113281 322.664062 220.539062 322.285156 221.183594 321.410156 C 223.644531 318.082031 226.902344 315.289062 229.582031 312.117188 C 232.261719 308.933594 234.757812 305.554688 237.011719 302.046875 C 241.695312 294.746094 245.382812 286.816406 248.289062 278.65625 C 248.679688 277.566406 251.121094 277.78125 250.792969 279.082031 Z M 249.722656 189.878906 C 249.253906 188.71875 251.214844 188.1875 251.761719 189.148438 C 258.027344 200.1875 261.949219 214.453125 259.6875 227.160156 C 259.480469 228.304688 257.140625 228.617188 257.03125 227.292969 C 256.527344 220.882812 256.433594 214.515625 255.242188 208.171875 C 254.058594 201.882812 252.132812 195.808594 249.722656 189.878906 Z M 278.273438 292.882812 C 273 305.042969 264.285156 315.203125 253.636719 322.996094 C 252.996094 323.464844 251.71875 322.664062 252.472656 322.015625 C 262.226562 313.675781 269.929688 303.484375 275.996094 292.207031 C 276.585938 291.105469 278.871094 291.503906 278.273438 292.882812 Z M 284.578125 176.605469 C 286.578125 182.449219 287.972656 188.691406 287.453125 194.890625 C 287.34375 196.15625 284.988281 196.292969 284.738281 195.03125 C 283.675781 189.503906 283.070312 183.929688 281.5 178.488281 C 279.832031 172.683594 276.6875 167.59375 274.730469 161.964844 C 274.390625 160.984375 275.839844 160.53125 276.449219 161.152344 C 280.433594 165.203125 282.757812 171.308594 284.578125 176.605469 Z M 325.179688 141.765625 C 318.734375 130.398438 313.027344 119.171875 304.136719 109.398438 C 295.445312 99.84375 284.996094 91.824219 273.582031 85.792969 C 272.378906 85.160156 273.976562 83.988281 274.910156 84.421875 C 287.28125 90.167969 298.253906 98.210938 307.503906 108.242188 C 316.019531 117.476562 324.328125 128.820312 327.46875 141.1875 C 327.765625 142.359375 325.679688 142.636719 325.179688 141.765625 Z M 341.242188 174.867188 C 353.640625 214.460938 340.433594 261.808594 309.542969 289.441406 C 308.660156 290.222656 306.609375 289.441406 307.683594 288.339844 C 336.882812 258.363281 348.605469 216.074219 339.523438 175.238281 C 339.34375 174.421875 341 174.105469 341.242188 174.867188 Z M 361.527344 214.757812 C 359.964844 238.222656 352.625 259.582031 340.296875 276.535156 C 320.402344 303.898438 286.367188 322.5625 239.132812 332.011719 C 217.632812 336.308594 196.898438 338.226562 177.273438 337.785156 C 175.117188 335.046875 173.019531 332.253906 171.023438 329.375 C 165.832031 321.859375 161.449219 313.878906 157.367188 305.714844 C 157.003906 305.003906 155.554688 305.359375 155.875 306.199219 C 160.078125 317.109375 165.882812 327.945312 173.019531 337.652344 C 145.3125 336.546875 119.894531 330.679688 97.753906 320.125 C 76.011719 309.75 56.1875 293.367188 41.941406 273.984375 C 26.738281 253.320312 18.136719 229.996094 17.066406 206.53125 C 16.117188 185.820312 20.660156 163.945312 30.574219 141.527344 C 41.445312 116.972656 56.632812 97.191406 74.503906 84.316406 C 90.351562 72.917969 108.390625 66.886719 125.84375 66.886719 C 131.25 66.886719 136.605469 67.460938 141.8125 68.640625 C 146.839844 69.78125 151.839844 71.453125 157.167969 73.414062 C 149.953125 76.820312 143.90625 82.367188 139.332031 88.941406 C 138.605469 89.980469 140.6875 90.632812 141.328125 89.816406 C 146.449219 83.183594 152.863281 78.320312 160.21875 74.550781 C 160.21875 74.558594 160.230469 74.558594 160.230469 74.558594 C 160.816406 74.78125 161.414062 75.007812 162.011719 75.234375 L 162.941406 75.589844 C 166.371094 76.890625 169.867188 78.214844 173.375 79.402344 C 174.285156 79.714844 175.199219 80.019531 176.117188 80.308594 C 178.558594 81.09375 181.007812 81.789062 183.449219 82.359375 L 183.765625 82.4375 L 184.101562 82.386719 C 187.792969 81.867188 191.523438 81.058594 195.25 80.089844 C 196.003906 79.898438 196.757812 79.695312 197.507812 79.484375 C 202.183594 78.191406 206.84375 76.6875 211.417969 75.207031 L 213.476562 74.542969 C 221.429688 71.976562 229.210938 69.566406 236.988281 68.304688 C 260.417969 64.476562 285.9375 71.417969 306.992188 87.335938 C 325.859375 101.59375 341.121094 122.71875 351.113281 148.4375 C 359.394531 169.734375 362.996094 192.667969 361.527344 214.757812 Z M 178.53125 23.425781 C 183.433594 23.277344 188.324219 23.113281 193.21875 22.957031 C 193.804688 22.9375 194.394531 22.921875 194.972656 22.902344 L 195.847656 22.871094 C 196.757812 22.84375 197.699219 22.808594 198.390625 23.101562 C 199.121094 23.398438 199.652344 24.066406 200.074219 24.933594 C 200.496094 25.800781 200.792969 26.863281 201.054688 27.941406 C 204.515625 42.28125 207.808594 56.980469 210.871094 71.648438 L 210.324219 71.828125 C 206.003906 73.222656 201.617188 74.652344 197.234375 75.875 C 196.617188 68.535156 195.691406 61.207031 195.300781 53.859375 C 194.769531 43.855469 194.597656 33.84375 194.03125 23.84375 C 194.003906 23.460938 193.617188 23.269531 193.230469 23.269531 C 192.835938 23.269531 192.445312 23.460938 192.410156 23.832031 C 191.464844 33.734375 191.648438 43.753906 192.332031 53.675781 C 192.84375 61.207031 193.34375 69.019531 194.605469 76.585938 C 191.019531 77.523438 187.445312 78.304688 183.929688 78.820312 C 183.242188 78.65625 182.550781 78.476562 181.863281 78.292969 C 180.976562 78.0625 180.09375 77.808594 179.214844 77.546875 C 178.960938 77.464844 178.695312 77.386719 178.441406 77.3125 C 177.984375 77.175781 177.539062 77.03125 177.082031 76.882812 C 180.597656 64.121094 183.269531 51 183.589844 37.746094 C 183.617188 36.695312 181.578125 36.84375 181.429688 37.796875 C 179.363281 50.617188 177.464844 63.382812 174.277344 75.960938 C 173.359375 75.648438 172.453125 75.328125 171.535156 74.992188 C 170.148438 74.496094 168.757812 73.984375 167.382812 73.464844 C 166.59375 73.171875 165.8125 72.875 165.035156 72.582031 C 172.019531 56.929688 176.554688 40.414062 178.53125 23.425781 Z M 354.425781 147.148438 C 344.1875 120.8125 328.527344 99.152344 309.136719 84.5 C 287.308594 68.003906 260.804688 60.816406 236.417969 64.789062 C 229.019531 65.996094 221.703125 68.179688 214.265625 70.554688 C 211.226562 55.96875 207.945312 41.367188 204.507812 27.101562 C 204.046875 25.183594 203.078125 21.1875 199.753906 19.816406 C 198.355469 19.230469 196.898438 19.28125 195.734375 19.316406 L 194.859375 19.34375 C 188.871094 19.535156 182.878906 19.730469 176.882812 19.921875 L 175.34375 19.964844 L 175.171875 21.507812 C 173.328125 38.734375 168.800781 55.480469 161.714844 71.324219 C 155 68.785156 148.855469 66.589844 142.589844 65.171875 C 119.578125 59.976562 94.007812 65.90625 72.4375 81.425781 C 54.042969 94.675781 38.445312 114.957031 27.328125 140.082031 C 17.1875 163.015625 12.542969 185.429688 13.515625 206.695312 C 14.621094 230.863281 23.464844 254.863281 39.078125 276.09375 C 53.878906 296.226562 73.640625 312.558594 96.226562 323.332031 C 119.578125 334.464844 146.476562 340.488281 175.820312 341.304688 C 177.265625 341.351562 178.722656 341.378906 180.1875 341.390625 C 181.046875 341.398438 181.90625 341.40625 182.765625 341.40625 C 200.992188 341.40625 220.097656 339.441406 239.828125 335.496094 C 287.964844 325.867188 322.730469 306.734375 343.171875 278.625 C 355.886719 261.132812 363.464844 239.136719 365.070312 214.992188 C 366.570312 192.386719 362.890625 168.921875 354.425781 147.148438 " fill-opacity="1" fill-rule="nonzero"/></g></svg>