<svg xmlns="http://www.w3.org/2000/svg" xmlns:xlink="http://www.w3.org/1999/xlink" width="500" zoomAndPan="magnify" viewBox="0 0 375 374.999991" height="500" preserveAspectRatio="xMidYMid meet" version="1.0"><defs><clipPath id="cfc5fbbb0c"><path d="M 67.109375 6.21875 L 304.109375 6.21875 L 304.109375 375 L 67.109375 375 Z M 67.109375 6.21875 " clip-rule="nonzero"/></clipPath></defs><rect x="-37.5" width="450" fill="#ffffff" y="-37.499999" height="449.999989" fill-opacity="1"/><rect x="-37.5" width="450" fill="#ffffff" y="-37.499999" height="449.999989" fill-opacity="1"/><path fill="#eac8bf" d="M 183.082031 255.527344 C 181.695312 255.515625 175.878906 255.667969 173.628906 255.464844 C 173.25 255.429688 172.867188 255.410156 172.539062 255.398438 C 172.035156 255.378906 171.636719 254.960938 171.644531 254.460938 C 171.652344 253.289062 171.402344 247.609375 171.691406 246.5 C 171.929688 245.605469 175.167969 243.628906 176.617188 242.351562 C 178.386719 240.792969 179.917969 239.007812 181.34375 237.136719 C 184.050781 233.59375 183.835938 228.242188 181.039062 224.824219 C 182.070312 224.152344 182.757812 222.988281 182.757812 221.667969 C 182.757812 219.589844 181.066406 217.902344 178.992188 217.902344 C 177.085938 217.902344 175.507812 219.324219 175.257812 221.160156 C 174.660156 220.949219 174.050781 220.761719 173.449219 220.589844 C 173.433594 220.59375 173.417969 220.59375 173.40625 220.589844 C 171.210938 220.085938 171.347656 220.558594 171.328125 218.09375 C 171.316406 216.585938 171.292969 215.078125 171.300781 213.574219 C 171.308594 212.886719 171.460938 212.746094 172.1875 212.746094 C 175.261719 212.738281 178.335938 212.753906 181.414062 212.753906 C 182.316406 212.753906 183.222656 212.714844 184.125 212.726562 C 184.871094 212.738281 184.988281 212.855469 185.023438 213.542969 C 185.042969 213.964844 185.035156 214.386719 185.035156 214.808594 C 185.035156 227.644531 185.039062 240.480469 185.042969 253.320312 C 185.042969 255.40625 185.347656 255.550781 183.085938 255.527344 Z M 181.851562 222.253906 C 181.890625 222.0625 181.910156 221.867188 181.910156 221.667969 C 181.910156 221.46875 181.890625 221.265625 181.847656 221.074219 C 181.839844 221.074219 181.832031 221.074219 181.820312 221.074219 L 180.914062 221.074219 C 180.746094 221.074219 180.605469 221.214844 180.605469 221.382812 L 180.605469 221.945312 C 180.605469 222.117188 180.746094 222.253906 180.914062 222.253906 L 181.820312 222.253906 C 181.832031 222.253906 181.839844 222.253906 181.851562 222.253906 Z M 180.550781 222.515625 C 180.472656 222.515625 180.390625 222.546875 180.332031 222.605469 L 179.933594 223.003906 C 179.875 223.0625 179.84375 223.140625 179.84375 223.222656 C 179.84375 223.304688 179.875 223.382812 179.933594 223.441406 L 180.574219 224.082031 C 180.574219 224.082031 180.585938 224.097656 180.59375 224.101562 C 180.925781 223.882812 181.210938 223.597656 181.425781 223.265625 C 181.421875 223.257812 181.414062 223.253906 181.410156 223.246094 L 180.769531 222.605469 C 180.707031 222.546875 180.628906 222.515625 180.550781 222.515625 Z M 180.59375 219.226562 C 180.59375 219.226562 180.582031 219.238281 180.574219 219.246094 L 179.933594 219.886719 C 179.875 219.941406 179.84375 220.019531 179.84375 220.101562 C 179.84375 220.183594 179.875 220.265625 179.933594 220.320312 L 180.332031 220.722656 C 180.390625 220.78125 180.46875 220.8125 180.550781 220.8125 C 180.632812 220.8125 180.710938 220.777344 180.769531 220.722656 L 181.410156 220.082031 C 181.410156 220.082031 181.421875 220.066406 181.425781 220.058594 C 181.210938 219.730469 180.925781 219.445312 180.59375 219.226562 Z M 179.269531 220.046875 C 179.441406 220.046875 179.582031 219.910156 179.582031 219.738281 L 179.582031 218.835938 C 179.582031 218.824219 179.582031 218.816406 179.582031 218.804688 C 179.390625 218.769531 179.195312 218.746094 178.992188 218.746094 C 178.789062 218.746094 178.589844 218.765625 178.402344 218.804688 C 178.402344 218.816406 178.402344 218.824219 178.402344 218.835938 L 178.402344 219.738281 C 178.402344 219.910156 178.539062 220.046875 178.707031 220.046875 L 179.273438 220.046875 Z M 177.648438 220.722656 L 178.046875 220.320312 C 178.105469 220.265625 178.136719 220.183594 178.136719 220.101562 C 178.136719 220.019531 178.105469 219.941406 178.046875 219.886719 L 177.40625 219.246094 C 177.40625 219.246094 177.394531 219.230469 177.386719 219.226562 C 177.054688 219.445312 176.769531 219.730469 176.550781 220.058594 C 176.558594 220.066406 176.5625 220.074219 176.570312 220.082031 L 177.210938 220.722656 C 177.332031 220.839844 177.527344 220.839844 177.648438 220.722656 Z M 176.128906 221.074219 C 176.101562 221.203125 176.085938 221.332031 176.074219 221.464844 C 176.511719 221.636719 176.941406 221.824219 177.359375 222.027344 C 177.367188 222 177.371094 221.976562 177.371094 221.945312 L 177.371094 221.382812 C 177.371094 221.210938 177.234375 221.074219 177.0625 221.074219 L 176.15625 221.074219 C 176.148438 221.074219 176.136719 221.074219 176.128906 221.074219 Z M 176.128906 221.074219 " fill-opacity="1" fill-rule="nonzero"/><path fill="#f6e4c5" d="M 198.09375 216.214844 C 197.550781 216.386719 197.15625 216.53125 196.746094 216.640625 C 192.082031 217.910156 189.710938 221.21875 188.679688 225.714844 C 188.101562 228.238281 188.359375 230.753906 188.785156 233.261719 C 189.128906 235.285156 189.648438 237.261719 190.289062 239.214844 C 191.960938 244.3125 193.582031 249.425781 194.964844 254.613281 C 195.761719 257.589844 196.175781 260.640625 196.605469 263.683594 C 196.683594 264.21875 196.707031 264.765625 196.714844 265.308594 C 196.722656 265.640625 196.535156 265.882812 196.175781 265.898438 C 195.574219 265.925781 194.972656 265.933594 194.367188 265.933594 C 182.71875 265.953125 171.070312 265.964844 159.421875 265.984375 C 158.820312 265.984375 158.21875 266.003906 157.613281 265.992188 C 157.347656 265.988281 157.164062 265.820312 157.136719 265.550781 C 157.105469 265.191406 156.949219 260.152344 157.660156 259.03125 C 159.460938 256.203125 162.136719 252.898438 164.757812 250.820312 C 165.9375 249.882812 168.917969 247.753906 169.238281 247.972656 C 169.535156 248.167969 169.484375 252.652344 169.507812 254.582031 C 169.511719 255.066406 169.492188 255.550781 169.539062 256.03125 C 169.613281 256.804688 169.898438 257.066406 170.695312 257.113281 C 172.203125 257.207031 173.707031 257.308594 175.214844 257.355469 C 178.289062 257.457031 181.367188 257.523438 184.445312 257.601562 C 184.746094 257.609375 185.050781 257.613281 185.347656 257.59375 C 186.496094 257.523438 186.8125 257.195312 186.828125 256.023438 C 186.976562 241.730469 187.242188 227.433594 187.15625 213.136719 C 187.152344 212.714844 187.167969 212.289062 187.121094 211.871094 C 187.027344 211.085938 186.609375 210.726562 185.792969 210.707031 C 184.648438 210.6875 183.503906 210.671875 182.355469 210.667969 C 178.734375 210.660156 175.113281 210.632812 171.496094 210.839844 C 171.375 210.84375 171.257812 210.839844 171.136719 210.84375 C 169.703125 210.925781 169.507812 211.097656 169.460938 212.589844 C 169.40625 214.28125 169.40625 215.96875 169.382812 217.65625 C 169.375 218.140625 169.386719 218.625 169.359375 219.105469 C 169.328125 219.664062 169.105469 219.871094 168.558594 219.832031 C 167.777344 219.773438 166.996094 219.707031 166.21875 219.613281 C 163.761719 219.320312 161.304688 219.03125 158.855469 218.703125 C 157.78125 218.558594 157.742188 218.496094 157.746094 217.457031 C 157.746094 215.046875 157.761719 212.632812 157.792969 210.21875 C 157.804688 209.144531 157.875 209.082031 158.910156 209.046875 C 161.023438 208.984375 163.132812 208.9375 165.246094 208.878906 C 172.542969 208.679688 179.84375 208.488281 187.140625 208.277344 C 189.917969 208.199219 192.691406 208.09375 195.464844 208 C 195.886719 207.984375 196.3125 207.960938 196.734375 207.964844 C 197.570312 207.96875 197.707031 208.070312 197.75 208.859375 C 197.871094 210.902344 197.980469 212.953125 198.085938 215 C 198.105469 215.355469 198.089844 215.714844 198.089844 216.214844 Z M 158.308594 206.722656 C 158.613281 206.730469 158.910156 206.707031 159.210938 206.695312 C 165.304688 206.511719 171.398438 206.328125 176.777344 206.164062 C 183.585938 206.015625 189.679688 205.875 195.773438 205.75 C 197.421875 205.71875 197.769531 205.875 197.519531 203.816406 C 197.386719 202.683594 197.425781 201.527344 197.359375 200.382812 C 197.328125 199.824219 197.121094 199.648438 196.558594 199.640625 C 196.078125 199.632812 195.59375 199.664062 195.113281 199.679688 C 190.40625 199.824219 185.699219 199.960938 180.996094 200.121094 C 175.628906 200.300781 170.261719 200.507812 164.894531 200.691406 C 162.785156 200.761719 160.671875 200.785156 158.558594 200.847656 C 157.957031 200.867188 157.730469 201.046875 157.734375 201.582031 C 157.738281 203.148438 157.789062 204.714844 157.835938 206.28125 C 157.84375 206.546875 158.035156 206.71875 158.3125 206.722656 Z M 158.308594 206.722656 " fill-opacity="1" fill-rule="nonzero"/><path fill="#fffcf6" d="M 252.09375 359.480469 C 252.082031 356.890625 252.070312 354.296875 252.019531 351.707031 C 251.960938 348.84375 252.355469 349.234375 249.574219 348.050781 C 248.578125 347.628906 247.578125 347.195312 246.648438 346.636719 C 244.882812 345.578125 243.945312 343.949219 243.722656 341.898438 C 243.675781 341.421875 243.671875 340.929688 243.558594 340.46875 C 242.664062 336.714844 242.101562 332.898438 241.511719 329.089844 C 241.285156 327.601562 241.058594 326.113281 240.824219 324.625 C 240.722656 324.023438 240.617188 323.910156 240.003906 323.898438 C 236.789062 323.898438 233.578125 324.113281 230.367188 323.992188 C 230.054688 323.980469 226.199219 323.480469 226.101562 323.726562 C 225.855469 324.3125 226.0625 325.074219 226.109375 325.691406 C 226.179688 326.695312 226.277344 327.703125 226.371094 328.707031 C 226.582031 330.820312 226.816406 332.941406 227.082031 335.050781 C 227.355469 337.214844 227.648438 339.378906 227.90625 341.546875 C 228.066406 342.847656 228.210938 344.152344 228.339844 345.453125 C 228.394531 346.050781 228.460938 346.652344 228.523438 347.25 C 228.714844 349.105469 228.90625 350.96875 228.890625 352.839844 C 228.871094 356.066406 227.855469 358.867188 225.53125 361.140625 C 224.753906 361.894531 223.960938 362.636719 223.109375 363.304688 C 222.164062 364.042969 221.152344 364.714844 220.148438 365.378906 C 219.234375 365.976562 218.386719 366.652344 217.683594 367.484375 C 216.996094 368.304688 217.148438 368.90625 218.117188 369.296875 C 219.265625 369.753906 220.457031 369.835938 221.675781 369.691406 C 223.132812 369.523438 224.476562 368.996094 225.777344 368.347656 C 227.71875 367.382812 229.605469 366.304688 231.402344 365.078125 C 232.894531 364.054688 234.394531 363.046875 235.910156 362.070312 C 238.46875 360.414062 241.203125 359.199219 244.25 358.785156 C 246.792969 358.445312 249.183594 358.710938 251.265625 360.382812 C 251.4375 360.519531 251.601562 360.738281 251.921875 360.625 C 252.246094 360.304688 252.09375 359.863281 252.09375 359.472656 Z M 177.1875 226.339844 C 175.3125 225.078125 173.230469 224.324219 171 223.921875 C 169.207031 223.59375 167.394531 223.601562 165.597656 223.367188 C 161.292969 222.820312 156.980469 222.28125 152.65625 221.832031 C 149.292969 221.484375 145.949219 221.007812 142.648438 220.28125 C 139.414062 219.574219 136.214844 218.679688 132.992188 217.902344 C 130.03125 217.1875 127.304688 215.914062 124.644531 214.480469 C 123.796875 214.019531 122.972656 213.511719 122.339844 212.75 C 121.8125 212.109375 121.6875 211.484375 122.074219 211.132812 C 122.570312 210.679688 123.074219 210.933594 123.566406 211.195312 C 127.375 213.21875 131.417969 214.539062 135.613281 215.511719 C 141.453125 216.859375 147.359375 217.671875 153.320312 218.128906 C 155.378906 218.285156 155.277344 218.339844 155.289062 216.242188 C 155.320312 211.117188 155.382812 205.992188 155.652344 200.867188 C 155.765625 198.742188 155.820312 198.625 157.941406 198.546875 C 161.441406 198.414062 164.941406 198.328125 168.441406 198.226562 C 169.945312 198.183594 171.457031 198.167969 172.964844 198.121094 C 173.742188 198.09375 173.898438 197.84375 173.644531 197.078125 C 173.265625 195.921875 172.761719 194.816406 172.050781 193.835938 C 170.964844 192.335938 169.589844 191.203125 167.6875 190.84375 C 165.527344 190.4375 163.355469 190.414062 161.214844 190.839844 C 158.609375 191.363281 156.066406 192.136719 153.554688 192.988281 C 148.433594 194.730469 143.183594 195.714844 137.761719 195.773438 C 134.609375 195.808594 131.488281 195.574219 128.441406 194.738281 C 116.84375 191.542969 108.054688 184.839844 102.613281 173.980469 C 101.832031 172.417969 101.082031 170.839844 100.3125 169.269531 C 100.160156 168.953125 100.0625 168.585938 99.605469 168.433594 C 99.320312 169.097656 99.253906 169.804688 99.183594 170.515625 C 98.707031 175.257812 97.996094 179.972656 97.15625 184.660156 C 95.585938 193.441406 93.523438 202.128906 91.328125 210.777344 C 89.476562 218.082031 87.355469 225.3125 85.652344 232.65625 C 84.222656 238.824219 82.949219 245.023438 81.78125 251.246094 C 80.644531 257.289062 79.496094 263.332031 78.382812 269.375 C 77.339844 275.011719 76.3125 280.644531 75.308594 286.285156 C 74.546875 290.558594 73.8125 294.835938 73.367188 299.164062 C 73.089844 301.855469 72.789062 304.554688 72.507812 307.253906 C 72.113281 311.035156 71.660156 314.808594 71.34375 318.59375 C 70.820312 324.847656 70.378906 331.101562 69.925781 337.359375 C 69.8125 338.921875 69.792969 340.492188 69.710938 342.058594 C 69.675781 342.6875 69.960938 343.070312 70.488281 343.351562 C 71.671875 343.972656 72.941406 344.347656 74.246094 344.628906 C 78.445312 345.535156 82.253906 344.542969 85.78125 342.234375 C 86.238281 341.9375 86.621094 341.550781 86.84375 341.027344 C 87.160156 340.304688 86.914062 339.851562 86.132812 339.800781 C 85.589844 339.761719 85.046875 339.789062 84.503906 339.753906 C 82.800781 339.640625 81.164062 339.277344 79.648438 338.460938 C 78.714844 337.960938 77.972656 337.269531 77.621094 336.246094 C 77.25 335.164062 76.871094 334.078125 76.773438 332.925781 C 76.578125 330.511719 76.601562 328.105469 76.863281 325.695312 C 77.347656 321.195312 78.207031 316.753906 79.128906 312.324219 C 81.128906 302.695312 83.707031 293.214844 86.355469 283.75 C 87.816406 278.523438 89.417969 273.339844 91.484375 268.3125 C 92.007812 267.03125 92.5625 265.757812 93.273438 264.5625 C 93.363281 264.417969 93.453125 264.226562 93.679688 264.289062 C 93.882812 264.351562 93.917969 264.527344 93.878906 264.714844 C 93.761719 265.242188 93.648438 265.773438 93.5 266.296875 C 91.820312 272.335938 90.078125 278.359375 88.453125 284.417969 C 85.285156 296.238281 82.183594 308.078125 80.148438 320.164062 C 79.746094 322.542969 79.304688 324.917969 79.195312 327.332031 C 79.179688 327.667969 79.019531 328.046875 79.457031 328.398438 C 79.855469 328.183594 80.082031 327.75 80.382812 327.410156 C 82.769531 324.777344 85.617188 322.78125 88.800781 321.25 C 91.113281 320.140625 93.449219 320.226562 95.796875 321.253906 C 97.820312 322.136719 98.945312 323.617188 99.148438 325.800781 C 99.21875 326.578125 99.21875 327.367188 99.265625 328.148438 C 99.347656 329.398438 99.601562 329.695312 100.859375 329.949219 C 101.269531 330.03125 101.699219 330.042969 102.117188 330.066406 C 103.214844 330.136719 104.269531 329.902344 105.347656 329.734375 C 109.722656 329.058594 113.394531 326.925781 116.804688 324.257812 C 117.273438 323.886719 117.667969 323.414062 118.066406 322.960938 C 118.464844 322.503906 118.738281 321.964844 118.921875 321.382812 C 119.308594 320.148438 119.0625 319.46875 117.980469 318.761719 C 117.265625 318.289062 116.449219 318.054688 115.644531 317.800781 C 114.039062 317.285156 112.457031 316.714844 110.917969 316.007812 C 107.53125 314.460938 105.953125 311.769531 105.75 308.152344 C 105.742188 307.972656 105.746094 307.789062 105.742188 307.609375 C 105.589844 302.339844 106.097656 297.121094 106.996094 291.945312 C 107.992188 286.167969 109.613281 280.550781 111.363281 274.964844 C 112.433594 271.566406 113.640625 268.222656 115.15625 264.996094 C 115.671875 263.910156 116.261719 262.851562 116.84375 261.796875 C 117.015625 261.496094 117.285156 261.226562 117.546875 260.996094 C 117.652344 260.902344 117.910156 260.898438 118.042969 260.964844 C 118.167969 261.03125 118.292969 261.242188 118.292969 261.390625 C 118.292969 262.066406 118 262.671875 117.777344 263.292969 C 116.398438 267.21875 115.011719 271.140625 113.84375 275.136719 C 111.648438 282.667969 109.539062 290.21875 108.761719 298.058594 C 108.578125 299.917969 108.414062 301.78125 108.257812 303.644531 C 108.234375 303.914062 108.15625 304.261719 108.644531 304.398438 C 108.914062 304.136719 109.210938 303.839844 109.515625 303.5625 C 112.765625 300.605469 116.535156 299.171875 120.953125 299.617188 C 123.074219 299.828125 125.082031 300.445312 127.039062 301.277344 C 128.425781 301.871094 129.804688 302.480469 131.207031 303.027344 C 132.78125 303.640625 134.394531 304.128906 136.078125 304.375 C 138.238281 304.695312 139.808594 303.773438 141.0625 302.117188 C 141.773438 301.171875 142.042969 300.066406 142.273438 298.933594 C 142.820312 296.21875 143.34375 293.492188 144.113281 290.824219 C 145.550781 285.839844 146.765625 280.804688 147.847656 275.730469 C 149.265625 269.089844 151.527344 262.753906 155.050781 256.890625 C 157.15625 253.378906 159.792969 250.34375 162.957031 247.78125 C 165.257812 245.921875 167.589844 244.105469 170.0625 242.480469 C 171.53125 241.519531 172.886719 240.410156 174.203125 239.257812 C 175.9375 237.734375 177.476562 236.039062 178.746094 234.117188 C 180.53125 231.414062 179.867188 228.148438 177.179688 226.34375 Z M 226.445312 350.015625 C 226.144531 346.953125 225.886719 343.890625 225.578125 340.832031 C 225.335938 338.429688 225.101562 336.027344 224.753906 333.640625 C 224.300781 330.476562 223.785156 327.324219 223.523438 324.136719 C 223.457031 323.324219 223.109375 322.976562 222.40625 322.726562 C 221.15625 322.277344 220.007812 321.59375 218.890625 320.875 C 217.714844 320.113281 216.984375 319.03125 216.878906 317.605469 C 216.71875 315.320312 216.546875 313.035156 216.628906 310.734375 C 216.75 307.421875 216.816406 304.105469 216.910156 300.789062 C 216.980469 298.296875 217.234375 298.433594 214.5625 299.140625 C 214.269531 299.21875 213.988281 299.328125 213.710938 299.441406 C 209.460938 301.085938 205.554688 303.335938 202 306.195312 C 201.71875 306.417969 201.453125 306.667969 201.152344 306.867188 C 200.375 307.382812 199.660156 307.300781 199.066406 306.59375 C 198.800781 306.273438 198.59375 305.894531 198.402344 305.523438 C 197.863281 304.496094 197.5625 303.375 197.433594 302.238281 C 196.960938 298.042969 196.527344 293.839844 196.726562 289.609375 C 196.859375 286.714844 197.125 283.832031 197.265625 280.941406 C 197.429688 277.503906 197.308594 274.0625 197.15625 270.625 C 197.039062 267.839844 197.1875 268.203125 194.65625 268.199219 C 181.859375 268.171875 169.066406 268.164062 156.265625 268.148438 C 155.511719 268.148438 155.171875 267.875 155.078125 267.097656 C 154.992188 266.441406 155.144531 264.761719 155.09375 263.921875 C 154.828125 264.523438 154.546875 265.171875 154.503906 265.261719 C 154.296875 265.695312 154.082031 266.128906 153.917969 266.582031 C 152.582031 270.273438 151.421875 274.011719 150.625 277.855469 C 149.898438 281.339844 149.148438 284.816406 148.140625 288.230469 C 147.117188 291.707031 146.28125 295.21875 145.910156 298.835938 C 145.753906 300.34375 145.171875 301.742188 144.46875 303.09375 C 142.804688 306.292969 140.101562 307.625 136.582031 307.433594 C 135.203125 307.359375 133.835938 307.097656 132.5 306.679688 C 130.886719 306.175781 129.316406 305.558594 127.785156 304.839844 C 127.023438 304.476562 126.253906 304.128906 125.476562 303.800781 C 124.53125 303.40625 124.398438 303.472656 124.15625 304.542969 C 123.855469 305.894531 123.542969 307.246094 123.320312 308.617188 C 122.757812 312.066406 121.984375 315.484375 121.894531 319 C 121.875 319.835938 121.640625 320.667969 121.46875 321.496094 C 121.039062 323.570312 120.027344 325.304688 118.398438 326.6875 C 114.351562 330.109375 109.792969 332.449219 104.507812 333.214844 C 103 333.429688 101.496094 333.347656 100.015625 332.945312 C 97.800781 332.34375 96.773438 331.082031 96.699219 328.800781 C 96.679688 328.140625 96.683594 327.476562 96.695312 326.8125 C 96.730469 325.140625 95.898438 324.09375 94.359375 323.546875 C 93.960938 323.40625 93.5625 323.261719 93.144531 323.191406 C 91.34375 322.894531 90.902344 323.207031 90.640625 325.019531 C 89.957031 329.800781 89.550781 334.609375 89.644531 339.445312 C 89.703125 342.308594 88.574219 344.4375 86.039062 345.835938 C 84.773438 346.539062 83.507812 347.234375 82.113281 347.65625 C 81.746094 347.769531 81.453125 347.9375 81.488281 348.398438 C 81.644531 350.578125 81.261719 352.730469 81.074219 354.886719 C 80.90625 356.878906 80.632812 358.839844 80.050781 360.757812 C 79.753906 361.734375 79.582031 362.753906 79.382812 363.757812 C 79.234375 364.503906 79.277344 364.625 79.875 364.9375 C 82.1875 366.136719 84.597656 367.078125 87.164062 367.578125 C 88.0625 367.757812 88.953125 367.675781 89.847656 367.40625 C 91.128906 367.015625 92.289062 366.382812 93.402344 365.65625 C 95.429688 364.339844 97.328125 362.847656 99.234375 361.367188 C 101.085938 359.917969 102.960938 358.492188 104.886719 357.144531 C 109.371094 354 114.359375 352.128906 119.804688 351.546875 C 123.121094 351.191406 126.3125 351.628906 129.195312 353.464844 C 129.402344 353.589844 129.609375 353.714844 129.871094 353.617188 C 129.910156 353.511719 129.988281 353.402344 129.984375 353.296875 C 129.964844 352.753906 129.949219 352.210938 129.890625 351.667969 C 129.214844 345.246094 128.90625 338.800781 128.660156 332.347656 C 128.394531 325.296875 128.4375 318.234375 128.433594 311.175781 C 128.433594 310.636719 128.503906 310.09375 128.554688 309.558594 C 128.582031 309.296875 128.730469 309.078125 129.007812 309.109375 C 129.15625 309.128906 129.359375 309.265625 129.429688 309.40625 C 129.789062 310.113281 129.875 310.890625 129.972656 311.675781 C 130.421875 315.210938 130.417969 318.78125 130.53125 322.328125 C 130.714844 328.300781 131.164062 334.257812 131.515625 340.21875 C 131.847656 345.875 132.191406 351.535156 132.609375 357.191406 C 132.789062 359.652344 131.914062 361.671875 130.382812 363.484375 C 130.035156 363.894531 129.621094 364.261719 129.246094 364.644531 C 128.480469 365.417969 127.710938 366.191406 126.960938 366.972656 C 126.855469 367.082031 126.753906 367.191406 126.65625 367.308594 C 126.5625 367.421875 126.46875 367.546875 126.390625 367.667969 C 126.308594 367.796875 126.238281 367.921875 126.171875 368.058594 C 126.109375 368.199219 126.054688 368.339844 126.011719 368.488281 C 125.871094 369.011719 126.035156 369.4375 126.511719 369.71875 C 127.480469 370.269531 128.558594 370.4375 129.636719 370.558594 C 130.476562 370.65625 131.316406 370.730469 132.160156 370.804688 C 133 370.878906 133.839844 370.953125 134.679688 371.042969 C 139.75 371.589844 144.808594 371.300781 149.871094 370.925781 C 151.828125 370.777344 153.652344 370.195312 155.257812 369.019531 C 156.121094 368.386719 156.710938 367.59375 156.960938 366.542969 C 157.085938 366.027344 156.980469 365.5625 156.625 365.207031 C 156.246094 364.820312 155.816406 364.480469 155.371094 364.179688 C 154.722656 363.730469 154.03125 363.359375 153.390625 362.910156 C 152.128906 362.027344 151.078125 360.941406 150.570312 359.460938 C 150.003906 357.8125 149.410156 356.164062 149.152344 354.421875 C 148.648438 351.074219 148.519531 347.699219 148.605469 344.324219 C 148.722656 339.617188 148.910156 334.917969 149.09375 330.21875 C 149.265625 325.699219 149.441406 321.175781 149.667969 316.65625 C 149.9375 311.238281 150.308594 305.820312 150.546875 300.398438 C 150.800781 294.910156 151.226562 289.441406 151.765625 283.980469 C 151.828125 283.324219 152.007812 282.679688 152.175781 282.039062 C 152.210938 281.898438 152.40625 281.742188 152.558594 281.710938 C 152.847656 281.644531 152.960938 281.917969 153.035156 282.125 C 153.109375 282.347656 153.132812 282.597656 153.140625 282.839844 C 153.207031 284.523438 153.339844 286.214844 153.304688 287.898438 C 153.1875 293.75 153.050781 299.601562 152.859375 305.449219 C 152.714844 309.910156 152.488281 314.367188 152.261719 318.828125 C 152.105469 322.019531 151.859375 325.207031 151.71875 328.40625 C 151.476562 333.761719 151.300781 339.128906 151.066406 344.496094 C 150.941406 347.457031 150.980469 350.40625 151.339844 353.347656 C 151.402344 353.839844 151.667969 353.957031 152.070312 353.636719 C 154.496094 351.679688 157.261719 350.355469 160.210938 349.410156 C 163.386719 348.390625 166.636719 347.777344 169.984375 347.742188 C 173.425781 347.699219 176.863281 347.640625 180.285156 348.132812 C 182.644531 348.472656 184.890625 349.101562 186.78125 350.644531 C 186.957031 350.792969 187.175781 350.996094 187.410156 350.800781 C 187.519531 350.710938 187.570312 350.488281 187.570312 350.324219 C 187.558594 349.304688 187.585938 348.273438 187.480469 347.253906 C 187.253906 345.03125 186.984375 342.816406 186.675781 340.609375 C 186.171875 336.964844 185.574219 333.332031 185.105469 329.6875 C 184.242188 322.921875 183.648438 316.132812 183.363281 309.320312 C 182.964844 299.789062 182.9375 290.265625 183.996094 280.761719 C 184.308594 277.945312 184.734375 275.144531 185.425781 272.390625 C 185.539062 271.921875 185.703125 271.464844 185.855469 271.011719 C 185.9375 270.753906 186.160156 270.597656 186.402344 270.609375 C 186.65625 270.621094 186.808594 270.832031 186.839844 271.101562 C 186.945312 272.066406 186.871094 273.03125 186.734375 273.988281 C 185.984375 279.25 185.679688 284.550781 185.488281 289.851562 C 185.121094 299.933594 185.453125 309.992188 186.375 320.042969 C 186.90625 325.8125 187.671875 331.546875 188.5 337.273438 C 188.941406 340.320312 189.304688 343.375 189.605469 346.433594 C 189.808594 348.535156 189.75 350.644531 189.394531 352.746094 C 188.941406 355.425781 187.988281 357.855469 186.066406 359.839844 C 185.769531 360.140625 185.492188 360.457031 185.21875 360.777344 C 184.824219 361.246094 184.550781 361.78125 184.390625 362.371094 C 184.171875 363.179688 184.535156 363.6875 185.34375 363.726562 C 185.894531 363.757812 186.429688 363.703125 186.953125 363.519531 C 187.976562 363.15625 189.011719 362.832031 190.011719 362.421875 C 192.753906 361.3125 195.332031 359.855469 197.945312 358.46875 C 202.046875 356.289062 206.148438 354.121094 210.46875 352.386719 C 212.546875 351.550781 214.65625 350.820312 216.875 350.5 C 220.03125 350.042969 223.144531 350.015625 225.949219 351.914062 C 226.019531 351.964844 226.152344 351.921875 226.335938 351.921875 C 226.609375 351.320312 226.507812 350.675781 226.441406 350.015625 Z M 254.867188 169.507812 C 254.476562 166.582031 254.167969 163.636719 253.757812 160.710938 C 252.820312 154.136719 252.527344 147.5 251.746094 140.914062 C 251.371094 137.800781 251.246094 134.660156 251.019531 131.535156 C 250.664062 126.539062 250.414062 121.542969 249.921875 116.558594 C 249.554688 112.835938 249.15625 109.117188 248.597656 105.417969 C 248.167969 102.554688 247.742188 99.695312 247.273438 96.835938 C 246.742188 93.628906 246.1875 90.421875 245.597656 87.222656 C 244.800781 82.945312 243.648438 78.761719 242.519531 74.570312 C 241.457031 70.609375 240.460938 66.632812 239.035156 62.777344 C 237.148438 57.660156 234.746094 52.800781 231.613281 48.332031 C 228.96875 44.566406 225.800781 41.25 222.261719 38.296875 C 219.101562 35.660156 215.695312 33.382812 212.21875 31.191406 C 208.308594 28.730469 204.074219 27.03125 199.640625 25.765625 C 194.910156 24.421875 190.058594 23.8125 185.1875 23.453125 C 179.148438 23.011719 173.117188 23.351562 167.160156 24.488281 C 162.347656 25.410156 157.695312 26.890625 153.234375 28.929688 C 148.410156 31.136719 144.167969 34.195312 140.144531 37.601562 C 138.339844 39.128906 136.679688 40.78125 135.195312 42.617188 C 131.84375 46.753906 128.808594 51.105469 126.230469 55.765625 C 124.597656 58.722656 122.9375 61.671875 121.746094 64.839844 C 118.621094 73.136719 115.726562 81.515625 113.476562 90.09375 C 111.246094 98.613281 109.125 107.15625 107.429688 115.796875 C 106.175781 122.1875 105.097656 128.609375 103.886719 135.011719 C 103 139.691406 102.25 144.398438 101.773438 149.136719 C 101.410156 152.742188 100.996094 156.332031 100.496094 159.917969 C 100.378906 160.734375 100.453125 161.453125 100.75 162.203125 C 102.613281 166.992188 104.949219 171.550781 107.703125 175.886719 C 110.359375 180.074219 113.804688 183.488281 117.964844 186.210938 C 125.96875 191.457031 134.667969 193.15625 144.078125 191.519531 C 146.941406 191.027344 149.722656 190.257812 152.480469 189.371094 C 155.0625 188.539062 157.65625 187.746094 160.324219 187.210938 C 162.585938 186.757812 164.859375 186.585938 167.15625 187 C 171.03125 187.703125 173.964844 189.648438 175.617188 193.324219 C 176.085938 194.375 176.476562 195.445312 176.6875 196.582031 C 176.746094 196.875 176.792969 197.171875 176.871094 197.460938 C 176.96875 197.792969 177.214844 197.929688 177.550781 197.929688 C 178.152344 197.941406 178.394531 197.78125 178.507812 197.105469 C 179.039062 193.875 181.007812 191.671875 183.679688 190.039062 C 186.371094 188.394531 189.269531 187.230469 192.386719 186.605469 C 195.058594 186.0625 197.757812 185.785156 200.46875 185.691406 C 203.484375 185.59375 206.503906 185.667969 209.519531 185.667969 L 209.519531 185.601562 C 211.996094 185.601562 214.472656 185.613281 216.949219 185.601562 C 221.074219 185.574219 225.132812 185.003906 229.105469 183.917969 C 235.25 182.242188 241.027344 179.664062 246.535156 176.496094 C 249.253906 174.929688 251.839844 173.144531 254.207031 171.0625 C 254.703125 170.625 254.957031 170.195312 254.863281 169.507812 Z M 166.90625 104.628906 C 166.171875 108.167969 165.066406 111.773438 162.691406 114.507812 C 157.25 120.777344 149.554688 117.746094 146.464844 110.949219 C 144.304688 106.183594 143.691406 100.445312 143.6875 94.835938 C 143.6875 91.847656 143.859375 88.890625 144.054688 86.140625 C 144.515625 79.78125 145.867188 71.164062 152.195312 67.910156 C 154.632812 66.652344 157.65625 66.722656 160.132812 67.890625 C 161.269531 68.425781 162.230469 69.125 163.039062 69.9375 C 163.175781 70.070312 163.304688 70.207031 163.433594 70.351562 C 163.6875 70.632812 163.925781 70.929688 164.148438 71.238281 C 164.484375 71.695312 164.785156 72.183594 165.058594 72.6875 C 166.871094 76.058594 167.394531 80.3125 167.828125 84.019531 C 168.617188 90.878906 168.3125 97.863281 166.90625 104.625 Z M 216.167969 110.949219 C 213.082031 117.746094 205.386719 120.777344 199.945312 114.507812 C 197.570312 111.769531 196.46875 108.167969 195.730469 104.628906 C 194.316406 97.863281 194.019531 90.882812 194.808594 84.019531 C 195.492188 78.085938 196.421875 70.757812 202.5 67.894531 C 204.980469 66.726562 208.003906 66.65625 210.441406 67.910156 C 216.765625 71.167969 218.117188 79.78125 218.578125 86.140625 C 218.777344 88.894531 218.949219 91.847656 218.945312 94.835938 C 218.9375 100.445312 218.328125 106.1875 216.164062 110.953125 Z M 265.394531 345.554688 C 265.179688 342.609375 264.890625 339.664062 264.75 336.71875 C 264.539062 332.257812 264.433594 327.804688 264.640625 323.332031 C 264.886719 317.96875 264.632812 312.597656 264.828125 307.230469 C 264.96875 303.253906 264.8125 299.261719 264.785156 295.28125 C 264.757812 290.933594 264.53125 286.597656 264.238281 282.265625 C 263.925781 277.628906 263.511719 273 263.296875 268.359375 C 263.089844 263.902344 262.90625 259.449219 262.296875 255.015625 C 261.988281 252.746094 261.757812 250.464844 261.535156 248.183594 C 261.179688 244.460938 260.855469 240.734375 260.535156 237.011719 C 260.335938 234.667969 260.117188 232.320312 260.007812 229.972656 C 259.871094 227.140625 259.828125 224.308594 259.757812 221.472656 C 259.652344 217.128906 259.324219 212.796875 258.976562 208.46875 C 258.691406 204.921875 258.414062 201.371094 258.082031 197.828125 C 257.644531 193.140625 257.140625 188.464844 256.699219 183.78125 C 256.453125 181.199219 256.109375 178.628906 255.703125 176.070312 C 255.585938 175.363281 255.375 175.292969 254.746094 175.734375 C 254.492188 175.90625 254.261719 176.09375 254.015625 176.269531 C 250.316406 178.90625 246.402344 181.160156 242.214844 182.917969 C 240.4375 183.667969 238.644531 184.386719 236.847656 185.074219 C 233.460938 186.371094 230.027344 187.492188 226.449219 188.140625 C 221.726562 189 216.964844 189.011719 212.195312 188.964844 C 206.886719 188.902344 201.578125 188.699219 196.269531 189.167969 C 192.351562 189.515625 188.683594 190.503906 185.300781 192.527344 C 184.035156 193.285156 182.976562 194.246094 182.132812 195.449219 C 181.75 196 181.441406 196.582031 181.332031 197.253906 C 181.273438 197.609375 181.429688 197.828125 181.8125 197.832031 C 182.175781 197.839844 182.539062 197.824219 182.898438 197.804688 C 187.722656 197.625 192.550781 197.496094 197.378906 197.507812 C 198.675781 197.507812 199.28125 197.4375 199.425781 199.308594 C 199.433594 199.429688 199.445312 199.546875 199.457031 199.667969 C 199.601562 202.378906 199.746094 205.09375 199.894531 207.800781 C 200.015625 210.03125 200.132812 212.257812 200.261719 214.488281 C 200.328125 215.722656 200.371094 215.785156 201.691406 215.660156 C 204.160156 215.429688 206.632812 215.46875 209.105469 215.539062 C 210.859375 215.585938 212.609375 215.636719 214.359375 215.511719 C 217.191406 215.308594 220.027344 215.28125 222.863281 215.28125 C 226.246094 215.28125 229.613281 215.027344 232.976562 214.65625 C 234.964844 214.441406 236.929688 214.164062 238.886719 213.800781 C 239.238281 213.734375 239.597656 213.683594 239.960938 213.675781 C 240.121094 213.667969 240.324219 213.757812 240.359375 213.972656 C 240.375 214.078125 240.359375 214.21875 240.300781 214.308594 C 240.195312 214.453125 240.050781 214.566406 239.917969 214.691406 C 239.234375 215.308594 238.421875 215.6875 237.554688 215.980469 C 233.875 217.246094 230.054688 217.796875 226.207031 218.148438 C 223.019531 218.4375 219.824219 218.613281 216.632812 218.816406 C 213.679688 219 210.738281 219.273438 207.773438 219.105469 C 204.195312 218.898438 200.664062 219.332031 197.191406 220.222656 C 195.488281 220.664062 194.140625 221.535156 193.148438 223.03125 C 191.730469 225.164062 191.347656 227.492188 191.65625 229.953125 C 191.996094 232.652344 192.589844 235.296875 193.671875 237.816406 C 194.976562 240.867188 196.082031 243.992188 197.175781 247.125 C 199.929688 255.011719 201.039062 263.160156 201.292969 271.464844 C 201.460938 276.902344 201.210938 282.324219 200.820312 287.738281 C 200.460938 291.734375 200.460938 295.890625 200.683594 299.890625 C 200.722656 300.625 200.601562 301.796875 200.890625 302.46875 C 201.175781 303.128906 201.652344 302.683594 202.0625 302.363281 C 204.105469 300.746094 206.308594 299.378906 208.554688 298.082031 C 210.496094 296.964844 212.5625 296.113281 214.695312 295.449219 C 218.585938 294.25 223.503906 294.253906 227.226562 296.011719 C 227.808594 296.289062 228.378906 296.609375 228.90625 296.972656 C 228.964844 297.007812 230.28125 297.921875 230.269531 297.675781 C 230.238281 297.175781 230.183594 296.679688 230.125 296.183594 C 230.058594 295.691406 229.984375 295.191406 229.898438 294.699219 C 229.816406 294.203125 229.726562 293.707031 229.636719 293.214844 C 229.546875 292.71875 229.460938 292.226562 229.378906 291.734375 C 229.035156 289.652344 228.691406 287.574219 228.359375 285.492188 C 227.703125 281.386719 227.089844 277.269531 226.664062 273.125 C 226.363281 270.191406 226.027344 267.253906 225.75 264.308594 C 225.414062 260.644531 224.972656 256.992188 224.894531 253.304688 C 224.867188 252.097656 224.734375 250.902344 224.660156 249.695312 C 224.640625 249.277344 224.617188 248.855469 224.652344 248.433594 C 224.671875 248.128906 224.855469 247.863281 225.191406 247.796875 C 225.535156 247.730469 225.78125 247.921875 225.929688 248.195312 C 226.101562 248.511719 226.265625 248.84375 226.363281 249.183594 C 226.617188 250.050781 226.90625 250.917969 227.054688 251.804688 C 227.40625 253.824219 227.691406 255.855469 227.980469 257.882812 C 228.394531 260.808594 228.867188 263.734375 229.164062 266.667969 C 229.761719 272.492188 230.617188 278.277344 231.523438 284.058594 C 232.351562 289.359375 233.433594 294.621094 233.714844 300 C 233.792969 301.480469 233.648438 302.878906 233.179688 304.261719 C 232.226562 307.050781 230.542969 309.246094 227.988281 310.773438 C 226.488281 311.667969 225.042969 312.65625 223.566406 313.59375 C 222.695312 314.148438 221.917969 314.820312 221.238281 315.597656 C 220.183594 316.828125 220.367188 317.75 221.796875 318.464844 C 224.578125 319.855469 227.640625 319.980469 230.6875 320.011719 C 233.90625 320.046875 237.121094 319.875 240.339844 319.898438 C 242.296875 319.914062 244.269531 320.011719 246.179688 320.453125 C 247.105469 320.667969 248.015625 320.964844 248.871094 321.375 C 249.371094 321.613281 250.585938 322.664062 251.144531 322.304688 C 251.742188 321.917969 251.308594 321.085938 251.253906 320.464844 C 250.839844 315.597656 250.347656 310.738281 249.953125 305.867188 C 249.644531 302.019531 249.472656 298.160156 249.179688 294.316406 C 248.910156 290.828125 248.625 287.335938 248.175781 283.863281 C 247.589844 279.257812 247.113281 274.640625 246.941406 269.992188 C 246.875 268.066406 246.675781 266.140625 246.53125 264.214844 C 246.210938 259.945312 245.871094 255.675781 245.574219 251.402344 C 245.347656 248.152344 245.15625 244.902344 244.980469 241.652344 C 244.917969 240.570312 244.9375 239.480469 244.953125 238.390625 C 244.957031 238.039062 245.054688 237.679688 245.136719 237.332031 C 245.199219 237.09375 245.363281 236.890625 245.613281 236.828125 C 245.949219 236.746094 246.195312 236.953125 246.363281 237.203125 C 246.5625 237.5 246.746094 237.824219 246.851562 238.167969 C 247.148438 239.144531 247.449219 240.128906 247.660156 241.128906 C 248.355469 244.378906 248.792969 247.667969 249.058594 250.976562 C 249.652344 258.191406 250.335938 265.398438 250.6875 272.628906 C 250.792969 274.859375 251.019531 277.082031 251.1875 279.308594 C 251.445312 282.675781 251.921875 286.019531 252.144531 289.394531 C 252.667969 297.21875 253.105469 305.046875 253.882812 312.851562 C 254.132812 315.375 254.300781 317.902344 254.480469 320.425781 C 254.628906 322.53125 254.84375 324.644531 254.832031 326.75 C 254.816406 329.390625 254.171875 331.867188 252.363281 333.953125 C 251.066406 335.453125 249.855469 337.039062 248.609375 338.59375 C 248.234375 339.0625 247.824219 339.519531 247.53125 340.042969 C 246.777344 341.371094 247.152344 342.683594 248.480469 343.417969 C 249.054688 343.734375 249.691406 343.957031 250.304688 344.203125 C 251.25 344.59375 252.238281 344.90625 253.15625 345.34375 C 254.589844 346.023438 256.085938 346.425781 257.632812 346.746094 C 260.226562 347.285156 262.832031 347.839844 265.210938 349.097656 C 265.269531 349.128906 265.40625 349.019531 265.609375 348.929688 C 265.539062 347.835938 265.472656 346.695312 265.386719 345.554688 Z M 265.394531 345.554688 " fill-opacity="1" fill-rule="nonzero"/><g clip-path="url(#cfc5fbbb0c)"><path fill="#000000" d="M 71.050781 24.15625 C 71.355469 23.957031 75.597656 21.457031 80.507812 18.570312 C 87.511719 14.457031 95.882812 9.558594 96.132812 9.449219 C 96.144531 9.472656 96.183594 9.558594 96.25 9.695312 C 96.265625 9.730469 96.285156 9.773438 96.308594 9.816406 C 97.378906 12.121094 103.066406 24.65625 106.90625 33.15625 C 107.46875 34.40625 107.996094 35.574219 108.460938 36.605469 C 108.933594 37.652344 109.40625 38.703125 109.878906 39.753906 C 110.113281 40.277344 110.347656 40.800781 110.578125 41.324219 C 111.125 42.582031 111.082031 43.878906 110.605469 45.136719 C 110.507812 45.386719 110.398438 45.632812 110.277344 45.871094 C 109.933594 46.542969 109.492188 47.167969 108.972656 47.746094 C 107.96875 48.867188 106.519531 49.773438 105.003906 50.167969 C 104.515625 50.296875 104.015625 50.371094 103.523438 50.386719 C 101.300781 50.4375 99.417969 48.894531 99.070312 46.839844 C 98.988281 46.363281 98.988281 45.863281 99.085938 45.347656 C 99.898438 41.0625 103.199219 39.347656 107.222656 38.863281 C 106.148438 36.445312 105.070312 34.027344 103.992188 31.605469 C 101.855469 26.8125 99.71875 22.007812 97.5625 17.164062 C 92.265625 20.363281 87 23.542969 81.695312 26.746094 C 79.746094 27.921875 77.792969 29.101562 75.828125 30.289062 C 77.992188 35.152344 80.183594 40.007812 82.386719 44.863281 C 83.875 48.128906 85.359375 51.398438 86.863281 54.652344 C 88.769531 58.777344 85.296875 63.460938 81.097656 64.125 C 80.816406 64.167969 80.53125 64.195312 80.246094 64.203125 C 79.84375 64.210938 79.457031 64.179688 79.09375 64.105469 C 79.089844 64.105469 79.085938 64.105469 79.082031 64.105469 C 79.042969 64.097656 79.003906 64.082031 78.964844 64.078125 C 78.101562 63.882812 77.363281 63.472656 76.808594 62.902344 C 76.054688 62.125 75.632812 61.058594 75.636719 59.867188 C 75.636719 59.40625 75.699219 58.925781 75.835938 58.433594 C 76.453125 56.226562 78.074219 54.449219 80.117188 53.480469 C 80.242188 53.421875 80.367188 53.363281 80.492188 53.308594 C 80.53125 53.292969 80.578125 53.277344 80.628906 53.257812 C 80.632812 53.257812 80.632812 53.257812 80.640625 53.253906 C 80.644531 53.253906 80.652344 53.25 80.660156 53.25 C 81.492188 52.96875 83.53125 52.609375 83.644531 52.550781 C 83.574219 52.386719 83.511719 52.21875 83.445312 52.050781 C 83.441406 52.039062 83.4375 52.03125 83.433594 52.019531 C 83.367188 51.855469 83.300781 51.6875 83.226562 51.523438 C 81.5 47.644531 79.78125 43.757812 78.0625 39.878906 C 76.210938 35.699219 74.351562 31.527344 72.480469 27.363281 C 72.238281 26.820312 72 26.28125 71.753906 25.742188 C 71.703125 25.628906 71.652344 25.515625 71.601562 25.398438 C 71.523438 25.222656 71.441406 25.042969 71.363281 24.859375 C 71.261719 24.628906 71.15625 24.398438 71.050781 24.164062 Z M 303.734375 169.660156 C 303.867188 169.238281 303.953125 168.820312 304.007812 168.402344 C 304.125 167.507812 304.066406 166.621094 303.878906 165.734375 C 303.773438 165.234375 303.628906 164.734375 303.445312 164.234375 C 302.683594 162.160156 301.285156 160.601562 299.609375 159.253906 C 299.089844 158.835938 298.578125 158.417969 298.089844 157.980469 C 297.25 157.234375 296.46875 156.433594 295.808594 155.496094 C 295.605469 155.207031 295.410156 154.914062 295.226562 154.613281 C 294.667969 153.703125 294.195312 152.742188 293.820312 151.738281 C 293.65625 151.300781 293.378906 150.082031 292.855469 149.578125 C 292.621094 149.351562 292.335938 149.269531 291.996094 149.46875 C 291.683594 149.648438 291.535156 149.933594 291.460938 150.253906 C 291.390625 150.566406 291.398438 150.914062 291.398438 151.226562 L 291.398438 185.695312 C 291.316406 185.667969 291.238281 185.648438 291.167969 185.628906 C 291.144531 185.621094 291.125 185.613281 291.105469 185.609375 C 290.90625 185.554688 290.742188 185.507812 290.585938 185.457031 C 288.285156 184.699219 286.210938 184.605469 283.941406 185.636719 C 281.9375 186.550781 280.207031 188.28125 280.054688 190.582031 C 280.007812 191.3125 280.121094 191.980469 280.363281 192.578125 C 280.367188 192.582031 280.367188 192.589844 280.371094 192.597656 C 280.378906 192.617188 280.386719 192.632812 280.394531 192.652344 C 280.945312 193.945312 282.109375 194.878906 283.558594 195.316406 C 284.109375 195.480469 284.65625 195.570312 285.203125 195.605469 C 285.382812 195.617188 285.558594 195.628906 285.738281 195.625 C 286.859375 195.621094 287.980469 195.375 289.105469 194.9375 C 289.675781 194.714844 290.203125 194.433594 290.6875 194.101562 C 292.046875 193.164062 293.019531 191.796875 293.292969 190.011719 C 293.347656 189.664062 293.375 189.304688 293.375 188.925781 C 293.347656 179.578125 293.359375 170.222656 293.359375 160.871094 L 293.359375 159.691406 C 294.894531 160.855469 296.652344 161.101562 298.203125 161.914062 C 298.441406 162.039062 298.671875 162.179688 298.902344 162.335938 C 299.90625 163.035156 300.605469 163.9375 301.03125 164.96875 C 301.457031 166 301.609375 167.164062 301.507812 168.382812 C 301.472656 168.785156 301.414062 169.183594 301.335938 169.574219 C 301.035156 171.144531 300.425781 172.632812 299.660156 174.050781 C 299.660156 174.050781 299.660156 174.054688 299.65625 174.054688 C 299.621094 174.117188 299.585938 174.179688 299.550781 174.238281 C 299.539062 174.261719 299.527344 174.285156 299.511719 174.308594 C 299.367188 174.554688 299.222656 174.800781 299.128906 175.066406 C 298.984375 175.488281 299.191406 175.808594 299.546875 175.929688 C 299.636719 175.960938 299.730469 175.980469 299.835938 175.984375 C 300.203125 175.996094 300.484375 175.800781 300.71875 175.546875 C 300.832031 175.421875 300.933594 175.289062 301.023438 175.160156 C 301.421875 174.597656 301.785156 174.011719 302.117188 173.414062 C 302.335938 173.027344 302.53125 172.625 302.722656 172.222656 C 303.007812 171.613281 303.265625 170.988281 303.492188 170.351562 C 303.578125 170.121094 303.660156 169.890625 303.734375 169.65625 Z M 199.945312 114.507812 C 205.386719 120.78125 213.082031 117.75 216.167969 110.953125 C 218.332031 106.1875 218.941406 100.445312 218.945312 94.839844 C 218.949219 91.847656 218.777344 88.894531 218.582031 86.144531 C 218.117188 79.785156 216.769531 71.167969 210.441406 67.910156 C 208.003906 66.65625 204.980469 66.726562 202.5 67.894531 C 196.421875 70.761719 195.492188 78.089844 194.808594 84.023438 C 194.019531 90.882812 194.316406 97.867188 195.730469 104.628906 C 196.46875 108.171875 197.570312 111.773438 199.945312 114.507812 Z M 276.785156 121.300781 C 277.359375 126.222656 277.628906 131.15625 277.402344 136.113281 C 277.335938 137.621094 277.097656 139.109375 276.757812 140.582031 C 275.871094 144.382812 273.25 146.503906 270.105469 148.6875 C 269.664062 148.992188 268.832031 153.539062 268.179688 155.753906 C 267.253906 158.890625 266.265625 162.03125 264.621094 164.820312 C 262.980469 167.609375 260.976562 170.195312 258.609375 172.394531 C 258.066406 172.902344 257.90625 173.398438 257.996094 174.144531 C 258.667969 179.351562 259.324219 184.554688 259.902344 189.769531 C 260.246094 192.824219 260.449219 195.898438 260.691406 198.964844 C 261.042969 203.355469 261.40625 207.742188 261.703125 212.136719 C 261.917969 215.382812 262.105469 218.640625 262.175781 221.898438 C 262.257812 225.824219 262.664062 229.71875 263.042969 233.621094 C 263.441406 237.644531 263.808594 241.664062 264.03125 245.703125 C 264.230469 249.375 264.546875 253.042969 264.863281 256.710938 C 265.082031 259.292969 265.363281 261.875 265.417969 264.46875 C 265.484375 267.425781 265.808594 270.367188 266.042969 273.3125 C 266.402344 277.761719 266.714844 282.21875 266.96875 286.671875 C 267.332031 293.003906 267.300781 299.351562 267.25 305.6875 L 267.25 305.804688 C 267.1875 313.300781 267.050781 320.796875 267.28125 328.285156 C 267.375 331.238281 267.5 334.195312 267.628906 337.148438 C 267.660156 337.871094 267.75 338.589844 267.820312 339.3125 C 268.046875 341.648438 268.367188 343.984375 268.386719 346.34375 C 268.398438 347.304688 268.546875 348.265625 268.613281 349.226562 C 268.664062 349.886719 268.738281 350.550781 268.71875 351.214844 C 268.695312 352.257812 268.238281 352.710938 267.171875 352.832031 C 266.445312 352.921875 265.726562 352.90625 265.046875 352.570312 C 262.683594 351.382812 260.09375 351.101562 257.535156 350.679688 C 257.234375 350.632812 256.933594 350.625 256.640625 350.558594 C 254.246094 350.042969 254.585938 350.226562 254.601562 352.230469 C 254.636719 356.632812 254.6875 361.039062 254.710938 365.441406 C 254.71875 366.160156 254.644531 366.886719 254.570312 367.605469 C 254.523438 368.0625 254.234375 368.367188 253.78125 368.496094 C 253.316406 368.625 252.804688 368.433594 252.546875 367.972656 C 252.316406 367.550781 252.179688 367.078125 251.980469 366.644531 C 251.65625 365.929688 251.375 365.191406 250.980469 364.519531 C 249.628906 362.238281 247.570312 361.402344 244.988281 361.722656 C 242.410156 362.046875 240.140625 363.128906 238.042969 364.609375 C 236.707031 365.550781 235.394531 366.515625 234.074219 367.460938 C 231.960938 368.980469 229.757812 370.34375 227.421875 371.484375 C 225.167969 372.59375 222.8125 373.265625 220.269531 373.117188 C 219.109375 373.050781 217.988281 372.792969 216.953125 372.285156 C 215.652344 371.644531 214.746094 370.667969 214.398438 369.191406 C 214.039062 367.652344 213.777344 366.125 213.765625 364.542969 C 213.746094 361.707031 213.71875 358.871094 213.6875 356.035156 C 213.683594 355.628906 213.761719 355.199219 213.476562 354.808594 C 212.84375 354.699219 212.332031 355.070312 211.785156 355.292969 C 208.265625 356.734375 204.925781 358.550781 201.554688 360.308594 C 199.09375 361.582031 196.636719 362.871094 194.15625 364.117188 C 192.378906 365.011719 190.546875 365.800781 188.625 366.335938 C 187.871094 366.546875 187.101562 366.730469 186.324219 366.816406 C 183.699219 367.085938 182 365.855469 181.519531 363.277344 C 181.292969 362.035156 181.15625 360.765625 181.117188 359.503906 C 181.03125 356.957031 180.519531 354.476562 180.171875 351.964844 C 180.066406 351.199219 179.914062 351.09375 179.097656 351.042969 C 176.085938 350.851562 173.070312 350.617188 170.050781 350.703125 C 166.894531 350.796875 163.816406 351.375 160.804688 352.300781 C 160.023438 352.539062 159.972656 352.667969 160.082031 353.480469 C 160.679688 357.992188 160.652344 362.503906 160.082031 367.011719 C 159.859375 368.726562 159.007812 370.058594 157.679688 371.121094 C 155.554688 372.824219 153.113281 373.804688 150.4375 374.1875 C 143.761719 375.136719 137.082031 375.203125 130.40625 374.179688 C 129.21875 374 128.035156 373.738281 126.863281 373.449219 C 124.753906 372.929688 123.339844 371.667969 122.871094 369.480469 C 122.710938 368.71875 122.519531 367.949219 122.464844 367.171875 C 122.191406 363.621094 121.964844 360.070312 121.722656 356.523438 C 121.695312 356.15625 121.695312 355.796875 121.65625 355.4375 C 121.59375 354.894531 121.363281 354.671875 120.820312 354.753906 C 119.332031 354.972656 117.824219 355.140625 116.367188 355.5 C 112.699219 356.410156 109.328125 357.972656 106.269531 360.222656 C 103.882812 361.976562 101.710938 363.988281 99.386719 365.8125 C 97.914062 366.972656 96.378906 368.035156 94.796875 369.039062 C 91.28125 371.28125 87.578125 371.546875 83.710938 370.113281 C 81.609375 369.339844 79.617188 368.367188 77.890625 366.886719 C 76.894531 366.035156 76.453125 365.109375 76.617188 363.734375 C 77.160156 359.300781 77.863281 354.894531 78.648438 350.5 C 78.699219 350.203125 78.789062 349.914062 78.832031 349.613281 C 79.007812 348.480469 78.910156 348.324219 77.773438 348.359375 C 75.382812 348.429688 73.085938 348.058594 70.886719 347.113281 C 70.445312 346.925781 70.003906 346.726562 69.585938 346.484375 C 68.238281 345.707031 67.488281 344.578125 67.375 342.980469 C 67.128906 339.667969 67.117188 336.359375 67.226562 333.035156 C 67.386719 328.210938 67.761719 323.398438 68.125 318.589844 C 68.445312 314.382812 68.972656 310.1875 69.367188 305.984375 C 69.683594 302.625 69.980469 299.257812 70.480469 295.917969 C 71.007812 292.398438 71.53125 288.878906 72.128906 285.371094 C 73.152344 279.367188 74.1875 273.367188 75.292969 267.378906 C 77.363281 256.171875 79.230469 244.933594 81.785156 233.816406 C 83.570312 226.054688 85.75 218.402344 87.757812 210.703125 C 90.09375 201.714844 92.304688 192.691406 93.941406 183.550781 C 95.03125 177.4375 96.078125 171.308594 96.730469 165.128906 C 96.820312 164.289062 96.890625 163.441406 97.0625 162.621094 C 97.265625 161.632812 97.085938 160.722656 96.785156 159.789062 C 95.917969 157.152344 95.230469 154.464844 94.753906 151.726562 C 94.625 150.953125 94.523438 150.171875 94.484375 149.394531 C 94.453125 148.824219 94.210938 148.527344 93.695312 148.339844 C 91.992188 147.738281 90.3125 147.039062 88.59375 146.5 C 85.304688 145.46875 83.195312 143.226562 81.765625 140.195312 C 80.425781 137.355469 79.910156 134.351562 79.75 131.257812 C 79.597656 128.292969 79.820312 125.339844 80.117188 122.402344 C 80.890625 114.761719 82.394531 107.261719 84.703125 99.933594 C 86.101562 95.492188 87.847656 91.195312 90.066406 87.097656 C 90.671875 85.988281 91.296875 84.886719 92.058594 83.867188 C 93.183594 82.375 94.617188 81.316406 96.375 80.707031 C 97.691406 80.25 99.03125 79.894531 100.429688 79.832031 C 100.734375 79.820312 101.035156 79.796875 101.335938 79.769531 C 102.824219 79.648438 102.828125 79.652344 103.144531 78.296875 C 106.308594 64.699219 113.398438 50.933594 121.207031 39.414062 C 134.839844 19.300781 158.488281 6.339844 182.859375 6.296875 C 221.972656 6.230469 250.699219 37.382812 255.320312 74.789062 C 255.523438 76.402344 255.675781 78.011719 255.789062 79.628906 C 255.820312 80.046875 255.878906 80.46875 255.941406 80.886719 C 256.039062 81.515625 256.140625 81.632812 256.730469 81.648438 C 257.632812 81.679688 258.539062 81.6875 259.445312 81.675781 C 260.664062 81.648438 261.851562 81.835938 263.039062 82.070312 C 265.65625 82.582031 267.703125 83.960938 269.199219 86.167969 C 270.082031 87.476562 270.730469 88.898438 271.304688 90.359375 C 272.304688 92.902344 272.871094 95.554688 273.410156 98.214844 C 274.519531 103.777344 275.488281 109.359375 276.023438 115.011719 C 276.222656 117.109375 276.539062 119.203125 276.785156 121.296875 Z M 256.78125 92.820312 C 259.089844 100.855469 260.640625 109.121094 261.386719 117.386719 C 262.035156 124.59375 262.089844 131.910156 261.53125 139.132812 C 261.488281 139.726562 261.929688 140.242188 262.523438 140.289062 L 262.609375 140.289062 C 263.164062 140.289062 263.636719 139.863281 263.679688 139.296875 C 264.242188 131.953125 264.195312 124.515625 263.53125 117.195312 C 262.773438 108.789062 261.199219 100.394531 258.851562 92.226562 C 258.6875 91.65625 258.089844 91.328125 257.519531 91.492188 C 256.949219 91.65625 256.621094 92.25 256.785156 92.820312 Z M 101.773438 149.136719 C 101.410156 152.742188 100.996094 156.332031 100.496094 159.917969 C 100.382812 160.734375 100.457031 161.453125 100.75 162.203125 C 102.617188 166.992188 104.953125 171.550781 107.703125 175.886719 C 110.363281 180.074219 113.808594 183.488281 117.964844 186.210938 C 125.96875 191.457031 134.671875 193.15625 144.078125 191.519531 C 146.941406 191.027344 149.726562 190.257812 152.480469 189.371094 C 155.0625 188.539062 157.65625 187.746094 160.328125 187.210938 C 162.585938 186.757812 164.863281 186.585938 167.15625 187 C 171.035156 187.703125 173.96875 189.644531 175.617188 193.324219 C 176.085938 194.375 176.476562 195.445312 176.6875 196.582031 C 176.746094 196.875 176.792969 197.171875 176.871094 197.460938 C 176.96875 197.792969 177.214844 197.929688 177.554688 197.929688 C 178.15625 197.941406 178.394531 197.78125 178.511719 197.105469 C 179.042969 193.875 181.007812 191.671875 183.683594 190.039062 C 186.371094 188.394531 189.269531 187.230469 192.386719 186.605469 C 195.0625 186.0625 197.761719 185.785156 200.46875 185.691406 C 203.488281 185.59375 206.507812 185.667969 209.523438 185.667969 L 209.523438 185.601562 C 212 185.601562 214.476562 185.613281 216.953125 185.601562 C 221.074219 185.574219 225.136719 185.003906 229.109375 183.917969 C 235.25 182.242188 241.027344 179.664062 246.539062 176.496094 C 249.253906 174.929688 251.839844 173.144531 254.207031 171.0625 C 254.703125 170.625 254.957031 170.195312 254.867188 169.507812 C 254.476562 166.582031 254.167969 163.636719 253.753906 160.710938 C 252.820312 154.136719 252.527344 147.5 251.746094 140.914062 C 251.371094 137.800781 251.246094 134.660156 251.019531 131.535156 C 250.664062 126.539062 250.414062 121.542969 249.921875 116.558594 C 249.554688 112.835938 249.152344 109.117188 248.597656 105.417969 C 248.167969 102.554688 247.742188 99.695312 247.269531 96.835938 C 246.742188 93.628906 246.1875 90.421875 245.59375 87.222656 C 244.800781 82.945312 243.644531 78.761719 242.515625 74.570312 C 241.453125 70.609375 240.457031 66.632812 239.035156 62.777344 C 237.148438 57.660156 234.746094 52.800781 231.609375 48.332031 C 228.96875 44.566406 225.800781 41.25 222.261719 38.296875 C 219.097656 35.660156 215.691406 33.382812 212.214844 31.191406 C 208.308594 28.730469 204.070312 27.03125 199.636719 25.765625 C 194.910156 24.421875 190.058594 23.8125 185.183594 23.453125 C 179.148438 23.011719 173.117188 23.351562 167.15625 24.488281 C 162.347656 25.410156 157.691406 26.890625 153.230469 28.929688 C 148.410156 31.136719 144.164062 34.195312 140.144531 37.601562 C 138.339844 39.128906 136.675781 40.78125 135.191406 42.617188 C 131.839844 46.753906 128.808594 51.105469 126.230469 55.765625 C 124.597656 58.722656 122.9375 61.671875 121.742188 64.839844 C 118.617188 73.136719 115.726562 81.515625 113.476562 90.09375 C 111.246094 98.613281 109.121094 107.15625 107.425781 115.796875 C 106.175781 122.1875 105.09375 128.609375 103.886719 135.011719 C 103 139.691406 102.25 144.398438 101.769531 149.136719 Z M 188.679688 225.714844 C 189.710938 221.21875 192.082031 217.910156 196.75 216.644531 C 197.152344 216.53125 197.550781 216.390625 198.09375 216.21875 C 198.09375 215.71875 198.109375 215.355469 198.09375 215 C 197.984375 212.953125 197.878906 210.90625 197.753906 208.859375 C 197.710938 208.074219 197.574219 207.96875 196.738281 207.964844 C 196.316406 207.964844 195.894531 207.988281 195.472656 208.003906 C 192.695312 208.09375 189.921875 208.203125 187.148438 208.28125 C 179.84375 208.488281 172.542969 208.679688 165.246094 208.878906 C 163.136719 208.941406 161.023438 208.984375 158.910156 209.050781 C 157.875 209.082031 157.808594 209.144531 157.796875 210.222656 C 157.761719 212.636719 157.75 215.046875 157.746094 217.460938 C 157.746094 218.496094 157.785156 218.5625 158.855469 218.707031 C 161.308594 219.035156 163.761719 219.320312 166.222656 219.613281 C 167 219.707031 167.78125 219.777344 168.558594 219.835938 C 169.105469 219.875 169.328125 219.667969 169.359375 219.105469 C 169.386719 218.628906 169.375 218.144531 169.382812 217.660156 C 169.40625 215.972656 169.40625 214.28125 169.460938 212.59375 C 169.507812 211.101562 169.707031 210.925781 171.136719 210.84375 C 171.257812 210.839844 171.378906 210.84375 171.496094 210.839844 C 175.117188 210.632812 178.738281 210.660156 182.359375 210.667969 C 183.503906 210.671875 184.652344 210.6875 185.792969 210.707031 C 186.613281 210.726562 187.03125 211.085938 187.125 211.871094 C 187.171875 212.292969 187.15625 212.71875 187.160156 213.140625 C 187.242188 227.433594 186.980469 241.730469 186.828125 256.027344 C 186.816406 257.195312 186.5 257.523438 185.347656 257.59375 C 185.050781 257.613281 184.75 257.609375 184.445312 257.605469 C 181.371094 257.523438 178.292969 257.457031 175.214844 257.359375 C 173.710938 257.308594 172.203125 257.210938 170.695312 257.117188 C 169.894531 257.070312 169.613281 256.804688 169.539062 256.03125 C 169.496094 255.554688 169.511719 255.066406 169.507812 254.585938 C 169.484375 252.652344 169.539062 248.171875 169.238281 247.972656 C 168.914062 247.753906 165.9375 249.886719 164.757812 250.820312 C 162.136719 252.898438 159.464844 256.203125 157.660156 259.035156 C 156.949219 260.152344 157.105469 265.191406 157.136719 265.550781 C 157.164062 265.820312 157.347656 265.984375 157.617188 265.992188 C 158.21875 266.003906 158.820312 265.984375 159.421875 265.984375 C 171.074219 265.96875 182.71875 265.953125 194.371094 265.9375 C 194.972656 265.9375 195.574219 265.921875 196.179688 265.898438 C 196.535156 265.882812 196.722656 265.644531 196.714844 265.304688 C 196.707031 264.761719 196.679688 264.21875 196.605469 263.679688 C 196.175781 260.640625 195.757812 257.589844 194.964844 254.613281 C 193.582031 249.425781 191.960938 244.3125 190.289062 239.214844 C 189.648438 237.261719 189.125 235.28125 188.78125 233.261719 C 188.355469 230.75 188.097656 228.234375 188.675781 225.710938 Z M 181.425781 220.0625 C 181.207031 219.730469 180.921875 219.445312 180.589844 219.226562 C 180.585938 219.230469 180.578125 219.238281 180.574219 219.246094 L 179.933594 219.886719 C 179.871094 219.941406 179.839844 220.019531 179.839844 220.105469 C 179.839844 220.1875 179.871094 220.261719 179.933594 220.324219 L 180.332031 220.71875 C 180.390625 220.78125 180.464844 220.8125 180.546875 220.8125 C 180.632812 220.8125 180.710938 220.78125 180.769531 220.71875 L 181.410156 220.078125 C 181.410156 220.078125 181.421875 220.066406 181.425781 220.0625 Z M 180.910156 221.074219 C 180.746094 221.074219 180.605469 221.210938 180.605469 221.382812 L 180.605469 221.945312 C 180.605469 222.117188 180.746094 222.257812 180.910156 222.257812 L 181.820312 222.257812 C 181.832031 222.257812 181.839844 222.257812 181.847656 222.25 C 181.886719 222.0625 181.910156 221.863281 181.910156 221.667969 C 181.910156 221.472656 181.886719 221.265625 181.847656 221.074219 Z M 179.839844 223.226562 C 179.839844 223.308594 179.875 223.382812 179.933594 223.441406 L 180.574219 224.082031 C 180.578125 224.09375 180.589844 224.09375 180.597656 224.105469 C 180.925781 223.882812 181.210938 223.601562 181.425781 223.269531 C 181.421875 223.261719 181.417969 223.257812 181.410156 223.25 L 180.769531 222.609375 C 180.707031 222.546875 180.628906 222.519531 180.546875 222.519531 C 180.46875 222.519531 180.390625 222.546875 180.332031 222.609375 L 179.933594 223.007812 C 179.875 223.0625 179.839844 223.144531 179.839844 223.226562 Z M 176.613281 242.351562 C 175.167969 243.628906 171.925781 245.605469 171.691406 246.5 C 171.398438 247.609375 171.648438 253.285156 171.640625 254.457031 C 171.640625 254.960938 172.035156 255.378906 172.539062 255.402344 C 172.867188 255.414062 173.25 255.433594 173.628906 255.46875 C 175.878906 255.667969 181.691406 255.515625 183.078125 255.53125 C 185.34375 255.550781 185.039062 255.40625 185.039062 253.324219 C 185.035156 240.488281 185.035156 227.648438 185.027344 214.808594 C 185.027344 214.390625 185.039062 213.964844 185.019531 213.546875 C 184.984375 212.855469 184.867188 212.738281 184.121094 212.730469 C 183.214844 212.714844 182.3125 212.75 181.40625 212.75 C 178.332031 212.75 175.253906 212.742188 172.183594 212.746094 C 171.457031 212.746094 171.304688 212.886719 171.300781 213.578125 C 171.285156 215.082031 171.3125 216.585938 171.324219 218.09375 C 171.34375 220.558594 171.207031 220.085938 173.402344 220.59375 C 173.414062 220.59375 173.429688 220.59375 173.445312 220.589844 C 174.046875 220.765625 174.652344 220.949219 175.253906 221.160156 C 175.503906 219.328125 177.082031 217.902344 178.984375 217.902344 C 181.0625 217.902344 182.75 219.59375 182.75 221.667969 C 182.75 222.992188 182.066406 224.152344 181.035156 224.824219 C 183.832031 228.246094 184.046875 233.59375 181.335938 237.136719 C 179.910156 239.011719 178.382812 240.792969 176.609375 242.355469 Z M 178.988281 218.75 C 178.785156 218.75 178.589844 218.765625 178.402344 218.804688 C 178.394531 218.816406 178.394531 218.824219 178.394531 218.832031 L 178.394531 219.742188 C 178.394531 219.914062 178.539062 220.050781 178.707031 220.050781 L 179.269531 220.050781 C 179.441406 220.050781 179.574219 219.914062 179.574219 219.742188 L 179.574219 218.804688 C 179.386719 218.765625 179.1875 218.75 178.988281 218.75 Z M 177.644531 220.71875 L 178.042969 220.324219 C 178.101562 220.261719 178.132812 220.1875 178.132812 220.105469 C 178.132812 220.019531 178.101562 219.941406 178.042969 219.886719 L 177.402344 219.246094 C 177.402344 219.246094 177.390625 219.230469 177.386719 219.226562 C 177.050781 219.445312 176.765625 219.730469 176.550781 220.0625 C 176.558594 220.070312 176.5625 220.074219 176.570312 220.078125 L 177.210938 220.71875 C 177.328125 220.839844 177.527344 220.839844 177.644531 220.71875 Z M 177.0625 221.074219 L 176.125 221.074219 C 176.101562 221.203125 176.085938 221.332031 176.074219 221.464844 C 176.511719 221.636719 176.9375 221.820312 177.359375 222.027344 C 177.371094 222 177.375 221.976562 177.375 221.949219 L 177.375 221.382812 C 177.375 221.210938 177.234375 221.074219 177.0625 221.074219 Z M 197.519531 203.820312 C 197.386719 202.6875 197.425781 201.527344 197.359375 200.386719 C 197.328125 199.824219 197.121094 199.648438 196.558594 199.644531 C 196.078125 199.636719 195.59375 199.667969 195.109375 199.679688 C 190.402344 199.824219 185.699219 199.960938 180.996094 200.121094 C 175.625 200.300781 170.261719 200.511719 164.894531 200.695312 C 162.78125 200.761719 160.667969 200.785156 158.558594 200.847656 C 157.957031 200.867188 157.730469 201.046875 157.730469 201.582031 C 157.738281 203.148438 157.785156 204.71875 157.835938 206.28125 C 157.84375 206.542969 158.035156 206.71875 158.308594 206.722656 C 158.609375 206.730469 158.90625 206.703125 159.210938 206.695312 C 165.304688 206.511719 171.398438 206.328125 176.777344 206.164062 C 183.585938 206.015625 189.679688 205.875 195.773438 205.75 C 197.421875 205.714844 197.769531 205.875 197.519531 203.816406 Z M 94.882812 117.191406 C 96.332031 109.019531 98.578125 100.914062 101.566406 93.105469 C 101.777344 92.550781 101.5 91.929688 100.945312 91.71875 C 100.390625 91.507812 99.765625 91.785156 99.558594 92.335938 C 96.519531 100.277344 94.234375 108.511719 92.761719 116.8125 C 91.472656 124.054688 90.789062 131.460938 90.722656 138.824219 C 90.71875 139.390625 91.152344 139.859375 91.707031 139.90625 L 91.789062 139.90625 C 92.382812 139.917969 92.871094 139.4375 92.875 138.84375 C 92.941406 131.597656 93.613281 124.3125 94.878906 117.191406 Z M 98.332031 153.933594 C 98.484375 152.753906 98.640625 151.570312 98.78125 150.390625 C 98.832031 149.96875 98.621094 149.710938 98.214844 149.625 C 97.765625 149.527344 97.269531 149.121094 96.875 149.554688 C 96.566406 149.890625 96.90625 150.359375 97.015625 150.734375 C 97.324219 151.8125 97.503906 152.941406 98.332031 153.933594 Z M 85.789062 342.234375 C 86.246094 341.9375 86.628906 341.550781 86.851562 341.027344 C 87.167969 340.304688 86.921875 339.851562 86.140625 339.800781 C 85.59375 339.761719 85.050781 339.789062 84.511719 339.753906 C 82.808594 339.640625 81.171875 339.277344 79.65625 338.460938 C 78.722656 337.960938 77.980469 337.269531 77.628906 336.246094 C 77.253906 335.164062 76.878906 334.078125 76.78125 332.925781 C 76.582031 330.511719 76.605469 328.105469 76.871094 325.695312 C 77.351562 321.195312 78.214844 316.753906 79.132812 312.324219 C 81.136719 302.695312 83.714844 293.214844 86.363281 283.75 C 87.824219 278.523438 89.425781 273.339844 91.488281 268.3125 C 92.015625 267.03125 92.570312 265.757812 93.28125 264.5625 C 93.367188 264.417969 93.460938 264.226562 93.683594 264.289062 C 93.890625 264.351562 93.925781 264.527344 93.886719 264.714844 C 93.765625 265.242188 93.652344 265.773438 93.507812 266.296875 C 91.828125 272.335938 90.082031 278.359375 88.460938 284.417969 C 85.292969 296.238281 82.191406 308.078125 80.152344 320.164062 C 79.753906 322.542969 79.3125 324.917969 79.199219 327.332031 C 79.1875 327.667969 79.027344 328.046875 79.464844 328.398438 C 79.863281 328.183594 80.089844 327.75 80.390625 327.410156 C 82.773438 324.777344 85.621094 322.78125 88.804688 321.25 C 91.117188 320.140625 93.457031 320.226562 95.804688 321.253906 C 97.828125 322.136719 98.953125 323.617188 99.152344 325.800781 C 99.222656 326.578125 99.222656 327.367188 99.273438 328.148438 C 99.351562 329.398438 99.609375 329.695312 100.867188 329.949219 C 101.273438 330.03125 101.707031 330.042969 102.121094 330.066406 C 103.21875 330.136719 104.277344 329.902344 105.351562 329.734375 C 109.730469 329.058594 113.402344 326.925781 116.8125 324.257812 C 117.28125 323.886719 117.671875 323.414062 118.070312 322.960938 C 118.472656 322.503906 118.742188 321.964844 118.929688 321.382812 C 119.316406 320.148438 119.070312 319.46875 117.988281 318.761719 C 117.273438 318.289062 116.457031 318.054688 115.652344 317.800781 C 114.042969 317.285156 112.464844 316.714844 110.921875 316.007812 C 107.539062 314.460938 105.957031 311.769531 105.753906 308.152344 C 105.746094 307.972656 105.75 307.789062 105.746094 307.609375 C 105.597656 302.339844 106.105469 297.121094 107.003906 291.945312 C 108 286.167969 109.617188 280.550781 111.371094 274.964844 C 112.4375 271.566406 113.644531 268.222656 115.164062 264.996094 C 115.679688 263.910156 116.265625 262.851562 116.851562 261.796875 C 117.023438 261.496094 117.289062 261.226562 117.554688 260.996094 C 117.660156 260.902344 117.917969 260.898438 118.046875 260.964844 C 118.175781 261.03125 118.300781 261.242188 118.300781 261.390625 C 118.300781 262.066406 118.003906 262.671875 117.785156 263.292969 C 116.402344 267.21875 115.019531 271.140625 113.851562 275.136719 C 111.65625 282.667969 109.542969 290.21875 108.765625 298.058594 C 108.582031 299.917969 108.421875 301.78125 108.261719 303.644531 C 108.242188 303.914062 108.160156 304.261719 108.648438 304.398438 C 108.921875 304.136719 109.214844 303.839844 109.523438 303.5625 C 112.769531 300.605469 116.542969 299.171875 120.960938 299.617188 C 123.082031 299.828125 125.089844 300.445312 127.042969 301.277344 C 128.429688 301.871094 129.808594 302.480469 131.214844 303.027344 C 132.785156 303.640625 134.402344 304.128906 136.082031 304.375 C 138.242188 304.695312 139.816406 303.773438 141.066406 302.117188 C 141.777344 301.171875 142.050781 300.066406 142.28125 298.933594 C 142.824219 296.21875 143.351562 293.492188 144.117188 290.824219 C 145.558594 285.839844 146.769531 280.804688 147.855469 275.730469 C 149.273438 269.089844 151.535156 262.753906 155.054688 256.890625 C 157.164062 253.378906 159.796875 250.34375 162.960938 247.78125 C 165.261719 245.921875 167.59375 244.105469 170.070312 242.480469 C 171.535156 241.519531 172.890625 240.410156 174.210938 239.257812 C 175.945312 237.734375 177.484375 236.039062 178.753906 234.117188 C 180.535156 231.414062 179.875 228.148438 177.1875 226.34375 C 175.3125 225.082031 173.230469 224.328125 171 223.925781 C 169.210938 223.597656 167.394531 223.605469 165.601562 223.375 C 161.292969 222.824219 156.980469 222.285156 152.65625 221.835938 C 149.292969 221.488281 145.949219 221.011719 142.652344 220.289062 C 139.414062 219.578125 136.214844 218.6875 132.992188 217.910156 C 130.035156 217.195312 127.308594 215.921875 124.644531 214.484375 C 123.796875 214.023438 122.972656 213.515625 122.339844 212.757812 C 121.8125 212.117188 121.691406 211.488281 122.078125 211.136719 C 122.574219 210.6875 123.074219 210.9375 123.570312 211.199219 C 127.375 213.222656 131.417969 214.542969 135.617188 215.515625 C 141.453125 216.867188 147.359375 217.679688 153.320312 218.136719 C 155.378906 218.289062 155.28125 218.34375 155.292969 216.25 C 155.324219 211.121094 155.386719 205.996094 155.652344 200.875 C 155.769531 198.746094 155.820312 198.628906 157.945312 198.550781 C 161.441406 198.421875 164.941406 198.332031 168.441406 198.230469 C 169.949219 198.1875 171.457031 198.175781 172.96875 198.125 C 173.746094 198.101562 173.898438 197.847656 173.644531 197.082031 C 173.265625 195.925781 172.761719 194.820312 172.050781 193.84375 C 170.96875 192.339844 169.59375 191.210938 167.6875 190.847656 C 165.527344 190.441406 163.359375 190.417969 161.214844 190.84375 C 158.613281 191.367188 156.070312 192.140625 153.554688 192.992188 C 148.4375 194.738281 143.183594 195.71875 137.761719 195.777344 C 134.609375 195.8125 131.488281 195.578125 128.441406 194.742188 C 116.84375 191.546875 108.054688 184.84375 102.613281 173.988281 C 101.832031 172.421875 101.082031 170.84375 100.3125 169.273438 C 100.160156 168.957031 100.0625 168.589844 99.605469 168.4375 C 99.320312 169.101562 99.253906 169.808594 99.183594 170.519531 C 98.707031 175.261719 97.996094 179.976562 97.15625 184.664062 C 95.585938 193.445312 93.527344 202.132812 91.332031 210.78125 C 89.476562 218.085938 87.359375 225.316406 85.652344 232.660156 C 84.222656 238.832031 82.949219 245.027344 81.78125 251.25 C 80.644531 257.292969 79.5 263.339844 78.382812 269.378906 C 77.34375 275.015625 76.316406 280.652344 75.308594 286.289062 C 74.550781 290.566406 73.8125 294.839844 73.371094 299.167969 C 73.09375 301.863281 72.792969 304.5625 72.507812 307.261719 C 72.113281 311.039062 71.664062 314.8125 71.34375 318.597656 C 70.824219 324.851562 70.378906 331.105469 69.925781 337.363281 C 69.8125 338.925781 69.796875 340.5 69.710938 342.066406 C 69.675781 342.691406 69.960938 343.074219 70.488281 343.355469 C 71.675781 343.980469 72.941406 344.351562 74.246094 344.632812 C 78.449219 345.539062 82.253906 344.546875 85.785156 342.242188 Z M 225.953125 351.914062 C 226.023438 351.964844 226.160156 351.921875 226.339844 351.921875 C 226.613281 351.324219 226.511719 350.675781 226.445312 350.019531 C 226.144531 346.957031 225.886719 343.890625 225.578125 340.832031 C 225.335938 338.433594 225.101562 336.027344 224.753906 333.644531 C 224.300781 330.476562 223.785156 327.324219 223.523438 324.136719 C 223.457031 323.324219 223.109375 322.976562 222.40625 322.730469 C 221.15625 322.277344 220.007812 321.597656 218.890625 320.875 C 217.714844 320.117188 216.984375 319.035156 216.878906 317.605469 C 216.71875 315.320312 216.546875 313.039062 216.628906 310.738281 C 216.75 307.425781 216.816406 304.105469 216.910156 300.792969 C 216.980469 298.300781 217.234375 298.433594 214.5625 299.140625 C 214.269531 299.222656 213.988281 299.332031 213.710938 299.441406 C 209.460938 301.085938 205.554688 303.339844 202 306.195312 C 201.71875 306.417969 201.453125 306.667969 201.152344 306.867188 C 200.375 307.386719 199.660156 307.300781 199.066406 306.59375 C 198.800781 306.273438 198.59375 305.898438 198.402344 305.523438 C 197.863281 304.496094 197.5625 303.375 197.433594 302.242188 C 196.960938 298.046875 196.527344 293.839844 196.726562 289.609375 C 196.859375 286.71875 197.125 283.835938 197.265625 280.941406 C 197.429688 277.503906 197.308594 274.0625 197.15625 270.628906 C 197.039062 267.839844 197.1875 268.207031 194.65625 268.199219 C 181.859375 268.175781 169.066406 268.164062 156.265625 268.148438 C 155.511719 268.148438 155.171875 267.875 155.078125 267.097656 C 154.992188 266.445312 155.144531 264.761719 155.09375 263.921875 C 154.828125 264.527344 154.546875 265.171875 154.503906 265.265625 C 154.296875 265.695312 154.082031 266.128906 153.917969 266.582031 C 152.582031 270.273438 151.421875 274.011719 150.625 277.855469 C 149.898438 281.34375 149.148438 284.816406 148.140625 288.234375 C 147.117188 291.707031 146.28125 295.21875 145.910156 298.835938 C 145.753906 300.34375 145.171875 301.746094 144.46875 303.097656 C 142.804688 306.296875 140.101562 307.625 136.582031 307.433594 C 135.203125 307.359375 133.835938 307.097656 132.5 306.683594 C 130.886719 306.179688 129.316406 305.558594 127.785156 304.839844 C 127.023438 304.480469 126.253906 304.128906 125.476562 303.804688 C 124.53125 303.410156 124.398438 303.472656 124.15625 304.546875 C 123.855469 305.898438 123.542969 307.25 123.320312 308.617188 C 122.757812 312.070312 121.984375 315.488281 121.894531 319.003906 C 121.875 319.835938 121.640625 320.671875 121.46875 321.496094 C 121.039062 323.570312 120.027344 325.304688 118.398438 326.6875 C 114.351562 330.113281 109.792969 332.449219 104.507812 333.214844 C 103 333.429688 101.496094 333.351562 100.015625 332.945312 C 97.800781 332.347656 96.773438 331.082031 96.699219 328.804688 C 96.679688 328.140625 96.683594 327.480469 96.695312 326.816406 C 96.730469 325.144531 95.898438 324.09375 94.359375 323.550781 C 93.960938 323.410156 93.5625 323.265625 93.144531 323.195312 C 91.34375 322.894531 90.902344 323.207031 90.640625 325.019531 C 89.957031 329.804688 89.550781 334.609375 89.644531 339.445312 C 89.703125 342.3125 88.574219 344.441406 86.039062 345.835938 C 84.773438 346.539062 83.507812 347.238281 82.113281 347.65625 C 81.746094 347.773438 81.453125 347.9375 81.488281 348.398438 C 81.644531 350.578125 81.261719 352.730469 81.074219 354.890625 C 80.90625 356.878906 80.632812 358.839844 80.050781 360.757812 C 79.753906 361.734375 79.582031 362.753906 79.382812 363.761719 C 79.234375 364.507812 79.277344 364.628906 79.875 364.941406 C 82.1875 366.140625 84.597656 367.078125 87.164062 367.578125 C 88.0625 367.757812 88.953125 367.679688 89.847656 367.40625 C 91.128906 367.015625 92.289062 366.382812 93.402344 365.660156 C 95.429688 364.34375 97.328125 362.851562 99.234375 361.367188 C 101.085938 359.917969 102.960938 358.492188 104.886719 357.144531 C 109.371094 354.003906 114.359375 352.128906 119.804688 351.546875 C 123.121094 351.191406 126.3125 351.632812 129.195312 353.464844 C 129.402344 353.59375 129.609375 353.71875 129.871094 353.621094 C 129.910156 353.515625 129.988281 353.40625 129.984375 353.300781 C 129.964844 352.753906 129.949219 352.210938 129.890625 351.671875 C 129.214844 345.25 128.90625 338.804688 128.660156 332.351562 C 128.394531 325.296875 128.4375 318.234375 128.433594 311.179688 C 128.433594 310.636719 128.503906 310.09375 128.554688 309.558594 C 128.582031 309.296875 128.730469 309.082031 129.007812 309.113281 C 129.15625 309.128906 129.359375 309.265625 129.429688 309.40625 C 129.789062 310.113281 129.875 310.894531 129.972656 311.675781 C 130.421875 315.214844 130.417969 318.78125 130.53125 322.332031 C 130.714844 328.304688 131.164062 334.257812 131.515625 340.21875 C 131.847656 345.875 132.191406 351.539062 132.609375 357.191406 C 132.789062 359.652344 131.914062 361.671875 130.382812 363.484375 C 130.035156 363.898438 129.621094 364.261719 129.246094 364.648438 C 128.480469 365.417969 127.710938 366.191406 126.960938 366.972656 C 126.855469 367.082031 126.75 367.191406 126.65625 367.308594 C 126.5625 367.425781 126.46875 367.546875 126.390625 367.671875 C 126.308594 367.796875 126.238281 367.925781 126.171875 368.0625 C 126.109375 368.203125 126.054688 368.339844 126.011719 368.492188 C 125.871094 369.011719 126.035156 369.441406 126.511719 369.71875 C 127.480469 370.273438 128.558594 370.441406 129.636719 370.5625 C 130.476562 370.65625 131.316406 370.734375 132.160156 370.808594 C 133 370.882812 133.839844 370.953125 134.679688 371.042969 C 139.75 371.589844 144.808594 371.304688 149.871094 370.925781 C 151.828125 370.78125 153.652344 370.195312 155.257812 369.019531 C 156.121094 368.390625 156.710938 367.59375 156.960938 366.546875 C 157.085938 366.027344 156.980469 365.5625 156.625 365.207031 C 156.246094 364.820312 155.816406 364.484375 155.371094 364.179688 C 154.722656 363.730469 154.03125 363.359375 153.390625 362.910156 C 152.128906 362.03125 151.078125 360.941406 150.570312 359.460938 C 150.003906 357.8125 149.410156 356.164062 149.152344 354.425781 C 148.648438 351.074219 148.519531 347.699219 148.605469 344.324219 C 148.722656 339.621094 148.910156 334.921875 149.09375 330.21875 C 149.265625 325.699219 149.441406 321.179688 149.667969 316.660156 C 149.9375 311.238281 150.308594 305.824219 150.546875 300.398438 C 150.800781 294.914062 151.226562 289.445312 151.765625 283.980469 C 151.828125 283.328125 152.007812 282.683594 152.175781 282.042969 C 152.210938 281.902344 152.40625 281.742188 152.558594 281.710938 C 152.847656 281.644531 152.960938 281.917969 153.035156 282.125 C 153.109375 282.351562 153.132812 282.597656 153.140625 282.839844 C 153.207031 284.527344 153.339844 286.214844 153.304688 287.902344 C 153.1875 293.75 153.050781 299.601562 152.859375 305.453125 C 152.714844 309.910156 152.488281 314.371094 152.261719 318.828125 C 152.105469 322.019531 151.859375 325.210938 151.71875 328.40625 C 151.476562 333.765625 151.300781 339.132812 151.066406 344.496094 C 150.941406 347.457031 150.980469 350.40625 151.339844 353.347656 C 151.402344 353.839844 151.667969 353.957031 152.070312 353.636719 C 154.496094 351.679688 157.261719 350.355469 160.210938 349.410156 C 163.386719 348.394531 166.636719 347.777344 169.984375 347.742188 C 173.425781 347.703125 176.863281 347.640625 180.285156 348.132812 C 182.644531 348.476562 184.890625 349.101562 186.78125 350.648438 C 186.957031 350.796875 187.175781 351 187.410156 350.800781 C 187.519531 350.710938 187.570312 350.488281 187.570312 350.328125 C 187.558594 349.304688 187.585938 348.273438 187.480469 347.253906 C 187.253906 345.035156 186.984375 342.816406 186.675781 340.609375 C 186.171875 336.96875 185.574219 333.332031 185.105469 329.6875 C 184.242188 322.925781 183.648438 316.132812 183.363281 309.324219 C 182.964844 299.789062 182.9375 290.265625 183.996094 280.765625 C 184.308594 277.945312 184.734375 275.148438 185.425781 272.390625 C 185.539062 271.925781 185.703125 271.46875 185.855469 271.011719 C 185.9375 270.753906 186.160156 270.601562 186.402344 270.609375 C 186.65625 270.621094 186.808594 270.832031 186.839844 271.101562 C 186.945312 272.066406 186.871094 273.03125 186.734375 273.988281 C 185.984375 279.25 185.679688 284.554688 185.488281 289.855469 C 185.121094 299.9375 185.453125 309.996094 186.375 320.046875 C 186.90625 325.8125 187.671875 331.546875 188.5 337.277344 C 188.941406 340.320312 189.304688 343.375 189.605469 346.433594 C 189.808594 348.535156 189.75 350.648438 189.394531 352.746094 C 188.941406 355.429688 187.988281 357.855469 186.066406 359.839844 C 185.769531 360.144531 185.492188 360.457031 185.21875 360.777344 C 184.824219 361.246094 184.550781 361.785156 184.390625 362.371094 C 184.171875 363.179688 184.535156 363.6875 185.34375 363.726562 C 185.894531 363.757812 186.429688 363.707031 186.953125 363.523438 C 187.976562 363.15625 189.011719 362.832031 190.011719 362.425781 C 192.753906 361.316406 195.332031 359.855469 197.945312 358.46875 C 202.046875 356.292969 206.148438 354.121094 210.46875 352.386719 C 212.546875 351.554688 214.65625 350.820312 216.875 350.5 C 220.03125 350.042969 223.144531 350.019531 225.949219 351.914062 Z M 252.09375 359.480469 C 252.082031 356.890625 252.070312 354.296875 252.019531 351.707031 C 251.960938 348.847656 252.355469 349.238281 249.574219 348.050781 C 248.578125 347.632812 247.578125 347.195312 246.648438 346.640625 C 244.882812 345.578125 243.945312 343.949219 243.722656 341.898438 C 243.675781 341.425781 243.671875 340.933594 243.558594 340.472656 C 242.664062 336.714844 242.101562 332.902344 241.511719 329.089844 C 241.285156 327.605469 241.058594 326.117188 240.824219 324.628906 C 240.722656 324.023438 240.617188 323.914062 240.003906 323.898438 C 236.789062 323.898438 233.578125 324.113281 230.367188 323.996094 C 230.054688 323.984375 226.199219 323.480469 226.101562 323.726562 C 225.855469 324.316406 226.0625 325.074219 226.109375 325.691406 C 226.179688 326.699219 226.277344 327.703125 226.371094 328.707031 C 226.582031 330.824219 226.816406 332.941406 227.082031 335.054688 C 227.355469 337.21875 227.648438 339.378906 227.90625 341.550781 C 228.0625 342.847656 228.207031 344.152344 228.332031 345.457031 C 228.390625 346.054688 228.457031 346.652344 228.523438 347.25 C 228.714844 349.109375 228.90625 350.96875 228.890625 352.84375 C 228.871094 356.066406 227.855469 358.867188 225.53125 361.140625 C 224.753906 361.898438 223.960938 362.636719 223.109375 363.304688 C 222.164062 364.046875 221.152344 364.71875 220.148438 365.378906 C 219.234375 365.976562 218.386719 366.652344 217.683594 367.488281 C 216.996094 368.308594 217.148438 368.910156 218.117188 369.300781 C 219.265625 369.753906 220.457031 369.839844 221.675781 369.695312 C 223.132812 369.527344 224.476562 368.996094 225.777344 368.351562 C 227.71875 367.382812 229.605469 366.304688 231.402344 365.082031 C 232.894531 364.058594 234.394531 363.046875 235.910156 362.070312 C 238.46875 360.414062 241.203125 359.199219 244.25 358.789062 C 246.792969 358.445312 249.183594 358.714844 251.265625 360.382812 C 251.4375 360.519531 251.601562 360.742188 251.921875 360.625 C 252.246094 360.304688 252.09375 359.867188 252.09375 359.476562 Z M 256.699219 183.78125 C 256.453125 181.203125 256.109375 178.628906 255.703125 176.070312 C 255.585938 175.363281 255.375 175.292969 254.746094 175.734375 C 254.492188 175.90625 254.261719 176.09375 254.015625 176.269531 C 250.316406 178.90625 246.402344 181.164062 242.214844 182.917969 C 240.4375 183.667969 238.644531 184.390625 236.847656 185.078125 C 233.460938 186.375 230.027344 187.492188 226.449219 188.140625 C 221.726562 189 216.964844 189.011719 212.195312 188.964844 C 206.886719 188.902344 201.578125 188.703125 196.269531 189.171875 C 192.351562 189.519531 188.683594 190.503906 185.300781 192.527344 C 184.035156 193.289062 182.976562 194.25 182.132812 195.453125 C 181.75 196 181.441406 196.585938 181.332031 197.253906 C 181.273438 197.609375 181.429688 197.828125 181.8125 197.832031 C 182.175781 197.84375 182.539062 197.824219 182.898438 197.808594 C 187.722656 197.628906 192.550781 197.496094 197.378906 197.507812 C 198.675781 197.507812 199.28125 197.4375 199.425781 199.308594 C 199.433594 199.429688 199.445312 199.550781 199.457031 199.667969 C 199.601562 202.378906 199.746094 205.09375 199.894531 207.800781 C 200.015625 210.03125 200.132812 212.261719 200.261719 214.492188 C 200.328125 215.726562 200.371094 215.785156 201.691406 215.664062 C 204.160156 215.429688 206.632812 215.46875 209.105469 215.539062 C 210.859375 215.589844 212.609375 215.636719 214.359375 215.515625 C 217.191406 215.308594 220.027344 215.28125 222.863281 215.28125 C 226.246094 215.28125 229.613281 215.027344 232.976562 214.660156 C 234.964844 214.445312 236.929688 214.167969 238.886719 213.804688 C 239.238281 213.734375 239.597656 213.683594 239.960938 213.675781 C 240.121094 213.671875 240.324219 213.757812 240.359375 213.972656 C 240.375 214.078125 240.359375 214.21875 240.300781 214.308594 C 240.195312 214.453125 240.050781 214.566406 239.917969 214.691406 C 239.234375 215.308594 238.421875 215.6875 237.554688 215.980469 C 233.875 217.246094 230.054688 217.800781 226.207031 218.148438 C 223.019531 218.441406 219.824219 218.617188 216.632812 218.816406 C 213.679688 219 210.738281 219.273438 207.773438 219.105469 C 204.195312 218.902344 200.664062 219.335938 197.191406 220.226562 C 195.488281 220.664062 194.140625 221.539062 193.148438 223.035156 C 191.730469 225.167969 191.347656 227.492188 191.65625 229.957031 C 191.996094 232.65625 192.589844 235.296875 193.671875 237.816406 C 194.976562 240.867188 196.082031 243.992188 197.175781 247.125 C 199.929688 255.011719 201.039062 263.164062 201.292969 271.464844 C 201.460938 276.902344 201.210938 282.324219 200.820312 287.742188 C 200.460938 291.734375 200.460938 295.890625 200.683594 299.894531 C 200.722656 300.625 200.601562 301.796875 200.890625 302.46875 C 201.175781 303.132812 201.652344 302.683594 202.0625 302.363281 C 204.105469 300.75 206.308594 299.378906 208.554688 298.085938 C 210.496094 296.964844 212.5625 296.113281 214.695312 295.453125 C 218.585938 294.25 223.503906 294.253906 227.226562 296.015625 C 227.808594 296.292969 228.378906 296.613281 228.90625 296.976562 C 228.964844 297.011719 230.28125 297.921875 230.269531 297.679688 C 230.238281 297.179688 230.183594 296.679688 230.125 296.1875 C 230.058594 295.691406 229.984375 295.195312 229.898438 294.699219 C 229.816406 294.203125 229.726562 293.707031 229.636719 293.214844 C 229.546875 292.71875 229.460938 292.226562 229.378906 291.734375 C 229.035156 289.65625 228.691406 287.574219 228.359375 285.496094 C 227.703125 281.386719 227.089844 277.269531 226.664062 273.128906 C 226.363281 270.191406 226.027344 267.253906 225.75 264.308594 C 225.414062 260.644531 224.972656 256.992188 224.894531 253.308594 C 224.867188 252.101562 224.734375 250.902344 224.660156 249.695312 C 224.640625 249.277344 224.617188 248.855469 224.652344 248.433594 C 224.675781 248.128906 224.855469 247.863281 225.191406 247.800781 C 225.535156 247.734375 225.78125 247.921875 225.929688 248.199219 C 226.101562 248.515625 226.265625 248.84375 226.363281 249.1875 C 226.617188 250.054688 226.90625 250.917969 227.054688 251.804688 C 227.40625 253.824219 227.691406 255.855469 227.980469 257.882812 C 228.394531 260.8125 228.867188 263.734375 229.164062 266.671875 C 229.761719 272.496094 230.617188 278.277344 231.523438 284.058594 C 232.351562 289.359375 233.433594 294.625 233.714844 300.003906 C 233.792969 301.484375 233.648438 302.882812 233.179688 304.265625 C 232.226562 307.050781 230.542969 309.246094 227.988281 310.773438 C 226.488281 311.667969 225.042969 312.65625 223.566406 313.59375 C 222.695312 314.152344 221.917969 314.824219 221.238281 315.601562 C 220.183594 316.828125 220.367188 317.75 221.796875 318.46875 C 224.578125 319.859375 227.640625 319.980469 230.6875 320.011719 C 233.90625 320.046875 237.121094 319.875 240.339844 319.902344 C 242.296875 319.914062 244.269531 320.011719 246.179688 320.453125 C 247.105469 320.667969 248.015625 320.96875 248.871094 321.375 C 249.371094 321.617188 250.585938 322.664062 251.144531 322.304688 C 251.742188 321.917969 251.308594 321.089844 251.253906 320.464844 C 250.839844 315.597656 250.347656 310.742188 249.953125 305.867188 C 249.644531 302.019531 249.472656 298.160156 249.179688 294.316406 C 248.910156 290.828125 248.625 287.339844 248.175781 283.867188 C 247.589844 279.257812 247.113281 274.640625 246.941406 269.992188 C 246.875 268.066406 246.675781 266.144531 246.53125 264.21875 C 246.210938 259.945312 245.871094 255.675781 245.574219 251.40625 C 245.347656 248.152344 245.15625 244.90625 244.980469 241.652344 C 244.917969 240.570312 244.9375 239.480469 244.953125 238.390625 C 244.957031 238.042969 245.054688 237.683594 245.136719 237.335938 C 245.199219 237.09375 245.363281 236.894531 245.613281 236.832031 C 245.949219 236.746094 246.195312 236.953125 246.363281 237.203125 C 246.5625 237.503906 246.746094 237.828125 246.851562 238.167969 C 247.148438 239.148438 247.449219 240.132812 247.660156 241.132812 C 248.355469 244.378906 248.792969 247.671875 249.058594 250.976562 C 249.652344 258.191406 250.335938 265.398438 250.6875 272.628906 C 250.792969 274.859375 251.019531 277.085938 251.1875 279.308594 C 251.445312 282.675781 251.921875 286.019531 252.144531 289.394531 C 252.667969 297.21875 253.105469 305.050781 253.882812 312.851562 C 254.132812 315.378906 254.300781 317.90625 254.480469 320.429688 C 254.628906 322.535156 254.84375 324.644531 254.832031 326.75 C 254.816406 329.394531 254.171875 331.867188 252.363281 333.953125 C 251.066406 335.453125 249.855469 337.039062 248.609375 338.597656 C 248.234375 339.066406 247.824219 339.523438 247.53125 340.042969 C 246.777344 341.375 247.152344 342.6875 248.480469 343.421875 C 249.054688 343.734375 249.691406 343.960938 250.304688 344.207031 C 251.25 344.59375 252.238281 344.910156 253.15625 345.347656 C 254.589844 346.023438 256.085938 346.425781 257.632812 346.746094 C 260.226562 347.289062 262.832031 347.839844 265.210938 349.101562 C 265.269531 349.132812 265.40625 349.019531 265.609375 348.933594 C 265.539062 347.835938 265.472656 346.695312 265.386719 345.558594 C 265.171875 342.613281 264.882812 339.667969 264.742188 336.71875 C 264.53125 332.261719 264.425781 327.804688 264.632812 323.332031 C 264.878906 317.96875 264.628906 312.597656 264.820312 307.230469 C 264.960938 303.253906 264.804688 299.265625 264.777344 295.285156 C 264.753906 290.933594 264.523438 286.597656 264.230469 282.265625 C 263.917969 277.632812 263.507812 273.003906 263.289062 268.363281 C 263.085938 263.902344 262.902344 259.449219 262.289062 255.015625 C 261.984375 252.746094 261.75 250.464844 261.53125 248.183594 C 261.175781 244.460938 260.847656 240.734375 260.527344 237.011719 C 260.332031 234.671875 260.113281 232.324219 260.003906 229.976562 C 259.867188 227.144531 259.824219 224.308594 259.75 221.472656 C 259.644531 217.128906 259.316406 212.796875 258.96875 208.46875 C 258.683594 204.921875 258.40625 201.375 258.074219 197.832031 C 257.640625 193.144531 257.136719 188.464844 256.691406 183.78125 Z M 265.078125 150.589844 C 264.753906 150.347656 262.78125 151.03125 262.25 151.144531 C 261.066406 151.398438 259.882812 151.65625 258.695312 151.910156 C 257.875 152.085938 256.953125 152.070312 256.207031 152.496094 C 255.121094 153.113281 255.523438 154.300781 255.644531 155.332031 C 255.980469 158.210938 256.40625 161.078125 256.777344 163.953125 C 256.914062 164.980469 256.898438 166.035156 257.113281 167.054688 C 257.140625 167.1875 257.175781 167.316406 257.261719 167.421875 C 257.476562 167.683594 257.785156 167.515625 257.984375 167.34375 C 258.625 166.804688 259.101562 166.035156 259.582031 165.355469 C 262.542969 161.222656 264.578125 156.761719 265.175781 151.671875 C 265.207031 151.417969 265.328125 150.777344 265.082031 150.585938 Z M 178.988281 243.0625 C 181.066406 243.0625 182.757812 244.753906 182.757812 246.828125 C 182.757812 248.902344 181.066406 250.59375 178.988281 250.59375 C 176.914062 250.59375 175.222656 248.902344 175.222656 246.828125 C 175.222656 244.753906 176.914062 243.0625 178.988281 243.0625 Z M 177.0625 247.414062 C 177.234375 247.414062 177.371094 247.28125 177.371094 247.109375 L 177.371094 246.546875 C 177.371094 246.375 177.230469 246.234375 177.0625 246.234375 L 176.15625 246.234375 C 176.148438 246.234375 176.140625 246.234375 176.125 246.238281 C 176.085938 246.429688 176.070312 246.625 176.070312 246.828125 C 176.070312 247.027344 176.085938 247.226562 176.125 247.414062 Z M 180.910156 246.234375 C 180.746094 246.234375 180.605469 246.375 180.605469 246.546875 L 180.605469 247.109375 C 180.605469 247.28125 180.746094 247.414062 180.910156 247.414062 L 181.847656 247.414062 C 181.886719 247.226562 181.910156 247.027344 181.910156 246.828125 C 181.910156 246.625 181.886719 246.429688 181.847656 246.238281 C 181.839844 246.234375 181.832031 246.234375 181.820312 246.234375 Z M 179.839844 245.265625 C 179.839844 245.347656 179.871094 245.425781 179.933594 245.484375 L 180.332031 245.882812 C 180.390625 245.941406 180.464844 245.972656 180.546875 245.972656 C 180.632812 245.972656 180.710938 245.941406 180.769531 245.882812 L 181.410156 245.242188 C 181.410156 245.242188 181.421875 245.230469 181.425781 245.226562 C 181.207031 244.890625 180.921875 244.605469 180.589844 244.390625 C 180.585938 244.394531 180.578125 244.402344 180.574219 244.410156 L 179.933594 245.050781 C 179.871094 245.105469 179.839844 245.183594 179.839844 245.265625 Z M 179.839844 248.382812 C 179.839844 248.46875 179.875 248.546875 179.933594 248.605469 L 180.574219 249.246094 C 180.578125 249.253906 180.589844 249.257812 180.597656 249.261719 C 180.925781 249.046875 181.210938 248.761719 181.425781 248.429688 C 181.421875 248.421875 181.417969 248.414062 181.410156 248.410156 L 180.769531 247.769531 C 180.707031 247.707031 180.628906 247.675781 180.546875 247.675781 C 180.46875 247.675781 180.390625 247.707031 180.332031 247.769531 L 179.933594 248.167969 C 179.875 248.226562 179.839844 248.300781 179.839844 248.382812 Z M 178.394531 244.898438 C 178.394531 245.070312 178.539062 245.210938 178.707031 245.210938 L 179.269531 245.210938 C 179.441406 245.210938 179.574219 245.070312 179.574219 244.898438 L 179.574219 243.96875 C 179.386719 243.929688 179.1875 243.90625 178.988281 243.90625 C 178.785156 243.90625 178.589844 243.929688 178.398438 243.96875 C 178.394531 243.976562 178.394531 243.984375 178.394531 243.996094 Z M 178.394531 249.65625 C 178.394531 249.664062 178.394531 249.671875 178.402344 249.6875 C 178.589844 249.726562 178.789062 249.746094 178.988281 249.746094 C 179.191406 249.746094 179.386719 249.726562 179.578125 249.6875 L 179.578125 248.75 C 179.578125 248.582031 179.441406 248.441406 179.269531 248.441406 L 178.707031 248.441406 C 178.539062 248.441406 178.398438 248.582031 178.398438 248.75 L 178.398438 249.65625 Z M 178.136719 248.382812 C 178.136719 248.300781 178.101562 248.226562 178.042969 248.167969 L 177.644531 247.769531 C 177.589844 247.710938 177.507812 247.675781 177.425781 247.675781 C 177.347656 247.675781 177.269531 247.710938 177.210938 247.769531 L 176.570312 248.410156 C 176.558594 248.414062 176.558594 248.421875 176.546875 248.433594 C 176.765625 248.761719 177.050781 249.046875 177.382812 249.261719 C 177.390625 249.257812 177.398438 249.253906 177.402344 249.246094 L 178.042969 248.605469 C 178.101562 248.546875 178.136719 248.46875 178.136719 248.382812 Z M 176.550781 245.222656 C 176.550781 245.222656 176.5625 245.238281 176.570312 245.242188 L 177.210938 245.882812 C 177.328125 246 177.527344 246 177.644531 245.882812 L 178.042969 245.484375 C 178.101562 245.425781 178.132812 245.347656 178.132812 245.261719 C 178.132812 245.183594 178.101562 245.105469 178.042969 245.046875 L 177.402344 244.40625 C 177.398438 244.398438 177.390625 244.394531 177.386719 244.390625 C 177.050781 244.609375 176.765625 244.890625 176.550781 245.222656 Z M 162.691406 114.507812 C 165.066406 111.773438 166.171875 108.167969 166.90625 104.628906 C 168.316406 97.867188 168.621094 90.882812 167.828125 84.023438 C 167.398438 80.316406 166.871094 76.0625 165.058594 72.691406 C 164.785156 72.1875 164.484375 71.699219 164.148438 71.242188 C 163.925781 70.933594 163.6875 70.636719 163.433594 70.355469 C 163.308594 70.210938 163.175781 70.074219 163.039062 69.9375 C 162.230469 69.125 161.269531 68.429688 160.132812 67.894531 C 157.65625 66.726562 154.632812 66.65625 152.195312 67.910156 C 145.871094 71.167969 144.515625 79.785156 144.058594 86.144531 C 143.859375 88.894531 143.6875 91.847656 143.6875 94.839844 C 143.691406 100.445312 144.308594 106.1875 146.46875 110.953125 C 149.554688 117.75 157.25 120.78125 162.695312 114.507812 Z M 162.691406 114.507812 " fill-opacity="1" fill-rule="nonzero"/></g></svg>