<svg xmlns="http://www.w3.org/2000/svg" xmlns:xlink="http://www.w3.org/1999/xlink" width="500" zoomAndPan="magnify" viewBox="0 0 375 374.999991" height="500" preserveAspectRatio="xMidYMid meet" version="1.0"><defs><clipPath id="50b0921689"><path d="M 50.535156 8 L 324 8 L 324 367.511719 L 50.535156 367.511719 Z M 50.535156 8 " clip-rule="nonzero"/></clipPath></defs><rect x="-37.5" width="450" fill="#ffffff" y="-37.499999" height="449.999989" fill-opacity="1"/><rect x="-37.5" width="450" fill="#ffffff" y="-37.499999" height="449.999989" fill-opacity="1"/><path fill="#fffcf6" d="M 305.574219 178.015625 C 301.019531 177.484375 296.550781 176.539062 292.113281 175.378906 C 285.722656 173.710938 279.519531 171.546875 273.757812 168.28125 C 268.378906 165.234375 263.085938 162.023438 257.992188 158.519531 C 253.511719 155.433594 249.085938 152.265625 244.671875 149.085938 C 240.804688 146.292969 237.242188 143.144531 234.128906 139.519531 C 231.253906 136.175781 228.398438 132.808594 225.632812 129.371094 C 222.792969 125.847656 220.109375 122.195312 217.289062 118.65625 C 213.644531 114.078125 210.269531 109.308594 207.027344 104.441406 C 203.726562 99.484375 200.488281 94.480469 197.359375 89.40625 C 193.933594 83.847656 190.621094 78.214844 187.34375 72.566406 C 185.1875 68.851562 183.199219 65.035156 181.089844 61.292969 C 178.164062 56.101562 175.167969 50.949219 172.253906 45.75 C 169.894531 41.53125 167.160156 37.59375 164.003906 33.9375 C 157.390625 26.273438 149.644531 20.148438 140.253906 16.238281 C 134.734375 13.941406 129.121094 12.070312 123.019531 12.183594 C 119.011719 12.253906 115.007812 12.292969 111.046875 13.015625 C 106.8125 13.785156 102.707031 14.957031 98.738281 16.660156 C 84.335938 22.839844 70.203125 35.492188 63.164062 49.605469 C 60.65625 54.632812 58.496094 59.808594 57.234375 65.328125 C 56.234375 69.691406 55.449219 74.078125 55.085938 78.546875 C 54.734375 82.84375 54.828125 87.140625 54.753906 91.441406 C 54.75 91.671875 54.753906 92.855469 54.753906 92.855469 C 54.753906 92.855469 55.554688 92.09375 56.429688 91.800781 C 57.65625 91.394531 59.097656 91.128906 60.667969 91.796875 C 61.898438 92.320312 62.945312 93.105469 63.882812 94.046875 C 67.261719 97.441406 68.472656 102.558594 69.574219 107.066406 C 70.832031 112.203125 71.480469 117.488281 71.511719 122.777344 C 71.542969 128.4375 72.027344 137.253906 66.445312 140.605469 C 64.179688 141.964844 60.996094 141.613281 59.714844 141.167969 C 58.953125 140.902344 58.363281 140.5625 58.363281 140.5625 C 58.363281 140.5625 58.539062 141.929688 58.632812 142.542969 C 59.265625 146.738281 59.894531 150.929688 60.570312 155.117188 C 61.59375 161.453125 62.472656 167.8125 63.65625 174.121094 C 64.574219 179.019531 65.429688 183.933594 66.34375 188.832031 C 67.152344 193.167969 68.015625 197.496094 68.828125 201.832031 C 70.046875 208.367188 71.230469 214.90625 72.460938 221.4375 C 73.042969 224.535156 73.75 227.609375 74.300781 230.710938 C 75.292969 236.296875 76.179688 241.902344 77.175781 247.484375 C 78.332031 253.976562 79.179688 260.511719 80.113281 267.035156 C 80.804688 271.855469 81.34375 276.699219 81.894531 281.539062 C 82.035156 282.765625 82.609375 283.585938 83.6875 284.046875 C 84.472656 284.378906 85.289062 284.664062 86.117188 284.867188 C 88.796875 285.535156 91.546875 285.734375 94.285156 285.839844 C 100.886719 286.089844 107.441406 285.578125 113.953125 284.496094 C 116.5 284.074219 118.984375 283.417969 121.375 282.425781 C 122.726562 281.863281 123.898438 281.074219 124.667969 279.789062 C 125.371094 278.609375 125.210938 278.179688 123.941406 277.792969 C 123.613281 277.695312 123.273438 277.648438 122.9375 277.582031 C 121.199219 277.230469 119.457031 276.890625 117.71875 276.535156 C 114.136719 275.800781 111.519531 273.765625 110.101562 270.386719 C 109.210938 268.273438 108.40625 266.152344 107.664062 263.980469 C 106.296875 259.964844 105.222656 255.859375 104.085938 251.777344 C 101.640625 243.003906 99.027344 234.277344 96.785156 225.445312 C 94.507812 216.449219 92.046875 207.5 89.621094 198.539062 C 87.777344 191.734375 86.171875 184.875 84.675781 177.992188 C 84.542969 177.375 84.421875 176.753906 84.371094 176.128906 C 84.316406 175.492188 84.574219 175.058594 84.945312 175.03125 C 85.449219 174.988281 85.621094 175.378906 85.808594 175.730469 C 86.640625 177.308594 87.230469 178.984375 87.710938 180.695312 C 88.257812 182.625 88.75 184.570312 89.300781 186.496094 C 92.242188 196.738281 95.175781 206.984375 98.152344 217.214844 C 99.558594 222.058594 100.644531 226.984375 101.976562 231.847656 C 104.039062 239.359375 106.175781 246.851562 108.261719 254.359375 C 109.289062 258.0625 110.367188 261.742188 111.78125 265.316406 C 111.921875 265.671875 112.308594 266.46875 112.308594 266.46875 C 112.308594 266.46875 112.695312 266.1875 112.816406 266.078125 C 115.464844 263.675781 118.453125 261.777344 121.597656 260.101562 C 125.144531 258.214844 128.859375 256.71875 132.644531 255.40625 C 139.054688 253.183594 145.628906 251.820312 152.421875 251.398438 C 155.890625 251.179688 159.804688 252.40625 159.804688 252.40625 C 159.804688 252.40625 159.253906 251.289062 159.054688 250.90625 C 158.207031 249.28125 157.320312 247.675781 156.4375 246.066406 C 152.371094 238.625 148.320312 231.175781 144.230469 223.746094 C 140.667969 217.269531 137.128906 210.785156 133.984375 204.085938 C 129.058594 193.585938 125.058594 182.742188 121.882812 171.589844 C 121.726562 171.035156 121.582031 170.480469 121.5 169.914062 C 121.433594 169.464844 121.421875 168.996094 121.476562 168.546875 C 121.542969 167.96875 122.195312 167.753906 122.648438 168.105469 C 123.121094 168.472656 123.378906 168.988281 123.601562 169.515625 C 124.367188 171.304688 125.164062 173.082031 125.859375 174.902344 C 127.554688 179.34375 129.152344 183.824219 130.878906 188.253906 C 134.40625 197.285156 138.582031 206.023438 143.15625 214.5625 C 147.917969 223.449219 152.839844 232.253906 157.652344 241.117188 C 160.050781 245.546875 162.4375 249.984375 164.015625 254.8125 C 165.082031 258.070312 164.679688 261.015625 162.59375 263.730469 C 162.207031 264.230469 161.785156 264.699219 161.410156 265.207031 C 160.527344 266.398438 160.117188 267.746094 160.191406 269.234375 C 160.242188 270.28125 160.6875 271.109375 161.582031 271.664062 C 162.832031 272.4375 164.398438 272.699219 165.871094 272.539062 C 167.746094 272.328125 169.410156 272.207031 171.28125 271.953125 C 173.894531 271.601562 176.453125 270.96875 179.015625 270.375 C 183.535156 269.324219 187.992188 268.042969 192.222656 266.125 C 197.28125 263.828125 202.214844 261.300781 206.921875 258.316406 C 211.09375 255.671875 214.601562 252.359375 217.542969 248.414062 C 218.421875 247.234375 218.261719 246.363281 217.070312 245.550781 C 216.660156 245.273438 216.214844 245.242188 215.757812 245.25 C 214.152344 245.28125 212.550781 245.3125 210.949219 245.371094 C 209.460938 245.425781 207.972656 245.425781 206.488281 245.277344 C 203.375 244.964844 200.8125 243.625 198.835938 241.179688 C 197.714844 239.792969 196.683594 238.351562 195.789062 236.8125 C 192.308594 230.816406 188.746094 224.863281 185.375 218.804688 C 178.382812 206.242188 171.542969 193.585938 164.367188 181.121094 C 159.394531 172.480469 154.570312 163.75 149.175781 155.359375 C 148.835938 154.832031 148.554688 154.265625 148.273438 153.699219 C 148.125 153.394531 148 153.066406 147.921875 152.734375 C 147.828125 152.339844 147.789062 151.925781 148.210938 151.660156 C 148.617188 151.398438 149.015625 151.558594 149.324219 151.800781 C 149.863281 152.226562 150.394531 152.675781 150.839844 153.195312 C 151.921875 154.457031 152.992188 155.730469 153.984375 157.058594 C 156.359375 160.222656 158.492188 163.554688 160.507812 166.957031 C 163.984375 172.824219 167.421875 178.714844 170.886719 184.585938 C 177.730469 196.1875 184.136719 208.03125 190.691406 219.792969 C 192.980469 223.898438 195.292969 227.988281 197.382812 232.195312 C 198.121094 233.683594 200.28125 237.023438 200.28125 237.023438 C 200.28125 237.023438 200.359375 236.707031 200.40625 236.554688 C 201.144531 234.210938 202.476562 232.222656 204.0625 230.390625 C 204.777344 229.566406 205.472656 228.726562 206.226562 227.941406 C 209.480469 224.566406 213.144531 221.757812 217.511719 219.980469 C 219.894531 219.007812 222.339844 218.195312 224.855469 217.621094 C 226.191406 217.316406 227.503906 216.894531 228.8125 216.492188 C 230.847656 215.867188 232.917969 215.457031 235.050781 215.4375 C 235.3125 215.433594 236.285156 215.414062 236.285156 215.414062 C 236.285156 215.414062 234.453125 213.816406 233.714844 213.214844 C 228.191406 208.730469 223.003906 203.875 218.058594 198.769531 C 211.261719 191.753906 205.105469 184.226562 199.992188 175.871094 C 197.777344 172.246094 195.894531 168.449219 194.210938 164.554688 C 193.984375 164.03125 193.835938 163.472656 193.71875 162.917969 C 193.660156 162.640625 193.820312 162.359375 194.085938 162.191406 C 194.382812 162.003906 194.640625 162.136719 194.855469 162.339844 C 195.066406 162.53125 195.269531 162.742188 195.425781 162.976562 C 196.355469 164.351562 197.351562 165.691406 198.175781 167.128906 C 202.246094 174.207031 206.941406 180.84375 212.199219 187.070312 C 218.953125 195.0625 226.523438 202.21875 234.648438 208.796875 C 237.453125 211.066406 240.289062 213.300781 242.886719 215.816406 C 243.585938 216.496094 244.257812 217.199219 244.839844 217.984375 C 245.839844 219.339844 246.558594 220.84375 246.957031 222.464844 C 247.53125 224.804688 247.035156 227.023438 245.871094 229.089844 C 245.109375 230.441406 244.132812 231.644531 243.09375 232.796875 C 242.441406 233.523438 241.84375 234.292969 241.539062 235.246094 C 241.253906 236.128906 241.539062 236.726562 242.414062 236.945312 C 243.207031 237.140625 244.003906 237.046875 244.800781 236.894531 C 246.890625 236.496094 248.882812 235.800781 250.828125 234.945312 C 252.871094 234.046875 254.933594 233.199219 256.964844 232.28125 C 263.960938 229.128906 270.847656 225.773438 277.433594 221.816406 C 280.335938 220.070312 283.066406 218.082031 285.820312 216.128906 C 287.21875 215.140625 288.496094 213.976562 289.773438 212.828125 C 290.617188 212.070312 291.828125 210.007812 291.828125 210.007812 C 291.828125 210.007812 291.445312 209.910156 291.222656 209.855469 C 285.617188 208.503906 280.285156 206.5625 275.140625 204.003906 C 267.53125 200.222656 260.398438 195.660156 253.582031 190.601562 C 248.566406 186.882812 243.632812 183.054688 238.5625 179.414062 C 229.757812 173.085938 221.277344 166.371094 213.640625 158.640625 C 210.898438 155.871094 207.933594 153.332031 205.300781 150.453125 C 204.835938 149.949219 204.371094 149.4375 203.949219 148.898438 C 203.738281 148.636719 203.59375 148.3125 203.480469 147.996094 C 203.429688 147.863281 203.5 147.664062 203.570312 147.519531 C 203.664062 147.320312 203.875 147.367188 204.015625 147.4375 C 204.371094 147.617188 204.738281 147.792969 205.050781 148.03125 C 205.964844 148.726562 206.871094 149.425781 207.746094 150.164062 C 211.554688 153.382812 215.285156 156.683594 218.90625 160.117188 C 220.527344 161.652344 222.21875 163.113281 223.921875 164.558594 C 230.527344 170.167969 237.578125 175.167969 244.75 180.011719 C 247.214844 181.679688 249.660156 183.382812 252.046875 185.160156 C 256.503906 188.484375 261.117188 191.570312 265.757812 194.625 C 271.519531 198.417969 277.628906 201.53125 283.941406 204.257812 C 285.464844 204.917969 289.5 206.304688 289.5 206.304688 C 289.5 206.304688 289.34375 205.902344 289.320312 205.453125 C 288.898438 202.753906 290.078125 200.636719 291.40625 198.324219 C 291.917969 197.429688 292.460938 196.546875 293.066406 195.714844 C 294.179688 194.1875 295.300781 192.660156 296.503906 191.207031 C 300.332031 186.589844 304.589844 182.449219 309.863281 179.480469 C 310.011719 179.398438 311.320312 178.816406 311.320312 178.816406 C 311.320312 178.816406 307.105469 178.199219 305.574219 178.019531 Z M 105.730469 125.25 C 104.886719 130.601562 100.640625 137.074219 94.734375 137.316406 C 88.003906 137.59375 83.660156 129.484375 81.578125 124.0625 C 78.796875 116.816406 77.109375 108.757812 77.132812 101 C 77.144531 96.792969 77.542969 92.125 79.308594 88.257812 C 81.667969 83.074219 87.214844 80.738281 92.273438 83.746094 C 97.015625 86.558594 99.332031 91.804688 101.148438 96.773438 C 103.027344 101.910156 104.679688 107.171875 105.539062 112.585938 C 105.757812 113.960938 105.921875 115.34375 106.027344 116.734375 C 106.234375 119.574219 106.171875 122.433594 105.730469 125.25 Z M 105.730469 125.25 " fill-opacity="1" fill-rule="nonzero"/><path fill="#fffcf6" d="M 104.003906 351.683594 C 101.058594 351.683594 98.667969 354.070312 98.652344 357.015625 C 98.667969 359.964844 101.058594 362.347656 104.003906 362.347656 C 106.949219 362.347656 109.339844 359.964844 109.359375 357.015625 C 109.339844 354.070312 106.949219 351.683594 104.003906 351.683594 Z M 104.003906 359.804688 C 102.449219 359.804688 101.1875 358.542969 101.1875 356.984375 C 101.1875 355.425781 102.449219 354.164062 104.003906 354.164062 C 105.558594 354.164062 106.820312 355.429688 106.820312 356.984375 C 106.820312 358.542969 105.558594 359.804688 104.003906 359.804688 Z M 142.671875 351.683594 C 139.722656 351.683594 137.335938 354.070312 137.316406 357.015625 C 137.335938 359.964844 139.722656 362.347656 142.671875 362.347656 C 145.617188 362.347656 148.007812 359.964844 148.023438 357.015625 C 148.007812 354.070312 145.617188 351.683594 142.671875 351.683594 Z M 142.671875 359.804688 C 141.117188 359.804688 139.855469 358.542969 139.855469 356.984375 C 139.855469 355.425781 141.117188 354.164062 142.671875 354.164062 C 144.226562 354.164062 145.488281 355.429688 145.488281 356.984375 C 145.488281 358.542969 144.226562 359.804688 142.671875 359.804688 Z M 292.859375 312.929688 C 290.519531 311.144531 287.171875 311.585938 285.375 313.925781 C 283.578125 316.261719 284.003906 319.613281 286.324219 321.425781 C 288.667969 323.210938 292.011719 322.769531 293.808594 320.433594 C 295.609375 318.09375 295.179688 314.742188 292.859375 312.929688 Z M 289.589844 320 C 288.039062 320 286.777344 318.734375 286.777344 317.179688 C 286.777344 315.621094 288.039062 314.359375 289.589844 314.359375 C 291.144531 314.359375 292.410156 315.621094 292.410156 317.179688 C 292.410156 318.734375 291.148438 320 289.589844 320 Z M 316.453125 282.253906 C 314.113281 280.46875 310.769531 280.910156 308.972656 283.246094 C 307.171875 285.585938 307.601562 288.9375 309.921875 290.746094 C 312.261719 292.53125 315.609375 292.09375 317.40625 289.753906 C 319.203125 287.417969 318.777344 284.066406 316.453125 282.253906 Z M 313.1875 289.320312 C 311.632812 289.320312 310.371094 288.058594 310.371094 286.5 C 310.371094 284.941406 311.632812 283.679688 313.1875 283.679688 C 314.742188 283.679688 316.003906 284.941406 316.003906 286.5 C 316.003906 288.058594 314.742188 289.320312 313.1875 289.320312 Z M 313.1875 289.320312 " fill-opacity="1" fill-rule="nonzero"/><path fill="#eebeb2" d="M 159.144531 340.398438 C 159.851562 340.351562 160.773438 340.335938 160.773438 340.335938 C 160.773438 340.335938 160.746094 342.730469 160.703125 343.644531 C 160.675781 344.21875 160.371094 344.617188 159.804688 344.761719 C 159.03125 344.960938 158.257812 345.109375 157.449219 345.179688 C 145.71875 346.214844 109.148438 346.515625 95.515625 345.1875 C 91.609375 344.804688 87.625 343.648438 84.691406 341.234375 C 79.992188 337.375 81.003906 333.003906 81.003906 333.003906 C 81.003906 333.003906 83.769531 336.234375 91.835938 338.628906 C 95.839844 339.820312 101.308594 340.722656 105.46875 341.132812 C 110.546875 341.632812 115.65625 341.886719 120.753906 341.789062 C 123.898438 341.730469 127.050781 341.722656 130.195312 341.578125 C 134.199219 341.394531 138.203125 341.3125 142.210938 341.25 C 145.472656 341.203125 148.15625 340.960938 151.417969 340.875 C 154.109375 340.800781 156.457031 340.578125 159.148438 340.398438 Z M 139.808594 330.046875 C 138.714844 330.042969 137.636719 330.125 136.574219 330.375 C 135.414062 330.652344 134.46875 331.214844 133.808594 332.25 C 133.316406 333.023438 132.917969 333.839844 132.457031 334.636719 C 131.789062 335.789062 130.476562 338.324219 130.476562 338.324219 C 130.476562 338.324219 131.90625 338.328125 132.421875 338.316406 C 136.195312 338.234375 139.976562 338.28125 143.75 338.082031 C 145.179688 338.082031 160.636719 337.46875 160.636719 337.46875 L 160.777344 329.808594 C 160.777344 329.808594 144.902344 330.058594 139.808594 330.046875 Z M 160.296875 295.433594 C 156.242188 295.175781 152.1875 294.898438 148.132812 294.679688 C 144.535156 294.484375 141.480469 294.5 137.890625 294.207031 C 134.121094 293.902344 131.878906 293.808594 127.667969 293.667969 C 127.128906 293.652344 125.214844 293.671875 125.214844 293.671875 C 125.214844 293.671875 124.945312 296.609375 124.824219 297.75 C 124.441406 301.335938 124.167969 305.074219 123.632812 308.65625 C 122.988281 312.957031 121.414062 316.277344 121.414062 316.277344 C 121.414062 316.277344 121.824219 316.617188 122.0625 316.761719 C 123.6875 317.757812 125.078125 319.132812 126.214844 320.667969 C 126.75 321.394531 127.359375 322.144531 127.207031 323.085938 C 127.0625 323.972656 126.105469 324.402344 125.390625 323.875 C 125.125 323.675781 124.902344 323.398438 124.707031 323.125 C 123.367188 321.296875 121.890625 320.121094 120.109375 318.769531 C 119.78125 318.523438 119.507812 318.3125 119.507812 318.3125 C 119.507812 318.3125 117.542969 319.59375 115.820312 320.238281 C 114.863281 320.597656 113.238281 321.039062 113.238281 321.039062 C 113.238281 321.039062 114.03125 322.015625 114.390625 322.375 C 115.410156 323.394531 116.277344 324.527344 116.984375 325.78125 C 117.179688 326.128906 117.359375 326.496094 117.472656 326.875 C 117.609375 327.332031 117.292969 327.957031 116.878906 328.207031 C 116.460938 328.453125 115.816406 328.378906 115.453125 328.007812 C 115.257812 327.804688 115.089844 327.566406 114.9375 327.324219 C 113.941406 325.765625 110.402344 321.667969 110.402344 321.667969 C 110.402344 321.667969 108.25 322.085938 106.875 322.296875 C 105.019531 322.578125 103.808594 322.695312 101.617188 323.074219 C 102.3125 323.820312 102.945312 324.425781 103.410156 324.914062 C 104.242188 325.792969 104.960938 326.753906 105.515625 327.828125 C 105.78125 328.34375 105.96875 328.878906 105.921875 329.476562 C 105.886719 329.910156 105.714844 330.246094 105.3125 330.433594 C 104.898438 330.621094 104.5 330.511719 104.191406 330.242188 C 103.890625 329.984375 103.609375 329.675781 103.421875 329.335938 C 102.226562 327.171875 98.242188 323.25 98.242188 323.25 C 98.242188 323.25 97.136719 323.3125 96.148438 323.4375 C 94.449219 323.652344 93.96875 323.585938 92.265625 323.820312 C 91.402344 323.941406 90.382812 324.207031 90.382812 324.207031 C 90.382812 324.207031 91.59375 325.378906 91.878906 325.652344 C 92.878906 326.613281 93.675781 327.726562 94.414062 328.894531 C 94.691406 329.332031 94.925781 329.789062 94.898438 330.332031 C 94.878906 330.753906 94.773438 331.136719 94.386719 331.355469 C 93.941406 331.613281 93.476562 331.535156 93.109375 331.21875 C 92.765625 330.925781 92.480469 330.5625 92.191406 330.207031 C 90.824219 328.5 87.003906 325.144531 87.003906 325.144531 C 87.003906 325.144531 85.605469 325.554688 84.320312 326.691406 C 82.226562 328.546875 81.75 330.164062 81.75 330.164062 C 81.75 330.164062 83.828125 332.152344 85.8125 333.273438 C 88.058594 334.542969 92.480469 335.929688 95.03125 336.421875 C 99.691406 337.324219 101.675781 337.53125 106.394531 338.09375 C 112.789062 338.859375 118.839844 338.589844 125.246094 338.550781 C 125.828125 338.546875 126.5 338.449219 126.5 338.449219 C 126.5 338.449219 128.476562 335.191406 129.191406 333.820312 C 129.75 332.753906 130.355469 331.71875 131.035156 330.722656 C 132.625 328.382812 134.832031 327.183594 137.628906 326.914062 C 139.96875 326.683594 142.3125 326.667969 144.65625 326.640625 C 149.746094 326.582031 154.839844 326.539062 159.929688 326.488281 C 160.671875 326.480469 160.773438 326.46875 160.773438 326.46875 C 160.773438 326.46875 161.089844 321.480469 161.148438 319.417969 C 161.3125 313.691406 161.457031 307.964844 161.601562 302.234375 C 161.652344 300.230469 161.671875 298.222656 161.71875 296.21875 C 161.726562 295.796875 161.71875 295.546875 161.71875 295.546875 C 161.71875 295.546875 160.578125 295.445312 160.292969 295.429688 Z M 313.617188 264.03125 C 312.921875 263.441406 311.042969 261.957031 311.042969 261.957031 C 311.042969 261.957031 310.492188 262.699219 310.101562 263.285156 C 308.601562 265.53125 307.34375 267.53125 305.757812 269.710938 C 303.839844 272.351562 302.390625 274.628906 300.441406 277.246094 C 298.042969 280.460938 295.664062 283.691406 293.367188 286.980469 C 291.5625 289.5625 289.644531 292.066406 287.769531 294.601562 C 284.738281 298.703125 281.417969 302.601562 277.921875 306.324219 C 275.058594 309.375 271.007812 313.160156 267.625 315.613281 C 260.808594 320.550781 256.5625 320.777344 256.5625 320.777344 C 256.5625 320.777344 259.402344 324.242188 265.324219 322.871094 C 269.023438 322.015625 272.371094 319.5625 275.054688 316.695312 C 284.425781 306.6875 306.503906 277.488281 312.847656 267.550781 C 313.285156 266.867188 313.636719 266.160156 313.953125 265.425781 C 314.183594 264.886719 314.054688 264.402344 313.617188 264.03125 Z M 288.398438 275.082031 C 287.910156 276.167969 287.777344 277.261719 288.191406 278.414062 C 288.503906 279.28125 288.90625 280.097656 289.253906 280.945312 C 289.761719 282.179688 290.960938 284.769531 290.960938 284.769531 C 290.960938 284.769531 291.839844 283.632812 292.144531 283.21875 C 294.382812 280.171875 296.726562 277.203125 298.871094 274.089844 C 299.742188 272.953125 308.691406 260.3125 308.691406 260.3125 L 302.71875 255.53125 C 302.71875 255.53125 293.226562 268.277344 290.109375 272.3125 C 289.441406 273.179688 288.847656 274.082031 288.398438 275.082031 Z M 267.828125 311.730469 C 271.386719 308.582031 272.761719 307.132812 276.089844 303.734375 C 280.597656 299.125 284.074219 294.164062 287.953125 289.054688 C 288.304688 288.589844 288.636719 288 288.636719 288 C 288.636719 288 287.265625 284.441406 286.621094 283.035156 C 286.117188 281.945312 285.667969 280.832031 285.292969 279.683594 C 284.410156 276.996094 284.8125 274.511719 286.300781 272.128906 C 287.550781 270.132812 288.964844 268.261719 290.375 266.386719 C 293.4375 262.3125 296.511719 258.246094 299.578125 254.175781 C 300.027344 253.582031 300.074219 253.492188 300.074219 253.492188 C 300.074219 253.492188 296.324219 250.199219 294.730469 248.894531 C 290.300781 245.265625 285.859375 241.65625 281.417969 238.042969 C 279.863281 236.78125 278.289062 235.542969 276.730469 234.28125 C 276.402344 234.015625 276.195312 233.871094 276.195312 233.871094 C 276.195312 233.871094 275.421875 234.71875 275.234375 234.929688 C 272.554688 237.992188 269.863281 241.039062 267.214844 244.121094 C 264.867188 246.855469 263.011719 249.289062 260.589844 251.960938 C 258.050781 254.765625 256.605469 256.484375 253.925781 259.742188 C 253.582031 260.160156 252.433594 261.6875 252.433594 261.6875 C 252.433594 261.6875 254.589844 263.695312 255.417969 264.488281 C 258.019531 266.980469 260.8125 269.476562 263.316406 272.085938 C 266.328125 275.222656 267.992188 278.496094 267.992188 278.496094 C 267.992188 278.496094 268.507812 278.382812 268.769531 278.28125 C 270.550781 277.597656 272.488281 277.335938 274.390625 277.371094 C 275.292969 277.386719 276.257812 277.363281 276.914062 278.058594 C 277.527344 278.714844 277.28125 279.738281 276.429688 279.980469 C 276.105469 280.074219 275.753906 280.078125 275.417969 280.070312 C 273.152344 280.015625 271.320312 280.46875 269.164062 281.058594 C 268.769531 281.167969 268.4375 281.257812 268.4375 281.257812 C 268.4375 281.257812 268.25 283.59375 267.710938 285.359375 C 267.410156 286.335938 266.769531 287.894531 266.769531 287.894531 C 266.769531 287.894531 268.027344 287.863281 268.527344 287.792969 C 269.957031 287.605469 271.382812 287.609375 272.808594 287.8125 C 273.199219 287.871094 273.597656 287.953125 273.96875 288.09375 C 274.414062 288.265625 274.71875 288.894531 274.660156 289.378906 C 274.601562 289.859375 274.148438 290.328125 273.632812 290.386719 C 273.351562 290.421875 273.0625 290.40625 272.777344 290.382812 C 270.9375 290.21875 265.53125 290.53125 265.53125 290.53125 C 265.53125 290.53125 264.550781 292.492188 263.878906 293.710938 C 262.96875 295.355469 262.324219 296.390625 261.285156 298.355469 C 262.296875 298.257812 263.164062 298.128906 263.835938 298.058594 C 265.039062 297.933594 266.234375 297.953125 267.425781 298.167969 C 267.996094 298.273438 268.53125 298.449219 268.976562 298.851562 C 269.300781 299.144531 269.460938 299.484375 269.363281 299.921875 C 269.261719 300.363281 268.933594 300.609375 268.527344 300.691406 C 268.144531 300.773438 267.726562 300.808594 267.339844 300.75 C 264.902344 300.375 259.371094 301.144531 259.371094 301.144531 C 259.371094 301.144531 258.742188 302.058594 258.238281 302.917969 C 257.371094 304.398438 257.023438 304.738281 256.171875 306.230469 C 255.738281 306.992188 255.332031 307.960938 255.332031 307.960938 C 255.332031 307.960938 256.996094 307.71875 257.386719 307.660156 C 258.757812 307.453125 260.125 307.5 261.496094 307.625 C 262.015625 307.671875 262.515625 307.765625 262.929688 308.117188 C 263.253906 308.390625 263.492188 308.707031 263.429688 309.148438 C 263.355469 309.660156 263.011719 309.976562 262.539062 310.078125 C 262.097656 310.171875 261.632812 310.175781 261.179688 310.1875 C 258.992188 310.230469 254.011719 311.214844 254.011719 311.214844 C 254.011719 311.214844 253.480469 312.574219 253.597656 314.289062 C 253.785156 317.082031 254.773438 318.445312 254.773438 318.445312 C 254.773438 318.445312 257.613281 318.011719 259.714844 317.121094 C 262.085938 316.113281 265.882812 313.453125 267.828125 311.730469 Z M 267.828125 311.730469 " fill-opacity="1" fill-rule="nonzero"/><g clip-path="url(#50b0921689)"><path fill="#000000" d="M 290.800781 216.046875 C 292.144531 214.871094 293.40625 213.636719 294.285156 212.054688 C 294.449219 211.753906 295.054688 210.636719 295.054688 210.636719 C 295.054688 210.636719 296.574219 210.492188 296.851562 210.433594 C 298.652344 210.042969 300.480469 209.636719 301.871094 208.359375 C 303.8125 206.574219 305.625 204.660156 306.796875 202.234375 C 307.636719 200.503906 307.496094 200.054688 305.628906 199.550781 C 303.359375 198.933594 301.160156 198.136719 299.019531 197.171875 C 298.34375 196.867188 296.996094 196.269531 296.996094 196.269531 L 301.664062 190.554688 C 301.664062 190.554688 301.945312 190.648438 302.234375 190.753906 C 303.523438 191.226562 304.804688 191.730469 306.105469 192.152344 C 307.464844 192.59375 308.851562 192.949219 310.226562 193.335938 C 311.402344 193.667969 312.480469 193.390625 313.515625 192.800781 C 314.878906 192.023438 316.019531 190.996094 317.019531 189.796875 C 318.84375 187.617188 320.074219 185.101562 321.121094 182.484375 C 321.289062 182.0625 321.375 181.601562 321.429688 181.148438 C 321.664062 179.207031 320.90625 177.808594 319.164062 176.9375 C 318.28125 176.496094 317.324219 176.296875 316.363281 176.160156 C 308.121094 174.996094 299.875 173.910156 291.914062 171.75 C 278.882812 168.21875 266.625 160.644531 255.789062 152.742188 C 240.773438 141.792969 229.292969 128.183594 217.972656 113.527344 C 212.46875 106.394531 207.652344 98.796875 202.6875 91.292969 C 199.273438 86.125 196.203125 80.75 193.035156 75.4375 C 191.214844 72.386719 189.460938 69.296875 187.742188 66.1875 C 183.613281 58.710938 179.46875 51.25 175.226562 43.839844 C 171.726562 37.730469 167.46875 32.21875 162.59375 27.167969 C 158.226562 22.644531 153.3125 18.800781 147.746094 15.878906 C 133.296875 8.296875 116.910156 6.761719 101.410156 12.066406 C 89.476562 16.152344 78.800781 24.292969 70.214844 33.40625 C 57.820312 46.570312 51.480469 65.058594 50.96875 82.964844 C 50.867188 86.519531 50.871094 90.074219 50.710938 93.625 C 50.554688 97.175781 50.578125 100.734375 50.78125 104.289062 C 51.070312 109.324219 51.371094 114.359375 51.722656 119.394531 C 52 123.398438 52.371094 127.390625 52.921875 131.371094 C 53.460938 135.230469 53.929688 139.097656 54.457031 142.960938 C 54.847656 145.855469 55.253906 148.75 55.703125 151.636719 C 56.167969 154.636719 56.6875 157.628906 57.195312 160.625 C 58.027344 165.542969 58.8125 170.464844 59.722656 175.367188 C 61.238281 183.535156 62.835938 191.6875 64.398438 199.847656 C 65.410156 205.136719 66.40625 210.433594 67.425781 215.71875 C 68.445312 221.007812 69.566406 226.277344 70.511719 231.578125 C 72.058594 240.265625 73.527344 248.96875 74.984375 257.671875 C 76.191406 264.90625 77.324219 272.152344 78.511719 279.390625 C 78.816406 281.246094 78.992188 283.402344 80.257812 284.949219 C 81.722656 286.742188 84.261719 287.742188 86.453125 288.21875 C 89.199219 288.816406 91.992188 289.105469 94.792969 289.253906 C 99.203125 289.488281 103.605469 289.28125 108 288.871094 C 111.476562 288.546875 114.925781 288.042969 118.332031 287.238281 C 121.347656 286.53125 124.035156 285.214844 126.351562 283.148438 C 128.535156 281.199219 129.515625 278.878906 128.710938 275.921875 C 128.152344 273.871094 127.472656 271.867188 126.683594 269.898438 C 125.832031 267.769531 123.757812 262.460938 123.757812 262.460938 C 123.757812 262.460938 125.046875 261.910156 125.253906 261.8125 C 131.238281 259.011719 137.457031 256.910156 143.925781 255.570312 C 145.441406 255.257812 146.957031 254.957031 148.5 254.832031 C 148.96875 254.792969 149.207031 254.769531 149.207031 254.769531 C 149.207031 254.769531 152.222656 263.230469 153.710938 266.457031 C 154.359375 267.855469 155.128906 269.207031 155.921875 270.53125 C 156.777344 271.96875 157.839844 273.242188 159.125 274.324219 C 160.359375 275.359375 161.78125 275.882812 163.382812 275.914062 C 166.25 275.96875 169.097656 275.722656 171.9375 275.34375 C 185.523438 273.527344 198.367188 267.609375 209.839844 260.496094 C 213.269531 258.371094 216.363281 255.839844 219.0625 252.84375 C 220.421875 251.335938 221.429688 249.632812 221.859375 247.601562 C 222.160156 246.203125 221.875 244.992188 221.101562 243.851562 C 220.421875 242.847656 219.605469 241.96875 218.65625 241.210938 C 216.460938 239.457031 214.363281 237.597656 212.492188 235.492188 C 212.148438 235.109375 211.765625 234.761719 211.40625 234.390625 C 210.445312 233.40625 208.042969 230.941406 208.042969 230.941406 C 208.042969 230.941406 208.105469 230.855469 208.511719 230.429688 C 209.179688 229.722656 209.84375 229 210.585938 228.378906 C 211.777344 227.394531 213.019531 226.472656 214.257812 225.546875 C 216.582031 223.804688 219.261719 222.804688 221.972656 221.875 C 222.597656 221.660156 222.871094 221.5625 222.871094 221.5625 C 222.871094 221.5625 224.875 223.300781 225.527344 223.863281 C 228.964844 226.820312 232.214844 229.960938 234.890625 233.652344 C 235.699219 234.765625 236.484375 235.910156 237.421875 236.90625 C 239.664062 239.304688 242.378906 240.515625 245.734375 239.949219 C 248.574219 239.46875 251.292969 238.628906 253.890625 237.382812 C 266.773438 231.203125 279.925781 225.578125 290.808594 216.046875 Z M 244.800781 236.894531 C 244.007812 237.046875 243.210938 237.136719 242.417969 236.941406 C 241.539062 236.722656 241.257812 236.128906 241.542969 235.242188 C 241.847656 234.289062 242.445312 233.519531 243.097656 232.796875 C 244.136719 231.640625 245.113281 230.4375 245.875 229.085938 C 247.039062 227.019531 247.53125 224.800781 246.957031 222.464844 C 246.5625 220.84375 245.84375 219.335938 244.84375 217.980469 C 244.261719 217.195312 243.589844 216.492188 242.890625 215.8125 C 240.289062 213.296875 237.453125 211.066406 234.652344 208.792969 C 226.527344 202.214844 218.953125 195.0625 212.203125 187.066406 C 206.945312 180.839844 202.246094 174.203125 198.179688 167.128906 C 197.351562 165.6875 196.359375 164.347656 195.429688 162.972656 C 195.269531 162.738281 195.066406 162.53125 194.859375 162.335938 C 194.640625 162.136719 194.382812 162.003906 194.085938 162.1875 C 193.820312 162.355469 193.664062 162.636719 193.722656 162.914062 C 193.839844 163.46875 193.988281 164.03125 194.210938 164.550781 C 195.894531 168.449219 197.777344 172.242188 199.996094 175.867188 C 205.105469 184.222656 211.261719 191.75 218.058594 198.765625 C 223.007812 203.875 228.191406 208.730469 233.714844 213.210938 C 234.453125 213.8125 236.289062 215.410156 236.289062 215.410156 C 236.289062 215.410156 235.3125 215.429688 235.054688 215.433594 C 232.917969 215.457031 230.851562 215.863281 228.816406 216.488281 C 227.503906 216.890625 226.195312 217.3125 224.859375 217.621094 C 222.339844 218.191406 219.898438 219.003906 217.515625 219.976562 C 213.148438 221.757812 209.480469 224.566406 206.226562 227.941406 C 205.472656 228.722656 204.777344 229.5625 204.066406 230.386719 C 202.476562 232.21875 201.144531 234.210938 200.410156 236.550781 C 200.363281 236.707031 200.285156 237.019531 200.285156 237.019531 C 200.285156 237.019531 198.121094 233.683594 197.382812 232.195312 C 195.292969 227.984375 192.980469 223.894531 190.695312 219.792969 C 184.140625 208.03125 177.730469 196.183594 170.890625 184.585938 C 167.425781 178.710938 163.984375 172.824219 160.511719 166.957031 C 158.496094 163.554688 156.359375 160.222656 153.988281 157.054688 C 152.992188 155.726562 151.921875 154.453125 150.839844 153.191406 C 150.398438 152.675781 149.863281 152.222656 149.328125 151.800781 C 149.019531 151.558594 148.621094 151.398438 148.210938 151.660156 C 147.792969 151.925781 147.832031 152.339844 147.921875 152.730469 C 148 153.0625 148.125 153.394531 148.277344 153.699219 C 148.554688 154.261719 148.839844 154.828125 149.175781 155.359375 C 154.570312 163.75 159.394531 172.476562 164.367188 181.121094 C 171.542969 193.585938 178.382812 206.238281 185.378906 218.804688 C 188.75 224.863281 192.308594 230.8125 195.789062 236.808594 C 196.683594 238.351562 197.71875 239.789062 198.835938 241.175781 C 200.816406 243.625 203.375 244.964844 206.488281 245.273438 C 207.976562 245.421875 209.460938 245.425781 210.949219 245.371094 C 212.554688 245.308594 214.15625 245.28125 215.757812 245.25 C 216.214844 245.242188 216.664062 245.269531 217.070312 245.546875 C 218.261719 246.363281 218.421875 247.234375 217.542969 248.414062 C 214.601562 252.359375 211.097656 255.671875 206.921875 258.316406 C 202.21875 261.296875 197.28125 263.828125 192.226562 266.125 C 187.992188 268.042969 183.535156 269.324219 179.015625 270.371094 C 176.453125 270.96875 173.894531 271.597656 171.285156 271.953125 C 169.414062 272.203125 167.75 272.328125 165.871094 272.535156 C 164.402344 272.699219 162.832031 272.4375 161.582031 271.664062 C 160.691406 271.109375 160.246094 270.28125 160.195312 269.234375 C 160.121094 267.742188 160.527344 266.398438 161.414062 265.203125 C 161.789062 264.699219 162.210938 264.226562 162.59375 263.726562 C 164.683594 261.015625 165.085938 258.070312 164.019531 254.808594 C 162.441406 249.984375 160.054688 245.542969 157.652344 241.117188 C 152.84375 232.25 147.921875 223.449219 143.160156 214.5625 C 138.582031 206.023438 134.40625 197.285156 130.882812 188.25 C 129.15625 183.824219 127.558594 179.34375 125.859375 174.902344 C 125.164062 173.082031 124.371094 171.300781 123.605469 169.511719 C 123.382812 168.984375 123.125 168.472656 122.652344 168.105469 C 122.195312 167.75 121.542969 167.96875 121.476562 168.546875 C 121.425781 168.996094 121.4375 169.464844 121.5 169.910156 C 121.585938 170.476562 121.730469 171.035156 121.886719 171.585938 C 125.058594 182.742188 129.058594 193.582031 133.988281 204.085938 C 137.132812 210.78125 140.671875 217.269531 144.234375 223.746094 C 148.324219 231.175781 152.375 238.625 156.441406 246.066406 C 157.320312 247.675781 158.207031 249.277344 159.058594 250.902344 C 159.257812 251.289062 159.808594 252.40625 159.808594 252.40625 C 159.808594 252.40625 155.894531 251.179688 152.421875 251.394531 C 145.632812 251.820312 139.054688 253.183594 132.644531 255.40625 C 128.859375 256.71875 125.148438 258.214844 121.601562 260.101562 C 118.453125 261.773438 115.46875 263.675781 112.816406 266.074219 C 112.695312 266.183594 112.3125 266.46875 112.3125 266.46875 C 112.3125 266.46875 111.925781 265.667969 111.785156 265.316406 C 110.367188 261.742188 109.289062 258.058594 108.261719 254.359375 C 106.179688 246.851562 104.042969 239.359375 101.980469 231.84375 C 100.644531 226.984375 99.558594 222.058594 98.152344 217.214844 C 95.179688 206.980469 92.242188 196.738281 89.304688 186.496094 C 88.75 184.570312 88.257812 182.625 87.714844 180.695312 C 87.234375 178.980469 86.640625 177.308594 85.808594 175.730469 C 85.625 175.375 85.453125 174.988281 84.949219 175.027344 C 84.578125 175.058594 84.316406 175.488281 84.371094 176.128906 C 84.425781 176.753906 84.542969 177.375 84.675781 177.988281 C 86.175781 184.875 87.78125 191.734375 89.625 198.539062 C 92.050781 207.496094 94.507812 216.449219 96.789062 225.445312 C 99.027344 234.277344 101.644531 243 104.089844 251.777344 C 105.230469 255.859375 106.300781 259.960938 107.667969 263.976562 C 108.40625 266.148438 109.214844 268.273438 110.101562 270.386719 C 111.523438 273.765625 114.140625 275.796875 117.722656 276.535156 C 119.460938 276.890625 121.199219 277.230469 122.9375 277.582031 C 123.273438 277.648438 123.617188 277.695312 123.945312 277.792969 C 125.214844 278.179688 125.375 278.609375 124.671875 279.789062 C 123.902344 281.074219 122.730469 281.859375 121.378906 282.425781 C 118.988281 283.417969 116.503906 284.070312 113.957031 284.496094 C 107.445312 285.574219 100.890625 286.089844 94.289062 285.835938 C 91.546875 285.734375 88.800781 285.53125 86.121094 284.867188 C 85.292969 284.660156 84.472656 284.378906 83.6875 284.042969 C 82.613281 283.582031 82.039062 282.765625 81.898438 281.539062 C 81.347656 276.699219 80.808594 271.851562 80.117188 267.03125 C 79.179688 260.507812 78.332031 253.972656 77.175781 247.484375 C 76.183594 241.898438 75.296875 236.292969 74.304688 230.707031 C 73.75 227.605469 73.042969 224.53125 72.460938 221.4375 C 71.234375 214.902344 70.050781 208.363281 68.828125 201.828125 C 68.015625 197.492188 67.152344 193.164062 66.34375 188.828125 C 65.429688 183.929688 64.578125 179.019531 63.65625 174.117188 C 62.472656 167.808594 61.59375 161.449219 60.570312 155.113281 C 59.894531 150.925781 59.269531 146.734375 58.632812 142.542969 C 58.539062 141.925781 58.363281 140.558594 58.363281 140.558594 C 58.363281 140.558594 58.953125 140.902344 59.714844 141.167969 C 60.996094 141.613281 64.179688 141.960938 66.445312 140.601562 C 72.027344 137.25 71.542969 128.433594 71.511719 122.773438 C 71.484375 117.484375 70.835938 112.199219 69.574219 107.0625 C 68.472656 102.554688 67.261719 97.4375 63.882812 94.042969 C 62.949219 93.101562 61.902344 92.316406 60.667969 91.792969 C 59.101562 91.125 57.65625 91.394531 56.429688 91.800781 C 55.558594 92.089844 54.757812 92.851562 54.757812 92.851562 C 54.757812 92.851562 54.753906 91.667969 54.757812 91.4375 C 54.832031 87.140625 54.738281 82.839844 55.085938 78.546875 C 55.449219 74.074219 56.238281 69.6875 57.234375 65.324219 C 58.496094 59.808594 60.65625 54.632812 63.167969 49.601562 C 70.203125 35.492188 84.339844 22.835938 98.738281 16.65625 C 102.707031 14.953125 106.8125 13.785156 111.046875 13.011719 C 115.011719 12.289062 119.011719 12.25 123.019531 12.179688 C 129.121094 12.070312 134.734375 13.9375 140.253906 16.238281 C 149.644531 20.144531 157.390625 26.269531 164.003906 33.933594 C 167.160156 37.59375 169.894531 41.53125 172.257812 45.746094 C 175.167969 50.949219 178.167969 56.097656 181.09375 61.289062 C 183.203125 65.03125 185.191406 68.84375 187.347656 72.5625 C 190.625 78.210938 193.933594 83.84375 197.363281 89.40625 C 200.488281 94.476562 203.726562 99.480469 207.03125 104.441406 C 210.269531 109.304688 213.644531 114.078125 217.289062 118.652344 C 220.109375 122.195312 222.792969 125.84375 225.632812 129.367188 C 228.398438 132.804688 231.253906 136.171875 234.128906 139.519531 C 237.242188 143.144531 240.804688 146.289062 244.675781 149.082031 C 249.085938 152.261719 253.511719 155.429688 257.992188 158.511719 C 263.089844 162.019531 268.378906 165.230469 273.757812 168.277344 C 279.519531 171.542969 285.722656 173.703125 292.113281 175.375 C 296.550781 176.535156 301.019531 177.480469 305.574219 178.011719 C 307.109375 178.191406 311.320312 178.8125 311.320312 178.8125 C 311.320312 178.8125 310.015625 179.390625 309.863281 179.476562 C 304.589844 182.445312 300.335938 186.585938 296.507812 191.199219 C 295.304688 192.65625 294.183594 194.183594 293.070312 195.710938 C 292.464844 196.542969 291.921875 197.425781 291.410156 198.320312 C 290.082031 200.632812 288.898438 202.746094 289.320312 205.445312 C 289.347656 205.894531 289.5 206.300781 289.5 206.300781 C 289.5 206.300781 285.46875 204.910156 283.945312 204.253906 C 277.628906 201.527344 271.523438 198.410156 265.761719 194.621094 C 261.121094 191.5625 256.503906 188.480469 252.050781 185.15625 C 249.664062 183.375 247.21875 181.671875 244.75 180.003906 C 237.578125 175.164062 230.527344 170.160156 223.925781 164.554688 C 222.222656 163.109375 220.527344 161.648438 218.90625 160.109375 C 215.289062 156.679688 211.558594 153.375 207.75 150.160156 C 206.875 149.421875 205.96875 148.722656 205.054688 148.027344 C 204.742188 147.785156 204.375 147.609375 204.019531 147.429688 C 203.878906 147.359375 203.667969 147.3125 203.574219 147.511719 C 203.503906 147.65625 203.4375 147.855469 203.484375 147.988281 C 203.601562 148.304688 203.746094 148.628906 203.953125 148.890625 C 204.375 149.429688 204.839844 149.941406 205.304688 150.449219 C 207.9375 153.324219 210.90625 155.863281 213.644531 158.636719 C 221.28125 166.363281 229.761719 173.078125 238.566406 179.40625 C 243.636719 183.050781 248.570312 186.875 253.585938 190.59375 C 260.402344 195.652344 267.535156 200.210938 275.148438 204 C 280.289062 206.554688 285.625 208.496094 291.226562 209.851562 C 291.445312 209.902344 291.832031 210 291.832031 210 C 291.832031 210 290.625 212.0625 289.777344 212.820312 C 288.5 213.96875 287.21875 215.132812 285.824219 216.121094 C 283.070312 218.078125 280.339844 220.066406 277.4375 221.808594 C 270.851562 225.765625 263.964844 229.121094 256.96875 232.277344 C 254.9375 233.195312 252.871094 234.042969 250.832031 234.941406 C 248.886719 235.796875 246.894531 236.488281 244.804688 236.890625 Z M 106.027344 116.730469 C 106.234375 119.574219 106.171875 122.433594 105.730469 125.25 C 104.886719 130.601562 100.640625 137.074219 94.734375 137.316406 C 88.003906 137.59375 83.660156 129.484375 81.578125 124.0625 C 78.796875 116.816406 77.109375 108.757812 77.132812 101 C 77.144531 96.792969 77.542969 92.125 79.308594 88.257812 C 81.667969 83.074219 87.214844 80.738281 92.273438 83.746094 C 97.015625 86.558594 99.332031 91.804688 101.148438 96.773438 C 103.027344 101.914062 104.679688 107.171875 105.539062 112.585938 C 105.757812 113.960938 105.921875 115.34375 106.027344 116.734375 Z M 163.511719 292.5 C 162.457031 292.242188 160.863281 292.15625 159.773438 292.074219 C 157.261719 291.886719 155.09375 291.675781 152.582031 291.511719 C 149.78125 291.332031 146.980469 291.226562 144.179688 291.066406 C 138.695312 290.75 134.179688 290.410156 128.386719 290.257812 C 127.339844 290.230469 126 290.230469 125.144531 290.265625 C 122.996094 290.355469 122.808594 291.007812 122.625 292.40625 C 122.574219 292.804688 122.480469 293.195312 122.4375 293.597656 C 122.207031 295.703125 121.996094 297.816406 121.761719 299.921875 C 121.4375 302.882812 121.085938 305.84375 120.566406 308.777344 C 120.160156 311.078125 119.230469 313.144531 117.910156 315.054688 C 117.371094 315.832031 116.683594 316.390625 115.839844 316.800781 C 114.28125 317.554688 111.898438 318.375 110.191406 318.648438 C 106.328125 319.269531 103.21875 319.605469 99.339844 320.125 C 95.511719 320.636719 91.511719 320.714844 87.796875 321.820312 C 81.9375 323.566406 78.0625 328.308594 78.25 334.503906 C 78.34375 337.65625 79.632812 340.410156 81.902344 342.617188 C 84.03125 344.6875 86.652344 345.890625 89.429688 346.914062 C 91.222656 347.574219 94.816406 348.003906 98.226562 348.265625 C 95.410156 350.140625 93.554688 353.347656 93.554688 356.984375 C 93.554688 356.996094 93.554688 357.003906 93.554688 357.015625 C 93.554688 357.027344 93.554688 357.035156 93.554688 357.046875 C 93.554688 362.828125 98.234375 367.515625 104.003906 367.515625 C 109.777344 367.515625 114.457031 362.828125 114.457031 357.046875 C 114.457031 357.039062 114.457031 357.027344 114.457031 357.015625 C 114.457031 357.007812 114.457031 356.996094 114.457031 356.984375 C 114.457031 353.554688 112.808594 350.511719 110.261719 348.601562 C 115.914062 348.574219 124.203125 348.527344 126.402344 348.589844 C 127.457031 348.617188 131.648438 348.609375 136.433594 348.589844 C 133.875 350.496094 132.222656 353.546875 132.222656 356.984375 C 132.222656 356.996094 132.222656 357.003906 132.222656 357.015625 C 132.222656 357.027344 132.222656 357.035156 132.222656 357.046875 C 132.222656 362.828125 136.902344 367.515625 142.671875 367.515625 C 148.441406 367.515625 153.121094 362.828125 153.121094 357.046875 C 153.121094 357.039062 153.121094 357.027344 153.121094 357.015625 C 153.121094 357.007812 153.121094 356.996094 153.121094 356.984375 C 153.121094 353.496094 151.417969 350.40625 148.796875 348.507812 C 151.53125 348.484375 153.667969 348.4375 153.753906 348.429688 C 155.460938 348.265625 156.914062 348.136719 158.621094 347.992188 C 159.496094 347.921875 160.675781 347.902344 161.453125 347.519531 C 162.496094 347.007812 163.058594 346.246094 163.277344 345.097656 C 163.628906 343.238281 163.652344 341.082031 163.632812 339.164062 C 163.59375 335.84375 163.660156 332.515625 163.765625 329.191406 C 163.890625 325.125 164.113281 321.058594 164.28125 316.996094 C 164.578125 309.71875 164.496094 302.433594 164.628906 295.152344 C 164.632812 294.867188 164.644531 294.578125 164.617188 294.292969 C 164.53125 293.371094 164.414062 292.71875 163.515625 292.5 Z M 104.003906 362.347656 C 101.058594 362.347656 98.667969 359.960938 98.652344 357.015625 C 98.667969 354.070312 101.058594 351.683594 104.003906 351.683594 C 106.949219 351.683594 109.339844 354.070312 109.359375 357.015625 C 109.339844 359.964844 106.949219 362.347656 104.003906 362.347656 Z M 142.671875 362.347656 C 139.722656 362.347656 137.335938 359.960938 137.316406 357.015625 C 137.335938 354.070312 139.722656 351.683594 142.671875 351.683594 C 145.617188 351.683594 148.007812 354.070312 148.023438 357.015625 C 148.007812 359.964844 145.617188 362.347656 142.671875 362.347656 Z M 160.703125 343.648438 C 160.675781 344.21875 160.371094 344.617188 159.804688 344.761719 C 159.03125 344.960938 158.257812 345.109375 157.449219 345.183594 C 145.71875 346.214844 109.148438 346.515625 95.515625 345.1875 C 91.609375 344.808594 87.625 343.652344 84.691406 341.238281 C 79.992188 337.375 81.003906 333.007812 81.003906 333.007812 C 81.003906 333.007812 83.769531 336.238281 91.835938 338.632812 C 95.839844 339.820312 101.308594 340.722656 105.46875 341.132812 C 110.546875 341.636719 115.65625 341.886719 120.753906 341.792969 C 123.898438 341.730469 127.050781 341.726562 130.195312 341.582031 C 134.199219 341.394531 138.203125 341.3125 142.210938 341.253906 C 145.472656 341.203125 148.15625 340.964844 151.417969 340.875 C 154.105469 340.804688 156.457031 340.582031 159.148438 340.398438 C 159.851562 340.351562 160.773438 340.335938 160.773438 340.335938 C 160.773438 340.335938 160.746094 342.730469 160.703125 343.644531 Z M 160.636719 337.46875 C 160.636719 337.46875 145.179688 338.082031 143.75 338.082031 C 139.976562 338.28125 136.199219 338.234375 132.421875 338.320312 C 131.90625 338.332031 130.476562 338.324219 130.476562 338.324219 C 130.476562 338.324219 131.789062 335.792969 132.457031 334.640625 C 132.917969 333.84375 133.316406 333.023438 133.808594 332.25 C 134.46875 331.21875 135.414062 330.652344 136.574219 330.378906 C 137.636719 330.125 138.714844 330.042969 139.808594 330.046875 C 144.902344 330.058594 160.777344 329.808594 160.777344 329.808594 Z M 161.609375 302.238281 C 161.464844 307.96875 161.316406 313.695312 161.152344 319.425781 C 161.09375 321.484375 160.777344 326.472656 160.777344 326.472656 C 160.777344 326.472656 160.675781 326.484375 159.933594 326.496094 C 154.84375 326.546875 149.75 326.585938 144.660156 326.644531 C 142.316406 326.671875 139.96875 326.691406 137.628906 326.917969 C 134.835938 327.191406 132.625 328.386719 131.035156 330.726562 C 130.359375 331.722656 129.753906 332.757812 129.195312 333.828125 C 128.476562 335.199219 126.503906 338.457031 126.503906 338.457031 C 126.503906 338.457031 125.828125 338.554688 125.25 338.554688 C 118.84375 338.597656 112.792969 338.867188 106.398438 338.101562 C 101.679688 337.539062 99.691406 337.332031 95.035156 336.429688 C 92.484375 335.933594 88.0625 334.546875 85.816406 333.28125 C 83.832031 332.160156 81.753906 330.167969 81.753906 330.167969 C 81.753906 330.167969 82.230469 328.550781 84.324219 326.699219 C 85.609375 325.5625 87.007812 325.152344 87.007812 325.152344 C 87.007812 325.152344 90.828125 328.503906 92.199219 330.210938 C 92.484375 330.566406 92.769531 330.933594 93.113281 331.226562 C 93.480469 331.539062 93.945312 331.617188 94.394531 331.363281 C 94.777344 331.144531 94.886719 330.761719 94.902344 330.339844 C 94.929688 329.792969 94.695312 329.339844 94.417969 328.902344 C 93.679688 327.738281 92.878906 326.621094 91.882812 325.660156 C 91.59375 325.386719 90.386719 324.214844 90.386719 324.214844 C 90.386719 324.214844 91.402344 323.945312 92.269531 323.828125 C 93.96875 323.589844 94.449219 323.65625 96.152344 323.441406 C 97.136719 323.316406 98.242188 323.257812 98.242188 323.257812 C 98.242188 323.257812 102.230469 327.175781 103.421875 329.339844 C 103.609375 329.683594 103.894531 329.992188 104.191406 330.25 C 104.503906 330.519531 104.898438 330.628906 105.3125 330.4375 C 105.714844 330.25 105.890625 329.917969 105.921875 329.480469 C 105.96875 328.882812 105.785156 328.351562 105.515625 327.835938 C 104.960938 326.757812 104.246094 325.796875 103.414062 324.921875 C 102.945312 324.429688 102.316406 323.824219 101.621094 323.078125 C 103.808594 322.703125 105.019531 322.582031 106.878906 322.300781 C 108.25 322.089844 110.402344 321.671875 110.402344 321.671875 C 110.402344 321.671875 113.945312 325.773438 114.941406 327.332031 C 115.09375 327.570312 115.257812 327.808594 115.457031 328.011719 C 115.820312 328.382812 116.460938 328.460938 116.878906 328.210938 C 117.296875 327.964844 117.609375 327.335938 117.472656 326.878906 C 117.359375 326.5 117.179688 326.132812 116.984375 325.789062 C 116.28125 324.53125 115.414062 323.398438 114.390625 322.382812 C 114.03125 322.023438 113.238281 321.042969 113.238281 321.042969 C 113.238281 321.042969 114.863281 320.601562 115.820312 320.246094 C 117.546875 319.597656 119.507812 318.320312 119.507812 318.320312 C 119.507812 318.320312 119.78125 318.527344 120.109375 318.773438 C 121.890625 320.125 123.367188 321.300781 124.707031 323.132812 C 124.90625 323.40625 125.125 323.683594 125.394531 323.882812 C 126.105469 324.40625 127.066406 323.976562 127.210938 323.089844 C 127.359375 322.148438 126.75 321.398438 126.214844 320.671875 C 125.082031 319.136719 123.691406 317.765625 122.066406 316.769531 C 121.824219 316.621094 121.417969 316.28125 121.417969 316.28125 C 121.417969 316.28125 122.992188 312.960938 123.636719 308.660156 C 124.171875 305.078125 124.445312 301.339844 124.828125 297.753906 C 124.949219 296.613281 125.21875 293.675781 125.21875 293.675781 C 125.21875 293.675781 127.132812 293.660156 127.667969 293.675781 C 131.882812 293.8125 134.125 293.90625 137.894531 294.214844 C 141.484375 294.507812 144.539062 294.488281 148.136719 294.683594 C 152.191406 294.90625 156.242188 295.183594 160.296875 295.4375 C 160.582031 295.457031 161.722656 295.554688 161.722656 295.554688 C 161.722656 295.554688 161.734375 295.804688 161.722656 296.230469 C 161.679688 298.234375 161.660156 300.238281 161.609375 302.242188 Z M 106.820312 356.984375 C 106.820312 358.542969 105.558594 359.808594 104.003906 359.808594 C 102.449219 359.808594 101.1875 358.542969 101.1875 356.984375 C 101.1875 355.429688 102.449219 354.167969 104.003906 354.167969 C 105.558594 354.167969 106.820312 355.429688 106.820312 356.984375 Z M 145.488281 356.984375 C 145.488281 358.542969 144.226562 359.808594 142.671875 359.808594 C 141.113281 359.808594 139.855469 358.542969 139.855469 356.984375 C 139.855469 355.429688 141.117188 354.167969 142.671875 354.167969 C 144.226562 354.167969 145.488281 355.429688 145.488281 356.984375 Z M 292.410156 317.179688 C 292.410156 318.734375 291.148438 320 289.589844 320 C 288.035156 320 286.777344 318.734375 286.777344 317.179688 C 286.777344 315.621094 288.039062 314.359375 289.589844 314.359375 C 291.144531 314.359375 292.410156 315.621094 292.410156 317.179688 Z M 316.003906 286.5 C 316.003906 288.054688 314.746094 289.320312 313.1875 289.320312 C 311.632812 289.320312 310.375 288.054688 310.375 286.5 C 310.375 284.941406 311.632812 283.679688 313.1875 283.679688 C 314.742188 283.679688 316.003906 284.941406 316.003906 286.5 Z M 274.878906 230.589844 C 274.03125 231.269531 272.992188 232.480469 272.261719 233.296875 C 270.582031 235.175781 269.085938 236.769531 267.425781 238.664062 C 265.578125 240.773438 263.78125 242.933594 261.949219 245.054688 C 258.347656 249.214844 255.324219 252.589844 251.667969 257.09375 C 251.007812 257.90625 250.191406 258.972656 249.695312 259.667969 C 248.457031 261.429688 248.859375 261.972656 249.855469 262.972656 C 250.136719 263.257812 250.386719 263.570312 250.675781 263.847656 C 252.207031 265.316406 253.746094 266.773438 255.269531 268.242188 C 257.414062 270.308594 259.539062 272.394531 261.546875 274.597656 C 263.113281 276.324219 264.179688 278.320312 264.886719 280.535156 C 265.175781 281.4375 265.199219 282.324219 265.007812 283.246094 C 264.652344 284.941406 263.84375 287.332031 263.023438 288.851562 C 261.152344 292.296875 259.523438 294.96875 257.566406 298.367188 C 255.636719 301.714844 253.253906 304.933594 251.863281 308.558594 C 249.667969 314.273438 251.054688 320.238281 256.066406 323.871094 C 258.621094 325.722656 261.585938 326.378906 264.714844 325.925781 C 267.648438 325.5 270.203125 324.15625 272.710938 322.574219 C 274.328125 321.554688 276.855469 318.96875 279.144531 316.421875 C 278.910156 319.800781 280.3125 323.230469 283.191406 325.449219 C 283.199219 325.457031 283.207031 325.460938 283.214844 325.46875 C 283.222656 325.472656 283.230469 325.480469 283.238281 325.488281 C 287.8125 329.015625 294.375 328.160156 297.894531 323.582031 C 301.417969 319 300.566406 312.429688 295.992188 308.902344 C 295.984375 308.898438 295.976562 308.890625 295.96875 308.882812 C 295.960938 308.878906 295.957031 308.871094 295.945312 308.867188 C 293.234375 306.773438 289.820312 306.222656 286.757812 307.078125 C 290.183594 302.578125 295.203125 295.972656 296.597656 294.265625 C 297.261719 293.445312 299.816406 290.113281 302.714844 286.304688 C 302.667969 289.496094 304.070312 292.675781 306.789062 294.769531 C 306.796875 294.777344 306.804688 294.785156 306.8125 294.789062 C 306.820312 294.792969 306.828125 294.800781 306.835938 294.808594 C 311.40625 298.335938 317.96875 297.480469 321.492188 292.902344 C 325.015625 288.324219 324.164062 281.75 319.589844 278.222656 C 319.582031 278.21875 319.574219 278.210938 319.566406 278.207031 C 319.558594 278.199219 319.550781 278.191406 319.542969 278.1875 C 316.785156 276.058594 313.300781 275.523438 310.195312 276.441406 C 311.847656 274.261719 313.117188 272.539062 313.160156 272.464844 C 314.070312 271.007812 314.855469 269.78125 315.789062 268.335938 C 316.261719 267.601562 316.96875 266.648438 317.140625 265.800781 C 317.371094 264.660156 317.117188 263.75 316.335938 262.875 C 315.078125 261.464844 313.390625 260.125 311.863281 258.976562 C 309.207031 256.976562 306.617188 254.894531 304.050781 252.785156 C 300.914062 250.203125 297.832031 247.546875 294.71875 244.933594 C 289.148438 240.25 283.335938 235.875 277.65625 231.328125 C 277.433594 231.148438 277.210938 230.964844 276.972656 230.808594 C 276.1875 230.316406 275.601562 230.011719 274.878906 230.589844 Z M 293.808594 320.433594 C 292.011719 322.769531 288.667969 323.210938 286.324219 321.425781 C 284.003906 319.613281 283.578125 316.261719 285.375 313.925781 C 287.171875 311.589844 290.519531 311.144531 292.859375 312.929688 C 295.179688 314.742188 295.609375 318.09375 293.808594 320.433594 Z M 317.40625 289.753906 C 315.609375 292.089844 312.265625 292.53125 309.921875 290.746094 C 307.601562 288.933594 307.175781 285.582031 308.972656 283.246094 C 310.769531 280.90625 314.117188 280.464844 316.457031 282.25 C 318.777344 284.0625 319.203125 287.414062 317.40625 289.753906 Z M 313.621094 264.035156 C 314.054688 264.40625 314.1875 264.890625 313.957031 265.425781 C 313.640625 266.164062 313.285156 266.867188 312.847656 267.554688 C 306.507812 277.492188 284.429688 306.691406 275.058594 316.695312 C 272.371094 319.5625 269.027344 322.019531 265.328125 322.875 C 259.40625 324.246094 256.566406 320.777344 256.566406 320.777344 C 256.566406 320.777344 260.8125 320.554688 267.625 315.613281 C 271.011719 313.160156 275.0625 309.375 277.925781 306.324219 C 281.421875 302.601562 284.738281 298.703125 287.773438 294.601562 C 289.648438 292.066406 291.566406 289.5625 293.371094 286.980469 C 295.667969 283.691406 298.046875 280.464844 300.441406 277.246094 C 302.394531 274.628906 303.84375 272.351562 305.761719 269.710938 C 307.347656 267.53125 308.605469 265.53125 310.101562 263.289062 C 310.496094 262.699219 311.046875 261.957031 311.046875 261.957031 C 311.046875 261.957031 312.925781 263.441406 313.621094 264.035156 Z M 308.691406 260.3125 C 308.691406 260.3125 299.746094 272.953125 298.871094 274.089844 C 296.726562 277.203125 294.386719 280.175781 292.148438 283.21875 C 291.839844 283.632812 290.960938 284.769531 290.960938 284.769531 C 290.960938 284.769531 289.761719 282.179688 289.257812 280.945312 C 288.90625 280.097656 288.503906 279.28125 288.195312 278.414062 C 287.78125 277.261719 287.910156 276.167969 288.398438 275.082031 C 288.847656 274.082031 289.441406 273.175781 290.109375 272.3125 C 293.226562 268.277344 302.71875 255.53125 302.71875 255.53125 Z M 281.417969 238.046875 C 285.863281 241.65625 290.304688 245.269531 294.734375 248.894531 C 296.328125 250.199219 300.078125 253.492188 300.078125 253.492188 C 300.078125 253.492188 300.027344 253.582031 299.582031 254.175781 C 296.515625 258.246094 293.441406 262.3125 290.378906 266.386719 C 288.96875 268.265625 287.550781 270.132812 286.304688 272.128906 C 284.816406 274.515625 284.414062 276.996094 285.292969 279.6875 C 285.667969 280.832031 286.117188 281.945312 286.621094 283.039062 C 287.269531 284.441406 288.640625 288 288.640625 288 C 288.640625 288 288.304688 288.589844 287.953125 289.054688 C 284.078125 294.164062 280.597656 299.125 276.089844 303.734375 C 272.765625 307.132812 271.390625 308.585938 267.832031 311.730469 C 265.886719 313.453125 262.089844 316.113281 259.71875 317.121094 C 257.621094 318.015625 254.777344 318.445312 254.777344 318.445312 C 254.777344 318.445312 253.785156 317.082031 253.597656 314.289062 C 253.484375 312.578125 254.011719 311.214844 254.011719 311.214844 C 254.011719 311.214844 258.996094 310.230469 261.179688 310.1875 C 261.636719 310.175781 262.101562 310.171875 262.542969 310.078125 C 263.015625 309.976562 263.359375 309.65625 263.433594 309.148438 C 263.496094 308.710938 263.253906 308.390625 262.933594 308.117188 C 262.519531 307.761719 262.015625 307.671875 261.5 307.625 C 260.128906 307.5 258.757812 307.453125 257.390625 307.660156 C 256.996094 307.71875 255.335938 307.960938 255.335938 307.960938 C 255.335938 307.960938 255.742188 306.992188 256.175781 306.230469 C 257.027344 304.738281 257.375 304.398438 258.242188 302.917969 C 258.746094 302.058594 259.371094 301.144531 259.371094 301.144531 C 259.371094 301.144531 264.90625 300.375 267.34375 300.75 C 267.730469 300.808594 268.148438 300.773438 268.53125 300.691406 C 268.933594 300.609375 269.261719 300.363281 269.363281 299.921875 C 269.464844 299.484375 269.304688 299.144531 268.980469 298.851562 C 268.535156 298.449219 268 298.273438 267.429688 298.167969 C 266.242188 297.953125 265.042969 297.9375 263.839844 298.058594 C 263.167969 298.128906 262.300781 298.261719 261.289062 298.359375 C 262.328125 296.390625 262.976562 295.355469 263.882812 293.710938 C 264.554688 292.492188 265.535156 290.53125 265.535156 290.53125 C 265.535156 290.53125 270.941406 290.222656 272.785156 290.382812 C 273.066406 290.410156 273.355469 290.421875 273.636719 290.390625 C 274.152344 290.328125 274.605469 289.863281 274.664062 289.378906 C 274.722656 288.898438 274.417969 288.269531 273.972656 288.097656 C 273.601562 287.953125 273.203125 287.871094 272.8125 287.816406 C 271.386719 287.609375 269.960938 287.605469 268.53125 287.796875 C 268.03125 287.863281 266.773438 287.894531 266.773438 287.894531 C 266.773438 287.894531 267.414062 286.335938 267.714844 285.359375 C 268.253906 283.59375 268.441406 281.257812 268.441406 281.257812 C 268.441406 281.257812 268.773438 281.167969 269.167969 281.058594 C 271.324219 280.46875 273.15625 280.015625 275.421875 280.070312 C 275.757812 280.078125 276.113281 280.074219 276.433594 279.984375 C 277.285156 279.738281 277.53125 278.714844 276.917969 278.058594 C 276.261719 277.363281 275.296875 277.390625 274.394531 277.371094 C 272.492188 277.335938 270.554688 277.601562 268.773438 278.28125 C 268.511719 278.382812 267.996094 278.5 267.996094 278.5 C 267.996094 278.5 266.332031 275.226562 263.320312 272.089844 C 260.816406 269.476562 258.023438 266.980469 255.421875 264.488281 C 254.59375 263.695312 252.4375 261.691406 252.4375 261.691406 C 252.4375 261.691406 253.585938 260.160156 253.929688 259.746094 C 256.609375 256.488281 258.050781 254.765625 260.597656 251.960938 C 263.019531 249.292969 264.871094 246.859375 267.21875 244.121094 C 269.871094 241.039062 272.5625 237.992188 275.238281 234.933594 C 275.425781 234.71875 276.199219 233.875 276.199219 233.875 C 276.199219 233.875 276.40625 234.019531 276.734375 234.285156 C 278.289062 235.542969 279.867188 236.78125 281.421875 238.046875 Z M 281.417969 238.046875 " fill-opacity="1" fill-rule="nonzero"/></g></svg>