<svg xmlns="http://www.w3.org/2000/svg" xmlns:xlink="http://www.w3.org/1999/xlink" width="500" zoomAndPan="magnify" viewBox="0 0 375 374.999991" height="500" preserveAspectRatio="xMidYMid meet" version="1.0"><defs><clipPath id="f56c9ae6ab"><path d="M 55.386719 8.835938 L 316.386719 8.835938 L 316.386719 370.335938 L 55.386719 370.335938 Z M 55.386719 8.835938 " clip-rule="nonzero"/></clipPath></defs><rect x="-37.5" width="450" fill="#ffffff" y="-37.499999" height="449.999989" fill-opacity="1"/><rect x="-37.5" width="450" fill="#ffffff" y="-37.499999" height="449.999989" fill-opacity="1"/><path fill="#fffcf6" d="M 310.773438 236.886719 C 309.632812 234.824219 308.484375 232.765625 307.355469 230.699219 C 304.414062 225.324219 301.511719 219.933594 299.007812 214.335938 C 297.230469 210.359375 295.457031 206.375 293.691406 202.390625 C 292.1875 199 290.738281 195.582031 289.59375 192.050781 C 288.304688 188.074219 287.101562 184.070312 285.902344 180.066406 C 284.160156 174.257812 282.632812 168.386719 280.785156 162.609375 C 279.921875 159.910156 279.257812 157.15625 278.730469 154.371094 C 278.367188 152.445312 277.957031 150.53125 277.519531 148.621094 C 274.234375 134.324219 271.6875 119.863281 269.8125 105.316406 C 268.046875 91.648438 267.3125 77.925781 263.902344 64.519531 C 261.835938 56.410156 258.871094 48.527344 254.691406 41.265625 C 253.789062 39.699219 252.847656 38.152344 251.871094 36.628906 C 249.515625 32.953125 247.039062 29.375 243.988281 26.226562 C 240.941406 23.085938 237.65625 20.234375 233.933594 17.917969 C 228.007812 14.230469 221.445312 12.511719 214.574219 11.84375 C 210.992188 11.496094 207.410156 11.519531 203.8125 11.773438 C 197.878906 12.195312 192.195312 13.546875 186.761719 15.953125 C 179.203125 19.296875 172.460938 23.863281 166.414062 29.484375 C 162.335938 33.265625 158.652344 37.371094 155.707031 42.121094 C 154.554688 43.980469 153.667969 45.96875 152.628906 47.882812 C 150.121094 52.507812 148.210938 57.378906 146.570312 62.367188 C 145.339844 66.121094 144.515625 69.980469 143.625 73.824219 C 142.0625 80.542969 141.089844 86.292969 140.339844 93.148438 C 140.035156 95.902344 138.710938 106.101562 138.613281 111.34375 C 138.5625 113.992188 138.660156 119.183594 138.882812 121.933594 C 139.488281 121.863281 140.003906 121.828125 140.507812 121.734375 C 142.472656 121.371094 144.414062 121.570312 146.25 122.257812 C 149.828125 123.597656 152.625 125.777344 153.5 129.773438 C 153.621094 130.332031 153.742188 130.449219 154.359375 130.371094 C 156.484375 130.109375 158.121094 131.054688 159.578125 132.445312 C 160.898438 133.707031 161.6875 135.296875 162.050781 137.050781 C 162.773438 140.558594 161.894531 143.519531 158.917969 145.667969 C 158.4375 146.011719 157.921875 146.308594 157.386719 146.570312 C 156.453125 147.027344 155.492188 147.421875 154.464844 147.621094 C 154.121094 147.6875 153.964844 147.914062 153.996094 148.246094 C 154.175781 150.300781 154.277344 152.367188 154.574219 154.402344 C 155.21875 158.808594 155.203125 163.273438 155.132812 167.714844 C 155.070312 171.769531 155.589844 175.898438 154.402344 179.824219 C 154.234375 180.382812 153.84375 181.3125 153.511719 181.789062 C 152.75 182.882812 151.847656 183.597656 150.71875 183.640625 C 149.953125 183.671875 149.613281 183.550781 149.613281 183.550781 C 149.597656 183.84375 149.59375 185.089844 149.589844 185.382812 C 149.566406 187.386719 149.546875 189.390625 149.523438 191.394531 C 149.472656 195.878906 148.925781 200.328125 148.617188 204.792969 C 148.566406 205.5 148.441406 206.195312 148.351562 206.898438 C 148.242188 207.773438 147.851562 208.414062 147.023438 208.839844 C 142.71875 211.074219 137.035156 211.382812 132.265625 211.699219 C 126.609375 212.070312 120.910156 211.789062 115.300781 210.988281 C 109.640625 210.179688 104.328125 208.390625 99.222656 205.902344 C 98.644531 205.621094 98.113281 205.238281 97.597656 204.847656 C 97.160156 204.523438 96.875 204.066406 96.859375 203.496094 C 96.804688 201.671875 96.855469 200.0625 96.796875 198.058594 C 96.746094 196.296875 96.722656 192.003906 96.722656 192.003906 C 96.722656 192.003906 96.332031 192.074219 95.65625 192.140625 C 94.71875 192.230469 94.089844 192.226562 93.160156 192.148438 C 90.265625 191.90625 88.050781 190.410156 86.25 188.210938 C 86.03125 187.941406 85.988281 187.90625 85.6875 187.515625 C 85.300781 188.074219 84.820312 188.730469 84.410156 189.296875 C 84.164062 189.636719 83.871094 189.9375 83.382812 189.789062 C 83 189.667969 82.863281 189.160156 83.140625 188.558594 C 83.628906 187.488281 84.109375 186.414062 84.816406 185.457031 C 86.445312 183.253906 88.421875 181.417969 90.675781 179.878906 C 91.898438 179.046875 93.023438 178.105469 94.089844 177.085938 C 94.738281 176.46875 95.261719 175.761719 95.667969 174.96875 C 97.496094 171.382812 97.707031 167.65625 96.691406 163.800781 C 95.964844 161.019531 93.585938 159.320312 90.128906 159.902344 C 86.507812 160.515625 83.355469 162.199219 80.730469 164.824219 C 74.703125 170.851562 71.152344 178.160156 69.621094 186.484375 C 68.800781 190.953125 68.527344 195.480469 68.496094 200.027344 C 68.449219 206.628906 68.765625 213.222656 68.871094 219.820312 C 68.960938 225.296875 69.203125 230.777344 68.578125 236.246094 C 68.21875 239.414062 67.753906 242.550781 66.875 245.617188 C 65.457031 250.542969 63.878906 255.414062 62.148438 260.238281 C 61.191406 262.902344 60.40625 265.613281 59.773438 268.371094 C 58.902344 272.167969 58.195312 275.996094 58.402344 279.914062 C 58.523438 282.152344 58.753906 284.378906 58.941406 286.609375 C 59.222656 289.988281 60.207031 293.191406 61.449219 296.320312 C 61.773438 297.136719 62.035156 297.753906 62.488281 298.511719 C 62.605469 298.707031 63.445312 299.859375 63.445312 299.859375 C 63.347656 299.507812 63.164062 298.429688 63.074219 298.097656 C 62.359375 295.460938 62.050781 292.777344 62.25 290.050781 C 62.414062 287.847656 63.023438 285.777344 64.179688 283.871094 C 65.09375 282.367188 66.410156 281.410156 68.105469 281.113281 C 71.058594 280.589844 73.820312 280.914062 76.195312 283.054688 C 78.785156 285.390625 81.046875 288.027344 83.339844 290.632812 C 85.558594 293.15625 87.777344 295.675781 89.992188 298.195312 C 90.5 298.777344 91.078125 299.265625 91.773438 299.621094 C 92.734375 300.113281 93.652344 300.125 94.632812 299.605469 C 96.472656 298.636719 97.851562 297.242188 98.738281 295.371094 C 100.757812 291.128906 102.011719 286.660156 102.472656 281.996094 C 102.808594 278.589844 102.667969 275.160156 102.386719 271.753906 C 102.085938 268.054688 101.667969 264.367188 101.316406 260.671875 C 100.78125 255.039062 100.3125 249.398438 100.148438 243.746094 C 100.003906 238.75 100 233.742188 100.035156 228.742188 C 100.046875 227.191406 100.117188 225.644531 100.21875 224.097656 C 100.3125 222.710938 100.320312 221.285156 100.511719 219.910156 C 100.554688 219.617188 100.675781 219.066406 101.085938 219.171875 C 101.308594 219.230469 101.367188 219.527344 101.382812 219.726562 C 101.503906 221.308594 101.664062 222.894531 101.722656 224.484375 C 101.859375 228.308594 101.945312 232.136719 102.054688 235.964844 C 102.109375 237.792969 102.113281 239.621094 102.238281 241.441406 C 102.5 245.320312 102.839844 249.195312 103.125 253.074219 C 103.410156 256.953125 103.90625 260.808594 104.417969 264.660156 C 104.785156 267.40625 105.214844 270.144531 105.289062 272.917969 C 105.355469 275.507812 105.367188 278.101562 105.363281 280.695312 C 105.363281 281.988281 105.308594 283.285156 105.109375 284.570312 C 104.558594 288.082031 103.570312 291.460938 102.214844 294.742188 C 102.050781 295.136719 101.71875 296.085938 101.71875 296.085938 C 101.71875 296.085938 103 295.984375 103.523438 295.964844 C 104.632812 295.921875 105.988281 295.902344 107.148438 296.183594 C 109.128906 296.65625 111.855469 298.097656 111.855469 298.097656 C 111.855469 298.097656 112.121094 297.3125 112.246094 296.894531 C 112.496094 296.046875 113.113281 292.375 113.28125 291.511719 C 114.339844 286.019531 114.671875 283.964844 115.164062 278.382812 C 115.621094 273.21875 116.226562 268.070312 116.738281 262.910156 C 117.179688 258.453125 117.601562 254 117.992188 249.539062 C 118.292969 246.136719 118.5 242.722656 118.804688 239.320312 C 118.996094 237.210938 119.300781 235.109375 119.785156 233.042969 C 119.929688 232.414062 120.144531 231.800781 120.371094 231.195312 C 120.492188 230.867188 120.695312 230.554688 121.101562 230.507812 C 121.367188 230.476562 121.558594 230.964844 121.46875 231.546875 C 120.941406 234.867188 120.71875 238.222656 120.550781 241.570312 C 120.308594 246.398438 120.195312 251.230469 119.789062 256.046875 C 119.40625 260.566406 119.011719 265.085938 118.589844 269.601562 C 118.179688 274 117.71875 278.394531 117.289062 282.789062 C 116.9375 286.394531 116.585938 290 115.953125 293.570312 C 115.296875 297.253906 114.820312 300.96875 114.488281 304.695312 C 114.050781 309.5625 113.648438 314.4375 113.296875 319.3125 C 112.925781 324.484375 112.589844 329.179688 112.800781 334.367188 C 112.808594 334.585938 112.917969 336.023438 112.917969 336.023438 C 112.917969 336.023438 113.929688 334.699219 114.292969 334.339844 C 114.710938 333.925781 115.144531 333.519531 115.621094 333.175781 C 118.328125 331.238281 121.25 329.75 124.558594 329.152344 C 126.761719 328.75 128.984375 328.472656 131.222656 328.414062 C 135.023438 328.3125 138.734375 328.945312 142.359375 330.023438 C 146.34375 331.207031 150.101562 332.851562 153.148438 335.804688 C 153.269531 335.925781 153.773438 336.507812 153.773438 336.507812 C 153.773438 336.507812 153.675781 334.8125 153.578125 334.25 C 152.824219 329.832031 152.265625 325.390625 152.027344 320.917969 C 151.78125 316.269531 151.792969 311.609375 151.894531 306.953125 C 151.996094 302.296875 152.277344 297.652344 152.566406 293.007812 C 152.792969 289.417969 153.050781 285.835938 153.46875 282.265625 C 154.378906 274.421875 155.671875 266.636719 157.105469 258.875 C 158.226562 252.796875 159.328125 246.714844 160.453125 240.632812 C 161.886719 232.871094 163.21875 225.09375 165.023438 217.40625 C 166.332031 211.847656 167.5625 206.269531 169.277344 200.8125 C 169.488281 200.140625 169.742188 199.480469 169.976562 198.816406 C 170.066406 198.570312 170.238281 198.4375 170.59375 198.421875 C 170.554688 199.375 170.335938 200.289062 170.15625 201.203125 C 169.152344 206.289062 168.117188 211.363281 167.128906 216.453125 C 165.789062 223.332031 164.675781 230.25 163.492188 237.15625 C 161.746094 247.375 159.910156 257.574219 158.152344 267.789062 C 157.203125 273.304688 156.457031 278.851562 155.878906 284.414062 C 155.332031 289.691406 155.066406 294.992188 154.828125 300.289062 C 154.59375 305.527344 154.527344 310.773438 154.636719 316.019531 C 154.746094 321.210938 155.019531 326.371094 156.089844 331.476562 C 156.703125 334.417969 157.003906 337.414062 156.886719 340.433594 C 156.820312 342.15625 156.554688 343.835938 155.855469 345.421875 C 154.78125 347.855469 153.566406 350.195312 151.703125 352.152344 C 150.847656 353.050781 150.214844 354.121094 149.742188 355.28125 C 149.175781 356.664062 149.320312 357.910156 150.359375 359.039062 C 151.832031 360.644531 153.613281 361.742188 155.710938 362.304688 C 157.9375 362.902344 160.148438 362.625 162.34375 362.089844 C 166.238281 361.136719 169.714844 359.351562 172.851562 356.867188 C 176.273438 354.160156 179.828125 351.644531 183.53125 349.335938 C 186.707031 347.355469 190.101562 345.902344 193.738281 345.050781 C 196.269531 344.457031 198.820312 344.09375 201.4375 344.523438 C 202.621094 344.71875 203.867188 345.398438 204.9375 345.777344 C 204.9375 345.777344 204.800781 344.929688 204.734375 344.644531 C 204.53125 343.789062 204.398438 343.046875 204.234375 342.183594 C 203.570312 338.652344 202.921875 335.121094 202.285156 331.585938 C 201.402344 326.710938 200.785156 321.800781 200.433594 316.867188 C 199.910156 309.582031 199.433594 302.289062 199.09375 294.992188 C 198.746094 287.578125 198.5625 280.15625 198.355469 272.734375 C 198.222656 267.960938 198.222656 263.1875 198.398438 258.417969 C 198.636719 251.820312 198.976562 245.230469 199.214844 238.636719 C 199.515625 230.21875 199.792969 221.796875 200.742188 213.417969 C 200.921875 211.839844 201.203125 210.269531 201.453125 208.699219 C 201.488281 208.476562 201.597656 208.257812 201.707031 208.050781 C 201.753906 207.960938 201.886719 207.859375 201.980469 207.859375 C 202.148438 207.859375 202.308594 207.933594 202.359375 208.140625 C 202.5625 208.949219 202.519531 209.777344 202.5 210.601562 C 202.371094 215.722656 202.230469 220.847656 202.097656 225.972656 C 202.039062 228.269531 202.027344 230.570312 201.945312 232.867188 C 201.6875 240.050781 201.355469 247.230469 201.148438 254.417969 C 200.914062 262.371094 200.945312 270.324219 201.265625 278.277344 C 201.554688 285.519531 201.882812 292.757812 202.390625 299.988281 C 202.785156 305.628906 203.167969 311.273438 203.605469 316.910156 C 203.800781 319.4375 204.070312 321.957031 204.394531 324.46875 C 205.125 330.136719 206.21875 335.742188 207.320312 341.347656 C 207.664062 343.082031 208.03125 344.8125 208.257812 346.5625 C 208.582031 349.085938 208.585938 351.59375 207.890625 354.097656 C 207.449219 355.683594 207 357.269531 206.5625 358.859375 C 205.796875 361.644531 206.808594 363.878906 209.410156 365.152344 C 209.984375 365.4375 210.605469 365.644531 211.21875 365.839844 C 212.851562 366.355469 214.539062 366.632812 216.230469 366.84375 C 220.992188 367.433594 225.757812 367.222656 230.511719 366.769531 C 235.730469 366.273438 240.886719 365.332031 246.027344 364.34375 C 248.515625 363.863281 250.949219 363.191406 253.273438 362.140625 C 255.40625 361.175781 257.207031 359.789062 258.746094 358.046875 C 259.136719 357.609375 259.476562 357.121094 259.8125 356.640625 C 260.351562 355.875 260.316406 355.082031 259.804688 354.332031 C 259.539062 353.9375 259.210938 353.578125 258.871094 353.242188 C 258.300781 352.679688 257.710938 352.140625 257.109375 351.609375 C 255.582031 350.265625 254.222656 348.789062 253.230469 347.003906 C 253.0625 346.695312 252.847656 346.410156 252.640625 346.125 C 251.21875 344.15625 250.089844 342.03125 249.136719 339.800781 C 246.582031 333.84375 244.382812 327.753906 242.4375 321.570312 C 238.824219 310.105469 235.839844 298.476562 233.277344 286.730469 C 231.53125 278.730469 230.125 270.667969 228.925781 262.570312 C 228.347656 258.664062 227.800781 254.757812 227.300781 250.84375 C 226.847656 247.339844 226.472656 243.824219 226.066406 240.3125 C 225.890625 238.792969 225.726562 237.273438 225.5625 235.75 C 225.296875 233.289062 225.015625 230.832031 224.785156 228.367188 C 224.558594 225.960938 224.386719 223.554688 224.199219 221.144531 C 224.152344 220.558594 224.101562 219.972656 224.097656 219.382812 C 224.09375 218.832031 224.375 218.417969 224.683594 218.4375 C 225.121094 218.464844 225.242188 218.824219 225.359375 219.148438 C 225.808594 220.375 225.996094 221.660156 226.136719 222.949219 C 226.539062 226.695312 226.871094 230.449219 227.304688 234.195312 C 227.921875 239.519531 228.636719 244.832031 229.246094 250.15625 C 230.0625 257.242188 231.300781 264.257812 232.664062 271.253906 C 234.636719 281.367188 236.90625 291.421875 239.585938 301.375 C 242.25 311.269531 245.019531 321.132812 248.371094 330.820312 C 249.332031 333.605469 250.328125 336.375 251.523438 339.070312 C 251.636719 339.328125 252.128906 340.285156 252.128906 340.285156 C 252.128906 340.285156 252.230469 339.511719 252.25 339.417969 C 253.863281 331.574219 258.34375 325.648438 264.582031 320.894531 C 264.902344 320.644531 265.238281 320.414062 265.585938 320.199219 C 268.753906 318.265625 272.082031 317.089844 275.855469 318.039062 C 275.902344 318.050781 276.3125 318.117188 276.3125 318.117188 C 276.3125 318.117188 275.765625 317.242188 275.546875 316.929688 C 274.335938 315.1875 273.066406 313.492188 271.972656 311.667969 C 267.960938 304.976562 264.761719 297.902344 262.167969 290.554688 C 259.949219 284.273438 258.292969 277.824219 256.550781 271.40625 C 254.929688 265.433594 253.90625 259.328125 252.660156 253.273438 C 251.402344 247.160156 250.359375 241.007812 249.332031 234.847656 C 248.285156 228.566406 247.605469 222.246094 247.101562 215.902344 C 247.007812 214.730469 247.054688 213.546875 247.0625 212.367188 C 247.066406 211.917969 247.089844 211.441406 247.5625 211.105469 C 247.921875 211.472656 247.988281 211.9375 248.066406 212.398438 C 248.527344 215.066406 249.015625 217.730469 249.441406 220.40625 C 250.03125 224.128906 250.578125 227.859375 251.148438 231.582031 C 252.785156 242.183594 255.078125 252.652344 257.367188 263.121094 C 258.765625 269.511719 260.679688 275.765625 262.425781 282.0625 C 264.347656 289.007812 266.945312 295.6875 270.085938 302.171875 C 273.304688 308.828125 277.441406 314.917969 281.589844 321 C 283.21875 323.386719 285.632812 323.859375 288.289062 323.582031 C 289.746094 323.429688 290.945312 322.613281 292.085938 321.789062 C 296.113281 318.875 299.832031 315.632812 302.671875 311.492188 C 302.9375 311.105469 303.207031 310.65625 303.207031 310.65625 C 303.207031 310.65625 302.945312 310.269531 302.613281 309.820312 C 300.804688 307.351562 299.082031 304.816406 297.503906 302.191406 C 295.773438 299.3125 294.222656 296.332031 292.664062 293.359375 C 289.269531 286.875 286.429688 280.148438 284.238281 273.167969 C 281.5 264.464844 278.863281 255.726562 276.40625 246.9375 C 273.597656 236.890625 271.285156 226.734375 269.542969 216.445312 C 268.90625 212.671875 268.277344 208.898438 267.660156 205.121094 C 266.695312 199.191406 265.761719 193.253906 265.097656 187.28125 C 264.914062 185.644531 264.859375 183.996094 264.757812 182.347656 C 264.714844 181.695312 264.789062 181.054688 265.070312 180.449219 C 265.132812 180.316406 265.207031 180.242188 265.332031 180.289062 C 265.433594 180.328125 265.5625 180.375 265.609375 180.457031 C 265.917969 180.972656 265.984375 181.558594 266.082031 182.140625 C 266.597656 185.21875 267.09375 188.300781 267.652344 191.371094 C 268.761719 197.453125 269.886719 203.535156 271.042969 209.609375 C 272.285156 216.144531 273.554688 222.675781 275.035156 229.164062 C 278.367188 243.761719 282.710938 258.066406 287.285156 272.308594 C 287.421875 272.734375 287.84375 273.886719 287.84375 273.886719 C 287.84375 273.886719 288.441406 271.367188 288.597656 270.679688 C 289.617188 266.25 291.144531 261.988281 292.886719 257.792969 C 294.164062 254.71875 295.820312 251.886719 297.800781 249.238281 C 299.90625 246.425781 302.488281 244.117188 305.429688 242.210938 C 307.027344 241.175781 308.824219 240.394531 310.484375 239.960938 C 311.207031 239.773438 312.050781 239.722656 312.050781 239.722656 C 312.050781 239.722656 311.28125 237.796875 310.773438 236.878906 Z M 184.335938 99.175781 C 184.230469 105.976562 183.441406 113.773438 179.125 119.214844 C 174.902344 124.542969 167.257812 124.472656 163.824219 118.121094 C 162.621094 115.902344 162.109375 113.378906 161.753906 110.878906 C 160.296875 100.621094 161.078125 89.679688 164.648438 79.90625 C 166.144531 75.8125 169.40625 70.894531 174.269531 70.839844 C 179.832031 70.777344 181.9375 76.050781 182.929688 80.679688 C 184.179688 86.519531 184.339844 92.125 184.34375 98.121094 C 184.34375 98.472656 184.34375 98.824219 184.335938 99.175781 Z M 229.136719 99.175781 C 229.027344 105.976562 228.242188 113.773438 223.925781 119.214844 C 219.703125 124.542969 212.058594 124.472656 208.621094 118.121094 C 207.421875 115.902344 206.910156 113.378906 206.554688 110.878906 C 205.097656 100.621094 205.878906 89.679688 209.449219 79.90625 C 210.945312 75.8125 214.207031 70.894531 219.070312 70.839844 C 224.632812 70.777344 226.738281 76.050781 227.730469 80.679688 C 228.980469 86.519531 229.140625 92.125 229.144531 98.121094 C 229.144531 98.472656 229.144531 98.824219 229.136719 99.175781 Z M 229.136719 99.175781 " fill-opacity="1" fill-rule="nonzero"/><path fill="#f6e4c5" d="M 146.746094 181.34375 C 144.785156 178.324219 145.472656 174.398438 145.542969 171.128906 C 145.621094 167.535156 145.828125 163.914062 145.3125 160.339844 C 145.199219 159.542969 145.074219 158.738281 144.90625 157.949219 C 144.402344 155.59375 143.289062 153.535156 141.878906 151.632812 C 140.980469 150.421875 140.042969 150.175781 138.609375 150.632812 C 138.273438 150.738281 137.957031 150.898438 137.632812 151.039062 C 137.148438 151.25 136.667969 151.472656 136.179688 151.679688 C 133.753906 152.703125 131.226562 153.183594 128.597656 152.941406 C 126.007812 152.703125 123.996094 151.589844 123.035156 149.007812 C 122.710938 148.132812 122.703125 148.144531 121.867188 148.640625 C 121.261719 149.003906 120.667969 149.394531 120.027344 149.679688 C 114.847656 151.96875 106.96875 149.972656 104.976562 144.175781 C 104.839844 143.785156 104.773438 143.019531 104.371094 142.996094 C 104.066406 142.980469 103.644531 143.273438 103.355469 143.449219 C 102.671875 143.871094 101.867188 144.09375 101.101562 144.320312 C 101.101562 144.320312 101.082031 144.578125 101.070312 144.898438 C 100.984375 147.488281 100.828125 149.109375 100.664062 152.230469 C 100.605469 153.347656 100.609375 154.894531 100.539062 156.011719 C 100.371094 158.773438 100.132812 161.535156 100.007812 164.296875 C 99.664062 171.671875 99.660156 179.03125 99.472656 186.410156 C 99.394531 189.390625 99.375 191.367188 99.402344 193.847656 C 99.429688 196.472656 99.472656 198.796875 99.476562 201.582031 C 99.476562 202.410156 99.484375 203.007812 99.484375 203.007812 C 99.484375 203.007812 107.054688 206.21875 110.621094 207.023438 C 117.59375 208.589844 124.941406 208.890625 132.074219 208.664062 C 138.683594 208.453125 145.976562 206.554688 145.976562 206.554688 C 145.976562 206.554688 145.988281 206.671875 146.046875 205.890625 C 146.363281 201.839844 146.714844 197.789062 146.949219 193.734375 C 147.160156 190.089844 147.21875 185.730469 147.378906 182.082031 C 147.378906 182.082031 146.988281 181.722656 146.746094 181.34375 Z M 112.792969 186.46875 C 112.722656 188.316406 112.613281 190.160156 112.488281 192.003906 C 112.378906 193.578125 112.269531 195.226562 111.527344 196.652344 C 110.425781 198.769531 107.382812 198.996094 105.894531 197.121094 C 104.773438 195.714844 104.894531 193.726562 104.785156 192.027344 C 104.628906 189.6875 104.625 187.339844 104.5 185 C 104.296875 180.882812 104.378906 176.769531 104.335938 172.65625 C 104.3125 170.195312 104.324219 167.730469 104.472656 165.269531 C 104.609375 162.957031 104.671875 160.460938 105.628906 158.316406 C 106.242188 156.945312 107.375 156.285156 108.855469 156.269531 C 111.949219 156.246094 112.1875 159.703125 112.371094 161.957031 C 112.699219 165.949219 112.792969 169.957031 112.851562 173.964844 C 112.859375 174.492188 112.867188 175.015625 112.875 175.542969 C 112.941406 179.140625 112.929688 182.839844 112.792969 186.46875 Z M 127.542969 186.46875 C 127.472656 188.316406 127.363281 190.160156 127.238281 192.003906 C 127.132812 193.578125 127.023438 195.226562 126.28125 196.652344 C 125.175781 198.769531 122.136719 198.996094 120.644531 197.121094 C 119.527344 195.714844 119.648438 193.726562 119.535156 192.027344 C 119.378906 189.6875 119.375 187.339844 119.253906 185 C 119.050781 180.882812 119.128906 176.769531 119.085938 172.65625 C 119.0625 170.195312 119.078125 167.730469 119.226562 165.269531 C 119.363281 162.957031 119.421875 160.460938 120.378906 158.316406 C 120.992188 156.945312 122.128906 156.285156 123.605469 156.269531 C 126.703125 156.246094 126.9375 159.703125 127.125 161.957031 C 127.449219 165.949219 127.546875 169.957031 127.601562 173.964844 C 127.609375 174.492188 127.621094 175.015625 127.628906 175.542969 C 127.695312 179.140625 127.679688 182.839844 127.542969 186.46875 Z M 142.238281 186.46875 C 142.167969 188.316406 142.058594 190.160156 141.929688 192.003906 C 141.824219 193.578125 141.714844 195.226562 140.972656 196.652344 C 139.871094 198.769531 136.828125 198.996094 135.339844 197.121094 C 134.21875 195.714844 134.339844 193.726562 134.230469 192.027344 C 134.074219 189.6875 134.070312 187.339844 133.945312 185 C 133.742188 180.882812 133.824219 176.769531 133.78125 172.65625 C 133.753906 170.195312 133.769531 167.730469 133.917969 165.269531 C 134.054688 162.957031 134.117188 160.460938 135.074219 158.316406 C 135.6875 156.945312 136.820312 156.285156 138.296875 156.269531 C 141.394531 156.246094 141.632812 159.703125 141.816406 161.957031 C 142.144531 165.949219 142.238281 169.957031 142.296875 173.964844 C 142.304688 174.492188 142.3125 175.015625 142.320312 175.542969 C 142.386719 179.140625 142.371094 182.839844 142.238281 186.46875 Z M 93.953125 147.894531 C 95.980469 147.535156 97.296875 147.449219 98.769531 147.359375 C 98.691406 148.296875 98.605469 148.898438 98.546875 149.722656 C 98.507812 150.238281 98.433594 151.351562 98.433594 151.351562 C 98.433594 151.351562 96.96875 151.582031 96.335938 151.699219 C 94.84375 151.984375 92.644531 152.796875 91.84375 154.671875 C 91.519531 155.433594 91.152344 156.976562 91.152344 156.976562 C 91.152344 156.976562 90.011719 157 88.765625 157.164062 C 87.300781 157.359375 85.753906 158.0625 85.753906 158.0625 C 85.753906 158.0625 86.246094 154.460938 86.996094 152.171875 C 87.4375 150.839844 87.71875 150.160156 88.925781 149.460938 C 90.261719 148.683594 91.839844 148.265625 93.953125 147.890625 Z M 95.722656 185.117188 C 96.007812 185.160156 96.976562 185.269531 96.976562 185.269531 C 96.976562 185.269531 96.921875 187.960938 96.847656 189.070312 C 96.824219 189.386719 96.785156 189.96875 96.785156 189.96875 C 96.785156 189.96875 93.875 190.375 91.570312 189.710938 C 89.628906 189.128906 87.992188 187.796875 87.015625 185.949219 C 87.976562 184.273438 89.632812 183.179688 91.242188 182.210938 C 91.394531 182.484375 91.546875 182.679688 91.632812 182.816406 C 92.71875 184.320312 94.039062 184.859375 95.722656 185.117188 Z M 95.722656 185.117188 " fill-opacity="1" fill-rule="nonzero"/><path fill="#e5b956" d="M 156.636719 144.355469 C 155.878906 144.789062 155.003906 145.007812 154.167969 145.296875 C 151.765625 146.128906 151.734375 146.140625 151.988281 148.703125 C 152.257812 151.398438 152.601562 154.085938 152.847656 156.78125 C 152.949219 157.890625 152.925781 159.617188 152.839844 160.726562 C 152.480469 165.4375 152.617188 169.554688 152.773438 174.265625 C 152.828125 175.980469 152.808594 177.6875 152.214844 179.328125 C 151.972656 180 151.6875 180.640625 151.070312 181.074219 C 150.5625 181.433594 150.089844 181.449219 149.625 181.050781 C 148.792969 180.335938 148.304688 179.417969 148 178.371094 C 147.59375 176.988281 147.667969 175.570312 147.609375 174.160156 C 147.59375 173.808594 147.808594 169.925781 147.90625 168.339844 C 148.105469 165.101562 148.191406 161.875 147.695312 158.644531 C 147.230469 155.628906 145.878906 153.046875 143.964844 150.757812 C 142.339844 148.808594 140.15625 148.3125 137.726562 148.824219 C 136.980469 148.980469 136.257812 149.25 135.53125 149.488281 C 133.835938 150.046875 132.109375 150.320312 130.316406 150.164062 C 127.816406 149.945312 125.964844 148.84375 125.0625 146.390625 C 124.863281 145.839844 124.628906 145.300781 124.371094 144.773438 C 124.214844 144.457031 123.714844 144.402344 123.445312 144.625 C 123.402344 144.660156 123.355469 144.699219 123.316406 144.742188 C 120.957031 147.328125 117.90625 148.199219 114.554688 148.054688 C 111.113281 147.902344 108.050781 145.40625 106.976562 142.113281 C 106.738281 141.386719 106.558594 140.640625 106.320312 139.910156 C 106.082031 139.1875 105.585938 139.011719 104.964844 139.425781 C 104.523438 139.722656 104.125 140.082031 103.671875 140.351562 C 102.25 141.191406 100.757812 141.605469 99.128906 140.953125 C 98.628906 140.753906 98.167969 140.496094 97.785156 140.125 C 95.617188 138.015625 94.804688 135.492188 95.664062 132.554688 C 96.59375 129.386719 98.628906 127.25 101.855469 126.359375 C 103.933594 125.789062 105.390625 126.332031 106.609375 128.070312 C 107.082031 128.746094 107.535156 129.4375 107.996094 130.121094 C 108.164062 130.363281 108.308594 130.621094 108.5 130.84375 C 108.734375 131.117188 109.023438 131.332031 109.414062 131.285156 C 109.8125 131.238281 110.242188 130.796875 110.28125 130.292969 C 110.355469 129.289062 110.570312 128.320312 110.863281 127.359375 C 111.300781 125.914062 112.066406 124.683594 113.140625 123.632812 C 115.695312 121.136719 118.757812 119.925781 122.300781 120.40625 C 125.664062 120.863281 128.214844 122.621094 129.566406 125.855469 C 129.882812 126.613281 130.109375 127.410156 130.386719 128.1875 C 130.488281 128.460938 130.589844 128.742188 130.742188 128.988281 C 130.988281 129.390625 131.609375 129.511719 131.984375 129.234375 C 132.21875 129.0625 132.40625 128.828125 132.632812 128.640625 C 133.625 127.808594 134.601562 126.953125 135.625 126.164062 C 138.234375 124.160156 141.175781 123.742188 144.324219 124.4375 C 145.714844 124.742188 147.054688 125.1875 148.226562 126.019531 C 150.429688 127.582031 151.738281 129.621094 151.5625 132.433594 C 151.550781 132.609375 151.554688 132.785156 151.570312 132.960938 C 151.605469 133.417969 152.019531 133.652344 152.46875 133.449219 C 152.734375 133.328125 152.976562 133.15625 153.238281 133.023438 C 154.5625 132.34375 155.855469 132.457031 157.097656 133.222656 C 158.242188 133.925781 159.050781 134.917969 159.523438 136.171875 C 160.785156 139.480469 159.710938 142.601562 156.632812 144.355469 Z M 110.085938 158.957031 C 109.863281 158.378906 109.511719 157.929688 108.820312 157.890625 C 108.175781 157.851562 107.535156 158.085938 107.183594 158.652344 C 106.941406 159.042969 106.839844 159.503906 106.753906 159.957031 C 105.742188 165.28125 106.109375 171 106.132812 176.402344 C 106.148438 179.546875 106.210938 182.695312 106.257812 185.839844 C 106.304688 188.804688 105.957031 192.011719 106.726562 194.898438 C 106.816406 195.230469 106.921875 195.5625 107.109375 195.847656 C 107.917969 197.054688 109.722656 196.433594 110.125 195.210938 C 110.757812 193.269531 110.632812 191.03125 110.71875 189.007812 C 110.816406 186.714844 110.882812 184.417969 110.917969 182.117188 C 110.945312 180.269531 110.957031 178.417969 110.949219 176.566406 C 110.929688 172.195312 110.804688 167.824219 110.5625 163.464844 C 110.496094 162.046875 110.613281 160.28125 110.085938 158.957031 Z M 124.835938 158.957031 C 124.617188 158.378906 124.265625 157.929688 123.570312 157.890625 C 122.925781 157.851562 122.289062 158.085938 121.933594 158.652344 C 121.691406 159.042969 121.589844 159.503906 121.503906 159.957031 C 120.496094 165.28125 120.863281 171 120.886719 176.402344 C 120.898438 179.546875 120.960938 182.695312 121.011719 185.839844 C 121.054688 188.804688 120.710938 192.011719 121.480469 194.898438 C 121.566406 195.230469 121.671875 195.5625 121.863281 195.847656 C 122.671875 197.054688 124.476562 196.433594 124.875 195.210938 C 125.511719 193.269531 125.382812 191.03125 125.46875 189.007812 C 125.566406 186.714844 125.632812 184.417969 125.667969 182.117188 C 125.699219 180.269531 125.707031 178.417969 125.699219 176.566406 C 125.679688 172.195312 125.558594 167.824219 125.316406 163.464844 C 125.246094 162.046875 125.367188 160.28125 124.835938 158.957031 Z M 139.53125 158.957031 C 139.308594 158.378906 138.957031 157.929688 138.265625 157.890625 C 137.621094 157.851562 136.980469 158.085938 136.628906 158.652344 C 136.386719 159.042969 136.285156 159.503906 136.199219 159.957031 C 135.1875 165.28125 135.554688 171 135.578125 176.402344 C 135.59375 179.546875 135.65625 182.695312 135.703125 185.839844 C 135.75 188.804688 135.402344 192.011719 136.171875 194.898438 C 136.261719 195.230469 136.367188 195.5625 136.554688 195.847656 C 137.363281 197.054688 139.167969 196.433594 139.570312 195.210938 C 140.203125 193.269531 140.078125 191.03125 140.164062 189.007812 C 140.261719 186.714844 140.328125 184.417969 140.363281 182.117188 C 140.390625 180.269531 140.402344 178.417969 140.394531 176.566406 C 140.375 172.195312 140.25 167.824219 140.007812 163.464844 C 139.941406 162.046875 140.058594 160.28125 139.53125 158.957031 Z M 139.53125 158.957031 " fill-opacity="1" fill-rule="nonzero"/><g clip-path="url(#f56c9ae6ab)"><path fill="#000000" d="M 84.203125 296.234375 C 83.054688 297.214844 82.046875 298.019531 81.195312 299 C 79.535156 300.914062 77.863281 302.816406 76.203125 304.730469 C 75.390625 305.664062 74.574219 306.585938 73.589844 307.355469 C 72.6875 308.0625 71.777344 308.207031 70.628906 307.894531 C 66.757812 306.835938 63.832031 304.597656 61.496094 301.359375 C 58.335938 296.984375 56.71875 292.085938 56.117188 286.789062 C 55.863281 284.566406 55.59375 282.34375 55.527344 280.101562 C 55.386719 275.53125 56.027344 271.058594 57.09375 266.628906 C 57.78125 263.765625 58.640625 260.949219 59.570312 258.15625 C 60.886719 254.1875 62.164062 250.210938 63.429688 246.226562 C 64.90625 241.589844 65.535156 236.808594 65.769531 231.972656 C 65.980469 227.554688 65.832031 223.136719 65.742188 218.71875 C 65.605469 212.121094 65.257812 205.527344 65.425781 198.925781 C 65.574219 193.203125 65.996094 187.5 67.535156 181.960938 C 69.355469 175.398438 72.445312 169.484375 77.015625 164.394531 C 78.675781 162.546875 80.464844 160.84375 82.628906 159.589844 C 83.132812 159.296875 83.15625 159.308594 83.15625 159.308594 C 83.441406 156.269531 84.019531 152 85.882812 149.015625 C 87.402344 146.585938 93.820312 145.886719 97.828125 145.492188 C 98.488281 145.425781 98.957031 145.378906 98.957031 145.378906 C 98.957031 145.378906 98.992188 145.019531 99.015625 144.707031 C 99.035156 144.464844 99.023438 144.144531 99.023438 144.144531 C 99.023438 144.144531 98.359375 143.867188 98.152344 143.753906 C 93.546875 141.195312 91.632812 135.683594 93.605469 130.8125 C 94.742188 128.003906 96.609375 125.921875 99.3125 124.578125 C 100.433594 124.019531 101.609375 123.667969 102.863281 123.613281 C 104.949219 123.515625 106.667969 124.222656 107.925781 125.933594 C 108.0625 126.121094 108.21875 126.296875 108.378906 126.46875 C 108.410156 126.503906 108.484375 126.507812 108.535156 126.527344 C 108.777344 126.542969 108.796875 126.34375 108.84375 126.191406 C 109.921875 122.675781 112.34375 120.367188 115.582031 118.898438 C 118.933594 117.382812 122.398438 117.15625 125.875 118.535156 C 128.269531 119.480469 130.042969 121.148438 131.277344 123.394531 C 131.644531 124.0625 131.957031 124.765625 132.289062 125.4375 C 132.632812 125.617188 132.851562 125.386719 133.070312 125.210938 C 133.992188 124.476562 135.671875 123.425781 136.738281 122.921875 C 136.738281 122.921875 135.585938 112.371094 137.050781 99.152344 C 138.058594 90.066406 139.066406 81.023438 141.199219 72.117188 C 142.710938 65.804688 144.460938 59.578125 147.003906 53.601562 C 149.082031 48.726562 151.265625 43.898438 154.230469 39.46875 C 157.199219 35.035156 160.742188 31.097656 164.65625 27.511719 C 168.175781 24.28125 171.972656 21.394531 175.96875 18.769531 C 180.371094 15.875 185.039062 13.539062 190.097656 12.027344 C 192.40625 11.335938 194.664062 10.480469 197.027344 9.964844 C 199.21875 9.484375 201.441406 9.1875 203.667969 9.074219 C 208.382812 8.839844 213.09375 8.949219 217.753906 9.753906 C 223.464844 10.738281 228.980469 12.359375 234.132812 15.078125 C 236.640625 16.40625 238.933594 18.058594 241.082031 19.90625 C 244.898438 23.1875 248.269531 26.863281 251.136719 31.007812 C 255.878906 37.859375 259.964844 45.070312 263.003906 52.84375 C 265.175781 58.398438 267.574219 64.527344 268.410156 70.417969 C 269.371094 77.21875 270.3125 84.019531 271.234375 90.824219 C 272.621094 101.070312 273.964844 111.324219 275.261719 121.582031 C 276.515625 131.484375 278.660156 141.070312 280.859375 150.820312 C 281.84375 155.246094 282.976562 159.636719 284.066406 164.035156 C 286.050781 172.039062 288.382812 179.941406 290.816406 187.820312 C 291.71875 190.75 292.886719 193.582031 294.089844 196.394531 C 296.519531 202.082031 298.976562 207.753906 301.441406 213.421875 C 303.460938 218.070312 305.894531 222.515625 308.238281 227.003906 C 309.46875 229.355469 310.679688 231.710938 311.921875 234.050781 C 312.5 235.140625 313.101562 236.222656 313.757812 237.273438 C 314.636719 238.679688 315.289062 240.1875 315.808594 241.757812 C 316.34375 243.367188 316.390625 244.996094 316.039062 246.640625 C 315.386719 249.648438 314.320312 252.519531 312.90625 255.246094 C 310.871094 259.171875 308.5625 262.9375 306.144531 266.636719 C 303.730469 270.335938 301.164062 273.933594 298.519531 277.472656 C 296.757812 279.835938 294.890625 282.117188 292.835938 284.230469 C 292.402344 284.675781 292.113281 284.890625 292.113281 284.890625 C 292.113281 284.890625 294.226562 289.164062 295.132812 290.882812 C 297.027344 294.476562 298.957031 298.050781 300.917969 301.609375 C 302.082031 303.726562 303.320312 305.796875 304.902344 307.644531 C 305.359375 308.175781 305.726562 308.789062 306.105469 309.386719 C 306.53125 310.054688 306.453125 310.714844 306.019531 311.371094 C 302.835938 316.179688 299.011719 320.378906 294.28125 323.714844 C 292.34375 325.078125 290.203125 326.050781 288.039062 326.984375 C 287.324219 327.292969 286.5625 327.40625 285.804688 327.457031 C 284.328125 327.550781 282.996094 327.117188 281.9375 326.058594 C 281.1875 325.3125 280.488281 324.511719 279.804688 323.703125 C 278.878906 322.617188 277.820312 321.703125 276.585938 320.976562 C 274.859375 319.953125 273.039062 319.800781 271.140625 320.355469 C 269.371094 320.867188 267.730469 321.667969 266.277344 322.800781 C 261.691406 326.378906 258.023438 330.6875 255.972656 336.210938 C 255.199219 338.296875 255.136719 340.472656 255.519531 342.652344 C 255.589844 343.050781 255.761719 343.445312 255.957031 343.800781 C 256.835938 345.402344 257.71875 347 258.929688 348.390625 C 260.285156 349.949219 261.398438 351.679688 262.40625 353.484375 C 263.027344 354.59375 263.09375 355.71875 262.636719 356.882812 C 262.460938 357.316406 262.273438 357.757812 262.023438 358.152344 C 260.4375 360.613281 258.460938 362.671875 255.875 364.117188 C 253.066406 365.683594 250.03125 366.582031 246.898438 367.1875 C 242.160156 368.097656 237.421875 369.003906 232.628906 369.570312 C 227.40625 370.1875 222.171875 370.316406 216.933594 369.96875 C 214.648438 369.816406 212.390625 369.363281 210.179688 368.703125 C 208.390625 368.171875 206.886719 367.242188 205.550781 365.921875 C 203.8125 364.207031 202.378906 362.277344 201.109375 360.21875 C 198.886719 356.609375 196.871094 352.878906 195 349.070312 C 194.84375 348.753906 194.695312 348.433594 194.527344 348.121094 C 194.367188 347.832031 194.09375 347.707031 193.78125 347.796875 C 192.882812 348.066406 191.972656 348.324219 191.097656 348.660156 C 189.117188 349.421875 187.21875 350.359375 185.402344 351.460938 C 181.574219 353.789062 177.929688 356.378906 174.441406 359.195312 C 170.625 362.277344 166.34375 364.429688 161.472656 365.265625 C 157.882812 365.882812 154.445312 365.546875 151.3125 363.445312 C 149.410156 362.167969 147.882812 360.59375 146.894531 358.511719 C 142.925781 350.160156 139.078125 341.757812 136.351562 332.890625 C 135.898438 331.410156 135.796875 331.335938 134.285156 331.21875 C 133.40625 331.152344 132.519531 331.136719 131.636719 331.171875 C 129.046875 331.28125 126.476562 331.527344 123.945312 332.132812 C 121.429688 332.734375 119.242188 333.972656 117.175781 335.457031 C 115.835938 336.417969 115.125 337.863281 114.425781 339.292969 C 114.042969 340.089844 113.726562 340.914062 113.367188 341.722656 C 113.125 342.261719 112.820312 342.761719 112.351562 343.148438 C 111.992188 343.4375 111.550781 343.382812 111.277344 343.027344 C 111.050781 342.734375 110.980469 342.394531 110.902344 342.050781 C 110.527344 340.433594 110.417969 338.78125 110.359375 337.140625 C 110.160156 331.722656 110.167969 326.300781 110.476562 320.882812 C 110.539062 319.824219 110.574219 318.765625 110.585938 317.703125 C 110.628906 314.160156 111.078125 310.65625 111.503906 307.148438 C 111.667969 305.800781 111.824219 304.457031 112.015625 303.113281 C 112.128906 302.308594 111.808594 301.726562 111.15625 301.328125 C 109.847656 300.53125 108.507812 299.8125 106.96875 299.523438 C 105.328125 299.214844 103.6875 299.21875 102.046875 299.402344 C 100.429688 299.585938 98.980469 300.21875 97.761719 301.3125 C 97.007812 301.988281 96.152344 302.496094 95.246094 302.925781 C 93.527344 303.738281 91.707031 303.984375 89.722656 302.148438 C 88.382812 300.90625 87.097656 299.609375 85.917969 298.214844 C 85.386719 297.585938 84.84375 296.972656 84.199219 296.230469 Z M 138.878906 121.933594 C 139.484375 121.863281 140 121.828125 140.503906 121.734375 C 142.46875 121.371094 144.414062 121.570312 146.246094 122.257812 C 149.824219 123.597656 152.621094 125.777344 153.496094 129.773438 C 153.621094 130.332031 153.738281 130.449219 154.355469 130.371094 C 156.480469 130.109375 158.117188 131.054688 159.574219 132.445312 C 160.894531 133.707031 161.683594 135.296875 162.046875 137.050781 C 162.769531 140.558594 161.890625 143.519531 158.914062 145.667969 C 158.433594 146.011719 157.917969 146.308594 157.386719 146.570312 C 156.453125 147.027344 155.488281 147.421875 154.460938 147.621094 C 154.121094 147.6875 153.964844 147.914062 153.992188 148.246094 C 154.175781 150.300781 154.277344 152.367188 154.574219 154.402344 C 155.214844 158.808594 155.199219 163.273438 155.132812 167.714844 C 155.070312 171.769531 155.585938 175.898438 154.398438 179.824219 C 154.230469 180.382812 153.84375 181.3125 153.511719 181.789062 C 152.746094 182.882812 151.847656 183.597656 150.71875 183.640625 C 149.949219 183.671875 149.609375 183.550781 149.609375 183.550781 C 149.59375 183.84375 149.589844 185.089844 149.585938 185.382812 C 149.566406 187.386719 149.542969 189.390625 149.523438 191.394531 C 149.46875 195.878906 148.921875 200.328125 148.613281 204.792969 C 148.566406 205.5 148.4375 206.195312 148.347656 206.898438 C 148.234375 207.773438 147.847656 208.414062 147.019531 208.839844 C 142.714844 211.074219 137.035156 211.382812 132.261719 211.699219 C 126.601562 212.070312 120.90625 211.789062 115.296875 210.988281 C 109.636719 210.179688 104.324219 208.390625 99.21875 205.902344 C 98.640625 205.621094 98.109375 205.238281 97.59375 204.847656 C 97.15625 204.523438 96.871094 204.066406 96.855469 203.496094 C 96.800781 201.671875 96.851562 200.0625 96.792969 198.058594 C 96.738281 196.296875 96.71875 192.003906 96.71875 192.003906 C 96.71875 192.003906 96.328125 192.074219 95.652344 192.140625 C 94.714844 192.230469 94.085938 192.226562 93.15625 192.148438 C 90.261719 191.90625 88.046875 190.410156 86.246094 188.210938 C 86.027344 187.941406 85.984375 187.90625 85.683594 187.515625 C 85.296875 188.074219 84.816406 188.730469 84.40625 189.296875 C 84.15625 189.636719 83.863281 189.9375 83.378906 189.789062 C 82.996094 189.667969 82.859375 189.160156 83.136719 188.558594 C 83.625 187.488281 84.105469 186.414062 84.8125 185.457031 C 86.441406 183.253906 88.417969 181.417969 90.671875 179.878906 C 91.894531 179.046875 93.019531 178.105469 94.085938 177.085938 C 94.730469 176.46875 95.257812 175.761719 95.660156 174.96875 C 97.492188 171.382812 97.703125 167.65625 96.6875 163.800781 C 95.957031 161.019531 93.582031 159.320312 90.121094 159.902344 C 86.5 160.515625 83.347656 162.199219 80.726562 164.824219 C 74.699219 170.851562 71.148438 178.160156 69.617188 186.484375 C 68.792969 190.953125 68.519531 195.480469 68.488281 200.027344 C 68.441406 206.628906 68.757812 213.222656 68.863281 219.820312 C 68.953125 225.296875 69.199219 230.777344 68.574219 236.246094 C 68.210938 239.410156 67.75 242.550781 66.867188 245.617188 C 65.449219 250.542969 63.871094 255.414062 62.140625 260.238281 C 61.1875 262.902344 60.398438 265.613281 59.765625 268.371094 C 58.894531 272.167969 58.191406 275.996094 58.398438 279.914062 C 58.515625 282.152344 58.75 284.378906 58.9375 286.609375 C 59.21875 289.988281 60.203125 293.191406 61.445312 296.320312 C 61.769531 297.136719 62.03125 297.753906 62.480469 298.511719 C 62.597656 298.707031 63.4375 299.859375 63.4375 299.859375 C 63.34375 299.507812 63.15625 298.429688 63.066406 298.097656 C 62.355469 295.460938 62.046875 292.777344 62.246094 290.050781 C 62.40625 287.847656 63.019531 285.777344 64.175781 283.871094 C 65.085938 282.367188 66.402344 281.410156 68.097656 281.113281 C 71.050781 280.589844 73.8125 280.914062 76.191406 283.054688 C 78.78125 285.390625 81.039062 288.027344 83.335938 290.632812 C 85.550781 293.15625 87.769531 295.675781 89.984375 298.195312 C 90.496094 298.777344 91.070312 299.265625 91.765625 299.621094 C 92.730469 300.113281 93.648438 300.125 94.628906 299.605469 C 96.46875 298.636719 97.84375 297.242188 98.734375 295.371094 C 100.753906 291.128906 102.007812 286.660156 102.46875 281.996094 C 102.804688 278.589844 102.660156 275.160156 102.378906 271.753906 C 102.078125 268.054688 101.660156 264.367188 101.308594 260.671875 C 100.773438 255.039062 100.304688 249.398438 100.140625 243.746094 C 99.996094 238.75 99.992188 233.742188 100.027344 228.742188 C 100.039062 227.191406 100.109375 225.644531 100.210938 224.097656 C 100.304688 222.710938 100.3125 221.285156 100.503906 219.910156 C 100.546875 219.617188 100.667969 219.066406 101.078125 219.171875 C 101.300781 219.230469 101.359375 219.527344 101.375 219.726562 C 101.496094 221.308594 101.65625 222.894531 101.714844 224.484375 C 101.851562 228.308594 101.9375 232.136719 102.046875 235.964844 C 102.101562 237.792969 102.105469 239.621094 102.230469 241.441406 C 102.492188 245.320312 102.832031 249.195312 103.117188 253.074219 C 103.402344 256.953125 103.898438 260.808594 104.414062 264.660156 C 104.777344 267.40625 105.207031 270.144531 105.28125 272.917969 C 105.347656 275.507812 105.359375 278.101562 105.355469 280.695312 C 105.355469 281.988281 105.300781 283.285156 105.101562 284.570312 C 104.554688 288.082031 103.5625 291.460938 102.207031 294.742188 C 102.042969 295.136719 101.714844 296.085938 101.714844 296.085938 C 101.714844 296.085938 102.996094 295.984375 103.519531 295.964844 C 104.625 295.921875 105.980469 295.902344 107.140625 296.183594 C 109.121094 296.65625 111.851562 298.097656 111.851562 298.097656 C 111.851562 298.097656 112.113281 297.3125 112.238281 296.894531 C 112.492188 296.046875 113.105469 292.375 113.273438 291.511719 C 114.332031 286.019531 114.667969 283.964844 115.160156 278.382812 C 115.613281 273.21875 116.222656 268.070312 116.730469 262.910156 C 117.171875 258.453125 117.597656 254 117.988281 249.539062 C 118.285156 246.136719 118.492188 242.722656 118.800781 239.320312 C 118.988281 237.210938 119.292969 235.109375 119.777344 233.042969 C 119.925781 232.414062 120.136719 231.800781 120.367188 231.195312 C 120.488281 230.867188 120.6875 230.554688 121.09375 230.507812 C 121.363281 230.476562 121.550781 230.964844 121.460938 231.546875 C 120.933594 234.867188 120.710938 238.222656 120.542969 241.570312 C 120.304688 246.398438 120.1875 251.230469 119.78125 256.046875 C 119.402344 260.566406 119.007812 265.085938 118.582031 269.601562 C 118.171875 274 117.714844 278.394531 117.285156 282.789062 C 116.933594 286.394531 116.582031 290 115.945312 293.570312 C 115.289062 297.253906 114.816406 300.96875 114.480469 304.695312 C 114.042969 309.5625 113.640625 314.4375 113.289062 319.3125 C 112.917969 324.484375 112.582031 329.179688 112.792969 334.367188 C 112.800781 334.585938 112.914062 336.023438 112.914062 336.023438 C 112.914062 336.023438 113.925781 334.699219 114.289062 334.339844 C 114.707031 333.925781 115.136719 333.519531 115.613281 333.175781 C 118.320312 331.238281 121.242188 329.75 124.554688 329.152344 C 126.757812 328.75 128.976562 328.472656 131.21875 328.414062 C 135.019531 328.3125 138.726562 328.945312 142.355469 330.023438 C 146.339844 331.207031 150.09375 332.851562 153.140625 335.804688 C 153.265625 335.925781 153.769531 336.507812 153.769531 336.507812 C 153.769531 336.507812 153.671875 334.8125 153.574219 334.25 C 152.820312 329.832031 152.257812 325.390625 152.023438 320.917969 C 151.777344 316.269531 151.789062 311.609375 151.890625 306.953125 C 151.992188 302.296875 152.273438 297.652344 152.5625 293.007812 C 152.785156 289.417969 153.046875 285.835938 153.460938 282.265625 C 154.375 274.421875 155.667969 266.636719 157.097656 258.875 C 158.21875 252.796875 159.324219 246.714844 160.445312 240.632812 C 161.878906 232.871094 163.210938 225.09375 165.019531 217.40625 C 166.324219 211.847656 167.558594 206.269531 169.273438 200.8125 C 169.484375 200.140625 169.734375 199.480469 169.972656 198.816406 C 170.058594 198.570312 170.234375 198.4375 170.589844 198.421875 C 170.546875 199.375 170.332031 200.289062 170.148438 201.207031 C 169.144531 206.289062 168.113281 211.367188 167.121094 216.453125 C 165.78125 223.332031 164.667969 230.25 163.488281 237.160156 C 161.742188 247.375 159.90625 257.574219 158.148438 267.789062 C 157.199219 273.304688 156.449219 278.851562 155.871094 284.417969 C 155.324219 289.695312 155.0625 294.992188 154.824219 300.289062 C 154.589844 305.527344 154.519531 310.773438 154.632812 316.019531 C 154.742188 321.210938 155.015625 326.375 156.082031 331.476562 C 156.699219 334.421875 156.996094 337.414062 156.882812 340.4375 C 156.816406 342.15625 156.550781 343.835938 155.851562 345.421875 C 154.777344 347.859375 153.558594 350.195312 151.699219 352.15625 C 150.84375 353.050781 150.210938 354.125 149.734375 355.28125 C 149.171875 356.664062 149.316406 357.910156 150.351562 359.042969 C 151.828125 360.648438 153.605469 361.746094 155.703125 362.308594 C 157.929688 362.90625 160.144531 362.628906 162.335938 362.089844 C 166.230469 361.140625 169.707031 359.351562 172.847656 356.867188 C 176.265625 354.160156 179.824219 351.644531 183.523438 349.339844 C 186.699219 347.359375 190.09375 345.90625 193.734375 345.050781 C 196.261719 344.457031 198.8125 344.097656 201.433594 344.527344 C 202.613281 344.71875 203.863281 345.398438 204.933594 345.777344 C 204.933594 345.777344 204.796875 344.933594 204.730469 344.648438 C 204.527344 343.789062 204.390625 343.050781 204.230469 342.183594 C 203.5625 338.652344 202.917969 335.121094 202.277344 331.585938 C 201.398438 326.710938 200.777344 321.800781 200.425781 316.867188 C 199.902344 309.582031 199.429688 302.289062 199.085938 294.992188 C 198.738281 287.578125 198.554688 280.15625 198.347656 272.734375 C 198.214844 267.960938 198.21875 263.1875 198.390625 258.417969 C 198.628906 251.820312 198.96875 245.230469 199.207031 238.636719 C 199.511719 230.21875 199.789062 221.796875 200.738281 213.417969 C 200.914062 211.839844 201.199219 210.269531 201.449219 208.699219 C 201.484375 208.476562 201.589844 208.257812 201.699219 208.050781 C 201.75 207.960938 201.878906 207.859375 201.972656 207.859375 C 202.140625 207.859375 202.300781 207.933594 202.351562 208.140625 C 202.554688 208.949219 202.511719 209.777344 202.492188 210.601562 C 202.363281 215.722656 202.222656 220.847656 202.09375 225.972656 C 202.03125 228.269531 202.019531 230.570312 201.9375 232.867188 C 201.679688 240.050781 201.351562 247.230469 201.140625 254.417969 C 200.910156 262.371094 200.941406 270.324219 201.257812 278.277344 C 201.546875 285.519531 201.875 292.757812 202.382812 299.988281 C 202.777344 305.628906 203.160156 311.273438 203.597656 316.910156 C 203.792969 319.4375 204.066406 321.957031 204.390625 324.46875 C 205.121094 330.136719 206.214844 335.742188 207.316406 341.347656 C 207.65625 343.082031 208.023438 344.8125 208.25 346.5625 C 208.578125 349.085938 208.578125 351.59375 207.882812 354.097656 C 207.441406 355.683594 206.996094 357.269531 206.554688 358.859375 C 205.789062 361.644531 206.800781 363.878906 209.402344 365.152344 C 209.980469 365.4375 210.597656 365.644531 211.210938 365.839844 C 212.84375 366.355469 214.53125 366.632812 216.226562 366.84375 C 220.988281 367.433594 225.753906 367.222656 230.507812 366.769531 C 235.726562 366.273438 240.878906 365.332031 246.023438 364.34375 C 248.511719 363.863281 250.941406 363.191406 253.265625 362.140625 C 255.398438 361.175781 257.203125 359.792969 258.742188 358.050781 C 259.128906 357.609375 259.46875 357.125 259.808594 356.644531 C 260.34375 355.878906 260.308594 355.082031 259.800781 354.332031 C 259.53125 353.941406 259.203125 353.582031 258.863281 353.242188 C 258.296875 352.679688 257.703125 352.140625 257.101562 351.613281 C 255.578125 350.269531 254.21875 348.789062 253.226562 347.003906 C 253.054688 346.695312 252.839844 346.410156 252.636719 346.125 C 251.210938 344.160156 250.085938 342.03125 249.128906 339.804688 C 246.574219 333.84375 244.378906 327.753906 242.429688 321.574219 C 238.816406 310.105469 235.835938 298.476562 233.269531 286.734375 C 231.523438 278.730469 230.121094 270.667969 228.917969 262.570312 C 228.339844 258.667969 227.796875 254.757812 227.292969 250.84375 C 226.84375 247.339844 226.464844 243.824219 226.058594 240.316406 C 225.882812 238.796875 225.71875 237.273438 225.554688 235.75 C 225.292969 233.289062 225.007812 230.832031 224.777344 228.371094 C 224.554688 225.964844 224.382812 223.554688 224.191406 221.148438 C 224.148438 220.5625 224.09375 219.972656 224.089844 219.382812 C 224.085938 218.832031 224.371094 218.421875 224.675781 218.4375 C 225.117188 218.464844 225.238281 218.828125 225.355469 219.148438 C 225.800781 220.375 225.992188 221.664062 226.128906 222.949219 C 226.535156 226.695312 226.867188 230.453125 227.300781 234.195312 C 227.917969 239.519531 228.628906 244.832031 229.242188 250.15625 C 230.054688 257.242188 231.292969 264.257812 232.65625 271.253906 C 234.628906 281.371094 236.902344 291.421875 239.582031 301.375 C 242.242188 311.269531 245.015625 321.132812 248.363281 330.824219 C 249.324219 333.605469 250.324219 336.375 251.515625 339.070312 C 251.632812 339.328125 252.125 340.285156 252.125 340.285156 C 252.125 340.285156 252.226562 339.511719 252.246094 339.417969 C 253.855469 331.578125 258.335938 325.648438 264.574219 320.894531 C 264.898438 320.648438 265.230469 320.414062 265.578125 320.203125 C 268.75 318.269531 272.078125 317.089844 275.847656 318.042969 C 275.894531 318.054688 276.308594 318.117188 276.308594 318.117188 C 276.308594 318.117188 275.757812 317.242188 275.542969 316.933594 C 274.332031 315.191406 273.058594 313.492188 271.96875 311.671875 C 267.953125 304.980469 264.757812 297.90625 262.160156 290.558594 C 259.945312 284.277344 258.285156 277.828125 256.542969 271.410156 C 254.921875 265.433594 253.902344 259.332031 252.65625 253.277344 C 251.394531 247.164062 250.355469 241.007812 249.328125 234.851562 C 248.277344 228.566406 247.597656 222.246094 247.097656 215.902344 C 247.003906 214.730469 247.046875 213.546875 247.058594 212.371094 C 247.0625 211.921875 247.082031 211.445312 247.554688 211.109375 C 247.917969 211.472656 247.984375 211.941406 248.0625 212.402344 C 248.523438 215.070312 249.007812 217.734375 249.433594 220.410156 C 250.027344 224.132812 250.570312 227.863281 251.144531 231.585938 C 252.777344 242.183594 255.074219 252.65625 257.363281 263.125 C 258.757812 269.515625 260.671875 275.769531 262.417969 282.066406 C 264.34375 289.011719 266.941406 295.691406 270.078125 302.175781 C 273.300781 308.832031 277.433594 314.921875 281.582031 321.003906 C 283.210938 323.390625 285.628906 323.859375 288.285156 323.582031 C 289.738281 323.429688 290.941406 322.617188 292.078125 321.792969 C 296.105469 318.878906 299.828125 315.636719 302.667969 311.492188 C 302.933594 311.105469 303.203125 310.660156 303.203125 310.660156 C 303.203125 310.660156 302.9375 310.273438 302.609375 309.824219 C 300.796875 307.351562 299.078125 304.820312 297.496094 302.195312 C 295.765625 299.316406 294.214844 296.335938 292.660156 293.363281 C 289.265625 286.878906 286.425781 280.152344 284.230469 273.171875 C 281.496094 264.464844 278.855469 255.730469 276.398438 246.9375 C 273.59375 236.890625 271.277344 226.738281 269.539062 216.449219 C 268.898438 212.675781 268.269531 208.902344 267.652344 205.121094 C 266.6875 199.191406 265.757812 193.257812 265.089844 187.285156 C 264.910156 185.648438 264.851562 183.996094 264.75 182.351562 C 264.710938 181.699219 264.785156 181.058594 265.066406 180.453125 C 265.128906 180.320312 265.203125 180.246094 265.328125 180.292969 C 265.429688 180.332031 265.558594 180.375 265.605469 180.457031 C 265.914062 180.976562 265.980469 181.5625 266.078125 182.144531 C 266.589844 185.222656 267.089844 188.304688 267.644531 191.375 C 268.753906 197.457031 269.878906 203.535156 271.035156 209.609375 C 272.277344 216.148438 273.550781 222.679688 275.03125 229.167969 C 278.359375 243.761719 282.703125 258.070312 287.28125 272.3125 C 287.417969 272.738281 287.835938 273.890625 287.835938 273.890625 C 287.835938 273.890625 288.433594 271.371094 288.59375 270.683594 C 289.609375 266.25 291.136719 261.992188 292.882812 257.792969 C 294.160156 254.722656 295.8125 251.890625 297.796875 249.238281 C 299.902344 246.429688 302.484375 244.117188 305.425781 242.210938 C 307.019531 241.175781 308.816406 240.398438 310.476562 239.964844 C 311.199219 239.777344 312.042969 239.722656 312.042969 239.722656 C 312.042969 239.722656 311.277344 237.796875 310.769531 236.878906 C 309.628906 234.820312 308.480469 232.761719 307.351562 230.695312 C 304.410156 225.320312 301.507812 219.929688 299.003906 214.332031 C 297.222656 210.351562 295.453125 206.371094 293.6875 202.386719 C 292.183594 198.992188 290.734375 195.578125 289.589844 192.046875 C 288.300781 188.070312 287.09375 184.066406 285.894531 180.0625 C 284.15625 174.253906 282.628906 168.382812 280.78125 162.605469 C 279.917969 159.90625 279.253906 157.152344 278.726562 154.367188 C 278.363281 152.441406 277.953125 150.523438 277.515625 148.617188 C 274.230469 134.320312 271.683594 119.859375 269.808594 105.3125 C 268.042969 91.644531 267.308594 77.921875 263.894531 64.515625 C 261.832031 56.40625 258.867188 48.523438 254.6875 41.261719 C 253.785156 39.695312 252.84375 38.148438 251.867188 36.625 C 249.511719 32.945312 247.035156 29.371094 243.984375 26.222656 C 240.9375 23.078125 237.648438 20.226562 233.929688 17.914062 C 228.003906 14.226562 221.441406 12.507812 214.566406 11.839844 C 210.988281 11.492188 207.40625 11.515625 203.808594 11.769531 C 197.875 12.1875 192.191406 13.542969 186.757812 15.949219 C 179.199219 19.289062 172.457031 23.859375 166.40625 29.476562 C 162.332031 33.261719 158.648438 37.367188 155.703125 42.117188 C 154.550781 43.972656 153.664062 45.964844 152.625 47.878906 C 150.117188 52.503906 148.203125 57.375 146.566406 62.363281 C 145.335938 66.117188 144.511719 69.976562 143.621094 73.820312 C 142.058594 80.539062 141.085938 86.289062 140.332031 93.144531 C 140.03125 95.898438 138.707031 106.097656 138.609375 111.335938 C 138.558594 113.984375 138.65625 119.179688 138.878906 121.929688 Z M 104.371094 143 C 104.066406 142.980469 103.644531 143.277344 103.355469 143.453125 C 102.671875 143.871094 101.867188 144.097656 101.101562 144.324219 C 101.101562 144.324219 101.082031 144.578125 101.070312 144.902344 C 100.984375 147.488281 100.828125 149.113281 100.664062 152.230469 C 100.605469 153.347656 100.609375 154.898438 100.539062 156.015625 C 100.371094 158.777344 100.132812 161.535156 100.007812 164.296875 C 99.664062 171.675781 99.660156 179.035156 99.472656 186.414062 C 99.394531 189.394531 99.375 191.367188 99.402344 193.851562 C 99.429688 196.472656 99.472656 198.796875 99.476562 201.585938 C 99.476562 202.414062 99.484375 203.007812 99.484375 203.007812 C 99.484375 203.007812 107.054688 206.222656 110.621094 207.023438 C 117.59375 208.59375 124.941406 208.890625 132.074219 208.664062 C 138.683594 208.453125 145.976562 206.554688 145.976562 206.554688 C 145.976562 206.554688 145.988281 206.671875 146.046875 205.890625 C 146.363281 201.839844 146.714844 197.792969 146.949219 193.734375 C 147.15625 190.09375 147.21875 185.730469 147.375 182.082031 C 147.375 182.082031 146.988281 181.722656 146.742188 181.34375 C 144.785156 178.324219 145.46875 174.398438 145.539062 171.128906 C 145.617188 167.535156 145.828125 163.914062 145.3125 160.339844 C 145.199219 159.542969 145.070312 158.738281 144.902344 157.949219 C 144.398438 155.59375 143.285156 153.535156 141.875 151.632812 C 140.980469 150.421875 140.039062 150.175781 138.609375 150.632812 C 138.273438 150.738281 137.953125 150.898438 137.632812 151.039062 C 137.144531 151.25 136.667969 151.472656 136.179688 151.679688 C 133.75 152.703125 131.226562 153.183594 128.597656 152.941406 C 126.003906 152.703125 123.992188 151.589844 123.035156 149.007812 C 122.710938 148.132812 122.703125 148.144531 121.867188 148.640625 C 121.261719 149.003906 120.664062 149.394531 120.023438 149.679688 C 114.847656 151.96875 106.96875 149.972656 104.972656 144.175781 C 104.839844 143.785156 104.773438 143.019531 104.371094 142.996094 Z M 147.609375 174.160156 C 147.667969 175.570312 147.59375 176.988281 148 178.371094 C 148.304688 179.414062 148.792969 180.335938 149.625 181.046875 C 150.089844 181.449219 150.5625 181.429688 151.070312 181.070312 C 151.6875 180.640625 151.972656 179.996094 152.214844 179.328125 C 152.808594 177.6875 152.828125 175.976562 152.773438 174.265625 C 152.617188 169.554688 152.480469 165.433594 152.839844 160.726562 C 152.925781 159.613281 152.949219 157.890625 152.847656 156.78125 C 152.601562 154.085938 152.257812 151.398438 151.988281 148.703125 C 151.734375 146.136719 151.769531 146.128906 154.167969 145.292969 C 155 145.007812 155.878906 144.785156 156.636719 144.355469 C 159.710938 142.601562 160.785156 139.480469 159.527344 136.171875 C 159.050781 134.917969 158.242188 133.925781 157.101562 133.222656 C 155.855469 132.457031 154.5625 132.347656 153.238281 133.023438 C 152.980469 133.15625 152.738281 133.328125 152.46875 133.449219 C 152.019531 133.652344 151.605469 133.421875 151.570312 132.960938 C 151.558594 132.785156 151.554688 132.609375 151.566406 132.433594 C 151.742188 129.621094 150.429688 127.582031 148.226562 126.019531 C 147.054688 125.1875 145.714844 124.742188 144.328125 124.4375 C 141.179688 123.746094 138.234375 124.160156 135.625 126.164062 C 134.601562 126.953125 133.625 127.808594 132.636719 128.640625 C 132.410156 128.828125 132.222656 129.0625 131.984375 129.234375 C 131.609375 129.507812 130.988281 129.390625 130.746094 128.988281 C 130.59375 128.742188 130.488281 128.460938 130.390625 128.1875 C 130.109375 127.410156 129.886719 126.613281 129.566406 125.851562 C 128.214844 122.621094 125.664062 120.863281 122.300781 120.40625 C 118.757812 119.925781 115.699219 121.132812 113.144531 123.632812 C 112.070312 124.683594 111.300781 125.910156 110.863281 127.355469 C 110.570312 128.320312 110.359375 129.289062 110.28125 130.292969 C 110.242188 130.796875 109.8125 131.234375 109.417969 131.285156 C 109.023438 131.332031 108.738281 131.113281 108.5 130.84375 C 108.3125 130.621094 108.164062 130.363281 108 130.117188 C 107.535156 129.4375 107.085938 128.746094 106.609375 128.070312 C 105.390625 126.328125 103.933594 125.785156 101.859375 126.359375 C 98.628906 127.246094 96.597656 129.382812 95.667969 132.554688 C 94.804688 135.492188 95.617188 138.011719 97.785156 140.121094 C 98.167969 140.496094 98.628906 140.753906 99.128906 140.953125 C 100.757812 141.601562 102.25 141.1875 103.671875 140.347656 C 104.128906 140.082031 104.523438 139.71875 104.964844 139.425781 C 105.585938 139.011719 106.085938 139.183594 106.324219 139.910156 C 106.5625 140.636719 106.738281 141.382812 106.976562 142.109375 C 108.050781 145.40625 111.113281 147.902344 114.558594 148.050781 C 117.90625 148.199219 120.957031 147.324219 123.320312 144.742188 C 123.359375 144.699219 123.402344 144.660156 123.449219 144.625 C 123.714844 144.402344 124.214844 144.457031 124.371094 144.773438 C 124.632812 145.300781 124.863281 145.839844 125.066406 146.390625 C 125.964844 148.84375 127.816406 149.945312 130.320312 150.164062 C 132.109375 150.320312 133.835938 150.046875 135.535156 149.488281 C 136.261719 149.246094 136.984375 148.980469 137.726562 148.824219 C 140.15625 148.3125 142.339844 148.808594 143.96875 150.757812 C 145.882812 153.046875 147.230469 155.625 147.695312 158.640625 C 148.191406 161.871094 148.109375 165.101562 147.90625 168.335938 C 147.808594 169.925781 147.597656 173.804688 147.613281 174.160156 Z M 98.765625 147.359375 C 97.292969 147.449219 95.980469 147.535156 93.949219 147.894531 C 91.835938 148.265625 90.257812 148.6875 88.921875 149.460938 C 87.714844 150.160156 87.433594 150.839844 86.996094 152.171875 C 86.242188 154.460938 85.753906 158.0625 85.753906 158.0625 C 85.753906 158.0625 87.296875 157.359375 88.761719 157.164062 C 90.007812 157 91.148438 156.976562 91.148438 156.976562 C 91.148438 156.976562 91.519531 155.4375 91.84375 154.671875 C 92.640625 152.796875 94.839844 151.984375 96.332031 151.703125 C 96.964844 151.582031 98.433594 151.351562 98.433594 151.351562 C 98.433594 151.351562 98.507812 150.238281 98.542969 149.722656 C 98.601562 148.898438 98.691406 148.300781 98.765625 147.363281 Z M 91.242188 182.210938 C 89.628906 183.179688 87.972656 184.273438 87.011719 185.949219 C 87.988281 187.792969 89.625 189.128906 91.566406 189.707031 C 93.871094 190.375 96.785156 189.96875 96.785156 189.96875 C 96.785156 189.96875 96.820312 189.386719 96.84375 189.070312 C 96.921875 187.960938 96.976562 185.269531 96.976562 185.269531 C 96.976562 185.269531 96.007812 185.160156 95.71875 185.117188 C 94.035156 184.859375 92.714844 184.320312 91.628906 182.8125 C 91.542969 182.675781 91.390625 182.480469 91.238281 182.210938 Z M 98.121094 160.457031 C 98.121094 159.75 98.136719 159.347656 98.148438 159.011719 C 98.207031 157.503906 98.25 156.332031 98.277344 154.925781 C 98.289062 154.214844 98.277344 153.476562 98.277344 153.476562 C 98.277344 153.476562 97.503906 153.539062 97.023438 153.648438 C 96.464844 153.773438 96.105469 153.886719 95.519531 154.105469 C 94.949219 154.324219 94.527344 154.617188 94.191406 154.914062 C 93.730469 155.3125 93.390625 156.085938 93.246094 157.078125 C 95.09375 157.292969 97.125 158.800781 98.117188 160.457031 Z M 97.261719 178.140625 C 97.28125 177.53125 97.316406 176.660156 97.316406 176.660156 C 97.316406 176.660156 96.613281 177.507812 95.746094 178.46875 C 94.875 179.429688 92.921875 181.15625 92.921875 181.15625 C 92.921875 181.15625 92.878906 181.328125 93.46875 181.855469 C 94.988281 183.3125 97.125 183.128906 97.125 183.128906 C 97.125 183.128906 97.128906 182.96875 97.167969 181.972656 C 97.195312 181.324219 97.257812 178.910156 97.261719 178.140625 Z M 182.929688 80.679688 C 181.9375 76.046875 179.832031 70.777344 174.269531 70.839844 C 169.40625 70.894531 166.144531 75.8125 164.648438 79.90625 C 161.078125 89.679688 160.296875 100.621094 161.753906 110.878906 C 162.109375 113.378906 162.621094 115.902344 163.824219 118.121094 C 167.257812 124.46875 174.90625 124.542969 179.125 119.214844 C 183.4375 113.773438 184.226562 105.976562 184.335938 99.175781 C 184.34375 98.824219 184.34375 98.472656 184.34375 98.121094 C 184.339844 92.125 184.179688 86.519531 182.929688 80.679688 Z M 227.730469 80.679688 C 226.738281 76.046875 224.632812 70.777344 219.070312 70.839844 C 214.207031 70.894531 210.945312 75.8125 209.449219 79.90625 C 205.878906 89.679688 205.097656 100.621094 206.554688 110.878906 C 206.910156 113.378906 207.421875 115.902344 208.621094 118.121094 C 212.058594 124.46875 219.707031 124.542969 223.925781 119.214844 C 228.238281 113.773438 229.027344 105.976562 229.136719 99.175781 C 229.144531 98.824219 229.144531 98.472656 229.144531 98.121094 C 229.140625 92.125 228.980469 86.519531 227.730469 80.679688 Z M 112.878906 175.542969 C 112.941406 179.140625 112.929688 182.839844 112.792969 186.46875 C 112.722656 188.316406 112.613281 190.160156 112.488281 192.007812 C 112.378906 193.578125 112.273438 195.226562 111.53125 196.652344 C 110.425781 198.769531 107.386719 199 105.894531 197.125 C 104.777344 195.71875 104.898438 193.726562 104.785156 192.027344 C 104.628906 189.6875 104.625 187.34375 104.503906 185 C 104.300781 180.882812 104.378906 176.773438 104.339844 172.660156 C 104.3125 170.195312 104.328125 167.730469 104.476562 165.273438 C 104.613281 162.960938 104.675781 160.460938 105.632812 158.320312 C 106.242188 156.945312 107.378906 156.285156 108.855469 156.273438 C 111.953125 156.246094 112.1875 159.707031 112.375 161.957031 C 112.703125 165.949219 112.796875 169.960938 112.855469 173.964844 C 112.859375 174.492188 112.871094 175.019531 112.878906 175.546875 Z M 110.953125 176.566406 C 110.933594 172.195312 110.808594 167.820312 110.566406 163.460938 C 110.5 162.046875 110.617188 160.28125 110.085938 158.957031 C 109.867188 158.378906 109.515625 157.929688 108.824219 157.890625 C 108.175781 157.851562 107.539062 158.085938 107.1875 158.652344 C 106.941406 159.042969 106.839844 159.503906 106.757812 159.957031 C 105.746094 165.28125 106.113281 171 106.136719 176.402344 C 106.148438 179.546875 106.214844 182.695312 106.261719 185.839844 C 106.304688 188.804688 105.960938 192.011719 106.730469 194.898438 C 106.820312 195.230469 106.921875 195.5625 107.113281 195.847656 C 107.921875 197.054688 109.726562 196.433594 110.128906 195.210938 C 110.761719 193.269531 110.636719 191.03125 110.722656 189.007812 C 110.820312 186.714844 110.886719 184.417969 110.921875 182.117188 C 110.949219 180.269531 110.960938 178.417969 110.953125 176.566406 Z M 127.632812 175.542969 C 127.695312 179.140625 127.683594 182.839844 127.546875 186.46875 C 127.476562 188.316406 127.367188 190.160156 127.242188 192.007812 C 127.132812 193.578125 127.027344 195.226562 126.285156 196.652344 C 125.179688 198.769531 122.140625 199 120.648438 197.125 C 119.53125 195.71875 119.652344 193.726562 119.539062 192.027344 C 119.382812 189.6875 119.378906 187.34375 119.257812 185 C 119.054688 180.882812 119.132812 176.773438 119.089844 172.660156 C 119.066406 170.195312 119.082031 167.730469 119.230469 165.273438 C 119.367188 162.960938 119.429688 160.460938 120.386719 158.320312 C 120.996094 156.945312 122.132812 156.285156 123.609375 156.273438 C 126.707031 156.246094 126.941406 159.707031 127.128906 161.957031 C 127.457031 165.949219 127.550781 169.960938 127.605469 173.964844 C 127.613281 174.492188 127.625 175.019531 127.632812 175.546875 Z M 125.707031 176.566406 C 125.6875 172.195312 125.5625 167.820312 125.320312 163.460938 C 125.253906 162.046875 125.371094 160.28125 124.839844 158.957031 C 124.621094 158.378906 124.269531 157.929688 123.578125 157.890625 C 122.929688 157.851562 122.289062 158.085938 121.9375 158.652344 C 121.695312 159.042969 121.59375 159.503906 121.511719 159.957031 C 120.5 165.28125 120.867188 171 120.890625 176.402344 C 120.902344 179.546875 120.96875 182.695312 121.015625 185.839844 C 121.058594 188.804688 120.714844 192.011719 121.484375 194.898438 C 121.570312 195.230469 121.675781 195.5625 121.867188 195.847656 C 122.675781 197.054688 124.480469 196.433594 124.878906 195.210938 C 125.515625 193.269531 125.390625 191.03125 125.476562 189.007812 C 125.570312 186.714844 125.640625 184.417969 125.675781 182.117188 C 125.703125 180.269531 125.714844 178.417969 125.707031 176.566406 Z M 142.324219 175.542969 C 142.390625 179.140625 142.375 182.839844 142.238281 186.46875 C 142.167969 188.316406 142.058594 190.160156 141.933594 192.007812 C 141.828125 193.578125 141.71875 195.226562 140.976562 196.652344 C 139.871094 198.769531 136.832031 199 135.339844 197.125 C 134.222656 195.71875 134.34375 193.726562 134.230469 192.027344 C 134.074219 189.6875 134.074219 187.34375 133.949219 185 C 133.746094 180.882812 133.824219 176.773438 133.785156 172.660156 C 133.761719 170.195312 133.773438 167.730469 133.921875 165.273438 C 134.058594 162.960938 134.121094 160.460938 135.078125 158.320312 C 135.691406 156.945312 136.824219 156.285156 138.304688 156.273438 C 141.398438 156.246094 141.636719 159.707031 141.820312 161.957031 C 142.148438 165.949219 142.242188 169.960938 142.300781 173.964844 C 142.308594 174.492188 142.316406 175.019531 142.324219 175.546875 Z M 140.398438 176.566406 C 140.378906 172.195312 140.257812 167.820312 140.011719 163.460938 C 139.945312 162.046875 140.0625 160.28125 139.535156 158.957031 C 139.3125 158.378906 138.960938 157.929688 138.269531 157.890625 C 137.625 157.851562 136.984375 158.085938 136.632812 158.652344 C 136.390625 159.042969 136.289062 159.503906 136.203125 159.957031 C 135.191406 165.28125 135.558594 171 135.582031 176.402344 C 135.597656 179.546875 135.660156 182.695312 135.707031 185.839844 C 135.753906 188.804688 135.410156 192.011719 136.175781 194.898438 C 136.265625 195.230469 136.371094 195.5625 136.558594 195.847656 C 137.367188 197.054688 139.171875 196.433594 139.574219 195.210938 C 140.210938 193.269531 140.082031 191.03125 140.167969 189.007812 C 140.265625 186.714844 140.332031 184.417969 140.367188 182.117188 C 140.394531 180.269531 140.40625 178.417969 140.398438 176.566406 Z M 140.398438 176.566406 " fill-opacity="1" fill-rule="nonzero"/></g></svg>