<svg xmlns="http://www.w3.org/2000/svg" xmlns:xlink="http://www.w3.org/1999/xlink" width="500" zoomAndPan="magnify" viewBox="0 0 375 374.999991" height="500" preserveAspectRatio="xMidYMid meet" version="1.0"><defs><clipPath id="cd063c868b"><path d="M 64.539062 8 L 309.789062 8 L 309.789062 369.855469 L 64.539062 369.855469 Z M 64.539062 8 " clip-rule="nonzero"/></clipPath></defs><rect x="-37.5" width="450" fill="#ffffff" y="-37.499999" height="449.999989" fill-opacity="1"/><rect x="-37.5" width="450" fill="#ffffff" y="-37.499999" height="449.999989" fill-opacity="1"/><path fill="#fffcf6" d="M 274.269531 231.3125 C 274.367188 231.289062 274.5625 231.390625 274.617188 231.492188 C 274.785156 231.792969 274.964844 232.105469 275.035156 232.4375 C 275.332031 233.8125 275.621094 235.191406 275.859375 236.578125 C 276.769531 241.847656 277.5625 247.136719 278.578125 252.382812 C 281.046875 265.09375 283.707031 277.761719 286.964844 290.296875 C 289.109375 298.535156 291.292969 306.765625 294.195312 314.78125 C 294.671875 316.105469 296.070312 319.410156 296.070312 319.410156 C 296.070312 319.410156 296.261719 319.378906 296.695312 319.136719 C 299.472656 317.597656 302.148438 315.902344 304.367188 313.597656 C 305.652344 312.265625 306.199219 310.625 306.167969 308.78125 C 306.140625 307.140625 305.734375 305.566406 305.121094 304.066406 C 303.179688 299.304688 301.476562 294.464844 299.976562 289.546875 C 297.882812 282.683594 295.65625 275.859375 293.609375 268.984375 C 291.882812 263.183594 290.523438 257.28125 289.195312 251.378906 C 287.730469 244.859375 286.1875 238.351562 285.183594 231.742188 C 284.386719 226.527344 283.621094 221.308594 282.839844 216.089844 C 282.203125 211.847656 281.570312 207.605469 280.917969 203.363281 C 280.332031 199.539062 279.625 195.730469 279.152344 191.894531 C 278.5 186.59375 278.011719 181.269531 277.460938 175.953125 C 277.289062 174.273438 277.125 172.59375 276.988281 170.910156 C 276.742188 167.828125 276.527344 164.742188 276.054688 161.679688 C 275.871094 160.5 275.789062 159.304688 275.679688 158.113281 C 273.300781 132.414062 272.582031 106.019531 266.773438 80.734375 C 261.320312 56.992188 249.441406 31.097656 227.261719 18.875 C 223.96875 17.058594 220.507812 15.726562 216.875 14.800781 C 202.4375 11.121094 188.113281 14.347656 174.773438 20.183594 C 171.277344 21.710938 167.953125 23.492188 164.882812 25.792969 C 143.875 41.546875 138.398438 66.871094 130.195312 90.234375 C 127.535156 97.8125 125.371094 105.535156 123.265625 113.273438 C 120.277344 124.277344 118.128906 135.476562 115.703125 146.613281 C 114.550781 151.90625 113.53125 157.226562 112.394531 162.523438 C 111.304688 167.613281 110.097656 172.679688 109.019531 177.769531 C 106.570312 189.339844 103.632812 200.789062 100.414062 212.164062 C 98.457031 219.070312 96.34375 225.925781 94.289062 232.804688 C 91.148438 243.320312 87.976562 253.828125 84.863281 264.355469 C 83.601562 268.613281 82.0625 272.761719 80.253906 276.816406 C 79.308594 278.9375 78.414062 281.078125 77.550781 283.234375 C 75.5 288.324219 73.601562 293.476562 71.316406 298.472656 C 70.433594 300.394531 69.859375 302.425781 69.449219 304.507812 C 68.617188 308.757812 70.082031 312.175781 74.339844 314.796875 C 76.246094 315.96875 81.960938 318.011719 81.960938 318.011719 C 81.960938 318.011719 82.109375 317.648438 82.503906 316.328125 C 82.660156 315.789062 82.789062 315.238281 82.917969 314.691406 C 83.921875 310.519531 84.96875 306.355469 85.917969 302.167969 C 87.269531 296.199219 88.535156 290.210938 89.867188 284.238281 C 91.722656 275.925781 93.304688 267.5625 94.796875 259.183594 C 96.300781 250.734375 97.699219 242.269531 99.152344 233.808594 C 99.257812 233.1875 99.363281 232.558594 99.710938 232.007812 C 99.992188 231.566406 100.664062 231.601562 100.941406 232.058594 C 101.363281 232.761719 101.335938 233.542969 101.363281 234.3125 C 101.488281 237.417969 101.195312 240.503906 100.796875 243.574219 C 100.152344 248.523438 99.484375 253.476562 98.664062 258.402344 C 96.992188 268.460938 95.453125 278.546875 93.316406 288.527344 C 91.050781 299.121094 88.917969 309.742188 86.207031 320.238281 C 85.589844 322.621094 84.980469 325.007812 84.382812 327.398438 C 84.234375 328.011719 83.902344 330.5625 83.902344 330.5625 C 83.902344 330.5625 84.347656 330.332031 85.042969 330.164062 C 85.453125 330.0625 85.847656 329.898438 86.257812 329.804688 C 87.976562 329.414062 89.710938 329.042969 91.484375 329.316406 C 95.050781 329.867188 98.238281 331.28125 100.917969 333.714844 C 103.050781 335.660156 105.066406 337.730469 106.957031 339.914062 C 109.097656 342.386719 111.558594 344.457031 114.390625 346.097656 C 115.609375 346.804688 116.832031 347.519531 118.046875 348.21875 C 119.308594 348.945312 120.847656 349.375 122.199219 349.917969 C 122.597656 350.078125 123.007812 350.238281 123.4375 350.261719 C 124.132812 350.296875 124.988281 349.855469 124.433594 349.152344 C 124.039062 348.652344 123.394531 348.339844 122.867188 347.992188 C 120.273438 346.289062 117.511719 345.085938 115.332031 342.808594 C 113.4375 340.832031 112.125 338.382812 111.511719 335.71875 C 110.640625 331.941406 110.027344 328.121094 110.082031 324.230469 C 110.15625 318.878906 110.664062 313.5625 111.25 308.246094 C 111.960938 301.808594 112.949219 295.414062 114.15625 289.054688 C 115.304688 282.972656 116.570312 276.910156 117.847656 270.855469 C 119.371094 263.628906 120.945312 256.410156 122.53125 249.195312 C 123.800781 243.425781 125.121094 237.664062 126.433594 231.902344 C 126.589844 231.222656 126.828125 230.554688 127.101562 229.910156 C 127.269531 229.515625 127.621094 229.171875 128.097656 229.316406 C 128.554688 229.453125 128.644531 229.917969 128.679688 230.351562 C 128.691406 230.488281 128.691406 230.632812 128.675781 230.773438 C 128.542969 232.101562 128.464844 233.441406 128.253906 234.757812 C 127.398438 240.035156 126.585938 245.320312 125.601562 250.574219 C 124.128906 258.457031 122.523438 266.316406 120.976562 274.183594 C 119.289062 282.742188 117.476562 291.273438 116.316406 299.929688 C 115.773438 303.972656 115.140625 308.003906 114.816406 312.070312 C 114.644531 314.246094 114.496094 316.421875 114.25 318.585938 C 113.976562 320.96875 114.21875 327.40625 114.21875 327.40625 C 114.21875 327.40625 115.734375 326.1875 116.265625 325.730469 C 117.9375 324.292969 119.839844 323.234375 121.847656 322.355469 C 125.101562 320.929688 128.503906 320.214844 132.035156 319.800781 C 136.109375 319.320312 140.046875 319.820312 143.953125 320.792969 C 146.753906 321.492188 149.484375 322.453125 152.144531 323.582031 C 155.136719 324.855469 158.023438 326.300781 160.429688 328.550781 C 160.484375 328.597656 161.511719 329.664062 161.511719 329.664062 C 161.511719 329.664062 162.199219 322.59375 162.359375 320.074219 C 162.644531 315.515625 162.769531 310.9375 162.804688 306.367188 C 162.886719 294.757812 162.878906 283.144531 162.917969 271.53125 C 162.925781 269 162.824219 266.457031 163.019531 263.9375 C 163.371094 259.375 163.203125 254.792969 163.691406 250.238281 C 163.976562 247.585938 164.011719 244.902344 164.320312 242.25 C 164.550781 240.285156 164.609375 234.066406 164.609375 234.066406 C 164.609375 234.066406 162.59375 233.605469 162.523438 233.59375 C 159.941406 233.136719 157.4375 231.351562 155.570312 229.546875 C 152.441406 226.527344 151.324219 223.238281 150.609375 219.050781 C 150.042969 215.742188 150.363281 212.445312 150.785156 209.171875 C 150.925781 208.09375 150.988281 207.847656 151.015625 207.804688 C 150.839844 207.71875 149.101562 206.875 148.917969 206.792969 C 145.886719 205.472656 142.804688 204.269531 139.9375 202.585938 C 136.40625 200.515625 133.097656 198.128906 129.957031 195.507812 C 127.023438 193.058594 124.476562 190.246094 122.308594 187.097656 C 121.832031 186.402344 121.464844 185.636719 121.074219 184.890625 C 120.945312 184.644531 120.863281 184.367188 120.8125 184.09375 C 120.726562 183.648438 120.855469 183.25 121.226562 182.972656 C 121.609375 182.6875 122.046875 182.714844 122.40625 182.988281 C 122.90625 183.371094 123.386719 183.789062 123.824219 184.246094 C 127.1875 187.765625 130.855469 190.945312 134.730469 193.886719 C 136.632812 195.335938 138.492188 196.863281 140.632812 197.960938 C 143.199219 199.28125 145.785156 200.570312 148.390625 201.804688 C 149.53125 202.34375 152.8125 203.605469 152.8125 203.605469 C 152.8125 203.605469 153.128906 203.339844 153.488281 202.820312 C 156.046875 199.121094 159.957031 198.148438 163.417969 197.957031 L 166.117188 197.804688 C 166.117188 197.804688 166.195312 192.457031 168.199219 190.273438 C 169.191406 189.191406 171.441406 187.730469 172.640625 187.128906 C 179.085938 183.910156 187.417969 183.3125 194.652344 182.492188 C 199.34375 181.960938 204.109375 181.664062 208.867188 181.699219 C 215.570312 181.746094 222.261719 182.441406 228.738281 184.042969 C 230.808594 184.554688 232.773438 185.300781 234.480469 186.613281 C 236.75 188.359375 238.175781 190.65625 238.652344 193.480469 C 238.933594 195.140625 239.101562 196.820312 239.074219 198.519531 C 239.039062 201.265625 239.046875 204.011719 239.042969 206.753906 C 239.042969 207.386719 239.042969 208.023438 239.082031 208.652344 C 239.113281 209.15625 239.03125 209.640625 239.03125 209.640625 C 239.03125 209.640625 242.964844 207.9375 244.402344 207.195312 C 248.34375 205.164062 252.242188 203.042969 256.183594 201.019531 C 259.207031 199.464844 261.980469 197.542969 264.652344 195.472656 C 265.320312 194.953125 265.945312 194.382812 266.609375 193.863281 C 267.433594 193.21875 268.101562 193.113281 268.496094 193.523438 C 268.886719 193.933594 268.863281 194.644531 268.28125 195.464844 C 267.714844 196.265625 267.128906 197.085938 266.40625 197.738281 C 264.371094 199.578125 262.347656 201.449219 260 202.894531 C 254.425781 206.335938 248.824219 209.722656 242.890625 212.523438 C 241.492188 213.183594 240.066406 213.792969 238.679688 214.484375 C 236.003906 215.820312 233.695312 217.644531 231.691406 219.863281 C 230.589844 221.089844 229.722656 222.46875 229.308594 224.046875 C 228.398438 227.507812 228.742188 230.757812 231.304688 233.5 C 232.171875 234.425781 233.097656 235.292969 233.992188 236.1875 C 235.488281 237.679688 237.027344 239.132812 238.460938 240.679688 C 240.691406 243.082031 242.363281 245.839844 243.285156 249.007812 C 244.375 252.738281 245.042969 256.542969 245.074219 260.441406 C 245.101562 263.960938 245.121094 267.472656 244.601562 270.972656 C 244.027344 274.867188 243.507812 278.765625 242.625 282.617188 C 241.148438 289.074219 239.015625 295.339844 237.195312 301.695312 C 236.363281 304.601562 235.417969 307.476562 234.785156 310.441406 C 233.695312 315.535156 232.695312 320.640625 232.007812 325.804688 C 231.460938 329.921875 230.921875 334.03125 231.082031 338.203125 C 231.21875 341.65625 232.09375 344.863281 234.042969 347.746094 C 234.597656 348.570312 235.226562 349.316406 236.046875 349.898438 C 236.746094 350.390625 237.574219 350.910156 238.4375 350.515625 C 239.378906 350.085938 240.019531 348.878906 240.609375 348.085938 C 244.777344 342.476562 249.777344 338.074219 256.035156 334.925781 C 259.109375 333.398438 262.335938 332.425781 265.824219 333.167969 C 267.085938 333.433594 267.351562 333.632812 267.351562 333.632812 C 267.351562 333.632812 267.042969 331.230469 266.996094 330.953125 C 266.210938 326.515625 265.570312 322.058594 265.222656 317.570312 C 264.839844 312.59375 264.628906 307.601562 264.378906 302.617188 C 264.226562 299.527344 264.183594 296.433594 264.011719 293.339844 C 263.714844 288.144531 263.605469 282.9375 263.519531 277.730469 C 263.425781 272.171875 263.128906 266.628906 262.714844 261.085938 C 262.371094 256.527344 261.957031 251.976562 261.425781 247.4375 C 261.226562 245.761719 261.128906 244.074219 261.015625 242.390625 C 260.964844 241.621094 260.914062 240.84375 261.199219 240.09375 C 261.503906 239.300781 262.332031 239.128906 262.863281 239.757812 C 263.28125 240.25 263.546875 240.828125 263.71875 241.4375 C 263.996094 242.457031 264.269531 243.476562 264.484375 244.507812 C 265.75 250.578125 266.441406 256.730469 266.90625 262.902344 C 267.304688 268.230469 267.519531 273.574219 267.734375 278.914062 C 267.917969 283.484375 267.816406 288.058594 268.15625 292.625 C 268.40625 295.988281 268.3125 299.371094 268.566406 302.746094 C 268.824219 306.109375 268.808594 309.488281 269.011719 312.859375 C 269.320312 318.0625 269.855469 323.230469 270.613281 328.382812 C 271.179688 332.210938 271.738281 336.035156 272.296875 339.863281 C 272.496094 341.21875 272.375 342.523438 271.695312 343.75 C 270.601562 345.722656 269.457031 347.65625 268.09375 349.460938 C 267.246094 350.585938 266.46875 351.757812 265.675781 352.921875 C 265.117188 353.742188 264.710938 354.640625 264.4375 355.59375 C 264.273438 356.15625 264.609375 356.574219 265.191406 356.550781 C 266.277344 356.507812 267.246094 356.074219 268.1875 355.597656 C 271.027344 354.160156 273.660156 352.410156 276.046875 350.300781 C 278.316406 348.296875 280.554688 346.253906 282.878906 344.316406 C 284.605469 342.875 286.40625 341.515625 288.25 340.226562 C 290.683594 338.527344 293.296875 337.15625 296.164062 336.300781 L 297.632812 335.859375 C 297.632812 335.859375 295.910156 331.398438 295.109375 329.535156 C 294.074219 327.140625 292.988281 324.78125 292.230469 322.285156 C 289.957031 314.8125 287.792969 307.308594 285.800781 299.757812 C 282.050781 285.53125 278.976562 271.152344 276.214844 256.707031 C 275.023438 250.484375 274.253906 244.203125 273.679688 237.894531 C 273.527344 236.21875 273.5625 234.523438 273.546875 232.832031 C 273.546875 232.421875 273.644531 232 273.777344 231.605469 C 273.824219 231.464844 274.09375 231.363281 274.277344 231.320312 Z M 178.421875 139.617188 C 167.652344 139.617188 163.648438 124.824219 163.648438 106.574219 C 163.648438 88.324219 166.789062 73.53125 178.421875 73.53125 C 190.058594 73.53125 193.195312 88.324219 193.195312 106.574219 C 193.195312 124.824219 189.195312 139.617188 178.421875 139.617188 Z M 222.148438 139.617188 C 211.375 139.617188 207.375 124.824219 207.375 106.574219 C 207.375 88.324219 210.511719 73.53125 222.148438 73.53125 C 233.78125 73.53125 236.921875 88.324219 236.921875 106.574219 C 236.921875 124.824219 232.917969 139.617188 222.148438 139.617188 Z M 232.984375 354.859375 C 233.597656 355.515625 233.785156 356.132812 233.273438 356.933594 C 232.691406 357.847656 231.886719 358.519531 230.941406 359.023438 C 229.574219 359.753906 228.140625 360.328125 226.660156 360.804688 C 222.894531 362.011719 219.011719 362.679688 215.125 363.332031 C 212.074219 363.847656 208.996094 364.136719 205.898438 364.285156 C 203.019531 364.421875 200.15625 364.792969 197.277344 364.949219 C 194.46875 365.101562 191.652344 365.167969 188.839844 364.871094 C 188.003906 364.78125 187.15625 364.726562 186.316406 364.703125 C 176.996094 364.429688 167.832031 363.042969 158.792969 360.800781 C 156.871094 360.324219 155.035156 359.617188 153.316406 358.625 C 152.378906 358.082031 151.640625 357.371094 151.171875 356.371094 C 150.710938 355.386719 150.714844 354.445312 151.375 353.585938 C 152.183594 352.523438 153.023438 351.476562 153.925781 350.496094 C 154.734375 349.617188 155.617188 348.800781 156.519531 348.019531 C 157.691406 347 158.726562 345.859375 159.738281 344.683594 C 161.765625 342.328125 163.046875 339.621094 163.652344 336.605469 C 164.375 333.023438 165.304688 329.480469 165.742188 325.839844 C 165.960938 324.027344 166.25 322.214844 166.320312 320.390625 C 166.527344 315.191406 166.878906 310 166.859375 304.792969 C 166.820312 295.4375 166.75 286.078125 166.945312 276.722656 C 167.082031 270.113281 167.101562 263.503906 167.332031 256.898438 C 167.445312 253.667969 167.785156 250.445312 167.96875 247.21875 C 168.09375 245.113281 168.121094 243.003906 168.167969 241.570312 C 168.269531 238.433594 168.136719 235.808594 168.050781 233.917969 C 168.847656 233.8125 169.765625 233.632812 170.761719 233.332031 C 171.582031 233.085938 172.304688 232.804688 172.929688 232.519531 C 172.929688 232.519531 175.058594 235.089844 175.542969 235.601562 C 178.46875 238.675781 180.976562 240.527344 184.496094 242.402344 C 186.746094 243.605469 188.773438 244.492188 191.277344 244.886719 C 196.359375 245.695312 201.539062 245.941406 206.675781 245.675781 C 211.25 245.441406 216.21875 245.046875 220.566406 243.535156 C 223.054688 242.671875 225.285156 241.441406 227.316406 239.726562 C 228.097656 239.066406 229.308594 238.085938 229.308594 238.085938 C 229.308594 238.085938 234.691406 243.347656 236.632812 246.246094 C 237.664062 247.785156 238.34375 249.492188 238.773438 251.269531 C 239.964844 256.222656 240.464844 261.226562 239.9375 266.332031 C 239.515625 270.460938 238.996094 274.574219 238.207031 278.648438 C 237.242188 283.625 235.84375 288.492188 234.402344 293.347656 C 232.960938 298.203125 231.503906 303.058594 230.277344 307.96875 C 228.828125 313.765625 227.714844 319.636719 227.019531 325.585938 C 226.175781 332.78125 225.578125 340.066406 228.253906 346.96875 C 229.011719 348.929688 229.980469 350.804688 231.144531 352.554688 C 231.703125 353.394531 232.300781 354.132812 232.984375 354.863281 Z M 167.339844 224.300781 C 165.421875 223.863281 164.085938 222.703125 163.121094 221.050781 C 161.597656 218.433594 160.878906 215.851562 160.890625 212.832031 C 160.90625 211.636719 160.871094 210.1875 161.441406 209.074219 C 161.960938 208.066406 164.636719 206.9375 166.761719 207.523438 C 169.984375 208.054688 171.003906 211.171875 171.960938 214.132812 C 172.503906 215.8125 172.703125 217.5625 172.613281 219.339844 C 172.523438 221.0625 171.75 222.429688 170.488281 223.550781 C 169.578125 224.351562 168.527344 224.570312 167.339844 224.300781 Z M 167.339844 224.300781 " fill-opacity="1" fill-rule="nonzero"/><path fill="#f6e4c5" d="M 151.023438 207.800781 C 151.023438 207.800781 151.015625 207.796875 151.007812 207.792969 C 151.019531 207.769531 151.023438 207.800781 151.023438 207.800781 Z M 235.589844 210.109375 C 235.554688 210.957031 235.449219 211.390625 235.449219 211.390625 C 235.449219 211.390625 232.652344 213.296875 231.769531 213.992188 C 229.308594 215.933594 227.25 218.21875 225.894531 221.074219 C 224.109375 224.820312 224.027344 228.660156 225.359375 232.554688 C 225.519531 233.019531 226.597656 235.132812 226.597656 235.132812 C 226.597656 235.132812 226.253906 235.398438 225.367188 236.128906 C 224.277344 237.027344 223.050781 237.722656 221.785156 238.34375 C 216.175781 241.109375 209.691406 241.460938 203.542969 241.632812 C 200.175781 241.726562 196.929688 241.292969 193.582031 240.96875 C 188.015625 240.429688 183.472656 237.734375 179.371094 234.160156 C 174.558594 229.960938 173.699219 225.695312 173.699219 225.695312 C 173.699219 225.695312 174.222656 224.71875 174.949219 223.359375 C 176.945312 219.621094 176.792969 212.3125 172.460938 207.816406 C 171.832031 207.164062 171.054688 206.226562 170.3125 205.699219 C 169.683594 205.25 169.394531 204.886719 169.394531 204.886719 C 169.394531 204.886719 169.410156 198.421875 169.402344 195.46875 C 169.378906 189.148438 183.464844 187.382812 187.894531 186.644531 C 195.4375 185.386719 203.195312 184.8125 210.898438 184.976562 C 214.351562 185.050781 217.796875 185.269531 221.207031 185.644531 C 223.734375 185.921875 226.207031 186.425781 228.652344 187.082031 C 229.394531 187.28125 230.121094 187.5625 230.835938 187.851562 C 233.9375 189.09375 235.304688 191.554688 235.582031 194.734375 C 235.667969 195.714844 235.636719 196.703125 235.648438 197.6875 C 235.660156 199.164062 235.667969 208.144531 235.589844 210.109375 Z M 234.519531 192.5 C 234.304688 192.09375 233.972656 191.867188 233.5 191.882812 C 233.121094 191.890625 232.832031 192.078125 232.628906 192.390625 C 232.519531 192.566406 232.441406 192.765625 232.359375 192.957031 C 231.773438 194.351562 231.792969 194.097656 231.792969 194.097656 C 231.792969 194.097656 229.277344 193.546875 228.667969 193.378906 C 216.441406 190.003906 203.148438 191.109375 190.742188 192.800781 C 186.757812 193.34375 182.84375 194.203125 179.105469 195.730469 C 177.804688 196.261719 174.414062 197.621094 174.414062 197.621094 L 173.992188 197.0625 C 173.824219 196.839844 173.710938 196.574219 173.539062 196.351562 C 173.222656 195.933594 172.816406 195.679688 172.265625 195.847656 C 171.726562 196.011719 171.476562 196.441406 171.414062 196.949219 C 171.363281 197.359375 171.386719 197.792969 171.453125 198.203125 C 171.617188 199.191406 172.023438 200.082031 172.617188 200.890625 C 174.066406 202.875 175.910156 204.335938 178.246094 205.167969 C 180.4375 205.949219 182.671875 206.570312 184.972656 206.941406 C 189.082031 207.605469 193.222656 207.828125 197.382812 207.796875 C 199.566406 207.734375 201.757812 207.78125 203.925781 207.585938 C 209.042969 207.117188 214.128906 206.40625 219.203125 205.613281 C 222.851562 205.042969 226.328125 203.980469 229.460938 201.9375 C 232.054688 200.25 233.753906 197.925781 234.597656 194.964844 C 234.832031 194.140625 234.949219 193.304688 234.519531 192.5 Z M 168.472656 227.660156 C 164.347656 227.738281 161.507812 225.632812 159.671875 222.175781 C 157.742188 218.542969 157.140625 214.613281 157.828125 210.519531 C 158.425781 206.96875 161.15625 204.296875 164.710938 203.804688 C 164.921875 203.777344 166.15625 203.714844 166.15625 203.714844 L 166.238281 201.183594 C 166.238281 201.183594 165.164062 201.152344 164.53125 201.1875 C 159.246094 201.15625 155.972656 203.742188 154.597656 208.773438 C 154.113281 210.558594 153.976562 212.253906 154.003906 216.308594 C 154.113281 218.355469 154.621094 220.8125 155.4375 222.710938 C 156.648438 225.519531 158.53125 227.75 161.390625 228.96875 C 163.285156 229.773438 165.3125 230.113281 167.378906 229.898438 C 168.421875 229.789062 170.765625 229.265625 170.765625 229.265625 L 170.132812 227.460938 C 170.132812 227.460938 169.105469 227.648438 168.472656 227.660156 Z M 168.472656 227.660156 " fill-opacity="1" fill-rule="nonzero"/><g clip-path="url(#cd063c868b)"><path fill="#000000" d="M 144.308594 342.226562 C 144.238281 338.117188 145.105469 326.902344 145.105469 326.902344 C 145.105469 326.902344 142.351562 325.183594 138.285156 324.824219 C 135.214844 324.550781 131.917969 325.050781 131.917969 325.050781 C 131.917969 325.050781 131.171875 331.496094 130.964844 333.804688 C 130.710938 336.605469 130.628906 339.421875 130.460938 342.230469 C 130.34375 344.195312 130.242188 346.160156 130.066406 348.121094 C 129.933594 349.617188 129.472656 351.015625 128.453125 352.175781 C 127.28125 353.507812 125.84375 354.308594 124.03125 354.292969 C 123.332031 354.285156 122.613281 354.265625 121.9375 354.113281 C 119.871094 353.65625 117.816406 353.152344 115.867188 352.324219 C 110.914062 350.210938 105.734375 348.929688 100.457031 347.957031 C 97.066406 347.328125 93.667969 346.730469 90.421875 345.492188 C 87.425781 344.355469 84.710938 342.816406 82.464844 340.460938 C 80.277344 338.175781 79.394531 335.476562 79.464844 332.390625 C 79.527344 329.707031 79.867188 327.0625 80.535156 324.460938 C 80.605469 324.1875 80.6875 323.917969 80.738281 323.640625 C 80.851562 323.089844 80.917969 322.523438 80.917969 322.523438 C 80.917969 322.523438 75.753906 320.578125 73.941406 319.8125 C 71.09375 318.617188 68.671875 316.855469 67.015625 314.171875 C 65.246094 311.308594 64.570312 308.199219 65.003906 304.871094 C 65.332031 302.347656 66.046875 299.917969 66.988281 297.554688 C 69.15625 292.132812 71.296875 286.699219 73.503906 281.289062 C 74.671875 278.421875 75.929688 275.59375 77.195312 272.765625 C 78.347656 270.191406 79.273438 267.535156 80.078125 264.835938 C 82.882812 255.46875 85.65625 246.089844 88.445312 236.714844 C 90.308594 230.445312 92.230469 224.1875 94.046875 217.902344 C 98.03125 204.109375 101.550781 190.203125 104.636719 176.175781 C 110.824219 148.011719 116.101562 119.84375 124.785156 92.296875 C 130.195312 75.136719 134.800781 57.820312 144.292969 42.359375 C 145.324219 40.679688 146.410156 39.039062 147.464844 37.371094 C 150.3125 32.871094 153.839844 28.984375 158.003906 25.652344 C 162.417969 22.125 167.050781 18.90625 172.09375 16.378906 C 188.003906 8.410156 208.839844 6.105469 225.496094 13.285156 C 229.328125 14.9375 232.933594 16.988281 236.304688 19.433594 C 238.929688 21.335938 241.492188 23.347656 243.761719 25.648438 C 246.871094 28.804688 249.898438 32.046875 252.527344 35.640625 C 256.53125 41.125 259.871094 46.96875 262.394531 53.277344 C 265.09375 60.011719 267.632812 66.800781 269.375 73.851562 C 270.761719 79.453125 271.828125 85.125 272.894531 90.792969 C 273.96875 96.53125 274.863281 102.300781 275.625 108.089844 C 276.027344 111.15625 276.34375 114.234375 276.660156 117.3125 C 276.957031 120.25 277.304688 123.191406 277.445312 126.136719 C 277.632812 130.140625 278.082031 134.136719 277.988281 138.152344 C 277.898438 141.890625 278.285156 145.597656 278.675781 149.304688 C 279.039062 152.800781 279.347656 156.304688 279.71875 159.800781 C 280.203125 164.34375 280.738281 168.882812 281.234375 173.429688 C 281.601562 176.785156 281.90625 180.144531 282.292969 183.5 C 282.878906 188.601562 283.515625 193.695312 284.335938 198.765625 C 285.175781 203.972656 285.96875 209.1875 286.757812 214.402344 C 288.101562 223.238281 289.609375 232.039062 291.171875 240.835938 C 291.722656 243.960938 292.449219 247.03125 293.191406 250.109375 C 294.648438 256.125 296.046875 262.15625 297.828125 268.089844 C 299.425781 273.414062 301.03125 278.738281 302.640625 284.054688 C 303.96875 288.433594 305.179688 292.84375 306.730469 297.152344 C 307.230469 298.542969 307.722656 299.933594 308.238281 301.320312 C 309.15625 303.777344 309.757812 306.296875 309.710938 308.941406 C 309.65625 312.035156 308.628906 314.699219 306.355469 316.875 C 304.199219 318.9375 301.765625 320.59375 299.175781 322.039062 L 297.296875 323.09375 C 297.296875 323.09375 300.605469 331.261719 301.84375 334.324219 C 302.1875 335.171875 302.484375 336.039062 302.824219 336.890625 C 303.289062 338.066406 303.21875 339.214844 302.777344 340.386719 C 302.117188 342.144531 301.015625 343.5625 299.636719 344.816406 C 296.75 347.4375 293.449219 349.460938 290.125 351.445312 C 284.84375 354.597656 279.339844 357.257812 273.359375 358.8125 C 271.453125 359.308594 269.632812 360.105469 267.660156 360.375 C 263.753906 360.90625 261.207031 359.445312 259.734375 356.542969 C 258.429688 353.964844 257.246094 351.335938 256.304688 348.601562 C 255.597656 346.539062 254.894531 344.472656 254.183594 342.410156 C 253.867188 341.5 253.746094 341.117188 253.746094 341.117188 C 253.746094 341.117188 248.496094 345.011719 246.816406 347.128906 C 245.113281 349.28125 243.246094 351.296875 241.707031 353.582031 C 241.476562 353.929688 241.195312 354.265625 240.875 354.527344 C 240.148438 355.117188 239.632812 355.863281 239.148438 356.644531 C 237.199219 359.789062 234.476562 362.066406 231.113281 363.554688 C 227.753906 365.039062 224.253906 366.105469 220.652344 366.824219 C 217.613281 367.429688 214.574219 368.019531 211.523438 368.539062 C 210.140625 368.777344 208.730469 368.851562 207.328125 368.957031 C 204.660156 369.160156 201.992188 369.359375 199.324219 369.511719 C 197.710938 369.605469 196.085938 369.519531 194.476562 369.757812 C 193.925781 369.839844 193.34375 369.851562 192.792969 369.773438 C 190.691406 369.476562 188.574219 369.554688 186.464844 369.503906 C 183.015625 369.425781 179.585938 369.058594 176.15625 368.71875 C 172.09375 368.316406 168.042969 367.796875 164.042969 366.984375 C 161.421875 366.449219 158.816406 365.839844 156.238281 365.132812 C 152.394531 364.078125 149.175781 362.027344 146.726562 358.835938 C 145.898438 357.757812 145.28125 356.605469 145.0625 355.238281 C 144.679688 352.875 144.332031 350.511719 144.3125 348.113281 C 144.292969 346.210938 144.308594 344.3125 144.308594 342.226562 Z M 208.859375 181.6875 C 215.558594 181.734375 222.253906 182.429688 228.726562 184.03125 C 230.800781 184.542969 232.761719 185.292969 234.46875 186.601562 C 236.742188 188.347656 238.164062 190.644531 238.640625 193.46875 C 238.921875 195.128906 239.089844 196.8125 239.066406 198.511719 C 239.027344 201.253906 239.039062 204 239.035156 206.746094 C 239.035156 207.378906 239.03125 208.011719 239.070312 208.640625 C 239.101562 209.144531 239.019531 209.628906 239.019531 209.628906 C 239.019531 209.628906 242.957031 207.925781 244.390625 207.183594 C 248.332031 205.15625 252.230469 203.03125 256.175781 201.007812 C 259.199219 199.457031 261.96875 197.535156 264.640625 195.460938 C 265.308594 194.945312 265.933594 194.371094 266.601562 193.851562 C 267.421875 193.207031 268.09375 193.101562 268.484375 193.511719 C 268.875 193.921875 268.851562 194.632812 268.273438 195.453125 C 267.707031 196.253906 267.117188 197.074219 266.394531 197.726562 C 264.363281 199.566406 262.339844 201.4375 259.988281 202.886719 C 254.414062 206.324219 248.8125 209.710938 242.878906 212.511719 C 241.480469 213.171875 240.054688 213.78125 238.667969 214.472656 C 235.992188 215.808594 233.6875 217.632812 231.683594 219.855469 C 230.578125 221.078125 229.714844 222.457031 229.296875 224.035156 C 228.390625 227.496094 228.730469 230.746094 231.296875 233.488281 C 232.160156 234.414062 233.085938 235.28125 233.984375 236.175781 C 235.476562 237.667969 237.015625 239.121094 238.449219 240.667969 C 240.683594 243.074219 242.351562 245.832031 243.277344 249 C 244.363281 252.730469 245.03125 256.53125 245.0625 260.429688 C 245.089844 263.949219 245.109375 267.464844 244.59375 270.960938 C 244.015625 274.855469 243.496094 278.757812 242.617188 282.605469 C 241.136719 289.0625 239.007812 295.328125 237.1875 301.683594 C 236.355469 304.59375 235.40625 307.46875 234.773438 310.429688 C 233.6875 315.523438 232.683594 320.628906 231.996094 325.792969 C 231.453125 329.910156 230.910156 334.019531 231.074219 338.191406 C 231.207031 341.644531 232.085938 344.851562 234.03125 347.734375 C 234.589844 348.558594 235.21875 349.308594 236.035156 349.886719 C 236.734375 350.382812 237.566406 350.898438 238.425781 350.507812 C 239.367188 350.074219 240.007812 348.871094 240.597656 348.074219 C 244.769531 342.464844 249.769531 338.0625 256.027344 334.914062 C 259.101562 333.390625 262.324219 332.414062 265.816406 333.15625 C 267.078125 333.425781 267.339844 333.621094 267.339844 333.621094 C 267.339844 333.621094 267.03125 331.21875 266.984375 330.941406 C 266.203125 326.503906 265.5625 322.046875 265.214844 317.558594 C 264.828125 312.582031 264.617188 307.589844 264.371094 302.605469 C 264.214844 299.515625 264.171875 296.421875 264 293.328125 C 263.703125 288.132812 263.597656 282.925781 263.511719 277.722656 C 263.417969 272.160156 263.121094 266.621094 262.703125 261.074219 C 262.359375 256.515625 261.949219 251.96875 261.417969 247.425781 C 261.21875 245.75 261.121094 244.0625 261.007812 242.378906 C 260.957031 241.609375 260.902344 240.832031 261.191406 240.082031 C 261.496094 239.292969 262.324219 239.117188 262.855469 239.746094 C 263.269531 240.238281 263.539062 240.816406 263.707031 241.429688 C 263.988281 242.445312 264.257812 243.464844 264.472656 244.496094 C 265.742188 250.570312 266.433594 256.722656 266.894531 262.894531 C 267.292969 268.222656 267.507812 273.5625 267.722656 278.90625 C 267.910156 283.472656 267.808594 288.046875 268.148438 292.613281 C 268.394531 295.976562 268.300781 299.359375 268.558594 302.734375 C 268.816406 306.097656 268.800781 309.476562 269 312.851562 C 269.3125 318.054688 269.847656 323.222656 270.605469 328.371094 C 271.167969 332.199219 271.726562 336.027344 272.289062 339.851562 C 272.488281 341.210938 272.367188 342.515625 271.6875 343.742188 C 270.589844 345.710938 269.449219 347.644531 268.085938 349.449219 C 267.238281 350.574219 266.460938 351.75 265.664062 352.910156 C 265.105469 353.730469 264.703125 354.628906 264.429688 355.582031 C 264.265625 356.144531 264.601562 356.5625 265.183594 356.539062 C 266.269531 356.496094 267.238281 356.0625 268.179688 355.585938 C 271.019531 354.148438 273.648438 352.398438 276.039062 350.289062 C 278.308594 348.285156 280.542969 346.246094 282.867188 344.308594 C 284.59375 342.867188 286.398438 341.503906 288.242188 340.21875 C 290.675781 338.515625 293.289062 337.144531 296.152344 336.289062 L 297.625 335.851562 C 297.625 335.851562 295.902344 331.386719 295.101562 329.527344 C 294.066406 327.128906 292.980469 324.773438 292.222656 322.277344 C 289.949219 314.800781 287.785156 307.300781 285.792969 299.746094 C 282.039062 285.519531 278.96875 271.144531 276.207031 256.699219 C 275.015625 250.476562 274.246094 244.191406 273.671875 237.886719 C 273.519531 236.207031 273.554688 234.511719 273.539062 232.824219 C 273.535156 232.414062 273.636719 231.992188 273.769531 231.597656 C 273.816406 231.457031 274.082031 231.355469 274.269531 231.308594 C 274.367188 231.285156 274.5625 231.386719 274.617188 231.488281 C 274.785156 231.789062 274.964844 232.105469 275.035156 232.4375 C 275.332031 233.8125 275.621094 235.1875 275.859375 236.574219 C 276.769531 241.84375 277.5625 247.132812 278.578125 252.382812 C 281.046875 265.089844 283.707031 277.757812 286.964844 290.292969 C 289.109375 298.53125 291.292969 306.765625 294.195312 314.78125 C 294.671875 316.101562 296.070312 319.40625 296.070312 319.40625 C 296.070312 319.40625 296.261719 319.375 296.695312 319.136719 C 299.472656 317.59375 302.148438 315.898438 304.367188 313.59375 C 305.652344 312.261719 306.199219 310.621094 306.167969 308.78125 C 306.140625 307.136719 305.734375 305.566406 305.121094 304.0625 C 303.179688 299.304688 301.476562 294.460938 299.976562 289.546875 C 297.882812 282.679688 295.65625 275.855469 293.609375 268.980469 C 291.882812 263.179688 290.523438 257.28125 289.195312 251.375 C 287.730469 244.855469 286.1875 238.351562 285.183594 231.738281 C 284.386719 226.523438 283.621094 221.304688 282.839844 216.085938 C 282.203125 211.847656 281.570312 207.601562 280.917969 203.363281 C 280.332031 199.539062 279.625 195.730469 279.152344 191.890625 C 278.5 186.589844 278.011719 181.265625 277.460938 175.949219 C 277.289062 174.269531 277.125 172.589844 276.988281 170.90625 C 276.742188 167.824219 276.527344 164.738281 276.054688 161.675781 C 275.875 160.496094 275.789062 159.300781 275.679688 158.113281 C 273.300781 132.410156 272.582031 106.015625 266.773438 80.730469 C 261.320312 56.988281 249.441406 31.09375 227.261719 18.871094 C 223.96875 17.054688 220.507812 15.722656 216.875 14.796875 C 202.4375 11.117188 188.113281 14.34375 174.773438 20.179688 C 171.277344 21.710938 167.953125 23.488281 164.882812 25.789062 C 143.875 41.542969 138.402344 66.867188 130.195312 90.234375 C 127.535156 97.808594 125.371094 105.53125 123.265625 113.269531 C 120.277344 124.273438 118.128906 135.476562 115.703125 146.609375 C 114.550781 151.902344 113.53125 157.226562 112.394531 162.519531 C 111.304688 167.609375 110.097656 172.675781 109.019531 177.769531 C 106.570312 189.339844 103.632812 200.785156 100.414062 212.160156 C 98.457031 219.066406 96.34375 225.925781 94.289062 232.800781 C 91.148438 243.316406 87.976562 253.828125 84.863281 264.351562 C 83.601562 268.609375 82.0625 272.757812 80.253906 276.8125 C 79.308594 278.933594 78.414062 281.078125 77.550781 283.230469 C 75.5 288.320312 73.601562 293.472656 71.316406 298.46875 C 70.433594 300.390625 69.859375 302.421875 69.449219 304.503906 C 68.617188 308.753906 70.082031 312.175781 74.339844 314.792969 C 76.246094 315.964844 81.960938 318.007812 81.960938 318.007812 C 81.960938 318.007812 82.109375 317.648438 82.503906 316.324219 C 82.660156 315.785156 82.789062 315.234375 82.917969 314.6875 C 83.921875 310.515625 84.96875 306.351562 85.917969 302.164062 C 87.269531 296.195312 88.535156 290.207031 89.867188 284.234375 C 91.722656 275.921875 93.304688 267.558594 94.796875 259.179688 C 96.300781 250.730469 97.699219 242.265625 99.152344 233.804688 C 99.257812 233.183594 99.363281 232.554688 99.710938 232.003906 C 99.992188 231.5625 100.664062 231.597656 100.941406 232.054688 C 101.363281 232.757812 101.335938 233.535156 101.363281 234.308594 C 101.488281 237.414062 101.195312 240.5 100.796875 243.566406 C 100.152344 248.519531 99.484375 253.46875 98.664062 258.394531 C 96.992188 268.457031 95.453125 278.542969 93.316406 288.523438 C 91.050781 299.117188 88.917969 309.738281 86.207031 320.234375 C 85.589844 322.617188 84.980469 325.003906 84.382812 327.394531 C 84.234375 328.007812 83.902344 330.558594 83.902344 330.558594 C 83.902344 330.558594 84.347656 330.328125 85.042969 330.15625 C 85.453125 330.054688 85.847656 329.894531 86.257812 329.800781 C 87.976562 329.410156 89.710938 329.035156 91.484375 329.3125 C 95.050781 329.859375 98.238281 331.277344 100.917969 333.710938 C 103.050781 335.65625 105.066406 337.726562 106.957031 339.910156 C 109.097656 342.382812 111.558594 344.453125 114.390625 346.09375 C 115.609375 346.800781 116.832031 347.515625 118.046875 348.214844 C 119.304688 348.941406 120.847656 349.371094 122.199219 349.910156 C 122.597656 350.070312 123.007812 350.234375 123.4375 350.257812 C 124.136719 350.289062 124.988281 349.851562 124.433594 349.148438 C 124.039062 348.644531 123.394531 348.335938 122.867188 347.988281 C 120.273438 346.285156 117.511719 345.082031 115.332031 342.804688 C 113.4375 340.824219 112.125 338.378906 111.511719 335.714844 C 110.640625 331.9375 110.027344 328.117188 110.082031 324.226562 C 110.15625 318.875 110.664062 313.554688 111.25 308.242188 C 111.960938 301.804688 112.949219 295.410156 114.15625 289.050781 C 115.304688 282.96875 116.570312 276.90625 117.847656 270.851562 C 119.371094 263.625 120.945312 256.40625 122.53125 249.191406 C 123.800781 243.421875 125.121094 237.660156 126.433594 231.898438 C 126.589844 231.21875 126.828125 230.550781 127.101562 229.90625 C 127.269531 229.511719 127.625 229.167969 128.097656 229.3125 C 128.554688 229.449219 128.644531 229.914062 128.679688 230.347656 C 128.691406 230.484375 128.691406 230.628906 128.675781 230.765625 C 128.542969 232.097656 128.464844 233.4375 128.253906 234.753906 C 127.398438 240.03125 126.585938 245.316406 125.601562 250.570312 C 124.128906 258.453125 122.527344 266.308594 120.976562 274.179688 C 119.289062 282.738281 117.476562 291.269531 116.316406 299.925781 C 115.773438 303.964844 115.140625 307.996094 114.816406 312.066406 C 114.644531 314.238281 114.496094 316.417969 114.25 318.582031 C 113.976562 320.964844 114.21875 327.402344 114.21875 327.402344 C 114.21875 327.402344 115.734375 326.183594 116.265625 325.726562 C 117.9375 324.285156 119.839844 323.230469 121.847656 322.351562 C 125.101562 320.921875 128.503906 320.210938 132.035156 319.792969 C 136.109375 319.3125 140.046875 319.8125 143.953125 320.789062 C 146.753906 321.488281 149.484375 322.445312 152.144531 323.578125 C 155.136719 324.847656 158.023438 326.296875 160.429688 328.542969 C 160.484375 328.59375 161.511719 329.65625 161.511719 329.65625 C 161.511719 329.65625 162.199219 322.585938 162.359375 320.070312 C 162.644531 315.507812 162.769531 310.929688 162.804688 306.363281 C 162.886719 294.75 162.878906 283.136719 162.917969 271.527344 C 162.925781 268.992188 162.824219 266.449219 163.019531 263.929688 C 163.371094 259.371094 163.203125 254.789062 163.691406 250.234375 C 163.976562 247.578125 164.015625 244.894531 164.320312 242.242188 C 164.550781 240.277344 164.609375 234.0625 164.609375 234.0625 C 164.609375 234.0625 162.59375 233.601562 162.523438 233.589844 C 159.941406 233.128906 157.4375 231.347656 155.570312 229.542969 C 152.441406 226.519531 151.324219 223.230469 150.609375 219.046875 C 150.042969 215.738281 150.363281 212.441406 150.785156 209.167969 C 151 207.53125 151.03125 207.808594 151.03125 207.808594 C 151.03125 207.808594 149.109375 206.875 148.917969 206.789062 C 145.886719 205.46875 142.804688 204.265625 139.9375 202.582031 C 136.40625 200.507812 133.097656 198.125 129.957031 195.503906 C 127.023438 193.054688 124.476562 190.242188 122.308594 187.09375 C 121.835938 186.402344 121.464844 185.632812 121.074219 184.886719 C 120.945312 184.640625 120.863281 184.359375 120.8125 184.089844 C 120.726562 183.644531 120.855469 183.242188 121.226562 182.96875 C 121.609375 182.683594 122.046875 182.710938 122.40625 182.984375 C 122.90625 183.367188 123.386719 183.785156 123.824219 184.238281 C 127.1875 187.761719 130.855469 190.941406 134.730469 193.882812 C 136.632812 195.332031 138.492188 196.859375 140.632812 197.957031 C 143.199219 199.277344 145.785156 200.5625 148.390625 201.800781 C 149.53125 202.339844 152.8125 203.601562 152.8125 203.601562 C 152.8125 203.601562 153.128906 203.335938 153.488281 202.816406 C 156.046875 199.117188 159.957031 198.140625 163.417969 197.949219 L 166.117188 197.800781 C 166.117188 197.800781 166.195312 192.453125 168.199219 190.269531 C 169.191406 189.1875 171.441406 187.722656 172.640625 187.125 C 179.085938 183.90625 187.417969 183.308594 194.652344 182.488281 C 199.34375 181.957031 204.105469 181.660156 208.867188 181.695312 Z M 168.167969 241.5625 C 168.121094 243 168.09375 245.109375 167.972656 247.214844 C 167.789062 250.441406 167.449219 253.664062 167.335938 256.890625 C 167.101562 263.496094 167.085938 270.109375 166.945312 276.71875 C 166.75 286.070312 166.824219 295.429688 166.863281 304.785156 C 166.882812 309.996094 166.53125 315.1875 166.324219 320.386719 C 166.253906 322.207031 165.960938 324.023438 165.742188 325.835938 C 165.304688 329.472656 164.378906 333.019531 163.65625 336.601562 C 163.050781 339.613281 161.765625 342.324219 159.742188 344.679688 C 158.730469 345.855469 157.695312 346.992188 156.519531 348.011719 C 155.617188 348.796875 154.734375 349.613281 153.929688 350.492188 C 153.027344 351.472656 152.1875 352.519531 151.375 353.578125 C 150.71875 354.4375 150.714844 355.382812 151.175781 356.363281 C 151.644531 357.363281 152.382812 358.078125 153.320312 358.617188 C 155.039062 359.613281 156.875 360.316406 158.796875 360.792969 C 167.835938 363.035156 176.996094 364.421875 186.316406 364.695312 C 187.160156 364.71875 188.003906 364.777344 188.84375 364.863281 C 191.65625 365.160156 194.472656 365.097656 197.28125 364.945312 C 200.15625 364.789062 203.023438 364.414062 205.902344 364.277344 C 209 364.132812 212.078125 363.839844 215.128906 363.328125 C 219.011719 362.671875 222.894531 362.003906 226.664062 360.796875 C 228.144531 360.324219 229.574219 359.746094 230.945312 359.015625 C 231.890625 358.511719 232.695312 357.839844 233.277344 356.925781 C 233.789062 356.125 233.597656 355.511719 232.988281 354.855469 C 232.304688 354.125 231.707031 353.386719 231.148438 352.542969 C 229.984375 350.796875 229.015625 348.917969 228.257812 346.960938 C 225.582031 340.054688 226.179688 332.773438 227.023438 325.578125 C 227.71875 319.628906 228.832031 313.757812 230.277344 307.957031 C 231.507812 303.046875 232.964844 298.195312 234.40625 293.339844 C 235.847656 288.484375 237.246094 283.617188 238.210938 278.640625 C 239 274.566406 239.515625 270.453125 239.941406 266.324219 C 240.464844 261.21875 239.96875 256.210938 238.777344 251.261719 C 238.347656 249.480469 237.667969 247.777344 236.632812 246.234375 C 234.691406 243.339844 229.308594 238.078125 229.308594 238.078125 C 229.308594 238.078125 228.101562 239.058594 227.320312 239.71875 C 225.289062 241.433594 223.058594 242.664062 220.566406 243.527344 C 216.21875 245.035156 211.253906 245.433594 206.675781 245.667969 C 201.539062 245.933594 196.363281 245.683594 191.28125 244.878906 C 188.773438 244.480469 186.75 243.597656 184.5 242.394531 C 180.980469 240.515625 178.476562 238.667969 175.546875 235.589844 C 175.0625 235.082031 172.933594 232.511719 172.933594 232.511719 C 172.308594 232.792969 171.585938 233.078125 170.765625 233.324219 C 169.769531 233.621094 168.851562 233.800781 168.054688 233.910156 C 168.140625 235.796875 168.273438 238.421875 168.167969 241.558594 Z M 210.898438 184.976562 C 203.195312 184.8125 195.4375 185.386719 187.894531 186.644531 C 183.464844 187.382812 169.378906 189.148438 169.402344 195.46875 C 169.410156 198.421875 169.394531 204.886719 169.394531 204.886719 C 169.394531 204.886719 169.679688 205.25 170.3125 205.699219 C 171.058594 206.226562 171.832031 207.164062 172.460938 207.8125 C 176.792969 212.3125 176.945312 219.621094 174.949219 223.355469 C 174.222656 224.714844 173.699219 225.695312 173.699219 225.695312 C 173.699219 225.695312 174.558594 229.960938 179.371094 234.160156 C 183.472656 237.734375 188.015625 240.429688 193.582031 240.96875 C 196.929688 241.289062 200.175781 241.726562 203.542969 241.632812 C 209.691406 241.457031 216.175781 241.109375 221.785156 238.34375 C 223.050781 237.722656 224.277344 237.023438 225.367188 236.128906 C 226.253906 235.398438 226.597656 235.128906 226.597656 235.128906 C 226.597656 235.128906 225.515625 233.019531 225.359375 232.554688 C 224.027344 228.65625 224.109375 224.820312 225.894531 221.070312 C 227.25 218.214844 229.308594 215.929688 231.769531 213.992188 C 232.652344 213.292969 235.449219 211.386719 235.449219 211.386719 C 235.449219 211.386719 235.554688 210.953125 235.589844 210.109375 C 235.667969 208.140625 235.660156 199.160156 235.648438 197.683594 C 235.636719 196.699219 235.667969 195.710938 235.582031 194.730469 C 235.300781 191.550781 233.933594 189.09375 230.835938 187.847656 C 230.121094 187.558594 229.394531 187.28125 228.652344 187.078125 C 226.203125 186.421875 223.734375 185.917969 221.203125 185.640625 C 217.792969 185.265625 214.351562 185.046875 210.894531 184.972656 Z M 160.890625 212.832031 C 160.878906 215.851562 161.597656 218.433594 163.121094 221.050781 C 164.085938 222.703125 165.421875 223.863281 167.339844 224.300781 C 168.527344 224.574219 169.578125 224.355469 170.488281 223.550781 C 171.75 222.433594 172.523438 221.066406 172.613281 219.339844 C 172.703125 217.5625 172.503906 215.816406 171.960938 214.132812 C 171.003906 211.175781 169.984375 208.058594 166.761719 207.527344 C 164.636719 206.941406 161.960938 208.066406 161.441406 209.078125 C 160.871094 210.1875 160.90625 211.636719 160.890625 212.832031 Z M 154.007812 216.308594 C 154.113281 218.351562 154.621094 220.8125 155.441406 222.707031 C 156.652344 225.519531 158.535156 227.75 161.394531 228.964844 C 163.285156 229.769531 165.3125 230.113281 167.378906 229.898438 C 168.421875 229.789062 170.765625 229.261719 170.765625 229.261719 L 170.132812 227.457031 C 170.132812 227.457031 169.105469 227.648438 168.472656 227.660156 C 164.347656 227.738281 161.507812 225.632812 159.671875 222.175781 C 157.746094 218.542969 157.140625 214.613281 157.832031 210.519531 C 158.429688 206.96875 161.15625 204.296875 164.710938 203.804688 C 164.921875 203.773438 166.15625 203.714844 166.15625 203.714844 L 166.242188 201.183594 C 166.242188 201.183594 165.164062 201.152344 164.53125 201.1875 C 159.246094 201.15625 155.972656 203.742188 154.601562 208.773438 C 154.113281 210.558594 153.976562 212.253906 154.007812 216.308594 Z M 203.925781 207.582031 C 209.042969 207.117188 214.128906 206.40625 219.203125 205.613281 C 222.855469 205.042969 226.328125 203.976562 229.460938 201.9375 C 232.054688 200.246094 233.757812 197.925781 234.597656 194.960938 C 234.832031 194.136719 234.949219 193.304688 234.519531 192.496094 C 234.304688 192.09375 233.972656 191.867188 233.5 191.878906 C 233.121094 191.890625 232.832031 192.078125 232.628906 192.386719 C 232.519531 192.5625 232.441406 192.761719 232.359375 192.957031 C 231.773438 194.351562 231.792969 194.097656 231.792969 194.097656 C 231.792969 194.097656 229.277344 193.542969 228.667969 193.375 C 216.441406 190 203.148438 191.109375 190.742188 192.796875 C 186.757812 193.339844 182.84375 194.199219 179.105469 195.726562 C 177.804688 196.257812 174.414062 197.621094 174.414062 197.621094 L 173.992188 197.0625 C 173.824219 196.835938 173.710938 196.574219 173.539062 196.351562 C 173.222656 195.933594 172.816406 195.679688 172.265625 195.847656 C 171.726562 196.007812 171.476562 196.441406 171.414062 196.949219 C 171.363281 197.359375 171.386719 197.792969 171.453125 198.203125 C 171.617188 199.1875 172.023438 200.082031 172.617188 200.890625 C 174.066406 202.875 175.910156 204.332031 178.246094 205.164062 C 180.4375 205.945312 182.671875 206.570312 184.972656 206.941406 C 189.082031 207.605469 193.222656 207.828125 197.382812 207.792969 C 199.566406 207.730469 201.757812 207.78125 203.925781 207.582031 Z M 193.195312 106.574219 C 193.195312 124.820312 189.195312 139.617188 178.421875 139.617188 C 167.652344 139.617188 163.648438 124.820312 163.648438 106.574219 C 163.648438 88.324219 166.789062 73.53125 178.421875 73.53125 C 190.058594 73.53125 193.195312 88.324219 193.195312 106.574219 Z M 236.921875 106.574219 C 236.921875 124.820312 232.917969 139.617188 222.148438 139.617188 C 211.375 139.617188 207.375 124.820312 207.375 106.574219 C 207.375 88.324219 210.511719 73.53125 222.148438 73.53125 C 233.78125 73.53125 236.921875 88.324219 236.921875 106.574219 Z M 236.921875 106.574219 " fill-opacity="1" fill-rule="nonzero"/></g></svg>