<svg xmlns="http://www.w3.org/2000/svg" xmlns:xlink="http://www.w3.org/1999/xlink" width="500" zoomAndPan="magnify" viewBox="0 0 375 374.999991" height="500" preserveAspectRatio="xMidYMid meet" version="1.0"><defs><clipPath id="2a7abe6e34"><path d="M 41.453125 10 L 329.453125 10 L 329.453125 371.242188 L 41.453125 371.242188 Z M 41.453125 10 " clip-rule="nonzero"/></clipPath></defs><rect x="-37.5" width="450" fill="#ffffff" y="-37.499999" height="449.999989" fill-opacity="1"/><rect x="-37.5" width="450" fill="#ffffff" y="-37.499999" height="449.999989" fill-opacity="1"/><path fill="#f4ddb3" d="M 130.230469 170.570312 C 130.796875 171.429688 132.367188 173.816406 132.367188 173.816406 C 129.441406 177.78125 126.089844 179.273438 126.089844 179.273438 L 125.796875 178.746094 C 122.617188 173.046875 118.222656 168.808594 113.144531 164.917969 C 110.304688 162.746094 106.996094 160.726562 103.816406 159.058594 C 101.773438 157.984375 97.246094 155.964844 96.914062 155.789062 C 97.933594 153.097656 101.800781 148.480469 101.800781 148.480469 C 101.800781 148.480469 102.878906 148.769531 104.195312 149.320312 C 107.710938 150.796875 109.75 151.855469 112.589844 153.640625 C 116.234375 155.925781 118.828125 157.925781 121.972656 160.863281 C 125.085938 163.773438 127.867188 167.023438 130.230469 170.570312 Z M 130.230469 170.570312 " fill-opacity="1" fill-rule="nonzero"/><path fill="#e5b956" d="M 134.121094 171.167969 C 133.9375 171.492188 133.640625 172.042969 133.640625 172.042969 C 130.253906 166.367188 125.667969 161.074219 120.558594 156.894531 C 115.496094 152.753906 109.628906 149.050781 103.378906 146.945312 C 103.378906 146.945312 103.699219 146.554688 103.925781 146.359375 C 108.675781 142.273438 115.960938 140.867188 122.039062 142.214844 C 122.992188 142.425781 123.929688 142.707031 124.835938 143.066406 C 135.695312 147.332031 139.59375 161.582031 134.121094 171.171875 Z M 100.480469 159.570312 C 99.292969 158.886719 96.21875 157.675781 96.21875 157.675781 C 96.21875 157.675781 95.859375 158.730469 95.78125 159.023438 C 94.859375 162.394531 94.648438 165.386719 94.53125 168.855469 C 94.515625 169.410156 94.554688 170.027344 94.554688 170.027344 C 94.554688 170.027344 96.964844 171.429688 97.773438 171.96875 C 103.792969 175.976562 117.046875 184.183594 117.046875 184.183594 C 117.046875 184.183594 117.425781 184.035156 118.148438 183.664062 C 120.035156 182.691406 122.539062 181.277344 124.429688 180.304688 C 124.429688 180.304688 120.738281 174.414062 117.546875 171.234375 C 112.285156 166.160156 106.960938 162.851562 100.480469 159.570312 Z M 100.480469 159.570312 " fill-opacity="1" fill-rule="nonzero"/><path fill="#aabebc" d="M 114.667969 186.90625 C 114.667969 186.90625 105.535156 202.535156 100.921875 209.730469 C 99.066406 212.621094 97.308594 215.574219 95.699219 218.609375 C 94.566406 220.753906 93.285156 222.820312 92.054688 224.910156 C 91.871094 225.226562 91.179688 226.441406 91.179688 226.441406 C 90.128906 224.910156 88.652344 223.515625 87.1875 222.414062 C 84.457031 220.355469 82.996094 219.894531 79.324219 219.285156 C 78.148438 219.09375 76.65625 219.214844 76.324219 219.167969 C 76.640625 218.039062 78.132812 214.652344 78.132812 214.652344 C 78.132812 214.652344 79.914062 214.394531 80.625 214.261719 C 82.59375 213.894531 84.023438 213.519531 85.761719 212.992188 C 89.421875 211.886719 93 210.523438 96.472656 208.914062 C 101.441406 206.605469 104.3125 202.558594 105.847656 197.429688 C 105.988281 196.964844 106.066406 196.480469 106.179688 196.011719 C 107.199219 191.886719 105.492188 186.8125 102.011719 184.316406 C 99 182.15625 96.816406 180.816406 92.378906 180.1875 C 92.207031 180.160156 91.207031 179.984375 90.734375 180.007812 C 90.890625 179.5625 93.285156 175.457031 94.207031 173.816406 C 94.207031 173.816406 94.285156 173.886719 94.800781 174.179688 C 95.914062 174.804688 97.039062 175.410156 98.109375 176.101562 C 100.761719 177.8125 103.378906 179.582031 106.03125 181.300781 C 108.628906 182.984375 114.667969 186.90625 114.667969 186.90625 Z M 87.441406 225.304688 C 86.769531 224.664062 85.980469 223.773438 83.164062 222.414062 C 80.207031 220.988281 75.976562 220.820312 75.585938 221.875 C 74.980469 223.503906 77.902344 226.113281 79.273438 227.105469 C 81.269531 228.546875 83.128906 229.078125 85.292969 229.359375 C 86.6875 229.539062 89.605469 229.34375 89.515625 228.039062 C 89.453125 227.058594 87.789062 225.636719 87.441406 225.304688 Z M 87.441406 225.304688 " fill-opacity="1" fill-rule="nonzero"/><path fill="#fffcf6" d="M 315.910156 290.324219 C 311.035156 283.34375 306.496094 276.140625 301.863281 269 C 301.136719 267.878906 299.25 264.796875 299.25 264.796875 L 298.464844 265.105469 C 295.421875 266.3125 292.003906 265.808594 288.910156 265.085938 C 286.042969 264.417969 283.179688 263.78125 280.367188 262.898438 C 274.675781 261.113281 269.191406 258.566406 264.382812 255.003906 C 262.136719 253.339844 260.050781 251.464844 258.171875 249.398438 C 257.691406 248.871094 257.226562 248.332031 256.773438 247.785156 C 256.035156 246.894531 255.3125 245.996094 254.609375 245.078125 C 254.265625 244.628906 254.253906 244.226562 254.507812 244.132812 C 254.832031 244.007812 255.09375 244.148438 255.339844 244.34375 C 255.527344 244.492188 255.714844 244.652344 255.894531 244.816406 C 257.753906 246.476562 259.621094 248.125 261.460938 249.808594 C 265.8125 253.792969 271.355469 256.59375 276.871094 258.578125 C 280.164062 259.765625 283.546875 260.679688 286.960938 261.441406 C 290.039062 262.132812 293.546875 263.328125 296.699219 262.722656 C 300.832031 261.929688 296.699219 257.613281 295.566406 256.214844 C 293.367188 253.488281 294.191406 249.351562 296.53125 246.960938 C 299.105469 244.332031 303.949219 243.679688 307.414062 243.957031 C 312.570312 244.375 316.914062 246.894531 321.230469 249.527344 C 321.230469 249.527344 317.980469 244.765625 317.195312 243.398438 C 314.402344 238.550781 311.605469 233.707031 308.910156 228.804688 C 307.011719 225.339844 305.210938 221.820312 303.976562 218.042969 C 302.464844 213.40625 301.328125 208.683594 300.617188 203.863281 C 300.082031 200.25 299.859375 196.605469 299.9375 192.953125 C 299.964844 191.554688 300.089844 190.15625 300.144531 188.761719 C 300.320312 184.183594 300.976562 179.6875 302.140625 175.253906 C 304.085938 167.863281 307.136719 159.722656 306.25 151.976562 C 305.8125 148.179688 304.085938 144.355469 300.902344 142.246094 C 295.734375 138.820312 289.800781 140.980469 284.835938 143.53125 C 281.910156 145.035156 279.0625 146.691406 276.257812 148.414062 C 270.632812 151.878906 265.183594 155.625 259.53125 159.046875 C 255.144531 161.703125 250.589844 164.054688 246.070312 166.464844 C 243.386719 167.890625 240.671875 169.25 237.765625 170.171875 C 237.246094 170.339844 236.722656 170.511719 236.1875 170.597656 C 235.738281 170.667969 235.363281 170.445312 235.132812 170.027344 C 234.890625 169.59375 235.011719 169.191406 235.304688 168.847656 C 235.5 168.621094 235.742188 168.425781 235.996094 168.261719 C 236.503906 167.929688 237.027344 167.617188 237.554688 167.320312 C 243.753906 163.847656 249.96875 160.398438 256.023438 156.667969 C 259.796875 154.34375 267.933594 148.898438 267.933594 148.898438 C 267.933594 148.898438 268.585938 143.976562 268.71875 141.914062 C 269.632812 127.425781 269.125 113.109375 267.023438 98.734375 C 266.21875 93.238281 265.210938 87.769531 263.992188 82.347656 C 263.410156 79.75 262.890625 77.0625 262.019531 74.554688 C 261.15625 72.058594 260.023438 69.515625 259.300781 66.980469 C 255.878906 58.902344 251.636719 51.046875 246.433594 43.972656 C 239.140625 34.066406 229.875 26.316406 218.519531 21.503906 C 212.800781 19.078125 207.007812 16.644531 200.863281 15.539062 C 179.449219 11.6875 158.742188 21.246094 141.582031 33.152344 C 109.878906 55.140625 96.871094 93.804688 93.957031 130.742188 C 93.59375 135.363281 93.441406 139.988281 93.332031 144.625 C 93.25 148.226562 93.859375 155.957031 93.859375 155.957031 C 94.003906 155.703125 94.617188 154.195312 94.738281 153.929688 C 95.453125 152.371094 96.382812 150.832031 97.402344 149.464844 C 103.964844 140.65625 115.796875 135.953125 126.253906 140.667969 C 131.804688 143.171875 136.460938 147.574219 138.386719 153.425781 C 140.539062 159.96875 139.695312 167.226562 136.246094 173.171875 C 132.480469 179.667969 126.765625 182.804688 119.746094 185.71875 C 119.265625 185.917969 117.972656 186.558594 117.972656 186.558594 C 117.972656 186.558594 114.375 192.660156 112.773438 195.386719 C 109.996094 200.101562 107.378906 204.90625 104.460938 209.539062 C 102.8125 212.164062 101.210938 214.820312 99.648438 217.496094 C 98.390625 219.652344 97.246094 221.867188 96.011719 224.03125 C 94.472656 226.742188 93.140625 229.710938 90.109375 230.980469 C 87.960938 231.875 84.480469 232.339844 80.253906 230.441406 C 76.484375 228.753906 73.621094 225.90625 72.988281 222.085938 C 72.878906 221.417969 73.03125 220.539062 73.242188 219.882812 C 73.773438 218.269531 75.449219 214.65625 75.449219 214.65625 C 75.449219 214.65625 73.769531 214.453125 73.605469 213.867188 C 73.441406 213.28125 74.625 212.941406 75.175781 212.742188 C 75.628906 212.582031 76.109375 212.5 76.582031 212.402344 C 81.714844 211.34375 86.859375 210.066406 91.644531 207.878906 C 95.96875 205.902344 100.945312 203.140625 102.753906 198.472656 C 103.933594 195.425781 103.902344 191.503906 102.015625 188.734375 C 100.332031 186.257812 97.429688 184.96875 94.582031 184.378906 C 85.984375 182.59375 78.15625 186.042969 72.339844 192.375 C 68.828125 196.195312 65.953125 200.753906 64.121094 205.667969 C 62.132812 211.003906 61.476562 216.859375 61.019531 222.503906 C 60.695312 226.507812 60.453125 230.515625 60.125 234.515625 C 59.488281 242.253906 59.988281 249.957031 60.78125 257.652344 C 61.167969 261.402344 61.777344 265.121094 62.460938 268.832031 C 63.109375 272.363281 65.285156 280.375 65.285156 280.375 C 68.320312 277.109375 71.363281 274.652344 76.0625 275.269531 C 79.933594 275.78125 83.613281 277.359375 86.761719 279.65625 C 90.0625 282.070312 92.460938 285.316406 94.996094 288.476562 C 96.597656 290.46875 98.195312 292.453125 100.027344 294.25 C 102.304688 296.484375 104.90625 298.25 107.695312 299.765625 C 108.171875 300.023438 110.203125 300.835938 110.203125 300.835938 C 110.203125 300.835938 110.035156 294.75 110 293.898438 C 109.730469 287.457031 109.691406 284.167969 109.167969 277.738281 C 108.847656 273.800781 108.585938 269.855469 108.285156 265.914062 C 107.984375 261.972656 107.679688 258.027344 107.359375 254.085938 C 107.03125 250.085938 106.660156 246.089844 105.984375 242.128906 C 105.804688 241.050781 105.683594 239.960938 105.566406 238.871094 C 105.523438 238.511719 105.535156 238.140625 105.59375 237.785156 C 105.617188 237.640625 105.804688 237.460938 105.957031 237.417969 C 106.097656 237.375 106.316406 237.449219 106.445312 237.546875 C 106.855469 237.851562 107.023438 238.328125 107.175781 238.785156 C 107.480469 239.710938 107.757812 240.644531 108.015625 241.582031 C 109.152344 245.699219 109.675781 249.929688 110.144531 254.15625 C 110.828125 260.324219 111.421875 266.5 111.960938 272.679688 C 112.566406 279.585938 113.007812 286.503906 113.222656 293.441406 C 113.363281 298.066406 113.523438 302.683594 113.136719 307.300781 C 112.988281 309.054688 112.875 310.816406 112.726562 312.574219 C 112.460938 315.785156 112.261719 319.007812 111.890625 322.207031 C 111.210938 328.070312 109.910156 333.832031 108.746094 339.609375 C 108.3125 341.761719 107.945312 343.914062 107.796875 346.097656 C 107.710938 347.363281 107.664062 348.640625 108.097656 349.949219 C 108.496094 349.792969 108.839844 349.6875 109.160156 349.53125 C 115.210938 346.605469 122.191406 346.261719 128.71875 347.511719 C 132.488281 348.234375 136.136719 349.527344 139.503906 351.367188 C 139.820312 351.542969 141.082031 352.222656 141.082031 352.222656 C 141.082031 352.222656 139.8125 339.398438 139.625 337.398438 C 139.28125 333.703125 138.933594 330.011719 138.628906 326.3125 C 138.328125 322.617188 138.125 318.910156 137.789062 315.214844 C 137.101562 307.644531 136.558594 300.0625 136.21875 292.464844 C 136.054688 288.820312 135.910156 285.167969 135.636719 281.53125 C 135.207031 275.890625 134.652344 270.257812 134.183594 264.621094 C 133.570312 257.222656 133.191406 249.816406 133.195312 242.386719 C 133.195312 240.5625 133.15625 238.734375 133.148438 236.914062 C 133.148438 236.121094 133.164062 235.332031 133.207031 234.542969 C 133.222656 234.25 133.316406 233.945312 133.429688 233.671875 C 133.523438 233.449219 133.707031 233.261719 133.988281 233.285156 C 134.253906 233.308594 134.417969 233.5 134.5 233.734375 C 134.578125 233.960938 134.617188 234.203125 134.660156 234.441406 C 135.164062 237.199219 135.546875 239.96875 135.636719 242.773438 C 135.863281 249.707031 136.457031 256.617188 136.90625 263.539062 C 137.011719 265.175781 137.175781 266.8125 137.335938 268.445312 C 137.746094 272.621094 138.21875 276.792969 138.574219 280.972656 C 138.984375 285.820312 139.304688 290.679688 139.464844 295.546875 C 139.542969 297.855469 139.710938 300.160156 139.882812 302.46875 C 140.191406 306.59375 140.550781 310.710938 140.859375 314.835938 C 141.410156 322.1875 141.867188 329.542969 142.449219 336.890625 C 142.746094 340.652344 143.078125 344.425781 143.628906 348.160156 C 143.761719 349.109375 143.902344 350.058594 144.054688 351.007812 C 144.019531 350.792969 145.242188 349.613281 145.425781 349.394531 C 145.894531 348.847656 146.398438 348.332031 146.949219 347.863281 C 148.050781 346.929688 149.296875 346.167969 150.601562 345.554688 C 153.964844 343.976562 157.726562 343.175781 161.425781 343.066406 C 166.050781 342.929688 170.476562 343.773438 174.738281 345.578125 C 179.882812 347.757812 185.042969 349.890625 190.203125 352.03125 C 190.558594 352.179688 191.726562 352.628906 191.726562 352.628906 C 191.726562 352.628906 190.933594 351.3125 190.683594 350.902344 C 189.386719 348.769531 188.21875 346.566406 187.15625 344.308594 C 184.546875 338.746094 182.28125 333.042969 180.511719 327.148438 C 179.253906 322.957031 177.941406 318.785156 176.671875 314.597656 C 175.683594 311.335938 174.804688 308.050781 174.027344 304.734375 C 170.996094 291.816406 168.605469 278.789062 167.011719 265.613281 C 166.164062 258.605469 165.558594 251.582031 165.214844 244.527344 C 164.933594 238.8125 164.847656 233.097656 164.941406 227.378906 C 164.96875 225.855469 165.019531 224.335938 165.289062 222.835938 C 165.34375 222.550781 165.484375 222.273438 165.625 222.011719 C 165.664062 221.933594 165.839844 221.890625 165.945312 221.902344 C 166.046875 221.914062 166.191406 221.988281 166.234375 222.074219 C 166.472656 222.589844 166.378906 223.148438 166.386719 223.691406 C 166.507812 229.410156 166.613281 235.121094 167.007812 240.832031 C 167.410156 246.71875 167.824219 252.601562 168.480469 258.46875 C 169.046875 263.546875 169.710938 268.613281 170.5 273.660156 C 171.613281 280.808594 172.90625 287.929688 174.390625 295.011719 C 176.113281 303.226562 178.066406 311.382812 180.566406 319.402344 C 181.8125 323.40625 183.191406 327.367188 184.621094 331.3125 C 186.363281 336.121094 188.539062 340.894531 191.203125 345.253906 C 193.65625 349.257812 196.558594 353.355469 200.5625 355.929688 C 203.324219 357.707031 206.507812 358.660156 209.714844 359.238281 C 212.679688 359.773438 215.792969 360.273438 218.773438 360.53125 C 224.375 361.011719 230.015625 360.839844 235.617188 360.4375 C 237.804688 360.285156 240.011719 360.089844 242.101562 359.421875 C 243.839844 358.871094 249.066406 356.53125 246.753906 354.132812 C 244.722656 352.023438 241.539062 351.660156 238.914062 350.628906 C 228.171875 346.429688 222.535156 333.21875 219.25 323.058594 C 216.648438 315.015625 214.472656 306.84375 212.703125 298.578125 C 210.429688 287.933594 208.664062 277.195312 207.472656 266.363281 C 206.773438 260.007812 206.359375 253.640625 206.171875 247.253906 C 206.128906 245.792969 206.160156 244.332031 206.390625 242.886719 C 206.441406 242.585938 206.476562 242.28125 206.566406 241.992188 C 206.640625 241.757812 206.824219 241.554688 207.09375 241.625 C 207.246094 241.664062 207.453125 241.824219 207.476562 241.957031 C 207.625 242.734375 207.75 243.515625 207.835938 244.300781 C 208.210938 247.808594 208.589844 251.316406 208.933594 254.824219 C 209.621094 261.851562 210.628906 268.828125 211.839844 275.78125 C 213.726562 286.625 215.644531 297.457031 218.5 308.101562 C 220.03125 313.796875 221.433594 319.523438 223.234375 325.144531 C 224.632812 329.5 229.710938 338.628906 229.710938 338.628906 C 229.710938 338.628906 233.09375 331.84375 241.460938 329.371094 C 249.574219 326.972656 257.199219 329.066406 264.902344 331.789062 C 268.359375 333.007812 271.878906 333.996094 275.3125 335.269531 C 281.15625 337.4375 287.210938 339.46875 293.519531 339.378906 C 296.546875 339.335938 316.9375 336.765625 312.347656 330.992188 C 311.222656 329.578125 309.078125 328.898438 307.519531 328.085938 C 304.347656 326.433594 301.175781 324.816406 298.160156 322.878906 C 294.816406 320.730469 291.714844 318.320312 288.882812 315.546875 C 285.707031 312.433594 282.777344 309.101562 279.957031 305.667969 C 275.480469 300.214844 271.347656 294.5 267.339844 288.691406 C 258.957031 276.539062 251.757812 263.742188 246.195312 250.042969 C 245.648438 248.691406 245.125 247.332031 244.628906 245.960938 C 244.46875 245.511719 244.414062 245.019531 244.339844 244.542969 C 244.328125 244.46875 244.445312 244.316406 244.527344 244.296875 C 244.621094 244.273438 244.78125 244.320312 244.84375 244.394531 C 245.070312 244.675781 245.296875 244.96875 245.46875 245.285156 C 245.988281 246.246094 246.492188 247.21875 246.988281 248.195312 C 249.691406 253.503906 252.289062 258.867188 255.117188 264.113281 C 261.5625 276.074219 269.078125 287.355469 277.289062 298.167969 C 281.375 303.546875 285.65625 308.761719 290.390625 313.589844 C 293.128906 316.378906 296.09375 318.878906 299.457031 320.886719 C 299.683594 321.023438 300.265625 321.421875 300.265625 321.421875 C 300.265625 321.421875 299.449219 318.320312 300.476562 316.246094 C 301.023438 315.132812 301.53125 314 302.347656 313.066406 C 304.605469 310.484375 307.203125 308.34375 310.226562 306.691406 C 313.957031 304.65625 317.949219 303.382812 322.082031 302.472656 C 322.492188 302.382812 322.898438 302.273438 323.300781 302.164062 C 323.84375 302.019531 324.417969 301.941406 324.90625 301.667969 C 324.90625 301.667969 318.359375 293.820312 315.914062 290.324219 Z M 157.835938 81.699219 C 156.464844 90.558594 153.179688 101.484375 147.53125 107.773438 C 144.585938 111.050781 140.378906 113.117188 136.3125 112.105469 C 130.671875 110.699219 126.9375 103.746094 126.417969 97.058594 C 125.972656 91.328125 127.355469 85.765625 128.917969 80.46875 C 130.425781 75.363281 131.921875 70.296875 134.566406 65.804688 C 136.683594 62.210938 139.578125 59.105469 143.144531 57.75 C 146.714844 56.390625 151.007812 57.027344 153.863281 60.035156 C 156.691406 63.011719 157.941406 67.195312 158.304688 71.539062 C 158.59375 75 158.324219 78.5625 157.839844 81.699219 Z M 210.738281 95.226562 C 209.363281 104.082031 206.078125 115.011719 200.433594 121.296875 C 197.484375 124.578125 193.277344 126.644531 189.214844 125.628906 C 183.570312 124.222656 179.839844 117.269531 179.320312 110.585938 C 178.875 104.851562 180.257812 99.292969 181.820312 93.992188 C 183.328125 88.886719 184.824219 83.820312 187.46875 79.328125 C 189.585938 75.738281 192.476562 72.632812 196.046875 71.273438 C 199.617188 69.914062 203.910156 70.554688 206.765625 73.5625 C 209.589844 76.539062 210.839844 80.71875 211.207031 85.066406 C 211.496094 88.523438 211.222656 92.085938 210.738281 95.226562 Z M 210.738281 95.226562 " fill-opacity="1" fill-rule="nonzero"/><g clip-path="url(#2a7abe6e34)"><path fill="#020305" d="M 53.25 93.726562 C 51.320312 87.226562 49.382812 80.554688 47.367188 73.457031 L 70.109375 63.992188 L 74.972656 81.242188 C 72.390625 81.195312 70.332031 81.722656 68.804688 82.824219 C 68.296875 83.195312 67.851562 83.625 67.464844 84.117188 C 66.945312 84.773438 66.535156 85.546875 66.234375 86.429688 C 66.078125 86.882812 66 87.34375 66 87.800781 C 66 87.953125 66.007812 88.105469 66.027344 88.253906 C 66.042969 88.40625 66.066406 88.554688 66.101562 88.703125 C 66.207031 89.148438 66.382812 89.578125 66.636719 89.980469 C 67.34375 91.109375 68.523438 91.851562 69.871094 92.015625 C 70.339844 92.070312 70.832031 92.066406 71.328125 92.015625 C 71.578125 91.988281 71.828125 91.945312 72.078125 91.890625 C 73.328125 91.621094 74.570312 91.035156 75.554688 90.207031 C 76.402344 89.492188 77.042969 88.734375 77.511719 87.890625 C 77.9375 87.125 78.164062 86.34375 78.191406 85.558594 C 78.207031 85.089844 78.152344 84.621094 78.023438 84.148438 C 77.714844 83.019531 77.386719 81.882812 77.066406 80.777344 C 76.921875 80.28125 76.777344 79.78125 76.636719 79.28125 C 76.429688 78.558594 76.203125 77.777344 75.96875 76.957031 C 75.875 76.628906 75.777344 76.292969 75.679688 75.949219 C 75.582031 75.605469 75.480469 75.261719 75.382812 74.90625 C 75.28125 74.554688 75.175781 74.199219 75.074219 73.835938 C 74.96875 73.472656 74.863281 73.105469 74.757812 72.734375 C 74.382812 71.441406 74 70.101562 73.609375 68.757812 C 73.554688 68.566406 73.5 68.375 73.445312 68.179688 C 72.722656 65.679688 71.996094 63.171875 71.332031 60.878906 C 71.277344 60.703125 71.230469 60.53125 71.179688 60.355469 C 70.824219 59.140625 70.492188 57.992188 70.1875 56.949219 C 70.101562 56.652344 70.015625 56.363281 69.9375 56.082031 C 69.855469 55.800781 69.777344 55.527344 69.699219 55.269531 C 69.660156 55.136719 69.621094 55.007812 69.585938 54.882812 C 69.441406 54.382812 69.304688 53.921875 69.1875 53.511719 C 68.792969 52.175781 68.550781 51.351562 68.519531 51.265625 L 68.5 51.210938 L 68.4375 51.226562 C 68.378906 51.242188 67.835938 51.460938 66.9375 51.820312 C 66.738281 51.898438 66.523438 51.988281 66.289062 52.082031 C 66.171875 52.128906 66.054688 52.175781 65.929688 52.226562 C 65.558594 52.375 65.152344 52.542969 64.714844 52.71875 C 63.988281 53.011719 63.183594 53.339844 62.320312 53.6875 C 59.042969 55.019531 54.9375 56.695312 51.285156 58.1875 C 51.09375 58.269531 50.902344 58.347656 50.714844 58.425781 C 49.957031 58.734375 49.222656 59.035156 48.519531 59.320312 C 47.996094 59.535156 47.492188 59.742188 47.011719 59.941406 C 46.691406 60.074219 46.382812 60.199219 46.085938 60.320312 C 45.34375 60.625 44.679688 60.898438 44.117188 61.132812 C 43.441406 61.410156 42.910156 61.628906 42.566406 61.773438 C 42.511719 61.800781 42.457031 61.820312 42.410156 61.839844 C 42.273438 61.898438 42.179688 61.9375 42.140625 61.957031 L 42.089844 61.980469 L 42.199219 62.367188 L 42.253906 62.558594 C 42.359375 62.929688 42.460938 63.296875 42.566406 63.664062 C 43.425781 66.660156 44.28125 69.679688 45.132812 72.691406 C 45.980469 75.707031 46.820312 78.707031 47.644531 81.65625 C 48.179688 83.558594 48.714844 85.464844 49.246094 87.367188 C 49.515625 88.320312 49.78125 89.273438 50.050781 90.222656 C 50.117188 90.460938 50.171875 90.703125 50.230469 90.9375 C 50.25 91.027344 50.269531 91.113281 50.289062 91.203125 C 50.246094 91.207031 50.179688 91.210938 50.101562 91.21875 C 49.976562 91.226562 49.816406 91.234375 49.652344 91.246094 C 49.257812 91.269531 48.765625 91.300781 48.3125 91.339844 C 47.972656 91.367188 47.652344 91.402344 47.414062 91.441406 C 47.335938 91.457031 47.265625 91.472656 47.207031 91.488281 C 46.910156 91.5625 46.621094 91.652344 46.339844 91.761719 C 44.652344 92.398438 43.230469 93.578125 42.34375 95.066406 C 42.195312 95.3125 42.0625 95.570312 41.945312 95.835938 C 41.707031 96.371094 41.5625 96.921875 41.511719 97.460938 C 41.496094 97.640625 41.488281 97.820312 41.492188 97.996094 C 41.507812 98.707031 41.6875 99.386719 42.03125 99.988281 C 42.113281 100.140625 42.207031 100.28125 42.308594 100.417969 C 42.714844 100.960938 43.246094 101.390625 43.878906 101.6875 C 44.355469 101.910156 44.882812 102.0625 45.457031 102.128906 C 45.671875 102.15625 45.890625 102.171875 46.109375 102.171875 C 46.550781 102.179688 46.992188 102.136719 47.433594 102.058594 C 47.652344 102.015625 47.871094 101.964844 48.089844 101.902344 C 49.542969 101.492188 50.917969 100.625 51.929688 99.425781 C 52.460938 98.792969 52.863281 98.105469 53.125 97.390625 C 53.257812 97.035156 53.351562 96.671875 53.414062 96.304688 C 53.476562 95.9375 53.5 95.566406 53.492188 95.195312 C 53.476562 94.703125 53.398438 94.207031 53.257812 93.722656 Z M 69.519531 61.898438 L 46.773438 71.367188 C 46.519531 70.46875 46.265625 69.570312 46.007812 68.660156 L 68.714844 59.046875 Z M 158.300781 71.539062 C 158.589844 75 158.320312 78.5625 157.832031 81.699219 C 156.460938 90.558594 153.175781 101.484375 147.53125 107.773438 C 144.582031 111.050781 140.375 113.117188 136.3125 112.105469 C 130.667969 110.699219 126.9375 103.746094 126.417969 97.058594 C 125.972656 91.328125 127.355469 85.765625 128.917969 80.46875 C 130.425781 75.363281 131.921875 70.296875 134.566406 65.804688 C 136.683594 62.210938 139.574219 59.105469 143.144531 57.75 C 146.714844 56.390625 151.007812 57.027344 153.863281 60.035156 C 156.6875 63.011719 157.9375 67.195312 158.304688 71.539062 Z M 211.203125 85.066406 C 211.492188 88.523438 211.21875 92.085938 210.734375 95.226562 C 209.363281 104.082031 206.078125 115.011719 200.429688 121.296875 C 197.484375 124.578125 193.277344 126.644531 189.214844 125.628906 C 183.570312 124.222656 179.839844 117.269531 179.316406 110.585938 C 178.871094 104.851562 180.253906 99.292969 181.820312 93.992188 C 183.324219 88.886719 184.824219 83.820312 187.46875 79.328125 C 189.582031 75.738281 192.476562 72.632812 196.046875 71.273438 C 199.617188 69.914062 203.90625 70.554688 206.761719 73.5625 C 209.589844 76.539062 210.839844 80.71875 211.203125 85.066406 Z M 91.648438 51.601562 C 91.644531 51.460938 91.648438 51.320312 91.660156 51.171875 C 91.675781 50.890625 91.71875 50.621094 91.785156 50.359375 C 91.847656 50.09375 91.933594 49.839844 92.039062 49.597656 C 92.140625 49.351562 92.265625 49.117188 92.40625 48.890625 C 92.617188 48.554688 92.867188 48.242188 93.144531 47.949219 C 93.789062 47.273438 94.59375 46.730469 95.449219 46.339844 C 95.726562 46.214844 96 46.105469 96.273438 46.011719 C 97.222656 45.6875 98.148438 45.5625 99.082031 45.601562 C 99.347656 45.613281 99.613281 45.636719 99.882812 45.671875 C 100.019531 45.691406 100.152344 45.710938 100.285156 45.738281 C 100.828125 45.832031 101.375 45.980469 101.9375 46.164062 C 101.992188 46.179688 102.046875 46.199219 102.105469 46.214844 C 102.277344 46.269531 102.472656 46.320312 102.730469 46.394531 L 102.730469 45.210938 C 102.730469 34.367188 102.730469 23.523438 102.730469 12.683594 C 102.730469 12.605469 102.730469 12.527344 102.730469 12.449219 C 102.730469 12.367188 102.730469 12.289062 102.734375 12.207031 C 102.738281 12.128906 102.746094 12.046875 102.753906 11.964844 C 102.777344 11.765625 102.824219 11.574219 102.914062 11.402344 C 103 11.226562 103.121094 11.074219 103.3125 10.964844 C 103.582031 10.808594 103.8125 10.828125 104.011719 10.960938 C 104.113281 11.027344 104.203125 11.117188 104.289062 11.230469 C 104.332031 11.285156 104.371094 11.347656 104.410156 11.410156 C 104.488281 11.535156 104.558594 11.675781 104.621094 11.824219 C 104.652344 11.898438 104.683594 11.972656 104.710938 12.046875 C 104.769531 12.195312 104.824219 12.347656 104.871094 12.492188 C 104.964844 12.777344 105.035156 13.03125 105.09375 13.183594 C 105.457031 14.160156 105.917969 15.101562 106.460938 15.988281 C 106.640625 16.285156 106.832031 16.574219 107.035156 16.855469 C 107.546875 17.582031 108.128906 18.226562 108.757812 18.828125 C 109.382812 19.425781 110.054688 19.980469 110.742188 20.535156 C 110.945312 20.699219 111.148438 20.867188 111.34375 21.039062 C 111.734375 21.382812 112.105469 21.742188 112.449219 22.121094 C 113.316406 23.066406 114.023438 24.136719 114.488281 25.402344 C 114.566406 25.621094 114.640625 25.84375 114.707031 26.0625 C 114.972656 26.941406 115.117188 27.820312 115.101562 28.710938 C 115.085938 29.375 114.984375 30.039062 114.773438 30.707031 C 114.570312 31.347656 114.335938 31.972656 114.074219 32.589844 C 113.941406 32.894531 113.804688 33.199219 113.65625 33.5 C 113.511719 33.800781 113.355469 34.097656 113.191406 34.386719 C 112.867188 34.972656 112.511719 35.542969 112.128906 36.089844 C 112.09375 36.140625 112.054688 36.191406 112.019531 36.242188 C 111.90625 36.390625 111.78125 36.535156 111.640625 36.652344 C 111.59375 36.691406 111.542969 36.726562 111.492188 36.757812 C 111.339844 36.851562 111.164062 36.90625 110.964844 36.902344 C 110.773438 36.894531 110.605469 36.839844 110.476562 36.746094 C 110.261719 36.585938 110.164062 36.324219 110.277344 36.003906 C 110.304688 35.914062 110.34375 35.832031 110.382812 35.746094 C 110.5 35.496094 110.65625 35.257812 110.789062 35.011719 C 111.257812 34.140625 111.667969 33.246094 111.984375 32.324219 C 112.140625 31.863281 112.273438 31.394531 112.375 30.917969 C 112.480469 30.4375 112.554688 29.953125 112.59375 29.460938 C 112.621094 29.164062 112.628906 28.867188 112.625 28.578125 C 112.59375 27.128906 112.167969 25.792969 111.304688 24.714844 C 111.132812 24.496094 110.941406 24.289062 110.730469 24.097656 C 110.523438 23.902344 110.296875 23.71875 110.050781 23.550781 C 109.84375 23.40625 109.632812 23.277344 109.414062 23.160156 C 109.195312 23.042969 108.972656 22.9375 108.75 22.84375 C 107.398438 22.257812 105.9375 21.949219 104.640625 20.960938 L 104.640625 21.324219 C 104.640625 21.433594 104.640625 21.53125 104.640625 21.625 C 104.640625 21.714844 104.640625 21.800781 104.640625 21.882812 C 104.640625 21.964844 104.640625 22.039062 104.640625 22.117188 C 104.640625 26.691406 104.640625 31.261719 104.640625 35.835938 C 104.640625 40.410156 104.644531 44.984375 104.65625 49.558594 C 104.65625 50.476562 104.488281 51.304688 104.179688 52.035156 C 103.503906 53.640625 102.15625 54.785156 100.488281 55.433594 C 100.035156 55.609375 99.585938 55.753906 99.136719 55.867188 C 97.785156 56.199219 96.4375 56.214844 95.074219 55.804688 C 94.683594 55.6875 94.3125 55.53125 93.972656 55.34375 C 93.859375 55.277344 93.746094 55.210938 93.640625 55.140625 C 92.457031 54.363281 91.679688 53.136719 91.644531 51.601562 Z M 328.253906 300.484375 C 327.367188 299.328125 326.484375 298.160156 325.53125 297.058594 C 320.441406 291.152344 315.882812 284.851562 311.570312 278.363281 C 309.855469 275.78125 308.074219 273.238281 306.328125 270.679688 C 304.832031 268.492188 301.628906 263.496094 301.628906 263.496094 C 301.628906 263.496094 302.144531 260.074219 304.746094 257.613281 C 306.308594 256.140625 308.222656 255.265625 310.355469 255.113281 C 316.054688 254.714844 321.039062 256.0625 326.539062 257.15625 C 327.070312 257.261719 327.621094 257.316406 328.167969 257.328125 C 328.929688 257.34375 329.425781 256.773438 329.300781 256.027344 C 329.242188 255.675781 329.121094 255.3125 328.9375 255.007812 C 328.53125 254.332031 328.082031 253.679688 327.632812 253.035156 C 326.863281 251.941406 326.042969 250.878906 325.308594 249.765625 C 320.496094 242.515625 316.136719 234.996094 312.054688 227.3125 C 309.367188 222.246094 307.171875 216.996094 305.765625 211.414062 C 302.859375 199.890625 302.476562 187.777344 305.496094 176.222656 C 307.371094 169.0625 310.179688 161.828125 309.941406 154.308594 C 309.824219 150.726562 309.011719 147.351562 307.28125 144.179688 C 303.421875 137.121094 295.007812 136.09375 287.921875 138.3125 C 282.609375 139.976562 271.792969 146.476562 271.792969 146.476562 C 272.628906 137.871094 272.789062 130.40625 272.707031 124.464844 C 272.605469 117.261719 272.058594 106.40625 269.804688 93.324219 C 269.105469 89.269531 268.28125 84.613281 266.691406 78.65625 C 264.136719 69.058594 260.574219 59.699219 255.773438 51 C 247.308594 35.667969 234.046875 23.039062 217.703125 16.5 C 198.953125 9 178.695312 10.398438 160.222656 18.078125 C 151.3125 21.785156 142.957031 26.984375 135.769531 33.4375 C 128.472656 39.988281 121.296875 47.140625 115.472656 55.054688 C 115.417969 55.128906 115.363281 55.207031 115.308594 55.28125 C 107.105469 66.523438 101.355469 79.367188 97.386719 92.671875 C 91.324219 112.988281 88.660156 134.644531 90.730469 155.789062 C 91.125 159.832031 91.867188 163.847656 91.972656 167.914062 C 91.996094 168.878906 92.171875 171.917969 92.019531 172.195312 C 92.019531 172.195312 90.992188 174.054688 90.246094 175.394531 C 89.5625 176.628906 87.785156 179.875 87.785156 179.875 C 85.917969 180.347656 83.867188 180.789062 81.976562 181.515625 C 80.117188 182.234375 78.332031 183.140625 76.625 184.167969 C 73.425781 186.089844 70.507812 188.546875 68.28125 191.5625 C 67.125 193.125 66.0625 194.761719 65.101562 196.453125 C 58.304688 208.421875 56.867188 222.847656 56.410156 236.359375 C 56.144531 244.085938 56.257812 251.804688 56.9375 259.515625 C 57.292969 263.578125 57.746094 267.621094 58.484375 271.632812 C 59.410156 276.667969 60.683594 281.605469 62.472656 286.40625 C 63.875 290.164062 65.933594 293.503906 68.789062 296.324219 C 70.523438 298.039062 72.601562 299.121094 75.019531 299.496094 C 77.539062 299.886719 76.128906 297.050781 75.75 295.921875 C 75.132812 294.078125 74.773438 292.136719 74.875 290.1875 C 75.082031 286.085938 78.335938 280.34375 83.273438 281.621094 C 84.386719 281.90625 85.277344 282.722656 86.085938 283.539062 C 89.703125 287.167969 92.5 291.421875 95.734375 295.367188 C 97.480469 297.503906 99.523438 299.347656 101.730469 300.9375 C 103.9375 302.53125 109.96875 304.894531 109.96875 304.894531 C 109.96875 304.894531 109.652344 312.308594 109.421875 315.644531 C 109.242188 318.253906 109.058594 320.871094 108.679688 323.453125 C 107.976562 328.265625 107.191406 333.070312 106.316406 337.851562 C 105.621094 341.644531 105.253906 345.429688 105.5 349.285156 C 105.652344 351.726562 106.566406 353.703125 108.410156 355.335938 C 111.03125 357.65625 113.941406 359.492188 117.105469 360.957031 C 120.816406 362.671875 124 364.28125 128.03125 364.90625 C 132.253906 365.566406 135.53125 365.953125 139.253906 365.785156 C 142.378906 365.644531 144.898438 363.585938 144.898438 363.585938 C 144.898438 363.585938 147.527344 365.183594 148.917969 366.171875 C 154.476562 370.113281 158.578125 370.773438 163.980469 371.019531 C 167.023438 371.15625 171.011719 371.253906 173.773438 369.777344 C 174.582031 369.347656 174.921875 368.722656 174.71875 367.832031 C 173.871094 364.136719 172.816406 360.527344 172.242188 356.773438 C 171.851562 354.207031 171.6875 352.34375 171.886719 348.835938 C 173.488281 349.179688 174.992188 349.671875 176.542969 350.1875 C 180.726562 351.570312 184.648438 353.671875 188.285156 356.144531 C 191.914062 358.609375 196.171875 360.816406 200.496094 361.761719 C 207.5625 363.304688 214.8125 363.757812 222.03125 363.859375 C 226.003906 363.914062 229.980469 364.007812 233.949219 363.816406 C 237.636719 363.632812 241.71875 363.4375 245.183594 362.050781 C 247.144531 361.261719 248.960938 359.914062 249.894531 358.015625 C 250.882812 356.015625 250.792969 353.652344 250.367188 351.460938 C 249.445312 346.707031 248.238281 341.984375 247.109375 337.273438 C 246.710938 335.621094 246.214844 333.5625 245.804688 331.910156 C 245.804688 331.910156 249.753906 330.3125 261.386719 334.046875 C 264.234375 334.960938 266.984375 336.15625 269.777344 337.21875 C 276.054688 339.609375 282.457031 341.902344 289.15625 342.730469 C 296.183594 343.597656 302.429688 342.304688 309.011719 339.886719 C 311.042969 339.140625 313.105469 338.367188 314.804688 337.03125 C 316.101562 336.011719 316.925781 334.660156 317 332.980469 C 317.054688 331.761719 316.757812 330.550781 316.371094 329.390625 C 315.144531 325.707031 313.011719 322.242188 310.957031 318.96875 C 309.667969 316.914062 307.707031 314.910156 306.753906 312.695312 C 308.636719 309.964844 313.261719 308.40625 316.25 307.328125 C 319.640625 306.101562 323.226562 305.242188 326.679688 304.410156 C 327.214844 304.28125 327.765625 304.140625 328.242188 303.886719 C 329.011719 303.476562 329.324219 302.535156 328.992188 301.726562 C 328.8125 301.285156 328.550781 300.863281 328.261719 300.484375 Z M 94.207031 173.816406 C 94.207031 173.816406 94.285156 173.886719 94.800781 174.179688 C 95.914062 174.804688 97.039062 175.410156 98.109375 176.101562 C 100.761719 177.8125 103.378906 179.582031 106.03125 181.300781 C 108.628906 182.984375 114.667969 186.90625 114.667969 186.90625 C 114.667969 186.90625 105.535156 202.535156 100.917969 209.730469 C 99.0625 212.621094 97.304688 215.574219 95.699219 218.609375 C 94.5625 220.753906 93.28125 222.820312 92.054688 224.910156 C 91.871094 225.226562 91.179688 226.441406 91.179688 226.441406 C 90.128906 224.910156 88.652344 223.515625 87.1875 222.414062 C 84.453125 220.355469 82.992188 219.894531 79.324219 219.285156 C 78.148438 219.09375 76.652344 219.214844 76.324219 219.167969 C 76.640625 218.039062 78.132812 214.652344 78.132812 214.652344 C 78.132812 214.652344 79.914062 214.394531 80.625 214.261719 C 82.589844 213.894531 84.023438 213.519531 85.757812 212.992188 C 89.421875 211.886719 92.996094 210.523438 96.472656 208.914062 C 101.441406 206.605469 104.308594 202.558594 105.847656 197.429688 C 105.984375 196.964844 106.0625 196.480469 106.179688 196.011719 C 107.195312 191.886719 105.492188 186.8125 102.011719 184.316406 C 98.996094 182.15625 96.816406 180.816406 92.375 180.1875 C 92.207031 180.160156 91.207031 179.984375 90.734375 180.007812 C 90.886719 179.5625 93.285156 175.457031 94.207031 173.816406 Z M 104.195312 149.320312 C 107.710938 150.796875 109.75 151.855469 112.589844 153.640625 C 116.234375 155.925781 118.828125 157.925781 121.972656 160.863281 C 125.085938 163.773438 127.867188 167.023438 130.230469 170.570312 C 130.796875 171.429688 132.367188 173.816406 132.367188 173.816406 C 129.441406 177.78125 126.089844 179.273438 126.089844 179.273438 L 125.796875 178.746094 C 122.617188 173.046875 118.222656 168.808594 113.144531 164.917969 C 110.304688 162.746094 106.996094 160.726562 103.816406 159.058594 C 101.773438 157.984375 97.246094 155.964844 96.914062 155.789062 C 97.933594 153.097656 101.800781 148.480469 101.800781 148.480469 C 101.800781 148.480469 102.878906 148.769531 104.195312 149.320312 Z M 103.378906 146.945312 C 103.378906 146.945312 103.699219 146.554688 103.925781 146.359375 C 108.675781 142.273438 115.960938 140.867188 122.039062 142.214844 C 122.992188 142.425781 123.929688 142.707031 124.835938 143.066406 C 135.695312 147.332031 139.59375 161.582031 134.121094 171.171875 C 133.9375 171.492188 133.640625 172.042969 133.640625 172.042969 C 130.25 166.367188 125.667969 161.074219 120.554688 156.894531 C 115.492188 152.753906 109.625 149.050781 103.375 146.949219 Z M 100.480469 159.570312 C 106.957031 162.855469 112.28125 166.160156 117.542969 171.234375 C 120.738281 174.417969 124.429688 180.304688 124.429688 180.304688 C 122.539062 181.277344 120.035156 182.691406 118.144531 183.664062 C 117.425781 184.035156 117.046875 184.183594 117.046875 184.183594 C 117.046875 184.183594 103.792969 175.976562 97.773438 171.96875 C 96.964844 171.429688 94.554688 170.027344 94.554688 170.027344 C 94.554688 170.027344 94.511719 169.410156 94.53125 168.855469 C 94.644531 165.386719 94.859375 162.394531 95.777344 159.023438 C 95.859375 158.730469 96.21875 157.675781 96.21875 157.675781 C 96.21875 157.675781 99.289062 158.886719 100.480469 159.570312 Z M 89.515625 228.035156 C 89.605469 229.339844 86.691406 229.535156 85.292969 229.355469 C 83.128906 229.074219 81.269531 228.546875 79.273438 227.105469 C 77.902344 226.113281 74.980469 223.5 75.585938 221.871094 C 75.976562 220.820312 80.207031 220.984375 83.164062 222.414062 C 85.980469 223.773438 86.769531 224.660156 87.441406 225.304688 C 87.789062 225.636719 89.453125 227.058594 89.519531 228.035156 Z M 323.296875 302.164062 C 322.890625 302.273438 322.488281 302.382812 322.078125 302.472656 C 317.945312 303.382812 313.953125 304.65625 310.21875 306.691406 C 307.195312 308.339844 304.597656 310.480469 302.339844 313.066406 C 301.527344 314 301.019531 315.132812 300.46875 316.246094 C 299.441406 318.320312 300.257812 321.421875 300.257812 321.421875 C 300.257812 321.421875 299.675781 321.023438 299.449219 320.886719 C 296.089844 318.878906 293.121094 316.378906 290.386719 313.589844 C 285.652344 308.761719 281.371094 303.546875 277.285156 298.167969 C 269.070312 287.351562 261.558594 276.074219 255.109375 264.109375 C 252.285156 258.867188 249.6875 253.5 246.980469 248.195312 C 246.484375 247.21875 245.980469 246.246094 245.460938 245.285156 C 245.289062 244.96875 245.0625 244.675781 244.835938 244.394531 C 244.777344 244.320312 244.613281 244.273438 244.523438 244.296875 C 244.441406 244.316406 244.320312 244.464844 244.332031 244.542969 C 244.410156 245.019531 244.460938 245.511719 244.625 245.960938 C 245.121094 247.332031 245.640625 248.695312 246.191406 250.042969 C 251.753906 263.742188 258.949219 276.539062 267.335938 288.691406 C 271.34375 294.5 275.472656 300.214844 279.953125 305.667969 C 282.769531 309.101562 285.703125 312.433594 288.875 315.546875 C 291.707031 318.320312 294.8125 320.730469 298.152344 322.878906 C 301.167969 324.816406 304.339844 326.429688 307.515625 328.085938 C 309.070312 328.898438 311.21875 329.578125 312.339844 330.992188 C 316.933594 336.765625 296.539062 339.332031 293.515625 339.378906 C 287.207031 339.472656 281.152344 337.4375 275.304688 335.269531 C 271.871094 333.996094 268.351562 333.007812 264.894531 331.789062 C 257.195312 329.066406 249.566406 326.96875 241.453125 329.371094 C 233.089844 331.847656 229.703125 338.628906 229.703125 338.628906 C 229.703125 338.628906 224.625 329.496094 223.230469 325.144531 C 221.429688 319.527344 220.023438 313.796875 218.496094 308.101562 C 215.636719 297.457031 213.71875 286.625 211.832031 275.78125 C 210.625 268.828125 209.613281 261.851562 208.929688 254.824219 C 208.585938 251.316406 208.207031 247.808594 207.828125 244.300781 C 207.746094 243.515625 207.617188 242.734375 207.472656 241.957031 C 207.445312 241.824219 207.242188 241.664062 207.089844 241.625 C 206.816406 241.554688 206.632812 241.757812 206.558594 241.992188 C 206.46875 242.28125 206.433594 242.585938 206.386719 242.886719 C 206.152344 244.332031 206.121094 245.792969 206.164062 247.253906 C 206.351562 253.640625 206.765625 260.007812 207.464844 266.363281 C 208.660156 277.195312 210.421875 287.933594 212.699219 298.578125 C 214.464844 306.84375 216.640625 315.015625 219.242188 323.058594 C 222.53125 333.21875 228.164062 346.429688 238.910156 350.628906 C 241.535156 351.65625 244.714844 352.023438 246.75 354.132812 C 249.0625 356.53125 243.832031 358.871094 242.09375 359.421875 C 240.003906 360.089844 237.796875 360.285156 235.609375 360.4375 C 230.007812 360.839844 224.367188 361.011719 218.765625 360.53125 C 215.789062 360.273438 212.675781 359.773438 209.707031 359.238281 C 206.5 358.660156 203.316406 357.707031 200.554688 355.929688 C 196.554688 353.355469 193.648438 349.257812 191.199219 345.253906 C 188.53125 340.894531 186.359375 336.121094 184.617188 331.3125 C 183.1875 327.367188 181.808594 323.40625 180.558594 319.402344 C 178.058594 311.382812 176.109375 303.226562 174.386719 295.011719 C 172.898438 287.929688 171.609375 280.808594 170.492188 273.660156 C 169.707031 268.613281 169.039062 263.546875 168.472656 258.46875 C 167.820312 252.601562 167.40625 246.71875 167 240.832031 C 166.609375 235.125 166.503906 229.410156 166.382812 223.691406 C 166.371094 223.148438 166.464844 222.589844 166.226562 222.074219 C 166.1875 221.988281 166.042969 221.914062 165.9375 221.902344 C 165.832031 221.890625 165.660156 221.933594 165.617188 222.011719 C 165.480469 222.273438 165.335938 222.550781 165.285156 222.835938 C 165.015625 224.339844 164.960938 225.855469 164.9375 227.378906 C 164.839844 233.097656 164.925781 238.8125 165.207031 244.527344 C 165.554688 251.582031 166.160156 258.605469 167.007812 265.613281 C 168.597656 278.789062 170.992188 291.816406 174.019531 304.734375 C 174.796875 308.050781 175.679688 311.335938 176.664062 314.597656 C 177.933594 318.785156 179.25 322.957031 180.507812 327.148438 C 182.273438 333.042969 184.539062 338.742188 187.152344 344.308594 C 188.210938 346.566406 189.378906 348.769531 190.675781 350.902344 C 190.925781 351.3125 191.71875 352.628906 191.71875 352.628906 C 191.71875 352.628906 190.550781 352.179688 190.195312 352.03125 C 185.039062 349.886719 179.875 347.757812 174.734375 345.578125 C 170.472656 343.773438 166.042969 342.929688 161.421875 343.066406 C 157.71875 343.175781 153.960938 343.976562 150.597656 345.554688 C 149.289062 346.167969 148.042969 346.929688 146.941406 347.863281 C 146.394531 348.332031 145.886719 348.847656 145.417969 349.394531 C 145.234375 349.613281 144.015625 350.796875 144.050781 351.007812 C 143.898438 350.058594 143.757812 349.109375 143.621094 348.160156 C 143.074219 344.425781 142.738281 340.652344 142.441406 336.890625 C 141.863281 329.542969 141.40625 322.1875 140.855469 314.835938 C 140.546875 310.710938 140.1875 306.589844 139.878906 302.46875 C 139.703125 300.160156 139.539062 297.855469 139.460938 295.546875 C 139.296875 290.679688 138.976562 285.824219 138.566406 280.972656 C 138.214844 276.792969 137.742188 272.621094 137.332031 268.445312 C 137.171875 266.808594 137.003906 265.175781 136.898438 263.539062 C 136.449219 256.617188 135.855469 249.707031 135.632812 242.773438 C 135.542969 239.96875 135.15625 237.199219 134.652344 234.441406 C 134.609375 234.203125 134.574219 233.960938 134.492188 233.734375 C 134.414062 233.5 134.25 233.308594 133.980469 233.285156 C 133.703125 233.261719 133.515625 233.449219 133.425781 233.671875 C 133.3125 233.945312 133.21875 234.246094 133.203125 234.542969 C 133.15625 235.332031 133.140625 236.121094 133.144531 236.914062 C 133.148438 238.738281 133.191406 240.5625 133.1875 242.386719 C 133.183594 249.816406 133.5625 257.222656 134.179688 264.621094 C 134.644531 270.257812 135.199219 275.890625 135.628906 281.53125 C 135.90625 285.167969 136.050781 288.816406 136.210938 292.464844 C 136.554688 300.0625 137.097656 307.644531 137.785156 315.214844 C 138.121094 318.910156 138.320312 322.617188 138.625 326.3125 C 138.929688 330.011719 139.273438 333.703125 139.617188 337.398438 C 139.804688 339.394531 141.074219 352.222656 141.074219 352.222656 C 141.074219 352.222656 139.816406 351.542969 139.496094 351.367188 C 136.128906 349.527344 132.480469 348.234375 128.710938 347.511719 C 122.183594 346.261719 115.207031 346.605469 109.152344 349.53125 C 108.832031 349.683594 108.492188 349.792969 108.089844 349.949219 C 107.65625 348.640625 107.703125 347.363281 107.789062 346.097656 C 107.9375 343.914062 108.308594 341.761719 108.742188 339.609375 C 109.90625 333.832031 111.203125 328.070312 111.886719 322.207031 C 112.257812 319.007812 112.457031 315.785156 112.722656 312.574219 C 112.867188 310.816406 112.984375 309.054688 113.128906 307.300781 C 113.519531 302.679688 113.355469 298.066406 113.214844 293.441406 C 113.003906 286.503906 112.558594 279.585938 111.953125 272.679688 C 111.414062 266.5 110.820312 260.324219 110.136719 254.15625 C 109.667969 249.929688 109.148438 245.699219 108.011719 241.582031 C 107.75 240.644531 107.476562 239.710938 107.167969 238.785156 C 107.019531 238.328125 106.847656 237.855469 106.441406 237.546875 C 106.3125 237.449219 106.09375 237.375 105.949219 237.417969 C 105.800781 237.460938 105.613281 237.640625 105.585938 237.785156 C 105.53125 238.140625 105.519531 238.511719 105.558594 238.871094 C 105.679688 239.960938 105.796875 241.050781 105.980469 242.128906 C 106.65625 246.089844 107.027344 250.085938 107.351562 254.085938 C 107.675781 258.027344 107.980469 261.96875 108.28125 265.914062 C 108.582031 269.855469 108.839844 273.800781 109.160156 277.738281 C 109.683594 284.171875 109.726562 287.457031 109.992188 293.898438 C 110.027344 294.75 110.195312 300.835938 110.195312 300.835938 C 110.195312 300.835938 108.164062 300.019531 107.6875 299.765625 C 104.898438 298.253906 102.296875 296.480469 100.019531 294.25 C 98.191406 292.453125 96.589844 290.46875 94.992188 288.476562 C 92.457031 285.316406 90.058594 282.070312 86.753906 279.65625 C 83.609375 277.363281 79.925781 275.78125 76.058594 275.269531 C 71.359375 274.652344 68.3125 277.109375 65.277344 280.375 C 65.277344 280.375 63.101562 272.359375 62.453125 268.832031 C 61.773438 265.121094 61.164062 261.402344 60.773438 257.652344 C 59.984375 249.957031 59.484375 242.253906 60.117188 234.515625 C 60.445312 230.515625 60.691406 226.507812 61.015625 222.503906 C 61.46875 216.859375 62.128906 211.003906 64.117188 205.667969 C 65.945312 200.753906 68.824219 196.195312 72.332031 192.375 C 78.148438 186.042969 85.980469 182.59375 94.578125 184.378906 C 97.421875 184.96875 100.328125 186.257812 102.011719 188.734375 C 103.894531 191.503906 103.929688 195.425781 102.746094 198.472656 C 100.9375 203.140625 95.960938 205.902344 91.636719 207.878906 C 86.851562 210.066406 81.710938 211.34375 76.578125 212.402344 C 76.105469 212.5 75.621094 212.582031 75.167969 212.742188 C 74.617188 212.941406 73.433594 213.28125 73.597656 213.867188 C 73.765625 214.453125 75.445312 214.65625 75.445312 214.65625 C 75.445312 214.65625 73.769531 218.265625 73.238281 219.882812 C 73.023438 220.539062 72.875 221.417969 72.984375 222.085938 C 73.613281 225.90625 76.480469 228.753906 80.246094 230.441406 C 84.476562 232.339844 87.957031 231.875 90.101562 230.980469 C 93.132812 229.710938 94.464844 226.742188 96.007812 224.03125 C 97.238281 221.867188 98.386719 219.652344 99.640625 217.496094 C 101.203125 214.820312 102.804688 212.164062 104.457031 209.539062 C 107.371094 204.90625 109.992188 200.101562 112.765625 195.386719 C 114.371094 192.660156 117.96875 186.558594 117.96875 186.558594 C 117.96875 186.558594 119.261719 185.917969 119.738281 185.71875 C 126.761719 182.804688 132.476562 179.667969 136.242188 173.171875 C 139.6875 167.226562 140.53125 159.96875 138.378906 153.425781 C 136.457031 147.574219 131.800781 143.171875 126.246094 140.667969 C 115.792969 135.953125 103.957031 140.65625 97.394531 149.464844 C 96.378906 150.832031 95.445312 152.371094 94.734375 153.929688 C 94.609375 154.195312 94 155.703125 93.855469 155.957031 C 93.855469 155.957031 93.246094 148.226562 93.324219 144.625 C 93.433594 139.988281 93.585938 135.363281 93.953125 130.742188 C 96.863281 93.804688 109.875 55.140625 141.574219 33.152344 C 158.738281 21.246094 179.445312 11.6875 200.855469 15.539062 C 207.003906 16.648438 212.792969 19.078125 218.515625 21.503906 C 229.867188 26.316406 239.132812 34.066406 246.425781 43.972656 C 251.628906 51.046875 255.871094 58.902344 259.296875 66.980469 C 260.019531 69.515625 261.148438 72.058594 262.015625 74.554688 C 262.882812 77.0625 263.402344 79.75 263.988281 82.347656 C 265.203125 87.769531 266.214844 93.238281 267.019531 98.734375 C 269.121094 113.109375 269.628906 127.425781 268.710938 141.914062 C 268.582031 143.976562 267.925781 148.898438 267.925781 148.898438 C 267.925781 148.898438 259.789062 154.34375 256.015625 156.667969 C 249.960938 160.394531 243.746094 163.847656 237.550781 167.320312 C 237.019531 167.617188 236.5 167.929688 235.988281 168.261719 C 235.738281 168.425781 235.496094 168.621094 235.300781 168.847656 C 235.003906 169.191406 234.886719 169.59375 235.125 170.027344 C 235.355469 170.445312 235.730469 170.667969 236.179688 170.597656 C 236.71875 170.515625 237.242188 170.339844 237.761719 170.171875 C 240.667969 169.25 243.382812 167.890625 246.0625 166.464844 C 250.585938 164.054688 255.140625 161.703125 259.523438 159.046875 C 265.175781 155.625 270.625 151.878906 276.253906 148.414062 C 279.054688 146.691406 281.902344 145.035156 284.828125 143.53125 C 289.796875 140.980469 295.730469 138.820312 300.894531 142.246094 C 304.078125 144.355469 305.808594 148.179688 306.242188 151.976562 C 307.132812 159.722656 304.082031 167.863281 302.136719 175.253906 C 300.96875 179.6875 300.3125 184.183594 300.136719 188.761719 C 300.082031 190.15625 299.957031 191.554688 299.929688 192.953125 C 299.855469 196.605469 300.074219 200.25 300.609375 203.863281 C 301.324219 208.683594 302.460938 213.410156 303.972656 218.042969 C 305.203125 221.820312 307.003906 225.339844 308.90625 228.804688 C 311.597656 233.703125 314.398438 238.546875 317.1875 243.398438 C 317.976562 244.765625 321.222656 249.527344 321.222656 249.527344 C 316.90625 246.894531 312.5625 244.375 307.410156 243.957031 C 303.945312 243.679688 299.101562 244.332031 296.527344 246.960938 C 294.183594 249.351562 293.359375 253.488281 295.5625 256.214844 C 296.691406 257.617188 300.828125 261.929688 296.695312 262.722656 C 293.542969 263.328125 290.035156 262.132812 286.953125 261.441406 C 283.539062 260.679688 280.15625 259.765625 276.863281 258.578125 C 271.347656 256.59375 265.808594 253.792969 261.453125 249.808594 C 259.617188 248.125 257.746094 246.476562 255.886719 244.816406 C 255.707031 244.652344 255.523438 244.492188 255.332031 244.34375 C 255.089844 244.148438 254.824219 244.007812 254.5 244.132812 C 254.246094 244.226562 254.257812 244.628906 254.601562 245.078125 C 255.304688 245.996094 256.03125 246.894531 256.765625 247.785156 C 257.21875 248.332031 257.6875 248.871094 258.167969 249.398438 C 260.046875 251.464844 262.132812 253.339844 264.378906 255.003906 C 269.1875 258.566406 274.671875 261.113281 280.363281 262.898438 C 283.171875 263.78125 286.039062 264.417969 288.90625 265.085938 C 292 265.808594 295.414062 266.308594 298.457031 265.105469 L 299.246094 264.796875 C 299.246094 264.796875 301.128906 267.878906 301.859375 269 C 306.492188 276.140625 311.027344 283.34375 315.902344 290.324219 C 318.347656 293.824219 324.898438 301.671875 324.898438 301.671875 C 324.40625 301.941406 323.832031 302.019531 323.292969 302.167969 Z M 323.296875 302.164062 " fill-opacity="1" fill-rule="nonzero"/></g></svg>