<svg xmlns="http://www.w3.org/2000/svg" xmlns:xlink="http://www.w3.org/1999/xlink" width="500" zoomAndPan="magnify" viewBox="0 0 375 374.999991" height="500" preserveAspectRatio="xMidYMid meet" version="1.0"><defs><clipPath id="d40741f9db"><path d="M 16.117188 11.152344 L 349.867188 11.152344 L 349.867188 363 L 16.117188 363 Z M 16.117188 11.152344 " clip-rule="nonzero"/></clipPath></defs><rect x="-37.5" width="450" fill="#ffffff" y="-37.499999" height="449.999989" fill-opacity="1"/><rect x="-37.5" width="450" fill="#ffffff" y="-37.499999" height="449.999989" fill-opacity="1"/><path fill="#d0ac67" d="M 87.023438 219.390625 C 87.023438 219.390625 86.054688 226.792969 86.234375 230.523438 C 86.234375 231.84375 86.257812 236.074219 86.257812 236.074219 C 86.257812 236.074219 85.890625 235.941406 85.503906 235.824219 C 83.15625 235.121094 81.148438 233.898438 79.777344 231.839844 C 78.3125 229.648438 77.695312 225.640625 80.769531 222.503906 C 82.265625 220.976562 84.101562 220.023438 86.179688 219.527344 C 86.710938 219.402344 87.023438 219.390625 87.023438 219.390625 Z M 117.601562 166.824219 L 117.671875 173.863281 C 117.675781 174.453125 118.007812 174.992188 118.53125 175.265625 C 119.566406 175.808594 121.296875 176.691406 122.152344 177.019531 C 122.644531 177.210938 122.972656 177.3125 122.972656 177.3125 L 122.972656 165.105469 C 122.972656 165.105469 119.304688 165.105469 119.304688 165.105469 C 118.355469 165.105469 117.589844 165.878906 117.601562 166.824219 Z M 78.289062 309.066406 C 77.171875 310.40625 75.964844 310.90625 74.347656 310.546875 C 73.15625 310.28125 72.015625 309.847656 71.019531 309.105469 C 70.207031 308.503906 69.453125 307.851562 68.949219 306.949219 C 68.433594 306.015625 68.253906 305.085938 68.707031 304.070312 C 68.777344 303.917969 69.507812 302.449219 70.535156 300.375 C 69.539062 300.851562 68.675781 301.5625 68.015625 302.433594 C 67.597656 302.988281 67.257812 303.609375 67.023438 304.273438 C 66.765625 304.992188 66.625 305.769531 66.625 306.578125 C 66.625 307.3125 66.742188 308.019531 66.953125 308.683594 C 67.1875 309.402344 67.53125 310.066406 67.972656 310.660156 C 68.523438 311.40625 69.21875 312.035156 70.019531 312.507812 C 70.636719 312.871094 71.316406 313.144531 72.039062 313.296875 C 72.507812 313.402344 73 313.457031 73.5 313.457031 L 73.527344 313.457031 C 74.234375 313.453125 74.914062 313.34375 75.554688 313.144531 C 75.953125 313.019531 76.335938 312.859375 76.699219 312.664062 C 77.320312 312.335938 77.886719 311.914062 78.378906 311.417969 C 78.84375 310.949219 79.242188 310.417969 79.554688 309.832031 C 79.90625 309.1875 80.152344 308.480469 80.277344 307.730469 C 80.34375 307.355469 80.375 306.972656 80.375 306.578125 C 80.375 306.257812 80.355469 305.945312 80.3125 305.636719 C 79.386719 307.351562 78.648438 308.636719 78.285156 309.070312 Z M 171.484375 292.980469 C 168.894531 290.929688 165.996094 290.566406 162.980469 291.933594 C 159.9375 293.316406 158.449219 295.785156 158.277344 299.082031 C 158.25 300.183594 158.433594 301.234375 158.851562 302.25 C 158.957031 302.507812 159.230469 302.976562 159.230469 302.976562 C 159.230469 302.976562 161.082031 300.742188 161.066406 299.414062 C 161.042969 297.722656 161.875 296.371094 163.410156 295.570312 C 164.722656 294.882812 166.117188 294.632812 167.582031 295.03125 C 169.410156 295.53125 170.46875 296.523438 171.136719 297.8125 C 171.957031 299.386719 171.75 302.671875 169.328125 304.160156 C 168.730469 304.527344 167.246094 306.859375 167.199219 306.917969 C 167.246094 306.917969 170.761719 306.554688 172.582031 304.113281 C 175.316406 300.828125 174.746094 295.566406 171.484375 292.980469 Z M 171.484375 292.980469 " fill-opacity="1" fill-rule="nonzero"/><path fill="#f6e4c5" d="M 113.980469 304.773438 C 115.449219 315.953125 111.371094 331.699219 98.292969 341.683594 C 93.035156 345.695312 87.132812 348.253906 80.589844 349.183594 C 66.246094 351.21875 54.132812 346.835938 44.4375 336.101562 C 38.996094 330.074219 35.792969 322.914062 34.632812 314.835938 C 31.847656 295.433594 42.433594 277.144531 62.09375 270.609375 C 67.488281 268.816406 71.464844 268.511719 77.164062 268.90625 C 80.230469 269.117188 83.382812 269.902344 83.382812 269.902344 L 82.621094 272.296875 C 82.621094 272.296875 82.46875 272.722656 82.199219 273.445312 C 79.605469 272.867188 76.9375 272.574219 74.230469 272.574219 C 69.285156 272.574219 64.488281 273.546875 59.972656 275.453125 C 55.609375 277.300781 51.691406 279.941406 48.332031 283.304688 C 44.96875 286.671875 42.324219 290.589844 40.480469 294.949219 C 38.570312 299.46875 37.601562 304.265625 37.601562 309.210938 C 37.601562 314.152344 38.570312 318.953125 40.480469 323.472656 C 42.324219 327.832031 44.964844 331.753906 48.332031 335.117188 C 51.695312 338.480469 55.609375 341.121094 59.972656 342.964844 C 64.488281 344.878906 69.285156 345.847656 74.230469 345.847656 C 79.175781 345.847656 83.972656 344.875 88.488281 342.964844 C 92.851562 341.121094 96.765625 338.480469 100.128906 335.117188 C 103.496094 331.753906 106.132812 327.832031 107.980469 323.472656 C 109.890625 318.953125 110.859375 314.15625 110.859375 309.210938 C 110.859375 304.265625 109.890625 299.46875 107.980469 294.949219 C 106.132812 290.589844 103.492188 286.667969 100.128906 283.304688 C 98.003906 281.179688 95.660156 279.34375 93.125 277.816406 C 93.4375 276.972656 94.53125 274.027344 94.53125 274.027344 C 94.53125 274.027344 95.554688 274.582031 96.953125 275.625 C 108.1875 284.03125 112.304688 292.011719 113.980469 304.773438 Z M 276.933594 304.988281 C 275.800781 296.214844 272.394531 288.492188 266.378906 282.015625 C 257.164062 272.097656 245.730469 267.710938 232.234375 268.691406 C 230.832031 268.796875 230.679688 268.78125 230.679688 268.78125 C 230.679688 268.78125 230.652344 270.960938 230.625 272.9375 C 232.332031 272.695312 234.0625 272.574219 235.8125 272.574219 C 240.757812 272.574219 245.554688 273.546875 250.074219 275.453125 C 254.433594 277.300781 258.351562 279.941406 261.714844 283.304688 C 265.078125 286.671875 267.71875 290.589844 269.5625 294.949219 C 271.472656 299.46875 272.441406 304.265625 272.441406 309.210938 C 272.441406 314.152344 271.472656 318.953125 269.5625 323.472656 C 267.71875 327.832031 265.078125 331.753906 261.714844 335.117188 C 258.351562 338.480469 254.433594 341.121094 250.074219 342.964844 C 245.554688 344.878906 240.757812 345.847656 235.8125 345.847656 C 230.871094 345.847656 226.074219 344.875 221.558594 342.964844 C 217.195312 341.121094 213.277344 338.480469 209.914062 335.117188 C 206.550781 331.753906 203.910156 327.832031 202.066406 323.472656 C 201.835938 322.925781 201.617188 322.378906 201.417969 321.828125 C 200.222656 321.957031 197.75 322.136719 197.085938 322.242188 C 197.085938 322.242188 197.660156 324.109375 197.84375 324.578125 C 201.578125 334.113281 207.632812 340.570312 216.699219 345.476562 C 224.738281 349.832031 232.855469 351.011719 241.914062 349.679688 C 248.726562 348.679688 254.914062 346.222656 260.515625 342.179688 C 271.773438 334.050781 278.863281 319.90625 276.933594 304.984375 Z M 276.933594 304.988281 " fill-opacity="1" fill-rule="nonzero"/><path fill="#aabebc" d="M 163.019531 301.550781 C 163.097656 301.285156 163.117188 301.007812 163.0625 300.738281 C 163.007812 300.46875 162.984375 300.191406 163.003906 299.90625 C 163.09375 298.335938 164.359375 297.054688 165.925781 296.941406 C 167.78125 296.808594 169.328125 298.273438 169.328125 300.101562 C 169.328125 301.554688 168.347656 302.78125 167.011719 303.152344 C 166.792969 303.214844 166.597656 303.347656 166.46875 303.535156 C 165.441406 304.984375 164.550781 306.527344 163.503906 307.960938 C 162.273438 309.648438 152.8125 322.765625 148.453125 328.25 C 148.40625 328.320312 148.367188 328.382812 148.324219 328.445312 L 141.699219 328.445312 C 142.066406 328.007812 142.496094 327.492188 142.675781 327.292969 C 145.679688 323.992188 148.644531 320.65625 151.355469 317.097656 C 154.234375 313.316406 157.300781 309.679688 160.28125 305.976562 C 160.734375 305.414062 161.167969 304.839844 161.605469 304.265625 C 162.242188 303.429688 162.730469 302.53125 163.019531 301.550781 Z M 247.039062 307.359375 C 247.285156 308.039062 247.289062 308.75 247.050781 309.40625 C 246.839844 310.003906 246.425781 310.558594 245.824219 311.003906 C 245.308594 311.382812 244.714844 311.710938 244.109375 311.894531 C 243.175781 312.179688 242.296875 312.433594 241.421875 312.671875 C 240.625 312.886719 239.828125 313.089844 239 313.277344 C 238.414062 313.410156 237.8125 313.542969 237.183594 313.664062 C 236.542969 313.792969 235.875 313.917969 235.160156 314.039062 C 234.867188 314.089844 234.566406 314.140625 234.257812 314.191406 C 233.71875 314.277344 233.179688 314.359375 232.640625 314.433594 C 231.632812 314.578125 230.617188 314.703125 229.605469 314.820312 C 226.941406 315.125 224.265625 315.371094 221.605469 315.683594 C 216.027344 316.34375 210.445312 316.949219 204.875 317.640625 C 204.375 317.703125 203.871094 317.761719 203.371094 317.816406 C 202.339844 317.929688 201.308594 318.027344 200.273438 318.117188 C 195.066406 318.554688 189.839844 318.691406 184.613281 318.796875 C 180.070312 318.890625 175.554688 318.492188 171.023438 318.183594 C 163.085938 317.644531 160.984375 316.78125 160.984375 316.78125 C 160.984375 316.78125 162.019531 315.171875 162.386719 314.652344 C 162.839844 314.003906 165.859375 309.542969 165.859375 309.542969 C 165.859375 309.542969 168.410156 309.609375 169.507812 309.316406 C 177.507812 307.433594 180.207031 298.472656 174.796875 291.984375 C 171.703125 288.273438 166.375 287.230469 161.808594 289.402344 C 157.585938 291.40625 155.078125 295.621094 155.359375 300.222656 C 155.457031 301.769531 155.929688 303.1875 156.78125 304.472656 C 157.039062 304.859375 157.351562 305.164062 157.351562 305.164062 L 151.734375 312.023438 C 151.734375 312.023438 151.398438 311.691406 150.984375 311.320312 C 149.1875 309.699219 147.894531 307.75 147.03125 305.476562 C 145.246094 300.769531 145.488281 296.167969 147.597656 291.628906 C 148.535156 289.601562 149.558594 287.628906 150.957031 285.859375 C 152.785156 283.542969 155.050781 281.824219 157.753906 280.675781 C 159.75 279.828125 161.828125 279.257812 163.953125 278.859375 C 164.652344 278.726562 164.882812 278.726562 164.882812 278.726562 L 165.972656 279.699219 C 170.175781 284.238281 175.371094 286.976562 181.378906 288.285156 C 184.261719 288.914062 187.136719 289.558594 190.066406 289.96875 C 194.011719 290.523438 197.96875 290.464844 201.921875 290.144531 C 202.847656 290.066406 203.773438 289.972656 204.699219 289.867188 C 206.054688 289.714844 207.40625 289.539062 208.757812 289.363281 C 209.195312 289.308594 209.632812 289.25 210.070312 289.195312 C 210.511719 289.140625 210.921875 289.109375 211.101562 289.097656 C 211.164062 289.09375 211.199219 289.089844 211.199219 289.089844 C 211.199219 289.089844 213.4375 289.925781 216.59375 291.152344 C 221.640625 293.117188 229.023438 296.089844 233.292969 298.269531 C 233.550781 298.398438 233.804688 298.527344 234.0625 298.65625 C 234.765625 299.007812 235.472656 299.355469 236.183594 299.699219 C 237.160156 300.171875 238.136719 300.636719 239.117188 301.105469 C 239.671875 301.371094 240.214844 301.65625 240.746094 301.953125 C 241.351562 302.289062 241.945312 302.644531 242.53125 303.011719 C 242.953125 303.273438 243.367188 303.542969 243.78125 303.816406 C 244.816406 304.5 245.691406 305.34375 246.457031 306.308594 C 246.71875 306.640625 246.914062 306.992188 247.042969 307.351562 Z M 234.667969 303.441406 C 233.488281 302.726562 232.226562 302.171875 230.976562 301.601562 C 228.597656 300.515625 226.171875 299.53125 223.742188 298.5625 C 220.535156 297.28125 217.285156 296.105469 214.015625 295 C 210.800781 293.917969 207.554688 292.738281 204.199219 292.183594 C 204.125 292.171875 204.027344 292.152344 203.917969 292.136719 C 203.535156 292.074219 203.011719 292.027344 202.796875 292.242188 C 202.578125 292.457031 202.730469 292.832031 203.003906 292.980469 C 203.507812 293.246094 204.035156 293.480469 204.570312 293.6875 C 208.855469 295.359375 213.175781 296.949219 217.421875 298.703125 C 222.738281 300.898438 227.996094 303.230469 233.277344 305.511719 C 234.066406 305.851562 234.835938 306.246094 235.625 306.59375 C 236.136719 306.816406 237.058594 306.964844 237.320312 306.296875 C 237.753906 305.195312 235.386719 303.878906 234.664062 303.441406 Z M 104.320312 198.539062 C 105.285156 200.125 105.796875 201.773438 105.3125 203.679688 C 105.113281 204.476562 104.6875 206.125 104.6875 206.125 C 104.6875 206.125 106.507812 206.769531 107.328125 207.011719 C 108.222656 207.273438 110.617188 207.984375 110.617188 207.984375 C 110.617188 207.984375 110.707031 207.769531 110.859375 207.367188 C 111.882812 204.675781 112.210938 201.925781 111.546875 199.101562 C 111.117188 197.273438 110.390625 195.550781 109.613281 193.84375 C 108.355469 191.089844 107.222656 188.292969 106.730469 185.277344 C 106.328125 182.808594 106.453125 180.390625 107.449219 178.070312 C 108.5625 175.472656 110.460938 173.738281 113.171875 172.886719 C 113.769531 172.703125 115.140625 172.339844 115.140625 172.339844 C 115.140625 172.339844 115.136719 170.003906 115.136719 169.785156 C 115.136719 169.785156 115.136719 168.203125 115.117188 167.414062 C 115.105469 166.984375 115.140625 166.691406 115.140625 166.691406 C 115.140625 166.691406 112.328125 166.652344 110.238281 167.109375 C 109.390625 167.292969 107.6875 167.914062 106.910156 168.316406 C 102.460938 170.613281 100.210938 174.230469 99.554688 179.132812 C 99.0625 182.777344 99.761719 186.304688 100.679688 189.800781 C 101.484375 192.875 102.660156 195.808594 104.320312 198.535156 Z M 89.136719 238.394531 C 89.292969 238.625 89.5 238.835938 89.761719 238.902344 C 89.96875 238.953125 90.175781 239.019531 90.382812 239.078125 C 92.179688 239.59375 92.277344 239.574219 92.277344 239.574219 C 92.277344 239.574219 96.273438 226.519531 97.707031 220.800781 C 98.292969 218.453125 98.34375 218.234375 98.34375 218.222656 C 98.34375 218.222656 98.339844 218.226562 98.339844 218.226562 C 97.464844 217.886719 96.257812 217.5625 94.707031 217.285156 C 93.253906 217.027344 90.046875 216.253906 89.566406 218.652344 C 89.410156 219.441406 89.28125 220.347656 89.242188 220.683594 C 88.855469 223.964844 88.347656 227.238281 88.410156 230.4375 C 88.3125 232.503906 88.632812 236.089844 88.75 237.273438 C 88.789062 237.671875 88.914062 238.0625 89.136719 238.394531 Z M 81.648438 257.859375 C 83.074219 258.042969 84.492188 258.289062 85.910156 258.53125 C 86.324219 258.597656 86.738281 258.679688 86.738281 258.679688 L 88.578125 252.503906 C 88.578125 252.503906 87.90625 252.363281 87.773438 252.335938 C 82.535156 251.265625 77.25 250.730469 71.902344 250.902344 C 70.683594 250.941406 69.453125 250.988281 68.242188 251.152344 C 63.234375 251.832031 58.414062 253.277344 53.636719 254.886719 C 51.179688 255.71875 48.8125 256.769531 46.519531 257.972656 C 40.789062 260.980469 35.386719 264.71875 31.054688 269.523438 C 29.945312 270.753906 23.84375 278.820312 22.210938 281.875 C 20.957031 284.222656 19.824219 286.628906 19.03125 289.1875 C 18.792969 289.957031 18.628906 290.714844 18.734375 291.515625 C 18.960938 293.234375 20.296875 294.589844 21.824219 294.605469 C 23.023438 294.621094 23.925781 294.363281 24.925781 293.78125 C 25.800781 293.269531 26.246094 292.296875 26.554688 291.46875 C 27.335938 289.375 28.242188 287.335938 29.304688 285.371094 C 34.910156 275.023438 43.128906 267.382812 53.699219 262.347656 C 62.535156 258.136719 71.890625 256.59375 81.648438 257.859375 Z M 126.667969 282.988281 C 125.144531 280.210938 123.632812 277.433594 121.902344 274.777344 C 120.53125 272.667969 119.203125 270.53125 117.574219 268.597656 C 113.941406 264.277344 109.84375 260.46875 105.144531 257.332031 C 103.660156 256.335938 102.191406 255.402344 100.335938 254.328125 C 99.765625 256.4375 99.195312 258.214844 98.808594 260.027344 C 98.515625 261.414062 98.25 262.253906 98.25 262.253906 C 98.25 262.253906 99.035156 262.859375 100.363281 263.605469 C 111.925781 270.082031 119.765625 279.632812 123.902344 292.222656 C 124.128906 292.90625 124.347656 293.59375 124.558594 294.28125 C 124.734375 294.859375 125.113281 295.238281 125.609375 295.585938 C 127.117188 296.636719 129.6875 295.382812 129.878906 293.171875 C 129.953125 292.308594 129.898438 291.445312 129.628906 290.609375 C 128.785156 288.007812 127.984375 285.394531 126.664062 282.984375 Z M 99.90625 249.667969 C 100.535156 249.78125 101.164062 249.976562 101.765625 250.203125 C 104.261719 251.152344 106.613281 252.394531 108.933594 253.710938 C 113.589844 256.347656 117.78125 259.625 121.949219 262.957031 C 130.007812 269.398438 137.664062 276.261719 144.449219 284.0625 C 145.105469 284.824219 146.671875 286.46875 146.671875 286.46875 C 146.671875 286.46875 147.851562 284.78125 148.558594 284.011719 C 149.894531 282.558594 150.980469 281.296875 150.980469 281.296875 C 150.980469 281.296875 149.28125 279.402344 148.433594 278.453125 C 145.027344 274.632812 141.28125 271.148438 137.453125 267.757812 C 130.058594 261.210938 122.175781 255.273438 114.222656 249.433594 C 110.6875 246.835938 107.050781 244.363281 103.113281 242.382812 C 102.855469 242.253906 102.609375 242.105469 102.363281 241.957031 C 101.679688 241.539062 101.230469 241.09375 101.339844 240.300781 C 101.429688 239.65625 101.613281 238.832031 101.808594 238.222656 C 102.519531 236.035156 103.203125 233.832031 104.054688 231.699219 C 105.042969 229.203125 105.320312 229.101562 107.953125 229.953125 C 114.324219 232.015625 120.59375 234.34375 126.574219 237.386719 C 132.605469 240.457031 138.527344 243.730469 144.382812 247.117188 C 151.445312 251.195312 157.476562 255.253906 163.742188 260.480469 C 163.851562 260.570312 163.5 254.648438 162.378906 251.605469 C 161.984375 250.527344 161.5 249.507812 161.5 249.507812 L 149.601562 241.285156 C 149.601562 241.285156 148.480469 241.378906 147.152344 241.285156 C 145.261719 241.160156 143.617188 240.40625 142.261719 239.027344 C 141.199219 237.945312 138.828125 234.898438 138.828125 234.898438 L 125.175781 228.328125 C 125.175781 228.328125 124.792969 228.410156 124.066406 228.632812 C 121.058594 229.5625 118.28125 229.074219 117.171875 228.257812 C 116.167969 227.515625 115.769531 226.457031 115.640625 225.273438 C 115.585938 224.753906 115.585938 224.570312 115.585938 224.570312 C 115.585938 224.570312 111.820312 223.402344 110.324219 222.894531 C 109.640625 222.667969 108.957031 222.4375 108.300781 222.148438 C 107.015625 221.574219 106.785156 221.117188 107.046875 219.789062 C 107.183594 219.085938 107.3125 218.375 107.507812 217.683594 L 107.765625 216.75 L 101.835938 214.679688 C 101.835938 214.679688 101.71875 215.125 101.261719 216.777344 C 99.660156 222.53125 98.523438 228.402344 96.738281 234.109375 C 95.40625 238.367188 94.1875 242.660156 92.964844 246.949219 C 92.414062 248.886719 91.921875 250.871094 91.378906 252.800781 C 89.953125 257.855469 88.355469 262.835938 86.820312 267.859375 C 86.179688 269.960938 85.488281 272.042969 84.765625 274.113281 C 84.429688 275.082031 84.082031 276.046875 83.730469 277.011719 C 82.640625 280.003906 81.496094 282.972656 80.339844 285.945312 C 79.558594 287.960938 78.625 289.90625 77.597656 291.808594 C 76.539062 293.777344 75.511719 295.761719 74.457031 297.730469 C 74.101562 298.390625 73.746094 299.046875 73.382812 299.699219 C 72.699219 300.933594 71.996094 302.152344 71.253906 303.355469 C 70.992188 303.78125 70.761719 304.234375 70.539062 304.6875 C 70.199219 305.375 70.242188 305.675781 70.792969 306.203125 C 71.796875 307.160156 72.964844 307.898438 74.253906 308.359375 C 76.257812 309.074219 76.253906 308.972656 77.089844 307.300781 C 77.828125 305.824219 78.5625 304.347656 79.289062 302.863281 C 79.675781 302.066406 80.066406 301.269531 80.453125 300.46875 C 83.191406 294.777344 85.792969 289.027344 88.117188 283.148438 C 88.613281 281.890625 89.117188 280.636719 89.617188 279.378906 C 89.996094 278.421875 90.375 277.464844 90.742188 276.5 C 91.613281 274.222656 92.441406 271.929688 93.15625 269.59375 C 93.914062 267.117188 94.632812 264.628906 95.386719 262.152344 C 96.3125 259.121094 96.921875 256.183594 97.746094 252.96875 C 97.941406 252.203125 98.109375 251.425781 98.324219 250.667969 C 98.582031 249.757812 98.957031 249.496094 99.902344 249.667969 Z M 152.5 331.507812 L 136.507812 331.507812 C 134.714844 331.507812 133.253906 332.96875 133.253906 334.761719 L 133.253906 336.164062 C 133.253906 337.960938 134.714844 339.417969 136.507812 339.417969 L 152.5 339.417969 C 154.296875 339.417969 155.753906 337.960938 155.753906 336.164062 L 155.753906 334.761719 C 155.753906 332.96875 154.296875 331.507812 152.5 331.507812 Z M 293.980469 297.035156 C 293.710938 295.324219 293.203125 293.679688 292.605469 292.054688 C 291.234375 288.332031 287.007812 280.78125 287.007812 280.78125 C 287.007812 280.78125 286.699219 280.964844 286.175781 281.285156 C 284.527344 282.296875 283.144531 283.046875 281.179688 283.722656 C 281.335938 284.164062 281.625 284.855469 281.71875 285.042969 C 283.800781 289.175781 285.011719 293.042969 286.011719 297.554688 C 286.105469 297.972656 286.191406 298.40625 286.351562 298.800781 C 287.03125 300.46875 288.039062 301.808594 289.890625 302.289062 C 291.722656 302.769531 293.179688 302.007812 293.824219 300.230469 C 294.210938 299.179688 294.148438 298.101562 293.980469 297.035156 Z M 293.980469 297.035156 " fill-opacity="1" fill-rule="nonzero"/><path fill="#fffcf6" d="M 341.914062 235.867188 C 341.054688 235.214844 340.191406 234.5625 339.324219 233.921875 C 332.945312 229.195312 327.578125 223.527344 323.421875 216.742188 C 322.894531 215.882812 322.34375 215.039062 321.820312 214.175781 C 315.136719 203.15625 310.050781 191.410156 306.234375 179.132812 C 302.964844 168.617188 300.105469 157.976562 297.378906 147.304688 C 293.96875 133.980469 290.910156 120.585938 288.394531 107.058594 C 286.378906 96.226562 283.828125 85.515625 280.703125 74.941406 C 276.816406 61.796875 270.664062 49.832031 262.34375 38.980469 C 256.636719 31.53125 249.867188 25.214844 241.757812 20.429688 C 235.242188 16.582031 228.710938 15.234375 221.132812 15.132812 C 217.074219 15.074219 211.5625 15.59375 207.652344 16.621094 C 196.25 19.617188 187.078125 24.425781 178.179688 32.167969 C 176.714844 33.445312 175.347656 34.832031 174.125 36.351562 C 169.960938 41.523438 166.199219 46.976562 162.902344 52.738281 C 154.933594 66.65625 150.640625 81.703125 149.246094 97.632812 C 148.886719 101.722656 148.363281 105.796875 148.277344 109.90625 C 148.273438 110.121094 148.226562 110.335938 148.214844 110.550781 C 147.835938 115.941406 147.429688 121.332031 147.671875 126.742188 C 147.753906 128.539062 147.871094 130.335938 147.921875 132.136719 C 148.0625 137.257812 148.640625 142.332031 149.460938 147.382812 C 149.589844 148.164062 150.65625 153.40625 150.65625 153.40625 C 150.65625 153.40625 151.859375 154.6875 152.828125 155.570312 C 155.039062 157.59375 159.058594 160.949219 159.058594 160.949219 C 159.058594 160.949219 159.113281 160.945312 159.925781 160.464844 C 160.796875 159.957031 161.304688 159.566406 162.136719 159 C 164.277344 157.546875 166.621094 156.789062 169.222656 156.699219 C 171.195312 156.628906 173.101562 156.847656 174.925781 157.609375 C 176.398438 158.226562 177.875 158.207031 179.355469 157.6875 C 180.441406 157.300781 181.511719 156.878906 182.589844 156.488281 C 183.550781 156.140625 184.523438 155.734375 185.527344 155.535156 C 185.894531 155.460938 187.851562 155.179688 187.589844 155.945312 C 187.515625 156.164062 187.328125 156.277344 187.132812 156.371094 C 185.054688 157.386719 182.9375 158.335938 180.898438 159.4375 C 179.085938 160.421875 177.214844 160.585938 175.253906 160.121094 C 174.554688 159.957031 173.875 159.710938 173.175781 159.539062 C 171.535156 159.128906 169.890625 159.164062 168.261719 159.582031 C 166.910156 159.929688 162.933594 162.011719 161.441406 163.082031 C 161.53125 163.195312 167.445312 166.71875 170.3125 168.371094 C 171.035156 168.789062 171.761719 169.207031 172.480469 169.632812 C 172.917969 169.890625 173.398438 170.128906 173.804688 170.433594 C 173.976562 170.558594 174.082031 170.75 173.988281 170.953125 C 173.898438 171.148438 173.679688 171.308594 173.46875 171.332031 C 173.058594 171.382812 172.601562 171.230469 172.203125 171.136719 C 171.777344 171.039062 171.363281 170.890625 170.960938 170.722656 C 170.164062 170.398438 169.40625 169.984375 168.628906 169.625 C 165.363281 168.109375 162.167969 166.46875 159.175781 164.433594 C 155.941406 162.238281 153.101562 159.585938 150.183594 157.015625 C 148.292969 155.351562 146.394531 153.695312 144.367188 152.1875 C 143.078125 151.226562 141.671875 150.542969 140.167969 150.015625 C 136.714844 148.804688 133.648438 149.59375 130.902344 151.871094 C 129.011719 153.4375 127.816406 155.441406 127.265625 157.84375 C 126.058594 163.085938 125.855469 168.398438 126.164062 173.738281 C 126.332031 176.617188 126.464844 179.496094 126.191406 182.371094 C 125.792969 186.527344 125.328125 190.675781 124.601562 194.792969 C 124.035156 197.984375 123.703125 201.214844 122.898438 204.359375 C 121.847656 208.472656 120.742188 212.574219 119.65625 216.679688 C 119.0625 218.910156 118.582031 221.15625 118.496094 223.476562 C 118.484375 223.738281 118.472656 224 118.476562 224.261719 C 118.488281 225.027344 118.589844 225.742188 119.386719 226.03125 C 120.542969 226.449219 122.027344 226.15625 123.175781 225.886719 C 126.246094 225.160156 128.980469 223.488281 131.746094 222.027344 C 134.046875 220.808594 136.417969 219.75 138.976562 219.25 C 142 218.65625 145.003906 218.488281 147.582031 220.71875 C 147.992188 221.074219 148.554688 221.402344 148.554688 221.402344 C 148.554688 221.402344 149.464844 211.789062 149.167969 205.246094 C 149.003906 201.578125 148.804688 197.136719 148.761719 193.460938 C 148.753906 192.890625 148.59375 191.617188 149.230469 191.316406 C 150.179688 190.863281 150.4375 192.890625 150.5 193.425781 C 150.703125 195.140625 150.820312 196.867188 151.003906 198.585938 C 151.425781 202.535156 151.414062 206.496094 151.347656 210.457031 C 151.25 215.933594 150.941406 221.390625 149.808594 226.777344 C 149.238281 229.488281 148.324219 232.035156 146.890625 234.398438 C 146.632812 234.824219 146.394531 235.277344 146.230469 235.746094 C 145.761719 237.082031 146.25 237.808594 147.691406 237.898438 C 148.332031 237.9375 148.988281 237.878906 149.628906 237.796875 C 152.9375 237.390625 156.078125 236.351562 159.222656 235.3125 C 160.726562 234.816406 162.222656 234.257812 163.765625 233.949219 C 166.957031 233.3125 170.078125 233.414062 172.871094 235.421875 C 173.019531 235.53125 173.726562 236.070312 173.726562 236.070312 C 173.726562 236.070312 173.660156 234.382812 173.617188 233.820312 C 173.574219 233.171875 173.527344 232.527344 173.484375 231.878906 C 172.988281 224.785156 172.371094 217.722656 172.167969 210.605469 C 172.125 209.046875 171.792969 207.5 171.769531 205.953125 C 171.769531 205.691406 171.785156 205.421875 171.898438 205.1875 C 172.332031 204.292969 173.222656 204.921875 173.515625 205.53125 C 174.335938 207.238281 174.574219 209.144531 174.828125 211 C 175.101562 212.980469 175.257812 214.976562 175.484375 216.96875 C 175.929688 220.832031 176.355469 224.699219 176.449219 228.589844 C 176.539062 232.476562 176.523438 236.367188 176.511719 240.257812 C 176.503906 241.910156 176.511719 243.582031 176.285156 245.214844 C 175.53125 250.605469 173.457031 255.457031 170.085938 259.742188 C 169.0625 261.046875 168.085938 262.382812 167.078125 263.699219 C 166.179688 264.867188 165.652344 266.175781 165.425781 267.632812 C 165.089844 269.777344 165.65625 271.785156 166.300781 273.773438 C 166.820312 275.371094 167.738281 276.730469 168.953125 277.914062 C 172.007812 280.894531 175.582031 283.019531 179.648438 284.203125 C 185.121094 285.792969 190.695312 286.875 196.433594 286.914062 C 199.105469 286.933594 201.761719 286.75 204.410156 286.441406 C 205.417969 286.328125 206.429688 286.195312 207.433594 286.046875 C 208.21875 285.929688 210.175781 285.589844 210.175781 285.589844 C 210.945312 285.449219 211.710938 285.285156 212.472656 285.113281 C 213.949219 284.769531 215.414062 284.367188 216.859375 283.875 C 219.664062 282.925781 222.367188 281.765625 224.835938 280.101562 C 225.738281 279.492188 226.550781 278.824219 227.015625 277.625 C 226.65625 277.46875 226.316406 277.292969 225.992188 277.105469 C 224.917969 276.472656 224.003906 275.671875 223.105469 274.839844 C 222.804688 274.5625 222.507812 274.28125 222.203125 274 C 220.496094 272.414062 219.714844 270.480469 219.488281 268.292969 C 219.21875 265.71875 218.859375 263.144531 218.867188 260.542969 C 218.871094 259.320312 218.753906 258.097656 218.652344 256.878906 C 218.335938 253 217.828125 249.148438 217.265625 245.296875 C 216.082031 237.160156 214.316406 229.160156 211.96875 221.277344 C 209.453125 212.839844 206.253906 204.679688 202.253906 196.828125 C 202.027344 196.382812 201.796875 195.933594 201.566406 195.488281 C 200.46875 193.367188 199.34375 191.261719 198.207031 189.164062 C 197.101562 187.128906 195.890625 185.132812 194.902344 183.042969 C 194.8125 182.84375 194.722656 182.636719 194.863281 182.4375 C 195.394531 181.6875 196.675781 183.207031 197.007812 183.558594 C 198.761719 185.390625 200.15625 187.484375 201.4375 189.664062 C 205.503906 196.566406 208.972656 203.753906 211.804688 211.25 C 213.8125 216.574219 215.785156 221.90625 217.167969 227.433594 C 219.523438 236.8125 220.949219 246.347656 221.917969 255.957031 C 222.054688 257.316406 222.191406 258.679688 222.339844 260.039062 C 222.402344 260.625 222.484375 261.113281 222.484375 261.113281 C 222.484375 261.113281 223.566406 260.078125 224.113281 259.570312 C 226.613281 257.523438 229.238281 256.796875 232.464844 256.871094 C 234.71875 256.921875 236.882812 257.394531 239.015625 258.101562 C 243.550781 259.605469 247.769531 261.757812 251.851562 264.21875 C 255.429688 266.371094 259.070312 268.417969 262.832031 270.238281 C 267.636719 272.566406 277.613281 279.28125 277.613281 279.28125 C 277.613281 279.28125 277.636719 277.613281 277.667969 276.476562 C 277.75 273.371094 277.710938 271.316406 277.703125 268.222656 C 277.699219 265.410156 277.4375 262.609375 277.09375 259.820312 C 276.492188 254.964844 275.816406 250.113281 275.085938 245.273438 C 274.367188 240.503906 273.625 235.734375 272.742188 230.992188 C 270.578125 219.363281 267.300781 208.03125 263.429688 196.859375 C 259.632812 185.902344 254.628906 175.582031 247.886719 166.125 C 247.007812 164.894531 246.179688 163.625 245.371094 162.351562 C 244.632812 161.199219 243.9375 160.019531 243.257812 158.835938 C 243.042969 158.453125 242.511719 157.496094 243.0625 157.1875 C 243.273438 157.074219 243.539062 157.097656 243.757812 157.195312 C 244.648438 157.59375 245.53125 158.617188 246.164062 159.332031 C 254.921875 169.203125 261.578125 180.3125 265.910156 192.789062 C 266.480469 194.421875 267.035156 196.054688 267.582031 197.695312 C 270.867188 207.539062 273.617188 217.527344 275.644531 227.707031 C 276.527344 232.160156 277.199219 236.644531 277.832031 241.136719 C 278.542969 246.195312 279.445312 251.230469 279.945312 256.324219 C 280.6875 263.855469 281.167969 271.394531 280.789062 278.964844 C 280.78125 279.109375 280.589844 280.636719 280.589844 280.636719 C 280.589844 280.636719 283.839844 278.765625 284.921875 278.058594 C 289.460938 275.09375 293.652344 271.699219 297.535156 267.917969 C 303.0625 262.542969 308.359375 256.945312 313.566406 251.261719 C 317.195312 247.296875 321.242188 243.953125 326.097656 241.503906 C 331.132812 238.964844 337.050781 236.609375 342.796875 236.722656 C 342.796875 236.722656 342.140625 236.023438 341.925781 235.859375 Z M 181.625 99.222656 C 179.363281 102.09375 175.765625 104.132812 172.125 102.664062 C 168.929688 101.375 166.667969 98.175781 165.316406 95.132812 C 163.03125 89.996094 162.585938 84.558594 163.085938 78.972656 C 163.554688 73.695312 164.804688 68.21875 167.558594 63.691406 C 168.503906 62.136719 169.554688 60.644531 170.882812 59.386719 C 173.554688 56.859375 177.71875 55.496094 181.164062 57.390625 C 184.976562 59.488281 186.664062 64.210938 187.429688 68.667969 C 187.679688 70.132812 187.832031 71.566406 187.925781 72.867188 C 188.574219 81.742188 187.304688 92.003906 181.625 99.222656 Z M 181.625 99.222656 " fill-opacity="1" fill-rule="nonzero"/><g clip-path="url(#d40741f9db)"><path fill="#000000" d="M 32.683594 347.679688 C 32.757812 347.847656 32.785156 348.019531 32.726562 348.183594 C 32.699219 348.25 32.664062 348.3125 32.605469 348.378906 C 32.546875 348.445312 32.484375 348.492188 32.421875 348.523438 C 32.265625 348.597656 32.09375 348.566406 31.9375 348.476562 C 31.90625 348.460938 31.875 348.441406 31.84375 348.417969 C 31.375 348.09375 30.890625 347.769531 30.46875 347.386719 C 29.628906 346.621094 28.820312 345.828125 28.058594 345 C 26.785156 343.617188 25.632812 342.132812 24.667969 340.484375 C 23.941406 339.246094 23.261719 337.980469 22.617188 336.699219 C 21.96875 335.417969 21.355469 334.121094 20.75 332.816406 C 19.527344 330.167969 18.085938 323.023438 17.976562 320.929688 C 17.976562 320.949219 17.976562 320.921875 17.976562 320.871094 C 17.976562 320.847656 17.976562 320.816406 17.976562 320.785156 C 17.976562 320.75 17.976562 320.714844 17.980469 320.679688 C 17.988281 320.449219 18.027344 320.238281 18.128906 320.0625 C 18.199219 319.929688 18.308594 319.820312 18.457031 319.742188 C 18.507812 319.714844 18.5625 319.691406 18.621094 319.671875 C 18.722656 319.640625 18.832031 319.632812 18.9375 319.65625 C 19.152344 319.703125 19.355469 319.855469 19.503906 320.089844 C 19.578125 320.207031 19.636719 320.34375 19.675781 320.5 C 19.746094 320.792969 19.816406 321.089844 19.882812 321.390625 C 20.078125 322.28125 20.257812 323.179688 20.464844 324.070312 C 20.996094 326.308594 21.664062 328.480469 22.464844 330.589844 C 22.949219 331.855469 23.480469 333.097656 24.058594 334.3125 C 24.445312 335.125 24.855469 335.929688 25.285156 336.71875 C 26.144531 338.300781 27.089844 339.84375 28.121094 341.347656 C 28.636719 342.097656 29.171875 342.839844 29.730469 343.570312 C 30.472656 344.539062 31.207031 345.515625 31.929688 346.5 C 32.058594 346.671875 32.175781 346.851562 32.292969 347.03125 C 32.410156 347.210938 32.519531 347.398438 32.628906 347.582031 C 32.648438 347.617188 32.667969 347.648438 32.683594 347.679688 Z M 203.003906 292.980469 C 203.507812 293.25 204.035156 293.480469 204.570312 293.691406 C 208.855469 295.359375 213.175781 296.949219 217.421875 298.703125 C 222.738281 300.902344 227.996094 303.230469 233.277344 305.511719 C 234.066406 305.851562 234.835938 306.25 235.625 306.59375 C 236.136719 306.816406 237.058594 306.96875 237.320312 306.300781 C 237.753906 305.195312 235.386719 303.878906 234.664062 303.441406 C 233.484375 302.730469 232.226562 302.175781 230.976562 301.605469 C 228.59375 300.515625 226.171875 299.535156 223.738281 298.5625 C 220.53125 297.28125 217.285156 296.105469 214.011719 295.003906 C 210.800781 293.921875 207.550781 292.742188 204.195312 292.183594 C 204.121094 292.171875 204.023438 292.15625 203.914062 292.136719 C 203.535156 292.078125 203.007812 292.03125 202.792969 292.246094 C 202.574219 292.460938 202.726562 292.835938 203 292.980469 Z M 187.429688 68.664062 C 186.664062 64.210938 184.976562 59.488281 181.164062 57.390625 C 177.714844 55.492188 173.554688 56.859375 170.882812 59.386719 C 169.554688 60.640625 168.503906 62.136719 167.558594 63.691406 C 164.804688 68.21875 163.554688 73.691406 163.085938 78.96875 C 162.585938 84.558594 163.03125 89.992188 165.316406 95.128906 C 166.667969 98.175781 168.929688 101.371094 172.125 102.660156 C 175.765625 104.132812 179.367188 102.09375 181.625 99.21875 C 187.304688 92 188.574219 81.742188 187.929688 72.867188 C 187.832031 71.5625 187.683594 70.128906 187.429688 68.664062 Z M 349.820312 243.371094 C 349.617188 246.46875 349.277344 249.535156 347.492188 252.230469 C 346.480469 253.757812 345.21875 254.390625 343.308594 254.210938 C 339.714844 253.878906 336.210938 253.050781 332.652344 252.542969 C 329.207031 252.054688 321.578125 251.226562 319.585938 251.011719 C 319.269531 250.980469 318.953125 251.074219 318.707031 251.277344 C 318.316406 251.605469 317.6875 252.164062 317.082031 252.847656 C 312.785156 257.707031 308.265625 262.351562 303.675781 266.9375 C 299.390625 271.222656 294.941406 275.3125 289.972656 278.808594 C 289.746094 278.96875 289.261719 279.4375 289.261719 279.4375 C 289.261719 279.4375 290.480469 281.898438 291.117188 283.097656 C 292.878906 286.410156 294.367188 289.839844 295.558594 293.398438 C 296.023438 294.773438 296.265625 296.1875 296.507812 297.609375 C 296.734375 298.925781 296.523438 300.207031 296.089844 301.4375 C 295.066406 304.335938 292.429688 305.71875 289.292969 304.949219 C 288.300781 304.75 286.882812 303.546875 286.882812 303.546875 C 286.882812 303.546875 287.144531 306.214844 287.15625 307.066406 C 287.355469 321.242188 283.210938 333.898438 273.851562 344.667969 C 267.300781 352.199219 259.171875 357.347656 249.5625 360.050781 C 234.167969 364.382812 219.832031 361.808594 206.808594 352.710938 C 196.742188 345.679688 189.976562 336.082031 186.507812 324.238281 C 186.425781 323.960938 186.109375 322.5625 186.109375 322.5625 C 186.109375 322.5625 185.734375 322.597656 185.152344 322.605469 C 184.503906 322.617188 183.851562 322.597656 183.207031 322.601562 C 177.21875 322.636719 171.265625 322.144531 165.328125 321.402344 C 162.179688 320.988281 158.617188 319.734375 158.617188 319.734375 C 158.617188 319.734375 157.890625 320.636719 156.980469 321.933594 C 155.871094 323.515625 153.421875 326.75 152.128906 328.445312 L 152.703125 328.445312 C 156.1875 328.445312 158.816406 331.28125 158.816406 334.765625 L 158.816406 336.167969 C 158.816406 339.652344 155.984375 342.488281 152.5 342.488281 L 136.507812 342.488281 C 133.023438 342.488281 130.394531 339.652344 130.394531 336.167969 L 130.394531 334.765625 C 130.394531 331.28125 132.683594 328.445312 136.710938 328.445312 L 137.863281 328.445312 C 139.859375 326.089844 145.777344 319.09375 148.664062 315.554688 C 148.800781 315.390625 149.398438 314.59375 149.398438 314.59375 C 149.398438 314.59375 148.109375 313.296875 147.671875 312.816406 C 145.699219 310.640625 144.425781 308.109375 143.617188 305.285156 C 142.253906 300.523438 142.644531 296.070312 144.042969 291.375 C 144.269531 290.601562 144.828125 289.492188 144.828125 289.492188 C 144.828125 289.492188 144.214844 288.804688 144.070312 288.648438 C 138.039062 282.144531 133.164062 277.414062 126.398438 271.65625 C 124.316406 269.882812 122.023438 267.773438 119.65625 265.964844 C 117.882812 264.605469 116.1875 263.625 116.132812 263.59375 C 116.210938 263.679688 120.910156 268.957031 121.585938 269.960938 C 124.035156 273.609375 126.375 277.109375 128.476562 280.972656 C 130.308594 284.351562 131.648438 287.90625 132.207031 291.730469 C 132.34375 292.671875 132.320312 293.59375 132.09375 294.519531 C 131.539062 296.796875 129.957031 297.808594 127.660156 298.21875 C 126.75 298.378906 125.351562 298.050781 125.351562 298.050781 C 125.351562 298.050781 125.515625 299.042969 125.652344 299.910156 C 128.253906 316.199219 122.429688 334.269531 109.179688 346.234375 C 101.035156 353.585938 91.550781 358.105469 80.679688 359.578125 C 66.175781 361.542969 53.035156 358.109375 41.597656 348.953125 C 31.628906 340.972656 25.667969 330.5 23.644531 317.882812 C 22.597656 311.355469 22.816406 304.816406 24.382812 298.355469 C 24.503906 297.867188 24.839844 296.292969 24.839844 296.292969 C 24.839844 296.292969 23.632812 296.621094 23.351562 296.671875 C 21.421875 297.007812 19.738281 296.75 18.140625 295.585938 C 16.851562 294.644531 16.121094 293.378906 16.117188 291.726562 C 16.113281 290.347656 16.222656 289.003906 16.695312 287.6875 C 18.09375 283.804688 19.964844 280.160156 22.277344 276.75 C 23.566406 274.84375 24.953125 272.996094 26.359375 271.171875 C 30.183594 266.210938 34.828125 262.152344 40.140625 258.855469 C 44.75 255.996094 48.308594 254.386719 53.382812 252.492188 C 57.25 251.050781 61.734375 249.789062 65.773438 249.078125 C 69.414062 248.4375 73.972656 248.230469 77.640625 248.523438 C 80.867188 248.78125 84.082031 249.214844 87.296875 249.621094 L 89.351562 249.882812 L 91.378906 241.984375 C 91.378906 241.984375 89.859375 241.617188 89.378906 241.46875 C 88.324219 241.136719 87.34375 240.65625 86.890625 239.566406 L 86.621094 238.925781 C 86.621094 238.925781 81.964844 237.410156 80.324219 236.007812 C 77.746094 233.808594 76.058594 231.253906 76.1875 227.761719 C 76.355469 223.207031 78.429688 220.691406 82.398438 218.644531 C 84.785156 217.414062 87.589844 217.070312 87.589844 217.070312 C 87.589844 217.070312 87.710938 216.710938 88.269531 216.023438 C 89.246094 214.824219 90.789062 214.734375 92.269531 214.671875 C 94.011719 214.597656 95.71875 214.847656 97.394531 215.304688 C 97.742188 215.402344 98.953125 215.757812 98.953125 215.757812 C 98.953125 215.757812 99.078125 215.394531 99.203125 215.074219 C 99.28125 214.875 99.609375 213.785156 99.609375 213.785156 C 99.609375 213.785156 99.40625 213.648438 98.84375 213.414062 C 97.078125 212.675781 96.941406 211.253906 97.226562 209.640625 C 97.441406 208.417969 97.917969 207.304688 98.558594 206.242188 C 98.992188 205.527344 99.835938 205.023438 100.660156 205.183594 C 101.011719 205.25 102.410156 205.554688 102.410156 205.554688 C 102.410156 205.554688 102.828125 204.457031 102.957031 203.847656 C 103.269531 202.367188 102.996094 201.183594 102.226562 199.859375 C 99.894531 195.835938 98.417969 191.636719 97.644531 187.039062 C 97.027344 183.382812 96.863281 179.75 97.871094 176.117188 C 99.089844 171.730469 101.585938 168.375 105.613281 166.1875 C 106.695312 165.601562 108.316406 165.042969 109.53125 164.796875 C 111.441406 164.417969 115.359375 164.089844 115.359375 164.089844 C 115.359375 164.089844 115.964844 162.25 118.039062 162.207031 C 119.214844 162.183594 123.34375 162.035156 123.34375 162.035156 C 123.34375 162.035156 123.683594 159.566406 123.960938 158.226562 C 124.585938 155.203125 125.871094 152.511719 128.011719 150.246094 C 131.503906 146.550781 135.6875 145.34375 140.585938 146.671875 C 142.476562 147.183594 144.238281 147.988281 145.816406 149.175781 C 146.152344 149.425781 146.894531 149.984375 146.894531 149.984375 C 146.894531 149.984375 145.0625 137.261719 144.84375 131.5625 C 144.6875 127.457031 144.429688 123.355469 144.617188 119.25 C 144.769531 115.9375 145.023438 112.636719 145.1875 109.324219 C 145.394531 105.152344 145.898438 101 146.289062 96.84375 C 148.386719 74.679688 155.648438 54.488281 169.246094 36.710938 C 172.199219 32.847656 175.585938 29.441406 179.414062 26.464844 C 187.519531 20.164062 195.40625 15.949219 205.28125 13.117188 C 209.59375 11.882812 215.761719 11.167969 220.257812 11.226562 C 229.761719 11.355469 239.722656 13.882812 247.75 19.070312 C 256.894531 24.984375 262.574219 32.027344 268.722656 40.96875 C 275.714844 51.125 281.027344 62.089844 284.574219 73.929688 C 287.285156 82.972656 289.542969 92.121094 291.472656 101.355469 C 293.296875 110.09375 294.921875 118.875 296.832031 127.59375 C 299.53125 139.898438 302.570312 152.125 305.980469 164.257812 C 308.261719 172.367188 310.507812 180.480469 313.53125 188.359375 C 317.128906 197.738281 321.589844 206.671875 326.921875 215.179688 C 330.710938 221.222656 335.339844 226.492188 340.953125 230.898438 C 342.597656 232.1875 344.207031 233.519531 345.785156 234.886719 C 347.738281 236.578125 349.167969 238.621094 349.628906 241.226562 C 349.75 241.933594 349.867188 242.664062 349.820312 243.371094 Z M 87.023438 219.390625 C 87.023438 219.390625 86.710938 219.402344 86.179688 219.53125 C 84.101562 220.023438 82.265625 220.980469 80.769531 222.507812 C 77.695312 225.640625 78.3125 229.648438 79.777344 231.839844 C 81.148438 233.898438 83.160156 235.125 85.503906 235.824219 C 85.890625 235.941406 86.257812 236.074219 86.257812 236.074219 C 86.257812 236.074219 86.234375 231.847656 86.234375 230.527344 C 86.054688 226.796875 87.023438 219.390625 87.023438 219.390625 Z M 117.601562 166.824219 L 117.671875 173.867188 C 117.675781 174.457031 118.007812 174.992188 118.53125 175.265625 C 119.566406 175.808594 121.296875 176.691406 122.152344 177.023438 C 122.644531 177.210938 122.972656 177.316406 122.972656 177.316406 L 122.972656 165.105469 C 122.972656 165.105469 119.304688 165.105469 119.304688 165.105469 C 118.355469 165.105469 117.589844 165.878906 117.601562 166.828125 Z M 115.257812 174.820312 C 115.257812 174.820312 113.332031 175.234375 112.433594 175.800781 C 110.484375 177.039062 109.269531 178.691406 109.023438 181.011719 C 108.808594 183.050781 109.078125 185.035156 109.679688 186.984375 C 110.378906 189.261719 111.378906 191.417969 112.359375 193.582031 C 113.835938 196.84375 114.703125 200.222656 114.296875 203.855469 C 114.132812 205.300781 113.074219 208.800781 113.074219 208.800781 C 113.074219 208.800781 114.457031 209.375 114.90625 209.582031 C 116.082031 210.128906 116.03125 211.074219 115.765625 212.253906 C 115.480469 213.53125 115.015625 214.730469 114.464844 215.90625 C 113.714844 217.515625 113.222656 217.972656 111.25 217.5625 C 111.109375 217.53125 110.070312 217.277344 110.070312 217.277344 L 109.457031 219.785156 L 115.71875 221.765625 C 115.71875 221.765625 116.667969 217.148438 117.1875 215.125 C 118.957031 208.21875 121.070312 199.855469 121.953125 192.765625 C 122.632812 187.339844 122.976562 180.464844 122.976562 180.464844 C 122.976562 180.464844 119.167969 178.671875 117.730469 178.011719 C 116.878906 177.621094 116.105469 177.484375 115.671875 176.722656 C 115.433594 176.296875 115.257812 174.816406 115.257812 174.816406 Z M 104.316406 198.539062 C 105.28125 200.128906 105.792969 201.773438 105.3125 203.683594 C 105.109375 204.480469 104.683594 206.125 104.683594 206.125 C 104.683594 206.125 106.507812 206.773438 107.324219 207.011719 C 108.222656 207.277344 110.617188 207.984375 110.617188 207.984375 C 110.617188 207.984375 110.703125 207.773438 110.859375 207.367188 C 111.882812 204.679688 112.210938 201.929688 111.546875 199.105469 C 111.113281 197.273438 110.390625 195.554688 109.613281 193.847656 C 108.355469 191.09375 107.21875 188.296875 106.730469 185.28125 C 106.328125 182.8125 106.453125 180.394531 107.445312 178.074219 C 108.558594 175.476562 110.457031 173.742188 113.171875 172.890625 C 113.765625 172.703125 115.140625 172.339844 115.140625 172.339844 C 115.140625 172.339844 115.136719 170.003906 115.136719 169.789062 C 115.136719 169.789062 115.136719 168.207031 115.117188 167.417969 C 115.105469 166.988281 115.140625 166.695312 115.140625 166.695312 C 115.140625 166.695312 112.328125 166.65625 110.238281 167.113281 C 109.386719 167.296875 107.683594 167.917969 106.910156 168.316406 C 102.460938 170.613281 100.210938 174.234375 99.550781 179.136719 C 99.0625 182.78125 99.761719 186.308594 100.675781 189.800781 C 101.480469 192.878906 102.65625 195.8125 104.320312 198.539062 Z M 92.273438 239.578125 C 92.273438 239.578125 96.269531 226.519531 97.703125 220.800781 C 98.292969 218.453125 98.339844 218.234375 98.339844 218.226562 C 98.339844 218.226562 98.339844 218.226562 98.339844 218.230469 C 97.460938 217.890625 96.253906 217.5625 94.703125 217.289062 C 93.253906 217.03125 90.042969 216.257812 89.566406 218.65625 C 89.40625 219.441406 89.28125 220.351562 89.238281 220.683594 C 88.851562 223.96875 88.34375 227.242188 88.40625 230.441406 C 88.3125 232.507812 88.632812 236.09375 88.746094 237.277344 C 88.785156 237.675781 88.910156 238.0625 89.136719 238.398438 C 89.292969 238.625 89.5 238.835938 89.757812 238.902344 C 89.964844 238.953125 90.171875 239.019531 90.378906 239.082031 C 92.175781 239.59375 92.273438 239.574219 92.273438 239.574219 Z M 29.300781 285.375 C 34.90625 275.027344 43.125 267.386719 53.695312 262.351562 C 62.535156 258.140625 71.886719 256.597656 81.644531 257.863281 C 83.066406 258.050781 84.488281 258.292969 85.90625 258.535156 C 86.316406 258.601562 86.734375 258.683594 86.734375 258.683594 L 88.574219 252.507812 C 88.574219 252.507812 87.902344 252.367188 87.769531 252.339844 C 82.53125 251.269531 77.246094 250.738281 71.898438 250.90625 C 70.679688 250.945312 69.449219 250.992188 68.238281 251.15625 C 63.230469 251.835938 58.40625 253.28125 53.632812 254.894531 C 51.175781 255.722656 48.808594 256.777344 46.515625 257.976562 C 40.785156 260.984375 35.382812 264.722656 31.046875 269.527344 C 29.941406 270.757812 23.835938 278.824219 22.207031 281.878906 C 20.953125 284.226562 19.820312 286.636719 19.027344 289.191406 C 18.789062 289.960938 18.621094 290.71875 18.730469 291.519531 C 18.957031 293.238281 20.292969 294.59375 21.816406 294.609375 C 23.019531 294.625 23.921875 294.367188 24.921875 293.785156 C 25.796875 293.273438 26.242188 292.300781 26.550781 291.472656 C 27.332031 289.378906 28.238281 287.339844 29.300781 285.375 Z M 113.980469 304.773438 C 112.304688 292.015625 108.1875 284.035156 96.949219 275.628906 C 95.554688 274.582031 94.53125 274.027344 94.53125 274.027344 C 94.53125 274.027344 93.433594 276.976562 93.121094 277.816406 C 95.660156 279.347656 98.003906 281.183594 100.128906 283.308594 C 103.492188 286.671875 106.132812 290.589844 107.976562 294.953125 C 109.886719 299.46875 110.855469 304.269531 110.855469 309.210938 C 110.855469 314.15625 109.886719 318.957031 107.976562 323.472656 C 106.132812 327.835938 103.492188 331.753906 100.128906 335.117188 C 96.765625 338.480469 92.847656 341.125 88.484375 342.96875 C 83.96875 344.878906 79.171875 345.847656 74.230469 345.847656 C 69.285156 345.847656 64.488281 344.878906 59.96875 342.96875 C 55.609375 341.125 51.691406 338.480469 48.328125 335.117188 C 44.964844 331.753906 42.324219 327.835938 40.480469 323.472656 C 38.566406 318.957031 37.601562 314.15625 37.601562 309.210938 C 37.601562 304.265625 38.570312 299.46875 40.480469 294.953125 C 42.324219 290.589844 44.964844 286.671875 48.328125 283.308594 C 51.691406 279.941406 55.609375 277.300781 59.96875 275.457031 C 64.488281 273.546875 69.285156 272.578125 74.230469 272.578125 C 76.9375 272.578125 79.601562 272.867188 82.199219 273.445312 C 82.464844 272.726562 82.621094 272.296875 82.621094 272.296875 L 83.378906 269.90625 C 83.378906 269.90625 80.226562 269.117188 77.164062 268.90625 C 71.460938 268.515625 67.488281 268.816406 62.09375 270.609375 C 42.433594 277.144531 31.847656 295.433594 34.632812 314.839844 C 35.792969 322.917969 38.992188 330.078125 44.4375 336.101562 C 54.128906 346.835938 66.246094 351.21875 80.589844 349.183594 C 87.128906 348.253906 93.03125 345.695312 98.292969 341.683594 C 111.371094 331.703125 115.449219 315.957031 113.980469 304.773438 Z M 74.230469 275.640625 C 73.773438 275.640625 73.324219 275.652344 72.875 275.667969 L 74.117188 293.03125 C 75.261719 290.640625 76.335938 288.339844 77.046875 286.6875 C 78.269531 283.835938 79.925781 279.515625 81.117188 276.351562 C 78.890625 275.886719 76.589844 275.640625 74.230469 275.640625 Z M 68.707031 304.070312 C 68.773438 303.917969 69.507812 302.449219 70.53125 300.375 C 69.539062 300.855469 68.675781 301.5625 68.015625 302.4375 C 67.59375 302.988281 67.257812 303.609375 67.019531 304.277344 C 66.765625 304.996094 66.625 305.773438 66.625 306.578125 C 66.625 307.3125 66.738281 308.023438 66.953125 308.6875 C 67.183594 309.402344 67.53125 310.070312 67.96875 310.664062 C 68.523438 311.40625 69.21875 312.039062 70.019531 312.507812 C 70.636719 312.875 71.316406 313.144531 72.039062 313.300781 C 72.507812 313.402344 72.996094 313.457031 73.5 313.457031 L 73.527344 313.457031 C 74.234375 313.453125 74.914062 313.34375 75.554688 313.144531 C 75.953125 313.019531 76.332031 312.859375 76.695312 312.667969 C 77.320312 312.339844 77.886719 311.917969 78.378906 311.417969 C 78.84375 310.953125 79.242188 310.417969 79.554688 309.832031 C 79.902344 309.1875 80.152344 308.480469 80.277344 307.734375 C 80.339844 307.359375 80.375 306.972656 80.375 306.582031 C 80.375 306.257812 80.351562 305.945312 80.308594 305.640625 C 79.386719 307.355469 78.644531 308.636719 78.285156 309.070312 C 77.167969 310.410156 75.957031 310.910156 74.34375 310.550781 C 73.148438 310.285156 72.007812 309.847656 71.011719 309.105469 C 70.203125 308.507812 69.449219 307.855469 68.945312 306.949219 C 68.425781 306.019531 68.25 305.089844 68.699219 304.074219 Z M 82.777344 300.90625 C 82.605469 301.238281 82.4375 301.570312 82.269531 301.898438 C 83.019531 303.292969 83.441406 304.886719 83.441406 306.578125 C 83.441406 306.890625 83.429688 307.203125 83.402344 307.507812 L 107.617188 305.773438 C 106.761719 297.40625 102.824219 289.941406 96.957031 284.53125 L 82.777344 300.902344 Z M 95.414062 283.195312 C 94.304688 282.289062 93.136719 281.449219 91.910156 280.691406 C 90.730469 283.527344 88.914062 287.945312 87.875 290.457031 C 87.5625 291.148438 87.039062 292.261719 86.386719 293.613281 L 95.410156 283.195312 Z M 80.703125 313.425781 L 100.261719 330.375 C 104.96875 324.597656 107.792969 317.226562 107.792969 309.210938 C 107.792969 308.742188 107.785156 308.273438 107.765625 307.8125 L 82.980469 309.585938 C 82.515625 311.039062 81.730469 312.347656 80.703125 313.425781 Z M 79.128906 314.769531 C 78.132812 315.460938 77 315.972656 75.78125 316.257812 L 77.667969 342.609375 C 86.042969 341.753906 93.519531 337.800781 98.925781 331.921875 L 79.132812 314.769531 Z M 63.5625 306.578125 C 63.5625 304.996094 63.929688 303.5 64.59375 302.171875 L 48.234375 287.996094 C 43.503906 293.785156 40.664062 301.171875 40.664062 309.214844 C 40.664062 309.667969 40.671875 310.117188 40.691406 310.570312 L 63.839844 308.910156 C 63.65625 308.160156 63.5625 307.382812 63.5625 306.578125 Z M 40.835938 312.605469 C 41.679688 320.992188 45.625 328.476562 51.5 333.894531 L 67.992188 314.851562 C 66.523438 313.867188 65.328125 312.507812 64.554688 310.90625 L 40.832031 312.605469 Z M 53.042969 335.234375 C 58.820312 339.953125 66.199219 342.785156 74.226562 342.785156 C 74.695312 342.785156 75.164062 342.777344 75.628906 342.753906 L 73.75 316.519531 C 73.667969 316.519531 73.582031 316.523438 73.5 316.523438 C 72.214844 316.523438 70.980469 316.277344 69.851562 315.828125 Z M 72.332031 296.703125 L 70.835938 275.8125 C 62.464844 276.65625 54.988281 280.589844 49.574219 286.453125 L 65.699219 300.425781 C 67.289062 298.40625 69.648438 297.019531 72.332031 296.703125 Z M 105.144531 257.335938 C 103.65625 256.34375 102.1875 255.40625 100.332031 254.332031 C 99.761719 256.441406 99.195312 258.21875 98.808594 260.03125 C 98.511719 261.417969 98.246094 262.257812 98.246094 262.257812 C 98.246094 262.257812 99.03125 262.863281 100.363281 263.609375 C 111.921875 270.085938 119.761719 279.640625 123.902344 292.230469 C 124.125 292.914062 124.34375 293.597656 124.554688 294.285156 C 124.730469 294.863281 125.109375 295.242188 125.605469 295.589844 C 127.113281 296.640625 129.683594 295.386719 129.875 293.175781 C 129.949219 292.3125 129.894531 291.449219 129.625 290.613281 C 128.785156 288.015625 127.984375 285.398438 126.660156 282.988281 C 125.136719 280.214844 123.625 277.433594 121.898438 274.78125 C 120.523438 272.671875 119.199219 270.53125 117.570312 268.597656 C 113.933594 264.277344 109.839844 260.46875 105.140625 257.332031 Z M 146.664062 286.472656 C 146.664062 286.472656 147.847656 284.785156 148.554688 284.015625 C 149.890625 282.5625 150.976562 281.300781 150.976562 281.300781 C 150.976562 281.300781 149.277344 279.40625 148.429688 278.457031 C 145.023438 274.632812 141.277344 271.152344 137.445312 267.761719 C 130.050781 261.214844 122.171875 255.277344 114.21875 249.4375 C 110.679688 246.839844 107.046875 244.363281 103.109375 242.386719 C 102.851562 242.253906 102.605469 242.109375 102.359375 241.957031 C 101.675781 241.542969 101.226562 241.097656 101.335938 240.300781 C 101.425781 239.660156 101.609375 238.835938 101.804688 238.226562 C 102.515625 236.039062 103.199219 233.835938 104.050781 231.703125 C 105.039062 229.207031 105.316406 229.105469 107.949219 229.957031 C 114.320312 232.019531 120.589844 234.347656 126.570312 237.390625 C 132.601562 240.460938 138.519531 243.734375 144.378906 247.117188 C 151.441406 251.199219 157.472656 255.257812 163.738281 260.480469 C 163.847656 260.574219 163.496094 254.648438 162.375 251.609375 C 161.980469 250.53125 161.496094 249.507812 161.496094 249.507812 L 149.597656 241.289062 C 149.597656 241.289062 148.476562 241.378906 147.144531 241.289062 C 145.257812 241.160156 143.613281 240.40625 142.257812 239.03125 C 141.195312 237.949219 138.824219 234.902344 138.824219 234.902344 L 125.167969 228.328125 C 125.167969 228.328125 124.789062 228.410156 124.0625 228.636719 C 121.054688 229.5625 118.277344 229.078125 117.167969 228.261719 C 116.164062 227.519531 115.765625 226.460938 115.636719 225.277344 C 115.582031 224.757812 115.582031 224.574219 115.582031 224.574219 C 115.582031 224.574219 111.816406 223.40625 110.320312 222.898438 C 109.636719 222.667969 108.953125 222.441406 108.296875 222.148438 C 107.011719 221.578125 106.777344 221.121094 107.039062 219.792969 C 107.179688 219.089844 107.308594 218.378906 107.503906 217.6875 L 107.761719 216.753906 L 101.832031 214.683594 C 101.832031 214.683594 101.714844 215.128906 101.253906 216.777344 C 99.65625 222.53125 98.515625 228.40625 96.734375 234.113281 C 95.402344 238.371094 94.183594 242.664062 92.960938 246.953125 C 92.410156 248.890625 91.917969 250.875 91.375 252.800781 C 89.949219 257.859375 88.347656 262.839844 86.816406 267.863281 C 86.175781 269.960938 85.484375 272.046875 84.761719 274.117188 C 84.421875 275.085938 84.078125 276.050781 83.726562 277.011719 C 82.636719 280.007812 81.488281 282.976562 80.335938 285.945312 C 79.550781 287.960938 78.621094 289.90625 77.59375 291.8125 C 76.535156 293.78125 75.507812 295.765625 74.449219 297.734375 C 74.097656 298.394531 73.742188 299.046875 73.378906 299.703125 C 72.695312 300.933594 71.992188 302.15625 71.25 303.359375 C 70.988281 303.785156 70.757812 304.238281 70.535156 304.691406 C 70.195312 305.378906 70.238281 305.679688 70.789062 306.207031 C 71.792969 307.164062 72.960938 307.898438 74.25 308.363281 C 76.253906 309.078125 76.25 308.976562 77.085938 307.304688 C 77.824219 305.828125 78.558594 304.351562 79.285156 302.867188 C 79.671875 302.070312 80.0625 301.273438 80.449219 300.46875 C 83.1875 294.78125 85.789062 289.027344 88.113281 283.148438 C 88.609375 281.894531 89.113281 280.640625 89.613281 279.382812 C 89.992188 278.425781 90.367188 277.464844 90.738281 276.503906 C 91.609375 274.226562 92.4375 271.933594 93.152344 269.597656 C 93.910156 267.121094 94.625 264.632812 95.382812 262.15625 C 96.308594 259.125 96.917969 256.1875 97.738281 252.972656 C 97.933594 252.207031 98.105469 251.429688 98.320312 250.667969 C 98.578125 249.761719 98.953125 249.5 99.898438 249.671875 C 100.53125 249.785156 101.15625 249.980469 101.757812 250.210938 C 104.253906 251.160156 106.605469 252.402344 108.925781 253.71875 C 113.582031 256.355469 117.773438 259.628906 121.941406 262.960938 C 130.003906 269.402344 137.65625 276.269531 144.441406 284.070312 C 145.097656 284.828125 146.664062 286.476562 146.664062 286.476562 Z M 133.226562 224.425781 C 133.226562 224.425781 133.515625 224.171875 131.65625 225.226562 C 130.863281 225.675781 130.070312 226.121094 129.226562 226.589844 C 130.710938 227.519531 134.140625 229.007812 135.679688 229.5625 C 135.117188 228.351562 133.226562 224.425781 133.226562 224.425781 Z M 158.488281 242.683594 C 158.867188 242.90625 159.929688 243.546875 159.929688 243.546875 C 159.929688 243.546875 158.09375 238.996094 157.972656 239.027344 C 156.90625 239.320312 154.207031 240.011719 154.207031 240.011719 C 154.207031 240.011719 157.269531 241.960938 158.484375 242.679688 Z M 162.621094 266.6875 C 162.808594 265.792969 163.300781 264.183594 163.300781 264.183594 C 163.300781 264.183594 161.691406 262.863281 160.945312 262.300781 C 160.140625 261.691406 159.332031 261.085938 158.519531 260.496094 C 156.183594 258.804688 153.929688 257 151.5 255.457031 C 139.453125 247.808594 127.066406 240.785156 113.90625 235.199219 C 111.988281 234.382812 110.039062 233.632812 108.105469 232.855469 C 107.621094 232.660156 107.441406 232.613281 107.441406 232.613281 C 107.441406 232.613281 105.539062 237.175781 104.847656 239.144531 L 104.539062 240.023438 C 104.539062 240.023438 111.601562 243.996094 114.460938 245.945312 C 123.394531 252.035156 131.972656 258.59375 140.058594 265.78125 C 144.152344 269.421875 153.582031 279.390625 153.582031 279.390625 C 153.582031 279.390625 155.140625 278.453125 155.9375 278.074219 C 158.523438 276.847656 159.542969 276.832031 162.328125 276.34375 C 162.675781 276.285156 163.738281 276.179688 163.738281 276.179688 C 163.738281 276.179688 163.089844 274.433594 162.90625 273.738281 C 162.289062 271.410156 162.125 269.078125 162.625 266.683594 Z M 136.503906 331.511719 C 134.707031 331.511719 133.25 332.972656 133.25 334.765625 L 133.25 336.167969 C 133.25 337.960938 134.707031 339.421875 136.503906 339.421875 L 152.496094 339.421875 C 154.289062 339.421875 155.75 337.960938 155.75 336.167969 L 155.75 334.765625 C 155.75 332.972656 154.289062 331.511719 152.496094 331.511719 Z M 163.503906 307.964844 C 164.546875 306.53125 165.4375 304.988281 166.464844 303.539062 C 166.597656 303.351562 166.789062 303.214844 167.007812 303.15625 C 168.34375 302.785156 169.328125 301.558594 169.328125 300.101562 C 169.328125 298.277344 167.78125 296.808594 165.925781 296.945312 C 164.355469 297.058594 163.09375 298.339844 163 299.910156 C 162.980469 300.195312 163.003906 300.472656 163.058594 300.738281 C 163.113281 301.007812 163.09375 301.289062 163.015625 301.550781 C 162.726562 302.535156 162.242188 303.429688 161.601562 304.269531 C 161.164062 304.84375 160.730469 305.417969 160.277344 305.980469 C 157.296875 309.683594 154.230469 313.320312 151.351562 317.101562 C 148.640625 320.664062 145.675781 323.992188 142.671875 327.296875 C 142.492188 327.496094 142.0625 328.011719 141.699219 328.449219 L 148.320312 328.449219 C 148.363281 328.386719 148.402344 328.320312 148.449219 328.253906 C 152.808594 322.769531 162.273438 309.652344 163.503906 307.964844 Z M 169.328125 304.160156 C 168.726562 304.53125 167.246094 306.859375 167.195312 306.917969 C 167.242188 306.917969 170.761719 306.558594 172.582031 304.117188 C 175.316406 300.832031 174.746094 295.566406 171.484375 292.984375 C 168.890625 290.929688 165.996094 290.566406 162.976562 291.9375 C 159.933594 293.316406 158.449219 295.785156 158.277344 299.082031 C 158.25 300.183594 158.433594 301.238281 158.847656 302.25 C 158.957031 302.507812 159.230469 302.980469 159.230469 302.980469 C 159.230469 302.980469 161.078125 300.746094 161.0625 299.417969 C 161.042969 297.722656 161.871094 296.375 163.40625 295.570312 C 164.71875 294.882812 166.117188 294.632812 167.582031 295.035156 C 169.40625 295.535156 170.46875 296.523438 171.136719 297.8125 C 171.953125 299.386719 171.75 302.671875 169.328125 304.160156 Z M 200.269531 318.121094 C 201.304688 318.035156 202.335938 317.933594 203.363281 317.820312 C 203.867188 317.765625 204.367188 317.707031 204.871094 317.644531 C 210.441406 316.953125 216.023438 316.347656 221.601562 315.6875 C 224.261719 315.375 226.9375 315.132812 229.597656 314.824219 C 230.613281 314.707031 231.625 314.582031 232.636719 314.4375 C 233.175781 314.363281 233.714844 314.28125 234.25 314.195312 C 234.5625 314.144531 234.863281 314.09375 235.15625 314.042969 C 235.871094 313.921875 236.539062 313.796875 237.179688 313.671875 C 237.808594 313.542969 238.410156 313.417969 238.996094 313.28125 C 239.824219 313.09375 240.617188 312.894531 241.417969 312.675781 C 242.292969 312.4375 243.171875 312.179688 244.105469 311.902344 C 244.710938 311.714844 245.304688 311.390625 245.820312 311.007812 C 246.421875 310.5625 246.835938 310.011719 247.046875 309.410156 C 247.28125 308.753906 247.28125 308.046875 247.035156 307.363281 C 246.90625 307.003906 246.710938 306.652344 246.449219 306.316406 C 245.683594 305.351562 244.808594 304.511719 243.773438 303.824219 C 243.359375 303.550781 242.945312 303.28125 242.523438 303.019531 C 241.9375 302.652344 241.34375 302.300781 240.738281 301.960938 C 240.207031 301.664062 239.664062 301.382812 239.109375 301.117188 C 238.132812 300.648438 237.152344 300.179688 236.175781 299.707031 C 235.46875 299.363281 234.757812 299.019531 234.054688 298.664062 C 233.800781 298.535156 233.542969 298.40625 233.289062 298.277344 C 229.015625 296.097656 221.632812 293.125 216.585938 291.160156 C 213.433594 289.933594 211.191406 289.101562 211.191406 289.101562 C 211.191406 289.101562 211.15625 289.101562 211.09375 289.105469 C 210.914062 289.117188 210.503906 289.148438 210.0625 289.203125 C 209.625 289.261719 209.1875 289.316406 208.75 289.371094 C 207.398438 289.546875 206.042969 289.722656 204.691406 289.875 C 203.765625 289.980469 202.839844 290.074219 201.914062 290.152344 C 197.960938 290.476562 194.003906 290.53125 190.058594 289.976562 C 187.132812 289.566406 184.253906 288.925781 181.371094 288.296875 C 175.363281 286.984375 170.167969 284.246094 165.964844 279.710938 L 164.875 278.734375 C 164.875 278.734375 164.644531 278.734375 163.949219 278.867188 C 161.820312 279.269531 159.742188 279.835938 157.746094 280.683594 C 155.042969 281.832031 152.777344 283.550781 150.949219 285.867188 C 149.550781 287.636719 148.527344 289.609375 147.589844 291.640625 C 145.484375 296.175781 145.238281 300.777344 147.023438 305.484375 C 147.886719 307.757812 149.179688 309.707031 150.976562 311.328125 C 151.390625 311.703125 151.726562 312.03125 151.726562 312.03125 L 157.34375 305.171875 C 157.34375 305.171875 157.03125 304.867188 156.773438 304.480469 C 155.921875 303.195312 155.449219 301.777344 155.355469 300.230469 C 155.070312 295.628906 157.578125 291.414062 161.800781 289.410156 C 166.367188 287.242188 171.695312 288.28125 174.789062 291.992188 C 180.199219 298.480469 177.503906 307.441406 169.5 309.324219 C 168.402344 309.617188 165.851562 309.550781 165.851562 309.550781 C 165.851562 309.550781 162.832031 314.011719 162.378906 314.660156 C 162.011719 315.179688 160.976562 316.792969 160.976562 316.792969 C 160.976562 316.792969 163.078125 317.652344 171.015625 318.195312 C 175.546875 318.503906 180.0625 318.898438 184.605469 318.804688 C 189.832031 318.699219 195.058594 318.566406 200.269531 318.125 Z M 230.304688 278.640625 C 229.667969 280.636719 228.542969 282.261719 226.742188 283.359375 C 225.394531 284.179688 222.472656 285.789062 222.472656 285.789062 C 221.480469 286.226562 220.503906 286.671875 219.472656 287.015625 C 218.925781 287.195312 218.371094 287.363281 217.816406 287.523438 C 217.539062 287.601562 217.257812 287.679688 216.976562 287.757812 C 216.828125 287.800781 216.386719 288 216.261719 287.957031 C 218.039062 288.574219 219.835938 289.144531 221.578125 289.835938 C 225.695312 291.46875 229.773438 293.210938 233.796875 295.066406 L 232.421875 275.816406 C 231.804688 275.875 231.191406 275.953125 230.585938 276.050781 L 230.585938 276.078125 C 230.605469 276.945312 230.574219 277.800781 230.304688 278.640625 Z M 261.847656 330.378906 C 266.550781 324.597656 269.375 317.230469 269.375 309.214844 C 269.375 308.742188 269.367188 308.277344 269.347656 307.8125 L 250.566406 309.15625 C 250.578125 310.101562 250.382812 311.050781 249.925781 311.960938 C 249.300781 313.203125 248.230469 314.136719 247 314.753906 C 246.304688 315.105469 245.59375 315.402344 244.863281 315.660156 L 261.847656 330.375 Z M 242.539062 316.351562 C 240.863281 316.769531 239.144531 317.039062 237.4375 317.28125 L 239.25 342.609375 C 247.625 341.753906 255.101562 337.804688 260.507812 331.925781 Z M 269.199219 305.773438 C 268.34375 297.40625 264.40625 289.941406 258.539062 284.53125 L 244.578125 300.652344 C 245.117188 300.996094 245.652344 301.347656 246.179688 301.714844 C 247.980469 302.964844 249.578125 304.957031 250.238281 307.132812 Z M 256.996094 283.195312 C 251.214844 278.472656 243.839844 275.644531 235.8125 275.644531 C 235.355469 275.644531 234.90625 275.652344 234.457031 275.671875 L 235.917969 296.050781 C 238.253906 297.152344 240.570312 298.289062 242.804688 299.582031 Z M 214.625 335.234375 C 220.40625 339.953125 227.785156 342.785156 235.8125 342.785156 C 236.28125 342.785156 236.746094 342.777344 237.210938 342.753906 L 235.410156 317.5625 C 233.347656 317.847656 231.285156 318.117188 229.222656 318.382812 Z M 226.191406 318.761719 C 218.980469 319.640625 211.785156 320.652344 204.566406 321.480469 C 206.445312 326.246094 209.378906 330.480469 213.082031 333.894531 Z M 276.929688 304.988281 C 275.796875 296.214844 272.390625 288.496094 266.375 282.019531 C 257.164062 272.101562 245.730469 267.710938 232.230469 268.695312 C 230.828125 268.796875 230.675781 268.78125 230.675781 268.78125 C 230.675781 268.78125 230.648438 270.960938 230.621094 272.941406 C 232.328125 272.695312 234.058594 272.578125 235.8125 272.578125 C 240.753906 272.578125 245.554688 273.546875 250.070312 275.457031 C 254.429688 277.300781 258.347656 279.941406 261.710938 283.308594 C 265.074219 286.671875 267.714844 290.589844 269.5625 294.953125 C 271.472656 299.46875 272.441406 304.269531 272.441406 309.210938 C 272.441406 314.15625 271.46875 318.957031 269.5625 323.472656 C 267.714844 327.835938 265.074219 331.753906 261.710938 335.117188 C 258.347656 338.480469 254.429688 341.125 250.070312 342.96875 C 245.554688 344.878906 240.753906 345.847656 235.8125 345.847656 C 230.867188 345.847656 226.070312 344.878906 221.554688 342.96875 C 217.191406 341.125 213.273438 338.480469 209.910156 335.117188 C 206.546875 331.753906 203.90625 327.835938 202.0625 323.472656 C 201.832031 322.929688 201.617188 322.382812 201.414062 321.828125 C 200.21875 321.957031 197.746094 322.136719 197.082031 322.242188 C 197.082031 322.242188 197.65625 324.109375 197.839844 324.578125 C 201.574219 334.113281 207.628906 340.570312 216.695312 345.480469 C 224.734375 349.832031 232.851562 351.011719 241.910156 349.683594 C 248.722656 348.683594 254.910156 346.222656 260.511719 342.179688 C 271.769531 334.054688 278.859375 319.90625 276.933594 304.988281 Z M 287.003906 280.785156 C 287.003906 280.785156 286.699219 280.972656 286.175781 281.292969 C 284.523438 282.304688 283.140625 283.050781 281.175781 283.726562 C 281.332031 284.167969 281.625 284.859375 281.71875 285.046875 C 283.800781 289.179688 285.007812 293.050781 286.007812 297.558594 C 286.105469 297.976562 286.1875 298.410156 286.347656 298.804688 C 287.027344 300.472656 288.039062 301.8125 289.886719 302.292969 C 291.71875 302.777344 293.175781 302.011719 293.824219 300.234375 C 294.207031 299.183594 294.144531 298.105469 293.976562 297.039062 C 293.707031 295.328125 293.195312 293.683594 292.601562 292.058594 C 291.230469 288.335938 287.003906 280.785156 287.003906 280.785156 Z M 342.785156 236.730469 C 342.785156 236.730469 342.125 236.03125 341.914062 235.867188 C 341.054688 235.214844 340.191406 234.5625 339.324219 233.921875 C 332.941406 229.195312 327.578125 223.527344 323.421875 216.742188 C 322.894531 215.882812 322.34375 215.039062 321.820312 214.175781 C 315.136719 203.15625 310.046875 191.410156 306.230469 179.132812 C 302.964844 168.617188 300.105469 157.976562 297.375 147.304688 C 293.96875 133.980469 290.90625 120.585938 288.390625 107.058594 C 286.378906 96.226562 283.828125 85.515625 280.703125 74.941406 C 276.816406 61.796875 270.660156 49.832031 262.34375 38.980469 C 256.636719 31.53125 249.863281 25.214844 241.757812 20.429688 C 235.242188 16.582031 228.710938 15.234375 221.132812 15.132812 C 217.074219 15.074219 211.5625 15.59375 207.648438 16.621094 C 196.246094 19.617188 187.074219 24.425781 178.179688 32.167969 C 176.710938 33.445312 175.347656 34.832031 174.125 36.351562 C 169.960938 41.523438 166.199219 46.976562 162.902344 52.738281 C 154.933594 66.65625 150.636719 81.703125 149.242188 97.632812 C 148.886719 101.722656 148.363281 105.796875 148.277344 109.90625 C 148.273438 110.121094 148.226562 110.335938 148.210938 110.550781 C 147.832031 115.941406 147.429688 121.332031 147.671875 126.742188 C 147.75 128.539062 147.871094 130.335938 147.917969 132.136719 C 148.058594 137.257812 148.636719 142.332031 149.460938 147.382812 C 149.585938 148.164062 150.65625 153.40625 150.65625 153.40625 C 150.65625 153.40625 151.859375 154.6875 152.824219 155.570312 C 155.039062 157.59375 159.058594 160.949219 159.058594 160.949219 C 159.058594 160.949219 159.109375 160.945312 159.925781 160.464844 C 160.792969 159.957031 161.300781 159.566406 162.136719 159 C 164.273438 157.546875 166.621094 156.789062 169.21875 156.699219 C 171.195312 156.628906 173.097656 156.847656 174.925781 157.609375 C 176.398438 158.226562 177.875 158.207031 179.355469 157.6875 C 180.4375 157.300781 181.507812 156.878906 182.589844 156.488281 C 183.550781 156.140625 184.523438 155.734375 185.523438 155.535156 C 185.894531 155.460938 187.851562 155.179688 187.589844 155.945312 C 187.515625 156.164062 187.328125 156.277344 187.132812 156.371094 C 185.050781 157.386719 182.933594 158.335938 180.898438 159.4375 C 179.085938 160.421875 177.214844 160.585938 175.25 160.121094 C 174.550781 159.957031 173.871094 159.710938 173.171875 159.539062 C 171.535156 159.128906 169.886719 159.164062 168.261719 159.582031 C 166.90625 159.929688 162.933594 162.011719 161.441406 163.082031 C 161.527344 163.195312 167.445312 166.71875 170.308594 168.371094 C 171.035156 168.789062 171.757812 169.207031 172.480469 169.632812 C 172.917969 169.890625 173.394531 170.128906 173.804688 170.433594 C 173.976562 170.558594 174.078125 170.75 173.984375 170.953125 C 173.894531 171.148438 173.679688 171.308594 173.46875 171.332031 C 173.054688 171.382812 172.597656 171.230469 172.199219 171.136719 C 171.777344 171.039062 171.359375 170.890625 170.957031 170.722656 C 170.164062 170.398438 169.40625 169.984375 168.625 169.625 C 165.363281 168.109375 162.167969 166.46875 159.175781 164.433594 C 155.9375 162.238281 153.097656 159.585938 150.183594 157.015625 C 148.292969 155.351562 146.394531 153.695312 144.367188 152.1875 C 143.078125 151.226562 141.667969 150.542969 140.167969 150.015625 C 136.710938 148.804688 133.648438 149.59375 130.898438 151.871094 C 129.007812 153.4375 127.816406 155.441406 127.261719 157.84375 C 126.058594 163.085938 125.851562 168.398438 126.164062 173.738281 C 126.328125 176.617188 126.464844 179.496094 126.1875 182.371094 C 125.792969 186.527344 125.328125 190.675781 124.597656 194.792969 C 124.035156 197.984375 123.699219 201.214844 122.894531 204.359375 C 121.84375 208.472656 120.742188 212.574219 119.652344 216.679688 C 119.0625 218.910156 118.582031 221.15625 118.492188 223.476562 C 118.484375 223.738281 118.472656 224 118.476562 224.261719 C 118.484375 225.027344 118.585938 225.742188 119.386719 226.03125 C 120.539062 226.449219 122.027344 226.15625 123.171875 225.886719 C 126.246094 225.160156 128.980469 223.488281 131.742188 222.027344 C 134.046875 220.808594 136.417969 219.75 138.976562 219.25 C 142 218.65625 145.003906 218.488281 147.578125 220.71875 C 147.992188 221.074219 148.554688 221.402344 148.554688 221.402344 C 148.554688 221.402344 149.464844 211.789062 149.167969 205.246094 C 149 201.578125 148.800781 197.136719 148.761719 193.460938 C 148.753906 192.890625 148.589844 191.617188 149.230469 191.316406 C 150.175781 190.863281 150.433594 192.890625 150.496094 193.425781 C 150.703125 195.140625 150.820312 196.867188 151 198.585938 C 151.421875 202.535156 151.414062 206.496094 151.34375 210.457031 C 151.25 215.933594 150.9375 221.390625 149.804688 226.777344 C 149.234375 229.488281 148.320312 232.035156 146.890625 234.398438 C 146.628906 234.824219 146.390625 235.277344 146.226562 235.746094 C 145.761719 237.082031 146.246094 237.808594 147.691406 237.898438 C 148.332031 237.9375 148.988281 237.878906 149.628906 237.796875 C 152.933594 237.390625 156.078125 236.351562 159.222656 235.3125 C 160.722656 234.816406 162.222656 234.257812 163.765625 233.949219 C 166.957031 233.3125 170.078125 233.414062 172.867188 235.421875 C 173.019531 235.53125 173.726562 236.070312 173.726562 236.070312 C 173.726562 236.070312 173.65625 234.382812 173.617188 233.820312 C 173.570312 233.171875 173.527344 232.527344 173.480469 231.878906 C 172.988281 224.785156 172.371094 217.722656 172.167969 210.605469 C 172.121094 209.046875 171.789062 207.5 171.769531 205.953125 C 171.765625 205.691406 171.785156 205.421875 171.898438 205.1875 C 172.328125 204.292969 173.222656 204.921875 173.515625 205.53125 C 174.332031 207.238281 174.570312 209.144531 174.828125 211 C 175.101562 212.980469 175.257812 214.976562 175.484375 216.964844 C 175.925781 220.832031 176.355469 224.699219 176.445312 228.589844 C 176.539062 232.476562 176.523438 236.367188 176.507812 240.257812 C 176.503906 241.910156 176.507812 243.582031 176.28125 245.214844 C 175.53125 250.605469 173.453125 255.457031 170.082031 259.742188 C 169.058594 261.046875 168.082031 262.382812 167.074219 263.699219 C 166.175781 264.867188 165.652344 266.175781 165.421875 267.632812 C 165.085938 269.777344 165.652344 271.785156 166.300781 273.773438 C 166.816406 275.371094 167.734375 276.730469 168.949219 277.914062 C 172.003906 280.894531 175.578125 283.019531 179.648438 284.203125 C 185.121094 285.792969 190.695312 286.875 196.433594 286.914062 C 199.105469 286.933594 201.757812 286.75 204.40625 286.441406 C 205.417969 286.328125 206.429688 286.195312 207.433594 286.046875 C 208.21875 285.929688 210.175781 285.589844 210.175781 285.589844 C 210.945312 285.449219 211.710938 285.285156 212.46875 285.113281 C 213.949219 284.769531 215.410156 284.367188 216.859375 283.875 C 219.664062 282.925781 222.367188 281.765625 224.835938 280.101562 C 225.738281 279.492188 226.550781 278.824219 227.011719 277.625 C 226.65625 277.46875 226.316406 277.292969 225.992188 277.105469 C 224.917969 276.472656 224 275.671875 223.101562 274.839844 C 222.804688 274.5625 222.503906 274.28125 222.203125 274 C 220.496094 272.414062 219.714844 270.480469 219.488281 268.292969 C 219.21875 265.71875 218.859375 263.144531 218.867188 260.542969 C 218.871094 259.320312 218.753906 258.097656 218.652344 256.878906 C 218.335938 253 217.828125 249.148438 217.265625 245.296875 C 216.082031 237.160156 214.3125 229.160156 211.964844 221.277344 C 209.453125 212.839844 206.25 204.679688 202.253906 196.828125 C 202.023438 196.382812 201.796875 195.933594 201.566406 195.488281 C 200.46875 193.367188 199.34375 191.261719 198.203125 189.164062 C 197.097656 187.128906 195.890625 185.132812 194.902344 183.042969 C 194.808594 182.84375 194.722656 182.636719 194.863281 182.4375 C 195.390625 181.6875 196.675781 183.207031 197.007812 183.558594 C 198.761719 185.390625 200.152344 187.484375 201.4375 189.664062 C 205.503906 196.566406 208.972656 203.753906 211.800781 211.25 C 213.8125 216.574219 215.78125 221.90625 217.167969 227.433594 C 219.519531 236.8125 220.945312 246.347656 221.917969 255.957031 C 222.054688 257.316406 222.191406 258.679688 222.339844 260.039062 C 222.402344 260.625 222.480469 261.113281 222.480469 261.113281 C 222.480469 261.113281 223.5625 260.078125 224.109375 259.570312 C 226.613281 257.523438 229.238281 256.796875 232.460938 256.871094 C 234.71875 256.921875 236.882812 257.394531 239.015625 258.101562 C 243.550781 259.605469 247.769531 261.757812 251.851562 264.21875 C 255.429688 266.371094 259.070312 268.417969 262.828125 270.238281 C 267.636719 272.566406 277.613281 279.28125 277.613281 279.28125 C 277.613281 279.28125 277.636719 277.613281 277.664062 276.476562 C 277.746094 273.371094 277.710938 271.316406 277.703125 268.222656 C 277.695312 265.410156 277.4375 262.609375 277.09375 259.820312 C 276.492188 254.964844 275.816406 250.113281 275.085938 245.273438 C 274.363281 240.503906 273.621094 235.734375 272.738281 230.992188 C 270.578125 219.363281 267.300781 208.03125 263.425781 196.859375 C 259.628906 185.902344 254.628906 175.582031 247.886719 166.125 C 247.007812 164.894531 246.179688 163.625 245.367188 162.351562 C 244.632812 161.199219 243.9375 160.019531 243.257812 158.835938 C 243.042969 158.453125 242.507812 157.496094 243.058594 157.1875 C 243.269531 157.074219 243.539062 157.097656 243.757812 157.195312 C 244.648438 157.59375 245.53125 158.617188 246.164062 159.332031 C 254.917969 169.203125 261.574219 180.3125 265.910156 192.789062 C 266.476562 194.421875 267.035156 196.054688 267.582031 197.695312 C 270.863281 207.539062 273.613281 217.527344 275.640625 227.707031 C 276.527344 232.160156 277.199219 236.644531 277.828125 241.136719 C 278.542969 246.195312 279.441406 251.230469 279.945312 256.324219 C 280.6875 263.855469 281.164062 271.394531 280.789062 278.964844 C 280.78125 279.109375 280.589844 280.636719 280.589844 280.636719 C 280.589844 280.636719 283.839844 278.765625 284.921875 278.058594 C 289.460938 275.09375 293.652344 271.699219 297.535156 267.917969 C 303.0625 262.542969 308.359375 256.945312 313.566406 251.261719 C 317.191406 247.296875 321.238281 243.953125 326.097656 241.503906 C 331.132812 238.964844 337.050781 236.609375 342.796875 236.722656 Z M 293.265625 312.980469 C 293.144531 312.914062 293 312.882812 292.84375 312.882812 C 292.789062 312.882812 292.734375 312.886719 292.683594 312.898438 C 292.585938 312.917969 292.5 312.957031 292.421875 313.011719 C 292.382812 313.035156 292.347656 313.066406 292.316406 313.101562 C 292.25 313.167969 292.195312 313.246094 292.148438 313.332031 C 292.125 313.378906 292.105469 313.421875 292.085938 313.472656 C 292.046875 313.566406 292.015625 313.671875 291.992188 313.777344 C 291.910156 314.148438 291.902344 314.554688 291.90625 314.835938 C 291.949219 317.339844 291.597656 319.816406 290.945312 322.242188 C 290.613281 323.476562 290.253906 324.699219 289.855469 325.910156 C 289.660156 326.515625 289.453125 327.117188 289.238281 327.714844 C 288.808594 328.914062 288.34375 330.097656 287.84375 331.265625 C 287.34375 332.433594 286.800781 333.585938 286.222656 334.722656 C 285.933594 335.292969 285.632812 335.855469 285.320312 336.417969 C 285.164062 336.699219 285.011719 336.984375 284.859375 337.269531 C 284.703125 337.550781 284.546875 337.832031 284.394531 338.121094 C 284.371094 338.167969 284.351562 338.210938 284.335938 338.257812 C 284.292969 338.394531 284.285156 338.527344 284.316406 338.652344 C 284.359375 338.8125 284.464844 338.960938 284.621094 339.070312 C 284.933594 339.296875 285.335938 339.289062 285.617188 339.019531 C 285.71875 338.921875 285.820312 338.824219 285.921875 338.722656 C 286.222656 338.414062 286.503906 338.089844 286.75 337.742188 C 287.558594 336.597656 288.296875 335.421875 288.964844 334.214844 C 289.300781 333.613281 289.621094 333.003906 289.921875 332.386719 C 290.375 331.464844 290.789062 330.519531 291.171875 329.566406 C 291.683594 328.289062 292.132812 326.988281 292.523438 325.660156 C 292.816406 324.667969 293.078125 323.660156 293.3125 322.636719 C 293.503906 321.804688 293.652344 320.96875 293.769531 320.125 C 293.882812 319.285156 293.960938 318.433594 294 317.582031 C 294.015625 317.261719 294.035156 316.933594 294.046875 316.601562 C 294.089844 315.46875 294.058594 314.296875 293.554688 313.28125 C 293.492188 313.152344 293.390625 313.050781 293.269531 312.984375 Z M 293.265625 312.980469 " fill-opacity="1" fill-rule="nonzero"/></g></svg>