<svg xmlns="http://www.w3.org/2000/svg" xmlns:xlink="http://www.w3.org/1999/xlink" width="500" zoomAndPan="magnify" viewBox="0 0 375 374.999991" height="500" preserveAspectRatio="xMidYMid meet" version="1.0"><defs><clipPath id="d0ac6ec423"><path d="M 55.5625 5 L 319.5625 5 L 319.5625 370.226562 L 55.5625 370.226562 Z M 55.5625 5 " clip-rule="nonzero"/></clipPath></defs><rect x="-37.5" width="450" fill="#ffffff" y="-37.499999" height="449.999989" fill-opacity="1"/><rect x="-37.5" width="450" fill="#ffffff" y="-37.499999" height="449.999989" fill-opacity="1"/><path fill="#e11e2d" d="M 262.597656 80.851562 C 257.816406 85.210938 251.59375 87.628906 245.457031 89.410156 C 243.847656 89.84375 242.210938 90.140625 240.570312 90.4375 C 240.402344 89.308594 240.234375 88.183594 240.070312 87.058594 C 239.691406 84.066406 239.359375 81.070312 239.042969 78.074219 C 238.976562 77.46875 238.917969 76.867188 238.851562 76.261719 C 240.050781 75.300781 241.273438 74.363281 242.546875 73.5 C 245.589844 71.574219 249.933594 69.164062 253.558594 69.035156 C 256.875 68.894531 260.414062 69.320312 263.179688 71.296875 C 267.414062 74.289062 265.757812 77.859375 262.601562 80.847656 Z M 268.289062 64.425781 C 266.847656 63.066406 264.921875 62.425781 263.046875 61.898438 C 259.046875 60.816406 254.816406 61.132812 250.765625 61.730469 C 245.871094 62.738281 241.882812 65.980469 237.890625 68.789062 C 230.386719 73.984375 222.210938 80.160156 212.855469 81.023438 C 211.355469 81.164062 209.859375 81.121094 208.363281 80.953125 C 207.261719 80.808594 206.117188 80.703125 205.105469 80.210938 C 204.289062 79.792969 204.246094 78.652344 205.386719 78.636719 C 206.558594 78.59375 207.738281 78.695312 208.910156 78.714844 C 211.253906 78.78125 213.589844 78.492188 215.859375 77.90625 C 221.65625 76.324219 226.835938 73.070312 231.785156 69.753906 C 235.511719 67.328125 239.003906 64.433594 242.882812 62.257812 C 242.257812 62.101562 241.632812 61.941406 240.996094 61.832031 C 239.898438 61.601562 238.773438 61.574219 237.660156 61.46875 C 236.386719 61.316406 235.109375 61.210938 233.835938 61.082031 C 231.089844 60.800781 228.335938 60.578125 225.589844 60.269531 C 222.632812 59.945312 219.683594 59.554688 216.714844 59.355469 C 209.101562 58.628906 201.433594 58.425781 193.792969 58.722656 C 191.03125 58.914062 188.253906 59.171875 185.542969 59.769531 C 184.664062 59.953125 183.828125 60.28125 183.003906 60.625 C 179.191406 62.019531 174.359375 64.351562 174.292969 69.003906 C 174.355469 71.109375 174.988281 73.21875 176.054688 75.035156 C 176.726562 76.070312 177.640625 76.941406 178.605469 77.707031 C 181.492188 79.863281 184.945312 81.085938 188.269531 82.394531 C 195.402344 85.230469 203.019531 87.042969 210.730469 86.894531 C 216.511719 86.855469 222.210938 85.019531 227.066406 81.914062 C 230.460938 79.808594 233.488281 77.183594 236.605469 74.691406 C 236.648438 74.625 236.695312 74.558594 236.75 74.496094 C 236.902344 74.3125 237.117188 74.171875 237.347656 74.101562 C 239.679688 72.269531 242.085938 70.542969 244.746094 69.191406 C 247.277344 67.945312 249.953125 66.75 252.796875 66.53125 C 256.304688 66.277344 259.980469 66.613281 263.125 68.292969 C 265.726562 69.675781 268.085938 72.035156 268.34375 75.101562 C 268.589844 78.046875 267.003906 80.65625 264.660156 82.867188 C 265.957031 82.207031 267.195312 81.445312 268.296875 80.492188 C 269.316406 79.59375 270.316406 78.625 270.949219 77.40625 C 271.410156 76.527344 271.863281 75.621094 272.050781 74.636719 C 272.640625 70.882812 271.070312 66.964844 268.289062 64.425781 Z M 175.828125 61.238281 C 177.964844 59.550781 180.527344 58.523438 183.058594 57.582031 C 187.53125 56.042969 192.34375 55.808594 197.035156 55.699219 C 198.789062 55.652344 200.542969 55.640625 202.296875 55.660156 C 198.796875 45.761719 194.671875 35.816406 187.40625 28.050781 C 183.199219 23.460938 178.449219 19.167969 172.808594 16.429688 C 172.628906 16.332031 172.417969 16.246094 172.222656 16.144531 C 162.492188 17.261719 153.199219 20.679688 144.753906 25.570312 C 144.125 26.445312 143.53125 27.351562 142.917969 28.238281 C 136.289062 38.488281 133.082031 50.667969 132.113281 62.746094 C 131.832031 68.050781 131.59375 73.417969 132.339844 78.695312 C 132.371094 78.972656 132.417969 79.246094 132.464844 79.519531 C 144.96875 75.269531 157.886719 72.292969 170.972656 70.523438 C 171.183594 70.515625 171.492188 70.480469 171.828125 70.449219 C 171.796875 70.203125 171.773438 69.957031 171.757812 69.710938 C 171.480469 66.347656 173.226562 63.273438 175.828125 61.238281 Z M 196.515625 35.316406 C 199.769531 40.988281 202.652344 46.933594 204.410156 53.25 C 204.628906 54.066406 204.8125 54.886719 204.984375 55.710938 C 209.0625 55.828125 213.140625 56.09375 217.210938 56.453125 C 221.128906 56.753906 225.050781 57.085938 228.964844 57.441406 C 231.410156 57.664062 233.855469 57.914062 236.277344 58.316406 C 236.097656 57.78125 235.914062 57.246094 235.734375 56.710938 C 234.980469 54.746094 234.171875 52.796875 233.335938 50.867188 C 230.882812 45.332031 227.796875 40.070312 223.960938 35.375 C 220.769531 31.503906 217.160156 27.949219 213.171875 24.898438 C 208.109375 21.132812 202.085938 18.832031 195.996094 17.316406 C 189.941406 15.695312 183.65625 15.273438 177.417969 15.65625 C 184.945312 19.746094 192.578125 28.507812 196.515625 35.316406 Z M 172.992188 13.109375 C 172.679688 12.265625 172.265625 11.445312 171.765625 10.695312 C 171.414062 10.253906 170.953125 9.898438 170.503906 9.558594 C 168.835938 8.28125 166.492188 7.980469 164.546875 8.765625 C 162.578125 9.648438 161.160156 11.507812 160.449219 13.503906 C 160.148438 14.300781 159.933594 15.128906 159.796875 15.96875 C 159.789062 16.015625 159.777344 16.0625 159.769531 16.113281 C 164.097656 14.785156 168.546875 13.851562 173.058594 13.359375 C 173.035156 13.277344 173.015625 13.195312 172.992188 13.109375 Z M 128.890625 72.285156 C 128.472656 57.960938 132.066406 40.320312 140.375 28.28125 C 139.042969 29.164062 137.726562 30.082031 136.445312 31.03125 C 130.050781 35.699219 125.320312 42.214844 121.425781 49.019531 C 119.421875 52.527344 117.496094 56.097656 115.984375 59.851562 C 114.601562 63.332031 113.652344 66.964844 112.683594 70.574219 C 111.609375 74.730469 110.683594 78.929688 110.109375 83.183594 C 109.929688 84.621094 109.703125 86.164062 110.226562 87.554688 C 110.257812 87.621094 110.277344 87.648438 110.347656 87.660156 C 110.863281 87.75 111.355469 87.535156 111.832031 87.375 C 117.917969 85.246094 123.773438 82.492188 129.871094 80.390625 C 129.800781 80.140625 129.746094 79.890625 129.691406 79.660156 C 129.171875 77.234375 128.957031 74.757812 128.894531 72.28125 Z M 128.890625 72.285156 " fill-opacity="1" fill-rule="nonzero"/><path fill="#faf5ee" d="M 314.71875 274.539062 C 307.734375 265.25 299.871094 256.683594 292.117188 248.042969 C 286.242188 241.6875 281.382812 234.488281 277.65625 226.679688 C 273.863281 218.707031 269.773438 210.859375 266.441406 202.679688 C 261.390625 190.03125 257.328125 177.015625 253.382812 163.988281 C 247.039062 142.566406 241.742188 120.8125 238.6875 98.660156 C 237.636719 91.941406 236.503906 85.195312 236.234375 78.394531 C 234.75 79.605469 233.265625 80.8125 231.703125 81.917969 C 225.519531 86.492188 218.058594 89.6875 210.261719 89.542969 C 202.488281 89.578125 194.828125 87.738281 187.636719 84.882812 C 184.21875 83.546875 180.742188 82.238281 177.683594 80.1875 C 176.238281 79.136719 174.882812 77.902344 173.910156 76.394531 C 173.183594 75.183594 172.613281 73.867188 172.238281 72.503906 C 171.222656 72.820312 170.183594 73.054688 169.152344 73.292969 C 162.914062 74.640625 156.621094 75.726562 150.410156 77.191406 C 140.542969 79.605469 130.878906 82.867188 121.378906 86.445312 C 119.386719 87.222656 117.390625 88.007812 115.414062 88.824219 C 114.496094 89.191406 113.5625 89.648438 112.597656 89.949219 C 112.582031 90.210938 112.558594 90.46875 112.539062 90.726562 C 112.453125 91.726562 112.335938 92.726562 112.226562 93.730469 C 112.132812 94.597656 112.039062 95.46875 111.945312 96.339844 C 111.757812 98.085938 111.554688 99.832031 111.359375 101.578125 C 111.140625 103.511719 110.929688 105.445312 110.707031 107.378906 C 110.464844 109.515625 110.230469 111.65625 109.988281 113.792969 C 109.753906 115.878906 109.53125 117.964844 109.265625 120.046875 C 108.996094 122.113281 108.757812 124.183594 108.5 126.25 C 108.234375 128.351562 107.964844 130.457031 107.683594 132.5625 C 107.390625 134.730469 107.109375 136.90625 106.800781 139.074219 C 106.492188 141.238281 106.179688 143.398438 105.863281 145.558594 C 105.238281 149.796875 104.535156 154.03125 103.777344 158.25 C 103.046875 162.308594 102.222656 166.347656 101.402344 170.386719 C 100.96875 172.546875 100.492188 174.703125 100.003906 176.855469 C 99.558594 178.839844 99.097656 180.820312 98.601562 182.792969 C 97.597656 186.808594 96.542969 190.808594 95.410156 194.789062 C 94.222656 198.945312 92.980469 203.085938 91.679688 207.203125 C 90.324219 211.507812 88.886719 215.789062 87.421875 220.058594 C 84.597656 228.304688 81.644531 236.507812 78.535156 244.652344 C 77.03125 248.59375 75.53125 252.539062 73.980469 256.464844 C 72.425781 260.402344 70.820312 264.320312 69.214844 268.238281 C 67.71875 271.882812 66.203125 275.519531 64.714844 279.167969 C 64.078125 280.726562 63.445312 282.289062 62.796875 283.84375 C 62.335938 284.945312 61.886719 286.050781 61.402344 287.144531 C 61.023438 288 60.625 288.847656 60.257812 289.707031 C 59.949219 290.429688 59.652344 291.152344 59.355469 291.875 C 59.222656 292.191406 59.097656 292.519531 59.003906 292.847656 C 58.914062 293.144531 58.820312 293.445312 58.753906 293.746094 C 58.742188 293.792969 58.730469 293.839844 58.722656 293.886719 C 58.746094 293.875 58.769531 293.863281 58.796875 293.855469 C 63.039062 292.078125 67.410156 290.621094 71.890625 289.558594 C 76.625 288.429688 81.417969 287.296875 86.304688 287.160156 C 89.644531 287.074219 92.976562 287.320312 96.296875 287.695312 C 100.183594 288.160156 104.074219 288.785156 107.808594 290.003906 C 111.816406 291.148438 115.695312 293.328125 117.996094 296.898438 C 118.03125 296.957031 118.070312 297.007812 118.105469 297.066406 C 118.882812 284.339844 119.921875 271.625 120.972656 258.914062 C 122.445312 241.566406 123.472656 224.175781 125.558594 206.886719 C 125.699219 205.800781 125.828125 204.703125 126.070312 203.628906 C 126.191406 203.167969 126.257812 202.640625 126.625 202.300781 C 126.828125 202.140625 127.125 202.105469 127.328125 202.28125 C 127.492188 202.429688 127.53125 202.664062 127.558594 202.871094 C 127.691406 205.015625 127.539062 207.175781 127.449219 209.324219 C 126.09375 231.769531 124.324219 254.195312 122.570312 276.613281 C 122.09375 283.015625 121.539062 289.40625 121.023438 295.804688 C 120.878906 297.660156 120.699219 299.515625 120.433594 301.359375 C 120.140625 303.722656 119.460938 306.179688 117.792969 307.945312 C 117.335938 308.777344 116.789062 309.554688 116.078125 310.207031 C 114.304688 312.109375 112.808594 313.25 110.34375 314.152344 C 106.546875 315.671875 102.058594 316.214844 99.164062 319.351562 C 97.945312 320.667969 98.464844 322.664062 99.089844 324.144531 C 100.183594 326.242188 101.605469 328.175781 103.261719 329.855469 C 109.46875 336.335938 117.550781 340.59375 125.671875 344.210938 C 128.867188 345.582031 132.132812 346.816406 135.457031 347.84375 C 137.960938 348.601562 140.558594 349.152344 143.1875 349.125 C 144.941406 349.011719 147.085938 348.519531 148.390625 347.277344 C 148.949219 346.628906 148.804688 345.679688 148.648438 344.90625 C 148.488281 344.222656 148.214844 343.585938 147.882812 342.980469 C 147.417969 342.480469 146.953125 341.984375 146.5 341.472656 C 143.972656 338.5625 142.230469 335.742188 142.644531 331.746094 C 142.933594 329.007812 143.488281 326.308594 144.015625 323.613281 C 144.824219 318.992188 145.589844 314.367188 146.460938 309.757812 C 149.195312 296.949219 150.546875 283.867188 150.410156 270.769531 C 150.085938 253.957031 149.171875 237.117188 147.183594 220.417969 C 147.144531 219.96875 147.070312 219.324219 147.636719 219.234375 C 147.902344 219.210938 148.136719 219.421875 148.105469 219.691406 C 148.828125 222.703125 149.542969 225.773438 149.96875 228.863281 C 151.183594 236.777344 151.714844 244.773438 152.246094 252.753906 C 153.289062 268.574219 153.539062 284.542969 151.042969 300.246094 C 149.453125 309.496094 147.609375 318.707031 145.878906 327.929688 C 147.539062 326.234375 149.859375 325.640625 152.734375 325.777344 C 160.816406 326.171875 168.628906 328.539062 176.460938 330.382812 C 179.792969 331.242188 183.335938 332.058594 186.042969 334.300781 C 187.8125 335.917969 189.273438 337.96875 189.820312 340.328125 C 189.863281 338.359375 189.914062 336.386719 189.949219 334.417969 C 190.109375 329.644531 189.859375 324.875 189.484375 320.117188 C 188.851562 311.394531 187.523438 302.738281 186.585938 294.042969 C 185.300781 282.667969 184.398438 271.238281 184.082031 259.792969 C 183.917969 253.375 183.804688 246.949219 183.925781 240.53125 C 183.96875 239.238281 184.019531 237.941406 184.140625 236.652344 C 184.28125 235.484375 184.332031 234.269531 184.761719 233.164062 C 184.910156 232.734375 185.554688 232.347656 185.859375 232.828125 C 185.9375 232.964844 185.945312 233.140625 185.949219 233.292969 C 185.972656 234.765625 185.9375 236.242188 185.964844 237.714844 C 186.039062 241.527344 186.238281 245.335938 186.394531 249.144531 C 186.933594 264.597656 187.890625 280.042969 189.71875 295.402344 C 190.859375 305.34375 192.195312 315.269531 192.597656 325.277344 C 192.796875 330.039062 192.75 334.8125 192.488281 339.566406 C 192.402344 343.902344 190.984375 348.394531 187.621094 351.300781 C 186.589844 352.246094 185.453125 353.058594 184.304688 353.851562 C 182.914062 355.132812 181.539062 356.417969 180.550781 358.03125 C 179.976562 358.984375 180.175781 360.148438 180.320312 361.195312 C 180.417969 361.773438 180.546875 362.402344 180.914062 362.878906 C 181.960938 364.210938 183.40625 365.179688 184.914062 365.925781 C 186.789062 366.722656 188.851562 366.921875 190.863281 367.109375 C 196.089844 367.527344 201.339844 367.148438 206.542969 366.632812 C 211.652344 366.136719 216.722656 365.296875 221.699219 364.050781 C 229.394531 362.148438 242.132812 358.347656 245.859375 350.898438 C 246.226562 350.191406 246.503906 349.417969 246.53125 348.617188 C 246.507812 348.617188 246.484375 348.617188 246.460938 348.617188 C 245.589844 348.5625 244.859375 347.988281 244.035156 347.746094 C 242.0625 347.0625 239.996094 346.703125 237.941406 346.355469 C 236.566406 346.105469 235.027344 345.953125 233.6875 345.4375 C 233.230469 345.328125 232.824219 345.109375 232.460938 344.800781 C 232.058594 344.523438 231.699219 344.191406 231.390625 343.777344 C 231.097656 343.339844 230.90625 342.839844 230.800781 342.308594 C 230.046875 340.535156 229.636719 338.445312 229.328125 337.15625 C 228.144531 331.34375 227.691406 325.410156 226.988281 319.527344 C 225.617188 304.753906 223.3125 290.09375 221.0625 275.4375 C 219.871094 268.375 218.914062 261.257812 217.265625 254.28125 C 215.664062 247.410156 213.929688 240.570312 212.511719 233.65625 C 212.132812 231.722656 211.664062 229.800781 211.402344 227.84375 C 211.371094 227.257812 211.101562 226.667969 211.246094 226.089844 C 211.324219 225.882812 211.484375 225.671875 211.710938 225.617188 C 212.125 225.550781 212.445312 225.921875 212.535156 226.292969 C 212.902344 227.511719 213.308594 228.714844 213.621094 229.949219 C 215.128906 235.4375 216.359375 240.996094 217.785156 246.507812 C 218.960938 251.101562 220.179688 255.6875 221.125 260.335938 C 224.484375 278.628906 227.460938 297.011719 229.621094 315.488281 C 230.519531 322.632812 230.894531 329.898438 232.40625 336.945312 C 235.207031 333.5 238.609375 330.566406 242.238281 328.015625 C 249.320312 323.128906 257.117188 319.378906 265.148438 316.335938 C 272.453125 313.460938 280.175781 311.609375 288 310.929688 C 290.984375 310.675781 293.980469 310.605469 296.976562 310.65625 C 297.746094 310.691406 298.597656 310.675781 299.46875 310.679688 C 298.851562 310.105469 298.242188 309.523438 297.632812 308.941406 C 294.246094 305.816406 291.328125 302.214844 288.734375 298.410156 C 279.460938 284.3125 272.664062 268.792969 266.519531 253.136719 C 263.285156 245.050781 260.09375 236.945312 257.257812 228.710938 C 256.910156 227.6875 256.578125 226.664062 256.257812 225.632812 C 255.875 224.300781 255.371094 222.960938 255.335938 221.566406 C 255.339844 221.277344 255.355469 220.738281 255.746094 220.691406 C 255.90625 220.675781 256.007812 220.789062 256.09375 220.90625 C 257.425781 223.195312 258.335938 225.703125 259.390625 228.125 C 269.050781 250.675781 277.144531 274.105469 290.335938 294.933594 C 291.800781 297.238281 293.410156 299.445312 295.136719 301.558594 C 297.324219 300.199219 299.4375 298.71875 301.492188 297.160156 C 305.539062 294.027344 309.199219 290.378906 312.496094 286.476562 C 314.277344 284.300781 316.109375 281.96875 316.546875 279.117188 C 316.800781 277.367188 315.742188 275.851562 314.722656 274.539062 Z M 203.027344 114.886719 C 202.984375 116.375 202.871094 117.859375 202.683594 119.335938 C 202.582031 120.125 202.449219 120.90625 202.277344 121.679688 C 202.101562 122.492188 201.898438 123.296875 201.621094 124.078125 C 201.351562 124.84375 201.042969 125.59375 200.632812 126.292969 C 200.230469 126.972656 199.742188 127.597656 199.199219 128.164062 C 198.648438 128.734375 198.007812 129.214844 197.332031 129.628906 C 196.699219 130.011719 196.027344 130.355469 195.316406 130.558594 C 194.75 130.722656 194.175781 130.839844 193.585938 130.886719 C 193.554688 130.890625 193.519531 130.894531 193.488281 130.898438 C 191.972656 131.023438 190.4375 130.632812 189.136719 129.859375 C 188.457031 129.453125 187.832031 128.941406 187.28125 128.371094 C 186.765625 127.839844 186.292969 127.25 185.910156 126.613281 C 185.503906 125.945312 185.152344 125.242188 184.847656 124.523438 C 184.5 123.6875 184.195312 122.824219 183.957031 121.949219 C 183.753906 121.207031 183.589844 120.457031 183.445312 119.703125 C 183.289062 118.875 183.15625 118.042969 183.054688 117.207031 C 182.96875 116.488281 182.902344 115.765625 182.875 115.039062 C 182.847656 114.367188 182.851562 113.691406 182.875 113.019531 C 182.925781 111.519531 183.078125 110.027344 183.277344 108.539062 C 183.445312 107.328125 183.625 106.113281 183.890625 104.917969 C 184.023438 104.324219 184.183594 103.734375 184.355469 103.152344 C 184.460938 102.808594 184.550781 102.457031 184.65625 102.113281 C 184.773438 101.730469 184.902344 101.355469 185.042969 100.980469 C 185.292969 100.308594 185.601562 99.652344 185.953125 99.027344 C 186.3125 98.386719 186.695312 97.765625 187.117188 97.164062 C 187.546875 96.550781 188.035156 95.996094 188.617188 95.527344 C 189.15625 95.09375 189.769531 94.753906 190.402344 94.484375 C 191.65625 93.953125 193.074219 93.789062 194.417969 94.019531 C 195.207031 94.152344 195.996094 94.425781 196.683594 94.839844 C 197.105469 95.09375 197.503906 95.375 197.878906 95.699219 C 198.171875 95.949219 198.445312 96.222656 198.703125 96.503906 C 199.824219 97.738281 200.605469 99.230469 201.207031 100.773438 C 201.492188 101.507812 201.722656 102.265625 201.914062 103.027344 C 202.125 103.847656 202.304688 104.675781 202.449219 105.511719 C 202.980469 108.597656 203.117188 111.757812 203.023438 114.886719 Z M 229.28125 113.632812 C 229.25 114.441406 229.191406 115.253906 229.105469 116.058594 C 229.027344 116.796875 228.933594 117.53125 228.796875 118.261719 C 228.632812 119.117188 228.414062 119.972656 228.144531 120.804688 C 227.914062 121.519531 227.632812 122.222656 227.296875 122.898438 C 226.976562 123.535156 226.570312 124.140625 226.121094 124.695312 C 225.636719 125.285156 225.078125 125.824219 224.457031 126.269531 C 223.269531 127.117188 221.828125 127.613281 220.363281 127.613281 C 220.332031 127.613281 220.300781 127.613281 220.265625 127.613281 C 219.699219 127.613281 219.136719 127.546875 218.582031 127.4375 C 217.882812 127.296875 217.210938 127.023438 216.574219 126.707031 C 215.890625 126.363281 215.234375 125.953125 214.660156 125.445312 C 214.089844 124.945312 213.570312 124.386719 213.132812 123.769531 C 212.683594 123.128906 212.324219 122.433594 212.007812 121.71875 C 211.679688 120.992188 211.417969 120.234375 211.183594 119.46875 C 210.957031 118.738281 210.765625 117.996094 210.605469 117.25 C 210.304688 115.847656 210.078125 114.433594 209.917969 113.003906 C 209.578125 110.007812 209.453125 106.964844 209.71875 103.953125 C 209.789062 103.140625 209.898438 102.332031 210.03125 101.527344 C 210.152344 100.78125 210.316406 100.035156 210.53125 99.308594 C 210.984375 97.78125 211.613281 96.28125 212.589844 95.007812 C 212.816406 94.714844 213.058594 94.433594 213.316406 94.167969 C 213.652344 93.828125 214.011719 93.523438 214.394531 93.246094 C 215.023438 92.792969 215.757812 92.46875 216.507812 92.277344 C 217.777344 91.953125 219.152344 91.992188 220.398438 92.402344 C 221.027344 92.609375 221.648438 92.886719 222.199219 93.257812 C 222.796875 93.664062 223.308594 94.160156 223.769531 94.710938 C 224.222656 95.253906 224.644531 95.824219 225.042969 96.410156 C 225.429688 96.980469 225.777344 97.585938 226.070312 98.210938 C 226.234375 98.558594 226.390625 98.910156 226.53125 99.269531 C 226.660156 99.59375 226.777344 99.921875 226.90625 100.242188 C 227.117188 100.789062 227.316406 101.34375 227.492188 101.902344 C 227.84375 103.027344 228.117188 104.175781 228.375 105.328125 C 228.6875 106.738281 228.949219 108.164062 229.121094 109.597656 C 229.199219 110.242188 229.257812 110.890625 229.285156 111.539062 C 229.316406 112.238281 229.308594 112.9375 229.285156 113.636719 Z M 229.28125 113.632812 " fill-opacity="1" fill-rule="nonzero"/><g clip-path="url(#d0ac6ec423)"><path fill="#000000" d="M 319.429688 278.265625 C 319.175781 275.632812 317.5625 273.398438 316.015625 271.34375 C 314.175781 268.90625 312.300781 266.492188 310.359375 264.132812 C 307.507812 260.699219 304.582031 257.328125 301.605469 254.003906 C 295.863281 247.53125 289.683594 241.335938 285.160156 233.914062 C 281.78125 228.378906 279.085938 222.46875 276.285156 216.628906 C 271.0625 206.359375 266.835938 195.644531 263.214844 184.71875 C 255.449219 161.074219 248.5625 137.070312 244.058594 112.578125 C 242.960938 106.003906 241.917969 99.414062 240.925781 92.820312 C 241.289062 92.796875 241.648438 92.761719 242.007812 92.722656 C 245.832031 92.3125 249.527344 91.15625 253.085938 89.730469 C 253.929688 89.386719 254.875 88.980469 255.871094 88.511719 C 256.734375 88.234375 257.597656 87.957031 258.460938 87.699219 C 262.691406 86.363281 267.136719 84.96875 270.445312 81.886719 C 272.074219 80.449219 273.25 78.566406 273.976562 76.527344 C 275.726562 70.886719 272.863281 64.316406 267.878906 61.300781 C 264.191406 59.207031 259.859375 58.574219 255.667969 58.761719 C 252.703125 58.914062 249.695312 59.257812 246.921875 60.359375 C 246.542969 60.5 246.175781 60.648438 245.804688 60.804688 C 245.367188 60.601562 244.847656 60.550781 244.398438 60.375 C 243.921875 60.226562 243.457031 60.058594 242.976562 59.933594 C 242.308594 59.730469 241.628906 59.527344 240.9375 59.371094 C 240.324219 59.207031 239.707031 59.042969 239.089844 58.886719 C 238.867188 57.976562 238.578125 57.078125 238.285156 56.1875 C 237.785156 54.636719 237.308594 53.078125 236.691406 51.570312 C 234.453125 46.132812 231.636719 40.910156 228.132812 36.179688 C 226.554688 34.03125 224.855469 31.980469 223.023438 30.046875 C 219.511719 26.398438 215.738281 22.890625 211.347656 20.316406 C 205.839844 17.136719 199.726562 15.128906 193.503906 13.886719 C 187.507812 12.621094 181.328125 12.535156 175.242188 13.125 C 175.054688 11.742188 174.058594 9.933594 173.558594 9.269531 C 171.253906 6.25 166.910156 4.976562 163.371094 6.421875 C 161.953125 7 160.777344 8.042969 159.796875 9.199219 C 158.722656 10.503906 158.039062 12.09375 157.578125 13.710938 C 157.363281 14.542969 157.070312 15.875 157.257812 16.933594 C 152.683594 18.523438 148.261719 20.558594 144.070312 23 C 136.945312 27.03125 130.160156 31.894531 125.128906 38.425781 C 120.289062 44.808594 116.269531 51.847656 113.234375 59.257812 C 110.628906 66.414062 108.753906 73.859375 107.535156 81.375 C 107.148438 84.015625 106.179688 89.460938 109.777344 90.195312 C 109.808594 90.203125 109.84375 90.207031 109.875 90.210938 C 109.769531 90.949219 109.6875 91.691406 109.59375 92.425781 C 109.363281 94.238281 109.167969 96.058594 108.957031 97.871094 C 108.753906 99.632812 108.535156 101.390625 108.34375 103.15625 C 108.125 105.15625 107.875 107.15625 107.660156 109.164062 C 107.222656 113.292969 106.734375 117.414062 106.234375 121.535156 C 105.714844 125.816406 105.167969 130.097656 104.59375 134.375 C 104.015625 138.644531 103.417969 142.914062 102.753906 147.171875 C 102.09375 151.421875 101.375 155.664062 100.597656 159.898438 C 100.226562 161.925781 99.816406 163.945312 99.417969 165.96875 C 99.023438 167.964844 98.609375 169.960938 98.183594 171.949219 C 97.308594 176.039062 96.375 180.117188 95.347656 184.171875 C 94.3125 188.253906 93.191406 192.316406 92.011719 196.359375 C 90.808594 200.492188 89.558594 204.613281 88.230469 208.707031 C 87.519531 210.894531 86.804688 213.082031 86.070312 215.257812 C 85.378906 217.308594 84.671875 219.351562 83.96875 221.402344 C 82.535156 225.597656 81.039062 229.777344 79.519531 233.945312 C 78.03125 238.019531 76.503906 242.078125 74.949219 246.125 C 74.222656 248.019531 73.5 249.914062 72.765625 251.808594 C 71.976562 253.859375 71.164062 255.90625 70.355469 257.953125 C 69.617188 259.828125 68.84375 261.691406 68.082031 263.558594 C 67.289062 265.488281 66.496094 267.417969 65.707031 269.351562 C 64.238281 272.929688 62.753906 276.5 61.292969 280.082031 C 60.742188 281.425781 60.203125 282.777344 59.648438 284.117188 C 59.226562 285.136719 58.824219 286.164062 58.453125 287.199219 C 58.148438 288.058594 57.816406 288.902344 57.484375 289.75 C 57.320312 290.152344 57.160156 290.558594 57.007812 290.964844 C 56.886719 291.289062 56.773438 291.617188 56.644531 291.933594 C 56.507812 292.269531 56.375 292.613281 56.253906 292.953125 C 56.160156 293.210938 56.046875 293.460938 55.980469 293.730469 C 55.960938 293.804688 55.941406 293.878906 55.925781 293.953125 C 55.785156 294.320312 55.710938 294.703125 55.6875 295.097656 C 55.632812 295.4375 55.597656 295.785156 55.660156 296.128906 C 55.683594 296.261719 55.730469 296.390625 55.785156 296.515625 C 55.867188 296.953125 55.988281 297.382812 56.128906 297.796875 C 58.277344 303.394531 64.683594 307.792969 70.550781 308.5625 C 74.714844 309.386719 78.335938 306.429688 80.835938 303.429688 C 83.464844 300.304688 85.753906 296.894531 87.710938 293.3125 C 88.195312 292.375 88.636719 291.414062 89.085938 290.457031 C 92.332031 290.558594 95.578125 290.921875 98.785156 291.398438 C 99.511719 291.507812 100.234375 291.621094 100.957031 291.75 C 98.792969 297.609375 98.066406 303.875 97.039062 310.007812 C 96.640625 312.265625 96.304688 314.535156 95.910156 316.792969 C 95.5625 318.335938 95.390625 319.921875 95.570312 321.492188 C 95.5625 323.3125 96.164062 325.132812 97.109375 326.675781 C 98.347656 328.808594 99.878906 330.742188 101.621094 332.484375 C 106.167969 337.03125 111.582031 340.644531 117.277344 343.597656 C 122.585938 346.386719 128.121094 348.757812 133.839844 350.582031 C 137.882812 351.824219 142.347656 352.828125 146.484375 351.453125 C 148.882812 350.722656 150.726562 349.429688 151.488281 347.566406 C 151.765625 347.164062 152.015625 346.738281 152.230469 346.300781 C 152.925781 344.574219 153.367188 342.746094 153.757812 340.933594 C 154.503906 337.003906 155.035156 333.027344 155.496094 329.054688 C 156.320312 329.152344 157.144531 329.265625 157.960938 329.390625 C 163.199219 330.21875 168.332031 331.574219 173.488281 332.789062 C 174.003906 332.914062 174.527344 333.03125 175.050781 333.15625 C 175.089844 333.625 175.128906 334.097656 175.164062 334.570312 C 175.445312 337.855469 175.621094 341.148438 175.632812 344.449219 C 175.667969 347.703125 175.625 350.96875 175.957031 354.214844 C 176.132812 355.644531 176.441406 358.277344 177.09375 360.761719 C 177.175781 361.941406 177.460938 363.132812 177.921875 364.113281 C 178.789062 365.613281 180.234375 366.699219 181.664062 367.632812 C 185.328125 370.121094 190.941406 370.09375 195.253906 370.183594 C 209.453125 370.226562 241.4375 365.714844 248.535156 352.160156 C 250.210938 349.160156 249.769531 346.929688 248.738281 343.867188 C 247.628906 340.464844 246.265625 337.152344 244.8125 333.886719 C 244.339844 332.824219 243.808594 331.792969 243.203125 330.800781 C 246.519531 328.402344 250.089844 326.328125 253.710938 324.433594 C 260.296875 321.144531 267.167969 318.265625 274.261719 316.289062 C 276.148438 319.773438 278.535156 322.964844 280.828125 326.191406 C 283.109375 329.171875 285.324219 332.304688 288.265625 334.671875 C 289.234375 335.363281 290.46875 335.679688 291.640625 335.402344 C 293.796875 334.949219 295.78125 333.894531 297.625 332.714844 C 298.945312 331.855469 300.230469 330.929688 301.410156 329.886719 C 302.574219 328.835938 303.507812 327.554688 304.378906 326.257812 C 306.730469 322.789062 308.242188 318.273438 306.878906 314.148438 C 306.480469 312.929688 305.757812 312.140625 304.84375 311.625 C 304.78125 311.554688 304.714844 311.488281 304.640625 311.421875 C 303.933594 310.796875 303.253906 310.144531 302.574219 309.488281 C 300.613281 307.644531 298.734375 305.714844 296.957031 303.695312 C 298.378906 302.863281 299.753906 301.964844 301.097656 301.011719 C 306.363281 297.316406 311.0625 292.816406 315.152344 287.855469 C 316.585938 286.046875 318.039062 284.179688 318.792969 281.96875 C 319.207031 280.78125 319.539062 279.53125 319.441406 278.261719 Z M 240.570312 90.4375 C 240.40625 89.308594 240.234375 88.183594 240.070312 87.058594 C 239.695312 84.066406 239.363281 81.070312 239.042969 78.074219 C 238.980469 77.46875 238.917969 76.867188 238.851562 76.261719 C 240.054688 75.300781 241.273438 74.363281 242.550781 73.5 C 245.59375 71.574219 249.933594 69.164062 253.5625 69.035156 C 256.878906 68.894531 260.417969 69.320312 263.179688 71.296875 C 267.414062 74.289062 265.757812 77.859375 262.605469 80.847656 C 257.824219 85.207031 251.601562 87.625 245.464844 89.40625 C 243.855469 89.839844 242.214844 90.140625 240.574219 90.433594 Z M 250.765625 61.734375 C 254.816406 61.132812 259.046875 60.816406 263.046875 61.902344 C 264.921875 62.425781 266.847656 63.066406 268.292969 64.429688 C 271.074219 66.96875 272.644531 70.882812 272.054688 74.636719 C 271.867188 75.621094 271.414062 76.527344 270.953125 77.410156 C 270.320312 78.625 269.320312 79.597656 268.300781 80.492188 C 267.199219 81.445312 265.960938 82.210938 264.664062 82.871094 C 267.007812 80.660156 268.589844 78.050781 268.347656 75.105469 C 268.09375 72.035156 265.730469 69.679688 263.128906 68.292969 C 259.984375 66.613281 256.308594 66.277344 252.800781 66.53125 C 249.957031 66.753906 247.277344 67.945312 244.75 69.191406 C 242.089844 70.542969 239.683594 72.273438 237.351562 74.105469 C 237.121094 74.171875 236.90625 74.3125 236.753906 74.5 C 236.699219 74.5625 236.652344 74.625 236.609375 74.695312 C 233.492188 77.183594 230.460938 79.808594 227.070312 81.914062 C 222.210938 85.019531 216.515625 86.855469 210.734375 86.898438 C 203.023438 87.042969 195.40625 85.230469 188.273438 82.394531 C 184.949219 81.089844 181.496094 79.863281 178.609375 77.707031 C 177.644531 76.941406 176.730469 76.074219 176.058594 75.035156 C 174.992188 73.21875 174.359375 71.113281 174.296875 69.003906 C 174.359375 64.351562 179.195312 62.019531 183.007812 60.625 C 183.832031 60.285156 184.667969 59.953125 185.546875 59.773438 C 188.257812 59.175781 191.035156 58.917969 193.796875 58.726562 C 201.441406 58.429688 209.105469 58.628906 216.71875 59.355469 C 219.6875 59.558594 222.636719 59.949219 225.59375 60.269531 C 228.339844 60.582031 231.09375 60.800781 233.839844 61.082031 C 235.113281 61.210938 236.390625 61.320312 237.664062 61.46875 C 238.777344 61.578125 239.902344 61.601562 241 61.832031 C 241.636719 61.945312 242.261719 62.101562 242.886719 62.257812 C 239.003906 64.4375 235.511719 67.332031 231.789062 69.753906 C 226.839844 73.070312 221.664062 76.324219 215.863281 77.910156 C 213.597656 78.496094 211.257812 78.785156 208.914062 78.71875 C 207.742188 78.699219 206.5625 78.59375 205.390625 78.636719 C 204.25 78.652344 204.292969 79.792969 205.109375 80.210938 C 206.117188 80.707031 207.265625 80.8125 208.367188 80.953125 C 209.863281 81.125 211.359375 81.167969 212.859375 81.027344 C 222.214844 80.164062 230.390625 73.988281 237.894531 68.792969 C 241.886719 65.980469 245.871094 62.742188 250.769531 61.734375 Z M 171.761719 69.710938 C 171.777344 69.957031 171.800781 70.203125 171.832031 70.449219 C 171.492188 70.480469 171.1875 70.515625 170.972656 70.523438 C 157.886719 72.292969 144.96875 75.269531 132.464844 79.519531 C 132.417969 79.246094 132.371094 78.972656 132.339844 78.695312 C 131.597656 73.417969 131.832031 68.050781 132.117188 62.746094 C 133.082031 50.664062 136.289062 38.488281 142.921875 28.238281 C 143.535156 27.351562 144.125 26.445312 144.753906 25.570312 C 153.203125 20.679688 162.496094 17.261719 172.222656 16.144531 C 172.421875 16.246094 172.628906 16.332031 172.808594 16.429688 C 178.453125 19.167969 183.203125 23.460938 187.410156 28.050781 C 194.671875 35.816406 198.796875 45.761719 202.296875 55.660156 C 200.546875 55.640625 198.792969 55.652344 197.039062 55.699219 C 192.34375 55.808594 187.53125 56.042969 183.0625 57.582031 C 180.527344 58.523438 177.964844 59.550781 175.832031 61.238281 C 173.230469 63.273438 171.480469 66.347656 171.761719 69.710938 Z M 196 17.316406 C 202.085938 18.835938 208.109375 21.132812 213.171875 24.902344 C 217.160156 27.949219 220.769531 31.503906 223.960938 35.375 C 227.796875 40.070312 230.882812 45.335938 233.335938 50.867188 C 234.175781 52.796875 234.980469 54.746094 235.734375 56.710938 C 235.917969 57.246094 236.097656 57.785156 236.277344 58.320312 C 233.859375 57.917969 231.410156 57.667969 228.964844 57.445312 C 225.050781 57.085938 221.132812 56.753906 217.210938 56.457031 C 213.144531 56.09375 209.066406 55.828125 204.984375 55.714844 C 204.8125 54.890625 204.628906 54.066406 204.414062 53.253906 C 202.652344 46.9375 199.769531 40.992188 196.519531 35.316406 C 192.582031 28.507812 184.945312 19.75 177.421875 15.65625 C 183.660156 15.277344 189.945312 15.699219 196 17.316406 Z M 159.800781 15.964844 C 159.9375 15.128906 160.152344 14.296875 160.449219 13.5 C 161.160156 11.503906 162.582031 9.644531 164.546875 8.765625 C 166.496094 7.980469 168.835938 8.28125 170.507812 9.558594 C 170.957031 9.898438 171.414062 10.25 171.769531 10.691406 C 172.265625 11.441406 172.679688 12.261719 172.992188 13.105469 C 173.015625 13.1875 173.039062 13.273438 173.0625 13.355469 C 168.546875 13.847656 164.101562 14.78125 159.773438 16.109375 C 159.78125 16.058594 159.789062 16.011719 159.800781 15.964844 Z M 110.105469 83.183594 C 110.679688 78.929688 111.605469 74.730469 112.679688 70.574219 C 113.648438 66.960938 114.601562 63.328125 115.980469 59.851562 C 117.496094 56.097656 119.417969 52.527344 121.421875 49.019531 C 125.316406 42.214844 130.050781 35.699219 136.441406 31.03125 C 137.726562 30.082031 139.039062 29.164062 140.371094 28.28125 C 132.0625 40.320312 128.472656 57.960938 128.886719 72.285156 C 128.949219 74.757812 129.167969 77.238281 129.683594 79.660156 C 129.734375 79.894531 129.792969 80.144531 129.863281 80.394531 C 123.765625 82.492188 117.910156 85.25 111.824219 87.378906 C 111.347656 87.539062 110.855469 87.75 110.339844 87.660156 C 110.269531 87.648438 110.25 87.621094 110.21875 87.558594 C 109.695312 86.164062 109.925781 84.625 110.101562 83.183594 Z M 316.542969 279.117188 C 316.105469 281.972656 314.269531 284.304688 312.488281 286.476562 C 309.191406 290.378906 305.53125 294.027344 301.488281 297.160156 C 299.433594 298.71875 297.320312 300.199219 295.132812 301.558594 C 293.40625 299.445312 291.796875 297.238281 290.332031 294.933594 C 277.136719 274.105469 269.046875 250.675781 259.382812 228.125 C 258.332031 225.703125 257.421875 223.195312 256.085938 220.90625 C 256 220.789062 255.902344 220.675781 255.742188 220.691406 C 255.351562 220.734375 255.335938 221.277344 255.332031 221.566406 C 255.367188 222.960938 255.871094 224.300781 256.253906 225.632812 C 256.574219 226.664062 256.90625 227.6875 257.253906 228.710938 C 260.089844 236.941406 263.28125 245.050781 266.511719 253.136719 C 272.660156 268.792969 279.457031 284.316406 288.730469 298.410156 C 291.320312 302.210938 294.238281 305.8125 297.628906 308.941406 C 298.238281 309.523438 298.847656 310.105469 299.460938 310.679688 C 298.589844 310.675781 297.742188 310.6875 296.972656 310.65625 C 293.976562 310.605469 290.980469 310.675781 287.992188 310.929688 C 280.167969 311.609375 272.449219 313.460938 265.144531 316.339844 C 257.113281 319.378906 249.3125 323.128906 242.234375 328.015625 C 238.605469 330.5625 235.203125 333.496094 232.398438 336.945312 C 230.890625 329.898438 230.511719 322.632812 229.617188 315.488281 C 227.457031 297.011719 224.480469 278.628906 221.121094 260.335938 C 220.175781 255.6875 218.953125 251.101562 217.78125 246.507812 C 216.351562 241 215.121094 235.4375 213.613281 229.949219 C 213.304688 228.714844 212.894531 227.511719 212.527344 226.292969 C 212.4375 225.921875 212.121094 225.550781 211.703125 225.617188 C 211.480469 225.675781 211.320312 225.882812 211.242188 226.089844 C 211.097656 226.667969 211.367188 227.257812 211.398438 227.84375 C 211.65625 229.800781 212.128906 231.722656 212.503906 233.660156 C 213.925781 240.570312 215.660156 247.410156 217.261719 254.28125 C 218.910156 261.261719 219.867188 268.371094 221.054688 275.4375 C 223.304688 290.09375 225.613281 304.753906 226.984375 319.527344 C 227.683594 325.410156 228.136719 331.34375 229.320312 337.15625 C 229.628906 338.441406 230.042969 340.535156 230.796875 342.308594 C 230.902344 342.839844 231.09375 343.34375 231.382812 343.777344 C 231.695312 344.191406 232.058594 344.523438 232.453125 344.800781 C 232.820312 345.109375 233.226562 345.332031 233.683594 345.4375 C 235.019531 345.953125 236.558594 346.105469 237.9375 346.355469 C 239.992188 346.703125 242.058594 347.0625 244.03125 347.746094 C 244.855469 347.988281 245.585938 348.5625 246.453125 348.617188 C 246.480469 348.617188 246.503906 348.617188 246.527344 348.617188 C 246.5 349.417969 246.21875 350.191406 245.855469 350.898438 C 242.128906 358.347656 229.390625 362.148438 221.695312 364.050781 C 216.714844 365.296875 211.644531 366.136719 206.539062 366.632812 C 201.332031 367.148438 196.085938 367.527344 190.859375 367.109375 C 188.847656 366.921875 186.785156 366.722656 184.90625 365.925781 C 183.398438 365.179688 181.957031 364.207031 180.910156 362.878906 C 180.542969 362.402344 180.410156 361.769531 180.3125 361.195312 C 180.171875 360.148438 179.96875 358.984375 180.542969 358.03125 C 181.53125 356.417969 182.910156 355.132812 184.300781 353.851562 C 185.449219 353.058594 186.582031 352.246094 187.613281 351.300781 C 190.980469 348.390625 192.398438 343.902344 192.484375 339.566406 C 192.746094 334.8125 192.792969 330.035156 192.589844 325.277344 C 192.1875 315.269531 190.851562 305.34375 189.710938 295.402344 C 187.886719 280.042969 186.929688 264.597656 186.390625 249.144531 C 186.230469 245.335938 186.035156 241.527344 185.960938 237.714844 C 185.933594 236.242188 185.964844 234.769531 185.941406 233.292969 C 185.9375 233.140625 185.933594 232.964844 185.855469 232.828125 C 185.546875 232.347656 184.902344 232.734375 184.757812 233.164062 C 184.328125 234.269531 184.273438 235.480469 184.136719 236.652344 C 184.015625 237.941406 183.960938 239.238281 183.917969 240.53125 C 183.804688 246.949219 183.910156 253.375 184.078125 259.792969 C 184.394531 271.238281 185.292969 282.664062 186.582031 294.042969 C 187.515625 302.738281 188.84375 311.390625 189.476562 320.117188 C 189.855469 324.875 190.101562 329.644531 189.945312 334.417969 C 189.910156 336.386719 189.859375 338.359375 189.8125 340.328125 C 189.269531 337.96875 187.804688 335.921875 186.039062 334.300781 C 183.328125 332.058594 179.789062 331.242188 176.457031 330.382812 C 168.625 328.539062 160.808594 326.171875 152.730469 325.777344 C 149.851562 325.644531 147.53125 326.234375 145.875 327.929688 C 147.605469 318.707031 149.449219 309.496094 151.035156 300.246094 C 153.535156 284.542969 153.285156 268.570312 152.238281 252.753906 C 151.707031 244.773438 151.175781 236.777344 149.964844 228.863281 C 149.539062 225.773438 148.824219 222.703125 148.101562 219.691406 C 148.128906 219.421875 147.894531 219.207031 147.628906 219.234375 C 147.066406 219.324219 147.136719 219.96875 147.175781 220.417969 C 149.167969 237.117188 150.078125 253.957031 150.402344 270.769531 C 150.542969 283.867188 149.191406 296.949219 146.457031 309.757812 C 145.582031 314.367188 144.816406 318.992188 144.011719 323.613281 C 143.484375 326.308594 142.925781 329.007812 142.640625 331.746094 C 142.226562 335.742188 143.964844 338.5625 146.496094 341.472656 C 146.949219 341.984375 147.414062 342.480469 147.878906 342.980469 C 148.210938 343.585938 148.480469 344.222656 148.644531 344.90625 C 148.796875 345.679688 148.941406 346.628906 148.382812 347.277344 C 147.078125 348.519531 144.9375 349.011719 143.179688 349.125 C 140.554688 349.15625 137.957031 348.601562 135.453125 347.84375 C 132.125 346.816406 128.863281 345.585938 125.664062 344.210938 C 117.546875 340.59375 109.464844 336.335938 103.257812 329.855469 C 101.597656 328.175781 100.175781 326.242188 99.085938 324.144531 C 98.457031 322.664062 97.9375 320.667969 99.160156 319.351562 C 102.050781 316.214844 106.542969 315.671875 110.339844 314.152344 C 112.804688 313.25 114.296875 312.105469 116.074219 310.207031 C 116.785156 309.554688 117.328125 308.777344 117.785156 307.945312 C 119.457031 306.175781 120.136719 303.71875 120.429688 301.359375 C 120.695312 299.519531 120.875 297.660156 121.019531 295.804688 C 121.53125 289.40625 122.089844 283.015625 122.5625 276.613281 C 124.320312 254.191406 126.089844 231.769531 127.445312 209.324219 C 127.535156 207.175781 127.6875 205.019531 127.550781 202.871094 C 127.523438 202.667969 127.484375 202.429688 127.320312 202.28125 C 127.121094 202.105469 126.820312 202.140625 126.621094 202.300781 C 126.253906 202.640625 126.1875 203.167969 126.066406 203.628906 C 125.824219 204.703125 125.695312 205.800781 125.554688 206.886719 C 123.46875 224.175781 122.441406 241.566406 120.96875 258.914062 C 119.917969 271.625 118.878906 284.339844 118.097656 297.066406 C 118.0625 297.007812 118.027344 296.953125 117.992188 296.898438 C 115.691406 293.328125 111.8125 291.148438 107.804688 290.003906 C 104.070312 288.785156 100.183594 288.160156 96.289062 287.695312 C 92.972656 287.320312 89.636719 287.074219 86.296875 287.160156 C 81.414062 287.296875 76.621094 288.429688 71.882812 289.558594 C 67.40625 290.621094 63.035156 292.078125 58.789062 293.855469 C 58.765625 293.863281 58.742188 293.878906 58.714844 293.886719 C 58.726562 293.839844 58.734375 293.792969 58.746094 293.746094 C 58.8125 293.445312 58.910156 293.144531 58.996094 292.847656 C 59.09375 292.519531 59.214844 292.191406 59.347656 291.875 C 59.648438 291.152344 59.945312 290.429688 60.253906 289.707031 C 60.617188 288.847656 61.019531 288 61.394531 287.144531 C 61.878906 286.050781 62.332031 284.945312 62.792969 283.84375 C 63.4375 282.289062 64.074219 280.726562 64.710938 279.167969 C 66.199219 275.519531 67.714844 271.882812 69.210938 268.238281 C 70.816406 264.320312 72.421875 260.402344 73.976562 256.464844 C 75.527344 252.539062 77.027344 248.59375 78.53125 244.652344 C 81.640625 236.507812 84.589844 228.304688 87.414062 220.058594 C 88.878906 215.789062 90.316406 211.507812 91.675781 207.203125 C 92.976562 203.082031 94.21875 198.945312 95.402344 194.789062 C 96.535156 190.808594 97.59375 186.808594 98.597656 182.792969 C 99.089844 180.820312 99.550781 178.839844 100 176.855469 C 100.484375 174.703125 100.960938 172.546875 101.398438 170.386719 C 102.214844 166.34375 103.042969 162.308594 103.769531 158.25 C 104.527344 154.03125 105.234375 149.800781 105.855469 145.558594 C 106.175781 143.398438 106.488281 141.234375 106.792969 139.074219 C 107.101562 136.90625 107.386719 134.730469 107.675781 132.5625 C 107.960938 130.457031 108.230469 128.355469 108.492188 126.25 C 108.753906 124.183594 108.992188 122.113281 109.257812 120.050781 C 109.527344 117.96875 109.746094 115.878906 109.984375 113.792969 C 110.222656 111.65625 110.460938 109.515625 110.703125 107.378906 C 110.921875 105.441406 111.136719 103.511719 111.355469 101.578125 C 111.550781 99.832031 111.757812 98.085938 111.9375 96.339844 C 112.03125 95.472656 112.125 94.601562 112.21875 93.730469 C 112.328125 92.726562 112.445312 91.726562 112.53125 90.726562 C 112.554688 90.46875 112.574219 90.210938 112.59375 89.949219 C 113.554688 89.644531 114.492188 89.191406 115.40625 88.824219 C 117.386719 88.007812 119.378906 87.226562 121.375 86.445312 C 130.875 82.863281 140.535156 79.601562 150.402344 77.191406 C 156.617188 75.726562 162.910156 74.640625 169.144531 73.292969 C 170.179688 73.054688 171.21875 72.820312 172.230469 72.503906 C 172.609375 73.867188 173.179688 75.183594 173.90625 76.394531 C 174.875 77.902344 176.234375 79.136719 177.675781 80.1875 C 180.738281 82.234375 184.214844 83.546875 187.628906 84.882812 C 194.824219 87.738281 202.480469 89.578125 210.253906 89.542969 C 218.050781 89.6875 225.515625 86.492188 231.695312 81.917969 C 233.257812 80.8125 234.75 79.605469 236.226562 78.394531 C 236.5 85.199219 237.632812 91.941406 238.679688 98.660156 C 241.734375 120.808594 247.03125 142.566406 253.375 163.988281 C 257.320312 177.015625 261.382812 190.03125 266.4375 202.679688 C 269.769531 210.859375 273.855469 218.707031 277.652344 226.679688 C 281.375 234.488281 286.234375 241.6875 292.109375 248.042969 C 299.867188 256.679688 307.730469 265.25 314.714844 274.539062 C 315.730469 275.851562 316.789062 277.367188 316.535156 279.117188 Z M 202.453125 105.511719 C 202.984375 108.597656 203.121094 111.757812 203.027344 114.886719 C 202.984375 116.375 202.875 117.859375 202.6875 119.335938 C 202.585938 120.125 202.453125 120.90625 202.28125 121.679688 C 202.101562 122.492188 201.898438 123.296875 201.625 124.078125 C 201.355469 124.84375 201.046875 125.59375 200.632812 126.292969 C 200.234375 126.972656 199.746094 127.597656 199.199219 128.164062 C 198.648438 128.734375 198.011719 129.214844 197.332031 129.628906 C 196.703125 130.011719 196.03125 130.355469 195.320312 130.558594 C 194.753906 130.722656 194.179688 130.839844 193.589844 130.886719 C 193.554688 130.890625 193.523438 130.894531 193.488281 130.898438 C 191.976562 131.023438 190.441406 130.632812 189.140625 129.859375 C 188.457031 129.453125 187.835938 128.941406 187.28125 128.371094 C 186.765625 127.839844 186.296875 127.25 185.910156 126.613281 C 185.503906 125.945312 185.152344 125.242188 184.851562 124.523438 C 184.5 123.6875 184.199219 122.824219 183.957031 121.949219 C 183.753906 121.207031 183.59375 120.457031 183.449219 119.703125 C 183.289062 118.875 183.15625 118.042969 183.058594 117.207031 C 182.96875 116.488281 182.90625 115.765625 182.875 115.039062 C 182.847656 114.367188 182.851562 113.691406 182.875 113.019531 C 182.929688 111.519531 183.078125 110.027344 183.28125 108.539062 C 183.445312 107.328125 183.625 106.113281 183.894531 104.917969 C 184.027344 104.324219 184.183594 103.734375 184.359375 103.152344 C 184.460938 102.808594 184.554688 102.457031 184.660156 102.113281 C 184.773438 101.730469 184.902344 101.355469 185.042969 100.980469 C 185.292969 100.308594 185.601562 99.652344 185.953125 99.027344 C 186.316406 98.386719 186.695312 97.765625 187.121094 97.164062 C 187.546875 96.550781 188.039062 95.996094 188.621094 95.527344 C 189.15625 95.09375 189.773438 94.753906 190.40625 94.484375 C 191.660156 93.953125 193.078125 93.789062 194.417969 94.019531 C 195.210938 94.152344 195.996094 94.425781 196.6875 94.839844 C 197.109375 95.09375 197.507812 95.375 197.882812 95.699219 C 198.171875 95.949219 198.445312 96.222656 198.703125 96.503906 C 199.824219 97.738281 200.609375 99.230469 201.207031 100.773438 C 201.492188 101.507812 201.726562 102.265625 201.917969 103.027344 C 202.125 103.847656 202.308594 104.675781 202.449219 105.511719 Z M 229.285156 111.539062 C 229.3125 112.238281 229.308594 112.9375 229.285156 113.632812 C 229.253906 114.441406 229.195312 115.253906 229.109375 116.058594 C 229.03125 116.796875 228.9375 117.53125 228.800781 118.261719 C 228.636719 119.117188 228.417969 119.972656 228.148438 120.804688 C 227.917969 121.519531 227.636719 122.222656 227.300781 122.898438 C 226.980469 123.535156 226.574219 124.140625 226.121094 124.695312 C 225.636719 125.285156 225.082031 125.824219 224.460938 126.269531 C 223.273438 127.117188 221.832031 127.613281 220.367188 127.613281 C 220.332031 127.613281 220.304688 127.613281 220.269531 127.613281 C 219.699219 127.613281 219.140625 127.546875 218.582031 127.4375 C 217.886719 127.296875 217.210938 127.023438 216.574219 126.707031 C 215.890625 126.363281 215.238281 125.953125 214.664062 125.445312 C 214.09375 124.945312 213.574219 124.386719 213.136719 123.769531 C 212.6875 123.128906 212.328125 122.433594 212.007812 121.71875 C 211.683594 120.992188 211.421875 120.234375 211.1875 119.46875 C 210.960938 118.738281 210.769531 117.996094 210.609375 117.25 C 210.308594 115.847656 210.082031 114.433594 209.921875 113.003906 C 209.582031 110.007812 209.457031 106.964844 209.722656 103.953125 C 209.792969 103.140625 209.902344 102.332031 210.035156 101.527344 C 210.15625 100.78125 210.320312 100.035156 210.535156 99.308594 C 210.988281 97.78125 211.617188 96.28125 212.59375 95.007812 C 212.820312 94.714844 213.0625 94.433594 213.320312 94.167969 C 213.65625 93.828125 214.011719 93.523438 214.398438 93.246094 C 215.027344 92.792969 215.761719 92.46875 216.511719 92.277344 C 217.78125 91.953125 219.15625 91.992188 220.402344 92.402344 C 221.03125 92.609375 221.652344 92.886719 222.203125 93.257812 C 222.796875 93.664062 223.3125 94.160156 223.773438 94.710938 C 224.226562 95.253906 224.648438 95.824219 225.046875 96.410156 C 225.433594 96.980469 225.78125 97.585938 226.074219 98.210938 C 226.238281 98.558594 226.394531 98.910156 226.535156 99.269531 C 226.664062 99.59375 226.78125 99.921875 226.90625 100.242188 C 227.121094 100.789062 227.320312 101.34375 227.496094 101.902344 C 227.847656 103.027344 228.121094 104.175781 228.378906 105.328125 C 228.691406 106.738281 228.953125 108.164062 229.125 109.597656 C 229.203125 110.242188 229.261719 110.890625 229.289062 111.539062 Z M 229.285156 111.539062 " fill-opacity="1" fill-rule="nonzero"/></g></svg>