<svg xmlns="http://www.w3.org/2000/svg" xmlns:xlink="http://www.w3.org/1999/xlink" width="500" zoomAndPan="magnify" viewBox="0 0 375 374.999991" height="500" preserveAspectRatio="xMidYMid meet" version="1.0"><defs><clipPath id="d52253f838"><path d="M 3.992188 19.679688 L 369.96875 19.679688 L 369.96875 356.085938 L 3.992188 356.085938 Z M 3.992188 19.679688 " clip-rule="nonzero"/></clipPath><clipPath id="ed45da751a"><path d="M 3.992188 19.679688 L 369.96875 19.679688 L 369.96875 356.085938 L 3.992188 356.085938 Z M 3.992188 19.679688 " clip-rule="nonzero"/></clipPath></defs><rect x="-37.5" width="450" fill="#ffffff" y="-37.499999" height="449.999989" fill-opacity="1"/><rect x="-37.5" width="450" fill="#ffffff" y="-37.499999" height="449.999989" fill-opacity="1"/><g clip-path="url(#d52253f838)"><path fill="#dbc9e8" d="M 359.835938 105.507812 L 359.683594 105.132812 C 357.949219 100.808594 356.15625 96.335938 356.664062 91.984375 C 357.050781 88.664062 358.714844 85.628906 360.46875 82.417969 C 360.835938 81.734375 361.210938 81.050781 361.570312 80.367188 C 363.445312 76.804688 365.765625 71.464844 364.28125 66.257812 C 363.4375 63.296875 360.960938 60.6875 357.96875 59.613281 C 355.539062 58.734375 353.128906 58.980469 351.1875 60.304688 C 348.058594 62.445312 347.5 66.136719 347.007812 69.394531 C 346.640625 71.832031 346.289062 74.140625 345.023438 75.699219 C 343.953125 77.015625 342.21875 77.773438 340.371094 78.574219 C 339.070312 79.140625 337.726562 79.71875 336.476562 80.558594 C 329.792969 85.054688 329.113281 94.484375 331.410156 101.828125 C 332.382812 104.96875 333.789062 107.960938 335.148438 110.855469 C 336.800781 114.386719 338.367188 117.722656 339.21875 121.304688 C 342.394531 134.621094 333.207031 149.855469 319.953125 153.269531 C 311.613281 155.410156 302.488281 153.457031 293.648438 151.566406 C 282.792969 149.253906 271.574219 146.851562 261.4375 151.871094 C 246.488281 159.269531 243.179688 178.546875 242.535156 189.371094 C 242.488281 190.246094 242.445312 191.121094 242.402344 192 C 242.121094 197.484375 241.84375 203.160156 239.53125 207.9375 C 237.082031 212.996094 231.019531 217.136719 225.890625 215.214844 C 221.125 213.449219 219.101562 207.492188 218.320312 204.113281 C 214.632812 188.121094 220.496094 171.25 225.230469 159.949219 C 226.804688 156.191406 228.523438 152.402344 230.183594 148.726562 C 234.878906 138.363281 239.734375 127.640625 242.101562 116.257812 C 248.082031 87.464844 236.597656 55.886719 213.515625 37.664062 C 199.878906 26.902344 182.488281 20.726562 163.222656 19.796875 C 145.410156 18.9375 126.453125 22.730469 109.84375 30.46875 C 91.195312 39.167969 73.847656 52.5 57.300781 70.894531 C 51.339844 76.816406 46.023438 83.46875 41.304688 90.585938 C 40.417969 91.792969 39.527344 93.007812 38.644531 94.242188 C 35.144531 91.039062 31.640625 87.832031 28.144531 84.621094 C 21.617188 78.644531 17.285156 79.234375 14.800781 80.777344 C 11.679688 82.710938 10.921875 86.679688 10.507812 88.816406 C 5.695312 114.308594 5.902344 141.226562 11.097656 166.722656 C 2.265625 185.066406 1.625 211.734375 9.414062 238.230469 C 17.953125 267.277344 31.347656 288.617188 51.554688 305.402344 C 89.601562 336.992188 137.78125 354.976562 187.210938 356.035156 C 188.636719 356.0625 190.050781 356.085938 191.445312 356.085938 C 207.21875 356.085938 220.507812 354.058594 231.9375 349.917969 C 256.347656 341.082031 277.472656 320.003906 288.441406 293.53125 C 298.179688 270.03125 300.585938 242.257812 295.394531 213.230469 C 294.433594 207.851562 293.851562 201.371094 297.902344 198.976562 C 299.65625 197.945312 302.007812 197.941406 304.257812 198.019531 C 306.769531 198.117188 309.355469 198.277344 311.855469 198.441406 C 321.605469 199.058594 331.6875 199.703125 341.082031 196.316406 C 358.609375 190.011719 368.058594 171.257812 369.644531 155.464844 C 371.460938 137.328125 365.355469 119.234375 359.835938 105.507812 " fill-opacity="1" fill-rule="nonzero"/></g><path fill="#f5fcfd" d="M 116.730469 79.707031 C 123.742188 67.566406 124.402344 54.8125 118.207031 51.242188 C 112.007812 47.664062 101.300781 54.609375 94.292969 66.75 C 87.277344 78.894531 86.617188 91.640625 92.820312 95.21875 C 99.015625 98.796875 109.722656 91.855469 116.730469 79.707031 Z M 123.578125 114.457031 C 123.933594 112.882812 121.492188 113.136719 120.90625 114.007812 C 117.332031 119.335938 112.710938 127.878906 105.53125 121.660156 C 100.9375 117.675781 99.453125 110.835938 101.484375 105.191406 C 102.019531 103.683594 99.601562 103.230469 99.015625 104.46875 C 95.488281 111.898438 97.421875 121.761719 104.78125 126.1875 C 113.796875 131.601562 121.726562 122.753906 123.578125 114.457031 Z M 171.105469 103.65625 C 179.34375 89.390625 180.121094 74.414062 172.839844 70.210938 C 165.558594 66.007812 152.976562 74.164062 144.742188 88.433594 C 136.503906 102.699219 135.722656 117.675781 143.003906 121.878906 C 150.289062 126.082031 162.867188 117.925781 171.105469 103.65625 Z M 185.625 180.175781 C 186.644531 181.730469 189.695312 180.566406 188.894531 178.6875 C 184.046875 167.300781 176.367188 157.015625 168.335938 147.679688 C 162.28125 140.632812 153.957031 129.714844 143.242188 132.558594 C 131.449219 135.683594 133.484375 150.027344 134.933594 159.019531 C 135.996094 165.65625 137.0625 172.292969 138.195312 178.921875 C 139.265625 185.25 139.589844 192.9375 142.324219 198.765625 C 142.65625 199.460938 144.132812 199.382812 144.234375 198.542969 C 144.867188 193.324219 143.390625 187.519531 142.632812 182.347656 C 141.832031 176.863281 141.023438 171.375 140.164062 165.894531 C 139.304688 160.34375 138.027344 154.671875 137.738281 149.046875 C 137.464844 143.730469 139.0625 135.871094 145.703125 135.476562 C 150.914062 135.164062 155.128906 139.347656 158.429688 142.839844 C 161.976562 146.601562 165.332031 150.5625 168.496094 154.648438 C 174.808594 162.773438 179.980469 171.59375 185.625 180.175781 Z M 275.617188 274.003906 C 275.828125 272.265625 273.007812 272.4375 272.617188 273.875 C 266.804688 295.496094 254.21875 315.167969 234.753906 326.832031 C 213.488281 339.574219 187.027344 340.917969 164.011719 332.289062 C 162.882812 331.863281 161.242188 333.566406 162.660156 334.21875 C 198.953125 350.707031 243.453125 336.898438 264.695312 303.359375 C 270.367188 294.40625 274.335938 284.566406 275.617188 274.003906 Z M 356.464844 106.867188 C 361.828125 120.203125 367.765625 137.753906 366.03125 155.105469 C 364.554688 169.757812 355.890625 187.125 339.859375 192.898438 C 331.164062 196.023438 321.464844 195.40625 312.082031 194.808594 C 309.5625 194.648438 306.949219 194.488281 304.390625 194.390625 C 301.722656 194.289062 298.660156 194.308594 296.058594 195.84375 C 290.074219 199.382812 290.648438 207.332031 291.820312 213.871094 C 296.886719 242.214844 294.558594 269.28125 285.085938 292.144531 C 274.5 317.683594 254.167969 338 230.695312 346.503906 C 218.6875 350.847656 204.488281 352.777344 187.285156 352.40625 C 138.671875 351.359375 91.300781 333.671875 53.882812 302.601562 C 34.25 286.300781 21.230469 265.519531 12.90625 237.203125 C 5.285156 211.292969 5.933594 185.328125 14.632812 167.765625 C 14.808594 167.40625 14.859375 166.984375 14.777344 166.589844 C 9.5625 141.382812 9.320312 114.722656 14.082031 89.492188 C 14.496094 87.304688 15.085938 84.871094 16.710938 83.863281 C 17.261719 83.519531 17.871094 83.375 18.511719 83.375 C 20.839844 83.375 23.585938 85.378906 25.6875 87.304688 C 29.4375 90.742188 33.191406 94.183594 36.941406 97.613281 C 29.046875 111.121094 23.152344 125.945312 19.089844 140.558594 C 18.730469 141.867188 21.089844 141.890625 21.464844 140.75 C 25.640625 128.132812 31.039062 115.890625 37.527344 104.292969 C 40.722656 98.570312 44.28125 93.117188 47.992188 87.765625 C 67.820312 62.097656 88.640625 44.375 111.382812 33.769531 C 127.457031 26.265625 145.8125 22.597656 163.046875 23.429688 C 181.554688 24.324219 198.226562 30.234375 211.261719 40.515625 C 233.289062 57.910156 244.246094 88.046875 238.539062 115.515625 C 236.257812 126.511719 231.480469 137.039062 226.875 147.226562 C 225.203125 150.921875 223.464844 154.742188 221.871094 158.542969 C 216.949219 170.308594 210.851562 187.914062 214.78125 204.925781 C 216.414062 212.007812 219.910156 216.867188 224.628906 218.625 C 231.835938 221.316406 239.675781 215.996094 242.804688 209.519531 C 245.4375 204.070312 245.738281 198.027344 246.03125 192.179688 C 246.078125 191.3125 246.121094 190.449219 246.164062 189.59375 C 246.761719 179.546875 249.742188 161.71875 263.050781 155.132812 C 272.050781 150.671875 282.175781 152.835938 292.890625 155.125 C 302.132812 157.101562 311.691406 159.148438 320.855469 156.785156 C 336.191406 152.839844 346.425781 135.867188 342.75 120.46875 C 341.8125 116.515625 340.097656 112.855469 338.433594 109.3125 C 337.074219 106.40625 335.789062 103.65625 334.875 100.742188 C 333.046875 94.878906 333.398438 87.011719 338.496094 83.578125 C 339.476562 82.921875 340.613281 82.433594 341.828125 81.902344 C 343.980469 80.96875 346.214844 79.996094 347.847656 77.996094 C 349.730469 75.664062 350.195312 72.621094 350.601562 69.9375 C 351.039062 67.050781 351.417969 64.550781 353.238281 63.3125 C 354.460938 62.472656 355.816406 62.695312 356.734375 63.03125 C 358.632812 63.714844 360.253906 65.414062 360.785156 67.25 C 361.90625 71.203125 359.9375 75.664062 358.351562 78.675781 C 358.007812 79.347656 357.640625 80.007812 357.273438 80.675781 C 355.425781 84.046875 353.523438 87.546875 353.054688 91.558594 C 352.4375 96.828125 354.40625 101.738281 356.3125 106.484375 L 356.464844 106.867188 " fill-opacity="1" fill-rule="nonzero"/><g clip-path="url(#ed45da751a)"><path fill="#dbc9e8" d="M 94.292969 66.75 C 87.277344 78.894531 86.617188 91.640625 92.820312 95.21875 C 99.015625 98.796875 109.722656 91.855469 116.730469 79.707031 C 123.742188 67.566406 124.402344 54.8125 118.207031 51.242188 C 112.007812 47.664062 101.300781 54.609375 94.292969 66.75 Z M 105.53125 121.660156 C 100.9375 117.675781 99.453125 110.835938 101.484375 105.191406 C 102.019531 103.683594 99.601562 103.230469 99.015625 104.46875 C 95.488281 111.898438 97.421875 121.761719 104.78125 126.1875 C 113.796875 131.601562 121.726562 122.753906 123.578125 114.457031 C 123.933594 112.882812 121.492188 113.136719 120.90625 114.007812 C 117.332031 119.335938 112.710938 127.878906 105.53125 121.660156 Z M 144.742188 88.433594 C 136.503906 102.699219 135.722656 117.675781 143.003906 121.878906 C 150.289062 126.082031 162.867188 117.925781 171.105469 103.65625 C 179.34375 89.390625 180.121094 74.414062 172.839844 70.210938 C 165.558594 66.007812 152.976562 74.164062 144.742188 88.433594 Z M 168.335938 147.679688 C 162.28125 140.632812 153.957031 129.714844 143.242188 132.558594 C 131.449219 135.683594 133.484375 150.027344 134.933594 159.019531 C 135.996094 165.65625 137.0625 172.292969 138.195312 178.921875 C 139.265625 185.25 139.589844 192.9375 142.324219 198.765625 C 142.65625 199.460938 144.132812 199.382812 144.234375 198.542969 C 144.867188 193.324219 143.390625 187.519531 142.632812 182.347656 C 141.832031 176.863281 141.023438 171.375 140.164062 165.894531 C 139.304688 160.34375 138.027344 154.671875 137.738281 149.046875 C 137.464844 143.730469 139.0625 135.871094 145.703125 135.476562 C 150.914062 135.164062 155.128906 139.347656 158.429688 142.839844 C 161.976562 146.601562 165.332031 150.5625 168.496094 154.648438 C 174.808594 162.773438 179.980469 171.59375 185.625 180.175781 C 186.644531 181.730469 189.695312 180.566406 188.894531 178.6875 C 184.046875 167.300781 176.367188 157.015625 168.335938 147.679688 Z M 234.753906 326.832031 C 213.488281 339.574219 187.027344 340.917969 164.011719 332.289062 C 162.882812 331.863281 161.242188 333.566406 162.660156 334.21875 C 198.953125 350.707031 243.453125 336.898438 264.695312 303.359375 C 270.367188 294.40625 274.335938 284.566406 275.617188 274.003906 C 275.828125 272.265625 273.007812 272.4375 272.617188 273.875 C 266.804688 295.496094 254.21875 315.167969 234.753906 326.832031 Z M 366.03125 155.105469 C 367.765625 137.753906 361.828125 120.203125 356.464844 106.867188 L 356.3125 106.484375 C 354.40625 101.738281 352.4375 96.828125 353.054688 91.558594 C 353.523438 87.546875 355.425781 84.046875 357.273438 80.675781 C 357.640625 80.007812 358.007812 79.347656 358.351562 78.675781 C 359.9375 75.664062 361.90625 71.203125 360.785156 67.25 C 360.253906 65.414062 358.632812 63.714844 356.734375 63.03125 C 355.816406 62.695312 354.460938 62.472656 353.238281 63.3125 C 351.417969 64.550781 351.039062 67.050781 350.601562 69.9375 C 350.195312 72.621094 349.730469 75.664062 347.847656 77.996094 C 346.214844 79.996094 343.980469 80.96875 341.828125 81.902344 C 340.613281 82.433594 339.476562 82.921875 338.496094 83.578125 C 333.398438 87.011719 333.046875 94.878906 334.875 100.742188 C 335.789062 103.65625 337.074219 106.40625 338.433594 109.3125 C 340.097656 112.855469 341.8125 116.515625 342.75 120.46875 C 346.425781 135.867188 336.191406 152.839844 320.855469 156.785156 C 311.691406 159.148438 302.132812 157.101562 292.890625 155.125 C 282.175781 152.835938 272.050781 150.671875 263.050781 155.132812 C 249.742188 161.71875 246.761719 179.546875 246.164062 189.59375 C 246.121094 190.449219 246.078125 191.3125 246.03125 192.179688 C 245.738281 198.027344 245.4375 204.070312 242.804688 209.519531 C 239.675781 215.996094 231.835938 221.316406 224.628906 218.625 C 219.910156 216.867188 216.414062 212.007812 214.78125 204.925781 C 210.851562 187.914062 216.949219 170.308594 221.871094 158.542969 C 223.464844 154.742188 225.203125 150.921875 226.875 147.226562 C 231.480469 137.039062 236.257812 126.511719 238.539062 115.515625 C 244.246094 88.046875 233.289062 57.910156 211.261719 40.515625 C 198.226562 30.234375 181.554688 24.324219 163.046875 23.429688 C 145.8125 22.597656 127.457031 26.265625 111.382812 33.769531 C 88.640625 44.375 67.820312 62.097656 47.992188 87.765625 C 44.28125 93.117188 40.722656 98.570312 37.527344 104.292969 C 31.039062 115.890625 25.640625 128.132812 21.464844 140.75 C 21.089844 141.890625 18.730469 141.867188 19.089844 140.558594 C 23.152344 125.945312 29.046875 111.121094 36.941406 97.613281 C 33.191406 94.183594 29.4375 90.742188 25.6875 87.304688 C 23.585938 85.378906 20.839844 83.375 18.511719 83.375 C 17.871094 83.375 17.261719 83.519531 16.710938 83.863281 C 15.085938 84.871094 14.496094 87.304688 14.082031 89.492188 C 9.320312 114.722656 9.5625 141.382812 14.777344 166.589844 C 14.859375 166.984375 14.808594 167.40625 14.632812 167.765625 C 5.933594 185.328125 5.285156 211.292969 12.90625 237.203125 C 21.230469 265.519531 34.25 286.300781 53.882812 302.601562 C 91.300781 333.671875 138.671875 351.359375 187.285156 352.40625 C 204.488281 352.777344 218.6875 350.847656 230.695312 346.503906 C 254.167969 338 274.5 317.683594 285.085938 292.144531 C 294.558594 269.28125 296.886719 242.214844 291.820312 213.871094 C 290.648438 207.332031 290.074219 199.382812 296.058594 195.84375 C 298.660156 194.308594 301.722656 194.289062 304.390625 194.390625 C 306.949219 194.488281 309.5625 194.648438 312.082031 194.808594 C 321.464844 195.40625 331.164062 196.023438 339.859375 192.898438 C 355.890625 187.125 364.554688 169.757812 366.03125 155.105469 Z M 359.835938 105.507812 C 365.355469 119.234375 371.460938 137.328125 369.644531 155.464844 C 368.058594 171.257812 358.609375 190.011719 341.082031 196.316406 C 331.6875 199.703125 321.605469 199.058594 311.855469 198.441406 C 309.355469 198.277344 306.769531 198.117188 304.257812 198.019531 C 302.007812 197.941406 299.65625 197.945312 297.902344 198.976562 C 293.851562 201.371094 294.433594 207.851562 295.394531 213.230469 C 300.585938 242.257812 298.179688 270.03125 288.441406 293.53125 C 277.472656 320.003906 256.347656 341.082031 231.9375 349.917969 C 220.507812 354.058594 207.21875 356.085938 191.445312 356.085938 C 190.050781 356.085938 188.636719 356.0625 187.210938 356.035156 C 137.78125 354.976562 89.601562 336.992188 51.554688 305.402344 C 31.347656 288.617188 17.953125 267.277344 9.414062 238.230469 C 1.625 211.734375 2.265625 185.066406 11.097656 166.722656 C 5.902344 141.226562 5.695312 114.308594 10.507812 88.816406 C 10.921875 86.679688 11.679688 82.710938 14.800781 80.777344 C 17.285156 79.234375 21.617188 78.644531 28.144531 84.621094 C 31.640625 87.832031 35.144531 91.039062 38.644531 94.242188 C 39.527344 93.007812 40.417969 91.792969 41.304688 90.585938 C 46.023438 83.46875 51.339844 76.816406 57.300781 70.894531 C 73.847656 52.5 91.195312 39.167969 109.84375 30.46875 C 126.453125 22.730469 145.410156 18.9375 163.222656 19.796875 C 182.488281 20.726562 199.878906 26.902344 213.515625 37.664062 C 236.597656 55.886719 248.082031 87.464844 242.101562 116.257812 C 239.734375 127.640625 234.878906 138.363281 230.183594 148.726562 C 228.523438 152.402344 226.804688 156.191406 225.230469 159.949219 C 220.496094 171.25 214.632812 188.121094 218.320312 204.113281 C 219.101562 207.492188 221.125 213.449219 225.890625 215.214844 C 231.019531 217.136719 237.082031 212.996094 239.53125 207.9375 C 241.84375 203.160156 242.121094 197.484375 242.402344 192 C 242.445312 191.121094 242.488281 190.246094 242.535156 189.371094 C 243.179688 178.546875 246.488281 159.269531 261.4375 151.871094 C 271.574219 146.851562 282.792969 149.253906 293.648438 151.566406 C 302.488281 153.457031 311.613281 155.410156 319.953125 153.269531 C 333.207031 149.855469 342.394531 134.621094 339.21875 121.304688 C 338.367188 117.722656 336.800781 114.386719 335.148438 110.855469 C 333.789062 107.960938 332.382812 104.96875 331.410156 101.828125 C 329.113281 94.484375 329.792969 85.054688 336.476562 80.558594 C 337.726562 79.71875 339.070312 79.140625 340.371094 78.574219 C 342.21875 77.773438 343.953125 77.015625 345.023438 75.699219 C 346.289062 74.140625 346.640625 71.832031 347.007812 69.394531 C 347.5 66.136719 348.058594 62.445312 351.1875 60.304688 C 353.128906 58.980469 355.539062 58.734375 357.96875 59.613281 C 360.960938 60.6875 363.4375 63.296875 364.28125 66.257812 C 365.765625 71.464844 363.445312 76.804688 361.570312 80.367188 C 361.210938 81.050781 360.835938 81.734375 360.46875 82.417969 C 358.714844 85.628906 357.050781 88.664062 356.664062 91.984375 C 356.15625 96.335938 357.949219 100.808594 359.683594 105.132812 L 359.835938 105.507812 " fill-opacity="1" fill-rule="nonzero"/></g></svg>