<svg xmlns="http://www.w3.org/2000/svg" xmlns:xlink="http://www.w3.org/1999/xlink" width="500" zoomAndPan="magnify" viewBox="0 0 375 374.999991" height="500" preserveAspectRatio="xMidYMid meet" version="1.0"><defs><clipPath id="6202ae11bb"><path d="M 111.304688 4.75 L 263.363281 4.75 L 263.363281 369.96875 L 111.304688 369.96875 Z M 111.304688 4.75 " clip-rule="nonzero"/></clipPath></defs><rect x="-37.5" width="450" fill="#ffffff" y="-37.499999" height="449.999989" fill-opacity="1"/><rect x="-37.5" width="450" fill="#ffffff" y="-37.499999" height="449.999989" fill-opacity="1"/><g clip-path="url(#6202ae11bb)"><path fill="#fefde8" d="M 262.949219 163.6875 C 262.839844 162.351562 262.714844 161.019531 262.558594 159.6875 C 262.132812 155.96875 261.53125 152.265625 260.71875 148.5625 C 260.289062 146.640625 259.808594 144.742188 259.265625 142.871094 C 258.859375 141.480469 258.417969 140.097656 257.933594 138.734375 C 255.914062 132.878906 253.292969 127.347656 250.1875 122.292969 C 249.480469 121.152344 248.761719 120.035156 248.015625 118.949219 C 244.359375 113.617188 240.128906 108.894531 235.46875 104.96875 C 234.539062 104.183594 233.589844 103.429688 232.625 102.722656 C 232.351562 102.507812 232.070312 102.296875 231.789062 102.101562 C 230.984375 101.523438 230.164062 100.964844 229.339844 100.4375 C 229.628906 99.773438 229.910156 99.109375 230.195312 98.453125 C 232.835938 92.132812 234.765625 85.839844 235.996094 79.628906 C 236.261719 78.253906 236.5 76.875 236.703125 75.503906 C 237.085938 72.871094 237.339844 70.25 237.464844 67.648438 C 237.621094 64.292969 237.554688 60.96875 237.257812 57.714844 C 237.144531 56.40625 236.996094 55.109375 236.804688 53.828125 C 234.902344 40.601562 229.324219 28.644531 220.746094 19.789062 C 218.042969 16.621094 215.066406 13.921875 211.816406 11.71875 C 211.265625 11.339844 210.699219 10.980469 210.128906 10.640625 C 208.082031 9.386719 205.933594 8.324219 203.703125 7.460938 C 198.597656 5.480469 193.09375 4.578125 187.332031 4.777344 C 181.570312 4.578125 176.070312 5.480469 170.96875 7.460938 C 168.746094 8.324219 166.613281 9.375 164.574219 10.617188 C 163.980469 10.96875 163.390625 11.34375 162.820312 11.742188 C 159.585938 13.929688 156.605469 16.625 153.921875 19.789062 C 145.105469 28.890625 139.457031 41.265625 137.703125 54.929688 C 137.570312 55.988281 137.453125 57.050781 137.371094 58.132812 C 137.113281 61.25 137.050781 64.429688 137.199219 67.648438 C 137.339844 70.636719 137.660156 73.644531 138.152344 76.675781 C 138.328125 77.800781 138.527344 78.929688 138.761719 80.0625 C 139.296875 82.726562 139.964844 85.410156 140.769531 88.097656 C 141.898438 91.882812 143.28125 95.6875 144.925781 99.496094 C 144.894531 99.503906 144.871094 99.496094 144.847656 99.492188 C 145 99.808594 145.152344 100.128906 145.300781 100.449219 C 144.335938 101.070312 143.394531 101.722656 142.457031 102.40625 C 139.175781 104.808594 136.078125 107.589844 133.214844 110.703125 C 132.5 111.464844 131.816406 112.253906 131.140625 113.050781 C 127.75 117.070312 124.714844 121.5625 122.121094 126.417969 C 121.714844 127.160156 121.324219 127.914062 120.945312 128.675781 C 117.875 134.839844 115.496094 141.539062 113.949219 148.554688 C 113.007812 152.824219 112.34375 157.109375 111.921875 161.402344 C 111.824219 162.335938 111.742188 163.277344 111.675781 164.214844 C 111.085938 172.019531 111.238281 179.824219 111.851562 187.550781 C 111.933594 188.542969 112.023438 189.53125 112.121094 190.523438 C 112.902344 198.753906 114.171875 206.882812 115.601562 214.816406 C 115.667969 215.207031 115.742188 215.59375 115.808594 215.984375 C 115.929688 216.640625 116.046875 217.289062 116.167969 217.941406 C 117.683594 226.160156 119.378906 234.351562 121.242188 242.507812 C 121.488281 243.59375 121.742188 244.683594 122.003906 245.769531 C 123.945312 254.027344 126.0625 262.25 128.359375 270.417969 C 128.675781 271.546875 128.996094 272.679688 129.324219 273.804688 C 131.6875 282.054688 134.238281 290.261719 136.96875 298.394531 C 137.355469 299.5625 137.75 300.730469 138.144531 301.890625 C 140.367188 308.378906 142.699219 314.828125 145.140625 321.214844 C 145.777344 322.890625 146.441406 324.597656 147.125 326.308594 C 147.609375 327.496094 148.097656 328.695312 148.605469 329.890625 C 153.117188 340.53125 158.921875 351.34375 167.914062 359.28125 C 168.386719 359.714844 168.886719 360.132812 169.382812 360.542969 C 169.605469 360.71875 169.832031 360.898438 170.054688 361.078125 C 174.855469 364.851562 180.46875 367.816406 186.75 369.871094 C 186.9375 369.941406 187.140625 369.96875 187.332031 369.96875 C 187.527344 369.96875 187.726562 369.941406 187.914062 369.871094 C 194.164062 367.824219 199.761719 364.875 204.558594 361.113281 C 204.804688 360.929688 205.042969 360.734375 205.28125 360.542969 C 205.785156 360.125 206.285156 359.707031 206.765625 359.269531 C 215.847656 351.25 221.683594 340.289062 226.210938 329.535156 C 226.804688 328.121094 227.382812 326.703125 227.941406 325.3125 C 228.484375 323.933594 229.011719 322.566406 229.523438 321.214844 C 232.023438 314.679688 234.410156 308.082031 236.667969 301.4375 C 237.15625 300.015625 237.636719 298.59375 238.113281 297.164062 C 240.738281 289.261719 243.199219 281.304688 245.488281 273.289062 C 245.90625 271.851562 246.316406 270.410156 246.707031 268.96875 C 248.898438 261.09375 250.933594 253.171875 252.796875 245.210938 C 253.132812 243.78125 253.460938 242.34375 253.785156 240.90625 C 255.554688 233.09375 257.160156 225.246094 258.601562 217.375 C 258.683594 216.914062 258.773438 216.445312 258.859375 215.984375 C 259.035156 215.007812 259.207031 214.03125 259.378906 213.050781 C 260.707031 205.5 261.875 197.773438 262.597656 189.964844 C 262.730469 188.558594 262.847656 187.144531 262.949219 185.726562 C 263.457031 178.421875 263.539062 171.050781 262.949219 163.6875 " fill-opacity="1" fill-rule="nonzero"/><path fill="#e2c5b0" d="M 259.121094 186.964844 C 257.398438 187.507812 255.667969 188.027344 253.917969 188.527344 C 239.964844 192.496094 225.699219 195.28125 211.265625 196.816406 C 182.605469 199.859375 153.371094 198.007812 125.347656 191.207031 C 122.113281 190.425781 118.894531 189.578125 115.691406 188.667969 C 115.003906 180.9375 114.789062 173.136719 115.316406 165.355469 C 125.855469 168.546875 136.601562 171 147.484375 172.710938 C 149.214844 172.988281 150.953125 173.238281 152.691406 173.46875 C 159.792969 174.445312 166.945312 175.101562 174.113281 175.445312 C 175.90625 175.535156 177.691406 175.601562 179.480469 175.652344 C 186.984375 175.855469 194.5 175.722656 201.992188 175.242188 C 203.636719 175.140625 205.273438 175.019531 206.914062 174.886719 C 215.488281 174.171875 224.023438 173.015625 232.476562 171.429688 C 233.757812 171.1875 235.035156 170.9375 236.304688 170.671875 C 240.550781 169.808594 244.777344 168.824219 248.96875 167.734375 C 252.410156 166.84375 255.867188 165.875 259.308594 164.824219 C 259.84375 172.203125 259.699219 179.613281 259.121094 186.964844 Z M 255.382812 214.269531 C 254.898438 214.410156 254.410156 214.554688 253.917969 214.695312 C 239.964844 218.671875 225.699219 221.449219 211.265625 222.984375 C 182.605469 226.027344 153.371094 224.175781 125.347656 217.375 C 123.421875 216.90625 121.5 216.414062 119.578125 215.910156 C 119.539062 215.714844 119.503906 215.511719 119.464844 215.320312 C 118.070312 207.605469 116.796875 199.703125 115.980469 191.714844 C 158.953125 204.589844 205.519531 205.207031 248.96875 193.902344 C 252.226562 193.054688 255.488281 192.148438 258.746094 191.164062 C 257.964844 198.984375 256.742188 206.710938 255.382812 214.269531 Z M 249.710938 242.023438 C 237.101562 245.378906 224.25 247.769531 211.265625 249.148438 C 182.605469 252.195312 153.371094 250.339844 125.347656 243.542969 C 125.332031 243.542969 125.316406 243.535156 125.304688 243.527344 C 123.414062 235.417969 121.695312 227.269531 120.164062 219.097656 C 161.957031 230.792969 206.925781 231.011719 248.96875 220.070312 C 250.84375 219.589844 252.722656 219.074219 254.601562 218.542969 C 253.140625 226.402344 251.5 234.226562 249.710938 242.023438 Z M 242.566406 269.984375 C 232.253906 272.410156 221.808594 274.199219 211.265625 275.316406 C 185.027344 278.101562 158.308594 276.789062 132.476562 271.324219 C 130.164062 263.207031 128.03125 255.039062 126.074219 246.835938 C 166.097656 256.941406 208.714844 256.667969 248.714844 246.3125 C 246.835938 254.242188 244.78125 262.136719 242.566406 269.984375 Z M 233.894531 298.035156 C 226.410156 299.523438 218.863281 300.679688 211.265625 301.480469 C 187.949219 303.964844 164.253906 303.203125 141.148438 299.160156 C 138.414062 291.089844 135.84375 282.949219 133.457031 274.75 C 168.84375 282.492188 205.980469 282.273438 241.339844 274.257812 C 239.035156 282.242188 236.554688 290.171875 233.894531 298.035156 Z M 226.054688 319.890625 C 225.289062 321.902344 224.492188 323.949219 223.644531 326.019531 C 219.53125 326.667969 215.40625 327.210938 211.265625 327.648438 C 207.6875 328.03125 204.105469 328.335938 200.503906 328.558594 C 199.476562 328.625 198.433594 328.683594 197.390625 328.738281 C 190.699219 329.082031 183.996094 329.160156 177.296875 328.96875 C 176.207031 328.9375 175.117188 328.898438 174.03125 328.855469 C 166.457031 328.542969 158.894531 327.898438 151.386719 326.90625 C 150.40625 324.539062 149.488281 322.191406 148.613281 319.890625 C 146.433594 314.195312 144.351562 308.453125 142.359375 302.683594 C 172.054688 308.035156 202.769531 307.863281 232.445312 302.273438 C 230.417969 308.183594 228.277344 314.058594 226.054688 319.890625 Z M 205.363281 355.507812 C 203.859375 351.1875 202.691406 346.757812 201.875 342.238281 C 201.28125 338.9375 200.933594 335.632812 200.710938 332.328125 C 207.792969 331.917969 214.855469 331.210938 221.882812 330.199219 C 217.847656 339.414062 212.746094 348.589844 205.363281 355.507812 Z M 202.929688 357.652344 C 198.480469 361.285156 193.238281 364.136719 187.332031 366.140625 C 181.429688 364.136719 176.1875 361.285156 171.734375 357.652344 C 171.691406 357.617188 171.636719 357.570312 171.59375 357.535156 C 174.8125 349.65625 176.933594 341.089844 177.265625 332.589844 C 183.980469 332.832031 190.699219 332.804688 197.40625 332.5 C 197.707031 341.046875 199.792969 349.65625 203.019531 357.578125 C 202.988281 357.601562 202.960938 357.628906 202.929688 357.652344 Z M 169.273438 355.476562 C 161.996094 348.640625 156.9375 339.617188 152.921875 330.507812 C 159.835938 331.453125 166.789062 332.097656 173.761719 332.4375 C 173.085938 340.308594 171.765625 347.957031 169.273438 355.476562 Z M 117.578125 149.359375 C 118.804688 143.8125 120.570312 138.480469 122.800781 133.46875 C 127.972656 146.171875 135.167969 158.25 144.0625 168.816406 C 137.78125 167.804688 131.535156 166.539062 125.347656 165.042969 C 122.066406 164.246094 118.804688 163.386719 115.554688 162.464844 C 115.957031 158.078125 116.621094 153.707031 117.578125 149.359375 Z M 132.917969 116.738281 C 137.75 126.5 143.273438 135.917969 149.410156 144.914062 C 155.734375 154.183594 162.679688 163.367188 170.457031 171.667969 C 163.28125 171.28125 156.121094 170.582031 149.011719 169.570312 C 138.648438 158.175781 130.136719 145.308594 123.972656 130.941406 C 126.480469 125.777344 129.496094 120.988281 132.917969 116.738281 Z M 146.953125 103.832031 C 153.832031 117.613281 162.113281 130.667969 171.570312 142.824219 C 179.46875 152.972656 188.246094 162.910156 197.957031 171.699219 C 190.679688 172.09375 183.386719 172.167969 176.105469 171.921875 C 167.59375 162.480469 159.328125 152.882812 152.015625 142.359375 C 145.757812 133.34375 140.105469 123.9375 135.027344 114.234375 C 138.632812 110.152344 142.640625 106.636719 146.953125 103.832031 Z M 142.71875 80.796875 C 172.164062 86.058594 202.597656 85.890625 232.03125 80.40625 C 230.703125 86.601562 228.628906 92.894531 225.808594 99.214844 C 220.984375 100.019531 216.136719 100.679688 211.265625 101.195312 C 199.078125 102.492188 186.789062 102.898438 174.53125 102.40625 C 173.175781 102.363281 171.816406 102.296875 170.464844 102.214844 C 163.378906 101.835938 156.300781 101.144531 149.273438 100.144531 C 146.304688 93.644531 144.121094 87.175781 142.71875 80.796875 Z M 140.910156 67.476562 C 140.777344 64.566406 140.820312 61.683594 141.042969 58.847656 C 152.410156 60.953125 163.933594 62.257812 175.488281 62.75 C 176.746094 62.800781 177.996094 62.84375 179.253906 62.882812 C 184.609375 63.03125 189.988281 63.007812 195.347656 62.808594 C 196.601562 62.765625 197.867188 62.710938 199.125 62.644531 C 210.695312 62.046875 222.222656 60.648438 233.601562 58.453125 C 233.839844 61.410156 233.890625 64.425781 233.746094 67.476562 C 233.613281 70.386719 233.304688 73.332031 232.8125 76.300781 C 225.683594 77.6875 218.492188 78.765625 211.265625 79.535156 C 188.246094 81.976562 164.863281 81.269531 142.03125 77.367188 C 141.4375 74.039062 141.0625 70.738281 140.910156 67.476562 Z M 156.628906 22.34375 C 156.65625 22.304688 156.6875 22.277344 156.710938 22.246094 C 159.101562 19.425781 161.742188 17.011719 164.597656 15.03125 C 168.046875 21.699219 170.8125 28.71875 172.664062 36.007812 C 173.90625 40.917969 174.804688 45.917969 175.257812 50.96875 C 175.488281 53.523438 175.324219 56.351562 175.332031 59.132812 C 163.949219 58.726562 152.589844 57.550781 141.371094 55.59375 C 142.988281 42.636719 148.308594 30.90625 156.628906 22.34375 Z M 172.304688 10.929688 C 176.515625 9.296875 181.027344 8.472656 185.75 8.472656 C 186.253906 8.472656 186.761719 8.480469 187.265625 8.5 C 187.308594 8.5 187.355469 8.5 187.398438 8.5 C 192.671875 8.300781 197.707031 9.125 202.359375 10.929688 C 204.351562 11.703125 206.269531 12.644531 208.097656 13.761719 C 203.890625 20.542969 200.710938 27.886719 198.523438 35.628906 C 197.03125 40.917969 196.054688 46.34375 195.570312 51.820312 C 195.375 54.003906 195.105469 56.554688 195.105469 59.070312 C 189.917969 59.292969 184.730469 59.351562 179.539062 59.25 C 179.578125 56.582031 179.289062 53.859375 179.074219 51.417969 C 178.597656 45.980469 177.636719 40.558594 176.128906 35.308594 C 173.945312 27.65625 170.785156 20.414062 166.613281 13.726562 C 168.425781 12.625 170.332031 11.695312 172.304688 10.929688 Z M 217.957031 22.246094 C 217.976562 22.277344 218.007812 22.304688 218.039062 22.34375 C 226.148438 30.675781 231.398438 42.019531 233.160156 54.582031 C 225.921875 55.996094 218.609375 57.097656 211.265625 57.878906 C 207.289062 58.304688 203.292969 58.628906 199.292969 58.863281 C 199.316406 56.054688 199.191406 53.207031 199.429688 50.574219 C 199.882812 45.546875 200.777344 40.574219 202.015625 35.6875 C 203.839844 28.496094 206.597656 21.570312 210.023438 15.003906 C 212.890625 16.992188 215.550781 19.410156 217.957031 22.246094 Z M 231.078125 106.222656 C 224.945312 119.433594 216.140625 131.101562 204.261719 139.828125 C 200.476562 135.695312 196.78125 131.480469 193.199219 127.183594 C 200.542969 121.054688 206.664062 113.660156 210.96875 105.0625 C 216.152344 104.546875 221.3125 103.867188 226.445312 103.027344 C 228.03125 103.996094 229.578125 105.0625 231.078125 106.222656 Z M 233.972656 108.582031 C 238.535156 112.578125 242.648438 117.414062 246.148438 122.855469 C 239.761719 135.5625 230.78125 146.765625 219.027344 155.035156 C 214.574219 150.714844 210.230469 146.289062 206.015625 141.742188 C 217.910156 133.4375 228.046875 121.902344 233.972656 108.582031 Z M 177.027344 106.117188 C 187.199219 106.496094 197.402344 106.246094 207.546875 105.378906 C 203.25 112.8125 197.988281 119.566406 191.628906 125.285156 C 189.816406 123.082031 188.039062 120.855469 186.292969 118.605469 C 183.414062 114.902344 180.648438 111.121094 177.882812 107.332031 C 177.59375 106.9375 177.304688 106.527344 177.027344 106.117188 Z M 184.007812 120.941406 C 185.695312 123.125 187.414062 125.285156 189.15625 127.421875 C 189.644531 128.027344 190.132812 128.628906 190.632812 129.234375 C 194.152344 133.496094 197.773438 137.667969 201.523438 141.742188 C 201.957031 142.21875 202.394531 142.695312 202.835938 143.164062 C 202.96875 143.3125 203.109375 143.453125 203.246094 143.601562 C 207.4375 148.085938 211.769531 152.589844 216.261719 156.976562 C 216.796875 157.507812 217.339844 158.027344 217.890625 158.546875 C 221.339844 161.871094 224.894531 165.101562 228.542969 168.191406 C 222.820312 169.210938 217.058594 170.023438 211.265625 170.640625 C 208.523438 170.933594 205.777344 171.175781 203.027344 171.371094 C 193.011719 162.234375 183.414062 152.734375 174.753906 142.070312 C 164.96875 130.027344 156.40625 117.085938 148.984375 103.488281 C 156.949219 104.703125 164.96875 105.515625 173.015625 105.9375 C 173.914062 107.195312 174.8125 108.425781 175.652344 109.632812 C 178.328125 113.480469 181.144531 117.234375 184.007812 120.941406 Z M 248.246094 126.304688 C 251.148438 131.375 253.546875 136.910156 255.332031 142.746094 C 249.28125 152.121094 242.984375 161.652344 233.523438 167.269531 C 233.199219 167.324219 232.878906 167.394531 232.558594 167.453125 C 230.300781 165.503906 228.050781 163.53125 225.859375 161.503906 C 224.15625 159.925781 222.460938 158.339844 220.789062 156.730469 C 232.195312 148.929688 241.875 138.519531 248.246094 126.304688 Z M 257.085938 149.359375 C 257.929688 153.171875 258.535156 157.003906 258.953125 160.847656 C 257.285156 161.378906 255.609375 161.882812 253.917969 162.359375 C 249.585938 163.597656 245.214844 164.714844 240.828125 165.71875 C 247.199219 160.894531 252.226562 154.28125 256.597656 147.289062 C 256.777344 147.972656 256.929688 148.667969 257.085938 149.359375 Z M 262.949219 163.6875 C 262.839844 162.351562 262.714844 161.019531 262.558594 159.6875 C 262.132812 155.96875 261.53125 152.265625 260.71875 148.5625 C 260.289062 146.640625 259.808594 144.742188 259.265625 142.871094 C 258.859375 141.480469 258.417969 140.097656 257.933594 138.734375 C 255.914062 132.878906 253.292969 127.347656 250.1875 122.292969 C 249.480469 121.152344 248.761719 120.035156 248.015625 118.949219 C 244.359375 113.617188 240.128906 108.894531 235.46875 104.96875 C 234.539062 104.183594 233.589844 103.429688 232.625 102.722656 C 232.351562 102.507812 232.070312 102.296875 231.789062 102.101562 C 230.984375 101.523438 230.164062 100.964844 229.339844 100.4375 C 229.628906 99.773438 229.910156 99.109375 230.195312 98.453125 C 232.835938 92.132812 234.765625 85.839844 235.996094 79.628906 C 236.261719 78.253906 236.5 76.875 236.703125 75.503906 C 237.085938 72.871094 237.339844 70.25 237.464844 67.648438 C 237.621094 64.292969 237.554688 60.96875 237.257812 57.714844 C 237.144531 56.40625 236.996094 55.109375 236.804688 53.828125 C 234.902344 40.601562 229.324219 28.644531 220.746094 19.789062 C 218.042969 16.621094 215.066406 13.921875 211.816406 11.71875 C 211.265625 11.339844 210.699219 10.980469 210.128906 10.640625 C 208.082031 9.386719 205.933594 8.324219 203.703125 7.460938 C 198.597656 5.480469 193.09375 4.578125 187.332031 4.777344 C 181.570312 4.578125 176.070312 5.480469 170.96875 7.460938 C 168.746094 8.324219 166.613281 9.375 164.574219 10.617188 C 163.980469 10.96875 163.390625 11.34375 162.820312 11.742188 C 159.585938 13.929688 156.605469 16.625 153.921875 19.789062 C 145.105469 28.890625 139.457031 41.265625 137.703125 54.929688 C 137.570312 55.988281 137.453125 57.050781 137.371094 58.132812 C 137.113281 61.25 137.050781 64.429688 137.199219 67.648438 C 137.339844 70.636719 137.660156 73.644531 138.152344 76.675781 C 138.328125 77.800781 138.527344 78.929688 138.761719 80.0625 C 139.296875 82.726562 139.964844 85.410156 140.769531 88.097656 C 141.898438 91.882812 143.28125 95.6875 144.925781 99.496094 C 144.894531 99.503906 144.871094 99.496094 144.847656 99.492188 C 145 99.808594 145.152344 100.128906 145.300781 100.449219 C 144.335938 101.070312 143.394531 101.722656 142.457031 102.40625 C 139.175781 104.808594 136.078125 107.589844 133.214844 110.703125 C 132.5 111.464844 131.816406 112.253906 131.140625 113.050781 C 127.75 117.070312 124.714844 121.5625 122.121094 126.417969 C 121.714844 127.160156 121.324219 127.914062 120.945312 128.675781 C 117.875 134.839844 115.496094 141.539062 113.949219 148.554688 C 113.007812 152.824219 112.34375 157.109375 111.921875 161.402344 C 111.824219 162.335938 111.742188 163.277344 111.675781 164.214844 C 111.085938 172.019531 111.238281 179.824219 111.851562 187.550781 C 111.933594 188.542969 112.023438 189.53125 112.121094 190.523438 C 112.902344 198.753906 114.171875 206.882812 115.601562 214.816406 C 115.667969 215.207031 115.742188 215.59375 115.808594 215.984375 C 115.929688 216.640625 116.046875 217.289062 116.167969 217.941406 C 117.683594 226.160156 119.378906 234.351562 121.242188 242.507812 C 121.488281 243.59375 121.742188 244.683594 122.003906 245.769531 C 123.945312 254.027344 126.0625 262.25 128.359375 270.417969 C 128.675781 271.546875 128.996094 272.679688 129.324219 273.804688 C 131.6875 282.054688 134.238281 290.261719 136.96875 298.394531 C 137.355469 299.5625 137.75 300.730469 138.144531 301.890625 C 140.367188 308.378906 142.699219 314.828125 145.140625 321.214844 C 145.777344 322.890625 146.441406 324.597656 147.125 326.308594 C 147.609375 327.496094 148.097656 328.695312 148.605469 329.890625 C 153.117188 340.53125 158.921875 351.34375 167.914062 359.28125 C 168.386719 359.714844 168.886719 360.132812 169.382812 360.542969 C 169.605469 360.71875 169.832031 360.898438 170.054688 361.078125 C 174.855469 364.851562 180.46875 367.816406 186.75 369.871094 C 186.9375 369.941406 187.140625 369.96875 187.332031 369.96875 C 187.527344 369.96875 187.726562 369.941406 187.914062 369.871094 C 194.164062 367.824219 199.761719 364.875 204.558594 361.113281 C 204.804688 360.929688 205.042969 360.734375 205.28125 360.542969 C 205.785156 360.125 206.285156 359.707031 206.765625 359.269531 C 215.847656 351.25 221.683594 340.289062 226.210938 329.535156 C 226.804688 328.121094 227.382812 326.703125 227.941406 325.3125 C 228.484375 323.933594 229.011719 322.566406 229.523438 321.214844 C 232.023438 314.679688 234.410156 308.082031 236.667969 301.4375 C 237.15625 300.015625 237.636719 298.59375 238.113281 297.164062 C 240.738281 289.261719 243.199219 281.304688 245.488281 273.289062 C 245.90625 271.851562 246.316406 270.410156 246.707031 268.96875 C 248.898438 261.09375 250.933594 253.171875 252.796875 245.210938 C 253.132812 243.78125 253.460938 242.34375 253.785156 240.90625 C 255.554688 233.09375 257.160156 225.246094 258.601562 217.375 C 258.683594 216.914062 258.773438 216.445312 258.859375 215.984375 C 259.035156 215.007812 259.207031 214.03125 259.378906 213.050781 C 260.707031 205.5 261.875 197.773438 262.597656 189.964844 C 262.730469 188.558594 262.847656 187.144531 262.949219 185.726562 C 263.457031 178.421875 263.539062 171.050781 262.949219 163.6875 " fill-opacity="1" fill-rule="nonzero"/></g><path fill="#f1e6c9" d="M 172.664062 36.007812 C 170.8125 28.71875 168.046875 21.699219 164.597656 15.03125 C 161.742188 17.011719 159.101562 19.425781 156.710938 22.246094 C 156.6875 22.277344 156.65625 22.304688 156.628906 22.34375 C 148.308594 30.90625 142.988281 42.636719 141.371094 55.59375 C 152.589844 57.550781 163.949219 58.726562 175.332031 59.132812 C 175.324219 56.351562 175.488281 53.523438 175.257812 50.96875 C 174.804688 45.917969 173.90625 40.917969 172.664062 36.007812 Z M 210.96875 105.0625 C 206.664062 113.660156 200.542969 121.054688 193.199219 127.183594 C 196.78125 131.480469 200.476562 135.695312 204.261719 139.828125 C 216.140625 131.101562 224.945312 119.433594 231.078125 106.222656 C 229.578125 105.0625 228.03125 103.996094 226.445312 103.027344 C 221.3125 103.867188 216.152344 104.546875 210.96875 105.0625 Z M 217.957031 22.246094 C 215.550781 19.410156 212.890625 16.992188 210.023438 15.003906 C 206.597656 21.570312 203.839844 28.496094 202.015625 35.6875 C 200.777344 40.574219 199.882812 45.546875 199.429688 50.574219 C 199.191406 53.207031 199.316406 56.054688 199.292969 58.863281 C 203.292969 58.628906 207.289062 58.304688 211.265625 57.878906 C 218.609375 57.097656 225.921875 55.996094 233.160156 54.582031 C 231.398438 42.019531 226.148438 30.675781 218.039062 22.34375 C 218.007812 22.304688 217.976562 22.277344 217.957031 22.246094 Z M 199.125 62.644531 C 197.867188 62.710938 196.601562 62.765625 195.347656 62.808594 C 189.988281 63.007812 184.609375 63.03125 179.253906 62.882812 C 177.996094 62.84375 176.746094 62.800781 175.488281 62.75 C 163.933594 62.257812 152.410156 60.953125 141.042969 58.847656 C 140.820312 61.683594 140.777344 64.566406 140.910156 67.476562 C 141.0625 70.738281 141.4375 74.039062 142.03125 77.367188 C 164.863281 81.269531 188.246094 81.976562 211.265625 79.535156 C 218.492188 78.765625 225.683594 77.6875 232.8125 76.300781 C 233.304688 73.332031 233.613281 70.386719 233.746094 67.476562 C 233.890625 64.425781 233.839844 61.410156 233.601562 58.453125 C 222.222656 60.648438 210.695312 62.046875 199.125 62.644531 Z M 200.710938 332.328125 C 200.933594 335.632812 201.28125 338.9375 201.875 342.238281 C 202.691406 346.757812 203.859375 351.1875 205.363281 355.507812 C 212.746094 348.589844 217.847656 339.414062 221.882812 330.199219 C 214.855469 331.210938 207.792969 331.917969 200.710938 332.328125 Z M 152.925781 330.507812 C 156.9375 339.617188 161.996094 348.640625 169.273438 355.476562 C 171.765625 347.957031 173.085938 340.308594 173.761719 332.4375 C 166.789062 332.097656 159.835938 331.453125 152.925781 330.507812 Z M 133.457031 274.75 C 135.84375 282.949219 138.414062 291.089844 141.148438 299.160156 C 164.253906 303.203125 187.949219 303.964844 211.265625 301.480469 C 218.863281 300.679688 226.410156 299.523438 233.894531 298.035156 C 236.554688 290.171875 239.035156 282.242188 241.339844 274.257812 C 205.980469 282.273438 168.84375 282.492188 133.457031 274.75 Z M 120.164062 219.097656 C 121.699219 227.269531 123.414062 235.417969 125.304688 243.527344 C 125.316406 243.535156 125.332031 243.542969 125.347656 243.542969 C 153.371094 250.339844 182.605469 252.195312 211.265625 249.148438 C 224.25 247.769531 237.101562 245.378906 249.710938 242.023438 C 251.5 234.226562 253.140625 226.402344 254.601562 218.542969 C 252.722656 219.074219 250.84375 219.589844 248.96875 220.070312 C 206.925781 231.011719 161.957031 230.792969 120.164062 219.097656 Z M 248.96875 167.734375 C 244.777344 168.824219 240.550781 169.808594 236.304688 170.671875 C 235.035156 170.9375 233.757812 171.1875 232.476562 171.429688 C 224.023438 173.015625 215.488281 174.171875 206.914062 174.886719 C 205.273438 175.019531 203.636719 175.140625 201.992188 175.242188 C 194.5 175.722656 186.984375 175.855469 179.480469 175.652344 C 177.691406 175.601562 175.90625 175.535156 174.113281 175.445312 C 166.945312 175.101562 159.792969 174.445312 152.691406 173.46875 C 150.953125 173.238281 149.214844 172.988281 147.484375 172.710938 C 136.601562 171 125.855469 168.546875 115.316406 165.355469 C 114.789062 173.136719 115.007812 180.9375 115.691406 188.667969 C 118.894531 189.578125 122.113281 190.425781 125.347656 191.207031 C 153.371094 198.007812 182.605469 199.859375 211.265625 196.816406 C 225.699219 195.28125 239.964844 192.496094 253.917969 188.527344 C 255.667969 188.027344 257.398438 187.507812 259.121094 186.964844 C 259.699219 179.613281 259.84375 172.203125 259.308594 164.824219 C 255.867188 165.875 252.410156 166.84375 248.96875 167.734375 Z M 132.917969 116.738281 C 129.496094 120.988281 126.480469 125.777344 123.972656 130.941406 C 130.136719 145.308594 138.648438 158.175781 149.011719 169.570312 C 156.121094 170.582031 163.28125 171.28125 170.457031 171.667969 C 162.679688 163.367188 155.734375 154.183594 149.410156 144.914062 C 143.273438 135.917969 137.75 126.5 132.917969 116.738281 Z M 216.261719 156.976562 C 211.769531 152.589844 207.4375 148.085938 203.246094 143.601562 C 203.109375 143.453125 202.96875 143.3125 202.835938 143.164062 C 202.394531 142.695312 201.957031 142.21875 201.523438 141.742188 C 197.773438 137.667969 194.152344 133.496094 190.632812 129.234375 C 190.132812 128.628906 189.644531 128.027344 189.15625 127.421875 C 187.414062 125.285156 185.695312 123.125 184.007812 120.941406 C 181.144531 117.234375 178.328125 113.480469 175.652344 109.632812 C 174.8125 108.425781 173.914062 107.195312 173.015625 105.9375 C 164.96875 105.515625 156.949219 104.703125 148.984375 103.488281 C 156.40625 117.085938 164.96875 130.027344 174.753906 142.070312 C 183.414062 152.734375 193.011719 162.234375 203.027344 171.371094 C 205.777344 171.175781 208.523438 170.933594 211.265625 170.640625 C 217.058594 170.023438 222.820312 169.210938 228.542969 168.191406 C 224.894531 165.101562 221.339844 161.871094 217.890625 158.546875 C 217.339844 158.027344 216.796875 157.507812 216.261719 156.976562 Z M 248.246094 126.304688 C 251.148438 131.375 253.546875 136.910156 255.332031 142.746094 C 249.28125 152.121094 242.984375 161.652344 233.523438 167.269531 C 233.199219 167.324219 232.878906 167.394531 232.558594 167.453125 C 230.300781 165.503906 228.050781 163.53125 225.859375 161.503906 C 224.15625 159.925781 222.460938 158.339844 220.789062 156.730469 C 232.195312 148.929688 241.875 138.519531 248.246094 126.304688 " fill-opacity="1" fill-rule="nonzero"/><path fill="#fefde8" d="M 117.578125 149.359375 C 116.621094 153.707031 115.957031 158.078125 115.554688 162.464844 C 118.804688 163.386719 122.070312 164.246094 125.347656 165.042969 C 131.535156 166.539062 137.78125 167.804688 144.0625 168.816406 C 135.167969 158.25 127.972656 146.171875 122.800781 133.46875 C 120.570312 138.480469 118.804688 143.8125 117.578125 149.359375 Z M 171.570312 142.824219 C 162.113281 130.667969 153.832031 117.613281 146.953125 103.832031 C 142.640625 106.636719 138.632812 110.152344 135.027344 114.234375 C 140.105469 123.9375 145.757812 133.34375 152.015625 142.359375 C 159.328125 152.882812 167.59375 162.480469 176.105469 171.921875 C 183.386719 172.167969 190.679688 172.09375 197.957031 171.699219 C 188.246094 162.910156 179.46875 152.972656 171.570312 142.824219 Z M 197.40625 332.5 C 190.699219 332.804688 183.980469 332.832031 177.265625 332.589844 C 176.933594 341.089844 174.8125 349.65625 171.59375 357.535156 C 171.636719 357.570312 171.691406 357.617188 171.734375 357.652344 C 176.1875 361.285156 181.429688 364.136719 187.332031 366.140625 C 193.238281 364.136719 198.480469 361.285156 202.929688 357.652344 C 202.960938 357.628906 202.988281 357.601562 203.019531 357.578125 C 199.792969 349.65625 197.707031 341.046875 197.40625 332.5 Z M 202.359375 10.929688 C 197.707031 9.125 192.671875 8.300781 187.398438 8.5 C 187.355469 8.5 187.3125 8.5 187.265625 8.5 C 186.761719 8.480469 186.253906 8.472656 185.75 8.472656 C 181.027344 8.472656 176.515625 9.296875 172.304688 10.929688 C 170.332031 11.695312 168.425781 12.625 166.613281 13.726562 C 170.785156 20.414062 173.945312 27.65625 176.128906 35.308594 C 177.636719 40.558594 178.597656 45.980469 179.074219 51.417969 C 179.289062 53.859375 179.578125 56.582031 179.539062 59.25 C 184.730469 59.351562 189.917969 59.292969 195.105469 59.070312 C 195.105469 56.554688 195.375 54.003906 195.570312 51.820312 C 196.054688 46.34375 197.03125 40.917969 198.523438 35.628906 C 200.710938 27.886719 203.890625 20.542969 208.097656 13.761719 C 206.269531 12.644531 204.351562 11.703125 202.359375 10.929688 Z M 142.359375 302.683594 C 144.351562 308.453125 146.433594 314.195312 148.613281 319.890625 C 149.488281 322.191406 150.40625 324.539062 151.386719 326.90625 C 158.894531 327.898438 166.457031 328.542969 174.03125 328.855469 C 175.117188 328.898438 176.207031 328.9375 177.296875 328.96875 C 183.996094 329.160156 190.699219 329.082031 197.390625 328.738281 C 198.433594 328.683594 199.476562 328.625 200.503906 328.558594 C 204.105469 328.335938 207.6875 328.03125 211.265625 327.648438 C 215.40625 327.210938 219.53125 326.667969 223.644531 326.019531 C 224.492188 323.949219 225.289062 321.902344 226.054688 319.890625 C 228.277344 314.058594 230.417969 308.183594 232.445312 302.273438 C 202.769531 307.863281 172.054688 308.035156 142.359375 302.683594 Z M 142.71875 80.796875 C 144.121094 87.175781 146.304688 93.644531 149.273438 100.144531 C 156.300781 101.144531 163.378906 101.835938 170.464844 102.214844 C 171.816406 102.296875 173.175781 102.363281 174.53125 102.40625 C 186.789062 102.898438 199.078125 102.492188 211.265625 101.195312 C 216.136719 100.679688 220.984375 100.019531 225.808594 99.214844 C 228.628906 92.894531 230.703125 86.601562 232.03125 80.40625 C 202.597656 85.890625 172.164062 86.058594 142.71875 80.796875 Z M 206.015625 141.742188 C 210.230469 146.289062 214.574219 150.714844 219.027344 155.035156 C 230.78125 146.765625 239.761719 135.5625 246.148438 122.855469 C 242.648438 117.414062 238.535156 112.578125 233.972656 108.582031 C 228.046875 121.902344 217.910156 133.4375 206.015625 141.742188 Z M 126.074219 246.835938 C 128.03125 255.039062 130.164062 263.207031 132.480469 271.324219 C 158.308594 276.789062 185.027344 278.101562 211.265625 275.316406 C 221.808594 274.199219 232.253906 272.410156 242.566406 269.984375 C 244.78125 262.136719 246.835938 254.242188 248.714844 246.3125 C 208.714844 256.667969 166.097656 256.941406 126.074219 246.835938 Z M 248.96875 193.902344 C 205.519531 205.207031 158.953125 204.589844 115.980469 191.714844 C 116.796875 199.703125 118.070312 207.605469 119.46875 215.320312 C 119.503906 215.511719 119.539062 215.714844 119.578125 215.910156 C 121.5 216.414062 123.421875 216.90625 125.347656 217.375 C 153.371094 224.175781 182.605469 226.027344 211.265625 222.984375 C 225.699219 221.449219 239.964844 218.671875 253.917969 214.695312 C 254.410156 214.554688 254.898438 214.410156 255.382812 214.269531 C 256.742188 206.710938 257.964844 198.984375 258.746094 191.164062 C 255.488281 192.148438 252.226562 193.054688 248.96875 193.902344 Z M 177.027344 106.117188 C 177.304688 106.527344 177.59375 106.9375 177.882812 107.332031 C 180.648438 111.121094 183.414062 114.902344 186.292969 118.605469 C 188.039062 120.855469 189.816406 123.082031 191.628906 125.285156 C 197.988281 119.566406 203.25 112.8125 207.546875 105.378906 C 197.402344 106.246094 187.199219 106.496094 177.027344 106.117188 Z M 257.085938 149.359375 C 257.929688 153.171875 258.535156 157.003906 258.953125 160.847656 C 257.285156 161.378906 255.609375 161.882812 253.917969 162.359375 C 249.585938 163.597656 245.214844 164.714844 240.828125 165.71875 C 247.199219 160.894531 252.226562 154.28125 256.597656 147.289062 C 256.777344 147.972656 256.929688 148.667969 257.085938 149.359375 " fill-opacity="1" fill-rule="nonzero"/></svg>