<svg xmlns="http://www.w3.org/2000/svg" xmlns:xlink="http://www.w3.org/1999/xlink" width="500" zoomAndPan="magnify" viewBox="0 0 375 374.999991" height="500" preserveAspectRatio="xMidYMid meet" version="1.0"><defs><clipPath id="968aa2ea61"><path d="M 7.941406 19.898438 L 368.691406 19.898438 L 368.691406 353.328125 L 7.941406 353.328125 Z M 7.941406 19.898438 " clip-rule="nonzero"/></clipPath><clipPath id="61fd118fc3"><path d="M 7.941406 19.898438 L 368.691406 19.898438 L 368.691406 353.328125 L 7.941406 353.328125 Z M 7.941406 19.898438 " clip-rule="nonzero"/></clipPath></defs><rect x="-37.5" width="450" fill="#ffffff" y="-37.499999" height="449.999989" fill-opacity="1"/><rect x="-37.5" width="450" fill="#ffffff" y="-37.499999" height="449.999989" fill-opacity="1"/><g clip-path="url(#968aa2ea61)"><path fill="#f9eff8" d="M 367.78125 239.179688 C 364.839844 239.765625 361.902344 240.402344 358.972656 241.085938 C 361.289062 236.09375 362.9375 230.824219 363.835938 225.445312 C 363.9375 224.816406 363.703125 224.179688 363.222656 223.761719 C 362.738281 223.34375 362.074219 223.207031 361.46875 223.40625 C 354.105469 225.773438 346.785156 228.46875 339.640625 231.417969 C 339.847656 228.566406 339.972656 225.71875 340.003906 222.863281 C 348.707031 218.078125 357.332031 213.144531 365.886719 208.078125 C 366.96875 207.4375 365.679688 206.375 364.78125 206.867188 C 356.558594 211.402344 348.304688 215.882812 340.007812 220.285156 C 339.898438 201.023438 335.839844 181.847656 328.046875 164.117188 C 334.785156 150.730469 338.808594 135.128906 339.683594 118.945312 C 341.320312 88.738281 333.402344 59.3125 325.75 30.859375 C 324.996094 28.0625 323.222656 21.53125 317.84375 20.148438 C 313.261719 18.96875 309.03125 22.304688 306.757812 24.105469 L 230.417969 84.59375 C 225.667969 82.824219 220.757812 81.339844 215.761719 80.183594 C 219.734375 75.222656 221.953125 69.105469 221.914062 62.964844 C 221.914062 62.324219 221.570312 61.722656 221.015625 61.398438 C 220.457031 61.070312 219.773438 61.058594 219.207031 61.371094 C 213.273438 64.605469 206.910156 66.875 200.257812 68.113281 C 200.84375 62.871094 200.355469 57.523438 198.804688 52.503906 C 198.585938 51.785156 197.945312 51.28125 197.199219 51.222656 C 196.445312 51.164062 195.742188 51.566406 195.417969 52.238281 C 192.886719 57.390625 188.234375 61.363281 183.742188 65.203125 C 182.816406 65.996094 181.902344 66.78125 181.003906 67.570312 C 176.789062 71.285156 173.882812 74.644531 171.957031 78.054688 C 163.011719 79.234375 154.3125 81.386719 146.0625 84.457031 C 133.546875 74.535156 121.019531 64.613281 108.503906 54.691406 C 95.636719 44.496094 82.765625 34.304688 69.898438 24.105469 C 67.621094 22.304688 63.394531 18.960938 58.820312 20.148438 C 53.429688 21.53125 51.660156 28.0625 50.90625 30.859375 C 43.25 59.3125 35.335938 88.738281 36.96875 118.945312 C 37.84375 135.128906 41.867188 150.730469 48.605469 164.117188 C 40.691406 182.132812 36.625 201.628906 36.636719 221.203125 C 28.363281 216.820312 20.132812 212.378906 11.933594 207.871094 C 11.089844 207.402344 9.65625 208.472656 10.710938 209.089844 C 19.277344 214.199219 27.929688 219.160156 36.667969 223.972656 C 36.71875 226.457031 36.828125 228.9375 37.011719 231.417969 C 29.875 228.46875 22.546875 225.773438 15.1875 223.40625 C 14.578125 223.207031 13.917969 223.34375 13.433594 223.761719 C 12.949219 224.179688 12.714844 224.816406 12.820312 225.445312 C 13.78125 231.21875 15.609375 236.859375 18.203125 242.179688 C 15.128906 241.46875 12.054688 240.804688 8.96875 240.1875 C 8.121094 240.019531 7.445312 241.199219 8.421875 241.554688 C 12.195312 242.890625 16.007812 244.140625 19.855469 245.335938 C 22.527344 250.113281 25.820312 254.570312 29.628906 258.519531 C 23.460938 256.832031 17.316406 254.859375 11.296875 252.636719 C 10.605469 252.378906 9.839844 252.558594 9.335938 253.089844 C 8.828125 253.617188 8.691406 254.390625 8.976562 255.066406 C 10.929688 259.65625 13.167969 264.140625 15.695312 268.507812 C 13.878906 268.550781 12.078125 268.675781 10.316406 268.910156 C 9.808594 268.976562 9.402344 269.667969 10.066406 269.890625 C 12.445312 270.667969 14.945312 271.191406 17.503906 271.574219 C 35.167969 300.433594 64.804688 324.015625 101.246094 337.675781 C 126.574219 347.175781 155.039062 352.289062 188.265625 353.328125 C 188.289062 353.328125 188.304688 353.328125 188.328125 353.328125 C 188.351562 353.328125 188.363281 353.328125 188.382812 353.328125 C 221.613281 352.289062 250.082031 347.175781 275.410156 337.675781 C 312.308594 323.839844 342.246094 299.832031 359.820312 270.460938 C 362.105469 270.074219 364.34375 269.570312 366.507812 268.894531 C 367.085938 268.722656 367.042969 267.996094 366.433594 267.90625 C 364.824219 267.679688 363.183594 267.558594 361.53125 267.507812 C 363.820312 263.449219 365.871094 259.304688 367.675781 255.066406 C 367.960938 254.390625 367.824219 253.617188 367.320312 253.089844 C 366.8125 252.558594 366.046875 252.378906 365.359375 252.636719 C 359.339844 254.859375 353.191406 256.832031 347.023438 258.519531 C 351.179688 254.210938 354.722656 249.296875 357.507812 244.03125 C 361.085938 242.925781 364.632812 241.769531 368.152344 240.539062 C 369.070312 240.226562 368.730469 238.992188 367.78125 239.179688 " fill-opacity="1" fill-rule="nonzero"/></g><path fill="#a9a7c6" d="M 139.324219 150.863281 C 140.578125 151.84375 143.121094 150.605469 141.847656 149.046875 C 131.5625 136.511719 110.976562 144.019531 108.691406 159.214844 C 108.472656 160.652344 110.871094 160.625 111.195312 159.394531 C 112.648438 153.855469 116.570312 149.023438 122.050781 147.078125 C 128.078125 144.933594 134.460938 147.070312 139.324219 150.863281 Z M 152.238281 197.082031 C 152.238281 183.753906 141.425781 172.9375 128.09375 172.9375 C 114.757812 172.9375 103.949219 183.753906 103.949219 197.082031 C 103.949219 210.421875 114.757812 221.230469 128.09375 221.230469 C 141.425781 221.230469 152.238281 210.421875 152.238281 197.082031 Z M 225.511719 259.039062 C 225.511719 234.226562 208.835938 214.039062 188.328125 214.039062 C 167.820312 214.039062 151.140625 234.226562 151.140625 259.039062 C 151.140625 283.851562 167.820312 304.039062 188.328125 304.039062 C 208.835938 304.039062 225.511719 283.851562 225.511719 259.039062 Z M 272.699219 196.082031 C 272.699219 182.742188 261.894531 171.9375 248.558594 171.9375 C 235.230469 171.9375 224.414062 182.742188 224.414062 196.082031 C 224.414062 209.414062 235.230469 220.230469 248.558594 220.230469 C 261.894531 220.230469 272.699219 209.414062 272.699219 196.082031 Z M 265.449219 158.484375 C 265.792969 159.761719 268.171875 159.472656 267.96875 158.113281 C 265.652344 142.484375 245.230469 135.847656 234.761719 148.257812 C 233.546875 149.699219 235.9375 150.824219 237.078125 149.90625 C 241.695312 146.1875 247.703125 144.054688 253.585938 145.835938 C 259.460938 147.613281 263.886719 152.617188 265.449219 158.484375 Z M 362.570312 257.523438 C 360.976562 260.921875 359.222656 264.257812 357.304688 267.527344 C 351.574219 267.730469 345.742188 268.542969 340.25 268.960938 C 331.261719 269.640625 322.265625 270.34375 313.277344 271.066406 C 295.945312 272.472656 278.445312 273.382812 261.265625 276.15625 C 259.878906 276.382812 259.628906 278.371094 261.242188 278.363281 C 278.523438 278.265625 295.804688 276.222656 313.003906 274.710938 C 321.492188 273.972656 329.980469 273.210938 338.464844 272.421875 C 343.847656 271.917969 349.550781 271.738281 355.121094 271.113281 C 337.792969 298.625 309.1875 321.109375 274.121094 334.253906 C 249.195312 343.597656 221.132812 348.640625 188.328125 349.671875 C 155.523438 348.640625 127.464844 343.597656 102.535156 334.253906 C 67.90625 321.273438 39.570312 299.183594 22.179688 272.136719 C 26 272.496094 29.847656 272.679688 33.492188 273.023438 C 42.535156 273.855469 51.574219 274.699219 60.625 275.488281 C 78.695312 277.074219 96.863281 279.269531 115.023438 279.375 C 116.644531 279.382812 117.195312 277.441406 115.40625 277.140625 C 97.796875 274.199219 79.800781 273.375 62.023438 271.9375 C 53.597656 271.257812 45.167969 270.605469 36.734375 269.96875 C 31.304688 269.5625 25.589844 268.777344 19.957031 268.558594 C 17.804688 264.960938 15.84375 261.273438 14.082031 257.515625 C 21.222656 260.007812 28.503906 262.136719 35.765625 263.863281 C 36.601562 264.058594 37.449219 263.65625 37.832031 262.894531 C 38.210938 262.125 38.003906 261.207031 37.347656 260.664062 C 32.5625 256.757812 28.414062 252.074219 25.070312 246.90625 C 36.703125 250.363281 48.527344 253.347656 60.144531 256.566406 C 77.410156 261.34375 94.6875 266.808594 112.253906 270.335938 C 113.628906 270.617188 115.027344 268.894531 113.316406 268.296875 C 96.167969 262.308594 78.265625 258.175781 60.734375 253.453125 C 48.191406 250.082031 35.59375 246.390625 22.914062 243.300781 C 20.21875 238.441406 18.21875 233.21875 17.015625 227.851562 C 24.238281 230.273438 31.40625 232.988281 38.371094 235.953125 C 38.964844 236.210938 39.644531 236.128906 40.171875 235.746094 C 40.691406 235.367188 40.96875 234.738281 40.910156 234.09375 C 40.652344 231.402344 40.480469 228.710938 40.382812 226.007812 C 47.625 229.960938 54.917969 233.816406 62.265625 237.578125 C 70.804688 241.945312 79.386719 246.242188 88.054688 250.34375 C 92.492188 252.453125 96.957031 254.523438 101.449219 256.53125 C 105.730469 258.445312 110.140625 260.925781 114.691406 262.089844 C 115.503906 262.304688 116.761719 261.410156 115.753906 260.707031 C 111.824219 257.984375 106.910156 256.28125 102.605469 254.21875 C 98.179688 252.089844 93.746094 249.972656 89.320312 247.835938 C 80.6875 243.660156 72.0625 239.457031 63.5 235.128906 C 55.738281 231.195312 48.007812 227.203125 40.3125 223.140625 C 40.011719 203.136719 44.101562 183.175781 52.300781 164.816406 C 54.015625 160.988281 55.910156 157.226562 57.933594 153.644531 C 69.667969 132.851562 86.730469 115.492188 107.089844 103.34375 C 109.175781 108.203125 111.289062 113.046875 113.8125 117.621094 C 114.460938 118.785156 117.15625 118.226562 116.738281 116.761719 C 115.261719 111.523438 113.042969 106.359375 110.632812 101.292969 C 110.105469 100.191406 109.5625 99.09375 109.03125 97.996094 C 107.675781 95.238281 106.292969 92.511719 104.992188 89.828125 C 100.574219 80.726562 95.804688 71.796875 90.738281 63.039062 C 85.960938 54.785156 81.089844 46.421875 75.507812 38.675781 C 72.023438 33.835938 65.601562 25.964844 58.761719 27.054688 C 58.539062 27.082031 58.335938 27.214844 58.242188 27.382812 L 56.347656 26.6875 C 57.179688 25.195312 58.261719 24.066406 59.734375 23.6875 C 62.339844 23.011719 65.171875 25.035156 67.628906 26.972656 C 80.488281 37.171875 93.359375 47.367188 106.230469 57.558594 C 119.023438 67.695312 131.8125 77.828125 144.605469 87.972656 C 145.113281 88.371094 145.792969 88.472656 146.390625 88.238281 C 154.945312 84.96875 164.007812 82.722656 173.34375 81.570312 C 173.9375 81.492188 174.464844 81.128906 174.742188 80.59375 C 176.445312 77.300781 179.207031 74.035156 183.417969 70.320312 C 184.304688 69.539062 185.210938 68.761719 186.117188 67.996094 C 189.753906 64.882812 193.476562 61.691406 196.316406 57.777344 C 197.023438 61.804688 197.019531 65.960938 196.285156 69.996094 C 196.183594 70.582031 196.359375 71.175781 196.769531 71.601562 C 197.179688 72.023438 197.773438 72.226562 198.351562 72.136719 C 205.234375 71.128906 211.839844 69.09375 218.050781 66.078125 C 217.355469 71.210938 214.875 76.160156 211.011719 80.003906 C 210.53125 80.476562 210.355469 81.171875 210.546875 81.824219 C 210.742188 82.46875 211.277344 82.949219 211.9375 83.089844 C 218.144531 84.359375 224.246094 86.148438 230.078125 88.378906 C 230.6875 88.613281 231.367188 88.511719 231.871094 88.109375 L 309.027344 26.972656 C 311.484375 25.035156 314.316406 23.011719 316.929688 23.6875 C 318.304688 24.046875 319.335938 25.058594 320.144531 26.410156 L 318.464844 26.460938 C 318.410156 26.273438 318.199219 26.089844 317.988281 26.050781 C 311.09375 24.894531 304.425781 33.25 300.992188 38.101562 C 295.496094 45.867188 290.621094 54.144531 285.863281 62.367188 C 280.910156 70.945312 276.242188 79.671875 271.902344 88.566406 C 270.421875 91.621094 268.855469 94.707031 267.332031 97.839844 C 266.796875 98.9375 266.269531 100.042969 265.757812 101.148438 C 263.476562 106 261.394531 110.945312 259.90625 115.964844 C 259.4375 117.558594 262.277344 117.484375 262.855469 116.40625 C 265.160156 112.09375 267.132812 107.574219 269.082031 103.050781 C 289.652344 115.21875 306.890625 132.6875 318.71875 153.644531 C 320.746094 157.226562 322.640625 160.988281 324.351562 164.816406 C 332.429688 182.890625 336.511719 202.519531 336.351562 222.21875 C 328.550781 226.347656 320.710938 230.40625 312.839844 234.386719 C 304.269531 238.71875 295.644531 242.925781 287.003906 247.097656 C 282.585938 249.226562 278.152344 251.34375 273.726562 253.453125 C 269.519531 255.460938 264.835938 257.128906 260.960938 259.710938 C 259.941406 260.394531 260.988281 261.320312 261.890625 261.082031 C 266.578125 259.800781 271.113281 257.285156 275.542969 255.292969 C 280.027344 253.273438 284.488281 251.195312 288.925781 249.082031 C 297.589844 244.960938 306.171875 240.667969 314.710938 236.296875 C 321.960938 232.589844 329.160156 228.78125 336.308594 224.882812 C 336.21875 227.957031 336.035156 231.027344 335.742188 234.09375 C 335.683594 234.738281 335.964844 235.367188 336.480469 235.746094 C 337.011719 236.128906 337.691406 236.210938 338.28125 235.953125 C 345.246094 232.988281 352.417969 230.269531 359.636719 227.851562 C 358.523438 232.804688 356.734375 237.644531 354.347656 242.179688 C 341.574219 245.296875 328.882812 249.042969 316.246094 252.453125 C 298.605469 257.203125 280.652344 261.433594 263.359375 267.335938 C 261.933594 267.828125 262.636719 269.65625 264.035156 269.371094 C 281.605469 265.757812 298.894531 260.339844 316.175781 255.554688 C 328.183594 252.234375 340.398438 249.148438 352.417969 245.582031 C 348.9375 251.28125 344.496094 256.425781 339.308594 260.664062 C 338.648438 261.207031 338.445312 262.125 338.824219 262.894531 C 339.195312 263.65625 340.058594 264.058594 340.886719 263.863281 C 348.152344 262.136719 355.429688 260.007812 362.570312 257.523438 " fill-opacity="1" fill-rule="nonzero"/><g clip-path="url(#61fd118fc3)"><path fill="#938eb6" d="M 221.855469 259.039062 C 221.855469 236.246094 206.816406 217.699219 188.328125 217.699219 C 169.839844 217.699219 154.796875 236.246094 154.796875 259.039062 C 154.796875 281.832031 169.839844 300.382812 188.328125 300.382812 C 206.816406 300.382812 221.855469 281.832031 221.855469 259.039062 Z M 188.328125 214.039062 C 208.835938 214.039062 225.511719 234.226562 225.511719 259.039062 C 225.511719 283.851562 208.835938 304.039062 188.328125 304.039062 C 167.820312 304.039062 151.140625 283.851562 151.140625 259.039062 C 151.140625 234.226562 167.820312 214.039062 188.328125 214.039062 Z M 357.304688 267.527344 C 359.222656 264.257812 360.976562 260.921875 362.570312 257.523438 C 355.429688 260.007812 348.152344 262.136719 340.886719 263.863281 C 340.058594 264.058594 339.195312 263.65625 338.824219 262.894531 C 338.445312 262.125 338.648438 261.207031 339.308594 260.664062 C 344.496094 256.425781 348.9375 251.28125 352.417969 245.582031 C 340.398438 249.148438 328.183594 252.234375 316.175781 255.554688 C 298.894531 260.339844 281.605469 265.757812 264.035156 269.371094 C 262.636719 269.65625 261.933594 267.828125 263.359375 267.335938 C 280.652344 261.433594 298.605469 257.203125 316.246094 252.453125 C 328.882812 249.042969 341.574219 245.296875 354.347656 242.179688 C 356.734375 237.644531 358.523438 232.804688 359.636719 227.851562 C 352.417969 230.269531 345.246094 232.988281 338.28125 235.953125 C 337.691406 236.210938 337.011719 236.128906 336.480469 235.746094 C 335.964844 235.367188 335.683594 234.738281 335.742188 234.09375 C 336.035156 231.027344 336.21875 227.957031 336.308594 224.882812 C 329.160156 228.78125 321.960938 232.589844 314.710938 236.296875 C 306.171875 240.667969 297.589844 244.960938 288.925781 249.082031 C 284.488281 251.195312 280.027344 253.273438 275.542969 255.292969 C 271.113281 257.285156 266.578125 259.800781 261.890625 261.082031 C 260.988281 261.320312 259.941406 260.394531 260.960938 259.710938 C 264.835938 257.128906 269.519531 255.460938 273.726562 253.453125 C 278.152344 251.34375 282.585938 249.226562 287.003906 247.097656 C 295.644531 242.925781 304.269531 238.71875 312.839844 234.386719 C 320.710938 230.40625 328.550781 226.347656 336.351562 222.21875 C 336.511719 202.519531 332.429688 182.890625 324.351562 164.816406 C 322.640625 160.988281 320.746094 157.226562 318.71875 153.644531 C 306.890625 132.6875 289.652344 115.21875 269.082031 103.050781 C 267.132812 107.574219 265.160156 112.09375 262.855469 116.40625 C 262.277344 117.484375 259.4375 117.558594 259.90625 115.964844 C 261.394531 110.945312 263.476562 106 265.757812 101.148438 C 266.269531 100.042969 266.796875 98.9375 267.332031 97.839844 C 268.855469 94.707031 270.421875 91.621094 271.902344 88.566406 C 276.242188 79.671875 280.910156 70.945312 285.863281 62.367188 C 290.621094 54.144531 295.496094 45.867188 300.992188 38.101562 C 304.425781 33.25 311.09375 24.894531 317.988281 26.050781 C 318.199219 26.089844 318.410156 26.273438 318.464844 26.460938 C 318.492188 26.59375 318.457031 26.722656 318.308594 26.835938 C 316.503906 28.179688 314.285156 28.839844 312.433594 30.15625 C 310.78125 31.34375 309.28125 32.753906 307.921875 34.261719 C 305.398438 37.050781 303.289062 40.1875 301.246094 43.339844 C 296.199219 51.15625 291.417969 59.140625 286.882812 67.261719 C 282.390625 75.304688 278.128906 83.492188 274.113281 91.78125 C 272.863281 94.363281 271.691406 97.007812 270.542969 99.660156 C 291.839844 112.167969 309.691406 130.191406 321.910156 151.84375 C 323.363281 154.433594 324.761719 157.101562 326.066406 159.824219 C 331.808594 147.488281 335.238281 133.367188 336.027344 118.746094 C 337.628906 89.125 329.796875 59.988281 322.222656 31.8125 C 321.703125 29.898438 321.074219 27.9375 320.144531 26.410156 C 319.335938 25.058594 318.304688 24.046875 316.929688 23.6875 C 314.316406 23.011719 311.484375 25.035156 309.027344 26.972656 L 231.871094 88.109375 C 231.367188 88.511719 230.6875 88.613281 230.078125 88.378906 C 224.246094 86.148438 218.144531 84.359375 211.9375 83.089844 C 211.277344 82.949219 210.742188 82.46875 210.546875 81.824219 C 210.355469 81.171875 210.53125 80.476562 211.011719 80.003906 C 214.875 76.160156 217.355469 71.210938 218.050781 66.078125 C 211.839844 69.09375 205.234375 71.128906 198.351562 72.136719 C 197.773438 72.226562 197.179688 72.023438 196.769531 71.601562 C 196.359375 71.175781 196.183594 70.582031 196.285156 69.996094 C 197.019531 65.960938 197.023438 61.804688 196.316406 57.777344 C 193.476562 61.691406 189.753906 64.882812 186.117188 67.996094 C 185.210938 68.761719 184.304688 69.539062 183.417969 70.320312 C 179.207031 74.035156 176.445312 77.300781 174.742188 80.59375 C 174.464844 81.128906 173.9375 81.492188 173.34375 81.570312 C 164.007812 82.722656 154.945312 84.96875 146.390625 88.238281 C 145.792969 88.472656 145.113281 88.371094 144.605469 87.972656 C 131.8125 77.828125 119.023438 67.695312 106.230469 57.558594 C 93.359375 47.367188 80.488281 37.171875 67.628906 26.972656 C 65.171875 25.035156 62.339844 23.011719 59.734375 23.6875 C 58.261719 24.066406 57.179688 25.195312 56.347656 26.6875 C 55.503906 28.171875 54.914062 30.011719 54.429688 31.8125 C 46.859375 59.988281 39.023438 89.125 40.625 118.746094 C 41.417969 133.367188 44.847656 147.488281 50.589844 159.824219 C 51.890625 157.101562 53.289062 154.433594 54.746094 151.84375 C 66.875 130.359375 84.542969 112.4375 105.628906 99.945312 C 104.367188 97.039062 103.089844 94.144531 101.703125 91.320312 C 97.652344 83.046875 93.367188 74.871094 88.835938 66.84375 C 84.234375 58.695312 79.429688 50.636719 74.265625 42.828125 C 71.976562 39.367188 69.53125 35.980469 66.457031 33.164062 C 63.984375 30.898438 60.914062 29.929688 58.390625 27.902344 C 58.183594 27.734375 58.160156 27.542969 58.242188 27.382812 C 58.335938 27.214844 58.539062 27.082031 58.761719 27.054688 C 65.601562 25.964844 72.023438 33.835938 75.507812 38.675781 C 81.089844 46.421875 85.960938 54.785156 90.738281 63.039062 C 95.804688 71.796875 100.574219 80.726562 104.992188 89.828125 C 106.292969 92.511719 107.675781 95.238281 109.03125 97.996094 C 109.5625 99.09375 110.105469 100.191406 110.632812 101.292969 C 113.042969 106.359375 115.261719 111.523438 116.738281 116.761719 C 117.15625 118.226562 114.460938 118.785156 113.8125 117.621094 C 111.289062 113.046875 109.175781 108.203125 107.089844 103.34375 C 86.730469 115.492188 69.667969 132.851562 57.933594 153.644531 C 55.910156 157.226562 54.015625 160.988281 52.300781 164.816406 C 44.101562 183.175781 40.011719 203.136719 40.3125 223.140625 C 48.007812 227.203125 55.738281 231.195312 63.5 235.128906 C 72.0625 239.457031 80.6875 243.660156 89.320312 247.835938 C 93.746094 249.972656 98.179688 252.089844 102.605469 254.21875 C 106.910156 256.28125 111.824219 257.984375 115.753906 260.707031 C 116.761719 261.410156 115.503906 262.304688 114.691406 262.089844 C 110.140625 260.925781 105.730469 258.445312 101.449219 256.53125 C 96.957031 254.523438 92.492188 252.453125 88.054688 250.34375 C 79.386719 246.242188 70.804688 241.945312 62.265625 237.578125 C 54.917969 233.816406 47.625 229.960938 40.382812 226.007812 C 40.480469 228.710938 40.652344 231.402344 40.910156 234.09375 C 40.96875 234.738281 40.691406 235.367188 40.171875 235.746094 C 39.644531 236.128906 38.964844 236.210938 38.371094 235.953125 C 31.40625 232.988281 24.238281 230.273438 17.015625 227.851562 C 18.21875 233.21875 20.21875 238.441406 22.914062 243.300781 C 35.59375 246.390625 48.191406 250.082031 60.734375 253.453125 C 78.265625 258.175781 96.167969 262.308594 113.316406 268.296875 C 115.027344 268.894531 113.628906 270.617188 112.253906 270.335938 C 94.6875 266.808594 77.410156 261.34375 60.144531 256.566406 C 48.527344 253.347656 36.703125 250.363281 25.070312 246.90625 C 28.414062 252.074219 32.5625 256.757812 37.347656 260.664062 C 38.003906 261.207031 38.210938 262.125 37.832031 262.894531 C 37.449219 263.65625 36.601562 264.058594 35.765625 263.863281 C 28.503906 262.136719 21.222656 260.007812 14.082031 257.515625 C 15.84375 261.273438 17.804688 264.960938 19.957031 268.558594 C 25.589844 268.777344 31.304688 269.5625 36.734375 269.96875 C 45.167969 270.605469 53.597656 271.257812 62.023438 271.9375 C 79.800781 273.375 97.796875 274.199219 115.40625 277.140625 C 117.195312 277.441406 116.644531 279.382812 115.023438 279.375 C 96.863281 279.269531 78.695312 277.074219 60.625 275.488281 C 51.574219 274.699219 42.535156 273.855469 33.492188 273.023438 C 29.847656 272.679688 26 272.496094 22.179688 272.136719 C 39.570312 299.183594 67.90625 321.273438 102.535156 334.253906 C 127.464844 343.597656 155.523438 348.640625 188.328125 349.671875 C 221.132812 348.640625 249.195312 343.597656 274.121094 334.253906 C 309.1875 321.109375 337.792969 298.625 355.121094 271.113281 C 349.550781 271.738281 343.847656 271.917969 338.464844 272.421875 C 329.980469 273.210938 321.492188 273.972656 313.003906 274.710938 C 295.804688 276.222656 278.523438 278.265625 261.242188 278.363281 C 259.628906 278.371094 259.878906 276.382812 261.265625 276.15625 C 278.445312 273.382812 295.945312 272.472656 313.277344 271.066406 C 322.265625 270.34375 331.261719 269.640625 340.25 268.960938 C 345.742188 268.542969 351.574219 267.730469 357.304688 267.527344 Z M 367.78125 239.179688 C 368.730469 238.992188 369.070312 240.226562 368.152344 240.539062 C 364.632812 241.769531 361.085938 242.925781 357.507812 244.03125 C 354.722656 249.296875 351.179688 254.210938 347.023438 258.519531 C 353.191406 256.832031 359.339844 254.859375 365.359375 252.636719 C 366.046875 252.378906 366.8125 252.558594 367.320312 253.089844 C 367.824219 253.617188 367.960938 254.390625 367.675781 255.066406 C 365.871094 259.304688 363.820312 263.449219 361.53125 267.507812 C 363.183594 267.558594 364.824219 267.679688 366.433594 267.90625 C 367.042969 267.996094 367.085938 268.722656 366.507812 268.894531 C 364.34375 269.570312 362.105469 270.074219 359.820312 270.460938 C 342.246094 299.832031 312.308594 323.839844 275.410156 337.675781 C 250.082031 347.175781 221.613281 352.289062 188.382812 353.328125 C 188.363281 353.328125 188.351562 353.328125 188.328125 353.328125 C 188.304688 353.328125 188.289062 353.328125 188.265625 353.328125 C 155.039062 352.289062 126.574219 347.175781 101.246094 337.675781 C 64.804688 324.015625 35.167969 300.433594 17.503906 271.574219 C 14.945312 271.191406 12.445312 270.667969 10.066406 269.890625 C 9.402344 269.667969 9.808594 268.976562 10.316406 268.910156 C 12.078125 268.675781 13.878906 268.550781 15.691406 268.507812 C 13.167969 264.140625 10.929688 259.65625 8.976562 255.066406 C 8.691406 254.390625 8.828125 253.617188 9.335938 253.089844 C 9.839844 252.558594 10.605469 252.378906 11.296875 252.636719 C 17.316406 254.859375 23.460938 256.832031 29.628906 258.519531 C 25.820312 254.570312 22.527344 250.113281 19.855469 245.335938 C 16.007812 244.140625 12.195312 242.890625 8.421875 241.554688 C 7.445312 241.199219 8.121094 240.019531 8.96875 240.1875 C 12.054688 240.804688 15.128906 241.46875 18.203125 242.179688 C 15.609375 236.859375 13.78125 231.21875 12.820312 225.445312 C 12.714844 224.816406 12.949219 224.179688 13.433594 223.761719 C 13.917969 223.34375 14.578125 223.207031 15.1875 223.40625 C 22.546875 225.773438 29.875 228.46875 37.011719 231.417969 C 36.828125 228.9375 36.71875 226.457031 36.667969 223.972656 C 27.929688 219.160156 19.277344 214.199219 10.710938 209.089844 C 9.65625 208.472656 11.089844 207.402344 11.933594 207.871094 C 20.132812 212.378906 28.363281 216.820312 36.636719 221.203125 C 36.625 201.628906 40.691406 182.132812 48.605469 164.117188 C 41.867188 150.730469 37.84375 135.128906 36.96875 118.945312 C 35.335938 88.738281 43.25 59.3125 50.90625 30.859375 C 51.660156 28.0625 53.429688 21.53125 58.820312 20.148438 C 63.394531 18.960938 67.621094 22.304688 69.898438 24.105469 C 82.765625 34.304688 95.636719 44.496094 108.503906 54.691406 C 121.019531 64.613281 133.546875 74.535156 146.0625 84.457031 C 154.3125 81.386719 163.011719 79.234375 171.957031 78.054688 C 173.882812 74.644531 176.789062 71.285156 181.003906 67.570312 C 181.902344 66.78125 182.816406 65.996094 183.742188 65.203125 C 188.234375 61.363281 192.886719 57.390625 195.417969 52.238281 C 195.742188 51.566406 196.445312 51.164062 197.199219 51.222656 C 197.945312 51.28125 198.585938 51.785156 198.804688 52.503906 C 200.355469 57.523438 200.84375 62.871094 200.257812 68.113281 C 206.910156 66.875 213.273438 64.605469 219.207031 61.371094 C 219.773438 61.058594 220.457031 61.070312 221.015625 61.398438 C 221.570312 61.722656 221.914062 62.324219 221.914062 62.964844 C 221.953125 69.105469 219.734375 75.222656 215.761719 80.183594 C 220.757812 81.339844 225.667969 82.824219 230.417969 84.59375 L 306.757812 24.105469 C 309.03125 22.304688 313.261719 18.96875 317.84375 20.148438 C 323.222656 21.53125 324.996094 28.0625 325.75 30.859375 C 333.402344 59.3125 341.320312 88.738281 339.683594 118.945312 C 338.808594 135.128906 334.785156 150.730469 328.046875 164.117188 C 335.839844 181.847656 339.898438 201.023438 340.007812 220.285156 C 348.304688 215.882812 356.558594 211.402344 364.78125 206.867188 C 365.679688 206.375 366.96875 207.4375 365.886719 208.078125 C 357.332031 213.144531 348.707031 218.078125 340.003906 222.863281 C 339.972656 225.71875 339.847656 228.566406 339.640625 231.417969 C 346.785156 228.46875 354.105469 225.773438 361.46875 223.40625 C 362.074219 223.207031 362.738281 223.34375 363.222656 223.761719 C 363.703125 224.179688 363.9375 224.816406 363.835938 225.445312 C 362.9375 230.824219 361.289062 236.09375 358.972656 241.085938 C 361.902344 240.402344 364.839844 239.765625 367.78125 239.179688 " fill-opacity="1" fill-rule="nonzero"/></g><path fill="#6c6a9d" d="M 108.691406 159.214844 C 108.472656 160.652344 110.871094 160.625 111.195312 159.394531 C 112.648438 153.855469 116.570312 149.023438 122.050781 147.078125 C 128.078125 144.933594 134.460938 147.070312 139.324219 150.863281 C 140.578125 151.84375 143.121094 150.605469 141.847656 149.046875 C 131.5625 136.511719 110.976562 144.019531 108.691406 159.214844 Z M 103.949219 197.082031 C 103.949219 210.421875 114.757812 221.230469 128.09375 221.230469 C 141.425781 221.230469 152.238281 210.421875 152.238281 197.082031 C 152.238281 183.753906 141.425781 172.9375 128.09375 172.9375 C 114.757812 172.9375 103.949219 183.753906 103.949219 197.082031 Z M 177.476562 234.914062 C 172.035156 234.914062 169.421875 241.59375 173.425781 245.28125 L 184.273438 255.300781 C 186.5625 257.414062 190.089844 257.414062 192.378906 255.300781 L 203.230469 245.28125 C 207.230469 241.59375 204.621094 234.914062 199.175781 234.914062 Z M 207.910156 260.832031 C 208.421875 266.363281 207.785156 272.714844 201.167969 274.105469 C 195.316406 275.339844 190.976562 270.59375 189.964844 265.296875 C 189.863281 264.730469 189.402344 264.417969 188.851562 264.316406 C 188.808594 264.300781 188.765625 264.292969 188.714844 264.292969 C 188.671875 264.285156 188.628906 264.277344 188.574219 264.277344 C 188.332031 264.257812 188.078125 264.285156 187.84375 264.351562 C 187.214844 264.503906 186.6875 264.921875 186.671875 265.566406 C 185.640625 271.1875 181.003906 275.6875 175 273.847656 C 168.910156 271.976562 168.207031 266.269531 168.734375 260.839844 C 168.828125 259.847656 167.476562 259.828125 167.007812 260.453125 C 162.320312 266.761719 167.503906 275.648438 174.417969 277.347656 C 179.789062 278.664062 185.507812 276.25 188.285156 271.832031 C 190.910156 276.285156 196.398438 278.707031 201.941406 277.320312 C 208.839844 275.589844 214.554688 266.664062 209.566406 260.292969 C 209.117188 259.71875 207.835938 260.039062 207.910156 260.832031 Z M 224.414062 196.082031 C 224.414062 209.414062 235.230469 220.230469 248.558594 220.230469 C 261.894531 220.230469 272.699219 209.414062 272.699219 196.082031 C 272.699219 182.742188 261.894531 171.9375 248.558594 171.9375 C 235.230469 171.9375 224.414062 182.742188 224.414062 196.082031 Z M 267.96875 158.113281 C 268.171875 159.472656 265.792969 159.761719 265.449219 158.484375 C 263.886719 152.617188 259.460938 147.613281 253.585938 145.835938 C 247.703125 144.054688 241.695312 146.1875 237.078125 149.90625 C 235.9375 150.824219 233.546875 149.699219 234.761719 148.257812 C 245.230469 135.847656 265.652344 142.484375 267.96875 158.113281 " fill-opacity="1" fill-rule="nonzero"/><path fill="#f9eff8" d="M 88.835938 66.84375 C 84.234375 58.695312 79.429688 50.636719 74.265625 42.828125 C 71.976562 39.367188 69.53125 35.980469 66.457031 33.164062 C 63.984375 30.898438 60.914062 29.929688 58.390625 27.902344 C 58.183594 27.734375 58.160156 27.542969 58.242188 27.382812 L 56.347656 26.6875 C 55.503906 28.171875 54.914062 30.011719 54.429688 31.8125 C 46.859375 59.988281 39.023438 89.125 40.625 118.746094 C 41.417969 133.367188 44.847656 147.488281 50.589844 159.824219 C 51.890625 157.101562 53.289062 154.433594 54.746094 151.84375 C 66.875 130.359375 84.542969 112.4375 105.628906 99.945312 C 104.367188 97.039062 103.089844 94.144531 101.703125 91.320312 C 97.652344 83.046875 93.367188 74.871094 88.835938 66.84375 Z M 192.378906 255.300781 C 190.089844 257.414062 186.5625 257.414062 184.273438 255.300781 L 173.425781 245.28125 C 169.421875 241.59375 172.035156 234.914062 177.476562 234.914062 L 199.175781 234.914062 C 204.621094 234.914062 207.230469 241.59375 203.230469 245.28125 Z M 188.285156 271.832031 C 185.507812 276.25 179.789062 278.664062 174.417969 277.347656 C 167.503906 275.648438 162.320312 266.761719 167.007812 260.453125 C 167.476562 259.828125 168.828125 259.847656 168.734375 260.839844 C 168.207031 266.269531 168.910156 271.976562 175 273.847656 C 181.003906 275.6875 185.640625 271.1875 186.671875 265.566406 C 186.6875 264.921875 187.214844 264.503906 187.84375 264.351562 C 188.078125 264.285156 188.332031 264.257812 188.574219 264.277344 C 188.628906 264.277344 188.671875 264.285156 188.714844 264.292969 C 188.765625 264.292969 188.808594 264.300781 188.851562 264.316406 C 189.402344 264.417969 189.863281 264.730469 189.964844 265.296875 C 190.976562 270.59375 195.316406 275.339844 201.167969 274.105469 C 207.785156 272.714844 208.421875 266.363281 207.910156 260.832031 C 207.835938 260.039062 209.117188 259.71875 209.566406 260.292969 C 214.554688 266.664062 208.839844 275.589844 201.941406 277.320312 C 196.398438 278.707031 190.910156 276.285156 188.285156 271.832031 Z M 154.796875 259.039062 C 154.796875 281.832031 169.839844 300.382812 188.328125 300.382812 C 206.816406 300.382812 221.855469 281.832031 221.855469 259.039062 C 221.855469 236.246094 206.816406 217.699219 188.328125 217.699219 C 169.839844 217.699219 154.796875 236.246094 154.796875 259.039062 Z M 322.222656 31.8125 C 329.796875 59.988281 337.628906 89.125 336.027344 118.746094 C 335.238281 133.367188 331.808594 147.488281 326.066406 159.824219 C 324.761719 157.101562 323.363281 154.433594 321.910156 151.84375 C 309.691406 130.191406 291.839844 112.167969 270.542969 99.660156 C 271.691406 97.007812 272.863281 94.363281 274.113281 91.78125 C 278.128906 83.492188 282.390625 75.304688 286.882812 67.261719 C 291.417969 59.140625 296.199219 51.15625 301.246094 43.339844 C 303.289062 40.1875 305.398438 37.050781 307.921875 34.261719 C 309.28125 32.753906 310.78125 31.34375 312.433594 30.15625 C 314.285156 28.839844 316.503906 28.179688 318.308594 26.835938 C 318.457031 26.722656 318.492188 26.59375 318.464844 26.460938 L 320.144531 26.410156 C 321.074219 27.9375 321.703125 29.898438 322.222656 31.8125 " fill-opacity="1" fill-rule="nonzero"/></svg>