<svg xmlns="http://www.w3.org/2000/svg" xmlns:xlink="http://www.w3.org/1999/xlink" width="500" zoomAndPan="magnify" viewBox="0 0 375 374.999991" height="500" preserveAspectRatio="xMidYMid meet" version="1.0"><defs><clipPath id="a746eb81ab"><path d="M 5.597656 17.738281 L 369.347656 17.738281 L 369.347656 357.359375 L 5.597656 357.359375 Z M 5.597656 17.738281 " clip-rule="nonzero"/></clipPath><clipPath id="794e011d96"><path d="M 5.597656 17.738281 L 369.347656 17.738281 L 369.347656 357.359375 L 5.597656 357.359375 Z M 5.597656 17.738281 " clip-rule="nonzero"/></clipPath></defs><rect x="-37.5" width="450" fill="#ffffff" y="-37.499999" height="449.999989" fill-opacity="1"/><rect x="-37.5" width="450" fill="#ffffff" y="-37.499999" height="449.999989" fill-opacity="1"/><g clip-path="url(#a746eb81ab)"><path fill="#d9f2f4" d="M 369.074219 268.019531 C 365.234375 261.898438 359.320312 256.957031 351.96875 253.726562 C 346.785156 251.460938 340.898438 250.074219 334.457031 249.585938 C 334.375 248.949219 334.179688 248.222656 333.664062 247.59375 C 332.617188 246.296875 331 246.1875 330.132812 246.136719 C 312.652344 245.015625 299.375 241.871094 288.351562 236.246094 C 281.84375 232.929688 275.941406 228.605469 270.757812 223.421875 C 271.117188 222.253906 271.355469 220.820312 270.992188 219.296875 C 270.484375 217.183594 268.96875 215.628906 267.863281 214.492188 C 255.460938 201.699219 242.265625 189.292969 228.644531 177.617188 C 228.214844 176.375 227.617188 175.222656 226.882812 174.195312 C 227.0625 174.023438 227.238281 173.839844 227.398438 173.628906 C 227.726562 173.183594 227.9375 172.710938 228.089844 172.238281 C 231.027344 173.277344 233.992188 174.296875 237.011719 175.324219 C 247.796875 179 258.578125 182.652344 269.367188 186.296875 L 278.867188 189.511719 C 282.140625 190.621094 285.417969 191.726562 288.691406 192.835938 C 291.339844 193.730469 294.339844 194.75 297.5 194.75 C 301.277344 194.75 304.59375 193.175781 306.378906 190.554688 C 306.582031 190.261719 306.757812 189.949219 306.921875 189.621094 C 315.78125 184.738281 323.78125 176.484375 330.683594 165.078125 C 334.507812 158.765625 337.738281 152.042969 340.867188 145.542969 C 343.234375 140.621094 345.679688 135.523438 348.351562 130.691406 C 350.695312 126.457031 354.578125 119.402344 351.398438 113.457031 L 358.269531 47.570312 C 358.410156 46.199219 358 44.296875 356.78125 43.359375 C 356.027344 42.785156 355.066406 42.648438 354.164062 42.996094 C 353.734375 43.164062 353.386719 43.488281 353.179688 43.902344 C 343.808594 63.210938 339.9375 84.753906 341.933594 106.242188 C 341.128906 107.140625 340.605469 108.285156 340.375 109.136719 C 338.589844 115.726562 335.671875 122.046875 332.847656 128.167969 C 325.640625 143.808594 317.492188 161.460938 304.1875 174.023438 C 304.171875 174.011719 304.167969 174.007812 304.15625 174.007812 C 303.046875 173.386719 301.859375 173.410156 300.941406 173.410156 C 284.886719 173.410156 268.976562 169.335938 253.585938 165.398438 L 241.464844 162.285156 C 236.667969 161.058594 231.722656 159.792969 227.089844 157.9375 C 225.40625 157.261719 223.769531 156.511719 222.1875 155.6875 C 222.203125 155.636719 222.214844 155.59375 222.230469 155.542969 C 227.257812 156.109375 232.320312 156.410156 237.378906 156.410156 C 253.613281 156.410156 269.835938 153.496094 285.046875 147.785156 C 292.15625 145.125 295.832031 141.074219 295.394531 136.371094 C 295.238281 134.605469 294.464844 132.972656 293.136719 131.597656 C 293.847656 112.761719 293.097656 93.761719 290.890625 75.117188 C 290.613281 72.828125 290.097656 68.574219 287.164062 66.492188 C 285.722656 65.464844 283.894531 65.09375 281.710938 65.371094 C 265.882812 50.957031 251.117188 35.167969 237.828125 18.429688 C 237.425781 17.921875 236.785156 17.664062 236.144531 17.761719 C 235.507812 17.855469 234.960938 18.277344 234.71875 18.882812 C 232.019531 25.589844 235.992188 32.558594 240.242188 38.5 C 249.691406 51.714844 259.464844 65.371094 271.667969 76.683594 C 271.742188 78.945312 272.457031 81.109375 273.097656 83.039062 L 273.140625 83.164062 C 278.535156 99.542969 280.824219 114.929688 279.996094 128.933594 C 278.578125 129.285156 277.1875 129.722656 275.832031 130.160156 L 275.605469 130.222656 C 257.1875 136.117188 238.109375 140.015625 218.859375 141.84375 C 220.09375 133.542969 220.1875 125.277344 219.09375 117.828125 C 218.808594 115.9375 218.445312 114.066406 218.015625 112.269531 C 217.535156 110.238281 216.953125 108.277344 216.328125 106.21875 C 215.992188 105.15625 215.660156 104.085938 215.339844 103.019531 C 214.683594 100.828125 214.015625 98.457031 213.546875 96 C 213.367188 95.046875 212.488281 94.398438 211.519531 94.527344 C 210.566406 94.660156 209.871094 95.511719 209.945312 96.476562 C 210.171875 99.375 210.332031 102.21875 210.425781 104.925781 C 210.496094 107.3125 210.519531 109.726562 210.492188 112.101562 C 210.359375 121.59375 209.253906 130.007812 207.214844 137.171875 C 204.902344 134.699219 201.519531 133.308594 198.179688 133.738281 C 194.074219 134.277344 190.550781 137.523438 189.390625 141.589844 C 188.75 141.574219 188.117188 141.589844 187.488281 141.632812 C 186.851562 141.589844 186.210938 141.574219 185.566406 141.589844 C 184.40625 137.523438 180.878906 134.277344 176.773438 133.738281 C 173.441406 133.316406 170.0625 134.695312 167.746094 137.164062 C 165.710938 129.992188 164.597656 121.59375 164.464844 112.113281 C 164.4375 109.726562 164.457031 107.3125 164.53125 104.929688 C 164.625 102.210938 164.785156 99.367188 165.011719 96.476562 C 165.085938 95.511719 164.394531 94.660156 163.433594 94.527344 C 162.480469 94.402344 161.59375 95.046875 161.410156 96 C 160.945312 98.457031 160.273438 100.828125 159.625 103.011719 C 159.292969 104.097656 158.957031 105.1875 158.613281 106.28125 C 158.003906 108.277344 157.421875 110.238281 156.941406 112.261719 C 156.503906 114.070312 156.148438 115.945312 155.863281 117.832031 C 154.773438 125.285156 154.867188 133.550781 156.09375 141.84375 C 136.847656 140.015625 117.773438 136.117188 99.34375 130.222656 L 99.125 130.160156 C 97.773438 129.722656 96.382812 129.285156 94.960938 128.933594 C 94.125 114.925781 96.425781 99.542969 101.816406 83.171875 L 101.855469 83.0625 C 102.503906 81.121094 103.214844 78.949219 103.289062 76.683594 C 115.492188 65.371094 125.269531 51.714844 134.714844 38.5 C 138.964844 32.558594 142.9375 25.589844 140.238281 18.882812 C 140 18.277344 139.453125 17.855469 138.808594 17.761719 C 138.171875 17.664062 137.53125 17.921875 137.128906 18.429688 C 123.839844 35.167969 109.074219 50.957031 93.246094 65.371094 C 91.078125 65.09375 89.242188 65.464844 87.800781 66.492188 C 84.859375 68.574219 84.34375 72.832031 84.066406 75.117188 C 81.867188 93.761719 81.113281 112.761719 81.816406 131.597656 C 80.492188 132.964844 79.722656 134.605469 79.5625 136.371094 C 79.125 141.074219 82.800781 145.125 89.910156 147.785156 C 105.121094 153.496094 121.34375 156.410156 137.582031 156.410156 C 142.640625 156.410156 147.695312 156.109375 152.726562 155.542969 C 152.742188 155.59375 152.757812 155.636719 152.769531 155.6875 C 151.191406 156.503906 149.554688 157.261719 147.863281 157.9375 C 143.234375 159.792969 138.28125 161.058594 133.492188 162.285156 L 121.375 165.398438 C 105.980469 169.335938 90.070312 173.410156 74.007812 173.410156 C 73.070312 173.410156 71.914062 173.394531 70.816406 174 C 70.800781 174.007812 70.785156 174.011719 70.769531 174.023438 C 57.46875 161.460938 49.3125 143.808594 42.109375 128.167969 C 39.289062 122.046875 36.367188 115.71875 34.585938 109.136719 C 34.351562 108.277344 33.820312 107.125 33.027344 106.234375 C 35.019531 84.746094 31.140625 63.210938 21.773438 43.902344 C 21.574219 43.488281 21.222656 43.164062 20.792969 42.996094 C 19.890625 42.65625 18.929688 42.785156 18.171875 43.371094 C 16.957031 44.296875 16.550781 46.199219 16.695312 47.574219 L 23.558594 113.457031 C 20.378906 119.390625 24.265625 126.449219 26.609375 130.691406 C 29.28125 135.523438 31.726562 140.621094 34.089844 145.542969 C 37.21875 152.042969 40.449219 158.765625 44.269531 165.078125 C 51.179688 176.484375 59.175781 184.738281 68.035156 189.621094 C 68.203125 189.949219 68.375 190.261719 68.570312 190.546875 C 70.355469 193.175781 73.679688 194.75 77.460938 194.75 C 80.617188 194.75 83.617188 193.730469 86.265625 192.835938 C 89.542969 191.726562 92.816406 190.621094 96.09375 189.511719 L 105.585938 186.296875 C 116.382812 182.652344 127.160156 179 137.945312 175.324219 C 140.972656 174.296875 143.9375 173.277344 146.871094 172.238281 C 147.019531 172.710938 147.238281 173.191406 147.574219 173.644531 C 147.726562 173.84375 147.894531 174.027344 148.074219 174.195312 C 147.339844 175.230469 146.746094 176.375 146.316406 177.617188 C 132.691406 189.300781 119.496094 201.699219 107.09375 214.492188 C 105.988281 215.628906 104.476562 217.191406 103.964844 219.296875 C 103.601562 220.8125 103.839844 222.25 104.195312 223.421875 C 99.015625 228.605469 93.113281 232.929688 86.609375 236.246094 C 75.578125 241.871094 62.304688 245.015625 44.824219 246.136719 C 43.957031 246.1875 42.34375 246.296875 41.304688 247.582031 C 40.785156 248.214844 40.582031 248.949219 40.5 249.585938 C 34.0625 250.074219 28.175781 251.460938 22.992188 253.726562 C 15.640625 256.957031 9.722656 261.898438 5.878906 268.019531 C 5.472656 268.667969 5.511719 269.5 5.972656 270.105469 C 6.332031 270.5625 6.863281 270.8125 7.414062 270.8125 C 7.597656 270.8125 7.789062 270.792969 7.960938 270.730469 L 8.195312 270.660156 C 9.125 270.363281 10.058594 270.066406 10.988281 269.769531 C 16.730469 267.902344 21.078125 266.320312 25.074219 264.625 C 26.019531 264.222656 26.972656 263.816406 27.933594 263.398438 C 32.046875 261.613281 36.28125 259.777344 40.476562 258.921875 C 40.496094 259.027344 40.496094 259.121094 40.515625 259.214844 C 40.625 259.871094 40.835938 260.433594 41.164062 260.925781 C 42.546875 263.050781 45.292969 263.113281 46.324219 263.136719 C 46.761719 263.144531 47.191406 263.152344 47.625 263.152344 C 63.1875 263.152344 77.75 256.296875 91.351562 249.257812 C 96.671875 246.492188 101.417969 243.921875 105.585938 240.3125 C 107.917969 238.300781 110.09375 235.9375 112.203125 233.117188 C 112.605469 233.210938 113.003906 233.265625 113.410156 233.265625 C 113.878906 233.265625 114.34375 233.203125 114.808594 233.082031 C 116.992188 232.507812 118.367188 230.742188 119.363281 229.453125 C 129.03125 216.992188 139.363281 204.742188 150.097656 193.003906 C 150.070312 193.265625 150.046875 193.527344 150.035156 193.789062 C 142.601562 203.363281 139.246094 215.34375 136.007812 226.957031 C 133.578125 235.648438 131.070312 244.632812 126.871094 252.488281 L 126.796875 252.632812 C 126.296875 253.582031 125.660156 254.769531 125.609375 256.183594 C 125.585938 256.957031 125.75 257.710938 126.054688 258.441406 C 116.359375 280.269531 98.265625 298.023438 82.269531 313.710938 C 81.695312 314.273438 81.570312 315.140625 81.933594 315.839844 C 65.910156 323.511719 53.46875 338.007812 48.457031 355.023438 C 48.21875 355.824219 48.558594 356.683594 49.28125 357.105469 C 49.5625 357.277344 49.882812 357.359375 50.203125 357.359375 C 50.675781 357.359375 51.152344 357.171875 51.496094 356.8125 C 62.867188 345.246094 75.019531 334.238281 87.632812 324.046875 C 87.996094 324.390625 88.425781 324.707031 88.972656 324.90625 C 89.40625 325.074219 89.851562 325.15625 90.304688 325.15625 C 91.703125 325.15625 93.148438 324.355469 94.636719 322.75 C 108.476562 307.785156 120.550781 291.164062 130.535156 273.347656 C 131.867188 270.996094 133.511719 267.96875 134.910156 264.75 C 134.917969 264.75 134.933594 264.75 134.941406 264.75 C 136.25 264.75 137.179688 264.238281 137.792969 263.722656 C 138.710938 262.945312 139.144531 261.925781 139.460938 261.175781 C 142.390625 254.179688 144.335938 246.773438 146.222656 239.613281 C 147.160156 236.039062 148.128906 232.351562 149.203125 228.773438 C 151.992188 219.507812 155.140625 212.539062 159.058594 206.980469 C 159.285156 207.050781 159.519531 207.101562 159.75 207.167969 C 156.316406 211.722656 154.707031 217.683594 153.769531 222.085938 C 149.605469 241.523438 149.320312 262.128906 152.929688 281.679688 C 154.515625 290.28125 157.609375 302.6875 166.183594 311.160156 C 171.714844 316.636719 179.429688 320.105469 187.347656 320.683594 C 187.390625 320.6875 187.433594 320.6875 187.472656 320.6875 C 187.476562 320.6875 187.476562 320.6875 187.476562 320.6875 C 187.476562 320.6875 187.476562 320.6875 187.488281 320.6875 C 187.523438 320.6875 187.566406 320.6875 187.613281 320.683594 C 195.527344 320.105469 203.242188 316.636719 208.773438 311.160156 C 217.339844 302.6875 220.441406 290.28125 222.019531 281.679688 C 225.636719 262.128906 225.355469 241.523438 221.1875 222.085938 C 220.25 217.679688 218.640625 211.722656 215.207031 207.167969 C 215.441406 207.101562 215.675781 207.050781 215.898438 206.980469 C 219.8125 212.539062 222.964844 219.507812 225.753906 228.773438 C 226.828125 232.351562 227.800781 236.050781 228.738281 239.613281 C 230.621094 246.777344 232.566406 254.179688 235.496094 261.175781 C 235.8125 261.925781 236.25 262.945312 237.164062 263.722656 C 237.777344 264.238281 238.707031 264.75 240.019531 264.75 C 240.027344 264.75 240.039062 264.75 240.046875 264.75 C 241.445312 267.960938 243.089844 270.996094 244.414062 273.347656 C 254.40625 291.164062 266.480469 307.785156 280.324219 322.75 C 281.808594 324.355469 283.265625 325.15625 284.652344 325.15625 C 285.105469 325.15625 285.546875 325.074219 285.976562 324.90625 C 286.523438 324.707031 286.960938 324.390625 287.324219 324.046875 C 299.9375 334.238281 312.09375 345.253906 323.457031 356.8125 C 323.808594 357.171875 324.28125 357.359375 324.753906 357.359375 C 325.074219 357.359375 325.394531 357.277344 325.679688 357.105469 C 326.398438 356.683594 326.734375 355.824219 326.5 355.023438 C 321.484375 338.007812 309.050781 323.511719 293.023438 315.839844 C 293.386719 315.140625 293.261719 314.273438 292.6875 313.710938 C 276.691406 298.023438 258.597656 280.269531 248.90625 258.441406 C 249.210938 257.710938 249.371094 256.957031 249.347656 256.167969 C 249.289062 254.769531 248.664062 253.582031 248.160156 252.632812 L 248.082031 252.480469 C 243.890625 244.632812 241.378906 235.648438 238.949219 226.957031 C 235.707031 215.34375 232.347656 203.363281 224.925781 193.789062 C 224.90625 193.527344 224.886719 193.265625 224.859375 193.003906 C 235.59375 204.742188 245.929688 216.984375 255.589844 229.453125 C 256.589844 230.742188 257.964844 232.507812 260.148438 233.082031 C 260.617188 233.203125 261.078125 233.265625 261.554688 233.265625 C 261.953125 233.265625 262.351562 233.210938 262.753906 233.125 C 264.867188 235.9375 267.039062 238.300781 269.367188 240.3125 C 273.539062 243.921875 278.285156 246.492188 283.605469 249.257812 C 297.207031 256.296875 311.769531 263.152344 327.332031 263.152344 C 327.757812 263.152344 328.199219 263.144531 328.636719 263.136719 C 329.667969 263.113281 332.410156 263.050781 333.796875 260.9375 C 334.121094 260.433594 334.332031 259.871094 334.433594 259.257812 C 334.457031 259.140625 334.472656 259.03125 334.484375 258.921875 C 338.683594 259.777344 342.914062 261.613281 347.027344 263.398438 C 347.988281 263.816406 348.941406 264.222656 349.886719 264.625 C 353.890625 266.320312 358.226562 267.902344 363.96875 269.769531 C 364.898438 270.066406 365.832031 270.363281 366.761719 270.660156 L 366.996094 270.730469 C 367.171875 270.792969 367.359375 270.8125 367.539062 270.8125 C 368.09375 270.8125 368.625 270.5625 368.980469 270.105469 C 369.449219 269.5 369.484375 268.667969 369.074219 268.019531 " fill-opacity="1" fill-rule="nonzero"/></g><path fill="#fefcd5" d="M 198.640625 137.355469 C 196.191406 137.675781 193.984375 139.605469 193.074219 142.042969 C 194.472656 142.339844 195.828125 142.777344 197.09375 143.359375 C 198.757812 144.121094 200.367188 145.101562 201.890625 146.285156 C 203.265625 144.890625 204.5625 143.339844 205.761719 141.648438 L 205.820312 141.503906 C 204.53125 138.820312 201.4375 136.988281 198.640625 137.355469 Z M 169.136719 141.503906 L 169.195312 141.648438 C 170.398438 143.339844 171.695312 144.890625 173.070312 146.285156 C 174.589844 145.101562 176.195312 144.121094 177.867188 143.355469 C 179.132812 142.777344 180.484375 142.339844 181.882812 142.042969 C 180.972656 139.605469 178.765625 137.675781 176.308594 137.355469 C 173.511719 137 170.425781 138.820312 169.136719 141.503906 Z M 158.082031 146.085938 C 157.128906 146.792969 156.363281 147.792969 156.007812 148.859375 C 155.566406 150.171875 155.515625 151.621094 155.851562 153.179688 C 155.972656 153.777344 156.15625 154.390625 156.402344 155.003906 C 157.023438 154.9375 157.648438 154.910156 158.285156 154.929688 C 160.574219 155.003906 162.726562 155.554688 164.65625 156.167969 C 165.296875 155.097656 165.964844 154.0625 166.664062 153.085938 C 163.519531 151.378906 160.601562 148.996094 158.082031 146.085938 Z M 158.179688 158.574219 C 157.324219 158.554688 156.5 158.625 155.703125 158.800781 C 154.511719 159.054688 152.863281 159.648438 151.738281 161.054688 C 150.054688 163.160156 150.035156 166.316406 150.164062 169.640625 C 150.164062 169.671875 150.164062 169.757812 150.164062 169.777344 C 150.1875 170.265625 150.222656 171.097656 150.496094 171.46875 C 150.535156 171.527344 150.703125 171.753906 151.277344 171.902344 C 151.320312 171.914062 151.363281 171.921875 151.410156 171.9375 C 151.863281 172.058594 152.421875 172.105469 152.953125 172.132812 C 154.777344 172.222656 156.597656 172.238281 158.390625 172.175781 C 159.171875 168.234375 160.566406 164.179688 162.53125 160.113281 C 162.644531 159.886719 162.765625 159.660156 162.871094 159.433594 C 161.210938 158.9375 159.699219 158.621094 158.179688 158.574219 Z M 157.648438 180.984375 C 157.574219 179.3125 157.636719 177.59375 157.828125 175.835938 C 157.3125 175.851562 156.789062 175.859375 156.269531 175.859375 C 155.109375 175.859375 153.933594 175.828125 152.757812 175.777344 C 152.378906 175.75 151.976562 175.71875 151.5625 175.667969 C 150.703125 176.667969 150.027344 177.871094 149.613281 179.210938 C 149.179688 180.589844 149.042969 182.027344 149.203125 183.367188 C 149.449219 185.429688 150.355469 187.375 151.671875 188.710938 C 152.113281 189.167969 152.59375 189.539062 153.113281 189.824219 C 153.140625 189.839844 153.179688 189.863281 153.214844 189.882812 C 153.25 189.914062 153.292969 189.933594 153.332031 189.957031 C 153.679688 190.128906 154 190.246094 154.304688 190.335938 C 156.066406 190.832031 157.972656 190.429688 159.203125 189.414062 C 159.109375 189.160156 159.023438 188.90625 158.949219 188.65625 C 158.191406 186.261719 157.75 183.671875 157.648438 180.984375 Z M 160.710938 192.820312 C 159.308594 193.703125 157.605469 194.191406 155.855469 194.191406 C 155.136719 194.191406 154.398438 194.105469 153.679688 193.929688 C 153.671875 194.105469 153.644531 194.277344 153.644531 194.445312 C 153.621094 196.515625 154.242188 198.523438 155.367188 200.097656 C 156.300781 201.378906 157.605469 202.421875 159.144531 203.105469 C 160.300781 203.628906 161.546875 203.929688 162.777344 203.980469 C 163.609375 203.296875 164.519531 202.683594 165.484375 202.15625 C 166.25 201.757812 167.050781 201.421875 167.859375 201.117188 C 164.949219 198.960938 162.457031 196.074219 160.710938 192.820312 Z M 221.277344 193.929688 C 220.558594 194.105469 219.820312 194.191406 219.101562 194.191406 C 217.355469 194.191406 215.652344 193.703125 214.246094 192.820312 C 212.507812 196.074219 210.011719 198.960938 207.101562 201.117188 C 207.90625 201.421875 208.707031 201.75 209.464844 202.15625 C 210.433594 202.675781 211.34375 203.289062 212.171875 203.980469 C 213.410156 203.921875 214.652344 203.628906 215.804688 203.113281 C 217.355469 202.421875 218.65625 201.378906 219.589844 200.097656 C 220.71875 198.523438 221.335938 196.515625 221.316406 194.453125 C 221.316406 194.277344 221.285156 194.105469 221.277344 193.929688 Z M 223.394531 175.667969 C 222.996094 175.71875 222.59375 175.75 222.222656 175.769531 C 221.03125 175.828125 219.851562 175.859375 218.683594 175.859375 C 218.160156 175.859375 217.648438 175.851562 217.128906 175.835938 C 217.316406 177.59375 217.382812 179.3125 217.3125 180.984375 C 217.210938 183.671875 216.765625 186.253906 216.007812 188.667969 C 215.9375 188.90625 215.847656 189.160156 215.753906 189.414062 C 216.984375 190.429688 218.890625 190.824219 220.644531 190.335938 C 220.957031 190.246094 221.277344 190.128906 221.589844 189.96875 C 221.664062 189.933594 221.707031 189.914062 221.742188 189.882812 C 221.777344 189.863281 221.816406 189.839844 221.847656 189.824219 C 222.359375 189.539062 222.839844 189.167969 223.277344 188.722656 C 224.605469 187.375 225.503906 185.429688 225.753906 183.367188 C 225.914062 182.027344 225.773438 180.589844 225.347656 179.210938 C 224.929688 177.871094 224.253906 176.667969 223.394531 175.667969 Z M 219.269531 158.800781 C 218.46875 158.625 217.628906 158.546875 216.78125 158.574219 C 215.257812 158.621094 213.742188 158.9375 212.085938 159.433594 C 212.195312 159.660156 212.3125 159.878906 212.417969 160.113281 C 214.390625 164.171875 215.78125 168.226562 216.570312 172.175781 C 218.359375 172.238281 220.1875 172.222656 222.027344 172.132812 C 222.542969 172.105469 223.105469 172.058594 223.554688 171.9375 C 224.238281 171.769531 224.421875 171.527344 224.480469 171.457031 C 224.734375 171.097656 224.773438 170.265625 224.792969 169.714844 C 224.925781 166.316406 224.902344 163.160156 223.222656 161.054688 C 222.09375 159.648438 220.449219 159.054688 219.269531 158.800781 Z M 218.949219 148.863281 C 219.394531 150.171875 219.445312 151.621094 219.109375 153.1875 C 218.984375 153.777344 218.804688 154.390625 218.558594 155.003906 C 217.9375 154.9375 217.304688 154.914062 216.671875 154.929688 C 214.386719 155.003906 212.230469 155.554688 210.304688 156.167969 C 209.660156 155.089844 208.992188 154.0625 208.292969 153.085938 C 211.4375 151.378906 214.355469 148.996094 216.875 146.085938 C 217.828125 146.792969 218.589844 147.792969 218.949219 148.863281 " fill-opacity="1" fill-rule="nonzero"/><path fill="#eee1f3" d="M 184.640625 310.957031 C 185.929688 311.136719 187.152344 309.390625 185.785156 308.609375 C 182.203125 306.554688 178.65625 304.609375 175.769531 301.59375 C 172.539062 298.234375 170.191406 294.042969 168.542969 289.707031 C 165.148438 280.816406 163.957031 270.988281 163.070312 261.578125 C 161.5625 245.5625 158.265625 214.929688 180.097656 211.074219 C 181.140625 210.890625 181.46875 209.414062 180.179688 209.363281 C 171.765625 209.027344 164.949219 215.414062 161.78125 222.800781 C 157.347656 233.148438 158.332031 245.640625 159.039062 256.597656 C 159.800781 268.429688 160.945312 281.214844 165.375 292.316406 C 168.695312 300.617188 175.207031 309.613281 184.640625 310.957031 Z M 215.832031 257.683594 C 216.621094 246.773438 217.628906 234.253906 213.664062 223.816406 C 210.636719 215.839844 203.796875 209.050781 194.859375 209.363281 C 193.671875 209.40625 193.636719 210.878906 194.777344 211.082031 C 216.269531 214.914062 213.375 244.605469 212 260.488281 C 211.152344 270.265625 209.984375 280.488281 206.511719 289.722656 C 203.175781 298.578125 197.660156 304.132812 189.492188 308.550781 C 187.976562 309.375 188.605469 311.1875 190.339844 310.925781 C 199.339844 309.539062 205.929688 300.773438 209.253906 292.871094 C 213.839844 282 215.003906 269.339844 215.832031 257.683594 Z M 217.628906 222.847656 C 221.691406 241.820312 221.976562 261.933594 218.445312 281.019531 C 216.949219 289.136719 214.054688 300.824219 206.21875 308.566406 C 201.320312 313.414062 194.503906 316.492188 187.476562 317.039062 C 180.457031 316.492188 173.636719 313.414062 168.738281 308.566406 C 160.898438 300.816406 158.011719 289.136719 156.511719 281.019531 C 152.980469 261.933594 153.265625 241.820312 157.324219 222.847656 C 158.359375 218.007812 160.238281 211.109375 164.640625 207.175781 C 165.414062 206.484375 166.269531 205.875 167.195312 205.382812 C 168.667969 204.59375 170.390625 204.0625 172.078125 203.585938 C 174.558594 204.679688 177.152344 205.242188 179.71875 205.242188 C 180.425781 205.242188 181.132812 205.207031 181.832031 205.121094 C 183.78125 204.878906 185.660156 204.324219 187.476562 203.765625 C 189.296875 204.324219 191.175781 204.878906 193.125 205.121094 C 193.828125 205.207031 194.53125 205.242188 195.234375 205.242188 C 197.796875 205.242188 200.394531 204.679688 202.878906 203.585938 C 204.566406 204.0625 206.292969 204.59375 207.757812 205.371094 C 208.6875 205.875 209.542969 206.484375 210.324219 207.179688 C 214.71875 211.117188 216.597656 218.007812 217.628906 222.847656 " fill-opacity="1" fill-rule="nonzero"/><path fill="#eee1f3" d="M 182.886719 198.050781 C 184.445312 197.246094 183.773438 195.140625 182 195.589844 C 173.621094 197.71875 169.742188 189.183594 168.984375 182.316406 C 168.15625 174.789062 170.59375 168.882812 172.542969 161.8125 C 172.734375 161.125 171.613281 160.914062 171.242188 161.335938 C 165.5 167.941406 164.25 179.359375 166.328125 187.609375 C 168.125 194.738281 175.089844 202.050781 182.886719 198.050781 Z M 208.488281 187.84375 C 210.703125 179.65625 209.660156 167.898438 203.765625 161.359375 C 203.308594 160.847656 202.238281 161.183594 202.441406 161.933594 C 204.21875 168.613281 206.613281 174.273438 206.074219 181.390625 C 205.542969 188.390625 202.117188 197.769531 193.332031 195.621094 C 191.976562 195.285156 190.011719 197.070312 191.75 198.003906 C 199.371094 202.074219 206.597656 194.835938 208.488281 187.84375 Z M 213.25 174.242188 C 213.621094 176.5 213.765625 178.714844 213.679688 180.835938 C 213.585938 183.199219 213.199219 185.464844 212.535156 187.574219 C 212.375 188.082031 212.1875 188.605469 211.960938 189.152344 C 210.046875 193.847656 206.308594 197.910156 201.945312 200.007812 C 199.226562 201.320312 196.328125 201.839844 193.570312 201.503906 C 191.746094 201.277344 189.851562 200.6875 188.019531 200.121094 L 188.007812 200.121094 C 187.726562 200.03125 187.421875 200.015625 187.113281 200.082031 C 187.066406 200.085938 187.007812 200.097656 186.953125 200.109375 C 186.949219 200.121094 186.941406 200.121094 186.941406 200.121094 C 185.105469 200.6875 183.214844 201.277344 181.386719 201.503906 C 178.621094 201.839844 175.730469 201.320312 173.011719 200.007812 C 168.648438 197.910156 164.910156 193.847656 162.988281 189.148438 C 162.769531 188.605469 162.582031 188.082031 162.421875 187.574219 C 161.757812 185.464844 161.371094 183.203125 161.277344 180.832031 C 161.1875 178.714844 161.335938 176.5 161.707031 174.234375 C 162.367188 170.171875 163.746094 165.953125 165.804688 161.710938 C 166.222656 160.855469 166.648438 160.03125 167.085938 159.25 C 168.226562 157.160156 169.503906 155.25 170.855469 153.574219 C 171.90625 152.269531 173.015625 151.097656 174.160156 150.097656 C 175.800781 148.652344 177.542969 147.507812 179.378906 146.671875 C 180.894531 145.980469 182.550781 145.527344 184.304688 145.332031 C 185.324219 145.214844 186.34375 145.199219 187.332031 145.277344 C 187.371094 145.277344 187.40625 145.269531 187.433594 145.269531 C 187.5 145.269531 187.566406 145.277344 187.632812 145.277344 C 188.621094 145.199219 189.640625 145.214844 190.660156 145.332031 C 192.40625 145.527344 194.066406 145.980469 195.585938 146.675781 C 197.414062 147.507812 199.160156 148.652344 200.796875 150.097656 C 201.941406 151.097656 203.046875 152.269531 204.101562 153.574219 C 205.457031 155.25 206.722656 157.160156 207.878906 159.261719 C 208.308594 160.03125 208.738281 160.855469 209.152344 161.699219 C 211.214844 165.953125 212.585938 170.167969 213.25 174.242188 " fill-opacity="1" fill-rule="nonzero"/><g clip-path="url(#794e011d96)"><path fill="#dcc9e8" d="M 168.984375 182.316406 C 168.15625 174.789062 170.59375 168.882812 172.542969 161.8125 C 172.734375 161.125 171.613281 160.914062 171.242188 161.335938 C 165.5 167.941406 164.25 179.359375 166.328125 187.609375 C 168.125 194.738281 175.089844 202.050781 182.886719 198.050781 C 184.445312 197.246094 183.773438 195.140625 182 195.589844 C 173.621094 197.71875 169.742188 189.183594 168.984375 182.316406 Z M 175.769531 301.59375 C 172.539062 298.234375 170.191406 294.042969 168.542969 289.707031 C 165.148438 280.816406 163.957031 270.988281 163.070312 261.578125 C 161.5625 245.5625 158.265625 214.929688 180.097656 211.074219 C 181.140625 210.890625 181.46875 209.414062 180.179688 209.363281 C 171.765625 209.027344 164.949219 215.414062 161.78125 222.800781 C 157.347656 233.148438 158.332031 245.640625 159.039062 256.597656 C 159.800781 268.429688 160.945312 281.214844 165.375 292.316406 C 168.695312 300.617188 175.207031 309.613281 184.640625 310.957031 C 185.929688 311.136719 187.152344 309.390625 185.785156 308.609375 C 182.203125 306.554688 178.65625 304.609375 175.769531 301.59375 Z M 202.441406 161.933594 C 204.21875 168.613281 206.613281 174.273438 206.074219 181.390625 C 205.542969 188.390625 202.117188 197.769531 193.332031 195.621094 C 191.976562 195.285156 190.011719 197.070312 191.75 198.003906 C 199.371094 202.074219 206.597656 194.835938 208.488281 187.84375 C 210.703125 179.65625 209.660156 167.898438 203.765625 161.359375 C 203.308594 160.847656 202.238281 161.183594 202.441406 161.933594 Z M 194.859375 209.363281 C 193.671875 209.40625 193.636719 210.878906 194.777344 211.082031 C 216.269531 214.914062 213.375 244.605469 212 260.488281 C 211.152344 270.265625 209.984375 280.488281 206.511719 289.722656 C 203.175781 298.578125 197.660156 304.132812 189.492188 308.550781 C 187.976562 309.375 188.605469 311.1875 190.339844 310.925781 C 199.339844 309.539062 205.929688 300.773438 209.253906 292.871094 C 213.839844 282 215.003906 269.339844 215.832031 257.683594 C 216.621094 246.773438 217.628906 234.253906 213.664062 223.816406 C 210.636719 215.839844 203.796875 209.050781 194.859375 209.363281 Z M 29.492188 104.925781 C 31.035156 86.371094 27.917969 67.167969 20.617188 50.128906 L 26.746094 108.902344 C 26.839844 108.691406 26.929688 108.480469 26.984375 108.269531 C 27.007812 108.183594 27.03125 108.078125 27.058594 107.972656 C 27.203125 107.320312 27.429688 106.332031 28.253906 105.59375 C 28.632812 105.257812 29.050781 105.042969 29.492188 104.925781 Z M 40.414062 255.234375 C 40.421875 254.570312 40.421875 253.910156 40.429688 253.246094 C 34.535156 253.726562 29.164062 255 24.453125 257.0625 C 19.789062 259.113281 15.671875 262.007812 12.453125 265.445312 C 16.847656 263.972656 20.378906 262.65625 23.652344 261.269531 C 24.601562 260.871094 25.539062 260.460938 26.484375 260.054688 C 30.984375 258.101562 35.617188 256.09375 40.414062 255.234375 Z M 68.128906 178.152344 C 68.238281 177.746094 68.363281 177.324219 68.515625 176.902344 C 54.554688 163.84375 46.191406 145.730469 38.808594 129.691406 C 35.925781 123.4375 32.933594 116.972656 31.078125 110.09375 C 30.96875 109.707031 30.773438 109.296875 30.558594 108.984375 C 30.539062 109.066406 30.523438 109.136719 30.503906 109.210938 C 30.058594 110.863281 29.039062 112.132812 28.136719 113.257812 C 27.699219 113.792969 27.292969 114.304688 26.972656 114.816406 L 26.964844 114.820312 C 26.957031 114.835938 26.953125 114.851562 26.941406 114.863281 C 26.90625 114.925781 26.871094 114.980469 26.832031 115.046875 C 24.628906 118.910156 27.089844 124.023438 29.789062 128.929688 C 32.507812 133.855469 34.976562 138.996094 37.371094 143.957031 C 40.457031 150.382812 43.652344 157.023438 47.378906 163.179688 C 53.210938 172.8125 59.789062 180.042969 66.984375 184.746094 C 67.007812 182.507812 67.554688 180.242188 68.128906 178.152344 Z M 85.46875 321.109375 C 84.96875 320.375 84.476562 319.636719 83.980469 318.910156 C 71.148438 324.90625 60.699219 335.527344 54.832031 348.347656 C 64.597656 338.796875 74.875 329.660156 85.46875 321.109375 Z M 98.402344 81.917969 C 99.058594 79.933594 99.738281 77.886719 99.65625 75.976562 C 99.65625 75.96875 99.65625 75.953125 99.65625 75.941406 C 99.65625 75.925781 99.65625 75.910156 99.65625 75.902344 C 99.65625 75.898438 99.65625 75.898438 99.65625 75.898438 C 99.65625 75.765625 99.644531 75.648438 99.628906 75.519531 C 99.269531 72.097656 96.242188 69.699219 93.441406 69.09375 C 93.261719 69.050781 93.105469 69.023438 92.957031 69 C 91.652344 68.804688 90.617188 68.957031 89.90625 69.46875 C 88.46875 70.480469 87.988281 72.988281 87.683594 75.550781 C 85.585938 93.253906 84.832031 111.28125 85.386719 129.175781 C 86.347656 128.773438 87.359375 128.5 88.394531 128.375 C 89.320312 128.265625 90.273438 128.257812 91.277344 128.332031 C 90.558594 114.085938 92.929688 98.523438 98.367188 82.027344 Z M 108.988281 231.339844 C 107.84375 230.304688 106.765625 228.847656 105.769531 226.988281 C 100.566406 232.003906 94.683594 236.207031 88.257812 239.496094 C 76.78125 245.347656 63.058594 248.613281 45.058594 249.773438 C 44.59375 249.804688 44.28125 249.847656 44.132812 249.90625 C 44.089844 250.085938 44.089844 250.484375 44.089844 250.621094 L 44.082031 251.726562 C 44.070312 253.417969 44.054688 255.105469 44.046875 256.796875 C 44.039062 257.050781 44.039062 257.238281 44.039062 257.4375 C 44.03125 257.851562 44.03125 258.246094 44.097656 258.582031 C 44.140625 258.828125 44.191406 258.898438 44.207031 258.929688 C 44.367188 259.171875 44.867188 259.457031 46.410156 259.492188 C 61.59375 259.863281 76.121094 253.039062 89.679688 246.011719 C 94.796875 243.367188 99.34375 240.902344 103.214844 237.558594 C 105.222656 235.816406 107.121094 233.769531 108.988281 231.339844 Z M 131.394531 263.683594 C 130.828125 263.363281 130.242188 262.984375 129.648438 262.523438 C 129.292969 262.25 128.9375 261.957031 128.585938 261.65625 C 118.683594 282.820312 101.433594 300.007812 85.902344 315.25 C 85.972656 315.359375 86.054688 315.46875 86.128906 315.578125 C 87.21875 317.203125 88.3125 318.8125 89.402344 320.425781 C 89.4375 320.472656 89.472656 320.527344 89.5 320.578125 C 89.523438 320.609375 89.53125 320.621094 89.554688 320.644531 C 89.707031 320.882812 90.078125 321.429688 90.261719 321.496094 C 90.273438 321.503906 90.742188 321.597656 91.972656 320.273438 C 105.609375 305.519531 117.523438 289.128906 127.371094 271.5625 C 128.59375 269.382812 130.097656 266.605469 131.394531 263.683594 Z M 131.753906 36.378906 C 134.589844 32.414062 137.304688 27.980469 137.464844 23.832031 C 125.15625 39.019531 111.644531 53.382812 97.242188 66.636719 C 99.65625 67.90625 101.554688 69.953125 102.546875 72.382812 C 113.695312 61.636719 122.867188 48.808594 131.753906 36.378906 Z M 147.960938 189.941406 C 146.703125 188.207031 145.863281 186.078125 145.585938 183.804688 C 145.566406 183.570312 145.558594 183.332031 145.542969 183.097656 C 133.121094 193.90625 121.074219 205.308594 109.707031 217.03125 C 108.652344 218.117188 107.757812 219.101562 107.507812 220.152344 C 107.304688 220.972656 107.453125 221.914062 107.984375 223.21875 C 108.238281 223.824219 108.558594 224.457031 108.871094 225.078125 C 109.992188 227.226562 111.242188 228.746094 112.378906 229.34375 C 112.910156 229.621094 113.390625 229.683594 113.882812 229.554688 C 114.800781 229.3125 115.609375 228.351562 116.5 227.214844 C 126.378906 214.464844 136.960938 201.933594 147.960938 189.941406 Z M 146.492188 168.503906 C 146.4375 166.332031 146.539062 164.128906 147.164062 162.101562 C 142.945312 163.625 138.609375 164.742188 134.394531 165.820312 L 122.273438 168.925781 C 106.664062 172.917969 90.53125 177.054688 74.015625 177.054688 C 73.457031 177.054688 72.832031 177.046875 72.550781 177.199219 C 72.4375 177.257812 72.34375 177.351562 72.257812 177.488281 C 71.976562 177.90625 71.789062 178.539062 71.636719 179.109375 C 70.847656 181.976562 70.105469 185.210938 71.105469 187.609375 C 71.246094 187.941406 71.394531 188.238281 71.578125 188.488281 C 72.886719 190.421875 75.472656 191.105469 77.460938 191.105469 C 80.011719 191.105469 82.597656 190.234375 85.09375 189.386719 C 88.375 188.277344 91.652344 187.171875 94.925781 186.0625 L 104.421875 182.847656 C 115.210938 179.195312 125.996094 175.546875 136.773438 171.871094 C 140.078125 170.746094 143.308594 169.640625 146.492188 168.503906 Z M 155.738281 205.382812 C 154.4375 204.527344 153.308594 203.464844 152.421875 202.230469 C 151.714844 201.253906 151.167969 200.160156 150.769531 199.007812 C 145.238281 207.421875 142.441406 217.421875 139.507812 227.941406 C 137.03125 236.820312 134.464844 246 130.085938 254.199219 L 130.015625 254.339844 C 129.628906 255.058594 129.273438 255.738281 129.25 256.296875 C 129.242188 256.65625 129.347656 257.019531 129.597656 257.40625 C 129.605469 257.421875 129.605469 257.429688 129.613281 257.441406 C 130.09375 258.207031 130.980469 258.953125 131.867188 259.636719 C 132.761719 260.324219 133.601562 260.789062 134.285156 260.992188 C 135.09375 261.234375 135.339844 261.023438 135.449219 260.9375 C 135.703125 260.722656 135.929688 260.183594 136.101562 259.761719 C 138.941406 253.003906 140.851562 245.722656 142.699219 238.6875 C 143.652344 235.085938 144.625 231.363281 145.722656 227.722656 C 148.542969 218.34375 151.75 211.183594 155.738281 205.382812 Z M 152.566406 147.691406 C 152.851562 146.839844 153.28125 146.027344 153.816406 145.285156 C 134.96875 143.359375 116.292969 139.46875 98.242188 133.699219 L 98.019531 133.628906 C 96.332031 133.089844 94.582031 132.535156 92.886719 132.214844 L 92.882812 132.210938 C 91.367188 131.914062 90.042969 131.84375 88.828125 131.988281 C 87.378906 132.164062 85.921875 132.796875 84.84375 133.734375 C 84.164062 134.332031 83.308594 135.328125 83.1875 136.699219 C 82.808594 140.78125 88.652344 143.429688 91.183594 144.375 C 110.5 151.621094 131.496094 154.222656 152.019531 151.957031 C 151.925781 150.46875 152.109375 149.039062 152.566406 147.691406 Z M 159.203125 189.414062 C 159.109375 189.160156 159.023438 188.90625 158.949219 188.65625 C 158.191406 186.261719 157.75 183.671875 157.648438 180.984375 C 157.574219 179.3125 157.636719 177.59375 157.828125 175.835938 C 157.3125 175.851562 156.789062 175.859375 156.269531 175.859375 C 155.109375 175.859375 153.933594 175.828125 152.757812 175.777344 C 152.378906 175.75 151.976562 175.71875 151.5625 175.667969 C 150.703125 176.667969 150.027344 177.871094 149.613281 179.210938 C 149.179688 180.589844 149.042969 182.027344 149.203125 183.367188 C 149.449219 185.429688 150.355469 187.375 151.671875 188.710938 C 152.113281 189.167969 152.59375 189.539062 153.113281 189.824219 C 153.140625 189.839844 153.179688 189.863281 153.214844 189.882812 C 153.25 189.914062 153.292969 189.933594 153.332031 189.957031 C 153.679688 190.128906 154 190.246094 154.304688 190.335938 C 156.066406 190.832031 157.972656 190.429688 159.203125 189.414062 Z M 162.53125 160.113281 C 162.644531 159.886719 162.765625 159.660156 162.871094 159.433594 C 161.210938 158.9375 159.699219 158.621094 158.179688 158.574219 C 157.324219 158.554688 156.5 158.625 155.703125 158.800781 C 154.511719 159.054688 152.863281 159.648438 151.738281 161.054688 C 150.054688 163.160156 150.035156 166.316406 150.164062 169.640625 C 150.164062 169.671875 150.164062 169.757812 150.164062 169.777344 C 150.1875 170.265625 150.222656 171.097656 150.496094 171.46875 C 150.535156 171.527344 150.703125 171.753906 151.277344 171.902344 C 151.320312 171.914062 151.363281 171.921875 151.410156 171.9375 C 151.863281 172.058594 152.421875 172.105469 152.953125 172.132812 C 154.777344 172.222656 156.597656 172.238281 158.390625 172.175781 C 159.171875 168.234375 160.566406 164.179688 162.53125 160.113281 Z M 164.65625 156.167969 C 165.296875 155.097656 165.964844 154.0625 166.664062 153.085938 C 163.519531 151.378906 160.601562 148.996094 158.082031 146.085938 C 157.128906 146.792969 156.363281 147.792969 156.007812 148.859375 C 155.566406 150.171875 155.515625 151.621094 155.851562 153.179688 C 155.972656 153.777344 156.15625 154.390625 156.402344 155.003906 C 157.023438 154.9375 157.648438 154.910156 158.285156 154.929688 C 160.574219 155.003906 162.726562 155.554688 164.65625 156.167969 Z M 165.484375 202.15625 C 166.25 201.757812 167.050781 201.421875 167.859375 201.117188 C 164.949219 198.960938 162.457031 196.074219 160.710938 192.820312 C 159.308594 193.703125 157.605469 194.191406 155.855469 194.191406 C 155.136719 194.191406 154.398438 194.105469 153.679688 193.929688 C 153.671875 194.105469 153.644531 194.277344 153.644531 194.445312 C 153.621094 196.515625 154.242188 198.523438 155.367188 200.097656 C 156.300781 201.378906 157.605469 202.421875 159.144531 203.105469 C 160.300781 203.628906 161.546875 203.929688 162.777344 203.980469 C 163.609375 203.296875 164.519531 202.683594 165.484375 202.15625 Z M 168.949219 150.175781 C 169.410156 149.667969 169.867188 149.175781 170.339844 148.703125 C 168.824219 147.160156 167.398438 145.433594 166.082031 143.558594 C 166.074219 143.542969 166.066406 143.527344 166.058594 143.511719 C 166.023438 143.460938 165.992188 143.40625 165.964844 143.355469 C 165.9375 143.292969 165.90625 143.238281 165.886719 143.1875 C 165.878906 143.164062 165.871094 143.148438 165.863281 143.136719 L 165.480469 142.070312 C 162.550781 133.769531 160.988281 123.710938 160.824219 112.152344 C 160.824219 112.015625 160.824219 111.878906 160.820312 111.738281 C 160.703125 112.195312 160.585938 112.648438 160.480469 113.109375 C 160.070312 114.816406 159.726562 116.578125 159.464844 118.363281 C 158.367188 125.84375 158.519531 134.21875 159.886719 142.601562 C 159.925781 142.640625 159.960938 142.675781 160 142.714844 C 160.011719 142.734375 160.035156 142.757812 160.054688 142.777344 C 162.589844 145.960938 165.644531 148.5 168.949219 150.175781 Z M 181.882812 142.042969 C 180.972656 139.605469 178.765625 137.675781 176.308594 137.355469 C 173.511719 137 170.425781 138.820312 169.136719 141.503906 L 169.195312 141.648438 C 170.398438 143.339844 171.695312 144.890625 173.070312 146.285156 C 174.589844 145.101562 176.195312 144.121094 177.867188 143.355469 C 179.132812 142.777344 180.484375 142.339844 181.882812 142.042969 Z M 205.761719 141.648438 L 205.820312 141.503906 C 204.53125 138.820312 201.4375 136.988281 198.640625 137.355469 C 196.191406 137.675781 193.984375 139.605469 193.074219 142.042969 C 194.472656 142.339844 195.828125 142.777344 197.09375 143.359375 C 198.757812 144.121094 200.367188 145.101562 201.890625 146.285156 C 203.265625 144.890625 204.5625 143.339844 205.761719 141.648438 Z M 213.679688 180.835938 C 213.765625 178.714844 213.621094 176.5 213.25 174.242188 C 212.585938 170.167969 211.214844 165.953125 209.152344 161.699219 C 208.738281 160.855469 208.308594 160.03125 207.878906 159.261719 C 206.722656 157.160156 205.457031 155.25 204.101562 153.574219 C 203.046875 152.269531 201.941406 151.097656 200.796875 150.097656 C 199.160156 148.652344 197.414062 147.507812 195.585938 146.675781 C 194.066406 145.980469 192.40625 145.527344 190.660156 145.332031 C 189.640625 145.214844 188.621094 145.199219 187.632812 145.277344 C 187.566406 145.277344 187.5 145.269531 187.433594 145.269531 C 187.40625 145.269531 187.371094 145.277344 187.332031 145.277344 C 186.34375 145.199219 185.324219 145.214844 184.304688 145.332031 C 182.550781 145.527344 180.894531 145.980469 179.378906 146.671875 C 177.542969 147.507812 175.800781 148.652344 174.160156 150.097656 C 173.015625 151.097656 171.90625 152.269531 170.855469 153.574219 C 169.503906 155.25 168.226562 157.160156 167.085938 159.25 C 166.648438 160.03125 166.222656 160.855469 165.804688 161.710938 C 163.746094 165.953125 162.367188 170.171875 161.707031 174.234375 C 161.335938 176.5 161.1875 178.714844 161.277344 180.832031 C 161.371094 183.203125 161.757812 185.464844 162.421875 187.574219 C 162.582031 188.082031 162.769531 188.605469 162.988281 189.148438 C 164.910156 193.847656 168.648438 197.910156 173.011719 200.007812 C 175.730469 201.320312 178.621094 201.839844 181.386719 201.503906 C 183.214844 201.277344 185.105469 200.6875 186.941406 200.121094 C 186.941406 200.121094 186.949219 200.121094 186.953125 200.109375 C 187.007812 200.097656 187.066406 200.085938 187.113281 200.082031 C 187.421875 200.015625 187.726562 200.03125 188.007812 200.121094 L 188.019531 200.121094 C 189.851562 200.6875 191.746094 201.277344 193.570312 201.503906 C 196.328125 201.839844 199.226562 201.320312 201.945312 200.007812 C 206.308594 197.910156 210.046875 193.847656 211.960938 189.152344 C 212.1875 188.605469 212.375 188.082031 212.535156 187.574219 C 213.199219 185.464844 213.585938 183.199219 213.679688 180.835938 Z M 215.0625 142.609375 C 216.4375 134.214844 216.589844 125.835938 215.492188 118.359375 C 215.226562 116.578125 214.886719 114.808594 214.480469 113.117188 C 214.371094 112.65625 214.253906 112.195312 214.136719 111.738281 C 214.128906 111.878906 214.128906 112.015625 214.128906 112.152344 C 213.972656 123.710938 212.40625 133.769531 209.488281 142.054688 L 209.09375 143.136719 C 209.085938 143.148438 209.078125 143.164062 209.074219 143.175781 C 209.050781 143.238281 209.023438 143.292969 208.992188 143.355469 C 208.960938 143.410156 208.933594 143.460938 208.898438 143.511719 C 208.890625 143.527344 208.882812 143.542969 208.875 143.558594 C 207.558594 145.4375 206.128906 147.160156 204.617188 148.703125 C 205.09375 149.175781 205.550781 149.667969 206.007812 150.175781 C 209.3125 148.5 212.371094 145.960938 214.902344 142.777344 C 214.917969 142.757812 214.9375 142.742188 214.960938 142.71875 C 214.988281 142.683594 215.027344 142.648438 215.0625 142.609375 Z M 218.445312 281.019531 C 221.976562 261.933594 221.691406 241.820312 217.628906 222.847656 C 216.597656 218.007812 214.71875 211.117188 210.324219 207.179688 C 209.542969 206.484375 208.6875 205.875 207.757812 205.371094 C 206.292969 204.59375 204.566406 204.0625 202.878906 203.585938 C 200.394531 204.679688 197.796875 205.242188 195.234375 205.242188 C 194.53125 205.242188 193.828125 205.207031 193.125 205.121094 C 191.175781 204.878906 189.296875 204.324219 187.476562 203.765625 C 185.660156 204.324219 183.78125 204.878906 181.832031 205.121094 C 181.132812 205.207031 180.425781 205.242188 179.71875 205.242188 C 177.152344 205.242188 174.558594 204.679688 172.078125 203.585938 C 170.390625 204.0625 168.667969 204.59375 167.195312 205.382812 C 166.269531 205.875 165.414062 206.484375 164.640625 207.175781 C 160.238281 211.109375 158.359375 218.007812 157.324219 222.847656 C 153.265625 241.820312 152.980469 261.933594 156.511719 281.019531 C 158.011719 289.136719 160.898438 300.816406 168.738281 308.566406 C 173.636719 313.414062 180.457031 316.492188 187.476562 317.039062 C 194.503906 316.492188 201.320312 313.414062 206.21875 308.566406 C 214.054688 300.824219 216.949219 289.136719 218.445312 281.019531 Z M 219.109375 153.1875 C 219.445312 151.621094 219.394531 150.171875 218.949219 148.863281 C 218.589844 147.792969 217.828125 146.792969 216.875 146.085938 C 214.355469 148.996094 211.4375 151.378906 208.292969 153.085938 C 208.992188 154.0625 209.660156 155.089844 210.304688 156.167969 C 212.230469 155.554688 214.386719 155.003906 216.671875 154.929688 C 217.304688 154.914062 217.9375 154.9375 218.558594 155.003906 C 218.804688 154.390625 218.984375 153.777344 219.109375 153.1875 Z M 219.589844 200.097656 C 220.71875 198.523438 221.335938 196.515625 221.316406 194.453125 C 221.316406 194.277344 221.285156 194.105469 221.277344 193.929688 C 220.558594 194.105469 219.820312 194.191406 219.101562 194.191406 C 217.355469 194.191406 215.652344 193.703125 214.246094 192.820312 C 212.507812 196.074219 210.011719 198.960938 207.101562 201.117188 C 207.90625 201.421875 208.707031 201.75 209.464844 202.15625 C 210.433594 202.675781 211.34375 203.289062 212.171875 203.980469 C 213.410156 203.921875 214.652344 203.628906 215.804688 203.113281 C 217.355469 202.421875 218.65625 201.378906 219.589844 200.097656 Z M 224.792969 169.714844 C 224.925781 166.316406 224.902344 163.160156 223.222656 161.054688 C 222.09375 159.648438 220.449219 159.054688 219.269531 158.800781 C 218.46875 158.625 217.628906 158.546875 216.78125 158.574219 C 215.257812 158.621094 213.742188 158.9375 212.085938 159.433594 C 212.195312 159.660156 212.3125 159.878906 212.417969 160.113281 C 214.390625 164.171875 215.78125 168.226562 216.570312 172.175781 C 218.359375 172.238281 220.1875 172.222656 222.027344 172.132812 C 222.542969 172.105469 223.105469 172.058594 223.554688 171.9375 C 224.238281 171.769531 224.421875 171.527344 224.480469 171.457031 C 224.734375 171.097656 224.773438 170.265625 224.792969 169.714844 Z M 225.753906 183.367188 C 225.914062 182.027344 225.773438 180.589844 225.347656 179.210938 C 224.929688 177.871094 224.253906 176.667969 223.394531 175.667969 C 222.996094 175.71875 222.59375 175.75 222.222656 175.769531 C 221.03125 175.828125 219.851562 175.859375 218.683594 175.859375 C 218.160156 175.859375 217.648438 175.851562 217.128906 175.835938 C 217.316406 177.59375 217.382812 179.3125 217.3125 180.984375 C 217.210938 183.671875 216.765625 186.253906 216.007812 188.667969 C 215.9375 188.90625 215.847656 189.160156 215.753906 189.414062 C 216.984375 190.429688 218.890625 190.824219 220.644531 190.335938 C 220.957031 190.246094 221.277344 190.128906 221.589844 189.96875 C 221.664062 189.933594 221.707031 189.914062 221.742188 189.882812 C 221.777344 189.863281 221.816406 189.839844 221.847656 189.824219 C 222.359375 189.539062 222.839844 189.167969 223.277344 188.722656 C 224.605469 187.375 225.503906 185.429688 225.753906 183.367188 Z M 245.359375 257.40625 C 245.605469 257.027344 245.714844 256.65625 245.710938 256.285156 C 245.6875 255.738281 245.332031 255.058594 244.945312 254.339844 L 244.875 254.191406 C 240.488281 246 237.929688 236.820312 235.445312 227.9375 C 232.511719 217.421875 229.722656 207.421875 224.195312 199.007812 C 223.789062 200.160156 223.242188 201.253906 222.542969 202.222656 C 221.648438 203.464844 220.519531 204.519531 219.21875 205.382812 C 223.203125 211.175781 226.414062 218.34375 229.230469 227.722656 C 230.328125 231.363281 231.308594 235.085938 232.261719 238.6875 C 234.109375 245.726562 236.023438 253.003906 238.851562 259.761719 C 239.027344 260.183594 239.253906 260.722656 239.507812 260.925781 C 239.617188 261.023438 239.863281 261.234375 240.667969 260.992188 C 241.355469 260.789062 242.191406 260.324219 243.089844 259.636719 C 243.976562 258.953125 244.867188 258.207031 245.347656 257.4375 C 245.351562 257.429688 245.351562 257.421875 245.359375 257.40625 Z M 266.984375 223.199219 C 267.507812 221.914062 267.652344 220.972656 267.445312 220.152344 C 267.203125 219.101562 266.308594 218.117188 265.253906 217.035156 C 253.882812 205.300781 241.835938 193.90625 229.414062 183.097656 C 229.398438 183.332031 229.390625 183.570312 229.371094 183.796875 C 229.09375 186.078125 228.257812 188.199219 226.996094 189.933594 C 237.988281 201.925781 248.578125 214.464844 258.46875 227.214844 C 259.347656 228.351562 260.148438 229.3125 261.074219 229.554688 C 261.566406 229.683594 262.046875 229.621094 262.570312 229.34375 C 263.714844 228.746094 264.96875 227.226562 266.085938 225.0625 C 266.390625 224.464844 266.71875 223.832031 266.984375 223.199219 Z M 272.414062 72.382812 C 273.394531 69.960938 275.292969 67.914062 277.722656 66.636719 C 263.316406 53.382812 249.796875 39.019531 237.492188 23.832031 C 237.644531 27.980469 240.367188 32.414062 243.207031 36.378906 C 252.09375 48.808594 261.261719 61.636719 272.414062 72.382812 Z M 288.824219 315.585938 C 288.90625 315.476562 288.976562 315.359375 289.054688 315.25 C 273.523438 300.007812 256.269531 282.820312 246.371094 261.65625 C 246.023438 261.957031 245.667969 262.25 245.308594 262.523438 C 244.710938 262.984375 244.128906 263.363281 243.5625 263.683594 C 244.851562 266.605469 246.363281 269.375 247.585938 271.5625 C 257.433594 289.128906 269.347656 305.519531 282.996094 320.273438 C 284.21875 321.597656 284.6875 321.503906 284.6875 321.503906 C 284.878906 321.429688 285.25 320.882812 285.402344 320.644531 C 285.417969 320.621094 285.441406 320.601562 285.453125 320.578125 C 285.480469 320.527344 285.519531 320.472656 285.554688 320.425781 C 286.652344 318.8125 287.738281 317.203125 288.824219 315.585938 Z M 289.574219 129.175781 C 290.128906 111.28125 289.367188 93.253906 287.273438 75.546875 C 286.96875 72.988281 286.480469 70.480469 285.054688 69.46875 C 284.339844 68.957031 283.308594 68.804688 281.984375 69 C 281.851562 69.023438 281.699219 69.050781 281.558594 69.089844 C 278.714844 69.699219 275.6875 72.097656 275.332031 75.5 C 275.316406 75.648438 275.300781 75.765625 275.300781 75.898438 C 275.300781 75.917969 275.300781 75.949219 275.300781 75.96875 C 275.222656 77.871094 275.898438 79.921875 276.550781 81.898438 L 276.589844 82.027344 C 282.023438 98.523438 284.398438 114.085938 283.675781 128.332031 C 284.675781 128.257812 285.636719 128.265625 286.550781 128.367188 C 287.59375 128.5 288.613281 128.773438 289.574219 129.175781 Z M 283.773438 144.375 C 286.308594 143.429688 292.148438 140.78125 291.769531 136.707031 C 291.644531 135.328125 290.796875 134.332031 290.105469 133.722656 C 289.035156 132.796875 287.582031 132.164062 286.125 131.988281 C 284.914062 131.84375 283.582031 131.914062 282.078125 132.210938 C 280.375 132.535156 278.628906 133.089844 276.9375 133.628906 L 276.714844 133.699219 C 258.664062 139.46875 239.988281 143.359375 221.136719 145.285156 C 221.679688 146.027344 222.109375 146.84375 222.398438 147.699219 C 222.851562 149.039062 223.03125 150.46875 222.9375 151.957031 C 243.460938 154.222656 264.449219 151.621094 283.773438 144.375 Z M 303.851562 187.609375 C 304.855469 185.210938 304.105469 181.976562 303.320312 179.125 C 303.167969 178.539062 302.980469 177.90625 302.710938 177.507812 C 302.617188 177.351562 302.519531 177.257812 302.417969 177.207031 C 302.128906 177.046875 301.488281 177.054688 300.941406 177.054688 C 284.425781 177.054688 268.292969 172.917969 252.679688 168.925781 L 240.5625 165.820312 C 236.351562 164.742188 232.003906 163.625 227.789062 162.101562 C 228.417969 164.117188 228.511719 166.316406 228.46875 168.503906 C 231.65625 169.640625 234.878906 170.753906 238.183594 171.871094 C 248.960938 175.546875 259.75 179.195312 270.535156 182.847656 L 280.039062 186.0625 C 283.308594 187.171875 286.582031 188.277344 289.859375 189.382812 C 292.363281 190.234375 294.945312 191.105469 297.5 191.105469 C 299.488281 191.105469 302.070312 190.421875 303.378906 188.5 C 303.5625 188.238281 303.714844 187.941406 303.851562 187.609375 Z M 320.125 348.347656 C 314.261719 335.527344 303.808594 324.90625 290.972656 318.910156 C 290.472656 319.644531 289.980469 320.375 289.484375 321.109375 C 300.082031 329.660156 310.359375 338.796875 320.125 348.347656 Z M 330.851562 258.617188 C 330.917969 258.253906 330.925781 257.851562 330.917969 257.464844 C 330.917969 257.238281 330.917969 257.050781 330.914062 256.851562 C 330.902344 255.03125 330.890625 253.28125 330.875 251.511719 L 330.867188 250.621094 C 330.867188 250.484375 330.867188 250.085938 330.824219 249.90625 C 330.679688 249.847656 330.367188 249.804688 329.898438 249.773438 C 311.902344 248.613281 298.175781 245.347656 286.699219 239.496094 C 280.269531 236.207031 274.390625 232.003906 269.1875 226.988281 C 268.191406 228.847656 267.113281 230.304688 265.972656 231.339844 C 267.832031 233.769531 269.734375 235.816406 271.75 237.558594 C 275.613281 240.902344 280.164062 243.367188 285.277344 246.011719 C 298.839844 253.039062 313.367188 259.871094 328.546875 259.492188 C 330.089844 259.457031 330.589844 259.171875 330.746094 258.9375 C 330.765625 258.898438 330.820312 258.828125 330.851562 258.617188 Z M 345.167969 128.929688 C 347.867188 124.023438 350.328125 118.910156 348.117188 115.03125 L 347.957031 114.765625 C 347.664062 114.304688 347.257812 113.792969 346.820312 113.257812 C 345.925781 112.132812 344.898438 110.863281 344.457031 109.214844 C 344.441406 109.136719 344.417969 109.066406 344.398438 108.984375 C 344.1875 109.304688 343.988281 109.707031 343.882812 110.097656 C 342.015625 116.972656 339.035156 123.4375 336.152344 129.699219 C 328.761719 145.730469 320.402344 163.84375 306.441406 176.902344 C 306.597656 177.324219 306.726562 177.753906 306.835938 178.175781 C 307.402344 180.246094 307.949219 182.511719 307.972656 184.746094 C 315.171875 180.042969 321.75 172.8125 327.578125 163.179688 C 331.304688 157.023438 334.5 150.382812 337.585938 143.957031 C 339.980469 138.996094 342.445312 133.855469 345.167969 128.929688 Z M 348.210938 108.902344 L 354.339844 50.128906 C 347.039062 67.167969 343.925781 86.371094 345.46875 104.914062 C 345.902344 105.042969 346.328125 105.257812 346.695312 105.59375 C 347.527344 106.332031 347.753906 107.320312 347.90625 107.972656 C 347.925781 108.078125 347.949219 108.183594 347.980469 108.285156 C 348.03125 108.496094 348.117188 108.699219 348.210938 108.902344 Z M 362.507812 265.445312 C 359.289062 262.007812 355.167969 259.113281 350.503906 257.0625 C 345.796875 255 340.425781 253.726562 334.527344 253.238281 C 334.527344 253.898438 334.539062 254.570312 334.542969 255.234375 C 339.339844 256.09375 343.976562 258.101562 348.472656 260.054688 C 349.421875 260.460938 350.359375 260.871094 351.296875 261.269531 C 354.578125 262.65625 358.109375 263.972656 362.507812 265.445312 Z M 369.074219 268.019531 C 369.484375 268.667969 369.449219 269.5 368.980469 270.105469 C 368.625 270.5625 368.09375 270.8125 367.539062 270.8125 C 367.359375 270.8125 367.171875 270.792969 366.996094 270.730469 L 366.761719 270.660156 C 365.832031 270.363281 364.898438 270.066406 363.96875 269.769531 C 358.226562 267.902344 353.890625 266.320312 349.886719 264.625 C 348.941406 264.222656 347.988281 263.816406 347.027344 263.398438 C 342.914062 261.613281 338.683594 259.777344 334.484375 258.921875 C 334.472656 259.03125 334.457031 259.140625 334.433594 259.257812 C 334.332031 259.871094 334.121094 260.433594 333.796875 260.9375 C 332.410156 263.050781 329.667969 263.113281 328.636719 263.136719 C 328.199219 263.144531 327.757812 263.152344 327.332031 263.152344 C 311.769531 263.152344 297.207031 256.296875 283.605469 249.257812 C 278.285156 246.492188 273.539062 243.921875 269.367188 240.3125 C 267.039062 238.300781 264.867188 235.9375 262.753906 233.125 C 262.351562 233.210938 261.953125 233.265625 261.554688 233.265625 C 261.078125 233.265625 260.617188 233.203125 260.148438 233.082031 C 257.964844 232.507812 256.589844 230.742188 255.589844 229.453125 C 245.929688 216.984375 235.59375 204.742188 224.859375 193.003906 C 224.886719 193.265625 224.90625 193.527344 224.925781 193.789062 C 232.347656 203.363281 235.707031 215.34375 238.949219 226.957031 C 241.378906 235.648438 243.890625 244.632812 248.082031 252.480469 L 248.160156 252.632812 C 248.664062 253.582031 249.289062 254.769531 249.347656 256.167969 C 249.371094 256.957031 249.210938 257.710938 248.90625 258.441406 C 258.597656 280.269531 276.691406 298.023438 292.6875 313.710938 C 293.261719 314.273438 293.386719 315.140625 293.023438 315.839844 C 309.050781 323.511719 321.484375 338.007812 326.5 355.023438 C 326.734375 355.824219 326.398438 356.683594 325.679688 357.105469 C 325.394531 357.277344 325.074219 357.359375 324.753906 357.359375 C 324.28125 357.359375 323.808594 357.171875 323.457031 356.8125 C 312.09375 345.253906 299.9375 334.238281 287.324219 324.046875 C 286.960938 324.390625 286.523438 324.707031 285.976562 324.90625 C 285.546875 325.074219 285.105469 325.15625 284.652344 325.15625 C 283.265625 325.15625 281.808594 324.355469 280.324219 322.75 C 266.480469 307.785156 254.40625 291.164062 244.414062 273.347656 C 243.089844 270.996094 241.445312 267.960938 240.046875 264.75 C 240.039062 264.75 240.027344 264.75 240.019531 264.75 C 238.707031 264.75 237.777344 264.238281 237.164062 263.722656 C 236.25 262.945312 235.8125 261.925781 235.496094 261.175781 C 232.566406 254.179688 230.621094 246.777344 228.738281 239.613281 C 227.800781 236.050781 226.828125 232.351562 225.753906 228.773438 C 222.964844 219.507812 219.8125 212.539062 215.898438 206.980469 C 215.675781 207.050781 215.441406 207.101562 215.207031 207.167969 C 218.640625 211.722656 220.25 217.679688 221.1875 222.085938 C 225.355469 241.523438 225.636719 262.128906 222.019531 281.679688 C 220.441406 290.28125 217.339844 302.6875 208.773438 311.160156 C 203.242188 316.636719 195.527344 320.105469 187.613281 320.683594 C 187.566406 320.6875 187.523438 320.6875 187.488281 320.6875 C 187.476562 320.6875 187.476562 320.6875 187.476562 320.6875 C 187.476562 320.6875 187.476562 320.6875 187.472656 320.6875 C 187.433594 320.6875 187.390625 320.6875 187.347656 320.683594 C 179.429688 320.105469 171.714844 316.636719 166.183594 311.160156 C 157.609375 302.6875 154.515625 290.28125 152.929688 281.679688 C 149.320312 262.128906 149.605469 241.523438 153.769531 222.085938 C 154.707031 217.683594 156.316406 211.722656 159.75 207.167969 C 159.519531 207.101562 159.285156 207.050781 159.058594 206.980469 C 155.140625 212.539062 151.992188 219.507812 149.203125 228.773438 C 148.128906 232.351562 147.160156 236.039062 146.222656 239.613281 C 144.335938 246.773438 142.390625 254.179688 139.460938 261.175781 C 139.144531 261.925781 138.710938 262.945312 137.792969 263.722656 C 137.179688 264.238281 136.25 264.75 134.941406 264.75 C 134.933594 264.75 134.917969 264.75 134.910156 264.75 C 133.511719 267.96875 131.867188 270.996094 130.535156 273.347656 C 120.550781 291.164062 108.476562 307.785156 94.636719 322.75 C 93.148438 324.355469 91.703125 325.15625 90.304688 325.15625 C 89.851562 325.15625 89.40625 325.074219 88.972656 324.90625 C 88.425781 324.707031 87.996094 324.390625 87.632812 324.046875 C 75.019531 334.238281 62.867188 345.246094 51.496094 356.8125 C 51.152344 357.171875 50.675781 357.359375 50.203125 357.359375 C 49.882812 357.359375 49.5625 357.277344 49.28125 357.105469 C 48.558594 356.683594 48.21875 355.824219 48.457031 355.023438 C 53.46875 338.007812 65.910156 323.511719 81.933594 315.839844 C 81.570312 315.140625 81.695312 314.273438 82.269531 313.710938 C 98.265625 298.023438 116.359375 280.269531 126.054688 258.441406 C 125.75 257.710938 125.585938 256.957031 125.609375 256.183594 C 125.660156 254.769531 126.296875 253.582031 126.796875 252.632812 L 126.871094 252.488281 C 131.070312 244.632812 133.578125 235.648438 136.007812 226.957031 C 139.246094 215.34375 142.601562 203.363281 150.035156 193.789062 C 150.046875 193.527344 150.070312 193.265625 150.097656 193.003906 C 139.363281 204.742188 129.03125 216.992188 119.363281 229.453125 C 118.367188 230.742188 116.992188 232.507812 114.808594 233.082031 C 114.34375 233.203125 113.878906 233.265625 113.410156 233.265625 C 113.003906 233.265625 112.605469 233.210938 112.203125 233.117188 C 110.09375 235.9375 107.917969 238.300781 105.585938 240.3125 C 101.417969 243.921875 96.671875 246.492188 91.351562 249.257812 C 77.75 256.296875 63.1875 263.152344 47.625 263.152344 C 47.191406 263.152344 46.761719 263.144531 46.324219 263.136719 C 45.292969 263.113281 42.546875 263.050781 41.164062 260.925781 C 40.835938 260.433594 40.625 259.871094 40.515625 259.214844 C 40.496094 259.121094 40.496094 259.027344 40.476562 258.921875 C 36.28125 259.777344 32.046875 261.613281 27.933594 263.398438 C 26.972656 263.816406 26.019531 264.222656 25.074219 264.625 C 21.078125 266.320312 16.730469 267.902344 10.988281 269.769531 C 10.058594 270.066406 9.125 270.363281 8.195312 270.660156 L 7.960938 270.730469 C 7.789062 270.792969 7.597656 270.8125 7.414062 270.8125 C 6.863281 270.8125 6.332031 270.5625 5.972656 270.105469 C 5.511719 269.5 5.472656 268.667969 5.878906 268.019531 C 9.722656 261.898438 15.640625 256.957031 22.992188 253.726562 C 28.175781 251.460938 34.0625 250.074219 40.5 249.585938 C 40.582031 248.949219 40.785156 248.214844 41.304688 247.582031 C 42.34375 246.296875 43.957031 246.1875 44.824219 246.136719 C 62.304688 245.015625 75.578125 241.871094 86.609375 236.246094 C 93.113281 232.929688 99.015625 228.605469 104.195312 223.421875 C 103.839844 222.25 103.601562 220.8125 103.964844 219.296875 C 104.476562 217.191406 105.988281 215.628906 107.09375 214.492188 C 119.496094 201.699219 132.691406 189.300781 146.316406 177.617188 C 146.746094 176.375 147.339844 175.230469 148.074219 174.195312 C 147.894531 174.027344 147.726562 173.84375 147.574219 173.644531 C 147.238281 173.191406 147.019531 172.710938 146.871094 172.238281 C 143.9375 173.277344 140.972656 174.296875 137.945312 175.324219 C 127.160156 179 116.382812 182.652344 105.585938 186.296875 L 96.09375 189.511719 C 92.816406 190.621094 89.542969 191.726562 86.265625 192.835938 C 83.617188 193.730469 80.617188 194.75 77.460938 194.75 C 73.679688 194.75 70.355469 193.175781 68.570312 190.546875 C 68.375 190.261719 68.203125 189.949219 68.035156 189.621094 C 59.175781 184.738281 51.179688 176.484375 44.269531 165.078125 C 40.449219 158.765625 37.21875 152.042969 34.089844 145.542969 C 31.726562 140.621094 29.28125 135.523438 26.609375 130.691406 C 24.265625 126.449219 20.378906 119.390625 23.558594 113.457031 L 16.695312 47.574219 C 16.550781 46.199219 16.957031 44.296875 18.171875 43.371094 C 18.929688 42.785156 19.890625 42.65625 20.792969 42.996094 C 21.222656 43.164062 21.574219 43.488281 21.773438 43.902344 C 31.140625 63.210938 35.019531 84.746094 33.027344 106.234375 C 33.820312 107.125 34.351562 108.277344 34.585938 109.136719 C 36.367188 115.71875 39.289062 122.046875 42.109375 128.167969 C 49.3125 143.808594 57.46875 161.460938 70.769531 174.023438 C 70.785156 174.011719 70.800781 174.007812 70.816406 174 C 71.914062 173.394531 73.070312 173.410156 74.007812 173.410156 C 90.070312 173.410156 105.980469 169.335938 121.375 165.398438 L 133.492188 162.285156 C 138.28125 161.058594 143.234375 159.792969 147.863281 157.9375 C 149.554688 157.261719 151.191406 156.503906 152.769531 155.6875 C 152.757812 155.636719 152.742188 155.59375 152.726562 155.542969 C 147.695312 156.109375 142.640625 156.410156 137.582031 156.410156 C 121.34375 156.410156 105.121094 153.496094 89.910156 147.785156 C 82.800781 145.125 79.125 141.074219 79.5625 136.371094 C 79.722656 134.605469 80.492188 132.964844 81.816406 131.597656 C 81.113281 112.761719 81.867188 93.761719 84.066406 75.117188 C 84.34375 72.832031 84.859375 68.574219 87.800781 66.492188 C 89.242188 65.464844 91.078125 65.09375 93.246094 65.371094 C 109.074219 50.957031 123.839844 35.167969 137.128906 18.429688 C 137.53125 17.921875 138.171875 17.664062 138.808594 17.761719 C 139.453125 17.855469 140 18.277344 140.238281 18.882812 C 142.9375 25.589844 138.964844 32.558594 134.714844 38.5 C 125.269531 51.714844 115.492188 65.371094 103.289062 76.683594 C 103.214844 78.949219 102.503906 81.121094 101.855469 83.0625 L 101.816406 83.171875 C 96.425781 99.542969 94.125 114.925781 94.960938 128.933594 C 96.382812 129.285156 97.773438 129.722656 99.125 130.160156 L 99.34375 130.222656 C 117.773438 136.117188 136.847656 140.015625 156.09375 141.84375 C 154.867188 133.550781 154.773438 125.285156 155.863281 117.832031 C 156.148438 115.945312 156.503906 114.070312 156.941406 112.265625 C 157.421875 110.238281 158.003906 108.277344 158.613281 106.28125 C 158.957031 105.1875 159.292969 104.097656 159.625 103.011719 C 160.273438 100.828125 160.945312 98.457031 161.410156 96 C 161.59375 95.046875 162.480469 94.40625 163.433594 94.527344 C 164.394531 94.660156 165.085938 95.511719 165.011719 96.476562 C 164.785156 99.367188 164.625 102.210938 164.53125 104.929688 C 164.457031 107.3125 164.4375 109.726562 164.464844 112.113281 C 164.597656 121.59375 165.710938 129.992188 167.746094 137.164062 C 170.0625 134.695312 173.441406 133.316406 176.773438 133.738281 C 180.878906 134.277344 184.40625 137.523438 185.566406 141.589844 C 186.210938 141.574219 186.851562 141.589844 187.488281 141.632812 C 188.117188 141.589844 188.75 141.574219 189.390625 141.589844 C 190.550781 137.523438 194.074219 134.277344 198.179688 133.738281 C 201.519531 133.308594 204.902344 134.699219 207.214844 137.171875 C 209.253906 130.007812 210.359375 121.59375 210.492188 112.101562 C 210.519531 109.726562 210.496094 107.3125 210.425781 104.925781 C 210.332031 102.21875 210.171875 99.375 209.945312 96.476562 C 209.871094 95.511719 210.566406 94.660156 211.519531 94.527344 C 212.488281 94.398438 213.367188 95.046875 213.546875 96 C 214.015625 98.457031 214.683594 100.828125 215.339844 103.019531 C 215.660156 104.085938 215.992188 105.15625 216.328125 106.21875 C 216.953125 108.277344 217.535156 110.238281 218.015625 112.269531 C 218.445312 114.066406 218.808594 115.9375 219.09375 117.828125 C 220.1875 125.277344 220.09375 133.542969 218.859375 141.84375 C 238.109375 140.015625 257.1875 136.117188 275.605469 130.222656 L 275.832031 130.160156 C 277.1875 129.722656 278.578125 129.285156 279.996094 128.933594 C 280.824219 114.929688 278.535156 99.542969 273.140625 83.164062 L 273.097656 83.039062 C 272.457031 81.109375 271.742188 78.945312 271.667969 76.683594 C 259.464844 65.371094 249.691406 51.714844 240.242188 38.5 C 235.992188 32.558594 232.019531 25.589844 234.71875 18.882812 C 234.960938 18.277344 235.507812 17.855469 236.144531 17.761719 C 236.785156 17.664062 237.425781 17.921875 237.828125 18.429688 C 251.117188 35.167969 265.882812 50.957031 281.710938 65.371094 C 283.894531 65.09375 285.722656 65.464844 287.164062 66.492188 C 290.097656 68.574219 290.613281 72.828125 290.890625 75.117188 C 293.097656 93.761719 293.847656 112.761719 293.136719 131.597656 C 294.464844 132.972656 295.238281 134.605469 295.394531 136.371094 C 295.832031 141.074219 292.15625 145.125 285.046875 147.785156 C 269.835938 153.496094 253.613281 156.410156 237.378906 156.410156 C 232.320312 156.410156 227.257812 156.109375 222.230469 155.542969 C 222.214844 155.59375 222.203125 155.636719 222.1875 155.6875 C 223.769531 156.511719 225.40625 157.261719 227.089844 157.9375 C 231.722656 159.792969 236.667969 161.058594 241.464844 162.285156 L 253.585938 165.398438 C 268.976562 169.335938 284.886719 173.410156 300.941406 173.410156 C 301.859375 173.410156 303.046875 173.386719 304.15625 174.007812 C 304.167969 174.007812 304.171875 174.011719 304.1875 174.023438 C 317.492188 161.460938 325.640625 143.808594 332.847656 128.167969 C 335.671875 122.046875 338.589844 115.726562 340.375 109.136719 C 340.605469 108.285156 341.128906 107.140625 341.933594 106.242188 C 339.9375 84.753906 343.808594 63.210938 353.179688 43.902344 C 353.386719 43.488281 353.734375 43.164062 354.164062 42.996094 C 355.066406 42.648438 356.027344 42.785156 356.78125 43.359375 C 358 44.296875 358.410156 46.199219 358.269531 47.570312 L 351.398438 113.457031 C 354.578125 119.402344 350.695312 126.457031 348.351562 130.691406 C 345.679688 135.523438 343.234375 140.621094 340.867188 145.542969 C 337.738281 152.042969 334.507812 158.765625 330.683594 165.078125 C 323.78125 176.484375 315.78125 184.738281 306.921875 189.621094 C 306.757812 189.949219 306.582031 190.261719 306.378906 190.554688 C 304.59375 193.175781 301.277344 194.75 297.5 194.75 C 294.339844 194.75 291.339844 193.730469 288.691406 192.835938 C 285.417969 191.726562 282.140625 190.621094 278.867188 189.511719 L 269.367188 186.296875 C 258.578125 182.652344 247.796875 179 237.011719 175.324219 C 233.992188 174.296875 231.027344 173.277344 228.089844 172.238281 C 227.9375 172.710938 227.726562 173.183594 227.398438 173.628906 C 227.238281 173.839844 227.0625 174.023438 226.882812 174.195312 C 227.617188 175.222656 228.214844 176.375 228.644531 177.617188 C 242.265625 189.292969 255.460938 201.699219 267.863281 214.492188 C 268.96875 215.628906 270.484375 217.183594 270.992188 219.296875 C 271.355469 220.820312 271.117188 222.253906 270.757812 223.421875 C 275.941406 228.605469 281.84375 232.929688 288.351562 236.246094 C 299.375 241.871094 312.652344 245.015625 330.132812 246.136719 C 331 246.1875 332.617188 246.296875 333.664062 247.59375 C 334.179688 248.222656 334.375 248.949219 334.457031 249.585938 C 340.898438 250.074219 346.785156 251.460938 351.96875 253.726562 C 359.320312 256.957031 365.234375 261.898438 369.074219 268.019531 " fill-opacity="1" fill-rule="nonzero"/></g><path fill="#d9f2f4" d="M 26.746094 108.902344 C 26.839844 108.691406 26.929688 108.480469 26.984375 108.269531 C 27.007812 108.183594 27.03125 108.078125 27.058594 107.972656 C 27.203125 107.320312 27.429688 106.332031 28.253906 105.59375 C 28.632812 105.257812 29.050781 105.042969 29.492188 104.925781 C 31.035156 86.371094 27.917969 67.167969 20.617188 50.128906 Z M 24.453125 257.0625 C 19.789062 259.113281 15.671875 262.007812 12.453125 265.445312 C 16.847656 263.972656 20.378906 262.65625 23.652344 261.269531 C 24.601562 260.871094 25.539062 260.460938 26.484375 260.054688 C 30.984375 258.101562 35.617188 256.09375 40.414062 255.234375 C 40.421875 254.570312 40.421875 253.910156 40.429688 253.246094 C 34.535156 253.726562 29.164062 255 24.453125 257.0625 Z M 38.808594 129.691406 C 35.925781 123.4375 32.933594 116.972656 31.078125 110.09375 C 30.96875 109.707031 30.773438 109.296875 30.558594 108.984375 C 30.539062 109.066406 30.523438 109.136719 30.503906 109.210938 C 30.058594 110.863281 29.039062 112.132812 28.136719 113.257812 C 27.699219 113.792969 27.292969 114.304688 26.972656 114.816406 L 26.964844 114.820312 C 26.957031 114.835938 26.953125 114.851562 26.941406 114.863281 C 26.90625 114.925781 26.871094 114.980469 26.832031 115.046875 C 24.628906 118.910156 27.089844 124.023438 29.789062 128.929688 C 32.507812 133.855469 34.976562 138.996094 37.371094 143.957031 C 40.457031 150.382812 43.652344 157.023438 47.378906 163.179688 C 53.210938 172.8125 59.789062 180.042969 66.984375 184.746094 C 67.007812 182.507812 67.554688 180.242188 68.128906 178.152344 C 68.238281 177.746094 68.363281 177.324219 68.515625 176.902344 C 54.554688 163.84375 46.191406 145.730469 38.808594 129.691406 Z M 54.832031 348.347656 C 64.597656 338.796875 74.875 329.660156 85.46875 321.109375 C 84.96875 320.375 84.476562 319.636719 83.980469 318.910156 C 71.148438 324.90625 60.699219 335.527344 54.832031 348.347656 Z M 99.65625 75.941406 C 99.65625 75.925781 99.65625 75.910156 99.65625 75.902344 C 99.65625 75.898438 99.65625 75.898438 99.65625 75.898438 C 99.65625 75.765625 99.644531 75.648438 99.628906 75.519531 C 99.269531 72.097656 96.242188 69.699219 93.441406 69.09375 C 93.261719 69.050781 93.105469 69.023438 92.957031 69 C 91.652344 68.804688 90.617188 68.957031 89.90625 69.46875 C 88.46875 70.480469 87.988281 72.988281 87.683594 75.550781 C 85.585938 93.253906 84.832031 111.28125 85.386719 129.175781 C 86.347656 128.773438 87.359375 128.5 88.394531 128.375 C 89.320312 128.265625 90.273438 128.257812 91.277344 128.332031 C 90.558594 114.085938 92.929688 98.523438 98.367188 82.027344 L 98.402344 81.917969 C 99.058594 79.933594 99.738281 77.886719 99.65625 75.976562 C 99.65625 75.96875 99.65625 75.953125 99.65625 75.941406 Z M 88.257812 239.496094 C 76.78125 245.347656 63.058594 248.613281 45.058594 249.773438 C 44.59375 249.804688 44.28125 249.847656 44.132812 249.90625 C 44.089844 250.085938 44.089844 250.484375 44.089844 250.621094 L 44.082031 251.726562 C 44.070312 253.417969 44.054688 255.105469 44.046875 256.796875 C 44.039062 257.050781 44.039062 257.238281 44.039062 257.4375 C 44.03125 257.851562 44.03125 258.246094 44.097656 258.582031 C 44.140625 258.828125 44.191406 258.898438 44.207031 258.929688 C 44.367188 259.171875 44.867188 259.457031 46.410156 259.492188 C 61.59375 259.863281 76.121094 253.039062 89.679688 246.011719 C 94.796875 243.367188 99.34375 240.902344 103.214844 237.558594 C 105.222656 235.816406 107.121094 233.769531 108.988281 231.339844 C 107.84375 230.304688 106.765625 228.847656 105.769531 226.988281 C 100.566406 232.003906 94.683594 236.207031 88.257812 239.496094 Z M 128.585938 261.65625 C 118.683594 282.820312 101.433594 300.007812 85.902344 315.25 C 85.972656 315.359375 86.054688 315.46875 86.128906 315.578125 C 87.21875 317.203125 88.3125 318.8125 89.402344 320.425781 C 89.4375 320.472656 89.472656 320.527344 89.5 320.578125 C 89.523438 320.609375 89.53125 320.621094 89.554688 320.644531 C 89.707031 320.882812 90.078125 321.429688 90.261719 321.496094 C 90.273438 321.503906 90.742188 321.597656 91.972656 320.273438 C 105.609375 305.519531 117.523438 289.128906 127.371094 271.5625 C 128.59375 269.382812 130.097656 266.605469 131.394531 263.683594 C 130.828125 263.363281 130.242188 262.984375 129.648438 262.523438 C 129.292969 262.25 128.9375 261.957031 128.585938 261.65625 Z M 97.242188 66.636719 C 99.65625 67.90625 101.554688 69.953125 102.546875 72.382812 C 113.695312 61.636719 122.867188 48.808594 131.753906 36.378906 C 134.589844 32.414062 137.304688 27.980469 137.464844 23.832031 C 125.15625 39.019531 111.644531 53.382812 97.242188 66.636719 Z M 145.542969 183.097656 C 133.121094 193.90625 121.074219 205.308594 109.707031 217.03125 C 108.652344 218.117188 107.757812 219.101562 107.507812 220.152344 C 107.304688 220.972656 107.453125 221.914062 107.984375 223.21875 C 108.238281 223.824219 108.558594 224.457031 108.871094 225.078125 C 109.992188 227.226562 111.242188 228.746094 112.378906 229.34375 C 112.910156 229.621094 113.390625 229.683594 113.882812 229.554688 C 114.800781 229.3125 115.609375 228.351562 116.5 227.214844 C 126.378906 214.464844 136.960938 201.933594 147.960938 189.941406 C 146.703125 188.207031 145.863281 186.078125 145.585938 183.804688 C 145.566406 183.570312 145.558594 183.332031 145.542969 183.097656 Z M 134.394531 165.820312 L 122.273438 168.925781 C 106.664062 172.917969 90.53125 177.054688 74.015625 177.054688 C 73.457031 177.054688 72.832031 177.046875 72.550781 177.199219 C 72.4375 177.257812 72.34375 177.351562 72.257812 177.488281 C 71.976562 177.90625 71.789062 178.539062 71.636719 179.109375 C 70.847656 181.976562 70.105469 185.210938 71.105469 187.609375 C 71.246094 187.941406 71.394531 188.238281 71.578125 188.488281 C 72.886719 190.421875 75.472656 191.105469 77.460938 191.105469 C 80.011719 191.105469 82.597656 190.234375 85.09375 189.386719 C 88.375 188.277344 91.652344 187.171875 94.925781 186.0625 L 104.421875 182.847656 C 115.210938 179.195312 125.996094 175.546875 136.773438 171.871094 C 140.078125 170.746094 143.308594 169.640625 146.492188 168.503906 C 146.4375 166.332031 146.539062 164.128906 147.164062 162.101562 C 142.945312 163.625 138.609375 164.742188 134.394531 165.820312 Z M 150.769531 199.007812 C 145.238281 207.421875 142.441406 217.421875 139.507812 227.941406 C 137.03125 236.820312 134.464844 246 130.085938 254.199219 L 130.015625 254.339844 C 129.628906 255.058594 129.273438 255.738281 129.25 256.296875 C 129.242188 256.65625 129.347656 257.019531 129.597656 257.40625 C 129.605469 257.421875 129.605469 257.429688 129.613281 257.441406 C 130.09375 258.207031 130.980469 258.953125 131.867188 259.636719 C 132.761719 260.324219 133.601562 260.789062 134.285156 260.992188 C 135.09375 261.234375 135.339844 261.023438 135.449219 260.9375 C 135.703125 260.722656 135.929688 260.183594 136.101562 259.761719 C 138.941406 253.003906 140.851562 245.722656 142.699219 238.6875 C 143.652344 235.085938 144.625 231.363281 145.722656 227.722656 C 148.542969 218.34375 151.75 211.183594 155.738281 205.382812 C 154.4375 204.527344 153.308594 203.464844 152.421875 202.230469 C 151.714844 201.253906 151.167969 200.160156 150.769531 199.007812 Z M 98.242188 133.699219 L 98.019531 133.628906 C 96.332031 133.089844 94.582031 132.535156 92.886719 132.214844 L 92.882812 132.210938 C 91.367188 131.914062 90.042969 131.84375 88.828125 131.988281 C 87.378906 132.164062 85.921875 132.796875 84.84375 133.734375 C 84.164062 134.332031 83.308594 135.328125 83.1875 136.699219 C 82.808594 140.78125 88.652344 143.429688 91.183594 144.375 C 110.5 151.621094 131.496094 154.222656 152.019531 151.957031 C 151.925781 150.46875 152.109375 149.039062 152.566406 147.691406 C 152.851562 146.839844 153.28125 146.027344 153.816406 145.285156 C 134.96875 143.359375 116.292969 139.46875 98.242188 133.699219 Z M 244.945312 254.339844 L 244.875 254.191406 C 240.488281 246 237.929688 236.820312 235.445312 227.9375 C 232.511719 217.421875 229.722656 207.421875 224.195312 199.007812 C 223.789062 200.160156 223.242188 201.253906 222.542969 202.222656 C 221.648438 203.464844 220.519531 204.519531 219.21875 205.382812 C 223.203125 211.175781 226.414062 218.34375 229.230469 227.722656 C 230.328125 231.363281 231.308594 235.085938 232.261719 238.6875 C 234.109375 245.726562 236.023438 253.003906 238.851562 259.761719 C 239.027344 260.183594 239.253906 260.722656 239.507812 260.925781 C 239.617188 261.023438 239.863281 261.234375 240.667969 260.992188 C 241.355469 260.789062 242.191406 260.324219 243.089844 259.636719 C 243.976562 258.953125 244.867188 258.207031 245.347656 257.4375 C 245.351562 257.429688 245.351562 257.421875 245.359375 257.40625 C 245.605469 257.027344 245.714844 256.65625 245.710938 256.285156 C 245.6875 255.738281 245.332031 255.058594 244.945312 254.339844 Z M 237.492188 23.832031 C 237.644531 27.980469 240.367188 32.414062 243.207031 36.378906 C 252.09375 48.808594 261.261719 61.636719 272.414062 72.382812 C 273.394531 69.960938 275.292969 67.914062 277.722656 66.636719 C 263.316406 53.382812 249.796875 39.019531 237.492188 23.832031 Z M 246.371094 261.65625 C 246.023438 261.957031 245.667969 262.25 245.308594 262.523438 C 244.710938 262.984375 244.128906 263.363281 243.5625 263.683594 C 244.851562 266.605469 246.363281 269.375 247.585938 271.5625 C 257.433594 289.128906 269.347656 305.519531 282.996094 320.273438 C 284.21875 321.597656 284.6875 321.503906 284.6875 321.503906 C 284.878906 321.429688 285.25 320.882812 285.402344 320.644531 C 285.417969 320.621094 285.441406 320.601562 285.453125 320.578125 C 285.480469 320.527344 285.519531 320.472656 285.554688 320.425781 C 286.652344 318.8125 287.738281 317.203125 288.824219 315.585938 C 288.90625 315.476562 288.976562 315.359375 289.054688 315.25 C 273.523438 300.007812 256.269531 282.820312 246.371094 261.65625 Z M 285.054688 69.46875 C 284.339844 68.957031 283.308594 68.804688 281.984375 69 C 281.851562 69.023438 281.699219 69.050781 281.558594 69.089844 C 278.714844 69.699219 275.6875 72.097656 275.332031 75.5 C 275.316406 75.648438 275.300781 75.765625 275.300781 75.898438 C 275.300781 75.917969 275.300781 75.949219 275.300781 75.96875 C 275.222656 77.871094 275.898438 79.921875 276.550781 81.898438 L 276.589844 82.027344 C 282.023438 98.523438 284.398438 114.085938 283.675781 128.332031 C 284.675781 128.257812 285.636719 128.265625 286.550781 128.367188 C 287.59375 128.5 288.613281 128.773438 289.574219 129.175781 C 290.128906 111.28125 289.367188 93.253906 287.273438 75.546875 C 286.96875 72.988281 286.480469 70.480469 285.054688 69.46875 Z M 290.105469 133.722656 C 289.035156 132.796875 287.582031 132.164062 286.125 131.988281 C 284.914062 131.84375 283.582031 131.914062 282.078125 132.210938 C 280.375 132.535156 278.628906 133.089844 276.9375 133.628906 L 276.714844 133.699219 C 258.664062 139.46875 239.988281 143.359375 221.136719 145.285156 C 221.679688 146.027344 222.109375 146.84375 222.398438 147.699219 C 222.851562 149.039062 223.03125 150.46875 222.9375 151.957031 C 243.460938 154.222656 264.449219 151.621094 283.773438 144.375 C 286.308594 143.429688 292.148438 140.78125 291.769531 136.707031 C 291.644531 135.328125 290.796875 134.332031 290.105469 133.722656 Z M 302.710938 177.507812 C 302.617188 177.351562 302.519531 177.257812 302.417969 177.207031 C 302.128906 177.046875 301.488281 177.054688 300.941406 177.054688 C 284.425781 177.054688 268.292969 172.917969 252.679688 168.925781 L 240.5625 165.820312 C 236.351562 164.742188 232.003906 163.625 227.789062 162.101562 C 228.417969 164.117188 228.511719 166.316406 228.46875 168.503906 C 231.65625 169.640625 234.878906 170.753906 238.183594 171.871094 C 248.960938 175.546875 259.75 179.195312 270.535156 182.847656 L 280.039062 186.0625 C 283.308594 187.171875 286.582031 188.277344 289.859375 189.382812 C 292.363281 190.234375 294.945312 191.105469 297.5 191.105469 C 299.488281 191.105469 302.070312 190.421875 303.378906 188.5 C 303.5625 188.238281 303.714844 187.941406 303.851562 187.609375 C 304.855469 185.210938 304.105469 181.976562 303.320312 179.125 C 303.167969 178.539062 302.980469 177.90625 302.710938 177.507812 Z M 289.484375 321.109375 C 300.082031 329.660156 310.359375 338.796875 320.125 348.347656 C 314.261719 335.527344 303.808594 324.90625 290.972656 318.910156 C 290.472656 319.644531 289.980469 320.375 289.484375 321.109375 Z M 330.914062 256.851562 C 330.902344 255.03125 330.890625 253.28125 330.875 251.511719 L 330.867188 250.621094 C 330.867188 250.484375 330.867188 250.085938 330.824219 249.90625 C 330.679688 249.847656 330.367188 249.804688 329.898438 249.773438 C 311.902344 248.613281 298.175781 245.347656 286.699219 239.496094 C 280.269531 236.207031 274.390625 232.003906 269.1875 226.988281 C 268.191406 228.847656 267.113281 230.304688 265.972656 231.339844 C 267.832031 233.769531 269.734375 235.816406 271.75 237.558594 C 275.613281 240.902344 280.164062 243.367188 285.277344 246.011719 C 298.839844 253.039062 313.367188 259.871094 328.546875 259.492188 C 330.089844 259.457031 330.589844 259.171875 330.746094 258.9375 C 330.765625 258.898438 330.820312 258.828125 330.851562 258.617188 C 330.917969 258.253906 330.925781 257.851562 330.917969 257.464844 C 330.917969 257.238281 330.917969 257.050781 330.914062 256.851562 Z M 347.957031 114.765625 C 347.664062 114.304688 347.257812 113.792969 346.820312 113.257812 C 345.925781 112.132812 344.898438 110.863281 344.457031 109.214844 C 344.441406 109.136719 344.417969 109.066406 344.398438 108.984375 C 344.1875 109.304688 343.988281 109.707031 343.882812 110.097656 C 342.015625 116.972656 339.035156 123.4375 336.152344 129.699219 C 328.761719 145.730469 320.402344 163.84375 306.441406 176.902344 C 306.597656 177.324219 306.726562 177.753906 306.835938 178.175781 C 307.402344 180.246094 307.949219 182.511719 307.972656 184.746094 C 315.171875 180.042969 321.75 172.8125 327.578125 163.179688 C 331.304688 157.023438 334.5 150.382812 337.585938 143.957031 C 339.980469 138.996094 342.445312 133.855469 345.167969 128.929688 C 347.867188 124.023438 350.328125 118.910156 348.117188 115.03125 Z M 345.46875 104.914062 C 345.902344 105.042969 346.328125 105.257812 346.695312 105.59375 C 347.527344 106.332031 347.753906 107.320312 347.90625 107.972656 C 347.925781 108.078125 347.949219 108.183594 347.980469 108.285156 C 348.03125 108.496094 348.117188 108.699219 348.210938 108.902344 L 354.339844 50.128906 C 347.039062 67.167969 343.925781 86.371094 345.46875 104.914062 Z M 334.527344 253.238281 C 334.527344 253.898438 334.539062 254.570312 334.542969 255.234375 C 339.339844 256.09375 343.976562 258.101562 348.472656 260.054688 C 349.421875 260.460938 350.359375 260.871094 351.296875 261.269531 C 354.578125 262.65625 358.109375 263.972656 362.507812 265.445312 C 359.289062 262.007812 355.167969 259.113281 350.503906 257.0625 C 345.796875 255 340.425781 253.726562 334.527344 253.238281 Z M 265.253906 217.035156 C 253.882812 205.300781 241.835938 193.90625 229.414062 183.097656 C 229.398438 183.332031 229.390625 183.570312 229.371094 183.796875 C 229.09375 186.078125 228.257812 188.199219 226.996094 189.933594 C 237.988281 201.925781 248.578125 214.464844 258.46875 227.214844 C 259.347656 228.351562 260.148438 229.3125 261.074219 229.554688 C 261.566406 229.683594 262.046875 229.621094 262.570312 229.34375 C 263.714844 228.746094 264.96875 227.226562 266.085938 225.0625 C 266.390625 224.464844 266.71875 223.832031 266.984375 223.199219 C 267.507812 221.914062 267.652344 220.972656 267.445312 220.152344 C 267.203125 219.101562 266.308594 218.117188 265.253906 217.035156 Z M 214.480469 113.117188 C 214.371094 112.65625 214.253906 112.195312 214.136719 111.738281 C 214.128906 111.878906 214.128906 112.015625 214.128906 112.152344 C 213.972656 123.710938 212.40625 133.769531 209.488281 142.054688 L 209.09375 143.136719 C 209.085938 143.148438 209.078125 143.164062 209.074219 143.175781 C 209.050781 143.238281 209.023438 143.292969 208.992188 143.355469 C 208.960938 143.410156 208.933594 143.460938 208.898438 143.511719 C 208.890625 143.527344 208.882812 143.542969 208.875 143.558594 C 207.558594 145.4375 206.128906 147.160156 204.617188 148.703125 C 205.09375 149.175781 205.550781 149.667969 206.007812 150.175781 C 209.3125 148.5 212.371094 145.960938 214.902344 142.777344 C 214.917969 142.757812 214.9375 142.742188 214.960938 142.71875 C 214.988281 142.683594 215.027344 142.648438 215.0625 142.609375 C 216.4375 134.214844 216.589844 125.835938 215.492188 118.359375 C 215.226562 116.578125 214.886719 114.808594 214.480469 113.117188 Z M 170.339844 148.703125 C 169.867188 149.175781 169.410156 149.667969 168.949219 150.175781 C 165.644531 148.5 162.589844 145.960938 160.054688 142.777344 C 160.035156 142.757812 160.011719 142.734375 160 142.714844 C 159.960938 142.675781 159.925781 142.640625 159.886719 142.601562 C 158.519531 134.21875 158.367188 125.84375 159.464844 118.363281 C 159.726562 116.578125 160.070312 114.816406 160.480469 113.109375 C 160.585938 112.648438 160.703125 112.195312 160.820312 111.738281 C 160.824219 111.878906 160.824219 112.015625 160.824219 112.152344 C 160.988281 123.710938 162.550781 133.769531 165.480469 142.070312 L 165.863281 143.136719 C 165.871094 143.148438 165.878906 143.164062 165.886719 143.1875 C 165.90625 143.238281 165.9375 143.292969 165.964844 143.355469 C 165.992188 143.40625 166.023438 143.460938 166.058594 143.511719 C 166.066406 143.527344 166.074219 143.542969 166.082031 143.558594 C 167.398438 145.433594 168.824219 147.160156 170.339844 148.703125 " fill-opacity="1" fill-rule="nonzero"/></svg>