<svg xmlns="http://www.w3.org/2000/svg" xmlns:xlink="http://www.w3.org/1999/xlink" width="500" zoomAndPan="magnify" viewBox="0 0 375 374.999991" height="500" preserveAspectRatio="xMidYMid meet" version="1.0"><defs><clipPath id="9006acbc96"><path d="M 4.363281 56.261719 L 374.863281 56.261719 L 374.863281 315.746094 L 4.363281 315.746094 Z M 4.363281 56.261719 " clip-rule="nonzero"/></clipPath><clipPath id="a7e5841dbb"><path d="M 4.363281 56.261719 L 374.863281 56.261719 L 374.863281 315.746094 L 4.363281 315.746094 Z M 4.363281 56.261719 " clip-rule="nonzero"/></clipPath></defs><rect x="-37.5" width="450" fill="#ffffff" y="-37.499999" height="449.999989" fill-opacity="1"/><rect x="-37.5" width="450" fill="#ffffff" y="-37.499999" height="449.999989" fill-opacity="1"/><g clip-path="url(#9006acbc96)"><path fill="#b079c2" d="M 374.609375 146.839844 C 374.242188 146.222656 373.558594 145.878906 372.859375 145.9375 C 339.960938 148.476562 307.953125 159.078125 280.207031 176.613281 C 268.539062 168.671875 257.933594 159.246094 248.667969 148.582031 C 248.269531 148.121094 247.667969 147.878906 247.054688 147.9375 C 246.449219 148 245.902344 148.355469 245.601562 148.882812 C 244.757812 150.355469 243.851562 151.8125 242.886719 153.234375 C 240.265625 150.976562 237.40625 148.972656 234.621094 147.019531 C 232.113281 145.261719 229.511719 143.441406 227.175781 141.484375 C 217.746094 133.609375 211.261719 122.511719 204.996094 111.78125 C 199.519531 102.410156 193.859375 92.714844 186.191406 85.011719 C 185.601562 84.414062 184.6875 84.28125 183.949219 84.6875 C 182.007812 85.742188 180.226562 86.460938 178.484375 86.875 C 174.75 87.78125 169.835938 87.203125 167.269531 83.871094 C 165.851562 82.019531 165.277344 79.550781 164.667969 76.9375 C 163.902344 73.660156 163.109375 70.269531 160.550781 67.710938 C 156.535156 63.667969 150.671875 64.03125 145.503906 64.351562 C 143.878906 64.449219 142.339844 64.546875 140.867188 64.523438 C 135.464844 64.4375 130.355469 62.523438 124.941406 60.484375 C 123.003906 59.75 120.988281 58.996094 118.972656 58.339844 C 111.921875 56.042969 102.003906 54.496094 94.804688 60.171875 C 90.597656 63.488281 88.453125 68.464844 86.558594 72.855469 C 82.714844 81.800781 78.875 90.734375 75.03125 99.675781 L 63.886719 125.609375 C 63.648438 126.167969 63.6875 126.8125 64.007812 127.332031 C 64.316406 127.851562 64.859375 128.191406 65.472656 128.234375 C 71.953125 128.765625 79.09375 127.355469 86.691406 124.046875 C 89.417969 122.863281 92.082031 121.488281 94.65625 119.9375 C 94.167969 123.054688 94.734375 125.546875 96.363281 127.503906 C 97.183594 128.476562 98.1875 129.175781 99.140625 129.761719 C 99.328125 129.882812 99.515625 129.996094 99.699219 130.109375 L 100.609375 130.667969 C 100.867188 130.824219 101.125 130.984375 101.378906 131.136719 C 101.378906 131.160156 101.390625 131.175781 101.390625 131.199219 C 104.769531 153.949219 106.4375 177.097656 106.34375 200.078125 C 105.167969 199.972656 104.097656 199.863281 103.0625 199.742188 C 102.511719 199.683594 101.957031 199.875 101.554688 200.265625 C 101.148438 200.648438 100.933594 201.195312 100.980469 201.753906 C 101.800781 213.757812 102.617188 225.78125 103.433594 237.792969 L 6.3125 234.792969 C 5.566406 234.777344 4.867188 235.191406 4.546875 235.871094 C 4.222656 236.550781 4.335938 237.359375 4.835938 237.925781 C 24.738281 260.617188 49.53125 279.703125 76.535156 293.097656 C 104.234375 306.84375 134.390625 314.636719 163.753906 315.640625 C 165.917969 315.714844 168.070312 315.746094 170.234375 315.746094 C 198.808594 315.746094 227.59375 309.328125 253.882812 297.039062 C 282.714844 283.558594 307.273438 263.566406 324.902344 239.210938 C 336.578125 223.066406 345.523438 204.894531 354.171875 187.320312 C 360.511719 174.445312 367.0625 161.132812 374.609375 148.808594 C 374.980469 148.203125 374.980469 147.441406 374.609375 146.839844 " fill-opacity="1" fill-rule="nonzero"/></g><path fill="#f8c9cf" d="M 235.511719 214.769531 C 238.78125 213.324219 240.261719 209.503906 238.816406 206.230469 L 229.757812 185.742188 C 228.695312 183.328125 226.328125 181.890625 223.84375 181.890625 C 222.96875 181.890625 222.078125 182.066406 221.222656 182.441406 L 195.195312 193.960938 C 191.925781 195.410156 190.449219 199.230469 191.894531 202.5 L 200.945312 222.988281 C 202.015625 225.40625 204.386719 226.847656 206.871094 226.847656 C 207.746094 226.847656 208.625 226.664062 209.480469 226.285156 Z M 246.621094 207.75 C 247.226562 209.117188 247.394531 210.597656 247.105469 212.058594 L 247.105469 212.070312 C 247.105469 212.074219 247.105469 212.082031 247.097656 212.09375 C 246.644531 214.386719 245.089844 216.320312 242.945312 217.273438 L 206.332031 233.46875 C 204.589844 234.238281 202.65625 234.292969 200.871094 233.621094 C 199.042969 232.933594 197.609375 231.574219 196.816406 229.792969 L 184.082031 200.984375 C 183.675781 200.0625 183.46875 199.070312 183.46875 198.074219 C 183.46875 197.402344 183.5625 196.730469 183.746094 196.082031 C 184.34375 194.011719 185.804688 192.328125 187.757812 191.460938 L 224.375 175.261719 C 224.9375 175.011719 225.535156 174.832031 226.125 174.742188 C 226.128906 174.742188 226.128906 174.742188 226.140625 174.742188 C 226.523438 174.671875 226.914062 174.644531 227.308594 174.644531 C 228.011719 174.644531 228.703125 174.746094 229.363281 174.945312 C 229.6875 175.042969 230.011719 175.164062 230.3125 175.308594 C 231.867188 176.023438 233.15625 177.285156 233.890625 178.9375 L 246.621094 207.75 " fill-opacity="1" fill-rule="nonzero"/><path fill="#d3aada" d="M 163.109375 100.128906 C 164.671875 99.644531 163.84375 97.726562 162.378906 97.96875 C 151.734375 99.742188 141.289062 102.558594 130.824219 105.210938 C 134.007812 102.523438 137.050781 99.664062 139.917969 96.621094 C 143.5625 92.757812 148.308594 88.128906 150.046875 83.015625 C 150.265625 82.367188 149.230469 82.304688 148.90625 82.582031 C 144.628906 86.183594 141.421875 91.257812 137.511719 95.28125 C 133.359375 99.554688 128.875 103.445312 124.113281 107.015625 C 122.800781 108.003906 123.945312 109.632812 125.386719 109.292969 C 137.984375 106.367188 150.738281 103.945312 163.109375 100.128906 Z M 240.671875 156.308594 C 240.402344 156.667969 240.121094 157.023438 239.84375 157.378906 C 239.550781 157.75 239.253906 158.113281 238.953125 158.464844 C 238.472656 159.054688 237.972656 159.636719 237.460938 160.210938 C 230.507812 155.234375 223.851562 149.910156 217.730469 143.777344 C 207.882812 133.910156 199.40625 122.753906 192.652344 110.542969 C 192.433594 110.136719 191.519531 110.308594 191.75 110.785156 C 201.511719 130.753906 216.535156 149.789062 235.292969 162.527344 C 235.195312 162.632812 235.097656 162.742188 234.992188 162.847656 C 234.660156 163.175781 234.328125 163.511719 233.988281 163.84375 C 233.964844 163.859375 233.941406 163.882812 233.910156 163.910156 C 233.570312 164.242188 233.222656 164.570312 232.871094 164.894531 C 232.515625 165.222656 232.148438 165.558594 231.785156 165.882812 C 231.453125 166.175781 231.117188 166.464844 230.78125 166.75 C 228.96875 168.292969 227.074219 169.742188 225.097656 171.09375 C 225.097656 171.09375 225.089844 171.101562 225.082031 171.101562 C 224.96875 171.117188 224.847656 171.144531 224.734375 171.175781 C 224.605469 171.207031 224.476562 171.238281 224.351562 171.273438 C 224.238281 171.304688 224.121094 171.332031 224.011719 171.371094 C 223.617188 171.492188 223.230469 171.636719 222.855469 171.804688 L 186.234375 188.007812 C 186.046875 188.09375 185.867188 188.175781 185.683594 188.273438 C 185.316406 188.460938 184.953125 188.671875 184.605469 188.898438 C 184.445312 188.996094 184.296875 189.113281 184.144531 189.226562 C 184.054688 189.292969 183.957031 189.359375 183.863281 189.4375 C 183.753906 189.527344 183.636719 189.617188 183.535156 189.707031 C 182.664062 190.453125 181.910156 191.339844 181.316406 192.320312 C 181.21875 192.472656 181.136719 192.613281 181.050781 192.773438 C 181.042969 192.789062 181.027344 192.8125 181.019531 192.835938 C 180.9375 192.976562 180.859375 193.128906 180.792969 193.28125 C 180.777344 193.308594 180.761719 193.339844 180.75 193.371094 C 180.667969 193.539062 180.589844 193.71875 180.523438 193.890625 C 180.507812 193.921875 180.5 193.949219 180.484375 193.984375 L 180.476562 193.984375 C 179.964844 194.125 179.453125 194.253906 178.9375 194.375 C 178.542969 194.480469 178.144531 194.585938 177.746094 194.675781 C 176.710938 194.941406 175.667969 195.183594 174.628906 195.425781 C 173.585938 195.667969 172.542969 195.898438 171.503906 196.117188 C 171.34375 196.15625 171.195312 196.195312 171.050781 196.214844 C 170.332031 196.375 169.625 196.519531 168.90625 196.664062 C 168.386719 196.777344 167.855469 196.882812 167.328125 196.980469 C 166.882812 197.070312 166.433594 197.152344 165.976562 197.238281 C 165.253906 197.382812 164.53125 197.507812 163.796875 197.636719 C 163.554688 197.683594 163.308594 197.726562 163.066406 197.769531 C 162.152344 197.933594 161.230469 198.082031 160.308594 198.226562 C 158.847656 198.464844 157.390625 198.6875 155.933594 198.882812 C 155.101562 199.011719 154.269531 199.117188 153.433594 199.222656 C 152.417969 199.359375 151.398438 199.480469 150.386719 199.59375 C 149.539062 199.691406 148.703125 199.78125 147.863281 199.863281 C 146.417969 200.015625 144.957031 200.152344 143.511719 200.265625 C 142.726562 200.335938 141.9375 200.386719 141.15625 200.441406 C 138.453125 200.636719 135.746094 200.769531 133.035156 200.863281 C 132.175781 200.890625 131.324219 200.914062 130.460938 200.921875 C 126.996094 200.996094 123.535156 200.988281 120.058594 200.890625 C 119.644531 200.886719 119.230469 200.867188 118.808594 200.851562 C 118.28125 200.839844 117.742188 200.816406 117.214844 200.792969 C 116.535156 200.765625 115.855469 200.730469 115.179688 200.703125 C 115.085938 200.695312 114.996094 200.695312 114.90625 200.6875 C 114.203125 200.648438 113.5 200.609375 112.800781 200.566406 C 112.058594 200.523438 111.328125 200.476562 110.585938 200.421875 C 110.4375 200.417969 110.289062 200.402344 110.128906 200.386719 C 110.234375 177.199219 108.558594 153.828125 105.144531 130.875 C 115.691406 129.265625 125.304688 121.976562 130.226562 112.644531 C 130.757812 111.65625 129.039062 111.277344 128.558594 112.0625 C 122.945312 121.164062 114.445312 126.453125 104.46875 128.675781 C 104.359375 128.558594 104.242188 128.464844 104.105469 128.378906 C 103.601562 128.070312 103.085938 127.753906 102.570312 127.445312 L 101.667969 126.894531 C 100.722656 126.320312 99.839844 125.765625 99.261719 125.074219 C 97.804688 123.335938 97.941406 120.460938 99.671875 116.28125 C 99.804688 115.972656 99.847656 115.648438 99.804688 115.324219 C 107.683594 109.066406 114.566406 101.449219 120.371094 93.324219 C 121.011719 92.417969 119.207031 91.800781 118.640625 92.511719 C 112.292969 100.5 105.128906 107.386719 97.367188 113.753906 C 97.359375 113.761719 97.359375 113.761719 97.351562 113.761719 C 97.175781 113.824219 97.003906 113.902344 96.84375 114.019531 C 93.175781 116.597656 89.25 118.8125 85.183594 120.585938 C 79.214844 123.1875 73.589844 124.523438 68.445312 124.566406 L 78.496094 101.171875 C 82.339844 92.230469 86.1875 83.289062 90.03125 74.347656 C 91.742188 70.367188 93.683594 65.859375 97.148438 63.136719 C 103.34375 58.246094 112.753906 60.285156 117.804688 61.933594 C 119.742188 62.558594 121.714844 63.300781 123.617188 64.015625 C 129.09375 66.078125 134.75 68.207031 140.808594 68.300781 C 142.429688 68.328125 144.105469 68.222656 145.734375 68.117188 C 150.53125 67.824219 155.0625 67.546875 157.878906 70.378906 C 159.683594 72.179688 160.316406 74.90625 160.988281 77.792969 C 161.664062 80.683594 162.363281 83.675781 164.28125 86.171875 C 167.878906 90.847656 174.453125 91.738281 179.367188 90.546875 C 181.035156 90.148438 182.71875 89.527344 184.476562 88.65625 C 191.328125 95.871094 196.617188 104.925781 201.738281 113.683594 C 208.167969 124.695312 214.816406 136.082031 224.757812 144.382812 C 227.21875 146.445312 229.882812 148.308594 232.464844 150.117188 C 235.382812 152.160156 238.160156 154.109375 240.671875 156.308594 Z M 313.355469 239.875 C 314.863281 238.144531 311.671875 236.996094 310.433594 238.371094 C 267.113281 286.457031 201.738281 309.433594 137.894531 298.773438 C 115.277344 294.988281 93.464844 287.132812 73.242188 276.363281 C 72.8125 276.136719 72.125 276.734375 72.640625 277.066406 C 102.609375 296.617188 138.875 305.84375 174.53125 305.066406 C 208.734375 304.3125 242.273438 293.863281 271.253906 275.75 C 287.007812 265.921875 301.144531 253.859375 313.355469 239.875 Z M 369.476562 150.015625 C 362.640625 161.578125 356.617188 173.796875 350.78125 185.652344 C 342.210938 203.082031 333.339844 221.105469 321.847656 236.988281 C 304.59375 260.832031 280.539062 280.410156 252.28125 293.617188 C 224.542969 306.585938 193.976562 312.898438 163.886719 311.863281 C 135.058594 310.882812 105.433594 303.21875 78.210938 289.714844 C 52.949219 277.179688 29.65625 259.589844 10.59375 238.703125 L 103.6875 241.574219 L 103.976562 245.734375 C 104.035156 246.695312 104.804688 247.441406 105.765625 247.492188 C 110.84375 247.742188 115.925781 247.871094 120.996094 247.871094 C 121.910156 247.871094 122.824219 247.863281 123.738281 247.863281 C 125.140625 247.847656 126.550781 247.828125 127.957031 247.789062 C 128.957031 247.765625 129.964844 247.742188 130.972656 247.707031 C 131.480469 247.6875 131.992188 247.671875 132.5 247.652344 C 135.328125 247.546875 138.152344 247.402344 140.976562 247.214844 C 141.667969 247.167969 142.363281 247.121094 143.066406 247.070312 C 144.859375 246.933594 146.65625 246.792969 148.453125 246.625 C 149.277344 246.550781 150.089844 246.476562 150.90625 246.390625 C 152.671875 246.214844 154.429688 246.027344 156.179688 245.824219 C 157.753906 245.644531 159.316406 245.445312 160.875 245.234375 C 163.351562 244.910156 165.828125 244.546875 168.296875 244.15625 C 169.117188 244.027344 169.941406 243.898438 170.761719 243.757812 C 174.054688 243.210938 177.335938 242.609375 180.613281 241.949219 C 181.164062 241.84375 181.714844 241.734375 182.257812 241.617188 C 183.347656 241.390625 184.429688 241.167969 185.519531 240.925781 C 186.332031 240.75 187.148438 240.566406 187.964844 240.378906 C 188.542969 240.25 189.117188 240.121094 189.695312 239.984375 C 190.75 239.746094 191.796875 239.492188 192.84375 239.230469 C 195.285156 238.644531 197.714844 238.015625 200.136719 237.359375 L 200.144531 237.359375 C 200.546875 237.488281 200.953125 237.59375 201.359375 237.667969 C 201.496094 237.699219 201.632812 237.722656 201.773438 237.734375 C 201.867188 237.75 201.957031 237.769531 202.054688 237.773438 C 202.183594 237.796875 202.3125 237.8125 202.449219 237.820312 C 202.539062 237.828125 202.636719 237.835938 202.734375 237.839844 C 202.824219 237.851562 202.921875 237.855469 203.023438 237.855469 C 203.15625 237.867188 203.292969 237.867188 203.429688 237.867188 C 204.929688 237.867188 206.4375 237.554688 207.859375 236.925781 L 244.476562 220.722656 C 245.355469 220.332031 246.167969 219.839844 246.894531 219.242188 C 246.992188 219.175781 247.082031 219.101562 247.175781 219.015625 C 247.367188 218.855469 247.558594 218.675781 247.742188 218.492188 C 247.867188 218.375 247.996094 218.246094 248.109375 218.109375 C 248.214844 218.003906 248.3125 217.890625 248.402344 217.769531 C 248.507812 217.65625 248.597656 217.542969 248.695312 217.421875 C 248.929688 217.121094 249.160156 216.792969 249.363281 216.464844 C 249.4375 216.34375 249.511719 216.222656 249.582031 216.09375 C 249.820312 215.679688 250.035156 215.238281 250.207031 214.792969 C 250.289062 214.605469 250.359375 214.417969 250.417969 214.226562 C 250.46875 214.082031 250.523438 213.933594 250.5625 213.773438 C 250.578125 213.738281 250.582031 213.691406 250.601562 213.65625 L 250.601562 213.648438 C 251.023438 213.394531 251.4375 213.148438 251.851562 212.882812 C 252.683594 212.371094 253.503906 211.851562 254.3125 211.296875 C 254.722656 211.035156 255.128906 210.761719 255.527344 210.480469 C 255.925781 210.210938 256.328125 209.9375 256.722656 209.652344 C 257.136719 209.363281 257.542969 209.070312 257.949219 208.761719 C 258.335938 208.488281 258.714844 208.210938 259.089844 207.914062 C 259.484375 207.628906 259.859375 207.335938 260.242188 207.03125 C 261.015625 206.441406 261.777344 205.828125 262.527344 205.195312 C 262.902344 204.894531 263.28125 204.574219 263.648438 204.25 C 264.015625 203.941406 264.390625 203.625 264.75 203.300781 C 265.121094 202.984375 265.484375 202.660156 265.835938 202.328125 C 266.199219 202.007812 266.554688 201.675781 266.910156 201.335938 C 267.980469 200.339844 269.03125 199.3125 270.039062 198.273438 C 270.726562 197.570312 271.398438 196.867188 272.058594 196.148438 C 272.386719 195.792969 272.71875 195.425781 273.035156 195.0625 C 274.019531 193.96875 274.96875 192.859375 275.882812 191.726562 C 276.464844 191.015625 277.03125 190.296875 277.589844 189.574219 C 278.585938 188.273438 279.550781 186.945312 280.484375 185.59375 C 281.226562 184.519531 281.941406 183.441406 282.628906 182.335938 C 282.917969 181.886719 283.195312 181.429688 283.476562 180.976562 C 283.742188 180.539062 283.800781 180.027344 283.679688 179.550781 C 283.664062 179.5 283.660156 179.453125 283.632812 179.40625 C 283.625 179.363281 283.601562 179.316406 283.589844 179.273438 C 283.582031 179.257812 283.582031 179.242188 283.566406 179.234375 C 283.542969 179.175781 283.515625 179.113281 283.484375 179.058594 C 283.476562 179.042969 283.46875 179.035156 283.460938 179.019531 C 309.363281 162.929688 338.972656 152.945312 369.476562 150.015625 " fill-opacity="1" fill-rule="nonzero"/><path fill="#fbf0cb" d="M 195.238281 234.214844 C 195.140625 234.113281 195.050781 234.007812 194.96875 233.902344 C 194.863281 233.78125 194.765625 233.660156 194.664062 233.527344 C 194.648438 233.515625 194.636719 233.492188 194.621094 233.46875 C 194.53125 233.347656 194.441406 233.21875 194.355469 233.101562 C 194.257812 232.957031 194.167969 232.820312 194.082031 232.675781 C 193.910156 232.394531 193.753906 232.117188 193.601562 231.824219 C 193.515625 231.664062 193.445312 231.492188 193.367188 231.324219 L 180.628906 202.507812 C 180.242188 201.632812 179.96875 200.710938 179.828125 199.773438 C 179.738281 199.214844 179.695312 198.65625 179.695312 198.089844 C 179.609375 198.113281 179.535156 198.128906 179.453125 198.152344 C 178.886719 198.292969 178.320312 198.4375 177.753906 198.566406 C 177.121094 198.722656 176.484375 198.875 175.851562 199.019531 C 175.195312 199.175781 174.535156 199.328125 173.878906 199.464844 C 173.539062 199.546875 173.203125 199.625 172.867188 199.691406 C 172.023438 199.878906 171.179688 200.0625 170.332031 200.226562 C 170.023438 200.296875 169.714844 200.355469 169.414062 200.417969 C 168.566406 200.597656 167.714844 200.757812 166.867188 200.914062 C 166.621094 200.96875 166.371094 201.011719 166.121094 201.050781 C 165.398438 201.195312 164.667969 201.332031 163.933594 201.453125 C 163.390625 201.550781 162.851562 201.640625 162.3125 201.730469 C 161.699219 201.835938 161.085938 201.933594 160.476562 202.023438 C 159.902344 202.121094 159.332031 202.214844 158.753906 202.296875 C 158.324219 202.363281 157.894531 202.425781 157.457031 202.488281 C 156.71875 202.597656 155.976562 202.707031 155.230469 202.792969 C 154.710938 202.871094 154.183594 202.9375 153.660156 202.996094 C 153.09375 203.074219 152.527344 203.152344 151.960938 203.210938 C 151.464844 203.273438 150.976562 203.332031 150.476562 203.382812 C 149.4375 203.503906 148.390625 203.613281 147.359375 203.707031 C 146.179688 203.828125 144.996094 203.9375 143.820312 204.027344 C 142.792969 204.117188 141.769531 204.191406 140.738281 204.25 C 140.519531 204.273438 140.292969 204.289062 140.070312 204.304688 C 139.402344 204.34375 138.738281 204.382812 138.078125 204.417969 C 137.496094 204.449219 136.90625 204.480469 136.324219 204.507812 C 136.046875 204.523438 135.757812 204.53125 135.472656 204.546875 C 134.589844 204.585938 133.699219 204.613281 132.8125 204.644531 C 131.742188 204.675781 130.671875 204.707031 129.59375 204.71875 C 128.40625 204.742188 127.222656 204.753906 126.039062 204.753906 C 120.058594 204.753906 114.066406 204.507812 108.074219 204.019531 C 106.921875 203.921875 105.878906 203.828125 104.898438 203.730469 C 105.710938 215.683594 106.527344 227.65625 107.335938 239.609375 L 107.621094 243.800781 C 113.660156 244.070312 119.699219 244.15625 125.722656 244.058594 C 126.515625 244.042969 127.296875 244.027344 128.082031 244.011719 C 129.652344 243.972656 131.222656 243.929688 132.792969 243.863281 C 133.367188 243.839844 133.941406 243.816406 134.511719 243.792969 C 135.8125 243.734375 137.109375 243.664062 138.40625 243.589844 C 139.140625 243.542969 139.882812 243.5 140.613281 243.457031 C 140.816406 243.445312 141.027344 243.433594 141.238281 243.414062 C 141.949219 243.363281 142.660156 243.3125 143.375 243.257812 C 144.203125 243.203125 145.027344 243.136719 145.851562 243.058594 C 146.664062 242.992188 147.488281 242.925781 148.304688 242.847656 C 148.320312 242.847656 148.324219 242.847656 148.339844 242.847656 C 149.160156 242.773438 149.980469 242.691406 150.800781 242.609375 C 151.625 242.523438 152.445312 242.441406 153.277344 242.351562 C 154.101562 242.261719 154.921875 242.167969 155.746094 242.070312 C 156.152344 242.023438 156.566406 241.980469 156.984375 241.921875 C 157.527344 241.859375 158.070312 241.800781 158.605469 241.722656 C 161.722656 241.332031 164.832031 240.890625 167.933594 240.394531 C 168.429688 240.320312 168.921875 240.238281 169.417969 240.15625 C 170.597656 239.964844 171.773438 239.769531 172.960938 239.554688 C 173.78125 239.414062 174.597656 239.261719 175.414062 239.113281 C 176.363281 238.9375 177.324219 238.757812 178.28125 238.566406 C 178.953125 238.4375 179.625 238.300781 180.292969 238.167969 C 181.113281 238.011719 181.925781 237.835938 182.742188 237.660156 C 183.550781 237.492188 184.363281 237.3125 185.171875 237.140625 C 185.988281 236.960938 186.796875 236.777344 187.601562 236.597656 C 188.394531 236.414062 189.1875 236.234375 189.980469 236.046875 C 190.882812 235.832031 191.789062 235.613281 192.6875 235.386719 C 193.421875 235.207031 194.152344 235.023438 194.875 234.835938 C 195.128906 234.777344 195.382812 234.710938 195.632812 234.640625 C 195.488281 234.496094 195.359375 234.359375 195.238281 234.214844 Z M 226.3125 187.273438 C 225.882812 186.296875 224.910156 185.667969 223.84375 185.667969 C 223.46875 185.667969 223.105469 185.742188 222.757812 185.894531 L 196.71875 197.417969 C 195.359375 198.015625 194.742188 199.613281 195.34375 200.976562 L 204.402344 221.457031 C 204.832031 222.4375 205.796875 223.070312 206.871094 223.070312 C 207.242188 223.070312 207.609375 222.988281 207.957031 222.835938 L 233.988281 211.320312 C 234.644531 211.027344 235.15625 210.496094 235.414062 209.828125 C 235.671875 209.152344 235.65625 208.414062 235.359375 207.757812 Z M 279.097656 180.429688 C 279.164062 180.472656 279.226562 180.511719 279.285156 180.554688 C 278.902344 181.160156 278.515625 181.753906 278.117188 182.34375 C 278.003906 182.519531 277.890625 182.683594 277.777344 182.851562 C 277.371094 183.449219 276.964844 184.042969 276.539062 184.632812 C 276.496094 184.699219 276.441406 184.777344 276.386719 184.84375 C 275.9375 185.476562 275.46875 186.113281 274.992188 186.742188 C 274.960938 186.785156 274.933594 186.828125 274.894531 186.867188 C 274.425781 187.488281 273.945312 188.105469 273.460938 188.71875 C 273.40625 188.78125 273.363281 188.839844 273.308594 188.898438 C 272.878906 189.441406 272.433594 189.980469 271.988281 190.515625 C 271.859375 190.660156 271.738281 190.804688 271.617188 190.949219 C 271.148438 191.496094 270.675781 192.046875 270.195312 192.59375 C 270.148438 192.636719 270.109375 192.683594 270.0625 192.730469 C 269.523438 193.332031 268.96875 193.9375 268.410156 194.527344 C 268.378906 194.558594 268.355469 194.578125 268.335938 194.609375 C 267.808594 195.167969 267.273438 195.71875 266.726562 196.261719 C 266.621094 196.371094 266.523438 196.464844 266.421875 196.574219 C 266.011719 196.980469 265.589844 197.390625 265.167969 197.789062 C 264.921875 198.019531 264.691406 198.25 264.441406 198.476562 C 263.996094 198.902344 263.542969 199.3125 263.089844 199.71875 C 263.007812 199.804688 262.917969 199.878906 262.835938 199.957031 C 262.25 200.476562 261.664062 200.988281 261.066406 201.496094 C 260.546875 201.941406 260.027344 202.371094 259.496094 202.804688 C 259.421875 202.863281 259.347656 202.929688 259.269531 202.984375 C 259.113281 203.117188 258.957031 203.25 258.789062 203.371094 C 258.234375 203.816406 257.683594 204.246094 257.117188 204.675781 C 257.117188 204.675781 257.117188 204.675781 257.113281 204.683594 C 256.488281 205.160156 255.859375 205.625 255.21875 206.085938 C 253.90625 207.03125 252.570312 207.945312 251.210938 208.816406 C 251.105469 208.882812 251 208.949219 250.890625 209.019531 C 250.863281 208.84375 250.832031 208.675781 250.804688 208.503906 C 250.792969 208.46875 250.789062 208.4375 250.78125 208.398438 C 250.757812 208.285156 250.734375 208.179688 250.703125 208.066406 C 250.675781 207.953125 250.644531 207.832031 250.613281 207.71875 C 250.570312 207.539062 250.507812 207.363281 250.449219 207.191406 C 250.402344 207.046875 250.359375 206.910156 250.304688 206.773438 C 250.238281 206.585938 250.160156 206.40625 250.078125 206.222656 L 237.34375 177.414062 C 237.246094 177.195312 237.140625 176.976562 237.03125 176.765625 C 236.996094 176.703125 236.96875 176.632812 236.921875 176.574219 C 236.847656 176.429688 236.773438 176.289062 236.683594 176.152344 C 236.636719 176.066406 236.585938 175.980469 236.523438 175.898438 C 236.386719 175.683594 236.242188 175.472656 236.09375 175.269531 C 235.941406 175.066406 235.78125 174.875 235.625 174.6875 C 235.46875 174.5 235.292969 174.316406 235.121094 174.136719 C 235.097656 174.121094 235.082031 174.097656 235.058594 174.082031 C 234.878906 173.902344 234.699219 173.730469 234.507812 173.570312 C 234.3125 173.394531 234.109375 173.230469 233.90625 173.082031 C 233.738281 172.949219 233.570312 172.828125 233.402344 172.722656 C 233.300781 172.648438 233.195312 172.585938 233.097656 172.527344 C 232.96875 172.445312 232.847656 172.378906 232.71875 172.300781 C 232.402344 172.121094 232.078125 171.953125 231.738281 171.816406 C 231.582031 171.742188 231.421875 171.671875 231.261719 171.613281 C 231.203125 171.585938 231.140625 171.5625 231.082031 171.546875 C 231.035156 171.523438 230.992188 171.507812 230.949219 171.492188 C 231.601562 170.980469 232.246094 170.457031 232.878906 169.921875 C 233.164062 169.6875 233.449219 169.445312 233.730469 169.199219 C 233.785156 169.152344 233.828125 169.105469 233.882812 169.0625 C 234.175781 168.8125 234.472656 168.550781 234.757812 168.285156 C 235.132812 167.949219 235.503906 167.605469 235.875 167.257812 C 236.335938 166.828125 236.789062 166.394531 237.222656 165.949219 C 237.597656 165.582031 237.964844 165.210938 238.335938 164.828125 L 238.515625 164.636719 C 238.742188 164.402344 238.96875 164.160156 239.1875 163.917969 L 240.5625 162.402344 L 240.570312 162.402344 C 240.660156 162.296875 240.75 162.183594 240.847656 162.078125 L 242.019531 160.6875 C 242.269531 160.382812 242.515625 160.082031 242.75 159.777344 L 242.9375 159.554688 C 243.136719 159.296875 243.339844 159.042969 243.535156 158.777344 L 244.734375 157.175781 C 245.714844 155.824219 246.652344 154.425781 247.535156 153.007812 C 256.878906 163.429688 267.496094 172.648438 279.097656 180.429688 " fill-opacity="1" fill-rule="nonzero"/><g clip-path="url(#a7e5841dbb)"><path fill="#b079c2" d="M 163.109375 100.128906 C 150.738281 103.945312 137.984375 106.367188 125.386719 109.292969 C 123.945312 109.632812 122.800781 108.003906 124.113281 107.015625 C 128.875 103.445312 133.359375 99.554688 137.511719 95.28125 C 141.421875 91.257812 144.628906 86.183594 148.90625 82.582031 C 149.230469 82.304688 150.265625 82.367188 150.046875 83.015625 C 148.308594 88.128906 143.5625 92.757812 139.917969 96.621094 C 137.050781 99.664062 134.007812 102.523438 130.824219 105.210938 C 141.289062 102.558594 151.734375 99.742188 162.378906 97.96875 C 163.84375 97.726562 164.671875 99.644531 163.109375 100.128906 Z M 235.414062 209.828125 C 235.15625 210.496094 234.644531 211.027344 233.988281 211.320312 L 207.957031 222.835938 C 207.609375 222.988281 207.242188 223.070312 206.871094 223.070312 C 205.796875 223.070312 204.832031 222.4375 204.402344 221.457031 L 195.34375 200.976562 C 194.742188 199.613281 195.359375 198.015625 196.71875 197.417969 L 222.757812 185.894531 C 223.105469 185.742188 223.46875 185.667969 223.84375 185.667969 C 224.910156 185.667969 225.882812 186.296875 226.3125 187.273438 L 235.359375 207.757812 C 235.65625 208.414062 235.671875 209.152344 235.414062 209.828125 Z M 223.84375 181.890625 C 222.96875 181.890625 222.078125 182.066406 221.222656 182.441406 L 195.195312 193.960938 C 191.925781 195.410156 190.449219 199.230469 191.894531 202.5 L 200.945312 222.988281 C 202.015625 225.40625 204.386719 226.847656 206.871094 226.847656 C 207.746094 226.847656 208.625 226.664062 209.480469 226.285156 L 235.511719 214.769531 C 238.78125 213.324219 240.261719 209.503906 238.816406 206.230469 L 229.757812 185.742188 C 228.695312 183.328125 226.328125 181.890625 223.84375 181.890625 Z M 310.433594 238.371094 C 311.671875 236.996094 314.863281 238.144531 313.355469 239.875 C 301.144531 253.859375 287.007812 265.921875 271.253906 275.75 C 242.273438 293.863281 208.734375 304.3125 174.53125 305.066406 C 138.875 305.84375 102.609375 296.617188 72.640625 277.066406 C 72.125 276.734375 72.8125 276.136719 73.242188 276.363281 C 93.464844 287.132812 115.277344 294.988281 137.894531 298.773438 C 201.738281 309.433594 267.113281 286.457031 310.433594 238.371094 Z M 350.78125 185.652344 C 342.210938 203.082031 333.339844 221.105469 321.847656 236.988281 C 304.59375 260.832031 280.539062 280.410156 252.28125 293.617188 C 224.542969 306.585938 193.976562 312.898438 163.886719 311.863281 C 135.058594 310.882812 105.433594 303.21875 78.210938 289.714844 C 52.949219 277.179688 29.65625 259.589844 10.59375 238.703125 L 103.6875 241.574219 L 103.976562 245.734375 C 104.035156 246.695312 104.804688 247.441406 105.765625 247.492188 C 110.84375 247.742188 115.925781 247.871094 120.996094 247.871094 C 121.910156 247.871094 122.824219 247.863281 123.738281 247.863281 C 125.140625 247.847656 126.550781 247.828125 127.957031 247.789062 C 128.957031 247.765625 129.964844 247.742188 130.972656 247.707031 C 131.480469 247.6875 131.992188 247.671875 132.5 247.652344 C 135.328125 247.546875 138.152344 247.402344 140.976562 247.214844 C 141.667969 247.167969 142.363281 247.121094 143.066406 247.070312 C 144.859375 246.933594 146.65625 246.792969 148.453125 246.625 C 149.277344 246.550781 150.089844 246.476562 150.90625 246.390625 C 152.671875 246.214844 154.429688 246.027344 156.179688 245.824219 C 157.753906 245.644531 159.316406 245.445312 160.875 245.234375 C 163.351562 244.910156 165.828125 244.546875 168.296875 244.15625 C 169.117188 244.027344 169.941406 243.898438 170.761719 243.757812 C 174.054688 243.210938 177.335938 242.609375 180.613281 241.949219 C 181.164062 241.84375 181.714844 241.734375 182.257812 241.617188 C 183.347656 241.390625 184.429688 241.167969 185.519531 240.925781 C 186.332031 240.75 187.148438 240.566406 187.964844 240.378906 C 188.542969 240.25 189.117188 240.121094 189.695312 239.984375 C 190.75 239.746094 191.796875 239.492188 192.84375 239.230469 C 195.285156 238.644531 197.714844 238.015625 200.136719 237.359375 L 200.144531 237.359375 C 200.546875 237.488281 200.953125 237.59375 201.359375 237.667969 C 201.496094 237.699219 201.632812 237.722656 201.773438 237.734375 C 201.867188 237.75 201.957031 237.769531 202.054688 237.773438 C 202.183594 237.796875 202.3125 237.8125 202.449219 237.820312 C 202.539062 237.828125 202.636719 237.835938 202.734375 237.839844 C 202.824219 237.851562 202.921875 237.855469 203.023438 237.855469 C 203.15625 237.867188 203.292969 237.867188 203.429688 237.867188 C 204.929688 237.867188 206.4375 237.554688 207.859375 236.925781 L 244.476562 220.722656 C 245.355469 220.332031 246.167969 219.839844 246.894531 219.242188 C 246.992188 219.175781 247.082031 219.101562 247.175781 219.015625 C 247.367188 218.855469 247.558594 218.675781 247.742188 218.492188 C 247.867188 218.375 247.996094 218.246094 248.109375 218.109375 C 248.214844 218.003906 248.3125 217.890625 248.402344 217.769531 C 248.507812 217.65625 248.597656 217.542969 248.695312 217.421875 C 248.929688 217.121094 249.160156 216.792969 249.363281 216.464844 C 249.4375 216.34375 249.511719 216.222656 249.582031 216.09375 C 249.820312 215.679688 250.035156 215.238281 250.207031 214.792969 C 250.289062 214.605469 250.359375 214.417969 250.417969 214.226562 C 250.46875 214.082031 250.523438 213.933594 250.5625 213.773438 C 250.578125 213.738281 250.582031 213.691406 250.601562 213.65625 L 250.601562 213.648438 C 251.023438 213.394531 251.4375 213.148438 251.851562 212.882812 C 252.683594 212.371094 253.503906 211.851562 254.3125 211.296875 C 254.722656 211.035156 255.128906 210.761719 255.527344 210.480469 C 255.925781 210.210938 256.328125 209.9375 256.722656 209.652344 C 257.136719 209.363281 257.542969 209.070312 257.949219 208.761719 C 258.335938 208.488281 258.714844 208.210938 259.089844 207.914062 C 259.484375 207.628906 259.859375 207.335938 260.242188 207.03125 C 261.015625 206.441406 261.777344 205.828125 262.527344 205.195312 C 262.902344 204.894531 263.28125 204.574219 263.648438 204.25 C 264.015625 203.941406 264.390625 203.625 264.75 203.300781 C 265.121094 202.984375 265.484375 202.660156 265.835938 202.328125 C 266.199219 202.007812 266.554688 201.675781 266.910156 201.335938 C 267.980469 200.339844 269.03125 199.3125 270.039062 198.273438 C 270.726562 197.570312 271.398438 196.867188 272.058594 196.148438 C 272.386719 195.792969 272.71875 195.425781 273.035156 195.0625 C 274.019531 193.96875 274.96875 192.859375 275.882812 191.726562 C 276.464844 191.015625 277.03125 190.296875 277.589844 189.574219 C 278.585938 188.273438 279.550781 186.945312 280.484375 185.59375 C 281.226562 184.519531 281.941406 183.441406 282.628906 182.335938 C 282.917969 181.886719 283.195312 181.429688 283.476562 180.976562 C 283.742188 180.539062 283.800781 180.027344 283.679688 179.550781 C 283.664062 179.5 283.660156 179.453125 283.632812 179.40625 C 283.625 179.363281 283.601562 179.316406 283.589844 179.273438 C 283.582031 179.257812 283.582031 179.242188 283.566406 179.234375 C 283.542969 179.175781 283.515625 179.113281 283.484375 179.058594 C 283.476562 179.042969 283.46875 179.035156 283.460938 179.019531 C 309.363281 162.929688 338.972656 152.945312 369.476562 150.015625 C 362.640625 161.578125 356.617188 173.796875 350.78125 185.652344 Z M 108.074219 204.019531 C 114.066406 204.507812 120.058594 204.753906 126.039062 204.753906 C 127.222656 204.753906 128.40625 204.742188 129.59375 204.71875 C 130.671875 204.707031 131.742188 204.675781 132.8125 204.644531 C 133.699219 204.613281 134.589844 204.585938 135.472656 204.546875 C 135.757812 204.53125 136.046875 204.523438 136.324219 204.507812 C 136.90625 204.480469 137.496094 204.449219 138.078125 204.417969 C 138.738281 204.382812 139.402344 204.34375 140.070312 204.304688 C 140.292969 204.289062 140.519531 204.273438 140.738281 204.25 C 141.769531 204.191406 142.792969 204.117188 143.820312 204.027344 C 144.996094 203.9375 146.179688 203.828125 147.359375 203.707031 C 148.390625 203.613281 149.4375 203.503906 150.476562 203.382812 C 150.976562 203.332031 151.464844 203.273438 151.960938 203.210938 C 152.527344 203.152344 153.09375 203.074219 153.660156 202.996094 C 154.183594 202.9375 154.710938 202.871094 155.230469 202.792969 C 155.976562 202.707031 156.71875 202.597656 157.457031 202.488281 C 157.894531 202.425781 158.324219 202.363281 158.753906 202.296875 C 159.332031 202.214844 159.902344 202.121094 160.476562 202.023438 C 161.085938 201.933594 161.699219 201.835938 162.3125 201.730469 C 162.851562 201.640625 163.390625 201.550781 163.933594 201.453125 C 164.667969 201.332031 165.398438 201.195312 166.121094 201.050781 C 166.371094 201.011719 166.621094 200.96875 166.867188 200.914062 C 167.714844 200.757812 168.566406 200.597656 169.414062 200.417969 C 169.714844 200.355469 170.023438 200.296875 170.332031 200.226562 C 171.179688 200.0625 172.023438 199.878906 172.867188 199.691406 C 173.203125 199.625 173.539062 199.546875 173.878906 199.464844 C 174.535156 199.328125 175.195312 199.175781 175.851562 199.019531 C 176.484375 198.875 177.121094 198.722656 177.753906 198.566406 C 178.320312 198.4375 178.886719 198.292969 179.453125 198.152344 C 179.535156 198.128906 179.609375 198.113281 179.695312 198.089844 C 179.695312 198.65625 179.738281 199.214844 179.828125 199.773438 C 179.96875 200.710938 180.242188 201.632812 180.628906 202.507812 L 193.367188 231.324219 C 193.445312 231.492188 193.515625 231.664062 193.601562 231.824219 C 193.753906 232.117188 193.910156 232.394531 194.082031 232.675781 C 194.167969 232.820312 194.257812 232.957031 194.355469 233.101562 C 194.441406 233.21875 194.53125 233.347656 194.621094 233.46875 C 194.636719 233.492188 194.648438 233.515625 194.664062 233.527344 C 194.765625 233.660156 194.863281 233.78125 194.96875 233.902344 C 195.050781 234.007812 195.140625 234.113281 195.238281 234.214844 C 195.359375 234.359375 195.488281 234.496094 195.632812 234.640625 C 195.382812 234.710938 195.128906 234.777344 194.875 234.835938 C 194.152344 235.023438 193.421875 235.207031 192.6875 235.386719 C 191.789062 235.613281 190.882812 235.832031 189.980469 236.046875 C 189.1875 236.234375 188.394531 236.414062 187.601562 236.597656 C 186.796875 236.777344 185.988281 236.960938 185.171875 237.140625 C 184.363281 237.3125 183.550781 237.492188 182.742188 237.660156 C 181.925781 237.835938 181.113281 238.011719 180.292969 238.167969 C 179.625 238.300781 178.953125 238.4375 178.28125 238.566406 C 177.324219 238.757812 176.363281 238.9375 175.414062 239.113281 C 174.597656 239.261719 173.78125 239.414062 172.960938 239.554688 C 171.773438 239.769531 170.597656 239.964844 169.417969 240.15625 C 168.921875 240.238281 168.429688 240.320312 167.933594 240.394531 C 164.832031 240.890625 161.722656 241.332031 158.605469 241.722656 C 158.070312 241.800781 157.527344 241.859375 156.984375 241.921875 C 156.566406 241.980469 156.152344 242.023438 155.746094 242.070312 C 154.921875 242.167969 154.101562 242.261719 153.277344 242.351562 C 152.445312 242.441406 151.625 242.523438 150.800781 242.609375 C 149.980469 242.691406 149.160156 242.773438 148.339844 242.847656 C 148.324219 242.847656 148.320312 242.847656 148.304688 242.847656 C 147.488281 242.925781 146.664062 242.992188 145.851562 243.058594 C 145.027344 243.136719 144.203125 243.203125 143.375 243.257812 C 142.660156 243.3125 141.949219 243.363281 141.238281 243.414062 C 141.027344 243.433594 140.816406 243.445312 140.613281 243.457031 C 139.882812 243.5 139.140625 243.542969 138.40625 243.589844 C 137.109375 243.664062 135.8125 243.734375 134.511719 243.792969 C 133.941406 243.816406 133.367188 243.839844 132.792969 243.863281 C 131.222656 243.929688 129.652344 243.972656 128.082031 244.011719 C 127.296875 244.027344 126.515625 244.042969 125.722656 244.058594 C 119.699219 244.15625 113.660156 244.070312 107.621094 243.800781 L 107.335938 239.609375 C 106.527344 227.65625 105.710938 215.683594 104.898438 203.730469 C 105.878906 203.828125 106.921875 203.921875 108.074219 204.019531 Z M 105.144531 130.875 C 115.691406 129.265625 125.304688 121.976562 130.226562 112.644531 C 130.757812 111.65625 129.039062 111.277344 128.558594 112.0625 C 122.945312 121.164062 114.445312 126.453125 104.46875 128.675781 C 104.359375 128.558594 104.242188 128.464844 104.105469 128.378906 C 103.601562 128.070312 103.085938 127.753906 102.570312 127.445312 L 101.667969 126.894531 C 100.722656 126.320312 99.839844 125.765625 99.261719 125.074219 C 97.804688 123.335938 97.941406 120.460938 99.671875 116.28125 C 99.804688 115.972656 99.847656 115.648438 99.804688 115.324219 C 107.683594 109.066406 114.566406 101.449219 120.371094 93.324219 C 121.011719 92.417969 119.207031 91.800781 118.640625 92.511719 C 112.292969 100.5 105.128906 107.386719 97.367188 113.753906 C 97.359375 113.761719 97.359375 113.761719 97.351562 113.761719 C 97.175781 113.824219 97.003906 113.902344 96.84375 114.019531 C 93.175781 116.597656 89.25 118.8125 85.183594 120.585938 C 79.214844 123.1875 73.589844 124.523438 68.445312 124.566406 L 78.496094 101.171875 C 82.339844 92.230469 86.1875 83.289062 90.03125 74.347656 C 91.742188 70.367188 93.683594 65.859375 97.148438 63.136719 C 103.34375 58.246094 112.753906 60.285156 117.804688 61.933594 C 119.742188 62.558594 121.714844 63.300781 123.617188 64.015625 C 129.09375 66.078125 134.75 68.207031 140.808594 68.300781 C 142.429688 68.328125 144.105469 68.222656 145.734375 68.117188 C 150.53125 67.824219 155.0625 67.546875 157.878906 70.378906 C 159.683594 72.179688 160.316406 74.90625 160.988281 77.792969 C 161.664062 80.683594 162.363281 83.675781 164.28125 86.171875 C 167.878906 90.847656 174.453125 91.738281 179.367188 90.546875 C 181.035156 90.148438 182.71875 89.527344 184.476562 88.65625 C 191.328125 95.871094 196.617188 104.925781 201.738281 113.683594 C 208.167969 124.695312 214.816406 136.082031 224.757812 144.382812 C 227.21875 146.445312 229.882812 148.308594 232.464844 150.117188 C 235.382812 152.160156 238.160156 154.109375 240.671875 156.308594 C 240.402344 156.667969 240.121094 157.023438 239.84375 157.378906 C 239.550781 157.75 239.253906 158.113281 238.953125 158.464844 C 238.472656 159.054688 237.972656 159.636719 237.460938 160.210938 C 230.507812 155.234375 223.851562 149.910156 217.730469 143.777344 C 207.882812 133.910156 199.40625 122.753906 192.652344 110.542969 C 192.433594 110.136719 191.519531 110.308594 191.75 110.785156 C 201.511719 130.753906 216.535156 149.789062 235.292969 162.527344 C 235.195312 162.632812 235.097656 162.742188 234.992188 162.847656 C 234.660156 163.175781 234.328125 163.511719 233.988281 163.84375 C 233.964844 163.859375 233.941406 163.882812 233.910156 163.910156 C 233.570312 164.242188 233.222656 164.570312 232.871094 164.894531 C 232.515625 165.222656 232.148438 165.558594 231.785156 165.882812 C 231.453125 166.175781 231.117188 166.464844 230.78125 166.75 C 228.96875 168.292969 227.074219 169.742188 225.097656 171.09375 C 225.097656 171.09375 225.089844 171.101562 225.082031 171.101562 C 224.96875 171.117188 224.847656 171.144531 224.734375 171.175781 C 224.605469 171.207031 224.476562 171.238281 224.351562 171.273438 C 224.238281 171.304688 224.121094 171.332031 224.011719 171.371094 C 223.617188 171.492188 223.230469 171.636719 222.855469 171.804688 L 186.234375 188.007812 C 186.046875 188.09375 185.867188 188.175781 185.683594 188.273438 C 185.316406 188.460938 184.953125 188.671875 184.605469 188.898438 C 184.445312 188.996094 184.296875 189.113281 184.144531 189.226562 C 184.054688 189.292969 183.957031 189.359375 183.863281 189.4375 C 183.753906 189.527344 183.636719 189.617188 183.535156 189.707031 C 182.664062 190.453125 181.910156 191.339844 181.316406 192.320312 C 181.21875 192.472656 181.136719 192.613281 181.050781 192.773438 C 181.042969 192.789062 181.027344 192.8125 181.019531 192.835938 C 180.9375 192.976562 180.859375 193.128906 180.792969 193.28125 C 180.777344 193.308594 180.761719 193.339844 180.75 193.371094 C 180.667969 193.539062 180.589844 193.71875 180.523438 193.890625 C 180.507812 193.921875 180.5 193.949219 180.484375 193.984375 L 180.476562 193.984375 C 179.964844 194.125 179.453125 194.253906 178.9375 194.375 C 178.542969 194.480469 178.144531 194.585938 177.746094 194.675781 C 176.710938 194.941406 175.667969 195.183594 174.628906 195.425781 C 173.585938 195.667969 172.542969 195.898438 171.503906 196.117188 C 171.34375 196.15625 171.195312 196.195312 171.050781 196.214844 C 170.332031 196.375 169.625 196.519531 168.90625 196.664062 C 168.386719 196.777344 167.855469 196.882812 167.328125 196.980469 C 166.882812 197.070312 166.433594 197.152344 165.976562 197.238281 C 165.253906 197.382812 164.53125 197.507812 163.796875 197.636719 C 163.554688 197.683594 163.308594 197.726562 163.066406 197.769531 C 162.152344 197.933594 161.230469 198.082031 160.308594 198.226562 C 158.847656 198.464844 157.390625 198.6875 155.933594 198.882812 C 155.101562 199.011719 154.269531 199.117188 153.433594 199.222656 C 152.417969 199.359375 151.398438 199.480469 150.386719 199.59375 C 149.539062 199.691406 148.703125 199.78125 147.863281 199.863281 C 146.417969 200.015625 144.957031 200.152344 143.511719 200.265625 C 142.726562 200.335938 141.9375 200.386719 141.15625 200.441406 C 138.453125 200.636719 135.746094 200.769531 133.035156 200.863281 C 132.175781 200.890625 131.324219 200.914062 130.460938 200.921875 C 126.996094 200.996094 123.535156 200.988281 120.058594 200.890625 C 119.644531 200.886719 119.230469 200.867188 118.808594 200.851562 C 118.28125 200.839844 117.742188 200.816406 117.214844 200.792969 C 116.535156 200.765625 115.855469 200.730469 115.179688 200.703125 C 115.085938 200.695312 114.996094 200.695312 114.90625 200.6875 C 114.203125 200.648438 113.5 200.609375 112.800781 200.566406 C 112.058594 200.523438 111.328125 200.476562 110.585938 200.421875 C 110.4375 200.417969 110.289062 200.402344 110.128906 200.386719 C 110.234375 177.199219 108.558594 153.828125 105.144531 130.875 Z M 247.105469 212.058594 L 247.105469 212.070312 C 247.105469 212.074219 247.105469 212.082031 247.097656 212.09375 C 246.644531 214.386719 245.089844 216.320312 242.945312 217.273438 L 206.332031 233.46875 C 204.589844 234.238281 202.65625 234.292969 200.871094 233.621094 C 199.042969 232.933594 197.609375 231.574219 196.816406 229.792969 L 184.082031 200.984375 C 183.675781 200.0625 183.46875 199.070312 183.46875 198.074219 C 183.46875 197.402344 183.5625 196.730469 183.746094 196.082031 C 184.34375 194.011719 185.804688 192.328125 187.757812 191.460938 L 224.375 175.261719 C 224.9375 175.011719 225.535156 174.832031 226.125 174.742188 C 226.128906 174.742188 226.128906 174.742188 226.140625 174.742188 C 226.523438 174.671875 226.914062 174.644531 227.308594 174.644531 C 228.011719 174.644531 228.703125 174.746094 229.363281 174.945312 C 229.6875 175.042969 230.011719 175.164062 230.3125 175.308594 C 231.867188 176.023438 233.15625 177.285156 233.890625 178.9375 L 246.621094 207.75 C 247.226562 209.117188 247.394531 210.597656 247.105469 212.058594 Z M 242.019531 160.6875 C 242.269531 160.382812 242.515625 160.082031 242.75 159.777344 L 242.9375 159.554688 C 243.136719 159.296875 243.339844 159.042969 243.535156 158.777344 L 244.734375 157.175781 C 245.714844 155.824219 246.652344 154.425781 247.535156 153.007812 C 256.878906 163.429688 267.496094 172.648438 279.097656 180.429688 C 279.164062 180.472656 279.226562 180.511719 279.285156 180.554688 C 278.902344 181.160156 278.515625 181.753906 278.117188 182.34375 C 278.003906 182.519531 277.890625 182.683594 277.777344 182.851562 C 277.371094 183.449219 276.964844 184.042969 276.539062 184.632812 C 276.496094 184.699219 276.441406 184.777344 276.386719 184.84375 C 275.9375 185.476562 275.46875 186.113281 274.992188 186.742188 C 274.960938 186.785156 274.933594 186.828125 274.894531 186.867188 C 274.425781 187.488281 273.945312 188.105469 273.460938 188.71875 C 273.40625 188.78125 273.363281 188.839844 273.308594 188.898438 C 272.878906 189.441406 272.433594 189.980469 271.988281 190.515625 C 271.859375 190.660156 271.738281 190.804688 271.617188 190.949219 C 271.148438 191.496094 270.675781 192.046875 270.195312 192.59375 C 270.148438 192.636719 270.109375 192.683594 270.0625 192.730469 C 269.523438 193.332031 268.96875 193.9375 268.410156 194.527344 C 268.378906 194.558594 268.355469 194.578125 268.335938 194.609375 C 267.808594 195.167969 267.273438 195.71875 266.726562 196.261719 C 266.621094 196.371094 266.523438 196.464844 266.421875 196.574219 C 266.011719 196.980469 265.589844 197.390625 265.167969 197.789062 C 264.921875 198.019531 264.691406 198.25 264.441406 198.476562 C 263.996094 198.902344 263.542969 199.3125 263.089844 199.71875 C 263.007812 199.804688 262.917969 199.878906 262.835938 199.957031 C 262.25 200.476562 261.664062 200.988281 261.066406 201.496094 C 260.546875 201.941406 260.027344 202.371094 259.496094 202.804688 C 259.421875 202.863281 259.347656 202.929688 259.269531 202.984375 C 259.113281 203.117188 258.957031 203.25 258.789062 203.371094 C 258.234375 203.816406 257.683594 204.246094 257.117188 204.675781 C 257.117188 204.675781 257.117188 204.675781 257.113281 204.683594 C 256.488281 205.160156 255.859375 205.625 255.21875 206.085938 C 253.90625 207.03125 252.570312 207.945312 251.210938 208.816406 C 251.105469 208.882812 251 208.949219 250.890625 209.019531 C 250.863281 208.84375 250.832031 208.675781 250.804688 208.503906 C 250.792969 208.46875 250.789062 208.4375 250.78125 208.398438 C 250.757812 208.285156 250.734375 208.179688 250.703125 208.066406 C 250.675781 207.953125 250.644531 207.832031 250.613281 207.71875 C 250.570312 207.539062 250.507812 207.363281 250.449219 207.191406 C 250.402344 207.046875 250.359375 206.910156 250.304688 206.773438 C 250.238281 206.585938 250.160156 206.40625 250.078125 206.222656 L 237.34375 177.414062 C 237.246094 177.195312 237.140625 176.976562 237.03125 176.765625 C 236.996094 176.703125 236.96875 176.632812 236.921875 176.574219 C 236.847656 176.429688 236.773438 176.289062 236.683594 176.152344 C 236.636719 176.066406 236.585938 175.980469 236.523438 175.898438 C 236.386719 175.683594 236.242188 175.472656 236.09375 175.269531 C 235.941406 175.066406 235.78125 174.875 235.625 174.6875 C 235.46875 174.5 235.292969 174.316406 235.121094 174.136719 C 235.097656 174.121094 235.082031 174.097656 235.058594 174.082031 C 234.878906 173.902344 234.699219 173.730469 234.507812 173.570312 C 234.3125 173.394531 234.109375 173.230469 233.90625 173.082031 C 233.738281 172.949219 233.570312 172.828125 233.402344 172.722656 C 233.300781 172.648438 233.195312 172.585938 233.097656 172.527344 C 232.96875 172.445312 232.847656 172.378906 232.71875 172.300781 C 232.402344 172.121094 232.078125 171.953125 231.738281 171.816406 C 231.582031 171.742188 231.421875 171.671875 231.261719 171.613281 C 231.203125 171.585938 231.140625 171.5625 231.082031 171.546875 C 231.035156 171.523438 230.992188 171.507812 230.949219 171.492188 C 231.601562 170.980469 232.246094 170.457031 232.878906 169.921875 C 233.164062 169.6875 233.449219 169.445312 233.730469 169.199219 C 233.785156 169.152344 233.828125 169.105469 233.882812 169.0625 C 234.175781 168.8125 234.472656 168.550781 234.757812 168.285156 C 235.132812 167.949219 235.503906 167.605469 235.875 167.257812 C 236.335938 166.828125 236.789062 166.394531 237.222656 165.949219 C 237.597656 165.582031 237.964844 165.210938 238.335938 164.828125 L 238.515625 164.636719 C 238.742188 164.402344 238.96875 164.160156 239.1875 163.917969 L 240.5625 162.402344 L 240.570312 162.402344 C 240.660156 162.296875 240.75 162.183594 240.847656 162.078125 Z M 374.609375 146.839844 C 374.242188 146.222656 373.558594 145.878906 372.859375 145.9375 C 339.960938 148.476562 307.953125 159.078125 280.207031 176.613281 C 268.539062 168.671875 257.933594 159.246094 248.667969 148.582031 C 248.269531 148.121094 247.667969 147.878906 247.054688 147.9375 C 246.449219 148 245.902344 148.355469 245.601562 148.882812 C 244.757812 150.355469 243.851562 151.8125 242.886719 153.234375 C 240.265625 150.976562 237.40625 148.972656 234.621094 147.019531 C 232.113281 145.261719 229.511719 143.441406 227.175781 141.484375 C 217.746094 133.609375 211.261719 122.511719 204.996094 111.78125 C 199.519531 102.410156 193.859375 92.714844 186.191406 85.011719 C 185.601562 84.414062 184.6875 84.28125 183.949219 84.6875 C 182.007812 85.742188 180.226562 86.460938 178.484375 86.875 C 174.75 87.78125 169.835938 87.203125 167.269531 83.871094 C 165.851562 82.019531 165.277344 79.550781 164.667969 76.9375 C 163.902344 73.660156 163.109375 70.269531 160.550781 67.710938 C 156.535156 63.667969 150.671875 64.03125 145.503906 64.351562 C 143.878906 64.449219 142.339844 64.546875 140.867188 64.523438 C 135.464844 64.4375 130.355469 62.523438 124.941406 60.484375 C 123.003906 59.75 120.988281 58.996094 118.972656 58.339844 C 111.921875 56.042969 102.003906 54.496094 94.804688 60.171875 C 90.597656 63.488281 88.453125 68.464844 86.558594 72.855469 C 82.714844 81.800781 78.875 90.734375 75.03125 99.675781 L 63.886719 125.609375 C 63.648438 126.167969 63.6875 126.8125 64.007812 127.332031 C 64.316406 127.851562 64.859375 128.191406 65.472656 128.234375 C 71.953125 128.765625 79.09375 127.355469 86.691406 124.046875 C 89.417969 122.863281 92.082031 121.488281 94.65625 119.9375 C 94.167969 123.054688 94.734375 125.546875 96.363281 127.503906 C 97.183594 128.476562 98.1875 129.175781 99.140625 129.761719 C 99.328125 129.882812 99.515625 129.996094 99.699219 130.109375 L 100.609375 130.667969 C 100.867188 130.824219 101.125 130.984375 101.378906 131.136719 C 101.378906 131.160156 101.390625 131.175781 101.390625 131.199219 C 104.769531 153.949219 106.4375 177.097656 106.34375 200.078125 C 105.167969 199.972656 104.097656 199.863281 103.0625 199.742188 C 102.511719 199.683594 101.957031 199.875 101.554688 200.265625 C 101.148438 200.648438 100.933594 201.195312 100.980469 201.753906 C 101.800781 213.757812 102.617188 225.78125 103.433594 237.792969 L 6.3125 234.792969 C 5.566406 234.777344 4.867188 235.191406 4.546875 235.871094 C 4.222656 236.550781 4.335938 237.359375 4.835938 237.925781 C 24.738281 260.617188 49.53125 279.703125 76.535156 293.097656 C 104.234375 306.84375 134.390625 314.636719 163.753906 315.640625 C 165.917969 315.714844 168.070312 315.746094 170.234375 315.746094 C 198.808594 315.746094 227.59375 309.328125 253.882812 297.039062 C 282.714844 283.558594 307.273438 263.566406 324.902344 239.210938 C 336.578125 223.066406 345.523438 204.894531 354.171875 187.320312 C 360.511719 174.445312 367.0625 161.132812 374.609375 148.808594 C 374.980469 148.203125 374.980469 147.441406 374.609375 146.839844 " fill-opacity="1" fill-rule="nonzero"/></g></svg>