<svg xmlns="http://www.w3.org/2000/svg" xmlns:xlink="http://www.w3.org/1999/xlink" width="500" zoomAndPan="magnify" viewBox="0 0 375 374.999991" height="500" preserveAspectRatio="xMidYMid meet" version="1.0"><defs><clipPath id="94d0f29aeb"><path d="M 29.175781 10.132812 L 346.011719 10.132812 L 346.011719 364.867188 L 29.175781 364.867188 Z M 29.175781 10.132812 " clip-rule="nonzero"/></clipPath></defs><rect x="-37.5" width="450" fill="#ffffff" y="-37.499999" height="449.999989" fill-opacity="1"/><rect x="-37.5" width="450" fill="#ffffff" y="-37.499999" height="449.999989" fill-opacity="1"/><g clip-path="url(#94d0f29aeb)"><path fill="#efc7e6" d="M 345.574219 164.480469 C 344.738281 152.816406 342.933594 141.121094 340.21875 129.722656 C 338.058594 120.644531 334.867188 110.410156 327.53125 103.363281 C 323.847656 99.8125 318.820312 97.347656 313.746094 96.597656 C 308.1875 95.773438 303 97.035156 299.148438 100.164062 C 297.617188 101.398438 296.359375 102.855469 295.144531 104.265625 C 293.898438 105.699219 292.722656 107.054688 291.332031 108.128906 C 283.410156 114.210938 271.367188 108.753906 267.863281 106.933594 C 249.109375 97.199219 235.976562 79.441406 223.261719 62.265625 C 220.679688 58.773438 218.015625 55.164062 215.347656 51.691406 C 194.039062 23.953125 173.019531 10.359375 151.082031 10.132812 C 150.917969 10.132812 150.753906 10.132812 150.589844 10.132812 C 131.847656 10.132812 113.609375 21.269531 105.082031 37.960938 C 97.054688 53.667969 97.871094 71.6875 98.660156 89.113281 C 98.941406 95.207031 99.226562 101.511719 99.117188 107.582031 C 98.976562 115.136719 98.199219 124.851562 93.386719 132.910156 C 87.902344 142.082031 79.03125 145.332031 72.660156 144.46875 C 69.121094 144 65.503906 142.351562 62.023438 140.765625 C 56.199219 138.109375 50.175781 135.375 43.890625 137.648438 C 38.742188 139.503906 34.886719 144.328125 32.421875 151.996094 C 27.542969 167.132812 29.113281 183.03125 31.03125 195.199219 C 36.753906 231.523438 51.421875 266.304688 73.441406 295.757812 C 75.902344 299.042969 78.722656 302.113281 82.761719 302.359375 C 85.074219 302.5 87.242188 301.65625 89.019531 299.910156 C 91.574219 297.414062 93.109375 293.234375 92.945312 289.257812 C 92.859375 286.976562 92.421875 284.738281 92 282.574219 C 91.417969 279.5625 90.863281 276.710938 91.230469 273.914062 C 91.574219 271.378906 93.550781 268.683594 95.824219 267.644531 C 97.175781 267.027344 98.402344 267.070312 99.460938 267.765625 C 100.410156 268.394531 101.171875 269.515625 101.984375 270.703125 C 103.300781 272.640625 104.792969 274.835938 107.558594 275.304688 C 112.964844 276.222656 114.527344 270.667969 115.777344 266.195312 C 117.03125 261.734375 118.03125 258.792969 120.378906 258.589844 C 122.632812 258.398438 124.425781 261.441406 125.347656 264.355469 C 126.933594 269.34375 128.058594 274.640625 129.140625 279.761719 C 131.125 289.121094 133.171875 298.800781 138.160156 307.25 C 140.339844 310.945312 144.898438 315.171875 149.761719 315.734375 C 152.328125 316.035156 154.597656 315.238281 156.324219 313.425781 C 157.15625 312.550781 157.710938 311.5625 158.242188 310.609375 C 158.753906 309.6875 159.246094 308.820312 159.898438 308.265625 C 160.648438 307.625 161.53125 307.382812 162.601562 307.535156 C 164.839844 307.847656 167.617188 309.878906 169.335938 312.472656 C 173.488281 318.726562 175.363281 326 177.355469 333.714844 C 179.269531 341.121094 181.238281 348.773438 185.433594 355.394531 C 189.253906 361.429688 194.457031 364.867188 199.628906 364.867188 C 200.152344 364.867188 200.679688 364.832031 201.199219 364.761719 C 205.207031 364.207031 208.394531 361.59375 210.441406 359.679688 C 221.328125 349.515625 227.246094 333.117188 226.257812 315.796875 C 226.191406 314.582031 226.09375 313.359375 225.992188 312.128906 C 225.582031 307.042969 225.199219 302.238281 226.839844 297.855469 C 227.949219 294.878906 230.6875 292.199219 233.644531 291.203125 C 235.042969 290.726562 237.113281 290.421875 239.0625 291.648438 C 240.4375 292.511719 241.539062 293.953125 242.710938 295.488281 C 244.492188 297.835938 246.519531 300.492188 249.90625 301.039062 C 254.039062 301.710938 257.84375 299.015625 261.210938 293.015625 C 269.140625 278.921875 275.347656 263.886719 279.664062 248.324219 C 280.609375 244.925781 281.71875 243.257812 283.148438 243.066406 C 284.96875 242.816406 285.816406 244.671875 287.179688 248.652344 C 287.855469 250.609375 288.550781 252.652344 289.644531 254.308594 C 291.261719 256.765625 293.941406 258.257812 297.183594 258.507812 C 301.222656 258.832031 305.546875 257.132812 308.207031 254.207031 C 312.828125 249.125 313.554688 241.8125 313.675781 236.007812 C 313.726562 233.328125 313.679688 230.605469 313.640625 227.976562 C 313.535156 220.871094 313.417969 213.515625 315.210938 206.679688 C 315.636719 205.074219 316.21875 204.113281 316.859375 203.964844 C 318.347656 203.617188 319.496094 207.710938 319.933594 209.246094 C 320.949219 212.828125 323.296875 216.117188 326.375 218.269531 C 326.785156 218.554688 327.300781 218.664062 327.78125 218.546875 C 328.769531 218.328125 329.6875 218.007812 330.503906 217.609375 C 334.984375 215.449219 338.460938 211.15625 341.132812 204.476562 C 344.96875 194.871094 346.015625 184.730469 346.015625 175.597656 C 346.015625 171.660156 345.820312 167.914062 345.574219 164.480469 " fill-opacity="1" fill-rule="nonzero"/><path fill="#ead8ef" d="M 337.828125 203.160156 C 341.902344 192.957031 343.199219 181.105469 342.023438 164.738281 C 341.207031 153.261719 339.4375 141.753906 336.761719 130.550781 C 334.722656 121.964844 331.734375 112.335938 325.074219 105.917969 C 319.050781 100.132812 308.285156 97.339844 301.378906 102.921875 C 300.101562 103.957031 299 105.234375 297.832031 106.585938 C 296.523438 108.09375 295.171875 109.65625 293.5 110.941406 C 290.394531 113.328125 281.511719 118.027344 266.226562 110.089844 C 246.742188 99.972656 233.351562 81.878906 220.402344 64.375 C 217.835938 60.902344 215.179688 57.304688 212.527344 53.859375 C 191.933594 27.039062 171.816406 13.898438 151.042969 13.683594 C 133.457031 13.480469 116.246094 23.910156 108.246094 39.574219 C 100.652344 54.441406 101.445312 71.984375 102.210938 88.957031 C 102.488281 95.101562 102.78125 101.472656 102.671875 107.644531 C 102.527344 115.648438 101.6875 125.953125 96.4375 134.734375 C 91.894531 142.347656 82.636719 149.402344 72.191406 147.996094 C 68.121094 147.449219 64.269531 145.695312 60.542969 144 C 55.132812 141.535156 50.027344 139.203125 45.089844 140.988281 C 40.050781 142.808594 37.253906 148.570312 35.804688 153.09375 C 32.175781 164.339844 31.789062 177.152344 34.546875 194.640625 C 40.175781 230.40625 54.613281 264.632812 76.292969 293.632812 C 78.234375 296.226562 80.386719 298.660156 82.984375 298.816406 C 84.28125 298.890625 85.472656 298.410156 86.53125 297.371094 C 88.367188 295.582031 89.519531 292.378906 89.398438 289.398438 C 89.3125 287.378906 88.929688 285.375 88.515625 283.257812 C 87.898438 280.089844 87.265625 276.820312 87.710938 273.445312 C 88.21875 269.679688 90.949219 265.96875 94.355469 264.414062 C 96.820312 263.289062 99.324219 263.425781 101.414062 264.796875 C 102.957031 265.8125 104.003906 267.347656 104.929688 268.703125 C 106.144531 270.496094 106.96875 271.597656 108.15625 271.800781 C 110.070312 272.136719 110.914062 270.359375 112.359375 265.238281 C 113.574219 260.886719 115.097656 255.480469 120.078125 255.050781 C 123.828125 254.734375 126.984375 257.734375 128.734375 263.28125 C 130.375 268.433594 131.515625 273.820312 132.625 279.023438 C 134.628906 288.523438 136.535156 297.492188 141.21875 305.445312 C 143.289062 308.945312 147.136719 311.851562 150.171875 312.203125 C 151.621094 312.371094 152.796875 311.976562 153.75 310.980469 C 154.269531 310.425781 154.695312 309.675781 155.136719 308.878906 C 155.753906 307.773438 156.453125 306.53125 157.589844 305.558594 C 158.839844 304.492188 160.355469 303.9375 162.003906 303.9375 C 162.359375 303.9375 162.722656 303.957031 163.09375 304.015625 C 167.074219 304.570312 170.546875 307.859375 172.292969 310.503906 C 176.789062 317.261719 178.828125 325.171875 180.796875 332.824219 C 182.640625 339.96875 184.546875 347.34375 188.441406 353.496094 C 191.09375 357.6875 195.722656 361.925781 200.714844 361.242188 C 202.996094 360.921875 205.320312 359.601562 208.019531 357.085938 C 218.144531 347.632812 223.632812 332.269531 222.710938 315.996094 C 222.644531 314.808594 222.546875 313.617188 222.449219 312.417969 C 222.027344 307.164062 221.59375 301.742188 223.503906 296.609375 C 224.996094 292.625 228.53125 289.179688 232.503906 287.835938 C 235.515625 286.820312 238.507812 287.101562 240.953125 288.636719 C 242.875 289.839844 244.222656 291.617188 245.53125 293.335938 C 247.117188 295.417969 248.492188 297.214844 250.472656 297.535156 C 253.589844 298.039062 256.355469 294.410156 258.113281 291.273438 C 265.898438 277.429688 272 262.65625 276.234375 247.371094 C 276.792969 245.390625 278.253906 240.128906 282.679688 239.546875 C 287.59375 238.894531 289.226562 243.664062 290.542969 247.492188 C 291.148438 249.253906 291.773438 251.066406 292.621094 252.355469 C 293.898438 254.300781 295.960938 254.847656 297.460938 254.96875 C 300.441406 255.195312 303.625 253.964844 305.574219 251.820312 C 309.398438 247.605469 310.011719 241.117188 310.121094 235.9375 C 310.167969 233.320312 310.125 230.636719 310.082031 228.035156 C 309.96875 220.6875 309.855469 213.082031 311.773438 205.769531 C 312.578125 202.742188 314.023438 200.964844 316.0625 200.503906 C 320.835938 199.394531 322.53125 205.394531 323.351562 208.277344 C 324.078125 210.835938 325.664062 213.203125 327.769531 214.882812 C 328.195312 214.746094 328.585938 214.597656 328.949219 214.417969 C 332.601562 212.65625 335.503906 208.972656 337.828125 203.160156 Z M 345.574219 164.480469 C 345.820312 167.914062 346.015625 171.660156 346.015625 175.597656 C 346.015625 184.730469 344.96875 194.871094 341.132812 204.476562 C 338.460938 211.15625 334.984375 215.449219 330.503906 217.609375 C 329.6875 218.007812 328.769531 218.328125 327.78125 218.546875 C 327.300781 218.664062 326.785156 218.554688 326.375 218.269531 C 323.296875 216.117188 320.949219 212.828125 319.933594 209.246094 C 319.496094 207.710938 318.347656 203.617188 316.859375 203.964844 C 316.21875 204.113281 315.636719 205.074219 315.210938 206.679688 C 313.417969 213.515625 313.535156 220.871094 313.640625 227.976562 C 313.679688 230.605469 313.726562 233.328125 313.675781 236.007812 C 313.554688 241.8125 312.828125 249.125 308.207031 254.207031 C 305.546875 257.132812 301.222656 258.832031 297.183594 258.507812 C 293.941406 258.257812 291.261719 256.765625 289.644531 254.308594 C 288.550781 252.652344 287.855469 250.609375 287.179688 248.652344 C 285.816406 244.671875 284.96875 242.816406 283.148438 243.066406 C 281.71875 243.257812 280.609375 244.925781 279.664062 248.324219 C 275.347656 263.886719 269.140625 278.921875 261.210938 293.015625 C 257.84375 299.015625 254.039062 301.710938 249.90625 301.039062 C 246.519531 300.492188 244.492188 297.835938 242.710938 295.488281 C 241.539062 293.953125 240.4375 292.511719 239.0625 291.648438 C 237.113281 290.421875 235.042969 290.726562 233.644531 291.203125 C 230.6875 292.199219 227.949219 294.878906 226.839844 297.855469 C 225.199219 302.238281 225.582031 307.042969 225.992188 312.128906 C 226.09375 313.359375 226.191406 314.582031 226.257812 315.796875 C 227.246094 333.117188 221.328125 349.515625 210.441406 359.679688 C 208.394531 361.59375 205.207031 364.207031 201.199219 364.761719 C 200.679688 364.832031 200.152344 364.867188 199.628906 364.867188 C 194.457031 364.867188 189.253906 361.429688 185.433594 355.394531 C 181.238281 348.773438 179.269531 341.121094 177.355469 333.714844 C 175.363281 326 173.488281 318.726562 169.335938 312.472656 C 167.617188 309.878906 164.839844 307.847656 162.601562 307.535156 C 161.53125 307.382812 160.648438 307.625 159.898438 308.265625 C 159.246094 308.820312 158.753906 309.6875 158.242188 310.609375 C 157.710938 311.5625 157.15625 312.550781 156.324219 313.425781 C 154.597656 315.238281 152.328125 316.035156 149.761719 315.734375 C 144.898438 315.171875 140.339844 310.945312 138.160156 307.25 C 133.171875 298.800781 131.125 289.121094 129.140625 279.761719 C 128.058594 274.640625 126.933594 269.34375 125.347656 264.355469 C 124.425781 261.441406 122.632812 258.398438 120.378906 258.589844 C 118.03125 258.792969 117.03125 261.734375 115.777344 266.195312 C 114.527344 270.667969 112.964844 276.222656 107.558594 275.304688 C 104.792969 274.835938 103.300781 272.640625 101.984375 270.703125 C 101.171875 269.515625 100.410156 268.394531 99.460938 267.765625 C 98.402344 267.070312 97.175781 267.027344 95.824219 267.644531 C 93.550781 268.683594 91.574219 271.378906 91.230469 273.914062 C 90.863281 276.710938 91.417969 279.5625 92 282.574219 C 92.421875 284.738281 92.859375 286.976562 92.945312 289.257812 C 93.109375 293.234375 91.574219 297.414062 89.019531 299.910156 C 87.242188 301.65625 85.074219 302.5 82.761719 302.359375 C 78.722656 302.113281 75.902344 299.042969 73.441406 295.757812 C 51.421875 266.304688 36.753906 231.523438 31.03125 195.199219 C 29.113281 183.03125 27.542969 167.132812 32.421875 151.996094 C 34.886719 144.328125 38.742188 139.503906 43.890625 137.648438 C 50.175781 135.375 56.199219 138.109375 62.023438 140.765625 C 65.503906 142.351562 69.121094 144 72.660156 144.46875 C 79.03125 145.332031 87.902344 142.082031 93.386719 132.910156 C 98.199219 124.851562 98.976562 115.136719 99.117188 107.582031 C 99.226562 101.511719 98.941406 95.207031 98.660156 89.113281 C 97.871094 71.6875 97.054688 53.667969 105.082031 37.960938 C 113.609375 21.269531 131.847656 10.132812 150.589844 10.132812 C 150.753906 10.132812 150.917969 10.132812 151.082031 10.132812 C 173.019531 10.359375 194.039062 23.953125 215.347656 51.691406 C 218.015625 55.164062 220.679688 58.773438 223.261719 62.265625 C 235.976562 79.441406 249.109375 97.199219 267.863281 106.933594 C 271.367188 108.753906 283.410156 114.210938 291.332031 108.128906 C 292.722656 107.054688 293.898438 105.699219 295.144531 104.265625 C 296.359375 102.855469 297.617188 101.398438 299.148438 100.164062 C 303 97.035156 308.1875 95.773438 313.746094 96.597656 C 318.820312 97.347656 323.847656 99.8125 327.53125 103.363281 C 334.867188 110.410156 338.058594 120.644531 340.21875 129.722656 C 342.933594 141.121094 344.738281 152.816406 345.574219 164.480469 " fill-opacity="1" fill-rule="nonzero"/></g><path fill="#f5fcfd" d="M 150.292969 107.617188 C 150.292969 102.992188 146.539062 99.238281 141.910156 99.238281 C 137.28125 99.238281 133.527344 102.992188 133.527344 107.617188 C 133.527344 112.246094 137.28125 115.996094 141.910156 115.996094 C 146.539062 115.996094 150.292969 112.246094 150.292969 107.617188 Z M 168.425781 82.722656 C 169.59375 82.722656 170.585938 81.25 169.117188 80.75 C 164.082031 79.042969 159.160156 77.707031 154.609375 74.828125 C 153.523438 74.140625 152.476562 73.402344 151.480469 72.613281 C 150.777344 72.0625 150.09375 71.488281 149.441406 70.882812 C 146.980469 68.652344 144.820312 66.101562 142.910156 63.308594 C 142.179688 62.226562 139.710938 62.945312 140.46875 64.277344 C 141.941406 66.871094 143.832031 69.414062 146.042969 71.742188 C 142.316406 73.371094 139.71875 77.097656 139.71875 81.414062 C 139.71875 87.25 144.449219 91.984375 150.292969 91.984375 C 156.117188 91.984375 160.847656 87.273438 160.867188 81.460938 C 163.335938 82.269531 165.875 82.71875 168.425781 82.722656 Z M 183.929688 109.414062 C 193.625 106.550781 205.152344 116.578125 201.496094 104.21875 C 197.835938 91.863281 187.007812 84.175781 177.300781 87.042969 C 167.59375 89.910156 162.695312 102.25 166.355469 114.609375 C 170.011719 126.96875 174.21875 112.285156 183.929688 109.414062 Z M 200.621094 77.519531 C 205.5 74.308594 206.851562 67.757812 203.636719 62.886719 C 201 58.882812 196.113281 57.261719 191.75 58.582031 C 191.988281 56.335938 191.988281 54.070312 191.71875 51.832031 C 191.578125 50.675781 189.359375 50.800781 189.273438 51.921875 C 188.554688 61.371094 186.496094 69.738281 181.152344 77.683594 C 180.449219 78.738281 182.460938 79.3125 183.09375 78.554688 C 184.132812 77.289062 185.105469 75.945312 185.996094 74.535156 C 189.21875 79.398438 195.757812 80.726562 200.621094 77.519531 Z M 226.476562 86.441406 C 226.476562 81.816406 222.726562 78.0625 218.09375 78.0625 C 213.464844 78.0625 209.71875 81.816406 209.71875 86.441406 C 209.71875 91.066406 213.464844 94.820312 218.09375 94.820312 C 222.726562 94.820312 226.476562 91.066406 226.476562 86.441406 Z M 342.023438 164.738281 C 343.199219 181.105469 341.902344 192.957031 337.828125 203.160156 C 335.503906 208.972656 332.601562 212.65625 328.949219 214.417969 C 328.585938 214.597656 328.195312 214.746094 327.769531 214.882812 C 325.664062 213.203125 324.078125 210.835938 323.351562 208.277344 C 322.53125 205.394531 320.835938 199.394531 316.0625 200.503906 C 314.023438 200.964844 312.578125 202.742188 311.773438 205.769531 C 309.855469 213.082031 309.96875 220.6875 310.082031 228.035156 C 310.125 230.636719 310.167969 233.320312 310.121094 235.9375 C 310.011719 241.117188 309.398438 247.605469 305.574219 251.820312 C 303.625 253.964844 300.441406 255.195312 297.460938 254.96875 C 295.960938 254.847656 293.898438 254.300781 292.621094 252.355469 C 291.773438 251.066406 291.148438 249.253906 290.542969 247.492188 C 289.226562 243.664062 287.59375 238.894531 282.679688 239.546875 C 278.253906 240.128906 276.792969 245.390625 276.234375 247.371094 C 272 262.65625 265.898438 277.429688 258.113281 291.273438 C 256.355469 294.410156 253.589844 298.039062 250.472656 297.535156 C 248.492188 297.214844 247.117188 295.417969 245.53125 293.335938 C 244.222656 291.617188 242.875 289.839844 240.953125 288.636719 C 238.507812 287.101562 235.515625 286.820312 232.503906 287.835938 C 228.53125 289.179688 224.996094 292.625 223.503906 296.609375 C 221.59375 301.742188 222.027344 307.164062 222.449219 312.417969 C 222.546875 313.617188 222.644531 314.808594 222.710938 315.996094 C 223.632812 332.269531 218.144531 347.632812 208.019531 357.085938 C 205.320312 359.601562 202.996094 360.921875 200.714844 361.242188 C 195.722656 361.925781 191.09375 357.6875 188.441406 353.496094 C 184.546875 347.34375 182.640625 339.96875 180.796875 332.824219 C 178.828125 325.171875 176.789062 317.261719 172.292969 310.503906 C 170.546875 307.859375 167.074219 304.570312 163.09375 304.015625 C 162.722656 303.957031 162.359375 303.9375 162.003906 303.9375 C 160.355469 303.9375 158.839844 304.492188 157.589844 305.558594 C 156.453125 306.53125 155.753906 307.773438 155.136719 308.878906 C 154.695312 309.675781 154.269531 310.425781 153.75 310.980469 C 152.796875 311.976562 151.621094 312.371094 150.171875 312.203125 C 147.136719 311.851562 143.289062 308.945312 141.21875 305.445312 C 136.535156 297.492188 134.628906 288.523438 132.625 279.023438 C 131.515625 273.820312 130.375 268.433594 128.734375 263.28125 C 126.984375 257.734375 123.828125 254.734375 120.078125 255.050781 C 115.097656 255.480469 113.574219 260.886719 112.359375 265.238281 C 110.914062 270.359375 110.070312 272.136719 108.15625 271.800781 C 106.96875 271.597656 106.144531 270.496094 104.929688 268.703125 C 104.003906 267.347656 102.957031 265.8125 101.414062 264.796875 C 99.324219 263.425781 96.820312 263.289062 94.355469 264.414062 C 90.949219 265.96875 88.21875 269.679688 87.710938 273.445312 C 87.265625 276.820312 87.898438 280.089844 88.515625 283.257812 C 88.929688 285.375 89.3125 287.378906 89.398438 289.398438 C 89.519531 292.378906 88.367188 295.582031 86.53125 297.371094 C 85.472656 298.410156 84.28125 298.890625 82.984375 298.816406 C 80.386719 298.660156 78.234375 296.226562 76.292969 293.632812 C 54.613281 264.632812 40.175781 230.40625 34.546875 194.640625 C 31.789062 177.152344 32.175781 164.339844 35.804688 153.09375 C 37.253906 148.570312 40.050781 142.808594 45.089844 140.988281 C 50.027344 139.203125 55.132812 141.535156 60.542969 144 C 64.269531 145.695312 68.121094 147.449219 72.191406 147.996094 C 82.636719 149.402344 91.894531 142.347656 96.4375 134.734375 C 101.6875 125.953125 102.527344 115.648438 102.671875 107.644531 C 102.78125 101.472656 102.488281 95.101562 102.210938 88.957031 C 101.445312 71.984375 100.652344 54.441406 108.246094 39.574219 C 116.246094 23.910156 133.457031 13.480469 151.042969 13.683594 C 171.816406 13.898438 191.933594 27.039062 212.527344 53.859375 C 215.179688 57.304688 217.835938 60.902344 220.402344 64.375 C 233.351562 81.878906 246.742188 99.972656 266.226562 110.089844 C 281.511719 118.027344 290.394531 113.328125 293.5 110.941406 C 295.171875 109.65625 296.523438 108.09375 297.832031 106.585938 C 299 105.234375 300.101562 103.957031 301.378906 102.921875 C 308.285156 97.339844 319.050781 100.132812 325.074219 105.917969 C 331.734375 112.335938 334.722656 121.964844 336.761719 130.550781 C 339.4375 141.753906 341.207031 153.261719 342.023438 164.738281 " fill-opacity="1" fill-rule="nonzero"/><path fill="#dbcbea" d="M 154.609375 74.828125 C 153.523438 74.140625 152.476562 73.402344 151.480469 72.613281 C 150.777344 72.0625 150.09375 71.488281 149.441406 70.882812 C 146.980469 68.652344 144.820312 66.101562 142.910156 63.308594 C 142.179688 62.226562 139.710938 62.945312 140.46875 64.277344 C 141.941406 66.871094 143.832031 69.414062 146.042969 71.742188 C 142.316406 73.371094 139.71875 77.097656 139.71875 81.414062 C 139.71875 87.25 144.449219 91.984375 150.292969 91.984375 C 156.117188 91.984375 160.847656 87.273438 160.867188 81.460938 C 163.335938 82.269531 165.875 82.71875 168.425781 82.722656 C 169.59375 82.722656 170.585938 81.25 169.117188 80.75 C 164.082031 79.042969 159.160156 77.707031 154.609375 74.828125 Z M 177.300781 87.042969 C 167.59375 89.910156 162.695312 102.25 166.355469 114.609375 C 170.011719 126.96875 174.21875 112.285156 183.929688 109.414062 C 193.625 106.550781 205.152344 116.578125 201.496094 104.21875 C 197.835938 91.863281 187.007812 84.175781 177.300781 87.042969 Z M 203.636719 62.886719 C 206.851562 67.757812 205.5 74.308594 200.621094 77.519531 C 195.757812 80.726562 189.21875 79.398438 185.996094 74.535156 C 185.105469 75.945312 184.132812 77.289062 183.09375 78.554688 C 182.460938 79.3125 180.449219 78.738281 181.152344 77.683594 C 186.496094 69.738281 188.554688 61.371094 189.273438 51.921875 C 189.359375 50.800781 191.578125 50.675781 191.71875 51.832031 C 191.988281 54.070312 191.988281 56.335938 191.75 58.582031 C 196.113281 57.261719 201 58.882812 203.636719 62.886719 " fill-opacity="1" fill-rule="nonzero"/><path fill="#efc7e6" d="M 133.527344 107.617188 C 133.527344 112.246094 137.28125 115.996094 141.910156 115.996094 C 146.539062 115.996094 150.292969 112.246094 150.292969 107.617188 C 150.292969 102.992188 146.539062 99.238281 141.910156 99.238281 C 137.28125 99.238281 133.527344 102.992188 133.527344 107.617188 Z M 218.09375 78.0625 C 222.726562 78.0625 226.476562 81.816406 226.476562 86.441406 C 226.476562 91.066406 222.726562 94.820312 218.09375 94.820312 C 213.464844 94.820312 209.71875 91.066406 209.71875 86.441406 C 209.71875 81.816406 213.464844 78.0625 218.09375 78.0625 " fill-opacity="1" fill-rule="nonzero"/></svg>