<svg xmlns="http://www.w3.org/2000/svg" xmlns:xlink="http://www.w3.org/1999/xlink" width="500" zoomAndPan="magnify" viewBox="0 0 375 374.999991" height="500" preserveAspectRatio="xMidYMid meet" version="1.0"><defs><clipPath id="ae28e0fd8b"><path d="M 4.269531 118.191406 L 367.269531 118.191406 L 367.269531 255.261719 L 4.269531 255.261719 Z M 4.269531 118.191406 " clip-rule="nonzero"/></clipPath><clipPath id="95f1bedb55"><path d="M 4.269531 118.191406 L 367.269531 118.191406 L 367.269531 255.261719 L 4.269531 255.261719 Z M 4.269531 118.191406 " clip-rule="nonzero"/></clipPath></defs><rect x="-37.5" width="450" fill="#ffffff" y="-37.499999" height="449.999989" fill-opacity="1"/><rect x="-37.5" width="450" fill="#ffffff" y="-37.499999" height="449.999989" fill-opacity="1"/><g clip-path="url(#ae28e0fd8b)"><path fill="#f8f0f9" d="M 367.242188 221.476562 C 362.265625 195.050781 349.007812 170.183594 329.917969 151.445312 C 313.953125 135.777344 293.953125 124.300781 272.070312 118.257812 C 272.042969 118.25 272.019531 118.242188 271.992188 118.242188 C 271.960938 118.234375 271.941406 118.230469 271.914062 118.21875 C 271.832031 118.207031 271.757812 118.199219 271.679688 118.199219 C 271.664062 118.191406 271.644531 118.191406 271.628906 118.191406 C 271.167969 118.1875 270.746094 118.34375 270.421875 118.613281 C 270.371094 118.648438 270.324219 118.695312 270.289062 118.738281 C 270.230469 118.789062 270.179688 118.84375 270.140625 118.90625 C 270.042969 119.027344 269.960938 119.15625 269.902344 119.304688 C 269.894531 119.308594 269.894531 119.320312 269.894531 119.324219 C 269.808594 119.535156 269.757812 119.769531 269.757812 120.007812 C 269.757812 120.226562 269.800781 120.445312 269.875 120.640625 C 273.382812 132.421875 271.484375 145.453125 264.789062 155.535156 C 259.914062 162.863281 252.351562 168.609375 243.839844 171.636719 C 242.800781 172.011719 241.746094 172.335938 240.683594 172.628906 C 240.144531 172.773438 239.605469 172.902344 239.058594 173.027344 C 233.253906 158.804688 223.039062 146.5 210.144531 138.246094 C 210.125 138.234375 210.109375 138.21875 210.085938 138.210938 C 210.015625 138.160156 209.933594 138.117188 209.855469 138.089844 C 209.703125 138.015625 209.542969 137.964844 209.367188 137.945312 C 209.28125 137.929688 209.195312 137.921875 209.105469 137.921875 C 208.832031 137.921875 208.558594 137.984375 208.328125 138.101562 C 208.1875 138.160156 208.066406 138.242188 207.949219 138.34375 C 207.925781 138.359375 207.902344 138.378906 207.882812 138.398438 C 207.839844 138.4375 207.796875 138.480469 207.757812 138.523438 C 207.601562 138.699219 207.476562 138.902344 207.394531 139.132812 C 207.375 139.183594 207.359375 139.234375 207.34375 139.285156 C 207.320312 139.363281 207.308594 139.449219 207.300781 139.527344 C 207.292969 139.597656 207.289062 139.671875 207.289062 139.746094 C 207.289062 139.867188 207.300781 139.992188 207.320312 140.109375 C 208.238281 144.914062 208.230469 149.921875 207.308594 154.707031 C 201.566406 151.082031 194.933594 148.917969 188.347656 148.546875 C 180.058594 148.089844 171.445312 150.480469 164.320312 155.160156 C 163.300781 150.234375 163.265625 145.078125 164.21875 140.109375 C 164.242188 139.992188 164.257812 139.867188 164.257812 139.746094 L 164.257812 139.738281 C 164.257812 139.664062 164.246094 139.597656 164.242188 139.527344 C 164.234375 139.453125 164.21875 139.382812 164.207031 139.3125 C 164.191406 139.242188 164.167969 139.179688 164.140625 139.113281 C 164.132812 139.085938 164.125 139.054688 164.113281 139.03125 C 164.066406 138.921875 164.007812 138.820312 163.945312 138.722656 C 163.945312 138.722656 163.945312 138.722656 163.933594 138.710938 C 163.898438 138.65625 163.855469 138.597656 163.800781 138.539062 C 163.753906 138.480469 163.695312 138.421875 163.636719 138.378906 C 163.515625 138.261719 163.367188 138.167969 163.214844 138.101562 C 162.984375 137.984375 162.714844 137.921875 162.4375 137.921875 C 162.347656 137.921875 162.261719 137.929688 162.175781 137.945312 C 162 137.964844 161.839844 138.015625 161.6875 138.089844 C 161.609375 138.117188 161.527344 138.160156 161.453125 138.210938 C 161.441406 138.21875 161.417969 138.234375 161.402344 138.246094 C 148.503906 146.492188 138.289062 158.804688 132.480469 173.027344 C 131.90625 172.894531 131.332031 172.75 130.757812 172.597656 C 129.765625 172.332031 128.777344 172.019531 127.8125 171.683594 C 119.246094 168.652344 111.648438 162.894531 106.753906 155.535156 C 100.058594 145.453125 98.160156 132.421875 101.667969 120.640625 C 101.75 120.445312 101.785156 120.226562 101.785156 120.007812 C 101.785156 119.769531 101.734375 119.535156 101.644531 119.324219 C 101.644531 119.320312 101.644531 119.308594 101.636719 119.304688 C 101.570312 119.144531 101.488281 118.996094 101.375 118.867188 C 101.375 118.863281 101.375 118.863281 101.371094 118.851562 C 101.332031 118.8125 101.296875 118.765625 101.253906 118.722656 C 101.164062 118.644531 101.078125 118.570312 100.984375 118.503906 L 100.976562 118.503906 C 100.882812 118.429688 100.777344 118.382812 100.671875 118.335938 L 100.621094 118.316406 C 100.578125 118.300781 100.53125 118.28125 100.488281 118.273438 L 99.964844 118.191406 C 99.945312 118.191406 99.921875 118.191406 99.90625 118.191406 C 99.847656 118.191406 99.796875 118.199219 99.738281 118.207031 C 99.6875 118.214844 99.628906 118.21875 99.578125 118.234375 C 99.570312 118.234375 99.570312 118.234375 99.566406 118.234375 C 99.535156 118.242188 99.5 118.25 99.472656 118.257812 C 99.449219 118.265625 99.425781 118.273438 99.40625 118.28125 C 77.546875 124.324219 57.574219 135.792969 41.628906 151.445312 C 22.535156 170.183594 9.277344 195.050781 4.300781 221.476562 C 4.148438 222.304688 4.578125 223.125 5.347656 223.464844 C 6.121094 223.816406 7.03125 223.578125 7.539062 222.90625 C 9.316406 220.570312 11.410156 218.484375 13.707031 216.742188 C 14.28125 216.296875 14.867188 215.882812 15.46875 215.492188 C 17.578125 214.089844 19.84375 212.972656 22.183594 212.171875 C 28.820312 209.898438 36.320312 210.078125 43.023438 212.5 C 44.019531 212.855469 44.988281 213.261719 45.941406 213.71875 C 47.300781 214.363281 48.617188 215.113281 49.871094 215.957031 C 50.125 216.125 50.414062 216.230469 50.714844 216.253906 C 50.925781 216.277344 51.144531 216.261719 51.363281 216.203125 C 51.871094 216.0625 52.300781 215.71875 52.527344 215.238281 C 52.570312 215.148438 52.613281 215.0625 52.65625 214.984375 C 53.886719 212.492188 55.402344 210.253906 57.136719 208.328125 C 61.210938 203.855469 66.800781 201.179688 72.085938 201.179688 C 76.828125 201.179688 81.796875 203.277344 86.054688 207 C 86.640625 207.507812 87.210938 208.046875 87.757812 208.617188 C 87.886719 208.742188 88.011719 208.875 88.132812 209.003906 C 89.769531 210.753906 91.261719 212.71875 92.691406 214.996094 C 92.890625 215.324219 93.183594 215.5625 93.527344 215.710938 C 93.800781 215.824219 94.101562 215.875 94.40625 215.847656 C 95.070312 215.78125 95.632812 215.359375 95.898438 214.757812 C 95.914062 214.734375 95.917969 214.714844 95.925781 214.691406 C 97.164062 211.503906 98.480469 209.078125 100.066406 207.066406 C 102.621094 203.832031 107.425781 200.445312 112.539062 201.53125 C 116.3125 202.320312 119.414062 205.445312 122.210938 208.699219 C 124.558594 211.425781 126.820312 214.269531 128.953125 217.152344 C 133.339844 230.351562 144.136719 242.082031 157.875 248.5625 C 166.125 252.457031 175.472656 254.703125 185.667969 255.253906 C 185.707031 255.261719 185.742188 255.261719 185.773438 255.261719 C 185.800781 255.261719 185.835938 255.261719 185.875 255.253906 C 196.0625 254.703125 205.417969 252.457031 213.667969 248.5625 C 227.402344 242.082031 238.203125 230.351562 242.589844 217.152344 C 244.722656 214.269531 246.992188 211.425781 249.335938 208.699219 C 252.128906 205.445312 255.226562 202.320312 259.003906 201.53125 C 264.128906 200.445312 268.921875 203.832031 271.464844 207.066406 C 273.0625 209.078125 274.378906 211.503906 275.617188 214.691406 C 275.628906 214.722656 275.636719 214.75 275.660156 214.777344 C 275.921875 215.375 276.480469 215.78125 277.136719 215.847656 C 277.417969 215.867188 277.710938 215.835938 277.964844 215.722656 C 278.328125 215.59375 278.644531 215.335938 278.855469 214.996094 C 280.28125 212.71875 281.765625 210.753906 283.410156 209.003906 C 283.523438 208.882812 283.640625 208.757812 283.765625 208.640625 C 284.320312 208.054688 284.90625 207.5 285.503906 206.984375 C 289.753906 203.265625 294.714844 201.179688 299.460938 201.179688 C 304.742188 201.179688 310.332031 203.855469 314.402344 208.328125 C 316.152344 210.261719 317.664062 212.503906 318.898438 215.003906 C 318.9375 215.078125 318.980469 215.15625 319.015625 215.238281 C 319.242188 215.71875 319.671875 216.0625 320.183594 216.203125 C 320.398438 216.261719 320.617188 216.277344 320.828125 216.253906 C 321.125 216.230469 321.417969 216.125 321.671875 215.957031 C 322.910156 215.128906 324.203125 214.386719 325.542969 213.75 C 326.527344 213.269531 327.527344 212.855469 328.554688 212.492188 C 335.25 210.078125 342.730469 209.898438 349.355469 212.171875 C 351.683594 212.960938 353.941406 214.082031 356.042969 215.476562 C 356.65625 215.867188 357.253906 216.289062 357.835938 216.742188 C 360.132812 218.484375 362.230469 220.570312 364.003906 222.90625 C 364.515625 223.578125 365.425781 223.808594 366.195312 223.464844 C 366.964844 223.125 367.394531 222.304688 367.242188 221.476562 " fill-opacity="1" fill-rule="nonzero"/></g><path fill="#f6fcfe" d="M 170.535156 211.574219 C 170.339844 212.382812 170.183594 213.152344 170.199219 213.792969 C 170.265625 216.136719 170.871094 218.367188 171.949219 220.355469 C 172.273438 218.40625 172.835938 216.40625 173.597656 214.5625 C 172.480469 213.675781 171.453125 212.671875 170.535156 211.574219 Z M 200.78125 212.222656 C 200.914062 212.832031 201 213.421875 200.984375 213.980469 C 200.921875 216.3125 200.328125 218.484375 199.285156 220.4375 C 199.007812 218.550781 198.519531 216.625 197.820312 214.828125 C 198.882812 214.050781 199.878906 213.179688 200.78125 212.222656 " fill-opacity="1" fill-rule="nonzero"/><g clip-path="url(#95f1bedb55)"><path fill="#eb9cd3" d="M 152.207031 185.988281 C 152.917969 184.902344 150.832031 184.460938 150.222656 185.347656 C 147.898438 188.703125 148.285156 194.621094 152.4375 196.378906 C 153.109375 196.664062 154.03125 195.988281 153.542969 195.296875 C 151.472656 192.390625 149.996094 189.339844 152.207031 185.988281 Z M 159.738281 184.925781 C 159.738281 190.242188 162.269531 194.542969 165.398438 194.542969 C 168.527344 194.542969 171.058594 190.242188 171.058594 184.925781 C 171.058594 179.613281 168.527344 175.316406 165.398438 175.316406 C 162.269531 175.316406 159.738281 179.613281 159.738281 184.925781 Z M 171.949219 220.355469 C 172.273438 218.40625 172.835938 216.40625 173.597656 214.5625 C 172.480469 213.675781 171.453125 212.671875 170.535156 211.574219 C 170.339844 212.382812 170.183594 213.152344 170.199219 213.792969 C 170.265625 216.136719 170.871094 218.367188 171.949219 220.355469 Z M 200.984375 213.980469 C 201 213.421875 200.914062 212.832031 200.78125 212.222656 C 199.878906 213.179688 198.882812 214.050781 197.820312 214.828125 C 198.519531 216.625 199.007812 218.550781 199.285156 220.4375 C 200.328125 218.484375 200.921875 216.3125 200.984375 213.980469 Z M 202.332031 199.933594 C 202.65625 198.039062 206.203125 197.738281 206.113281 199.917969 C 205.992188 203.179688 204.972656 206.242188 203.3125 208.917969 C 203.929688 210.722656 203.992188 212.949219 203.9375 214.453125 C 203.800781 218.59375 202.144531 222.386719 199.289062 225.371094 C 198.472656 226.226562 196.765625 226.269531 196.359375 224.984375 C 195.632812 222.652344 195.222656 220.226562 194.554688 217.875 C 194.464844 217.5625 194.371094 217.25 194.269531 216.9375 C 192.125 217.953125 189.800781 218.605469 187.410156 218.820312 C 183.667969 219.160156 180.054688 218.347656 176.886719 216.695312 C 176.835938 216.859375 176.785156 217.023438 176.742188 217.183594 C 176.019531 219.675781 175.578125 222.238281 174.835938 224.722656 C 174.5 225.820312 172.847656 226.546875 171.9375 225.59375 C 169.066406 222.582031 167.390625 218.832031 167.253906 214.640625 C 167.195312 212.898438 167.289062 210.160156 168.222656 208.199219 C 167.339844 206.601562 166.664062 204.871094 166.234375 203.0625 C 165.996094 202.050781 168.039062 201.632812 168.335938 202.558594 C 168.746094 203.847656 169.289062 205.074219 169.964844 206.238281 C 170.367188 206.914062 170.804688 207.566406 171.277344 208.191406 C 172.324219 209.5625 173.554688 210.792969 174.929688 211.832031 C 175.847656 212.527344 176.820312 213.136719 177.851562 213.65625 C 180.398438 214.933594 183.253906 215.617188 186.191406 215.484375 C 188.734375 215.375 191.089844 214.628906 193.179688 213.421875 C 193.179688 213.414062 193.179688 213.414062 193.179688 213.414062 C 194.203125 212.828125 195.171875 212.113281 196.0625 211.3125 C 196.0625 211.308594 196.066406 211.308594 196.066406 211.308594 C 199.316406 208.394531 201.566406 204.253906 202.332031 199.933594 Z M 200.484375 184.925781 C 200.484375 190.242188 203.015625 194.542969 206.144531 194.542969 C 209.273438 194.542969 211.804688 190.242188 211.804688 184.925781 C 211.804688 179.613281 209.273438 175.316406 206.144531 175.316406 C 203.015625 175.316406 200.484375 179.613281 200.484375 184.925781 Z M 218.164062 183.414062 C 220.652344 184.765625 221.074219 188.105469 219.675781 190.394531 C 218.984375 191.519531 221.039062 192.058594 221.691406 191.28125 C 224.222656 188.28125 222.519531 183.683594 218.863281 182.570312 C 218.382812 182.433594 217.480469 183.042969 218.164062 183.414062 Z M 43.632812 208.867188 C 44.011719 206.191406 44.230469 203.492188 44.230469 200.714844 C 44.230469 195.640625 43.882812 180.558594 34.929688 186.070312 C 29.546875 189.386719 25.582031 194.992188 22.5625 200.414062 C 20.875 203.449219 19.550781 206.679688 18.164062 209.859375 C 19.089844 209.441406 20.039062 209.0625 21 208.734375 C 28.210938 206.265625 36.316406 206.382812 43.632812 208.867188 Z M 86.910156 203.011719 C 88.570312 194.164062 88.695312 185.144531 86.558594 176.296875 C 85.535156 172.113281 84.117188 166.835938 80.101562 164.527344 C 74.484375 161.289062 68.777344 166.121094 65.527344 170.382812 C 57.34375 181.125 53.222656 194.578125 52.640625 208.074219 C 53.21875 207.3125 53.820312 206.578125 54.445312 205.890625 C 59.273438 200.59375 65.695312 197.550781 72.085938 197.550781 C 77.132812 197.550781 82.339844 199.496094 86.910156 203.011719 Z M 120.292969 180.414062 C 121.398438 178.167969 122.804688 176.078125 124.527344 174.332031 C 116.058594 170.929688 108.730469 165.070312 103.726562 157.542969 C 97.011719 147.4375 94.71875 134.609375 97.386719 122.644531 C 77.300781 128.71875 58.957031 139.53125 44.175781 154.039062 C 27.167969 170.722656 14.929688 192.421875 9.269531 215.695312 C 10.984375 214.152344 12.835938 212.789062 14.785156 211.628906 C 16.441406 205.582031 19.433594 199.503906 22.660156 194.511719 C 25.933594 189.4375 31.6875 182.304688 38.265625 181.808594 C 45.875 181.242188 47.28125 190.082031 47.695312 195.761719 C 48.035156 200.507812 47.789062 205.394531 46.820312 210.117188 C 47.980469 210.636719 49.097656 211.21875 50.191406 211.859375 C 49.570312 204.449219 50.3125 196.980469 52.402344 189.703125 C 55.117188 180.246094 60.367188 167.78125 69.347656 162.632812 C 73.285156 160.378906 78.335938 159.722656 82.386719 162.066406 C 86.316406 164.347656 88.199219 168.851562 89.351562 173.019531 C 92.214844 183.371094 92.148438 194.542969 89.058594 204.8125 C 89.648438 205.359375 90.230469 205.929688 90.789062 206.527344 C 91.199219 206.957031 91.589844 207.398438 91.976562 207.859375 C 91.714844 203.585938 92.195312 199.160156 92.957031 195.429688 C 94.113281 189.785156 96.007812 183.109375 101.164062 179.832031 C 105.917969 176.8125 112.183594 177.734375 116.757812 180.632812 C 117.679688 181.21875 118.539062 181.875 119.332031 182.59375 C 119.640625 181.808594 119.964844 181.074219 120.292969 180.414062 Z M 276.097656 207.347656 C 276.195312 205.03125 276.195312 202.707031 275.890625 200.308594 C 275.234375 195.179688 274.117188 189.441406 271.207031 185.078125 C 267.546875 179.609375 260.925781 179.796875 255.960938 183.371094 C 254.964844 184.089844 254.0625 184.929688 253.25 185.847656 C 252.269531 186.929688 251.394531 188.121094 250.585938 189.371094 C 250.308594 188.21875 250.078125 187.046875 249.769531 185.886719 C 249.4375 184.546875 249.007812 183.226562 248.359375 181.960938 C 247.109375 179.527344 245.425781 177.484375 243.59375 175.5625 C 241.855469 176.117188 240.082031 176.558594 238.265625 176.898438 C 237.398438 177.058594 236.550781 176.585938 236.230469 175.765625 C 231.296875 162.894531 222.582031 151.589844 211.472656 143.550781 C 211.914062 148.460938 211.5 153.445312 210.25 158.171875 C 210.085938 158.753906 209.65625 159.21875 209.09375 159.421875 C 208.527344 159.625 207.898438 159.53125 207.410156 159.175781 C 201.757812 155.035156 194.910156 152.550781 188.152344 152.179688 C 179.820312 151.722656 171.125 154.433594 164.292969 159.632812 C 163.8125 159.996094 163.179688 160.105469 162.609375 159.90625 C 162.035156 159.722656 161.597656 159.253906 161.441406 158.675781 C 160.074219 153.792969 159.605469 148.636719 160.0625 143.550781 C 148.960938 151.589844 140.246094 162.902344 135.3125 175.765625 C 134.992188 176.585938 134.132812 177.058594 133.273438 176.898438 C 131.402344 176.550781 129.570312 176.085938 127.78125 175.511719 C 125.894531 177.496094 124.210938 179.613281 122.972656 182.15625 C 122.484375 183.167969 122.125 184.214844 121.835938 185.265625 C 121.457031 186.664062 121.183594 188.082031 120.851562 189.480469 C 120.070312 188.265625 119.214844 187.105469 118.265625 186.042969 C 117.617188 185.3125 116.917969 184.621094 116.160156 183.988281 C 111.859375 180.421875 105.109375 179.09375 101.113281 183.800781 C 97.628906 187.902344 96.480469 194.207031 95.757812 199.351562 C 95.382812 202.046875 95.382812 204.667969 95.488281 207.28125 C 96.035156 206.40625 96.609375 205.582031 97.214844 204.8125 C 100.765625 200.316406 105.816406 197.703125 110.648438 197.703125 C 111.542969 197.703125 112.421875 197.789062 113.296875 197.972656 C 118.125 198.992188 121.761719 202.597656 124.972656 206.332031 C 126.734375 208.386719 128.449219 210.492188 130.097656 212.644531 C 130.398438 210.1875 131.203125 207.761719 132.445312 205.515625 C 132.984375 204.550781 135.011719 204.957031 134.453125 206.164062 C 132.714844 209.925781 132.320312 213.835938 132.988281 217.648438 C 137.390625 229.253906 147.148438 239.484375 159.433594 245.28125 C 167.222656 248.957031 176.085938 251.09375 185.773438 251.621094 C 195.457031 251.09375 204.316406 248.957031 212.109375 245.28125 C 224.4375 239.46875 234.207031 229.191406 238.59375 217.539062 C 239.199219 213.761719 238.757812 209.898438 237.058594 206.214844 C 236.535156 205.070312 238.578125 204.5 239.121094 205.472656 C 240.382812 207.726562 241.171875 210.160156 241.46875 212.613281 C 243.105469 210.480469 244.816406 208.371094 246.570312 206.332031 C 249.777344 202.597656 253.414062 198.992188 258.246094 197.972656 C 263.796875 196.792969 270.113281 199.480469 274.324219 204.8125 C 274.953125 205.605469 275.535156 206.449219 276.097656 207.347656 Z M 317.09375 205.890625 C 317.730469 206.585938 318.335938 207.3125 318.898438 208.082031 C 318.296875 194.207031 313.945312 180.261719 305.214844 169.605469 C 301.894531 165.550781 295.691406 161.0625 290.53125 164.917969 C 286.898438 167.636719 285.613281 173.097656 284.703125 177.265625 C 282.855469 185.832031 283.058594 194.484375 284.660156 202.988281 C 289.222656 199.492188 294.421875 197.550781 299.460938 197.550781 C 305.847656 197.550781 312.273438 200.59375 317.09375 205.890625 Z M 350.542969 208.734375 C 351.484375 209.054688 352.414062 209.425781 353.320312 209.839844 C 351.953125 206.730469 350.652344 203.578125 348.992188 200.621094 C 346.039062 195.34375 342.3125 190.191406 337.292969 186.691406 C 335.503906 185.433594 333.191406 183.902344 330.890625 185.273438 C 329.613281 186.039062 328.964844 187.867188 328.550781 189.203125 C 327.550781 192.441406 327.382812 196.070312 327.320312 199.429688 C 327.253906 202.644531 327.5 205.765625 327.945312 208.851562 C 335.25 206.382812 343.347656 206.265625 350.542969 208.734375 Z M 356.777344 211.640625 C 358.722656 212.804688 360.5625 214.164062 362.273438 215.695312 C 356.613281 192.421875 344.375 170.722656 327.371094 154.039062 C 312.585938 139.53125 294.242188 128.71875 274.152344 122.644531 C 276.824219 134.609375 274.539062 147.4375 267.816406 157.542969 C 262.835938 165.03125 255.5625 170.863281 247.152344 174.28125 C 248.929688 176.078125 250.335938 178.242188 251.4375 180.609375 C 251.765625 181.3125 252.089844 182.101562 252.390625 182.929688 C 257.011719 178.375 262.96875 175.875 269.585938 179.222656 C 275.304688 182.121094 277.382812 189.308594 278.570312 195.105469 C 279.371094 199.003906 279.835938 203.535156 279.53125 207.902344 C 279.921875 207.429688 280.335938 206.96875 280.753906 206.527344 C 281.304688 205.941406 281.871094 205.382812 282.453125 204.839844 C 279.289062 194.367188 279.324219 182.867188 282.453125 172.386719 C 285.09375 163.546875 292.824219 157.386719 301.996094 162.371094 C 311.136719 167.339844 316.394531 179.921875 319.125 189.40625 C 321.246094 196.757812 321.984375 204.347656 321.351562 211.859375 C 322.421875 211.230469 323.527344 210.652344 324.664062 210.144531 C 323.644531 205.101562 323.457031 199.859375 323.941406 194.839844 C 324.488281 189.144531 326.445312 181.019531 333.867188 181.839844 C 341.027344 182.621094 346.925781 190.773438 350.214844 196.472656 C 352.835938 201.023438 355.316406 206.324219 356.777344 211.640625 Z M 367.242188 221.476562 C 367.394531 222.304688 366.964844 223.125 366.195312 223.464844 C 365.425781 223.808594 364.515625 223.578125 364.003906 222.90625 C 362.230469 220.570312 360.132812 218.484375 357.835938 216.742188 C 357.253906 216.289062 356.65625 215.867188 356.042969 215.476562 C 353.941406 214.082031 351.683594 212.960938 349.355469 212.171875 C 342.730469 209.898438 335.25 210.078125 328.554688 212.492188 C 327.527344 212.855469 326.527344 213.269531 325.542969 213.75 C 324.203125 214.386719 322.910156 215.128906 321.671875 215.957031 C 321.417969 216.125 321.125 216.230469 320.828125 216.253906 C 320.617188 216.277344 320.398438 216.261719 320.183594 216.203125 C 319.671875 216.0625 319.242188 215.71875 319.015625 215.238281 C 318.980469 215.15625 318.9375 215.078125 318.898438 215.003906 C 317.664062 212.503906 316.152344 210.261719 314.402344 208.328125 C 310.332031 203.855469 304.742188 201.179688 299.460938 201.179688 C 294.714844 201.179688 289.753906 203.265625 285.503906 206.984375 C 284.90625 207.5 284.320312 208.054688 283.765625 208.640625 C 283.640625 208.757812 283.523438 208.882812 283.410156 209.003906 C 281.765625 210.753906 280.28125 212.71875 278.855469 214.996094 C 278.644531 215.335938 278.328125 215.59375 277.964844 215.722656 C 277.710938 215.835938 277.417969 215.867188 277.136719 215.847656 C 276.480469 215.78125 275.921875 215.375 275.660156 214.777344 C 275.636719 214.75 275.628906 214.722656 275.617188 214.691406 C 274.378906 211.503906 273.0625 209.078125 271.464844 207.066406 C 268.921875 203.832031 264.128906 200.445312 259.003906 201.53125 C 255.226562 202.320312 252.128906 205.445312 249.335938 208.699219 C 246.992188 211.425781 244.722656 214.269531 242.589844 217.152344 C 238.203125 230.351562 227.402344 242.082031 213.667969 248.5625 C 205.417969 252.457031 196.0625 254.703125 185.875 255.253906 C 185.835938 255.261719 185.800781 255.261719 185.773438 255.261719 C 185.742188 255.261719 185.707031 255.261719 185.667969 255.253906 C 175.472656 254.703125 166.125 252.457031 157.875 248.5625 C 144.136719 242.082031 133.339844 230.351562 128.953125 217.152344 C 126.820312 214.269531 124.558594 211.425781 122.210938 208.699219 C 119.414062 205.445312 116.3125 202.320312 112.539062 201.53125 C 107.425781 200.445312 102.621094 203.832031 100.066406 207.066406 C 98.480469 209.078125 97.164062 211.503906 95.925781 214.691406 C 95.917969 214.714844 95.914062 214.734375 95.898438 214.757812 C 95.632812 215.359375 95.070312 215.78125 94.40625 215.847656 C 94.101562 215.875 93.800781 215.824219 93.527344 215.710938 C 93.183594 215.5625 92.890625 215.324219 92.691406 214.996094 C 91.261719 212.71875 89.769531 210.753906 88.132812 209.003906 C 88.011719 208.875 87.886719 208.742188 87.757812 208.617188 C 87.210938 208.046875 86.640625 207.507812 86.054688 207 C 81.796875 203.277344 76.828125 201.179688 72.085938 201.179688 C 66.800781 201.179688 61.210938 203.855469 57.136719 208.328125 C 55.402344 210.253906 53.886719 212.492188 52.65625 214.984375 C 52.613281 215.0625 52.570312 215.148438 52.527344 215.238281 C 52.300781 215.71875 51.871094 216.0625 51.363281 216.203125 C 51.144531 216.261719 50.925781 216.277344 50.714844 216.253906 C 50.414062 216.230469 50.125 216.125 49.871094 215.957031 C 48.617188 215.113281 47.300781 214.363281 45.941406 213.71875 C 44.988281 213.261719 44.019531 212.855469 43.023438 212.5 C 36.320312 210.078125 28.820312 209.898438 22.183594 212.171875 C 19.84375 212.972656 17.578125 214.089844 15.46875 215.492188 C 14.867188 215.882812 14.28125 216.296875 13.707031 216.742188 C 11.410156 218.484375 9.316406 220.570312 7.539062 222.90625 C 7.03125 223.578125 6.121094 223.816406 5.347656 223.464844 C 4.578125 223.125 4.148438 222.304688 4.300781 221.476562 C 9.277344 195.050781 22.535156 170.183594 41.628906 151.445312 C 57.574219 135.792969 77.546875 124.324219 99.40625 118.28125 C 99.425781 118.273438 99.449219 118.265625 99.472656 118.257812 C 99.5 118.25 99.535156 118.242188 99.566406 118.234375 C 99.570312 118.234375 99.570312 118.234375 99.578125 118.234375 C 99.628906 118.21875 99.6875 118.214844 99.738281 118.207031 C 99.796875 118.199219 99.847656 118.191406 99.90625 118.191406 C 99.921875 118.191406 99.945312 118.191406 99.964844 118.191406 L 100.488281 118.273438 C 100.53125 118.28125 100.578125 118.300781 100.621094 118.316406 L 100.671875 118.335938 C 100.777344 118.382812 100.882812 118.429688 100.976562 118.503906 L 100.984375 118.503906 C 101.078125 118.570312 101.164062 118.644531 101.253906 118.722656 C 101.296875 118.765625 101.332031 118.8125 101.371094 118.851562 C 101.375 118.863281 101.375 118.863281 101.375 118.867188 C 101.488281 118.996094 101.570312 119.144531 101.636719 119.304688 C 101.644531 119.308594 101.644531 119.320312 101.644531 119.324219 C 101.734375 119.535156 101.785156 119.769531 101.785156 120.007812 C 101.785156 120.226562 101.75 120.445312 101.667969 120.640625 C 98.160156 132.421875 100.058594 145.453125 106.753906 155.535156 C 111.648438 162.894531 119.246094 168.652344 127.8125 171.683594 C 128.777344 172.019531 129.765625 172.332031 130.757812 172.597656 C 131.332031 172.75 131.90625 172.894531 132.480469 173.027344 C 138.289062 158.804688 148.503906 146.492188 161.402344 138.246094 C 161.417969 138.234375 161.441406 138.21875 161.453125 138.210938 C 161.527344 138.160156 161.609375 138.117188 161.6875 138.089844 C 161.839844 138.015625 162 137.964844 162.175781 137.945312 C 162.261719 137.929688 162.347656 137.921875 162.4375 137.921875 C 162.714844 137.921875 162.984375 137.984375 163.214844 138.101562 C 163.367188 138.167969 163.515625 138.261719 163.636719 138.378906 C 163.695312 138.421875 163.753906 138.480469 163.800781 138.539062 C 163.855469 138.597656 163.898438 138.65625 163.933594 138.710938 C 163.945312 138.722656 163.945312 138.722656 163.945312 138.722656 C 164.007812 138.820312 164.066406 138.921875 164.113281 139.03125 C 164.125 139.054688 164.132812 139.085938 164.140625 139.113281 C 164.167969 139.179688 164.191406 139.242188 164.207031 139.3125 C 164.21875 139.382812 164.234375 139.453125 164.242188 139.527344 C 164.246094 139.597656 164.257812 139.664062 164.257812 139.738281 L 164.257812 139.746094 C 164.257812 139.867188 164.242188 139.992188 164.21875 140.109375 C 163.265625 145.078125 163.300781 150.234375 164.320312 155.160156 C 171.445312 150.480469 180.058594 148.089844 188.347656 148.546875 C 194.933594 148.917969 201.566406 151.082031 207.308594 154.707031 C 208.230469 149.921875 208.238281 144.914062 207.320312 140.109375 C 207.300781 139.992188 207.289062 139.867188 207.289062 139.746094 C 207.289062 139.671875 207.292969 139.597656 207.300781 139.527344 C 207.308594 139.449219 207.320312 139.363281 207.34375 139.285156 C 207.359375 139.234375 207.375 139.183594 207.394531 139.132812 C 207.476562 138.902344 207.601562 138.699219 207.757812 138.523438 C 207.796875 138.480469 207.839844 138.4375 207.882812 138.398438 C 207.902344 138.378906 207.925781 138.359375 207.949219 138.34375 C 208.066406 138.242188 208.1875 138.160156 208.328125 138.101562 C 208.558594 137.984375 208.832031 137.921875 209.105469 137.921875 C 209.195312 137.921875 209.28125 137.929688 209.367188 137.945312 C 209.542969 137.964844 209.703125 138.015625 209.855469 138.089844 C 209.933594 138.117188 210.015625 138.160156 210.085938 138.210938 C 210.109375 138.21875 210.125 138.234375 210.144531 138.246094 C 223.039062 146.5 233.253906 158.804688 239.058594 173.027344 C 239.605469 172.902344 240.144531 172.773438 240.683594 172.628906 C 241.746094 172.335938 242.800781 172.011719 243.839844 171.636719 C 252.351562 168.609375 259.914062 162.863281 264.789062 155.535156 C 271.484375 145.453125 273.382812 132.421875 269.875 120.640625 C 269.800781 120.445312 269.757812 120.226562 269.757812 120.007812 C 269.757812 119.769531 269.808594 119.535156 269.894531 119.324219 C 269.894531 119.320312 269.894531 119.308594 269.902344 119.304688 C 269.960938 119.15625 270.042969 119.027344 270.140625 118.90625 C 270.179688 118.84375 270.230469 118.789062 270.289062 118.738281 C 270.324219 118.695312 270.371094 118.648438 270.421875 118.613281 C 270.746094 118.34375 271.167969 118.1875 271.628906 118.191406 C 271.644531 118.191406 271.664062 118.191406 271.679688 118.199219 C 271.757812 118.199219 271.832031 118.207031 271.914062 118.21875 C 271.941406 118.230469 271.960938 118.234375 271.992188 118.242188 C 272.019531 118.242188 272.042969 118.25 272.070312 118.257812 C 293.953125 124.300781 313.953125 135.777344 329.917969 151.445312 C 349.007812 170.183594 362.265625 195.050781 367.242188 221.476562 " fill-opacity="1" fill-rule="nonzero"/></g><path fill="#dcc9e8" d="M 103.726562 157.542969 C 97.011719 147.4375 94.71875 134.609375 97.386719 122.644531 C 77.300781 128.71875 58.957031 139.53125 44.175781 154.039062 C 27.167969 170.722656 14.929688 192.421875 9.269531 215.695312 C 10.984375 214.152344 12.835938 212.789062 14.785156 211.628906 C 16.441406 205.582031 19.433594 199.503906 22.660156 194.511719 C 25.933594 189.4375 31.6875 182.304688 38.265625 181.808594 C 45.875 181.242188 47.28125 190.082031 47.695312 195.761719 C 48.035156 200.507812 47.789062 205.394531 46.820312 210.117188 C 47.980469 210.636719 49.097656 211.21875 50.191406 211.859375 C 49.570312 204.449219 50.3125 196.980469 52.402344 189.703125 C 55.117188 180.246094 60.367188 167.78125 69.347656 162.632812 C 73.285156 160.378906 78.335938 159.722656 82.386719 162.066406 C 86.316406 164.347656 88.199219 168.851562 89.351562 173.019531 C 92.214844 183.371094 92.148438 194.542969 89.058594 204.8125 C 89.648438 205.359375 90.230469 205.929688 90.789062 206.527344 C 91.199219 206.957031 91.589844 207.398438 91.976562 207.859375 C 91.714844 203.585938 92.195312 199.160156 92.957031 195.429688 C 94.113281 189.785156 96.007812 183.109375 101.164062 179.832031 C 105.917969 176.8125 112.183594 177.734375 116.757812 180.632812 C 117.679688 181.21875 118.539062 181.875 119.332031 182.59375 C 119.640625 181.808594 119.964844 181.074219 120.292969 180.414062 C 121.398438 178.167969 122.804688 176.078125 124.527344 174.332031 C 116.058594 170.929688 108.730469 165.070312 103.726562 157.542969 Z M 362.273438 215.695312 C 360.5625 214.164062 358.722656 212.804688 356.777344 211.640625 C 355.316406 206.324219 352.835938 201.023438 350.214844 196.472656 C 346.925781 190.773438 341.027344 182.621094 333.867188 181.839844 C 326.445312 181.019531 324.488281 189.144531 323.941406 194.839844 C 323.457031 199.859375 323.644531 205.101562 324.664062 210.144531 C 323.527344 210.652344 322.421875 211.230469 321.351562 211.859375 C 321.984375 204.347656 321.246094 196.757812 319.125 189.40625 C 316.394531 179.921875 311.136719 167.339844 301.996094 162.371094 C 292.824219 157.386719 285.09375 163.546875 282.453125 172.386719 C 279.324219 182.867188 279.289062 194.367188 282.453125 204.839844 C 281.871094 205.382812 281.304688 205.941406 280.753906 206.527344 C 280.335938 206.96875 279.921875 207.429688 279.53125 207.902344 C 279.835938 203.535156 279.371094 199.003906 278.570312 195.105469 C 277.382812 189.308594 275.304688 182.121094 269.585938 179.222656 C 262.96875 175.875 257.011719 178.375 252.390625 182.929688 C 252.089844 182.101562 251.765625 181.3125 251.4375 180.609375 C 250.335938 178.242188 248.929688 176.078125 247.152344 174.28125 C 255.5625 170.863281 262.835938 165.03125 267.816406 157.542969 C 274.539062 147.4375 276.824219 134.609375 274.152344 122.644531 C 294.242188 128.71875 312.585938 139.53125 327.371094 154.039062 C 344.375 170.722656 356.613281 192.421875 362.273438 215.695312 " fill-opacity="1" fill-rule="nonzero"/><path fill="#f8f0f9" d="M 34.929688 186.070312 C 29.546875 189.386719 25.582031 194.992188 22.5625 200.414062 C 20.875 203.449219 19.550781 206.679688 18.164062 209.859375 C 19.089844 209.441406 20.039062 209.0625 21 208.734375 C 28.210938 206.265625 36.316406 206.382812 43.632812 208.867188 C 44.011719 206.191406 44.230469 203.492188 44.230469 200.714844 C 44.230469 195.640625 43.882812 180.558594 34.929688 186.070312 Z M 80.101562 164.527344 C 74.484375 161.289062 68.777344 166.121094 65.527344 170.382812 C 57.34375 181.125 53.222656 194.578125 52.640625 208.074219 C 53.21875 207.3125 53.820312 206.578125 54.445312 205.890625 C 59.273438 200.59375 65.695312 197.550781 72.085938 197.550781 C 77.132812 197.550781 82.339844 199.496094 86.910156 203.011719 C 88.570312 194.164062 88.695312 185.144531 86.558594 176.296875 C 85.535156 172.113281 84.117188 166.835938 80.101562 164.527344 Z M 150.222656 185.347656 C 150.832031 184.460938 152.917969 184.902344 152.207031 185.988281 C 149.996094 189.339844 151.472656 192.390625 153.542969 195.296875 C 154.03125 195.988281 153.109375 196.664062 152.4375 196.378906 C 148.285156 194.621094 147.898438 188.703125 150.222656 185.347656 Z M 165.398438 194.542969 C 162.269531 194.542969 159.738281 190.242188 159.738281 184.925781 C 159.738281 179.613281 162.269531 175.316406 165.398438 175.316406 C 168.527344 175.316406 171.058594 179.613281 171.058594 184.925781 C 171.058594 190.242188 168.527344 194.542969 165.398438 194.542969 Z M 206.144531 194.542969 C 203.015625 194.542969 200.484375 190.242188 200.484375 184.925781 C 200.484375 179.613281 203.015625 175.316406 206.144531 175.316406 C 209.273438 175.316406 211.804688 179.613281 211.804688 184.925781 C 211.804688 190.242188 209.273438 194.542969 206.144531 194.542969 Z M 219.675781 190.394531 C 221.074219 188.105469 220.652344 184.765625 218.164062 183.414062 C 217.480469 183.042969 218.382812 182.433594 218.863281 182.570312 C 222.519531 183.683594 224.222656 188.28125 221.691406 191.28125 C 221.039062 192.058594 218.984375 191.519531 219.675781 190.394531 Z M 271.207031 185.078125 C 267.546875 179.609375 260.925781 179.796875 255.960938 183.371094 C 254.964844 184.089844 254.0625 184.929688 253.25 185.847656 C 252.269531 186.929688 251.394531 188.121094 250.585938 189.371094 C 250.308594 188.21875 250.078125 187.046875 249.769531 185.886719 C 249.4375 184.546875 249.007812 183.226562 248.359375 181.960938 C 247.109375 179.527344 245.425781 177.484375 243.59375 175.5625 C 241.855469 176.117188 240.082031 176.558594 238.265625 176.898438 C 237.398438 177.058594 236.550781 176.585938 236.230469 175.765625 C 231.296875 162.894531 222.582031 151.589844 211.472656 143.550781 C 211.914062 148.460938 211.5 153.445312 210.25 158.171875 C 210.085938 158.753906 209.65625 159.21875 209.09375 159.421875 C 208.527344 159.625 207.898438 159.53125 207.410156 159.175781 C 201.757812 155.035156 194.910156 152.550781 188.152344 152.179688 C 179.820312 151.722656 171.125 154.433594 164.292969 159.632812 C 163.8125 159.996094 163.179688 160.105469 162.609375 159.90625 C 162.035156 159.722656 161.597656 159.253906 161.441406 158.675781 C 160.074219 153.792969 159.605469 148.636719 160.0625 143.550781 C 148.960938 151.589844 140.246094 162.902344 135.3125 175.765625 C 134.992188 176.585938 134.132812 177.058594 133.273438 176.898438 C 131.402344 176.550781 129.570312 176.085938 127.78125 175.511719 C 125.894531 177.496094 124.210938 179.613281 122.972656 182.15625 C 122.484375 183.167969 122.125 184.214844 121.835938 185.265625 C 121.457031 186.664062 121.183594 188.082031 120.851562 189.480469 C 120.070312 188.265625 119.214844 187.105469 118.265625 186.042969 C 117.617188 185.3125 116.917969 184.621094 116.160156 183.988281 C 111.859375 180.421875 105.109375 179.09375 101.113281 183.800781 C 97.628906 187.902344 96.480469 194.207031 95.757812 199.351562 C 95.382812 202.046875 95.382812 204.667969 95.488281 207.28125 C 96.035156 206.40625 96.609375 205.582031 97.214844 204.8125 C 100.765625 200.316406 105.816406 197.703125 110.648438 197.703125 C 111.542969 197.703125 112.421875 197.789062 113.296875 197.972656 C 118.125 198.992188 121.761719 202.597656 124.972656 206.332031 C 126.734375 208.386719 128.449219 210.492188 130.097656 212.644531 C 130.398438 210.1875 131.203125 207.761719 132.445312 205.515625 C 132.984375 204.550781 135.011719 204.957031 134.453125 206.164062 C 132.714844 209.925781 132.320312 213.835938 132.988281 217.648438 C 137.390625 229.253906 147.148438 239.484375 159.433594 245.28125 C 167.222656 248.957031 176.085938 251.09375 185.773438 251.621094 C 195.457031 251.09375 204.316406 248.957031 212.109375 245.28125 C 224.4375 239.46875 234.207031 229.191406 238.59375 217.539062 C 239.199219 213.761719 238.757812 209.898438 237.058594 206.214844 C 236.535156 205.070312 238.578125 204.5 239.121094 205.472656 C 240.382812 207.726562 241.171875 210.160156 241.46875 212.613281 C 243.105469 210.480469 244.816406 208.371094 246.570312 206.332031 C 249.777344 202.597656 253.414062 198.992188 258.246094 197.972656 C 263.796875 196.792969 270.113281 199.480469 274.324219 204.8125 C 274.953125 205.605469 275.535156 206.449219 276.097656 207.347656 C 276.195312 205.03125 276.195312 202.707031 275.890625 200.308594 C 275.234375 195.179688 274.117188 189.441406 271.207031 185.078125 Z M 202.332031 199.933594 C 202.65625 198.039062 206.203125 197.738281 206.113281 199.917969 C 205.992188 203.179688 204.972656 206.242188 203.3125 208.917969 C 203.929688 210.722656 203.992188 212.949219 203.9375 214.453125 C 203.800781 218.59375 202.144531 222.386719 199.289062 225.371094 C 198.472656 226.226562 196.765625 226.269531 196.359375 224.984375 C 195.632812 222.652344 195.222656 220.226562 194.554688 217.875 C 194.464844 217.5625 194.371094 217.25 194.269531 216.9375 C 192.125 217.953125 189.800781 218.605469 187.410156 218.820312 C 183.667969 219.160156 180.054688 218.347656 176.886719 216.695312 C 176.835938 216.859375 176.785156 217.023438 176.742188 217.183594 C 176.019531 219.675781 175.578125 222.238281 174.835938 224.722656 C 174.5 225.820312 172.847656 226.546875 171.9375 225.59375 C 169.066406 222.582031 167.390625 218.832031 167.253906 214.640625 C 167.195312 212.898438 167.289062 210.160156 168.222656 208.199219 C 167.339844 206.601562 166.664062 204.871094 166.234375 203.0625 C 165.996094 202.050781 168.039062 201.632812 168.335938 202.558594 C 168.746094 203.847656 169.289062 205.074219 169.964844 206.238281 C 170.367188 206.914062 170.804688 207.566406 171.277344 208.191406 C 172.324219 209.5625 173.554688 210.792969 174.929688 211.832031 C 175.847656 212.527344 176.820312 213.136719 177.851562 213.65625 C 180.398438 214.933594 183.253906 215.617188 186.191406 215.484375 C 188.734375 215.375 191.089844 214.628906 193.179688 213.421875 C 193.179688 213.414062 193.179688 213.414062 193.179688 213.414062 C 194.203125 212.828125 195.171875 212.113281 196.0625 211.3125 C 196.0625 211.308594 196.066406 211.308594 196.066406 211.308594 C 199.316406 208.394531 201.566406 204.253906 202.332031 199.933594 Z M 305.214844 169.605469 C 301.894531 165.550781 295.691406 161.0625 290.53125 164.917969 C 286.898438 167.636719 285.613281 173.097656 284.703125 177.265625 C 282.855469 185.832031 283.058594 194.484375 284.660156 202.988281 C 289.222656 199.492188 294.421875 197.550781 299.460938 197.550781 C 305.847656 197.550781 312.273438 200.59375 317.09375 205.890625 C 317.730469 206.585938 318.335938 207.3125 318.898438 208.082031 C 318.296875 194.207031 313.945312 180.261719 305.214844 169.605469 Z M 353.320312 209.839844 C 352.414062 209.425781 351.484375 209.054688 350.542969 208.734375 C 343.347656 206.265625 335.25 206.382812 327.945312 208.851562 C 327.5 205.765625 327.253906 202.644531 327.320312 199.429688 C 327.382812 196.070312 327.550781 192.441406 328.550781 189.203125 C 328.964844 187.867188 329.613281 186.039062 330.890625 185.273438 C 333.191406 183.902344 335.503906 185.433594 337.292969 186.691406 C 342.3125 190.191406 346.039062 195.34375 348.992188 200.621094 C 350.652344 203.578125 351.953125 206.730469 353.320312 209.839844 " fill-opacity="1" fill-rule="nonzero"/></svg>